**ABCDEFGHIJKLMNOPQRSTUVWXYZabcdefghijklmnopqrstuvwxyz**************************
**PARASOLID !"#$%&'()*+,-./:;<=>?@[\]^_`{|}~0123456789**************************
**PART1;
MC=AMD64;
MC_MODEL=Intel64 Family 6 Model 61 Stepping 4, GenuineIntel;
MC_ID=unknown;
OS=Windows_NT;
OS_RELEASE=unknown;
FRU=Parasolid Version 27.0, build 199, 11-19-2014;
APPL=SOLIDWORKS 2015-2015063;
SITE=;
USER=unknown;
FORMAT=text;
GUISE=transmit;
KEY=Horizontal Thruster Mount;
FILE=Horizontal Thruster Mount.x_t;
DATE=Thu Jan 21 15:11:24 2016;
**PART2;
SCH=SCH_2700199_26105;
USFLD_SIZE=0;
**PART3;
**END_OF_HEADER*****************************************************************
T51 : TRANSMIT FILE created by modeller version 270019923 SCH_2700199_26105_1300
6196 0 12 30 CCCCCCCCCCCCCDI5 owner1040 0 CCCCCCCCCA13 boundary_mesh1006 0 A16 i
ndex_map_offset0 0 1 dA9 index_map82 0 A17 node_id_index_map82 0 A20 schema_embe
dding_map82 0 A5 child12 0 A14 lowest_node_id0 0 1 dZ1 957 0 2 3 0 0 0 1e3 1e-8
 0 4 0 1 0 1 1 5 6 7 8 9 10 11 0 0 0 0 0 0 0 70 11 CI9 list_type0 0 1 uI10 notra
nsmit0 0 1 lCCCDCCDI12 finger_index0 0 1 dI12 finger_block1012 0 CZ2 0 4 T1 0 0
 2 20 1 12 12 50 255 3 361 0 1 13 0 0 +0 -.0142875 0 0 -1 0 0 0 -1 13 255 5 94 0
 1 0 14 0 0 15 0 50 6 93 0 16 17 0 0 +0 .0206375 0 2959501993136285e-31 0 1 1 0
 -2959501993136285e-31 32 255 7 570 0 18 19 0 0 +.0047625 -.0174625 .00680155488
210933 -1 0 819554398099279e-31 -819554398099279e-31 0 -1 .001439353646162286 .0
0135255 29 255 8 388 0 11 20 0 -.01155605493795194 -.0142875 .03175 19 8 CCCCCCC
A5 owner12 0 Z9 28 0 1 15 0 21 V0 16 255 10 77 0 ?22 0 23 24 23 23 1 18 255 11 3
86 0 25 0 26 8 ?1 17 255 25 0 27 28 29 11 30 31 0 32 +18 26 25 0 33 11 34 35 ?1
 17 33 0 36 37 38 26 39 40 0 41 +18 34 22 0 38 26 42 43 ?1 29 35 27 0 26 43 44 .
0047625 .0206375 -1409462824231156e-33 29 43 24 0 34 45 35 .0047625 .0206375 .03
175 29 44 73 0 46 35 47 0 -.0206375 0 18 46 64 0 48 49 50 44 ?1 29 47 72 0 49 44
 51 -.01155605493795194 -.0206375 .03175 18 49 63 0 52 53 46 47 ?1 29 51 71 0 53
 47 20 .0047625 -.0206375 .03175 18 53 62 0 54 55 49 51 ?1 29 20 70 0 55 51 8 .0
047625 -.0206375 -1409462824231156e-33 18 55 61 0 56 57 53 20 ?1 17 56 0 58 41 5
9 55 60 61 0 62 +18 57 16 0 63 42 55 64 ?1 17 63 0 65 22 66 57 67 68 0 37 -18 42
 19 0 67 34 57 45 ?1 29 64 18 0 57 69 45 0 .0206375 0 29 69 523 0 50 70 64 -.011
55605493795194 .0142875 .03175 29 45 21 0 42 64 43 -.01155605493795194 .0206375
 .03175 18 50 440 0 71 46 72 69 ?1 29 70 524 0 72 73 69 -155096087073832e-64 .01
42875 .03175 18 72 441 0 74 50 75 70 ?1 29 73 525 0 75 76 70 3424920340555815e-4
9 .0142875 -1387778780781446e-32 18 75 439 0 77 72 78 73 ?1 29 76 526 0 78 79 73
 -155096087073832e-64 -.0142875 .03175 18 78 437 0 80 75 81 76 ?1 29 79 528 0 81
 82 76 3424920340555815e-49 -.0142875 -1387778780781446e-32 18 81 436 0 83 78 84
 79 ?1 29 82 649 0 84 85 79 -.000590082487376553 -.0174625 .02850472517352685 18
 84 627 0 86 81 87 82 ?1 29 85 685 0 87 0 82 -.000590082487376553 .0174625 .0285
0472517352685 18 87 663 0 88 84 0 85 ?1 17 88 0 89 88 88 87 0 0 0 0 ?15 255 89 6
71 0 88 90 91 14 255 90 668 92 ?93 94 89 5 95 -0 0 93 94 21 15 91 672 0 96 90 0
 17 96 0 91 96 96 0 97 98 0 0 +17 97 0 99 97 97 0 96 98 0 0 -16 98 662 0 ?96 100
 101 102 0 0 1 16 100 625 0 ?103 104 98 105 0 0 1 16 101 661 0 ?106 98 107 108 0
 0 1 31 255 102 683 0 98 108 105 0 +-.001353765070574014 .0174625 .0282267674448
1545 -.939692620785908 0 -.3420201433256695 -.3420201433256695 0 .93969262078590
8 .00135255 31 108 684 0 101 109 102 0 +-.0092302686180015 .0174625 .02535995460
34597 -.939692620785908 0 -.3420201433256695 -.3420201433256695 0 .9396926207859
08 .001352549999999986 31 105 648 0 100 102 110 0 +-.0092302686180015 -.0174625
 .0253599546034597 -.939692620785908 0 -.3420201433256695 -.3420201433256695 0 .
939692620785908 .001352549999999986 31 110 647 0 104 105 111 0 +-.00135376507057
4014 -.0174625 .02822676744481545 -.939692620785908 0 -.3420201433256695 -.34202
01433256695 0 .939692620785908 .00135255 16 104 626 0 ?112 113 100 110 0 0 1 31
 111 613 0 113 110 114 0 +-.0016288709325885 -.0174625 .00447528610649289 -.9396
92620785908 0 -.3420201433256695 -.3420201433256695 0 .939692620785908 .00135254
9999999986 16 113 585 0 ?115 18 104 111 0 0 1 30 255 114 522 0 116 111 117 0 +0
 -.0142875 .03175 1078715067891594e-47 0 -1 16 116 427 0 ?29 31 18 114 0 0 1 30
 117 521 0 118 114 119 0 +-.01155605493795194 -.0142875 .03175 1 0 0 16 118 435
 0 ?28 120 31 117 0 0 1 30 119 520 0 31 117 121 0 +-.01155605493795194 -.0142875
 .03175 -.3420201433256695 0 .939692620785908 16 31 421 0 ?25 118 116 119 0 0 1
 30 121 519 0 122 119 123 0 +0 .0142875 .03175 -1078715067891594e-47 0 1 16 122
 425 0 ?124 125 126 121 0 0 1 30 123 518 0 125 121 127 0 +-.01155605493795194 .0
142875 .03175 -1 0 0 16 125 433 0 ?71 128 122 123 0 0 1 30 127 516 0 120 123 129
 0 +3424920340555815e-49 .0544251442761102 -1387778780781446e-32 0 -1 0 16 120 4
20 0 ?83 130 118 127 0 0 1 30 129 515 0 130 127 131 0 +0 .0544251442761102 .0317
5 0 -1 0 16 130 426 0 ?132 126 120 129 0 0 1 30 131 514 0 126 129 133 0 +-.01155
605493795194 .0142875 .03175 .3420201433256695 0 -.939692620785908 16 126 419 0
 ?134 122 130 131 0 0 1 31 133 513 0 135 131 136 0 -0 0 .0068125 -1 0 -107871506
7891594e-47 -1078715067891594e-47 0 1 .0017 16 135 430 0 ?137 138 128 133 0 0 1
 31 136 512 0 138 133 139 0 -0 -.0095 .0163125 -1 0 -1078715067891594e-47 -10787
15067891594e-47 0 1 .0017 16 138 429 0 ?140 141 135 136 0 0 1 31 139 511 0 141 1
36 142 0 -0 0 .0258125 -1 0 -1078715067891594e-47 -1078715067891594e-47 0 1 .001
7 16 141 428 0 ?143 144 138 139 0 0 1 31 142 339 0 144 139 145 0 +.0047625 .0095
 .0163125 1 0 -1110223024625156e-31 -1110223024625156e-31 0 -1 .0017 16 144 312
 0 ?146 147 141 142 0 0 1 31 145 289 0 147 142 148 0 +.0047625 0 .0068125 1 0 -1
110223024625156e-31 -1110223024625156e-31 0 -1 .0017 16 147 263 0 ?149 150 144 1
45 0 0 1 31 148 239 0 150 145 151 0 +.0047625 -.0095 .0163125 1 0 -1110223024625
156e-31 -1110223024625156e-31 0 -1 .0017 16 150 212 0 ?152 153 147 148 0 0 1 31
 151 189 0 153 148 154 0 +.0047625 0 .0258125 1 0 -1110223024625156e-31 -1110223
024625156e-31 0 -1 .0017 16 153 162 0 ?155 156 150 151 0 0 1 30 154 5 0 157 151
 158 0 +0 .0206375 0 -1 0 2959501993136285e-31 16 157 4 0 ?37 68 61 154 0 0 1 30
 158 8 0 68 154 159 0 +0 .0206375 0 -.3420201433256695 0 .939692620785908 16 68
 7 0 ?67 160 157 158 0 0 1 30 159 11 0 160 158 161 0 +.0047625 .0206375 .03175 1
 0 -4252149734024235e-31 16 160 10 0 ?38 40 68 159 0 0 1 30 161 14 0 40 159 162
 0 +.0047625 .0206375 -1409462824231156e-33 -819554398099279e-31 0 -1 16 40 13 0
 ?33 163 160 161 0 0 1 30 162 69 0 156 161 164 0 +0 -.0206375 0 -1 0 29595019931
36285e-31 16 156 57 0 ?165 166 153 162 0 0 1 30 164 68 0 166 162 167 0 +0 -.0206
375 0 -.3420201433256695 0 .939692620785908 16 166 53 0 ?168 169 156 164 0 0 1 3
0 167 67 0 169 164 170 0 +.0047625 -.0206375 .03175 1 0 -4252149734024235e-31 16
 169 49 0 ?54 61 166 167 0 0 1 30 170 66 0 61 167 171 0 +.0047625 -.0206375 -140
9462824231156e-33 -819554398099279e-31 0 -1 16 61 45 0 ?56 157 169 170 0 0 1 30
 171 86 0 163 170 172 0 +.0047625 .0206375 -1409462824231156e-33 0 -1 0 16 163 7
4 0 ?62 173 40 171 0 0 1 30 172 87 0 173 171 174 0 +.0047625 .0206375 .03175 0 -
1 0 16 173 75 0 ?59 175 163 172 0 0 1 30 174 88 0 176 172 24 0 +-.01155605493795
194 .0206375 .03175 0 -1 0 16 176 76 0 ?177 23 175 174 175 175 1 30 24 89 0 10 1
74 19 0 +0 .0206375 0 0 -1 0 31 19 365 0 128 24 7 0 -0 .0095 .0163125 -1 0 -1078
715067891594e-47 -1078715067891594e-47 0 1 .0017 16 128 432 0 ?178 135 125 19 0
 0 1 17 178 0 179 178 178 0 180 128 0 0 +15 179 466 0 178 181 182 17 180 0 183 1
80 180 0 178 128 0 0 -15 183 364 0 180 184 0 14 184 366 185 ?16 186 187 5 188 -0
 0 16 186 21 81 255 1 185 939 189 184 190 0 92 191 192 14 16 85 191 ?193 184 194
 5 6 -0 0 193 184 21 14 186 371 195 ?184 196 197 5 198 -0 0 184 196 21 15 187 31
7 0 146 184 183 51 255 188 336 0 184 199 198 0 +.0047625 .0095 .0163125 1 0 -111
0223024625156e-31 .0017 -1110223024625156e-31 0 -1 13 21 29 0 0 0 0 0 0 9 14 14
 14 416 200 ?201 0 202 5 17 -193 193 201 0 21 81 1 200 942 189 14 203 0 195 204
 205 14 201 400 204 ?206 14 207 5 208 -0 0 206 14 21 15 202 687 0 209 14 210 50
 17 92 0 193 208 6 0 +0 .0206375 0 .939692620785908 0 .3420201433256695 .3420201
433256695 0 -.939692620785908 14 193 83 211 ?212 16 213 5 17 -14 14 212 16 21 81
 1 211 944 189 193 214 0 204 215 216 14 212 79 215 ?217 193 218 5 219 -0 0 217 1
93 21 15 213 617 0 220 193 221 17 220 0 213 220 220 0 103 100 0 0 -15 221 576 0
 222 193 223 17 222 0 221 222 222 0 115 113 0 0 -15 223 82 0 224 193 0 17 224 0
 223 30 168 11 52 175 0 0 -17 30 0 223 48 224 81 25 31 0 225 -17 168 0 223 224 4
8 49 226 166 0 227 +17 52 0 207 54 32 49 224 175 0 168 +16 175 387 0 ?52 176 173
 174 176 176 1 15 207 398 0 228 201 0 17 54 0 207 229 52 53 227 169 0 59 +17 32
 0 207 52 132 11 28 118 0 224 -17 132 0 207 32 228 78 74 130 0 0 +17 28 0 27 29
 25 78 32 118 0 132 +15 27 499 0 28 230 0 17 29 0 27 25 28 81 80 116 0 30 +17 80
 0 231 74 83 78 29 116 0 28 -15 231 465 0 83 181 179 17 74 0 231 77 80 72 132 13
0 0 124 -17 83 0 231 80 77 81 232 120 0 29 +17 77 0 231 83 74 75 124 122 0 134 -
17 232 0 194 233 225 75 83 120 0 22 -15 194 84 0 165 16 0 17 233 0 194 234 232 5
7 22 10 0 0 -17 225 0 194 232 165 81 48 23 0 0 -17 22 0 65 235 63 75 233 10 0 0
 +15 65 414 0 235 14 0 17 235 0 65 66 22 50 134 126 0 177 -17 66 0 65 63 235 42
 177 176 0 236 -17 134 0 237 124 71 75 235 126 0 232 +17 177 0 207 228 236 50 66
 176 0 0 +17 228 0 207 132 177 72 71 125 0 0 -17 236 0 207 177 229 42 38 160 0 0
 -17 229 0 207 236 54 34 59 173 0 39 -17 38 0 36 33 67 34 236 160 0 229 +15 36 3
 0 37 217 0 17 67 0 36 38 37 42 63 68 0 66 +17 37 0 36 67 33 57 234 157 0 233 +1
7 234 0 194 62 233 26 37 157 0 0 -17 62 0 194 165 234 55 41 163 0 238 +17 165 0
 194 225 62 46 238 156 0 0 +17 41 0 58 39 56 26 62 163 0 234 -17 238 0 239 60 22
6 55 165 156 0 0 -15 239 44 0 238 240 0 17 60 0 239 227 238 53 56 61 0 0 -17 226
 0 239 238 227 46 168 166 0 165 -17 227 0 239 226 60 49 54 169 0 0 -14 240 43 24
1 ?181 217 239 5 242 +0 0 181 217 21 81 1 241 946 189 240 243 0 215 244 245 14 1
81 462 244 ?246 240 231 5 199 +0 0 246 240 21 14 217 1 247 ?240 212 36 5 248 -0
 0 240 212 21 50 242 65 0 240 248 219 0 +0 -.0206375 0 0 -1 0 0 0 -1 50 248 2 0
 217 249 242 0 +0 .0206375 0 0 -1 0 0 0 -1 50 219 90 0 212 242 208 0 +.0047625 .
0206375 -1409462824231156e-33 -1 0 819554398099279e-31 819554398099279e-31 0 1 5
0 208 91 0 201 219 17 0 +.0047625 .0206375 .03175 -4252149734024235e-31 0 -1 -1
 0 4252149734024235e-31 51 249 186 0 206 250 248 0 +.0047625 0 .0258125 1 0 -111
0223024625156e-31 .0017 -1110223024625156e-31 0 -1 14 206 381 251 ?196 201 252 5
 249 -0 0 196 201 21 51 250 236 0 196 198 249 0 +.0047625 -.0095 .0163125 1 0 -1
110223024625156e-31 .0017 -1110223024625156e-31 0 -1 14 196 376 253 ?186 206 254
 5 250 -0 0 186 206 21 51 198 287 0 186 188 250 0 +.0047625 0 .0068125 1 0 -1110
223024625156e-31 .0017 -1110223024625156e-31 0 -1 81 1 253 950 189 196 255 0 251
 256 257 15 254 217 0 152 196 258 17 152 0 254 152 152 0 259 150 0 0 +15 258 375
 0 260 196 0 17 260 0 258 260 260 0 140 138 0 0 -17 140 0 261 140 140 0 260 138
 0 0 +15 261 468 0 140 181 262 15 262 469 0 143 181 0 17 143 0 262 143 143 0 263
 141 0 0 +17 263 0 264 263 263 0 143 141 0 0 -15 264 380 0 263 206 0 17 259 0 26
5 259 259 0 152 150 0 0 -15 265 192 0 259 212 266 15 266 142 0 267 212 58 17 267
 0 266 267 267 0 155 153 0 0 -15 58 78 0 56 212 0 17 155 0 252 155 155 0 267 153
 0 0 +15 252 167 0 155 206 264 80 255 1 189 268 269 9000 1 1 1 1 1 1 1 1 0 FFFFT
FTFFFFFFF1 81 1 255 879 270 196 0 253 271 272 273 81 1 251 949 189 206 271 0 247
 253 274 81 1 256 951 189 246 275 0 253 276 277 82 255 1 257 976356026 14 246 49
4 256 ?230 181 237 5 278 +0 0 230 181 21 81 1 275 888 270 246 0 256 279 280 281
 81 1 276 952 189 230 280 0 256 282 283 82 1 277 916652730 14 230 497 276 ?284 2
46 27 5 285 -0 0 284 246 21 81 1 280 889 270 230 0 276 275 286 287 81 1 282 953
 189 284 286 0 276 288 289 82 1 283 935199418 14 284 588 282 ?290 230 291 5 292
 -0 0 290 230 21 81 1 286 890 270 284 0 282 280 293 294 81 1 288 954 189 290 293
 0 282 295 296 82 1 289 -1512570178 14 290 632 288 ?94 284 297 5 298 -0 0 94 284
 21 81 1 293 891 270 290 0 288 286 299 300 81 1 295 955 189 94 299 0 288 301 302
 82 1 296 -1548877122 14 94 637 295 ?90 290 303 5 304 -0 0 90 290 21 81 1 299 89
2 270 94 0 295 293 305 306 81 1 301 956 189 93 307 0 295 308 309 82 1 302 -15494
66946 14 93 673 301 ?310 90 99 5 311 -0 0 310 90 21 81 1 307 894 270 93 0 301 30
5 312 313 81 1 308 957 189 310 312 0 301 0 314 82 1 309 -1533672770 14 310 708 3
08 ?0 93 315 5 316 -0 0 0 93 21 81 1 312 895 270 310 0 308 307 0 317 82 1 314 -1
507261762 80 1 270 0 318 8001 0 0 0 0 3 5 0 0 0 FFFFTFTFFFFFFF2 83 255 3 317 .89
8039215686275 .917647058823529 .929411764705882 79 255 15 318 SDL/TYSA_COLOUR15
 315 711 0 319 310 320 51 316 731 0 310 0 311 0 +-.0016288709325885 .0174625 .00
447528610649289 -.939692620785908 0 -.3420201433256695 .00135255 -.3420201433256
695 0 .939692620785908 51 311 682 0 93 316 95 0 +-.0092302686180015 .0174625 .02
53599546034597 -.939692620785908 0 -.3420201433256695 .00135255 -.34202014332566
95 0 .939692620785908 52 255 95 681 0 90 311 304 0 +-.001353765070574014 .017462
5 .02822676744481545 -.939692620785908 0 -.3420201433256695 .00135255 .857167300
702111 .515038074910056 -.3420201433256695 0 .939692620785908 51 304 646 0 94 95
 298 0 +-.0092302686180015 -.0174625 .0253599546034597 -.939692620785908 0 -.342
0201433256695 .00135255 -.3420201433256695 0 .939692620785908 52 298 645 0 290 3
04 292 0 +-.001353765070574014 -.0174625 .02822676744481545 -.939692620785908 0
 -.3420201433256695 .00135255 .857167300702111 .515038074910056 -.34202014332566
95 0 .939692620785908 51 292 611 0 284 298 285 0 +-.0016288709325885 -.0174625 .
00447528610649289 -.939692620785908 0 -.3420201433256695 .00135255 -.34202014332
56695 0 .939692620785908 50 285 506 0 230 292 278 0 +0 -.0142875 0 0 -1 0 0 0 -1
 50 278 505 0 246 285 199 0 +0 .0142875 0 0 -1 0 0 0 -1 50 199 503 0 181 278 188
 0 +0 .0544251442761102 .03175 -1 0 -1078715067891594e-47 -1078715067891594e-47
 0 1 17 319 0 315 319 319 0 209 321 0 0 +15 320 712 0 322 310 0 17 322 0 320 322
 322 0 323 107 0 0 -17 323 0 218 323 323 0 322 107 0 0 +16 107 704 0 ?323 101 32
1 109 0 0 1 16 321 705 0 ?319 107 0 324 0 0 1 32 109 732 0 107 324 108 0 +.00476
25 .0174625 .00680155488210933 -1 0 819554398099279e-31 -819554398099279e-31 0 -
1 .001439353646162286 .00135255 31 324 734 0 321 0 109 0 +-.0016288709325885 .01
74625 .00447528610649289 -.939692620785908 0 -.3420201433256695 -.34202014332566
95 0 .939692620785908 .001352549999999986 15 218 697 0 323 212 325 15 325 568 0
 326 212 327 17 326 0 325 326 326 0 328 18 0 0 +15 327 292 0 329 212 330 17 329
 0 327 329 329 0 146 144 0 0 -15 330 252 0 331 212 265 17 331 0 330 331 331 0 14
9 147 0 0 -17 149 0 197 149 149 0 331 147 0 0 +15 197 268 0 149 186 332 15 332 3
70 0 333 186 0 17 333 0 332 333 333 0 137 135 0 0 -17 137 0 182 137 137 0 333 13
5 0 0 +15 182 467 0 137 181 261 17 146 0 187 146 146 0 329 144 0 0 +17 328 0 334
 328 328 0 326 18 0 0 -16 18 584 0 ?326 116 113 7 0 0 1 15 334 592 0 328 284 0 1
7 209 0 202 209 209 0 319 321 0 0 -81 1 305 893 270 90 0 92 299 307 335 83 3 313
 .898039215686275 .917647058823529 .929411764705882 81 1 92 938 189 90 305 0 0 1
85 336 83 3 335 .898039215686275 .917647058823529 .929411764705882 82 1 336 -153
3082946 15 99 676 0 97 93 337 15 337 677 0 106 93 0 17 106 0 337 106 106 0 338 1
01 0 0 +17 338 0 210 338 338 0 106 101 0 0 -15 210 651 0 338 14 65 83 3 306 .898
039215686275 .917647058823529 .929411764705882 15 303 640 0 339 94 340 17 339 0
 303 339 339 0 112 104 0 0 -15 340 641 0 103 94 0 17 103 0 340 103 103 0 220 100
 0 0 +17 112 0 341 112 112 0 339 104 0 0 +15 341 636 0 112 290 0 83 3 300 .89803
9215686275 .917647058823529 .929411764705882 15 297 635 0 86 290 341 17 86 0 297
 86 86 84 0 0 0 0 ?83 3 294 .898039215686275 .917647058823529 .929411764705882 1
5 291 591 0 115 284 334 17 115 0 291 115 115 0 222 113 0 0 +83 3 287 .8980392156
86275 .917647058823529 .929411764705882 81 1 279 887 270 181 0 244 243 275 342 8
3 3 281 .898039215686275 .917647058823529 .929411764705882 81 1 244 947 189 181
 279 0 241 247 343 81 1 243 886 270 240 0 241 344 279 345 83 3 342 .898039215686
275 .917647058823529 .929411764705882 81 1 344 885 270 217 0 247 346 243 347 83
 3 345 .898039215686275 .917647058823529 .929411764705882 81 1 247 948 189 217 3
44 0 244 251 348 81 1 346 884 270 212 0 215 214 344 349 83 3 347 .89803921568627
5 .917647058823529 .929411764705882 81 1 215 945 189 212 346 0 211 241 350 81 1
 214 883 270 193 0 211 351 346 352 83 3 349 .898039215686275 .917647058823529 .9
29411764705882 81 1 351 882 270 16 0 191 190 214 353 83 3 352 .898039215686275 .
917647058823529 .929411764705882 81 1 191 940 189 16 351 0 185 195 354 81 1 190
 881 270 184 0 185 272 351 355 83 3 353 .898039215686275 .917647058823529 .92941
1764705882 81 1 272 880 270 186 0 195 255 190 356 83 3 355 .898039215686275 .917
647058823529 .929411764705882 81 1 195 941 189 186 272 0 191 200 357 83 3 356 .8
98039215686275 .917647058823529 .929411764705882 82 1 357 975897274 82 1 354 -11
46551622 82 1 350 -1147338050 82 1 348 -1153891672 82 1 343 973013690 15 237 496
 0 124 246 0 17 124 0 237 71 134 72 77 122 0 228 +17 71 0 237 134 124 50 228 125
 0 235 +81 1 271 878 270 206 0 251 358 255 359 82 1 274 976814778 81 1 358 877 2
70 201 0 204 203 271 360 83 3 359 .898039215686275 .917647058823529 .92941176470
5882 81 1 204 943 189 201 358 0 200 211 361 81 1 203 876 270 14 0 200 0 358 362
 83 3 360 .898039215686275 .917647058823529 .929411764705882 83 3 362 .898039215
686275 .917647058823529 .929411764705882 82 1 361 978715322 83 3 273 .8980392156
86275 .917647058823529 .929411764705882 79 14 269 SWEntUnchanged82 1 245 -114825
5576 17 39 0 58 59 41 34 33 40 0 0 -17 59 0 58 56 39 53 229 173 0 60 +17 48 0 22
3 168 30 46 225 23 0 226 +16 23 406 0 ?48 10 176 24 10 10 1 82 1 216 -1146813762
 82 1 205 980288190 82 1 192 970785466 19 15 95 0 1 0 9 5 S0 50 13 359 0 1 363 3
 0 +0 .0142875 0 0 -1 0 0 0 -1 50 363 357 0 1 364 13 0 +0 -.0142875 0 0 -1 0 0 0
 -1 50 364 356 0 1 365 363 0 +0 -.0142875 0 0 -1 0 0 0 -1 50 365 355 0 1 366 364
 0 +0 -.0142875 0 0 -1 0 0 0 -1 50 366 354 0 1 367 365 0 +0 .0142875 0 0 -1 0 0
 0 -1 50 367 353 0 1 368 366 0 +0 .0142875 0 0 -1 0 0 0 -1 50 368 352 0 1 0 367
 0 +0 .0142875 0 0 -1 0 0 0 -1 74 4 CI16 index_map_offset0 0 1 dCCZ20 12 2 0 0 3
08 312 0 0 0 0 0 0 0 0 0 0 0 0 0 0 0 0 0 0 1 0 
