%
M48
M72
T01C0.02000
T02C0.02362
T03C0.03543
T04C0.05500
T05C0.13000
%
T01
X32250Y16250
X57250Y61250
X67250Y87250
X96250Y87250
X38250Y87250
X103250Y16250
T02
X70250Y41250
T03
X71187Y24187
X63313Y24187
X63313Y16313
X71187Y16313
X79061Y16313
X79061Y24187
X55439Y24187
X55439Y16313
X54439Y106313
X62313Y106313
X62313Y114187
X70187Y114187
X78061Y114187
X78061Y106313
X70187Y106313
X54439Y114187
T04
X27250Y90250
X9250Y90250
X9250Y71250
X27250Y71250
X27250Y52250
X9250Y52250
X9250Y33250
X27250Y33250
X109250Y33250
X127250Y33250
X127250Y52250
X109250Y52250
X109250Y71250
X127250Y71250
X127250Y90250
X109250Y90250
T05
X12250Y12250
X12250Y112250
X124750Y112250
X124750Y12250
M30
