G75*
%MOIN*%
%OFA0B0*%
%FSLAX25Y25*%
%IPPOS*%
%LPD*%
%AMOC8*
5,1,8,0,0,1.08239X$1,22.5*
%
%ADD10C,0.13800*%
%ADD11R,0.09461X0.03162*%
%ADD12R,0.05131X0.04737*%
%ADD13OC8,0.10800*%
%ADD14R,0.03950X0.03950*%
%ADD15R,0.04737X0.05131*%
%ADD16C,0.06343*%
D10*
X0012250Y0012250D03*
X0012250Y0112250D03*
X0124750Y0112250D03*
X0124750Y0012250D03*
D11*
X0085360Y0043750D03*
X0085360Y0048750D03*
X0085360Y0053750D03*
X0085360Y0058750D03*
X0085360Y0063750D03*
X0085360Y0068750D03*
X0085360Y0073750D03*
X0085360Y0078750D03*
X0085360Y0083750D03*
X0085360Y0088750D03*
X0049140Y0088750D03*
X0049140Y0083750D03*
X0049140Y0078750D03*
X0049140Y0073750D03*
X0049140Y0068750D03*
X0049140Y0063750D03*
X0049140Y0058750D03*
X0049140Y0053750D03*
X0049140Y0048750D03*
X0049140Y0043750D03*
D12*
X0091904Y0033250D03*
X0098596Y0033250D03*
X0098596Y0025250D03*
X0091904Y0025250D03*
D13*
X0109250Y0033250D03*
X0127250Y0033250D03*
X0127250Y0052250D03*
X0109250Y0052250D03*
X0109250Y0071250D03*
X0127250Y0071250D03*
X0127250Y0090250D03*
X0109250Y0090250D03*
X0027250Y0090250D03*
X0009250Y0090250D03*
X0009250Y0071250D03*
X0027250Y0071250D03*
X0027250Y0052250D03*
X0009250Y0052250D03*
X0009250Y0033250D03*
X0027250Y0033250D03*
D14*
X0039250Y0022203D03*
X0039250Y0016297D03*
D15*
X0039250Y0027904D03*
X0039250Y0034596D03*
D16*
X0055439Y0024187D03*
X0063313Y0024187D03*
X0071187Y0024187D03*
X0071187Y0016313D03*
X0063313Y0016313D03*
X0055439Y0016313D03*
X0079061Y0016313D03*
X0079061Y0024187D03*
X0078061Y0106313D03*
X0070187Y0106313D03*
X0070187Y0114187D03*
X0078061Y0114187D03*
X0062313Y0114187D03*
X0062313Y0106313D03*
X0054439Y0106313D03*
X0054439Y0114187D03*
M02*
