G75*
%MOIN*%
%OFA0B0*%
%FSLAX25Y25*%
%IPPOS*%
%LPD*%
%AMOC8*
5,1,8,0,0,1.08239X$1,22.5*
%
%ADD10C,0.00300*%
D10*
X0064741Y0058950D02*
X0063506Y0061419D01*
X0065975Y0061419D02*
X0064741Y0058950D01*
X0067190Y0060184D02*
X0069658Y0060184D01*
X0069658Y0059567D02*
X0069658Y0060802D01*
X0069041Y0061419D01*
X0067807Y0061419D01*
X0067190Y0060802D01*
X0067190Y0060184D01*
X0067807Y0058950D02*
X0069041Y0058950D01*
X0069658Y0059567D01*
X0070873Y0058950D02*
X0070873Y0060802D01*
X0071490Y0061419D01*
X0072724Y0061419D01*
X0073341Y0060802D01*
X0074556Y0061419D02*
X0076407Y0061419D01*
X0077025Y0060802D01*
X0076407Y0060184D01*
X0075173Y0060184D01*
X0074556Y0059567D01*
X0075173Y0058950D01*
X0077025Y0058950D01*
X0078239Y0058950D02*
X0078239Y0060802D01*
X0078856Y0061419D01*
X0080091Y0061419D01*
X0080091Y0060184D02*
X0078239Y0060184D01*
X0078239Y0058950D02*
X0080091Y0058950D01*
X0080708Y0059567D01*
X0080091Y0060184D01*
X0081925Y0058950D02*
X0083777Y0060184D01*
X0081925Y0061419D01*
X0083777Y0062653D02*
X0083777Y0058950D01*
X0084991Y0058950D02*
X0086843Y0058950D01*
X0087460Y0059567D01*
X0086843Y0060184D01*
X0084991Y0060184D01*
X0084991Y0060802D02*
X0084991Y0058950D01*
X0084991Y0060802D02*
X0085609Y0061419D01*
X0086843Y0061419D01*
X0088678Y0061419D02*
X0089295Y0061419D01*
X0090529Y0060184D01*
X0091744Y0060184D02*
X0093595Y0060184D01*
X0094213Y0059567D01*
X0093595Y0058950D01*
X0091744Y0058950D01*
X0091744Y0060802D01*
X0092361Y0061419D01*
X0093595Y0061419D01*
X0095427Y0062653D02*
X0097896Y0060184D01*
X0097279Y0060802D02*
X0095427Y0058950D01*
X0097896Y0058950D02*
X0097896Y0062653D01*
X0098496Y0064950D02*
X0100348Y0064950D01*
X0100965Y0065567D01*
X0100965Y0066802D01*
X0100348Y0067419D01*
X0098496Y0067419D01*
X0097282Y0066802D02*
X0095430Y0066802D01*
X0094813Y0066184D01*
X0094813Y0065567D01*
X0095430Y0064950D01*
X0097282Y0064950D01*
X0097282Y0068653D01*
X0095430Y0068653D01*
X0094813Y0068036D01*
X0094813Y0067419D01*
X0095430Y0066802D01*
X0093599Y0066802D02*
X0092982Y0067419D01*
X0091747Y0067419D01*
X0091130Y0066802D01*
X0091130Y0066184D01*
X0093599Y0066184D01*
X0093599Y0065567D02*
X0093599Y0066802D01*
X0093599Y0065567D02*
X0092982Y0064950D01*
X0091747Y0064950D01*
X0089916Y0065567D02*
X0089916Y0066802D01*
X0089298Y0067419D01*
X0088064Y0067419D01*
X0087447Y0066802D01*
X0087447Y0066184D01*
X0089916Y0066184D01*
X0089916Y0065567D02*
X0089298Y0064950D01*
X0088064Y0064950D01*
X0086232Y0063716D02*
X0084998Y0064950D01*
X0085615Y0064950D01*
X0085615Y0065567D01*
X0084998Y0065567D01*
X0084998Y0064950D01*
X0080094Y0069716D02*
X0078859Y0070950D01*
X0079477Y0070950D01*
X0079477Y0071567D01*
X0078859Y0071567D01*
X0078859Y0070950D01*
X0081308Y0070950D02*
X0081308Y0072802D01*
X0081925Y0073419D01*
X0083777Y0073419D01*
X0083777Y0070950D01*
X0084991Y0072184D02*
X0087460Y0072184D01*
X0087460Y0071567D02*
X0087460Y0072802D01*
X0086843Y0073419D01*
X0085609Y0073419D01*
X0084991Y0072802D01*
X0084991Y0072184D01*
X0085609Y0070950D02*
X0086843Y0070950D01*
X0087460Y0071567D01*
X0088675Y0070950D02*
X0088675Y0072802D01*
X0089292Y0073419D01*
X0090526Y0073419D01*
X0091143Y0072802D01*
X0092358Y0072184D02*
X0092358Y0071567D01*
X0092975Y0070950D01*
X0094209Y0070950D01*
X0094826Y0071567D01*
X0094209Y0072802D02*
X0092975Y0072802D01*
X0092358Y0072184D01*
X0091143Y0070950D02*
X0091143Y0074653D01*
X0092358Y0074036D02*
X0092975Y0074653D01*
X0094209Y0074653D01*
X0094826Y0074036D01*
X0094826Y0073419D01*
X0094209Y0072802D01*
X0095440Y0076950D02*
X0092972Y0076950D01*
X0091757Y0076950D02*
X0091140Y0076950D01*
X0091140Y0077567D01*
X0091757Y0077567D01*
X0091757Y0076950D01*
X0089916Y0076950D02*
X0087447Y0076950D01*
X0088681Y0076950D02*
X0088681Y0080653D01*
X0089916Y0079419D01*
X0092972Y0079419D02*
X0092972Y0080036D01*
X0093589Y0080653D01*
X0094823Y0080653D01*
X0095440Y0080036D01*
X0092972Y0079419D02*
X0095440Y0076950D01*
X0099724Y0074653D02*
X0099724Y0070950D01*
X0101576Y0070950D01*
X0102193Y0071567D01*
X0102193Y0072802D01*
X0101576Y0073419D01*
X0099724Y0073419D01*
X0100348Y0076950D02*
X0100965Y0076950D01*
X0100965Y0077567D01*
X0100348Y0077567D01*
X0100348Y0076950D01*
X0102179Y0076950D02*
X0102179Y0078802D01*
X0102797Y0079419D01*
X0104648Y0079419D01*
X0104648Y0076950D01*
X0105863Y0077567D02*
X0105863Y0078802D01*
X0106480Y0079419D01*
X0107714Y0079419D01*
X0108331Y0078802D01*
X0108331Y0077567D01*
X0107714Y0076950D01*
X0106480Y0076950D01*
X0105863Y0077567D01*
X0109546Y0077567D02*
X0110163Y0078184D01*
X0111397Y0078184D01*
X0112014Y0078802D01*
X0111397Y0079419D01*
X0109546Y0079419D01*
X0109546Y0077567D02*
X0110163Y0076950D01*
X0112014Y0076950D01*
X0112628Y0074653D02*
X0112628Y0070950D01*
X0113843Y0070950D02*
X0115694Y0070950D01*
X0116311Y0071567D01*
X0116311Y0072802D01*
X0115694Y0073419D01*
X0113843Y0073419D01*
X0112628Y0072802D02*
X0112011Y0073419D01*
X0110777Y0073419D01*
X0110160Y0072802D01*
X0110160Y0070950D01*
X0108945Y0071567D02*
X0108328Y0072184D01*
X0106476Y0072184D01*
X0106476Y0072802D02*
X0106476Y0070950D01*
X0108328Y0070950D01*
X0108945Y0071567D01*
X0108328Y0073419D02*
X0107094Y0073419D01*
X0106476Y0072802D01*
X0105262Y0073419D02*
X0105262Y0070950D01*
X0105262Y0072184D02*
X0104028Y0073419D01*
X0103410Y0073419D01*
X0102179Y0068653D02*
X0102179Y0064950D01*
X0104648Y0064950D02*
X0104648Y0068653D01*
X0103414Y0067419D01*
X0102179Y0068653D01*
X0103410Y0061419D02*
X0104645Y0061419D01*
X0105262Y0060802D01*
X0105262Y0059567D01*
X0104645Y0058950D01*
X0103410Y0058950D01*
X0102793Y0059567D01*
X0102793Y0060802D01*
X0103410Y0061419D01*
X0106476Y0060802D02*
X0106476Y0058950D01*
X0106476Y0060802D02*
X0107094Y0061419D01*
X0108328Y0061419D01*
X0108945Y0060802D01*
X0110160Y0061419D02*
X0112011Y0061419D01*
X0112628Y0060802D01*
X0112628Y0059567D01*
X0112011Y0058950D01*
X0110160Y0058950D01*
X0108945Y0058950D02*
X0108945Y0062653D01*
X0110163Y0064950D02*
X0111397Y0064950D01*
X0112014Y0065567D01*
X0112014Y0066802D01*
X0111397Y0067419D01*
X0110163Y0067419D01*
X0109546Y0066802D01*
X0109546Y0066184D01*
X0112014Y0066184D01*
X0113232Y0064950D02*
X0115084Y0066184D01*
X0113232Y0067419D01*
X0115084Y0068653D02*
X0115084Y0064950D01*
X0116298Y0064950D02*
X0116298Y0067419D01*
X0116298Y0064950D02*
X0118150Y0064950D01*
X0118767Y0065567D01*
X0118767Y0067419D01*
X0119981Y0064950D02*
X0122450Y0064950D01*
X0122450Y0068653D01*
X0122450Y0070950D02*
X0122450Y0074653D01*
X0120598Y0074653D01*
X0119981Y0074036D01*
X0119981Y0072802D01*
X0120598Y0072184D01*
X0122450Y0072184D01*
X0121216Y0072184D02*
X0119981Y0070950D01*
X0118767Y0070950D02*
X0117532Y0070950D01*
X0118150Y0070950D02*
X0118150Y0073419D01*
X0118767Y0073419D01*
X0118150Y0074653D02*
X0118150Y0075270D01*
X0118150Y0076950D02*
X0118767Y0077567D01*
X0118767Y0078802D01*
X0118150Y0079419D01*
X0116915Y0079419D01*
X0116298Y0078802D01*
X0116298Y0078184D01*
X0118767Y0078184D01*
X0119981Y0078184D02*
X0119981Y0080653D01*
X0120598Y0082950D02*
X0119981Y0083567D01*
X0119981Y0084184D01*
X0120598Y0084802D01*
X0122450Y0084802D01*
X0122450Y0086653D02*
X0120598Y0086653D01*
X0119981Y0086036D01*
X0119981Y0085419D01*
X0120598Y0084802D01*
X0120598Y0082950D02*
X0122450Y0082950D01*
X0122450Y0086653D01*
X0118767Y0085419D02*
X0118767Y0083567D01*
X0118150Y0082950D01*
X0116298Y0082950D01*
X0116298Y0085419D01*
X0115084Y0084802D02*
X0115084Y0083567D01*
X0114467Y0082950D01*
X0112615Y0082950D01*
X0111401Y0082950D02*
X0111401Y0086653D01*
X0112615Y0085419D02*
X0114467Y0085419D01*
X0115084Y0084802D01*
X0111401Y0084184D02*
X0109549Y0085419D01*
X0111401Y0084184D02*
X0109549Y0082950D01*
X0113232Y0079419D02*
X0113849Y0079419D01*
X0115084Y0078184D01*
X0115084Y0076950D02*
X0115084Y0079419D01*
X0116915Y0076950D02*
X0118150Y0076950D01*
X0119981Y0078184D02*
X0121216Y0076950D01*
X0122450Y0078184D01*
X0122450Y0080653D01*
X0118150Y0063270D02*
X0118150Y0062653D01*
X0118150Y0061419D02*
X0118150Y0058950D01*
X0118767Y0058950D02*
X0117532Y0058950D01*
X0116311Y0058950D02*
X0116311Y0061419D01*
X0115694Y0061419D01*
X0115077Y0060802D01*
X0114460Y0061419D01*
X0113843Y0060802D01*
X0113843Y0058950D01*
X0115077Y0058950D02*
X0115077Y0060802D01*
X0118150Y0061419D02*
X0118767Y0061419D01*
X0119981Y0062036D02*
X0120598Y0062653D01*
X0122450Y0062653D01*
X0122450Y0058950D01*
X0120598Y0058950D01*
X0119981Y0059567D01*
X0119981Y0062036D01*
X0120598Y0056653D02*
X0119981Y0056036D01*
X0119981Y0053567D01*
X0120598Y0052950D01*
X0122450Y0052950D01*
X0122450Y0056653D01*
X0120598Y0056653D01*
X0118767Y0054802D02*
X0118150Y0055419D01*
X0116915Y0055419D01*
X0116298Y0054802D01*
X0116298Y0054184D01*
X0118767Y0054184D01*
X0118767Y0053567D02*
X0118767Y0054802D01*
X0118767Y0053567D02*
X0118150Y0052950D01*
X0116915Y0052950D01*
X0115084Y0053567D02*
X0114467Y0052950D01*
X0112615Y0052950D01*
X0111401Y0052950D02*
X0110783Y0052950D01*
X0110783Y0053567D01*
X0111401Y0053567D01*
X0111401Y0052950D01*
X0112615Y0055419D02*
X0114467Y0055419D01*
X0115084Y0054802D01*
X0115084Y0053567D01*
X0105876Y0052950D02*
X0103407Y0052950D01*
X0102193Y0052950D02*
X0099724Y0055419D01*
X0099724Y0056036D01*
X0100341Y0056653D01*
X0101576Y0056653D01*
X0102193Y0056036D01*
X0104641Y0056653D02*
X0104641Y0052950D01*
X0102193Y0052950D02*
X0099724Y0052950D01*
X0104641Y0056653D02*
X0105876Y0055419D01*
X0090529Y0058950D02*
X0090529Y0061419D01*
X0100348Y0078802D02*
X0100965Y0078802D01*
X0100965Y0079419D01*
X0100348Y0079419D01*
X0100348Y0078802D01*
X0100348Y0082950D02*
X0099113Y0082950D01*
X0098496Y0083567D01*
X0098496Y0084802D01*
X0099113Y0085419D01*
X0100348Y0085419D01*
X0100965Y0084802D01*
X0100965Y0083567D01*
X0100348Y0082950D01*
X0102179Y0083567D02*
X0102797Y0082950D01*
X0104031Y0082950D01*
X0104648Y0083567D01*
X0104648Y0086036D01*
X0104031Y0086653D01*
X0102797Y0086653D01*
X0102179Y0086036D01*
X0097282Y0085419D02*
X0097282Y0082950D01*
X0097282Y0085419D02*
X0095430Y0085419D01*
X0094813Y0084802D01*
X0094813Y0082950D01*
X0092364Y0082950D02*
X0093599Y0085419D01*
X0091130Y0085419D02*
X0092364Y0082950D01*
X0089916Y0083567D02*
X0089916Y0084802D01*
X0089298Y0085419D01*
X0088064Y0085419D01*
X0087447Y0084802D01*
X0087447Y0084184D01*
X0089916Y0084184D01*
X0089916Y0083567D02*
X0089298Y0082950D01*
X0088064Y0082950D01*
X0086232Y0082950D02*
X0086232Y0085419D01*
X0084998Y0085419D02*
X0086232Y0084184D01*
X0084998Y0085419D02*
X0084381Y0085419D01*
X0083163Y0085419D02*
X0081929Y0085419D01*
X0082546Y0086036D02*
X0082546Y0083567D01*
X0081929Y0082950D01*
X0080708Y0083567D02*
X0080708Y0084802D01*
X0080091Y0085419D01*
X0078856Y0085419D01*
X0078239Y0084802D01*
X0078239Y0083567D01*
X0078856Y0082950D01*
X0080091Y0082950D01*
X0080708Y0083567D01*
X0077025Y0082950D02*
X0077025Y0085419D01*
X0077025Y0084184D02*
X0075790Y0085419D01*
X0075173Y0085419D01*
X0073341Y0062653D02*
X0073341Y0058950D01*
M02*
