G75*
%MOIN*%
%OFA0B0*%
%FSLAX25Y25*%
%IPPOS*%
%LPD*%
%AMOC8*
5,1,8,0,0,1.08239X$1,22.5*
%
%ADD10R,0.02362X0.17717*%
%ADD11C,0.03962*%
%ADD12C,0.01600*%
%ADD13C,0.03569*%
D10*
X0022650Y0014449D03*
X0025799Y0014449D03*
X0028949Y0014449D03*
X0032098Y0014449D03*
X0035248Y0014449D03*
X0038398Y0014449D03*
X0041547Y0014449D03*
X0044697Y0014449D03*
X0047846Y0014449D03*
X0050996Y0014449D03*
X0054146Y0014449D03*
X0057295Y0014449D03*
X0060445Y0014449D03*
X0063594Y0014449D03*
X0066744Y0014449D03*
X0069894Y0014449D03*
X0073043Y0014449D03*
X0076193Y0014449D03*
X0079343Y0014449D03*
X0082492Y0014449D03*
X0085642Y0014449D03*
X0088791Y0014449D03*
X0104539Y0014449D03*
X0107689Y0014449D03*
X0110839Y0014449D03*
X0113988Y0014449D03*
X0117138Y0014449D03*
X0120287Y0014449D03*
X0123437Y0014449D03*
X0126587Y0014449D03*
X0129736Y0014449D03*
X0132886Y0014449D03*
X0136035Y0014449D03*
X0139185Y0014449D03*
X0142335Y0014449D03*
X0145484Y0014449D03*
X0148634Y0014449D03*
X0151783Y0014449D03*
X0154933Y0014449D03*
X0158083Y0014449D03*
D11*
X0163500Y0038000D03*
X0163500Y0051000D03*
X0163500Y0065000D03*
X0163500Y0078000D03*
X0148500Y0078000D03*
X0148500Y0065000D03*
X0148500Y0051000D03*
X0148500Y0038000D03*
X0148500Y0099000D03*
X0162500Y0099000D03*
X0162500Y0121000D03*
X0151500Y0121000D03*
X0146500Y0138000D03*
X0151500Y0158000D03*
X0149500Y0169500D03*
X0149500Y0184500D03*
X0149500Y0199500D03*
X0134500Y0199500D03*
X0134500Y0184500D03*
X0134500Y0169500D03*
X0119500Y0169500D03*
X0119500Y0184500D03*
X0119500Y0199500D03*
X0106500Y0145000D03*
X0119505Y0132581D03*
X0085500Y0108000D03*
X0075500Y0108000D03*
X0073900Y0118600D03*
X0071500Y0130000D03*
X0072700Y0141700D03*
X0064500Y0108000D03*
X0075500Y0096000D03*
X0072100Y0079000D03*
X0068500Y0072000D03*
X0037500Y0044000D03*
X0035500Y0067000D03*
X0028500Y0068000D03*
X0035500Y0083000D03*
D12*
X0031589Y0074200D02*
X0028770Y0071381D01*
X0027827Y0071381D01*
X0026585Y0070866D01*
X0025634Y0069915D01*
X0025119Y0068673D01*
X0025119Y0067327D01*
X0025634Y0066085D01*
X0026585Y0065134D01*
X0027827Y0064619D01*
X0029173Y0064619D01*
X0030415Y0065134D01*
X0031366Y0066085D01*
X0031881Y0067327D01*
X0031881Y0068270D01*
X0033411Y0069800D01*
X0033518Y0069800D01*
X0032634Y0068915D01*
X0032119Y0067673D01*
X0032119Y0066327D01*
X0032634Y0065085D01*
X0033585Y0064134D01*
X0034827Y0063619D01*
X0035770Y0063619D01*
X0038789Y0060600D01*
X0094689Y0060600D01*
X0111788Y0043501D01*
X0111788Y0024707D01*
X0104727Y0024707D01*
X0104727Y0034444D01*
X0104339Y0035381D01*
X0103622Y0036099D01*
X0102684Y0036487D01*
X0092221Y0036487D01*
X0091284Y0036099D01*
X0090567Y0035381D01*
X0090178Y0034444D01*
X0090178Y0024707D01*
X0022050Y0024707D01*
X0022050Y0027200D01*
X0021662Y0028137D01*
X0020944Y0028855D01*
X0020007Y0029243D01*
X0004564Y0029243D01*
X0004565Y0031190D01*
X0010460Y0031190D01*
X0012192Y0032190D01*
X0013192Y0033922D01*
X0013192Y0062082D01*
X0012804Y0063019D01*
X0012086Y0063737D01*
X0011149Y0064125D01*
X0010134Y0064125D01*
X0009197Y0063737D01*
X0008480Y0063019D01*
X0008092Y0062082D01*
X0008092Y0036290D01*
X0004570Y0036290D01*
X0004737Y0206602D01*
X0020900Y0206611D01*
X0020900Y0155014D01*
X0020889Y0154365D01*
X0020900Y0154353D01*
X0020900Y0154337D01*
X0021359Y0153878D01*
X0021810Y0153412D01*
X0021826Y0153411D01*
X0021837Y0153400D01*
X0022486Y0153400D01*
X0079826Y0152411D01*
X0079837Y0152400D01*
X0080486Y0152400D01*
X0081135Y0152389D01*
X0081147Y0152400D01*
X0081163Y0152400D01*
X0081622Y0152859D01*
X0082088Y0153310D01*
X0082089Y0153326D01*
X0082100Y0153337D01*
X0082100Y0153986D01*
X0082111Y0154635D01*
X0082100Y0154647D01*
X0082100Y0206646D01*
X0177200Y0206699D01*
X0177200Y0035896D01*
X0173625Y0035896D01*
X0173625Y0062082D01*
X0173237Y0063019D01*
X0172519Y0063737D01*
X0171582Y0064125D01*
X0170568Y0064125D01*
X0169630Y0063737D01*
X0168913Y0063019D01*
X0168525Y0062082D01*
X0168525Y0033528D01*
X0169525Y0031796D01*
X0171256Y0030796D01*
X0177200Y0030796D01*
X0177200Y0029243D01*
X0161709Y0029243D01*
X0160772Y0028855D01*
X0160055Y0028137D01*
X0159667Y0027200D01*
X0159667Y0007550D01*
X0119719Y0007550D01*
X0119719Y0023887D01*
X0119338Y0024268D01*
X0119338Y0046473D01*
X0098300Y0067511D01*
X0097011Y0068800D01*
X0069610Y0068800D01*
X0070415Y0069134D01*
X0071366Y0070085D01*
X0071881Y0071327D01*
X0071881Y0072673D01*
X0071366Y0073915D01*
X0070415Y0074866D01*
X0069173Y0075381D01*
X0067827Y0075381D01*
X0066585Y0074866D01*
X0065918Y0074200D01*
X0031589Y0074200D01*
X0030489Y0073100D02*
X0004606Y0073100D01*
X0004605Y0071502D02*
X0028890Y0071502D01*
X0028500Y0068000D02*
X0032500Y0072000D01*
X0068500Y0072000D01*
X0066417Y0074699D02*
X0004608Y0074699D01*
X0004609Y0076297D02*
X0070021Y0076297D01*
X0070185Y0076134D02*
X0071427Y0075619D01*
X0072773Y0075619D01*
X0074015Y0076134D01*
X0074682Y0076800D01*
X0102411Y0076800D01*
X0158700Y0133089D01*
X0158700Y0153497D01*
X0158506Y0153691D01*
X0158407Y0153929D01*
X0158407Y0154204D01*
X0157735Y0154877D01*
X0157118Y0155493D01*
X0154881Y0157730D01*
X0154881Y0158673D01*
X0154366Y0159915D01*
X0153415Y0160866D01*
X0152173Y0161381D01*
X0150827Y0161381D01*
X0149585Y0160866D01*
X0148634Y0159915D01*
X0148119Y0158673D01*
X0148119Y0157327D01*
X0148634Y0156085D01*
X0149585Y0155134D01*
X0150827Y0154619D01*
X0151770Y0154619D01*
X0154300Y0152089D01*
X0154300Y0151675D01*
X0154300Y0134911D01*
X0100589Y0081200D01*
X0074682Y0081200D01*
X0074015Y0081866D01*
X0072773Y0082381D01*
X0071427Y0082381D01*
X0070185Y0081866D01*
X0069234Y0080915D01*
X0068719Y0079673D01*
X0068719Y0078327D01*
X0069234Y0077085D01*
X0070185Y0076134D01*
X0070583Y0074699D02*
X0177200Y0074699D01*
X0177200Y0076297D02*
X0074179Y0076297D01*
X0072100Y0079000D02*
X0101500Y0079000D01*
X0156500Y0134000D01*
X0156500Y0152586D01*
X0156207Y0153293D02*
X0151500Y0158000D01*
X0154572Y0159420D02*
X0177200Y0159420D01*
X0177200Y0161018D02*
X0153048Y0161018D01*
X0149952Y0161018D02*
X0082100Y0161018D01*
X0082100Y0159420D02*
X0148428Y0159420D01*
X0148119Y0157821D02*
X0082100Y0157821D01*
X0082100Y0156223D02*
X0148576Y0156223D01*
X0150814Y0154624D02*
X0082111Y0154624D01*
X0081794Y0153026D02*
X0153363Y0153026D01*
X0154300Y0151427D02*
X0004683Y0151427D01*
X0004681Y0149829D02*
X0154300Y0149829D01*
X0154300Y0148230D02*
X0004680Y0148230D01*
X0004678Y0146632D02*
X0154300Y0146632D01*
X0154300Y0145033D02*
X0004677Y0145033D01*
X0004675Y0143435D02*
X0154300Y0143435D01*
X0154300Y0141836D02*
X0004673Y0141836D01*
X0004672Y0140238D02*
X0154300Y0140238D01*
X0154300Y0138639D02*
X0004670Y0138639D01*
X0004669Y0137041D02*
X0154300Y0137041D01*
X0154300Y0135442D02*
X0004667Y0135442D01*
X0004666Y0133844D02*
X0153232Y0133844D01*
X0151634Y0132245D02*
X0004664Y0132245D01*
X0004663Y0130647D02*
X0150035Y0130647D01*
X0148437Y0129048D02*
X0004661Y0129048D01*
X0004659Y0127450D02*
X0146838Y0127450D01*
X0145240Y0125851D02*
X0004658Y0125851D01*
X0004656Y0124253D02*
X0143641Y0124253D01*
X0142043Y0122654D02*
X0004655Y0122654D01*
X0004653Y0121056D02*
X0140444Y0121056D01*
X0138846Y0119457D02*
X0004652Y0119457D01*
X0004650Y0117859D02*
X0137247Y0117859D01*
X0135649Y0116260D02*
X0004648Y0116260D01*
X0004647Y0114662D02*
X0134050Y0114662D01*
X0132452Y0113063D02*
X0004645Y0113063D01*
X0004644Y0111465D02*
X0130853Y0111465D01*
X0129255Y0109866D02*
X0004642Y0109866D01*
X0004641Y0108268D02*
X0127656Y0108268D01*
X0126058Y0106669D02*
X0004639Y0106669D01*
X0004638Y0105070D02*
X0124459Y0105070D01*
X0122861Y0103472D02*
X0004636Y0103472D01*
X0004634Y0101873D02*
X0121262Y0101873D01*
X0119664Y0100275D02*
X0004633Y0100275D01*
X0004631Y0098676D02*
X0118065Y0098676D01*
X0116467Y0097078D02*
X0004630Y0097078D01*
X0004628Y0095479D02*
X0114868Y0095479D01*
X0113270Y0093881D02*
X0004627Y0093881D01*
X0004625Y0092282D02*
X0111671Y0092282D01*
X0110073Y0090684D02*
X0004624Y0090684D01*
X0004622Y0089085D02*
X0108474Y0089085D01*
X0106876Y0087487D02*
X0004620Y0087487D01*
X0004619Y0085888D02*
X0105277Y0085888D01*
X0103679Y0084290D02*
X0004617Y0084290D01*
X0004616Y0082691D02*
X0102080Y0082691D01*
X0105106Y0079494D02*
X0177200Y0079494D01*
X0177200Y0077896D02*
X0103507Y0077896D01*
X0106704Y0081093D02*
X0177200Y0081093D01*
X0177200Y0082691D02*
X0108303Y0082691D01*
X0109901Y0084290D02*
X0177200Y0084290D01*
X0177200Y0085888D02*
X0111500Y0085888D01*
X0113098Y0087487D02*
X0177200Y0087487D01*
X0177200Y0089085D02*
X0114697Y0089085D01*
X0116295Y0090684D02*
X0177200Y0090684D01*
X0177200Y0092282D02*
X0117894Y0092282D01*
X0119492Y0093881D02*
X0177200Y0093881D01*
X0177200Y0095479D02*
X0121091Y0095479D01*
X0122689Y0097078D02*
X0177200Y0097078D01*
X0177200Y0098676D02*
X0124288Y0098676D01*
X0125886Y0100275D02*
X0177200Y0100275D01*
X0177200Y0101873D02*
X0127485Y0101873D01*
X0129083Y0103472D02*
X0177200Y0103472D01*
X0177200Y0105070D02*
X0130682Y0105070D01*
X0132280Y0106669D02*
X0177200Y0106669D01*
X0177200Y0108268D02*
X0133879Y0108268D01*
X0135477Y0109866D02*
X0177200Y0109866D01*
X0177200Y0111465D02*
X0137076Y0111465D01*
X0138674Y0113063D02*
X0177200Y0113063D01*
X0177200Y0114662D02*
X0140273Y0114662D01*
X0141871Y0116260D02*
X0177200Y0116260D01*
X0177200Y0117859D02*
X0143470Y0117859D01*
X0145068Y0119457D02*
X0177200Y0119457D01*
X0177200Y0121056D02*
X0146667Y0121056D01*
X0148265Y0122654D02*
X0177200Y0122654D01*
X0177200Y0124253D02*
X0149864Y0124253D01*
X0151462Y0125851D02*
X0177200Y0125851D01*
X0177200Y0127450D02*
X0153061Y0127450D01*
X0154659Y0129048D02*
X0177200Y0129048D01*
X0177200Y0130647D02*
X0156258Y0130647D01*
X0157856Y0132245D02*
X0177200Y0132245D01*
X0177200Y0133844D02*
X0158700Y0133844D01*
X0158700Y0135442D02*
X0177200Y0135442D01*
X0177200Y0137041D02*
X0158700Y0137041D01*
X0158700Y0138639D02*
X0177200Y0138639D01*
X0177200Y0140238D02*
X0158700Y0140238D01*
X0158700Y0141836D02*
X0177200Y0141836D01*
X0177200Y0143435D02*
X0158700Y0143435D01*
X0158700Y0145033D02*
X0177200Y0145033D01*
X0177200Y0146632D02*
X0158700Y0146632D01*
X0158700Y0148230D02*
X0177200Y0148230D01*
X0177200Y0149829D02*
X0158700Y0149829D01*
X0158700Y0151427D02*
X0177200Y0151427D01*
X0177200Y0153026D02*
X0158700Y0153026D01*
X0157987Y0154624D02*
X0177200Y0154624D01*
X0177200Y0156223D02*
X0156388Y0156223D01*
X0157118Y0155493D02*
X0157118Y0155493D01*
X0154881Y0157821D02*
X0177200Y0157821D01*
X0177200Y0162617D02*
X0082100Y0162617D01*
X0082100Y0164215D02*
X0177200Y0164215D01*
X0177200Y0165814D02*
X0082100Y0165814D01*
X0082100Y0167412D02*
X0177200Y0167412D01*
X0177200Y0169011D02*
X0082100Y0169011D01*
X0082100Y0170609D02*
X0177200Y0170609D01*
X0177200Y0172208D02*
X0082100Y0172208D01*
X0082100Y0173806D02*
X0177200Y0173806D01*
X0177200Y0175405D02*
X0082100Y0175405D01*
X0082100Y0177003D02*
X0177200Y0177003D01*
X0177200Y0178602D02*
X0082100Y0178602D01*
X0082100Y0180201D02*
X0177200Y0180201D01*
X0177200Y0181799D02*
X0082100Y0181799D01*
X0082100Y0183398D02*
X0177200Y0183398D01*
X0177200Y0184996D02*
X0082100Y0184996D01*
X0082100Y0186595D02*
X0177200Y0186595D01*
X0177200Y0188193D02*
X0082100Y0188193D01*
X0082100Y0189792D02*
X0177200Y0189792D01*
X0177200Y0191390D02*
X0082100Y0191390D01*
X0082100Y0192989D02*
X0177200Y0192989D01*
X0177200Y0194587D02*
X0082100Y0194587D01*
X0082100Y0196186D02*
X0177200Y0196186D01*
X0177200Y0197784D02*
X0082100Y0197784D01*
X0082100Y0199383D02*
X0177200Y0199383D01*
X0177200Y0200981D02*
X0082100Y0200981D01*
X0082100Y0202580D02*
X0177200Y0202580D01*
X0177200Y0204178D02*
X0082100Y0204178D01*
X0082100Y0205777D02*
X0177200Y0205777D01*
X0156207Y0153293D02*
X0156249Y0153249D01*
X0156287Y0153203D01*
X0156323Y0153154D01*
X0156356Y0153103D01*
X0156385Y0153051D01*
X0156412Y0152996D01*
X0156435Y0152941D01*
X0156455Y0152884D01*
X0156471Y0152825D01*
X0156484Y0152766D01*
X0156493Y0152707D01*
X0156498Y0152646D01*
X0156500Y0152586D01*
X0177200Y0073100D02*
X0071704Y0073100D01*
X0071881Y0071502D02*
X0177200Y0071502D01*
X0177200Y0069903D02*
X0071185Y0069903D01*
X0068898Y0077896D02*
X0004611Y0077896D01*
X0004613Y0079494D02*
X0068719Y0079494D01*
X0069411Y0081093D02*
X0004614Y0081093D01*
X0004603Y0069903D02*
X0025629Y0069903D01*
X0025119Y0068305D02*
X0004602Y0068305D01*
X0004600Y0066706D02*
X0025376Y0066706D01*
X0026647Y0065108D02*
X0004599Y0065108D01*
X0004597Y0063509D02*
X0008970Y0063509D01*
X0008092Y0061911D02*
X0004595Y0061911D01*
X0004594Y0060312D02*
X0008092Y0060312D01*
X0008092Y0058714D02*
X0004592Y0058714D01*
X0004591Y0057115D02*
X0008092Y0057115D01*
X0008092Y0055517D02*
X0004589Y0055517D01*
X0004588Y0053918D02*
X0008092Y0053918D01*
X0008092Y0052320D02*
X0004586Y0052320D01*
X0004584Y0050721D02*
X0008092Y0050721D01*
X0008092Y0049123D02*
X0004583Y0049123D01*
X0004581Y0047524D02*
X0008092Y0047524D01*
X0008092Y0045926D02*
X0004580Y0045926D01*
X0004578Y0044327D02*
X0008092Y0044327D01*
X0008092Y0042729D02*
X0004577Y0042729D01*
X0004575Y0041130D02*
X0008092Y0041130D01*
X0008092Y0039532D02*
X0004574Y0039532D01*
X0004572Y0037933D02*
X0008092Y0037933D01*
X0008092Y0036334D02*
X0004570Y0036334D01*
X0004564Y0029940D02*
X0090178Y0029940D01*
X0090178Y0028342D02*
X0021457Y0028342D01*
X0022050Y0026743D02*
X0090178Y0026743D01*
X0090178Y0025145D02*
X0022050Y0025145D01*
X0012739Y0033137D02*
X0090178Y0033137D01*
X0090178Y0031539D02*
X0011065Y0031539D01*
X0012192Y0032190D02*
X0012192Y0032190D01*
X0012192Y0032190D01*
X0013192Y0034736D02*
X0090299Y0034736D01*
X0091853Y0036334D02*
X0013192Y0036334D01*
X0013192Y0037933D02*
X0111788Y0037933D01*
X0111788Y0036334D02*
X0103053Y0036334D01*
X0104606Y0034736D02*
X0111788Y0034736D01*
X0111788Y0033137D02*
X0104727Y0033137D01*
X0104727Y0031539D02*
X0111788Y0031539D01*
X0111788Y0029940D02*
X0104727Y0029940D01*
X0104727Y0028342D02*
X0111788Y0028342D01*
X0111788Y0026743D02*
X0104727Y0026743D01*
X0104727Y0025145D02*
X0111788Y0025145D01*
X0119338Y0025145D02*
X0159667Y0025145D01*
X0159667Y0026743D02*
X0119338Y0026743D01*
X0119338Y0028342D02*
X0160259Y0028342D01*
X0159667Y0023546D02*
X0119719Y0023546D01*
X0119719Y0021948D02*
X0159667Y0021948D01*
X0159667Y0020349D02*
X0119719Y0020349D01*
X0119719Y0018751D02*
X0159667Y0018751D01*
X0159667Y0017152D02*
X0119719Y0017152D01*
X0119719Y0015554D02*
X0159667Y0015554D01*
X0159667Y0013955D02*
X0119719Y0013955D01*
X0119719Y0012357D02*
X0159667Y0012357D01*
X0159667Y0010758D02*
X0119719Y0010758D01*
X0119719Y0009160D02*
X0159667Y0009160D01*
X0159667Y0007561D02*
X0119719Y0007561D01*
X0117138Y0014449D02*
X0117138Y0045562D01*
X0096100Y0066600D01*
X0042538Y0066600D01*
X0042319Y0066819D01*
X0039700Y0062800D02*
X0035500Y0067000D01*
X0035880Y0063509D02*
X0012314Y0063509D01*
X0013192Y0061911D02*
X0037478Y0061911D01*
X0039700Y0062800D02*
X0095600Y0062800D01*
X0113988Y0044412D01*
X0113988Y0014449D01*
X0119338Y0029940D02*
X0177200Y0029940D01*
X0177200Y0036334D02*
X0173625Y0036334D01*
X0173625Y0037933D02*
X0177200Y0037933D01*
X0177200Y0039532D02*
X0173625Y0039532D01*
X0173625Y0041130D02*
X0177200Y0041130D01*
X0177200Y0042729D02*
X0173625Y0042729D01*
X0173625Y0044327D02*
X0177200Y0044327D01*
X0177200Y0045926D02*
X0173625Y0045926D01*
X0173625Y0047524D02*
X0177200Y0047524D01*
X0177200Y0049123D02*
X0173625Y0049123D01*
X0173625Y0050721D02*
X0177200Y0050721D01*
X0177200Y0052320D02*
X0173625Y0052320D01*
X0173625Y0053918D02*
X0177200Y0053918D01*
X0177200Y0055517D02*
X0173625Y0055517D01*
X0173625Y0057115D02*
X0177200Y0057115D01*
X0177200Y0058714D02*
X0173625Y0058714D01*
X0173625Y0060312D02*
X0177200Y0060312D01*
X0177200Y0061911D02*
X0173625Y0061911D01*
X0172747Y0063509D02*
X0177200Y0063509D01*
X0177200Y0065108D02*
X0100704Y0065108D01*
X0102302Y0063509D02*
X0169403Y0063509D01*
X0168525Y0061911D02*
X0103901Y0061911D01*
X0105499Y0060312D02*
X0168525Y0060312D01*
X0168525Y0058714D02*
X0107098Y0058714D01*
X0108696Y0057115D02*
X0168525Y0057115D01*
X0168525Y0055517D02*
X0110295Y0055517D01*
X0111893Y0053918D02*
X0168525Y0053918D01*
X0168525Y0052320D02*
X0113492Y0052320D01*
X0115090Y0050721D02*
X0168525Y0050721D01*
X0168525Y0049123D02*
X0116689Y0049123D01*
X0118287Y0047524D02*
X0168525Y0047524D01*
X0168525Y0045926D02*
X0119338Y0045926D01*
X0119338Y0044327D02*
X0168525Y0044327D01*
X0168525Y0042729D02*
X0119338Y0042729D01*
X0119338Y0041130D02*
X0168525Y0041130D01*
X0168525Y0039532D02*
X0119338Y0039532D01*
X0119338Y0037933D02*
X0168525Y0037933D01*
X0168525Y0036334D02*
X0119338Y0036334D01*
X0119338Y0034736D02*
X0168525Y0034736D01*
X0168750Y0033137D02*
X0119338Y0033137D01*
X0119338Y0031539D02*
X0169970Y0031539D01*
X0169525Y0031796D02*
X0169525Y0031796D01*
X0169525Y0031796D01*
X0177200Y0066706D02*
X0099105Y0066706D01*
X0097507Y0068305D02*
X0177200Y0068305D01*
X0111788Y0042729D02*
X0013192Y0042729D01*
X0013192Y0044327D02*
X0110962Y0044327D01*
X0109363Y0045926D02*
X0013192Y0045926D01*
X0013192Y0047524D02*
X0107765Y0047524D01*
X0106166Y0049123D02*
X0013192Y0049123D01*
X0013192Y0050721D02*
X0104568Y0050721D01*
X0102969Y0052320D02*
X0013192Y0052320D01*
X0013192Y0053918D02*
X0101371Y0053918D01*
X0099772Y0055517D02*
X0013192Y0055517D01*
X0013192Y0057115D02*
X0098174Y0057115D01*
X0096575Y0058714D02*
X0013192Y0058714D01*
X0013192Y0060312D02*
X0094977Y0060312D01*
X0111788Y0041130D02*
X0013192Y0041130D01*
X0013192Y0039532D02*
X0111788Y0039532D01*
X0032624Y0065108D02*
X0030353Y0065108D01*
X0031624Y0066706D02*
X0032119Y0066706D01*
X0031916Y0068305D02*
X0032381Y0068305D01*
X0044189Y0153026D02*
X0004684Y0153026D01*
X0004686Y0154624D02*
X0020893Y0154624D01*
X0020900Y0156223D02*
X0004688Y0156223D01*
X0004689Y0157821D02*
X0020900Y0157821D01*
X0020900Y0159420D02*
X0004691Y0159420D01*
X0004692Y0161018D02*
X0020900Y0161018D01*
X0020900Y0162617D02*
X0004694Y0162617D01*
X0004695Y0164215D02*
X0020900Y0164215D01*
X0020900Y0165814D02*
X0004697Y0165814D01*
X0004698Y0167412D02*
X0020900Y0167412D01*
X0020900Y0169011D02*
X0004700Y0169011D01*
X0004702Y0170609D02*
X0020900Y0170609D01*
X0020900Y0172208D02*
X0004703Y0172208D01*
X0004705Y0173806D02*
X0020900Y0173806D01*
X0020900Y0175405D02*
X0004706Y0175405D01*
X0004708Y0177003D02*
X0020900Y0177003D01*
X0020900Y0178602D02*
X0004709Y0178602D01*
X0004711Y0180201D02*
X0020900Y0180201D01*
X0020900Y0181799D02*
X0004713Y0181799D01*
X0004714Y0183398D02*
X0020900Y0183398D01*
X0020900Y0184996D02*
X0004716Y0184996D01*
X0004717Y0186595D02*
X0020900Y0186595D01*
X0020900Y0188193D02*
X0004719Y0188193D01*
X0004720Y0189792D02*
X0020900Y0189792D01*
X0020900Y0191390D02*
X0004722Y0191390D01*
X0004723Y0192989D02*
X0020900Y0192989D01*
X0020900Y0194587D02*
X0004725Y0194587D01*
X0004727Y0196186D02*
X0020900Y0196186D01*
X0020900Y0197784D02*
X0004728Y0197784D01*
X0004730Y0199383D02*
X0020900Y0199383D01*
X0020900Y0200981D02*
X0004731Y0200981D01*
X0004733Y0202580D02*
X0020900Y0202580D01*
X0020900Y0204178D02*
X0004734Y0204178D01*
X0004736Y0205777D02*
X0020900Y0205777D01*
D13*
X0042319Y0066819D03*
M02*
