%
M48
M72
T01C0.01969
T02C0.02362
%
T01
X42319Y66819
T02
X37500Y44000
X35500Y67000
X28500Y68000
X35500Y83000
X64500Y108000
X73900Y118600
X75500Y108000
X85500Y108000
X75500Y96000
X72100Y79000
X68500Y72000
X71500Y130000
X72700Y141700
X106500Y145000
X119505Y132581
X146500Y138000
X151500Y121000
X162500Y121000
X162500Y99000
X148500Y99000
X148500Y78000
X148500Y65000
X148500Y51000
X148500Y38000
X163500Y38000
X163500Y51000
X163500Y65000
X163500Y78000
X151500Y158000
X149500Y169500
X149500Y184500
X149500Y199500
X134500Y199500
X134500Y184500
X134500Y169500
X119500Y169500
X119500Y184500
X119500Y199500
M30
