G75*
%MOIN*%
%OFA0B0*%
%FSLAX25Y25*%
%IPPOS*%
%LPD*%
%AMOC8*
5,1,8,0,0,1.08239X$1,22.5*
%
%ADD10R,0.03162X0.18517*%
%ADD11C,0.04762*%
%ADD12C,0.04369*%
D10*
X0022650Y0014449D03*
X0025799Y0014449D03*
X0028949Y0014449D03*
X0032098Y0014449D03*
X0035248Y0014449D03*
X0038398Y0014449D03*
X0041547Y0014449D03*
X0044697Y0014449D03*
X0047846Y0014449D03*
X0050996Y0014449D03*
X0054146Y0014449D03*
X0057295Y0014449D03*
X0060445Y0014449D03*
X0063594Y0014449D03*
X0066744Y0014449D03*
X0069894Y0014449D03*
X0073043Y0014449D03*
X0076193Y0014449D03*
X0079343Y0014449D03*
X0082492Y0014449D03*
X0085642Y0014449D03*
X0088791Y0014449D03*
X0104539Y0014449D03*
X0107689Y0014449D03*
X0110839Y0014449D03*
X0113988Y0014449D03*
X0117138Y0014449D03*
X0120287Y0014449D03*
X0123437Y0014449D03*
X0126587Y0014449D03*
X0129736Y0014449D03*
X0132886Y0014449D03*
X0136035Y0014449D03*
X0139185Y0014449D03*
X0142335Y0014449D03*
X0145484Y0014449D03*
X0148634Y0014449D03*
X0151783Y0014449D03*
X0154933Y0014449D03*
X0158083Y0014449D03*
D11*
X0163500Y0038000D03*
X0163500Y0051000D03*
X0163500Y0065000D03*
X0163500Y0078000D03*
X0148500Y0078000D03*
X0148500Y0065000D03*
X0148500Y0051000D03*
X0148500Y0038000D03*
X0148500Y0099000D03*
X0162500Y0099000D03*
X0162500Y0121000D03*
X0151500Y0121000D03*
X0146500Y0138000D03*
X0151500Y0158000D03*
X0149500Y0169500D03*
X0149500Y0184500D03*
X0149500Y0199500D03*
X0134500Y0199500D03*
X0134500Y0184500D03*
X0134500Y0169500D03*
X0119500Y0169500D03*
X0119500Y0184500D03*
X0119500Y0199500D03*
X0106500Y0145000D03*
X0119505Y0132581D03*
X0085500Y0108000D03*
X0075500Y0108000D03*
X0073900Y0118600D03*
X0071500Y0130000D03*
X0072700Y0141700D03*
X0064500Y0108000D03*
X0075500Y0096000D03*
X0072100Y0079000D03*
X0068500Y0072000D03*
X0037500Y0044000D03*
X0035500Y0067000D03*
X0028500Y0068000D03*
X0035500Y0083000D03*
D12*
X0042319Y0066819D03*
M02*
