  0
SECTION
  2
HEADER
  9
$ACADVER
  1
AC1003
  9
$EXTMIN
 10
1
 20
4.875
  9
$EXTMAX
 10
16.5
 20
1
  9
$INSUNITS
 70
1
  9
$INSBASE
 10
8.75
 20
2.9375
999
Created with OMAX Layout for Windows. (www.omax.com) 2/25/2016
  0
ENDSEC
  0
SECTION
  2
TABLES
  0
TABLE
  2
LAYER
 70
    10
  0
LAYER
  2
0
 70
     0
 62
     7
  6
CONTINUOUS
  0
LAYER
  2
1
 70
     0
 62
     7
  6
CONTINUOUS
  0
LAYER
  2
2
 70
     0
 62
     7
  6
CONTINUOUS
  0
LAYER
  2
3
 70
     0
 62
     7
  6
CONTINUOUS
  0
LAYER
  2
4
 70
     0
 62
     7
  6
CONTINUOUS
  0
LAYER
  2
5
 70
     0
 62
     7
  6
CONTINUOUS
  0
LAYER
  2
6
 70
     0
 62
     7
  6
CONTINUOUS
  0
LAYER
  2
7
 70
     0
 62
     7
  6
CONTINUOUS
  0
LAYER
  2
8
 70
     0
 62
     7
  6
CONTINUOUS
  0
LAYER
  2
9
 70
     0
 62
     7
  6
CONTINUOUS
  0
LAYER
  2
10
 70
     0
 62
     7
  6
CONTINUOUS
  0
LAYER
  2
11
 70
     0
 62
     7
  6
CONTINUOUS
  0
LAYER
  2
12
 70
     0
 62
     7
  6
CONTINUOUS
  0
LAYER
  2
13
 70
     0
 62
     7
  6
CONTINUOUS
  0
LAYER
  2
14
 70
     0
 62
     7
  6
CONTINUOUS
  0
LAYER
  2
15
 70
     0
 62
     7
  6
CONTINUOUS
  0
LAYER
  2
16
 70
     0
 62
     7
  6
CONTINUOUS
  0
LAYER
  2
17
 70
     0
 62
     7
  6
CONTINUOUS
  0
LAYER
  2
18
 70
     0
 62
     7
  6
CONTINUOUS
  0
LAYER
  2
19
 70
     0
 62
     7
  6
CONTINUOUS
  0
LAYER
  2
20
 70
     0
 62
     7
  6
CONTINUOUS
  0
LAYER
  2
21
 70
     0
 62
     7
  6
CONTINUOUS
  0
LAYER
  2
22
 70
     0
 62
     7
  6
CONTINUOUS
  0
LAYER
  2
23
 70
     0
 62
     7
  6
CONTINUOUS
  0
LAYER
  2
24
 70
     0
 62
     7
  6
CONTINUOUS
  0
LAYER
  2
25
 70
     0
 62
     7
  6
CONTINUOUS
  0
LAYER
  2
26
 70
     0
 62
     7
  6
CONTINUOUS
  0
LAYER
  2
27
 70
     0
 62
     7
  6
CONTINUOUS
  0
LAYER
  2
28
 70
     0
 62
     7
  6
CONTINUOUS
  0
LAYER
  2
29
 70
     0
 62
     7
  6
CONTINUOUS
  0
LAYER
  2
30
 70
     0
 62
     7
  6
CONTINUOUS
  0
LAYER
  2
31
 70
     0
 62
     7
  6
CONTINUOUS
  0
ENDTAB
  0
ENDSEC
  0
SECTION
  2
ENTITIES
  0
ARC
  8
0
  6
CONTINUOUS
 62
0
 10
8.75
 20
2.49999999999999
 30
0.0
 40
0.5625
 50
179.999999999999
 51
359.999999999999
  0
ARC
  8
0
  6
CONTINUOUS
 62
0
 10
8.75
 20
2.50000000000001
 30
0.0
 40
0.5625
 50
359.999999999999
 51
180
  0
LINE
  8
0
  6
CONTINUOUS
 62
0
 10
1.25
 20
1.1875
 30
0.0
 11
1.25
 21
1.5625
 31
0.0
  0
LINE
  8
0
  6
CONTINUOUS
 62
0
 10
1.25
 20
4.6875
 30
0.0
 11
1.25
 21
4.3125
 31
0.0
  0
LINE
  8
0
  6
CONTINUOUS
 62
0
 10
16.25
 20
4.6875
 30
0.0
 11
16.25
 21
4.3125
 31
0.0
  0
LINE
  8
0
  6
CONTINUOUS
 62
0
 10
16.25
 20
1.1875
 30
0.0
 11
16.25
 21
1.5625
 31
0.0
  0
LINE
  8
0
  6
CONTINUOUS
 62
0
 10
8.625
 20
1.5058766425
 30
0.0
 11
8.625
 21
1.4375
 31
0.0
  0
LINE
  8
0
  6
CONTINUOUS
 62
0
 10
8.375
 20
1.1875
 30
0.0
 11
4.5201500896
 21
1.1875
 31
0.0
  0
LINE
  8
0
  6
CONTINUOUS
 62
0
 10
1
 20
4.875
 30
0.0
 11
3.25
 21
4.875
 31
0.0
  0
LINE
  8
0
  6
CONTINUOUS
 62
0
 10
1
 20
4.6875
 30
0.0
 11
1
 21
4.875
 31
0.0
  0
LINE
  8
0
  6
CONTINUOUS
 62
0
 10
1.9841229183
 20
4.6875
 30
0.0
 11
3.25
 21
4.6875
 31
0.0
  0
LINE
  8
0
  6
CONTINUOUS
 62
0
 10
1
 20
1.1875
 30
0.0
 11
1
 21
1
 31
0.0
  0
LINE
  8
0
  6
CONTINUOUS
 62
0
 10
1
 20
1
 30
0.0
 11
16.5
 21
1
 31
0.0
  0
LINE
  8
0
  6
CONTINUOUS
 62
0
 10
16.5
 20
1.1875
 30
0.0
 11
16.5
 21
1
 31
0.0
  0
LINE
  8
0
  6
CONTINUOUS
 62
0
 10
16.5
 20
1.1875
 30
0.0
 11
16.25
 21
1.1875
 31
0.0
  0
LINE
  8
0
  6
CONTINUOUS
 62
0
 10
16.5
 20
4.6875
 30
0.0
 11
16.5
 21
4.875
 31
0.0
  0
LINE
  8
0
  6
CONTINUOUS
 62
0
 10
16.5
 20
4.875
 30
0.0
 11
14.25
 21
4.875
 31
0.0
  0
LINE
  8
0
  6
CONTINUOUS
 62
0
 10
12.9798499104
 20
1.1875
 30
0.0
 11
9.125
 21
1.1875
 31
0.0
  0
LINE
  8
0
  6
CONTINUOUS
 62
0
 10
8.875
 20
1.5058766425
 30
0.0
 11
8.875
 21
1.4375
 31
0.0
  0
LINE
  8
0
  6
CONTINUOUS
 62
0
 10
3.25
 20
1.1875
 30
0.0
 11
1.9841229183
 21
1.1875
 31
0.0
  0
LINE
  8
0
  6
CONTINUOUS
 62
0
 10
1.25
 20
1.1875
 30
0.0
 11
1
 21
1.1875
 31
0.0
  0
LINE
  8
0
  6
CONTINUOUS
 62
0
 10
1
 20
4.6875
 30
0.0
 11
1.25
 21
4.6875
 31
0.0
  0
LINE
  8
0
  6
CONTINUOUS
 62
0
 10
16.5
 20
4.6875
 30
0.0
 11
16.25
 21
4.6875
 31
0.0
  0
LINE
  8
0
  6
CONTINUOUS
 62
0
 10
15.5158770817
 20
4.6875
 30
0.0
 11
14.25
 21
4.6875
 31
0.0
  0
LINE
  8
0
  6
CONTINUOUS
 62
0
 10
15.5158770817
 20
1.1875
 30
0.0
 11
14.25
 21
1.1875
 31
0.0
  0
ARC
  8
0
  6
CONTINUOUS
 62
0
 10
9.125
 20
1.4375
 30
0.0
 40
0.25
 50
179.999999999999
 51
269.999999999999
  0
ARC
  8
0
  6
CONTINUOUS
 62
0
 10
12.9798499104
 20
1.3125
 30
0.0
 40
0.124999999999999
 50
269.999999999999
 51
51.9877204555991
  0
ARC
  8
0
  6
CONTINUOUS
 62
0
 10
12.8672897568
 20
4.4678655228
 30
0.0
 40
0.124999999999998
 50
312.098327999099
 51
97.8305830273997
  0
ARC
  8
0
  6
CONTINUOUS
 62
0
 10
9.5077771618
 20
3.2447684359
 30
0.0
 40
0.249999999999999
 50
118.2356269386
 51
224.5039575048
  0
ARC
  8
0
  6
CONTINUOUS
 62
0
 10
1.2339007759
 20
1.12529631179999
 30
0.0
 40
0.437500000000014
 50
36.8472644445007
 51
87.8911408019006
  0
ARC
  8
0
  6
CONTINUOUS
 62
0
 10
1.9841229183
 20
1.6875
 30
0.0
 40
0.5
 50
216.847264444499
 51
269.999999999999
  0
ARC
  8
0
  6
CONTINUOUS
 62
0
 10
1.9841229183
 20
4.1875
 30
0.0
 40
0.5
 50
89.9999999999999
 51
143.1527355555
  0
ARC
  8
0
  6
CONTINUOUS
 62
0
 10
1.2339007759
 20
4.74970368820001
 30
0.0
 40
0.437500000000016
 50
272.108859198099
 51
323.152735555499
  0
ARC
  8
0
  6
CONTINUOUS
 62
0
 10
8.75000000000001
 20
4.4691093453
 30
0.0
 40
0.999999999999997
 50
241.322575537299
 51
298.677424462699
  0
ARC
  8
0
  6
CONTINUOUS
 62
0
 10
16.2660992241
 20
4.7497036882
 30
0.0
 40
0.437499999999997
 50
216.8472644445
 51
267.8911408019
  0
ARC
  8
0
  6
CONTINUOUS
 62
0
 10
15.5158770817
 20
4.1875
 30
0.0
 40
0.5
 50
36.8472644444996
 51
89.9999999999996
  0
ARC
  8
0
  6
CONTINUOUS
 62
0
 10
15.5158770817
 20
1.6875
 30
0.0
 40
0.5
 50
270
 51
323.1527355555
  0
ARC
  8
0
  6
CONTINUOUS
 62
0
 10
16.2660992241
 20
1.12529631179999
 30
0.0
 40
0.437500000000011
 50
92.1088591980993
 51
143.152735555499
  0
ARC
  8
0
  6
CONTINUOUS
 62
0
 10
4.6327102432
 20
4.4678655228
 30
0.0
 40
0.124999999999998
 50
82.1694169725999
 51
227.9016720009
  0
ARC
  8
0
  6
CONTINUOUS
 62
0
 10
4.5201500896
 20
1.3125
 30
0.0
 40
0.124999999999999
 50
128.0122795444
 51
270
  0
ARC
  8
0
  6
CONTINUOUS
 62
0
 10
8.375
 20
1.4375
 30
0.0
 40
0.250000000000001
 50
269.999999999999
 51
359.999999999999
  0
ARC
  8
0
  6
CONTINUOUS
 62
0
 10
8.375
 20
1.5058766425
 30
0.0
 40
0.249999999999998
 50
359.999999999999
 51
69.3326835064997
  0
ARC
  8
0
  6
CONTINUOUS
 62
0
 10
7.9922228382
 20
3.2447684359
 30
0.0
 40
0.249999999999994
 50
315.4960424952
 51
61.7643730614001
  0
ARC
  8
0
  6
CONTINUOUS
 62
0
 10
9.125
 20
1.5058766425
 30
0.0
 40
0.249999999999998
 50
110.6673164935
 51
180
  0
ARC
  8
0
  6
CONTINUOUS
 62
0
 10
8.74999999999999
 20
2.49999999999999
 30
0.0
 40
0.8125
 50
135.496042495199
 51
249.332683506499
  0
ARC
  8
0
  6
CONTINUOUS
 62
0
 10
3.24999999999995
 20
-5.58625000000002
 30
0.0
 40
10.4612499999999
 50
61.3225755372998
 51
89.9999999999997
  0
ARC
  8
0
  6
CONTINUOUS
 62
0
 10
14.25
 20
-5.58624999999999
 30
0.0
 40
10.27375
 50
97.8305830273999
 51
118.2356269386
  0
ARC
  8
0
  6
CONTINUOUS
 62
0
 10
3.25000000000001
 20
2.93750000000001
 30
0.0
 40
1.93750000000001
 50
308.012279544399
 51
47.9016720008997
  0
ARC
  8
0
  6
CONTINUOUS
 62
0
 10
3.24999999999996
 20
-5.58624999999998
 30
0.0
 40
10.27375
 50
61.7643730613997
 51
82.1694169725997
  0
ARC
  8
0
  6
CONTINUOUS
 62
0
 10
3.25000000000001
 20
2.9375
 30
0.0
 40
1.75
 50
270
 51
90
  0
ARC
  8
0
  6
CONTINUOUS
 62
0
 10
14.25
 20
2.9375
 30
0.0
 40
1.75
 50
90
 51
270
  0
ARC
  8
0
  6
CONTINUOUS
 62
0
 10
14.25
 20
-5.58624999999996
 30
0.0
 40
10.4612499999998
 50
89.9999999999998
 51
118.6774244627
  0
ARC
  8
0
  6
CONTINUOUS
 62
0
 10
14.25
 20
2.93749999999999
 30
0.0
 40
1.9375
 50
132.0983279991
 51
231.9877204556
  0
ARC
  8
0
  6
CONTINUOUS
 62
0
 10
8.75000000000001
 20
2.5
 30
0.0
 40
0.8125
 50
290.667316493499
 51
44.5039575047997
  0
ENDSEC
  0
EOF
