  0
SECTION
  2
HEADER
  9
$ACADVER
  1
AC1003
  9
$EXTMIN
 10
1
 20
4.875
  9
$EXTMAX
 10
16.5
 20
1
  9
$INSUNITS
 70
1
  9
$INSBASE
 10
8.75
 20
2.9375
999
Created with OMAX Layout for Windows. (www.omax.com) 2/25/2016
  0
ENDSEC
  0
SECTION
  2
TABLES
  0
TABLE
  2
LAYER
 70
    10
  0
LAYER
  2
0
 70
     0
 62
     7
  6
CONTINUOUS
  0
LAYER
  2
1
 70
     0
 62
     7
  6
CONTINUOUS
  0
LAYER
  2
2
 70
     0
 62
     7
  6
CONTINUOUS
  0
LAYER
  2
3
 70
     0
 62
     7
  6
CONTINUOUS
  0
LAYER
  2
4
 70
     0
 62
     7
  6
CONTINUOUS
  0
LAYER
  2
5
 70
     0
 62
     7
  6
CONTINUOUS
  0
LAYER
  2
6
 70
     0
 62
     7
  6
CONTINUOUS
  0
LAYER
  2
7
 70
     0
 62
     7
  6
CONTINUOUS
  0
LAYER
  2
8
 70
     0
 62
     7
  6
CONTINUOUS
  0
LAYER
  2
9
 70
     0
 62
     7
  6
CONTINUOUS
  0
LAYER
  2
10
 70
     0
 62
     7
  6
CONTINUOUS
  0
LAYER
  2
11
 70
     0
 62
     7
  6
CONTINUOUS
  0
LAYER
  2
12
 70
     0
 62
     7
  6
CONTINUOUS
  0
LAYER
  2
13
 70
     0
 62
     7
  6
CONTINUOUS
  0
LAYER
  2
14
 70
     0
 62
     7
  6
CONTINUOUS
  0
LAYER
  2
15
 70
     0
 62
     7
  6
CONTINUOUS
  0
LAYER
  2
16
 70
     0
 62
     7
  6
CONTINUOUS
  0
LAYER
  2
17
 70
     0
 62
     7
  6
CONTINUOUS
  0
LAYER
  2
18
 70
     0
 62
     7
  6
CONTINUOUS
  0
LAYER
  2
19
 70
     0
 62
     7
  6
CONTINUOUS
  0
LAYER
  2
20
 70
     0
 62
     7
  6
CONTINUOUS
  0
LAYER
  2
21
 70
     0
 62
     7
  6
CONTINUOUS
  0
LAYER
  2
22
 70
     0
 62
     7
  6
CONTINUOUS
  0
LAYER
  2
23
 70
     0
 62
     7
  6
CONTINUOUS
  0
LAYER
  2
24
 70
     0
 62
     7
  6
CONTINUOUS
  0
LAYER
  2
25
 70
     0
 62
     7
  6
CONTINUOUS
  0
LAYER
  2
26
 70
     0
 62
     7
  6
CONTINUOUS
  0
LAYER
  2
27
 70
     0
 62
     7
  6
CONTINUOUS
  0
LAYER
  2
28
 70
     0
 62
     7
  6
CONTINUOUS
  0
LAYER
  2
29
 70
     0
 62
     7
  6
CONTINUOUS
  0
LAYER
  2
30
 70
     0
 62
     7
  6
CONTINUOUS
  0
LAYER
  2
31
 70
     0
 62
     7
  6
CONTINUOUS
  0
ENDTAB
  0
ENDSEC
  0
SECTION
  2
ENTITIES
  0
ARC
  8
0
  6
CONTINUOUS
 62
0
 10
8.75
 20
2.5
 30
0.0
 40
0.25
 50
179.999999999999
 51
359.999999999999
  0
ARC
  8
0
  6
CONTINUOUS
 62
0
 10
8.75
 20
2.5
 30
0.0
 40
0.25
 50
359.999999999999
 51
180
  0
LINE
  8
0
  6
CONTINUOUS
 62
0
 10
1.25
 20
1.1875
 30
0.0
 11
1.25
 21
1.5625
 31
0.0
  0
LINE
  8
0
  6
CONTINUOUS
 62
0
 10
1.25
 20
4.6875
 30
0.0
 11
1.25
 21
4.3125
 31
0.0
  0
LINE
  8
0
  6
CONTINUOUS
 62
0
 10
16.25
 20
4.6875
 30
0.0
 11
16.25
 21
4.3125
 31
0.0
  0
LINE
  8
0
  6
CONTINUOUS
 62
0
 10
16.25
 20
1.1875
 30
0.0
 11
16.25
 21
1.5625
 31
0.0
  0
LINE
  8
0
  6
CONTINUOUS
 62
0
 10
8.65625
 20
1.7611505989
 30
0.0
 11
8.65625
 21
1.5625
 31
0.0
  0
LINE
  8
0
  6
CONTINUOUS
 62
0
 10
8.28125
 20
1.1875
 30
0.0
 11
4.5201500896
 21
1.1875
 31
0.0
  0
LINE
  8
0
  6
CONTINUOUS
 62
0
 10
1
 20
4.875
 30
0.0
 11
3.25
 21
4.875
 31
0.0
  0
LINE
  8
0
  6
CONTINUOUS
 62
0
 10
1
 20
4.6875
 30
0.0
 11
1
 21
4.875
 31
0.0
  0
LINE
  8
0
  6
CONTINUOUS
 62
0
 10
1.9841229183
 20
4.6875
 30
0.0
 11
3.25
 21
4.6875
 31
0.0
  0
LINE
  8
0
  6
CONTINUOUS
 62
0
 10
1
 20
1.1875
 30
0.0
 11
1
 21
1
 31
0.0
  0
LINE
  8
0
  6
CONTINUOUS
 62
0
 10
1
 20
1
 30
0.0
 11
16.5
 21
1
 31
0.0
  0
LINE
  8
0
  6
CONTINUOUS
 62
0
 10
16.5
 20
1.1875
 30
0.0
 11
16.5
 21
1
 31
0.0
  0
LINE
  8
0
  6
CONTINUOUS
 62
0
 10
16.5
 20
1.1875
 30
0.0
 11
16.25
 21
1.1875
 31
0.0
  0
LINE
  8
0
  6
CONTINUOUS
 62
0
 10
16.5
 20
4.6875
 30
0.0
 11
16.5
 21
4.875
 31
0.0
  0
LINE
  8
0
  6
CONTINUOUS
 62
0
 10
16.5
 20
4.875
 30
0.0
 11
14.25
 21
4.875
 31
0.0
  0
LINE
  8
0
  6
CONTINUOUS
 62
0
 10
12.9798499104
 20
1.1875
 30
0.0
 11
9.21875
 21
1.1875
 31
0.0
  0
LINE
  8
0
  6
CONTINUOUS
 62
0
 10
8.84375
 20
1.7611505989
 30
0.0
 11
8.84375
 21
1.5625
 31
0.0
  0
LINE
  8
0
  6
CONTINUOUS
 62
0
 10
3.25
 20
1.1875
 30
0.0
 11
1.9841229183
 21
1.1875
 31
0.0
  0
LINE
  8
0
  6
CONTINUOUS
 62
0
 10
1.25
 20
1.1875
 30
0.0
 11
1
 21
1.1875
 31
0.0
  0
LINE
  8
0
  6
CONTINUOUS
 62
0
 10
1
 20
4.6875
 30
0.0
 11
1.25
 21
4.6875
 31
0.0
  0
LINE
  8
0
  6
CONTINUOUS
 62
0
 10
16.5
 20
4.6875
 30
0.0
 11
16.25
 21
4.6875
 31
0.0
  0
LINE
  8
0
  6
CONTINUOUS
 62
0
 10
15.5158770817
 20
4.6875
 30
0.0
 11
14.25
 21
4.6875
 31
0.0
  0
LINE
  8
0
  6
CONTINUOUS
 62
0
 10
15.5158770817
 20
1.1875
 30
0.0
 11
14.25
 21
1.1875
 31
0.0
  0
ARC
  8
0
  6
CONTINUOUS
 62
0
 10
9.21875
 20
1.5625
 30
0.0
 40
0.375
 50
179.999999999999
 51
269.999999999999
  0
ARC
  8
0
  6
CONTINUOUS
 62
0
 10
12.9798499104
 20
1.3125
 30
0.0
 40
0.124999999999999
 50
269.999999999999
 51
51.9877204555993
  0
ARC
  8
0
  6
CONTINUOUS
 62
0
 10
12.8459949278
 20
4.4483527417
 30
0.0
 40
0.124999999999999
 50
312.900693223998
 51
99.2959822817991
  0
ARC
  8
0
  6
CONTINUOUS
 62
0
 10
9.539935606
 20
2.8763332809
 30
0.0
 40
0.375
 50
123.9144431442
 51
205.4736005409
  0
ARC
  8
0
  6
CONTINUOUS
 62
0
 10
9.21875
 20
1.7611505989
 30
0.0
 40
0.375
 50
122.3923654858
 51
180
  0
ARC
  8
0
  6
CONTINUOUS
 62
0
 10
1.23390077589999
 20
1.12529631179999
 30
0.0
 40
0.437500000000004
 50
36.8472644444996
 51
87.8911408018996
  0
ARC
  8
0
  6
CONTINUOUS
 62
0
 10
1.9841229183
 20
1.6875
 30
0.0
 40
0.5
 50
216.847264444499
 51
269.999999999999
  0
ARC
  8
0
  6
CONTINUOUS
 62
0
 10
1.98412291830001
 20
4.1875
 30
0.0
 40
0.500000000000015
 50
90.0000000000006
 51
143.152735555501
  0
ARC
  8
0
  6
CONTINUOUS
 62
0
 10
1.2339007759
 20
4.7497036882
 30
0.0
 40
0.4375
 50
272.108859198099
 51
323.152735555499
  0
ARC
  8
0
  6
CONTINUOUS
 62
0
 10
8.75
 20
3.6219096475
 30
0.0
 40
0.499999999999999
 50
234.641293341699
 51
305.358706658299
  0
ARC
  8
0
  6
CONTINUOUS
 62
0
 10
16.2660992241
 20
4.7497036882
 30
0.0
 40
0.437499999999997
 50
216.8472644445
 51
267.8911408019
  0
ARC
  8
0
  6
CONTINUOUS
 62
0
 10
15.5158770817
 20
4.1875
 30
0.0
 40
0.5
 50
36.8472644444996
 51
89.9999999999996
  0
ARC
  8
0
  6
CONTINUOUS
 62
0
 10
15.5158770817
 20
1.6875
 30
0.0
 40
0.5
 50
270
 51
323.1527355555
  0
ARC
  8
0
  6
CONTINUOUS
 62
0
 10
16.2660992241
 20
1.1252963118
 30
0.0
 40
0.437499999999997
 50
92.1088591980993
 51
143.152735555499
  0
ARC
  8
0
  6
CONTINUOUS
 62
0
 10
4.6540050722
 20
4.4483527417
 30
0.0
 40
0.124999999999999
 50
80.7040177182005
 51
227.099306776001
  0
ARC
  8
0
  6
CONTINUOUS
 62
0
 10
4.5201500896
 20
1.3125
 30
0.0
 40
0.124999999999999
 50
128.0122795444
 51
270
  0
ARC
  8
0
  6
CONTINUOUS
 62
0
 10
8.28125
 20
1.7611505989
 30
0.0
 40
0.375
 50
359.999999999999
 51
57.6076345141998
  0
ARC
  8
0
  6
CONTINUOUS
 62
0
 10
7.960064394
 20
2.8763332809
 30
0.0
 40
0.375000000000018
 50
334.526399459099
 51
56.0855568557997
  0
ARC
  8
0
  6
CONTINUOUS
 62
0
 10
8.28125
 20
1.5625
 30
0.0
 40
0.375
 50
269.999999999999
 51
359.999999999999
  0
ARC
  8
0
  6
CONTINUOUS
 62
0
 10
8.75
 20
2.5
 30
0.0
 40
0.499999999999999
 50
154.526399459099
 51
237.607634514199
  0
ARC
  8
0
  6
CONTINUOUS
 62
0
 10
3.24999999999997
 20
-4.12916666669999
 30
0.0
 40
9.00416666666672
 50
54.6412933416998
 51
89.9999999999998
  0
ARC
  8
0
  6
CONTINUOUS
 62
0
 10
14.25
 20
-4.12916666670004
 30
0.0
 40
8.81666666666674
 50
99.2959822817998
 51
123.9144431442
  0
ARC
  8
0
  6
CONTINUOUS
 62
0
 10
3.25000000000001
 20
2.93750000000001
 30
0.0
 40
1.93750000000001
 50
308.012279544399
 51
47.0993067759998
  0
ARC
  8
0
  6
CONTINUOUS
 62
0
 10
3.24999999999998
 20
-4.12916666670001
 30
0.0
 40
8.8166666666667
 50
56.0855568557999
 51
80.7040177181998
  0
ARC
  8
0
  6
CONTINUOUS
 62
0
 10
3.25000000000001
 20
2.9375
 30
0.0
 40
1.75
 50
270
 51
90
  0
ARC
  8
0
  6
CONTINUOUS
 62
0
 10
14.25
 20
2.9375
 30
0.0
 40
1.75
 50
90
 51
270
  0
ARC
  8
0
  6
CONTINUOUS
 62
0
 10
14.25
 20
-4.1291666667
 30
0.0
 40
9.00416666666672
 50
89.9999999999998
 51
125.3587066583
  0
ARC
  8
0
  6
CONTINUOUS
 62
0
 10
14.25
 20
2.93749999999999
 30
0.0
 40
1.9375
 50
132.900693223999
 51
231.9877204556
  0
ARC
  8
0
  6
CONTINUOUS
 62
0
 10
8.75
 20
2.5
 30
0.0
 40
0.5
 50
302.3923654858
 51
25.4736005408999
  0
ENDSEC
  0
EOF
