  0
SECTION
  2
HEADER
  9
$ACADVER
  1
AC1003
  9
$EXTMIN
 10
1
 20
9.98212921881044
  9
$EXTMAX
 10
16.5
 20
1
  9
$INSUNITS
 70
1
  9
$INSBASE
 10
8.75
 20
5.49106460940522
999
Created with OMAX Layout for Windows. (www.omax.com) 2/25/2016
  0
ENDSEC
  0
SECTION
  2
TABLES
  0
TABLE
  2
LAYER
 70
    10
  0
LAYER
  2
0
 70
     0
 62
     7
  6
CONTINUOUS
  0
LAYER
  2
1
 70
     0
 62
     7
  6
CONTINUOUS
  0
LAYER
  2
2
 70
     0
 62
     7
  6
CONTINUOUS
  0
LAYER
  2
3
 70
     0
 62
     7
  6
CONTINUOUS
  0
LAYER
  2
4
 70
     0
 62
     7
  6
CONTINUOUS
  0
LAYER
  2
5
 70
     0
 62
     7
  6
CONTINUOUS
  0
LAYER
  2
6
 70
     0
 62
     7
  6
CONTINUOUS
  0
LAYER
  2
7
 70
     0
 62
     7
  6
CONTINUOUS
  0
LAYER
  2
8
 70
     0
 62
     7
  6
CONTINUOUS
  0
LAYER
  2
9
 70
     0
 62
     7
  6
CONTINUOUS
  0
LAYER
  2
10
 70
     0
 62
     7
  6
CONTINUOUS
  0
LAYER
  2
11
 70
     0
 62
     7
  6
CONTINUOUS
  0
LAYER
  2
12
 70
     0
 62
     7
  6
CONTINUOUS
  0
LAYER
  2
13
 70
     0
 62
     7
  6
CONTINUOUS
  0
LAYER
  2
14
 70
     0
 62
     7
  6
CONTINUOUS
  0
LAYER
  2
15
 70
     0
 62
     7
  6
CONTINUOUS
  0
LAYER
  2
16
 70
     0
 62
     7
  6
CONTINUOUS
  0
LAYER
  2
17
 70
     0
 62
     7
  6
CONTINUOUS
  0
LAYER
  2
18
 70
     0
 62
     7
  6
CONTINUOUS
  0
LAYER
  2
19
 70
     0
 62
     7
  6
CONTINUOUS
  0
LAYER
  2
20
 70
     0
 62
     7
  6
CONTINUOUS
  0
LAYER
  2
21
 70
     0
 62
     7
  6
CONTINUOUS
  0
LAYER
  2
22
 70
     0
 62
     7
  6
CONTINUOUS
  0
LAYER
  2
23
 70
     0
 62
     7
  6
CONTINUOUS
  0
LAYER
  2
24
 70
     0
 62
     7
  6
CONTINUOUS
  0
LAYER
  2
25
 70
     0
 62
     7
  6
CONTINUOUS
  0
LAYER
  2
26
 70
     0
 62
     7
  6
CONTINUOUS
  0
LAYER
  2
27
 70
     0
 62
     7
  6
CONTINUOUS
  0
LAYER
  2
28
 70
     0
 62
     7
  6
CONTINUOUS
  0
LAYER
  2
29
 70
     0
 62
     7
  6
CONTINUOUS
  0
LAYER
  2
30
 70
     0
 62
     7
  6
CONTINUOUS
  0
LAYER
  2
31
 70
     0
 62
     7
  6
CONTINUOUS
  0
ENDTAB
  0
ENDSEC
  0
SECTION
  2
ENTITIES
  0
ARC
  8
0
  6
CONTINUOUS
 62
0
 10
5.5996252898
 20
5.64601042491042
 30
0.0
 40
0.0747499999999999
 50
179.999999999999
 51
359.999999999999
  0
ARC
  8
0
  6
CONTINUOUS
 62
0
 10
5.5996252898
 20
5.64601042491042
 30
0.0
 40
0.0747499999999999
 50
359.999999999999
 51
180
  0
ARC
  8
0
  6
CONTINUOUS
 62
0
 10
8.75
 20
3.35712921881042
 30
0.0
 40
0.0747499999999999
 50
179.999999999999
 51
359.999999999999
  0
ARC
  8
0
  6
CONTINUOUS
 62
0
 10
8.75
 20
3.35712921881042
 30
0.0
 40
0.0747499999999999
 50
359.999999999999
 51
180
  0
ARC
  8
0
  6
CONTINUOUS
 62
0
 10
11.9003747102
 20
5.64601042491042
 30
0.0
 40
0.0747499999999999
 50
179.999999999999
 51
359.999999999999
  0
ARC
  8
0
  6
CONTINUOUS
 62
0
 10
11.9003747102
 20
5.64601042491042
 30
0.0
 40
0.0747499999999999
 50
359.999999999999
 51
180
  0
ARC
  8
0
  6
CONTINUOUS
 62
0
 10
10.6970386482
 20
9.34949801271042
 30
0.0
 40
0.0747499999999999
 50
179.999999999999
 51
359.999999999999
  0
ARC
  8
0
  6
CONTINUOUS
 62
0
 10
10.6970386482
 20
9.34949801271042
 30
0.0
 40
0.0747499999999999
 50
359.999999999999
 51
180
  0
ARC
  8
0
  6
CONTINUOUS
 62
0
 10
6.8029613518
 20
9.34949801271042
 30
0.0
 40
0.0747499999999999
 50
179.999999999999
 51
359.999999999999
  0
ARC
  8
0
  6
CONTINUOUS
 62
0
 10
6.8029613518
 20
9.34949801271042
 30
0.0
 40
0.0747499999999999
 50
359.999999999999
 51
180
  0
ARC
  8
0
  6
CONTINUOUS
 62
0
 10
8.75
 20
6.66962921881039
 30
0.0
 40
3.125
 50
179.999999999999
 51
359.999999999999
  0
ARC
  8
0
  6
CONTINUOUS
 62
0
 10
8.75
 20
6.66962921881045
 30
0.0
 40
3.125
 50
359.999999999999
 51
180
  0
LINE
  8
0
  6
CONTINUOUS
 62
0
 10
11.625
 20
3.17765558381042
 30
0.0
 11
11.625
 21
1.69086296571042
 31
0.0
  0
LINE
  8
0
  6
CONTINUOUS
 62
0
 10
5.875
 20
3.17765558381042
 30
0.0
 11
5.875
 21
1.69086296571042
 31
0.0
  0
LINE
  8
0
  6
CONTINUOUS
 62
0
 10
16.25
 20
2.63837921881042
 30
0.0
 11
16.1829861717
 21
2.63837921881042
 31
0.0
  0
LINE
  8
0
  6
CONTINUOUS
 62
0
 10
16.25
 20
2.26337921881042
 30
0.0
 11
16.25
 21
2.63837921881042
 31
0.0
  0
LINE
  8
0
  6
CONTINUOUS
 62
0
 10
11.4375
 20
1.00000000001042
 30
0.0
 11
11.90625
 21
1.00000000001042
 31
0.0
  0
LINE
  8
0
  6
CONTINUOUS
 62
0
 10
11.4375
 20
3.36537210441042
 30
0.0
 11
11.4375
 21
1.00000000001042
 31
0.0
  0
LINE
  8
0
  6
CONTINUOUS
 62
0
 10
6.0625
 20
3.36537210441042
 30
0.0
 11
6.0625
 21
1.00000000001042
 31
0.0
  0
LINE
  8
0
  6
CONTINUOUS
 62
0
 10
6.0625
 20
1.00000000001042
 30
0.0
 11
5.59375
 21
1.00000000001042
 31
0.0
  0
LINE
  8
0
  6
CONTINUOUS
 62
0
 10
1.25
 20
2.63837921881042
 30
0.0
 11
1.25
 21
2.26337921881042
 31
0.0
  0
LINE
  8
0
  6
CONTINUOUS
 62
0
 10
1.3170138283
 20
2.63837921881042
 30
0.0
 11
1.25
 21
2.63837921881042
 31
0.0
  0
LINE
  8
0
  6
CONTINUOUS
 62
0
 10
1.25
 20
8.70087921881042
 30
0.0
 11
1.3072734865
 21
8.70087921881042
 31
0.0
  0
LINE
  8
0
  6
CONTINUOUS
 62
0
 10
1.25
 20
9.07587921881042
 30
0.0
 11
1.25
 21
8.70087921881042
 31
0.0
  0
LINE
  8
0
  6
CONTINUOUS
 62
0
 10
16.25
 20
8.70087921881042
 30
0.0
 11
16.25
 21
9.07587921881042
 31
0.0
  0
LINE
  8
0
  6
CONTINUOUS
 62
0
 10
16.1927265135
 20
8.70087921881042
 30
0.0
 11
16.25
 21
8.70087921881042
 31
0.0
  0
LINE
  8
0
  6
CONTINUOUS
 62
0
 10
16.25
 20
2.26337921881042
 30
0.0
 11
16.5
 21
2.26337921881042
 31
0.0
  0
LINE
  8
0
  6
CONTINUOUS
 62
0
 10
16.5
 20
2.26337921881042
 30
0.0
 11
16.5
 21
2.07587921881042
 31
0.0
  0
LINE
  8
0
  6
CONTINUOUS
 62
0
 10
16.5
 20
2.07587921881042
 30
0.0
 11
16.25
 21
2.07587921881042
 31
0.0
  0
LINE
  8
0
  6
CONTINUOUS
 62
0
 10
1
 20
2.07587921881042
 30
0.0
 11
1.25
 21
2.07587921881042
 31
0.0
  0
LINE
  8
0
  6
CONTINUOUS
 62
0
 10
1
 20
2.26337921881042
 30
0.0
 11
1
 21
2.07587921881042
 31
0.0
  0
LINE
  8
0
  6
CONTINUOUS
 62
0
 10
1.25
 20
2.26337921881042
 30
0.0
 11
1
 21
2.26337921881042
 31
0.0
  0
LINE
  8
0
  6
CONTINUOUS
 62
0
 10
1.25
 20
9.07587921881042
 30
0.0
 11
1
 21
9.07587921881042
 31
0.0
  0
LINE
  8
0
  6
CONTINUOUS
 62
0
 10
1
 20
9.07587921881042
 30
0.0
 11
1
 21
9.26337921881042
 31
0.0
  0
LINE
  8
0
  6
CONTINUOUS
 62
0
 10
1.25
 20
9.26337921881042
 30
0.0
 11
1
 21
9.26337921881042
 31
0.0
  0
LINE
  8
0
  6
CONTINUOUS
 62
0
 10
16.25
 20
9.26337921881042
 30
0.0
 11
16.5
 21
9.26337921881042
 31
0.0
  0
LINE
  8
0
  6
CONTINUOUS
 62
0
 10
16.5
 20
9.07587921881042
 30
0.0
 11
16.5
 21
9.26337921881042
 31
0.0
  0
LINE
  8
0
  6
CONTINUOUS
 62
0
 10
16.25
 20
9.07587921881042
 30
0.0
 11
16.5
 21
9.07587921881042
 31
0.0
  0
ARC
  8
0
  6
CONTINUOUS
 62
0
 10
11.8125
 20
3.17765558381042
 30
0.0
 40
0.187499999999997
 50
57.5984893217994
 51
180
  0
ARC
  8
0
  6
CONTINUOUS
 62
0
 10
12.125
 20
1.69086296571041
 30
0.0
 40
0.500000000000003
 50
179.999999999999
 51
271.761541120299
  0
ARC
  8
0
  6
CONTINUOUS
 62
0
 10
11.9062500000001
 20
8.80367024061044
 30
0.0
 40
7.61617024061028
 50
271.7615411203
 51
293.685215740399
  0
ARC
  8
0
  6
CONTINUOUS
 62
0
 10
14.8904321999
 20
2.00074453611043
 30
0.0
 40
0.187499999999999
 50
293.685215740399
 51
80.5507331155002
  0
ARC
  8
0
  6
CONTINUOUS
 62
0
 10
5.375
 20
1.69086296571042
 30
0.0
 40
0.500000000000003
 50
268.238458879699
 51
359.999999999999
  0
ARC
  8
0
  6
CONTINUOUS
 62
0
 10
5.6875
 20
3.17765558381042
 30
0.0
 40
0.187499999999997
 50
3.81666561775622E-14
 51
122.4015106782
  0
ARC
  8
0
  6
CONTINUOUS
 62
0
 10
2.6095678001
 20
2.00074453611042
 30
0.0
 40
0.187500000000004
 50
99.4492668845
 51
246.3147842596
  0
ARC
  8
0
  6
CONTINUOUS
 62
0
 10
5.59375000000008
 20
8.80367024061037
 30
0.0
 40
7.61617024061025
 50
246.314784259599
 51
268.238458879699
  0
ARC
  8
0
  6
CONTINUOUS
 62
0
 10
12.4277346622
 20
4.41753596941041
 30
0.0
 40
1
 50
148.518413356999
 51
236.395966437199
  0
ARC
  8
0
  6
CONTINUOUS
 62
0
 10
15.4660736209
 20
2.80498404781043
 30
0.0
 40
0.500000000000012
 50
263.924055027
 51
319.8809076627
  0
ARC
  8
0
  6
CONTINUOUS
 62
0
 10
16.1829861717
 20
2.20087921881042
 30
0.0
 40
0.437500000000001
 50
89.9999999999989
 51
139.880907662699
  0
ARC
  8
0
  6
CONTINUOUS
 62
0
 10
16.000435754
 20
1.57950368131042
 30
0.0
 40
0.500000000000033
 50
88.3358849655
 51
119.5417320546
  0
ARC
  8
0
  6
CONTINUOUS
 62
0
 10
11.9062500000001
 20
8.80367024061042
 30
0.0
 40
7.8036702406104
 50
269.999999999999
 51
299.541732054599
  0
ARC
  8
0
  6
CONTINUOUS
 62
0
 10
10.9375
 20
3.36537210441042
 30
0.0
 40
0.499999999999999
 50
5.72499842663433E-14
 51
75.3655655960001
  0
ARC
  8
0
  6
CONTINUOUS
 62
0
 10
10.8111745501
 20
2.88159335251042
 30
0.0
 40
0.99999999999999
 50
75.3655655959997
 51
118.5518281953
  0
ARC
  8
0
  6
CONTINUOUS
 62
0
 10
9.191562015
 20
3.00866223771042
 30
0.0
 40
0.374999999999992
 50
96.8774224647994
 51
141.720598511499
  0
ARC
  8
0
  6
CONTINUOUS
 62
0
 10
8.75
 20
3.35712921881042
 30
0.0
 40
0.1875
 50
218.279401488499
 51
321.720598511499
  0
ARC
  8
0
  6
CONTINUOUS
 62
0
 10
8.308437985
 20
3.00866223771042
 30
0.0
 40
0.375000000000015
 50
38.2794014884999
 51
83.1225775351999
  0
ARC
  8
0
  6
CONTINUOUS
 62
0
 10
6.6888254499
 20
2.88159335251043
 30
0.0
 40
0.99999999999999
 50
61.4481718046998
 51
104.634434404
  0
ARC
  8
0
  6
CONTINUOUS
 62
0
 10
6.5625
 20
3.36537210441042
 30
0.0
 40
0.499999999999999
 50
104.634434404
 51
180
  0
ARC
  8
0
  6
CONTINUOUS
 62
0
 10
5.59375000000007
 20
8.8036702406104
 30
0.0
 40
7.80367024061044
 50
240.458267945399
 51
269.999999999999
  0
ARC
  8
0
  6
CONTINUOUS
 62
0
 10
1.499564246
 20
1.57950368131044
 30
0.0
 40
0.499999999999956
 50
60.4582679453997
 51
91.6641150344998
  0
ARC
  8
0
  6
CONTINUOUS
 62
0
 10
1.3170138283
 20
2.20087921881042
 30
0.0
 40
0.437500000000002
 50
40.1190923373006
 51
90.0000000000005
  0
ARC
  8
0
  6
CONTINUOUS
 62
0
 10
2.0339263791
 20
2.80498404781042
 30
0.0
 40
0.500000000000008
 50
220.1190923373
 51
276.075944973
  0
ARC
  8
0
  6
CONTINUOUS
 62
0
 10
5.07226533780001
 20
4.41753596941042
 30
0.0
 40
0.999999999999995
 50
303.604033562799
 51
31.4815866429998
  0
ARC
  8
0
  6
CONTINUOUS
 62
0
 10
5.4046636633
 20
5.11837777411043
 30
0.0
 40
0.374999999999983
 50
24.8774224647987
 51
69.7205985114987
  0
ARC
  8
0
  6
CONTINUOUS
 62
0
 10
5.5996252898
 20
5.64601042491042
 30
0.0
 40
0.187500000000003
 50
146.279401488499
 51
249.720598511499
  0
ARC
  8
0
  6
CONTINUOUS
 62
0
 10
5.13176333
 20
5.95827863751043
 30
0.0
 40
0.375000000000014
 50
326.279401488499
 51
11.1225775351994
  0
ARC
  8
0
  6
CONTINUOUS
 62
0
 10
4.5568057177
 20
7.67699110071043
 30
0.0
 40
0.999999999999999
 50
346.491408915499
 51
76.2436955649998
  0
ARC
  8
0
  6
CONTINUOUS
 62
0
 10
2.0404936071
 20
8.55417505521042
 30
0.0
 40
0.500000000000005
 50
86.8545106157991
 51
141.453388014299
  0
ARC
  8
0
  6
CONTINUOUS
 62
0
 10
1.3072734865
 20
9.13837921881042
 30
0.0
 40
0.437499999999992
 50
270
 51
321.4533880143
  0
ARC
  8
0
  6
CONTINUOUS
 62
0
 10
5.63688098970001
 20
9.65394593751042
 30
0.0
 40
0.999999999999989
 50
254.181977778699
 51
316.210136627799
  0
ARC
  8
0
  6
CONTINUOUS
 62
0
 10
6.2409064252
 20
9.37187008201042
 30
0.0
 40
0.374999999999991
 50
312.8774224648
 51
357.7205985115
  0
ARC
  8
0
  6
CONTINUOUS
 62
0
 10
6.8029613518
 20
9.34949801271042
 30
0.0
 40
0.187499999999999
 50
74.2794014884995
 51
177.7205985115
  0
ARC
  8
0
  6
CONTINUOUS
 62
0
 10
6.9553687735
 20
9.89095736281042
 30
0.0
 40
0.375000000000012
 50
254.2794014885
 51
299.1225775352
  0
ARC
  8
0
  6
CONTINUOUS
 62
0
 10
10.5446312265
 20
9.89095736281042
 30
0.0
 40
0.374999999999996
 50
240.877422464801
 51
285.720598511501
  0
ARC
  8
0
  6
CONTINUOUS
 62
0
 10
10.6970386482
 20
9.34949801271042
 30
0.0
 40
0.187499999999999
 50
2.27940148850012
 51
105.7205985115
  0
ARC
  8
0
  6
CONTINUOUS
 62
0
 10
11.2590935748
 20
9.37187008201041
 30
0.0
 40
0.375000000000003
 50
182.279401488498
 51
227.122577535198
  0
ARC
  8
0
  6
CONTINUOUS
 62
0
 10
11.8631190103
 20
9.65394593751041
 30
0.0
 40
1.00000000000001
 50
223.789863372199
 51
285.818022221299
  0
ARC
  8
0
  6
CONTINUOUS
 62
0
 10
16.1927265135
 20
9.13837921881042
 30
0.0
 40
0.437499999999999
 50
218.5466119857
 51
270
  0
ARC
  8
0
  6
CONTINUOUS
 62
0
 10
15.4595063929
 20
8.55417505521042
 30
0.0
 40
0.500000000000012
 50
38.5466119856995
 51
93.1454893841994
  0
ARC
  8
0
  6
CONTINUOUS
 62
0
 10
12.9431942823
 20
7.67699110071042
 30
0.0
 40
0.999999999999998
 50
103.756304435
 51
193.5085910845
  0
ARC
  8
0
  6
CONTINUOUS
 62
0
 10
12.36823667
 20
5.95827863751043
 30
0.0
 40
0.374999999999991
 50
168.877422464801
 51
213.720598511501
  0
ARC
  8
0
  6
CONTINUOUS
 62
0
 10
11.9003747102
 20
5.64601042491042
 30
0.0
 40
0.187500000000003
 50
290.2794014885
 51
33.7205985115001
  0
ARC
  8
0
  6
CONTINUOUS
 62
0
 10
12.0953363367
 20
5.11837777411042
 30
0.0
 40
0.375000000000012
 50
110.2794014885
 51
155.1225775352
  0
ARC
  8
0
  6
CONTINUOUS
 62
0
 10
16.2500000000001
 20
10.1696292188104
 30
0.0
 40
7.90625
 50
236.395966437199
 51
263.924055026999
  0
ARC
  8
0
  6
CONTINUOUS
 62
0
 10
8.75000000000004
 20
6.66962921881043
 30
0.0
 40
3.31250000000003
 50
276.877422464799
 51
298.551828195299
  0
ARC
  8
0
  6
CONTINUOUS
 62
0
 10
1.25000000000002
 20
10.1696292188102
 30
0.0
 40
8.09375000000081
 50
270
 51
271.6641150345
  0
ARC
  8
0
  6
CONTINUOUS
 62
0
 10
1.25000000000005
 20
10.1696292188105
 30
0.0
 40
7.90625000000017
 50
276.075944973
 51
303.604033562799
  0
ARC
  8
0
  6
CONTINUOUS
 62
0
 10
8.74999999999995
 20
6.6696292188104
 30
0.0
 40
3.31250000000031
 50
204.8774224648
 51
211.481586643
  0
ARC
  8
0
  6
CONTINUOUS
 62
0
 10
1.24999999999995
 20
-5.83037078118952
 30
0.0
 40
14.9062500000004
 50
76.2436955649998
 51
86.8545106157998
  0
ARC
  8
0
  6
CONTINUOUS
 62
0
 10
1.24999999999993
 20
-5.83037078118958
 30
0.0
 40
15.0937500000004
 50
74.1819777786997
 51
89.9999999999997
  0
ARC
  8
0
  6
CONTINUOUS
 62
0
 10
8.75000000000001
 20
6.66962921881023
 30
0.0
 40
3.3124999999995
 50
132.877422464798
 51
136.210136627798
  0
ARC
  8
0
  6
CONTINUOUS
 62
0
 10
16.2499999999999
 20
-5.83037078118958
 30
0.0
 40
15.0937500000003
 50
89.9999999999998
 51
105.8180222213
  0
ARC
  8
0
  6
CONTINUOUS
 62
0
 10
16.25
 20
-5.83037078118956
 30
0.0
 40
14.9062500000001
 50
93.1454893841998
 51
103.756304435
  0
ARC
  8
0
  6
CONTINUOUS
 62
0
 10
8.74999999999999
 20
6.66962921881045
 30
0.0
 40
3.31249999999998
 50
348.8774224648
 51
13.5085910844998
  0
ARC
  8
0
  6
CONTINUOUS
 62
0
 10
16.2500000000001
 20
10.1696292188105
 30
0.0
 40
8.09375000000082
 50
268.335884965499
 51
269.999999999999
  0
ARC
  8
0
  6
CONTINUOUS
 62
0
 10
16.2500000000001
 20
10.1696292188104
 30
0.0
 40
8.09375000000002
 50
237.5984893218
 51
260.550733115499
  0
ARC
  8
0
  6
CONTINUOUS
 62
0
 10
1.25000000000007
 20
10.1696292188105
 30
0.0
 40
8.09374999999999
 50
279.449266884499
 51
302.401510678199
  0
ARC
  8
0
  6
CONTINUOUS
 62
0
 10
8.75000000000001
 20
6.66962921881041
 30
0.0
 40
3.31250000000003
 50
166.4914089155
 51
191.1225775352
  0
ARC
  8
0
  6
CONTINUOUS
 62
0
 10
8.74999999999999
 20
6.66962921881044
 30
0.0
 40
3.31249999999999
 50
60.8774224647998
 51
119.1225775352
  0
ARC
  8
0
  6
CONTINUOUS
 62
0
 10
8.74999999999983
 20
6.66962921881028
 30
0.0
 40
3.31249999999891
 50
43.7898633721997
 51
47.1225775351997
  0
ARC
  8
0
  6
CONTINUOUS
 62
0
 10
8.75000000000004
 20
6.66962921881041
 30
0.0
 40
3.31250000000004
 50
241.448171804699
 51
263.122577535199
  0
ARC
  8
0
  6
CONTINUOUS
 62
0
 10
8.75000000000006
 20
6.66962921881041
 30
0.0
 40
3.3125000000002
 50
328.518413357
 51
335.1225775352
  0
ENDSEC
  0
EOF
