  0
SECTION
  2
HEADER
  9
$ACADVER
  1
AC1003
  9
$EXTMIN
 10
0.083473630066115
 20
35.6652607553218
  9
$EXTMAX
 10
15.7437510847941
 20
0.214842809140504
  9
$INSUNITS
 70
1
  9
$INSBASE
 10
7.91361235743011
 20
17.9400517822312
999
Created with OMAX Layout for Windows. (www.omax.com) 2/25/2016
  0
ENDSEC
  0
SECTION
  2
TABLES
  0
TABLE
  2
LAYER
 70
    10
  0
LAYER
  2
0
 70
     0
 62
     7
  6
CONTINUOUS
  0
LAYER
  2
1
 70
     0
 62
     7
  6
CONTINUOUS
  0
LAYER
  2
2
 70
     0
 62
     7
  6
CONTINUOUS
  0
LAYER
  2
3
 70
     0
 62
     7
  6
CONTINUOUS
  0
LAYER
  2
4
 70
     0
 62
     7
  6
CONTINUOUS
  0
LAYER
  2
5
 70
     0
 62
     7
  6
CONTINUOUS
  0
LAYER
  2
6
 70
     0
 62
     7
  6
CONTINUOUS
  0
LAYER
  2
7
 70
     0
 62
     7
  6
CONTINUOUS
  0
LAYER
  2
8
 70
     0
 62
     7
  6
CONTINUOUS
  0
LAYER
  2
9
 70
     0
 62
     7
  6
CONTINUOUS
  0
LAYER
  2
10
 70
     0
 62
     7
  6
CONTINUOUS
  0
LAYER
  2
11
 70
     0
 62
     7
  6
CONTINUOUS
  0
LAYER
  2
12
 70
     0
 62
     7
  6
CONTINUOUS
  0
LAYER
  2
13
 70
     0
 62
     7
  6
CONTINUOUS
  0
LAYER
  2
14
 70
     0
 62
     7
  6
CONTINUOUS
  0
LAYER
  2
15
 70
     0
 62
     7
  6
CONTINUOUS
  0
LAYER
  2
16
 70
     0
 62
     7
  6
CONTINUOUS
  0
LAYER
  2
17
 70
     0
 62
     7
  6
CONTINUOUS
  0
LAYER
  2
18
 70
     0
 62
     7
  6
CONTINUOUS
  0
LAYER
  2
19
 70
     0
 62
     7
  6
CONTINUOUS
  0
LAYER
  2
20
 70
     0
 62
     7
  6
CONTINUOUS
  0
LAYER
  2
21
 70
     0
 62
     7
  6
CONTINUOUS
  0
LAYER
  2
22
 70
     0
 62
     7
  6
CONTINUOUS
  0
LAYER
  2
23
 70
     0
 62
     7
  6
CONTINUOUS
  0
LAYER
  2
24
 70
     0
 62
     7
  6
CONTINUOUS
  0
LAYER
  2
25
 70
     0
 62
     7
  6
CONTINUOUS
  0
LAYER
  2
26
 70
     0
 62
     7
  6
CONTINUOUS
  0
LAYER
  2
27
 70
     0
 62
     7
  6
CONTINUOUS
  0
LAYER
  2
28
 70
     0
 62
     7
  6
CONTINUOUS
  0
LAYER
  2
29
 70
     0
 62
     7
  6
CONTINUOUS
  0
LAYER
  2
30
 70
     0
 62
     7
  6
CONTINUOUS
  0
LAYER
  2
31
 70
     0
 62
     7
  6
CONTINUOUS
  0
ENDTAB
  0
ENDSEC
  0
SECTION
  2
ENTITIES
  0
LINE
  8
0
  6
CONTINUOUS
 62
0
 10
0.083473630066115
 20
0.214842809140504
 30
0.0
 11
8.54857236303848
 21
2.07774271393457
 31
0.0
  0
LINE
  8
0
  6
CONTINUOUS
 62
0
 10
8.44983359997611
 20
2.06020030253998
 30
0.0
 11
7.90001890409674
 21
1.77058051715526
 31
0.0
  0
LINE
  8
0
  6
CONTINUOUS
 62
0
 10
7.80913685141065
 20
1.81297782872317
 30
0.0
 11
3.91299386869127
 21
3.6663048872809
 31
0.0
  0
LINE
  8
0
  6
CONTINUOUS
 62
0
 10
3.81282932379125
 20
3.67121848815964
 30
0.0
 11
0.083473630066115
 21
4.0898428091405
 31
0.0
  0
LINE
  8
0
  6
CONTINUOUS
 62
0
 10
0.233473630066115
 20
4.1398428091405
 30
0.0
 11
8.61249679649959
 21
6.58707120105343
 31
0.0
  0
LINE
  8
0
  6
CONTINUOUS
 62
0
 10
8.53158209173754
 20
6.52782687573958
 30
0.0
 11
7.58966342014207
 21
6.10060228886957
 31
0.0
  0
LINE
  8
0
  6
CONTINUOUS
 62
0
 10
7.49878136745598
 20
6.14299960043748
 30
0.0
 11
5.58399018160315
 21
7.42692410198651
 31
0.0
  0
LINE
  8
0
  6
CONTINUOUS
 62
0
 10
5.60662202168397
 20
7.52462200034251
 30
0.0
 11
15.6937510847941
 21
8.41361458085481
 31
0.0
  0
LINE
  8
0
  6
CONTINUOUS
 62
0
 10
15.7437510847941
 20
8.26361458085481
 30
0.0
 11
10.8068619372485
 21
13.6643016043838
 31
0.0
  0
LINE
  8
0
  6
CONTINUOUS
 62
0
 10
10.8315883807326
 20
13.6697431229577
 30
0.0
 11
11.5568619372485
 21
13.6643016043838
 31
0.0
  0
LINE
  8
0
  6
CONTINUOUS
 62
0
 10
11.5815883807326
 20
13.6697431229577
 30
0.0
 11
13.5568619372485
 21
13.6643016043838
 31
0.0
  0
LINE
  8
0
  6
CONTINUOUS
 62
0
 10
13.5815883807326
 20
13.6697431229577
 30
0.0
 11
14.3100513410173
 21
13.6676332990262
 31
0.0
  0
LINE
  8
0
  6
CONTINUOUS
 62
0
 10
14.3046098224434
 20
13.6923597425103
 30
0.0
 11
14.2886586284056
 21
19.0265781435895
 31
0.0
  0
LINE
  8
0
  6
CONTINUOUS
 62
0
 10
14.3188307368152
 20
19.1222166473563
 30
0.0
 11
14.3067196463749
 21
19.420822702795
 31
0.0
  0
LINE
  8
0
  6
CONTINUOUS
 62
0
 10
14.2819932028908
 20
19.4153811842211
 30
0.0
 11
13.5567196463749
 21
19.420822702795
 31
0.0
  0
LINE
  8
0
  6
CONTINUOUS
 62
0
 10
13.5319932028908
 20
19.4153811842211
 30
0.0
 11
11.5567196463749
 21
19.420822702795
 31
0.0
  0
LINE
  8
0
  6
CONTINUOUS
 62
0
 10
11.5319932028908
 20
19.4153811842211
 30
0.0
 11
10.8099218267032
 21
19.4184747670361
 31
0.0
  0
LINE
  8
0
  6
CONTINUOUS
 62
0
 10
10.7982660488872
 20
19.4409503087485
 30
0.0
 11
9.71929079181173
 21
24.2925621535894
 31
0.0
  0
LINE
  8
0
  6
CONTINUOUS
 62
0
 10
9.86929079181173
 20
24.3425621535894
 30
0.0
 11
9.19377641988184
 21
31.0624676030423
 31
0.0
  0
LINE
  8
0
  6
CONTINUOUS
 62
0
 10
9.21906869887665
 20
31.0613240318756
 30
0.0
 11
11.6466623957948
 21
30.9431786960776
 31
0.0
  0
LINE
  8
0
  6
CONTINUOUS
 62
0
 10
11.6287145612232
 20
30.8445128217197
 30
0.0
 11
11.4801722477933
 21
27.915189609885
 31
0.0
  0
LINE
  8
0
  6
CONTINUOUS
 62
0
 10
11.4856137663672
 20
27.8904631664009
 30
0.0
 11
11.6250766160329
 21
24.8581172989485
 31
0.0
  0
LINE
  8
0
  6
CONTINUOUS
 62
0
 10
11.5254953489888
 20
24.8462576706866
 30
0.0
 11
9.19612025174613
 21
24.7677453362825
 31
0.0
  0
LINE
  8
0
  6
CONTINUOUS
 62
0
 10
9.17198576425671
 20
24.7753960647045
 30
0.0
 11
5.49432455230451
 21
25.9682932525586
 31
0.0
  0
LINE
  8
0
  6
CONTINUOUS
 62
0
 10
5.48888303373068
 20
25.9930196960427
 30
0.0
 11
5.5976550351493
 21
29.4084984633365
 31
0.0
  0
LINE
  8
0
  6
CONTINUOUS
 62
0
 10
5.50677298246321
 20
29.4508957749045
 30
0.0
 11
5.4911351485357
 21
29.8590388543162
 31
0.0
  0
LINE
  8
0
  6
CONTINUOUS
 62
0
 10
5.76468279699895
 20
20.1152607553218
 30
0.0
 11
2.69168268760161
 21
16.3952834579052
 31
0.0
  0
LINE
  8
0
  6
CONTINUOUS
 62
0
 10
2.69053911643495
 20
16.3699911789104
 30
0.0
 11
2.55279543699001
 21
13.3242854794898
 31
0.0
  0
LINE
  8
0
  6
CONTINUOUS
 62
0
 10
2.65292509611558
 20
13.3298649859214
 30
0.0
 11
4.98464436962782
 21
13.2410025417965
 31
0.0
  0
LINE
  8
0
  6
CONTINUOUS
 62
0
 10
5.00711991134025
 20
13.2526583196125
 30
0.0
 11
8.69047989318671
 21
14.4475407841248
 31
0.0
  0
LINE
  8
0
  6
CONTINUOUS
 62
0
 10
8.68503837461288
 20
14.4722672276089
 30
0.0
 11
8.68799451499826
 21
18.3447147975675
 31
0.0
  0
LINE
  8
0
  6
CONTINUOUS
 62
0
 10
8.66270223600345
 20
18.3458583687342
 30
0.0
 11
5.24364690406143
 21
19.2699689514291
 31
0.0
  0
LINE
  8
0
  6
CONTINUOUS
 62
0
 10
5.2093630148327
 20
19.3642116936853
 30
0.0
 11
4.98530041702834
 21
19.5477422882487
 31
0.0
  0
LINE
  8
0
  6
CONTINUOUS
 62
0
 10
4.96116592953891
 20
19.5553930166707
 30
0.0
 11
1.80977648128234
 21
20.9441766995881
 31
0.0
  0
LINE
  8
0
  6
CONTINUOUS
 62
0
 10
7.98860055008115
 20
8.89450828688805
 30
0.0
 11
3.94679397578825
 21
9.27533216168974
 31
0.0
  0
LINE
  8
0
  6
CONTINUOUS
 62
0
 10
3.9715204192724
 20
9.28077368026357
 30
0.0
 11
4.69679397578825
 21
9.27533216168974
 31
0.0
  0
LINE
  8
0
  6
CONTINUOUS
 62
0
 10
4.7215204192724
 20
9.28077368026357
 30
0.0
 11
5.44679397578825
 21
9.27533216168974
 31
0.0
  0
LINE
  8
0
  6
CONTINUOUS
 62
0
 10
5.4715204192724
 20
9.28077368026357
 30
0.0
 11
6.19951097607542
 21
9.28028459925367
 31
0.0
  0
LINE
  8
0
  6
CONTINUOUS
 62
0
 10
6.18243526101324
 20
9.29897756816928
 30
0.0
 11
5.69037011841473
 21
10.0381348266009
 31
0.0
  0
LINE
  8
0
  6
CONTINUOUS
 62
0
 10
5.66564367493058
 20
10.032693308027
 30
0.0
 11
4.45536026072591
 21
10.0326190283624
 31
0.0
  0
LINE
  8
0
  6
CONTINUOUS
 62
0
 10
4.46899676190468
 20
10.0539509989082
 30
0.0
 11
5.04421647650728
 21
10.6903521341187
 31
0.0
  0
LINE
  8
0
  6
CONTINUOUS
 62
0
 10
4.96740438636654
 20
10.7548267984205
 30
0.0
 11
4.45307554228825
 21
11.2690505951897
 31
0.0
  0
LINE
  8
0
  6
CONTINUOUS
 62
0
 10
4.4778019857724
 20
11.2744921137636
 30
0.0
 11
5.69357229874302
 21
11.273223757842
 31
0.0
  0
LINE
  8
0
  6
CONTINUOUS
 62
0
 10
5.68191652092698
 20
11.2956992995544
 30
0.0
 11
5.44665168491473
 21
12.0318532601009
 31
0.0
  0
LINE
  8
0
  6
CONTINUOUS
 62
0
 10
5.42192524143058
 20
12.026411741527
 30
0.0
 11
4.69951097607542
 21
12.0302845992537
 31
0.0
  0
LINE
  8
0
  6
CONTINUOUS
 62
0
 10
4.68243526101324
 20
12.0489775681693
 30
0.0
 11
4.44880224286368
 21
12.357850305535
 31
0.0
  0
LINE
  8
0
  6
CONTINUOUS
 62
0
 10
4.51467370432813
 20
12.2822326482507
 30
0.0
 11
0.193751084794076
 21
35.6652607553218
 31
0.0
  0
ARC
  8
3
  6
CONTINUOUS
 62
3
 10
8.77340923589835
 20
2.09117608995727
 30
0.0
 40
0.374999999812754
 50
185.083811180979
 51
205.473600540444
  0
ARC
  8
3
  6
CONTINUOUS
 62
3
 10
7.98347363006612
 20
1.71484280914051
 30
0.0
 40
0.5
 50
302.392365485799
 51
25.4736005408999
  0
ARC
  8
3
  6
CONTINUOUS
 62
3
 10
8.45222363006611
 20
0.975993408040502
 30
0.0
 40
0.375
 50
122.3923654858
 51
180
  0
LINE
  8
3
  6
CONTINUOUS
 62
3
 10
8.07722363006611
 20
0.975993408040504
 30
0.0
 11
8.07722363006611
 21
0.777342809140504
 31
0.0
  0
ARC
  8
3
  6
CONTINUOUS
 62
3
 10
8.45222363006611
 20
0.777342809140497
 30
0.0
 40
0.375
 50
179.999999999997
 51
269.999999999997
  0
LINE
  8
3
  6
CONTINUOUS
 62
3
 10
8.45222363006611
 20
0.402342809140504
 30
0.0
 11
12.2133235404661
 21
0.402342809140504
 31
0.0
  0
ARC
  8
3
  6
CONTINUOUS
 62
3
 10
12.2133235404661
 20
0.527342809140503
 30
0.0
 40
0.124999999999999
 50
269.999999999999
 51
51.9877204555994
  0
ARC
  8
3
  6
CONTINUOUS
 62
3
 10
13.4834736300661
 20
2.15234280914048
 30
0.0
 40
1.9375
 50
132.900693223998
 51
231.987720455599
  0
ARC
  8
3
  6
CONTINUOUS
 62
3
 10
12.0794685578661
 20
3.6631955508405
 30
0.0
 40
0.124999999999999
 50
312.900693223996
 51
99.2959822817988
  0
ARC
  8
3
  6
CONTINUOUS
 62
3
 10
13.4834736300661
 20
-4.91432385755954
 30
0.0
 40
8.81666666666674
 50
99.2959822817994
 51
123.9144431442
  0
ARC
  8
3
  6
CONTINUOUS
 62
3
 10
8.77340923606947
 20
2.0911760900528
 30
0.0
 40
0.374999999991672
 50
123.914443145675
 51
185.0838111932
  0
ARC
  8
3
  6
CONTINUOUS
 62
3
 10
7.98347363002422
 20
1.71484280915173
 30
0.0
 40
0.24999999995811
 50
149.999999997426
 51
180.000000002572
  0
ARC
  8
3
  6
CONTINUOUS
 62
3
 10
7.98347363006611
 20
1.7148428091405
 30
0.0
 40
0.25
 50
179.999999999997
 51
359.999999999997
  0
ARC
  8
3
  6
CONTINUOUS
 62
3
 10
7.98347363007213
 20
1.71484280916296
 30
0.0
 40
0.249999999993986
 50
359.999999994854
 51
150.000000005143
  0
ARC
  8
3
  6
CONTINUOUS
 62
3
 10
3.88747870226796
 20
3.66319555083878
 30
0.0
 40
0.124999999999999
 50
172.20107337817
 51
227.099306774845
  0
ARC
  8
3
  6
CONTINUOUS
 62
3
 10
2.48347363006614
 20
2.15234280914053
 30
0.0
 40
1.93750000000001
 50
308.012279544398
 51
47.0993067759998
  0
ARC
  8
3
  6
CONTINUOUS
 62
3
 10
3.75362371966611
 20
0.527342809140502
 30
0.0
 40
0.124999999999999
 50
128.012279544398
 51
269.999999999998
  0
LINE
  8
3
  6
CONTINUOUS
 62
3
 10
3.75362371966612
 20
0.402342809140504
 30
0.0
 11
7.51472363006611
 21
0.402342809140504
 31
0.0
  0
ARC
  8
3
  6
CONTINUOUS
 62
3
 10
7.51472363006612
 20
0.777342809140504
 30
0.0
 40
0.375
 50
269.999999999997
 51
359.999999999997
  0
LINE
  8
3
  6
CONTINUOUS
 62
3
 10
7.88972363006611
 20
0.777342809140504
 30
0.0
 11
7.88972363006611
 21
0.975993408040504
 31
0.0
  0
ARC
  8
3
  6
CONTINUOUS
 62
3
 10
7.51472363006612
 20
0.975993408040512
 30
0.0
 40
0.375
 50
359.999999999997
 51
57.6076345141993
  0
ARC
  8
3
  6
CONTINUOUS
 62
3
 10
7.98347363006611
 20
1.7148428091405
 30
0.0
 40
0.499999999999999
 50
154.526399459098
 51
237.607634514198
  0
ARC
  8
3
  6
CONTINUOUS
 62
3
 10
7.19353802406612
 20
2.09117609004051
 30
0.0
 40
0.375000000000018
 50
334.526399459098
 51
56.0855568557994
  0
ARC
  8
3
  6
CONTINUOUS
 62
3
 10
2.48347363006604
 20
-4.91432385755947
 30
0.0
 40
8.8166666666667
 50
56.0855568557995
 51
80.7040177181994
  0
ARC
  8
3
  6
CONTINUOUS
 62
3
 10
3.88747870225751
 20
3.66319555085456
 30
0.0
 40
0.124999999987511
 50
80.70401771327
 51
172.201073384685
  0
LINE
  8
3
  6
CONTINUOUS
 62
3
 10
0.233473630066115
 20
4.0898428091405
 30
0.0
 11
2.48347363006611
 21
4.0898428091405
 31
0.0
  0
ARC
  8
3
  6
CONTINUOUS
 62
3
 10
2.48347363006597
 20
-4.91432385755947
 30
0.0
 40
9.00416666666672
 50
54.6412933416994
 51
89.9999999999994
  0
ARC
  8
3
  6
CONTINUOUS
 62
3
 10
7.98347363006612
 20
2.8367524566405
 30
0.0
 40
0.499999999999998
 50
234.641293341697
 51
305.358706658297
  0
ARC
  8
3
  6
CONTINUOUS
 62
3
 10
13.483473630066
 20
-4.91432385755954
 30
0.0
 40
9.00416666666672
 50
89.9999999999994
 51
125.3587066583
  0
LINE
  8
3
  6
CONTINUOUS
 62
3
 10
13.4834736300661
 20
4.0898428091405
 30
0.0
 11
15.7334736300661
 21
4.0898428091405
 31
0.0
  0
LINE
  8
3
  6
CONTINUOUS
 62
3
 10
15.7334736300661
 20
4.0898428091405
 30
0.0
 11
15.7334736300661
 21
3.9023428091405
 31
0.0
  0
LINE
  8
3
  6
CONTINUOUS
 62
3
 10
15.7334736300661
 20
3.9023428091405
 30
0.0
 11
15.4834736300661
 21
3.9023428091405
 31
0.0
  0
LINE
  8
3
  6
CONTINUOUS
 62
3
 10
15.4834736300661
 20
3.9023428091405
 30
0.0
 11
15.4834736300661
 21
3.5273428091405
 31
0.0
  0
ARC
  8
3
  6
CONTINUOUS
 62
3
 10
15.4995728541661
 20
3.9645464973405
 30
0.0
 40
0.437499999999996
 50
216.847264444499
 51
267.891140801899
  0
ARC
  8
3
  6
CONTINUOUS
 62
3
 10
14.7493507117661
 20
3.4023428091405
 30
0.0
 40
0.500000000000001
 50
36.8472644444993
 51
89.9999999999993
  0
LINE
  8
3
  6
CONTINUOUS
 62
3
 10
14.7493507117661
 20
3.9023428091405
 30
0.0
 11
13.4834736300661
 21
3.9023428091405
 31
0.0
  0
ARC
  8
3
  6
CONTINUOUS
 62
3
 10
13.4834736300661
 20
2.1523428091405
 30
0.0
 40
1.75
 50
90
 51
270
  0
LINE
  8
3
  6
CONTINUOUS
 62
3
 10
13.4834736300661
 20
0.402342809140504
 30
0.0
 11
14.7493507117661
 21
0.402342809140504
 31
0.0
  0
ARC
  8
3
  6
CONTINUOUS
 62
3
 10
14.7493507117661
 20
0.902342809140503
 30
0.0
 40
0.499999999999999
 50
269.999999999998
 51
323.152735555498
  0
ARC
  8
3
  6
CONTINUOUS
 62
3
 10
15.4995728541661
 20
0.3401391209405
 30
0.0
 40
0.437499999999996
 50
92.1088591980988
 51
143.152735555499
  0
LINE
  8
3
  6
CONTINUOUS
 62
3
 10
15.4834736300661
 20
0.777342809140504
 30
0.0
 11
15.4834736300661
 21
0.402342809140504
 31
0.0
  0
LINE
  8
3
  6
CONTINUOUS
 62
3
 10
15.4834736300661
 20
0.402342809140504
 30
0.0
 11
15.7334736300661
 21
0.402342809140504
 31
0.0
  0
LINE
  8
3
  6
CONTINUOUS
 62
3
 10
15.7334736300661
 20
0.402342809140504
 30
0.0
 11
15.7334736300661
 21
0.214842809140504
 31
0.0
  0
LINE
  8
3
  6
CONTINUOUS
 62
3
 10
15.7334736300661
 20
0.214842809140504
 30
0.0
 11
0.233473630066115
 21
0.214842809140504
 31
0.0
  0
LINE
  8
3
  6
CONTINUOUS
 62
3
 10
0.233473630066115
 20
0.214842809140504
 30
0.0
 11
0.233473630066115
 21
0.402342809140504
 31
0.0
  0
LINE
  8
3
  6
CONTINUOUS
 62
3
 10
0.233473630066115
 20
0.402342809140504
 30
0.0
 11
0.483473630066115
 21
0.402342809140504
 31
0.0
  0
LINE
  8
3
  6
CONTINUOUS
 62
3
 10
0.483473630066115
 20
0.402342809140504
 30
0.0
 11
0.483473630066115
 21
0.777342809140504
 31
0.0
  0
ARC
  8
3
  6
CONTINUOUS
 62
3
 10
0.4673744059661
 20
0.340139120940495
 30
0.0
 40
0.437500000000004
 50
36.8472644444992
 51
87.8911408018992
  0
ARC
  8
3
  6
CONTINUOUS
 62
3
 10
1.21759654836612
 20
0.902342809140496
 30
0.0
 40
0.5
 50
216.847264444497
 51
269.999999999997
  0
LINE
  8
3
  6
CONTINUOUS
 62
3
 10
1.21759654836611
 20
0.402342809140504
 30
0.0
 11
2.48347363006611
 21
0.402342809140504
 31
0.0
  0
ARC
  8
3
  6
CONTINUOUS
 62
3
 10
2.48347363006615
 20
2.1523428091405
 30
0.0
 40
1.75
 50
270
 51
90
  0
LINE
  8
3
  6
CONTINUOUS
 62
3
 10
2.48347363006611
 20
3.9023428091405
 30
0.0
 11
1.21759654836611
 21
3.9023428091405
 31
0.0
  0
ARC
  8
3
  6
CONTINUOUS
 62
3
 10
1.21759654836612
 20
3.4023428091405
 30
0.0
 40
0.500000000000015
 50
90.0000000000003
 51
143.152735555501
  0
ARC
  8
3
  6
CONTINUOUS
 62
3
 10
0.467374405966121
 20
3.9645464973405
 30
0.0
 40
0.4375
 50
272.108859198098
 51
323.152735555498
  0
LINE
  8
3
  6
CONTINUOUS
 62
3
 10
0.483473630066115
 20
3.5273428091405
 30
0.0
 11
0.483473630066115
 21
3.9023428091405
 31
0.0
  0
LINE
  8
3
  6
CONTINUOUS
 62
3
 10
0.483473630066115
 20
3.9023428091405
 30
0.0
 11
0.233473630066115
 21
3.9023428091405
 31
0.0
  0
LINE
  8
3
  6
CONTINUOUS
 62
3
 10
0.233473630066115
 20
3.9023428091405
 30
0.0
 11
0.233473630066115
 21
4.0898428091405
 31
0.0
  0
ARC
  8
3
  6
CONTINUOUS
 62
3
 10
8.70152824647045
 20
6.63338301660555
 30
0.0
 40
0.24999999980721
 50
211.2204161692
 51
224.503957500265
  0
ARC
  8
3
  6
CONTINUOUS
 62
3
 10
7.9437510847941
 20
5.88861458085481
 30
0.0
 40
0.8125
 50
290.667316493498
 51
44.5039575047997
  0
ARC
  8
3
  6
CONTINUOUS
 62
3
 10
8.31875108479407
 20
4.89449122335481
 30
0.0
 40
0.249999999999998
 50
110.6673164935
 51
180
  0
LINE
  8
3
  6
CONTINUOUS
 62
3
 10
8.06875108479408
 20
4.89449122335481
 30
0.0
 11
8.06875108479408
 21
4.82611458085481
 31
0.0
  0
ARC
  8
3
  6
CONTINUOUS
 62
3
 10
8.31875108479407
 20
4.8261145808548
 30
0.0
 40
0.249999999999999
 50
179.999999999997
 51
269.999999999997
  0
LINE
  8
3
  6
CONTINUOUS
 62
3
 10
8.31875108479408
 20
4.57611458085481
 30
0.0
 11
12.1736009951941
 21
4.57611458085481
 31
0.0
  0
ARC
  8
3
  6
CONTINUOUS
 62
3
 10
12.1736009951941
 20
4.70111458085481
 30
0.0
 40
0.124999999999999
 50
269.999999999999
 51
51.9877204555994
  0
ARC
  8
3
  6
CONTINUOUS
 62
3
 10
13.4437510847941
 20
6.32611458085478
 30
0.0
 40
1.9375
 50
132.098327999099
 51
231.987720455599
  0
ARC
  8
3
  6
CONTINUOUS
 62
3
 10
12.0610408415941
 20
7.85648010365481
 30
0.0
 40
0.124999999999998
 50
312.098327999099
 51
97.8305830274001
  0
ARC
  8
3
  6
CONTINUOUS
 62
3
 10
13.443751084794
 20
-2.19763541914518
 30
0.0
 40
10.27375
 50
97.8305830273995
 51
118.2356269386
  0
ARC
  8
3
  6
CONTINUOUS
 62
3
 10
8.70152824659509
 20
6.63338301676146
 30
0.0
 40
0.249999999994612
 50
118.235626939525
 51
211.22041618495
  0
ARC
  8
3
  6
CONTINUOUS
 62
3
 10
7.94375108469983
 20
5.88861458088007
 30
0.0
 40
0.562499999905747
 50
149.999999997427
 51
180.000000002572
  0
ARC
  8
3
  6
CONTINUOUS
 62
3
 10
7.94375108479408
 20
5.88861458085478
 30
0.0
 40
0.5625
 50
179.999999999997
 51
359.999999999997
  0
ARC
  8
3
  6
CONTINUOUS
 62
3
 10
7.94375108480761
 20
5.88861458090533
 30
0.0
 40
0.562499999986468
 50
359.999999994854
 51
150.000000005143
  0
ARC
  8
3
  6
CONTINUOUS
 62
3
 10
2.44375108666617
 20
-2.19763540897101
 30
0.0
 40
10.2737499896657
 50
71.9668950093226
 51
82.1694169752125
  0
ARC
  8
3
  6
CONTINUOUS
 62
3
 10
3.82646132799408
 20
7.85648010365481
 30
0.0
 40
0.124999999999998
 50
82.1694169725994
 51
227.9016720009
  0
ARC
  8
3
  6
CONTINUOUS
 62
3
 10
2.44375108479409
 20
6.32611458085483
 30
0.0
 40
1.93750000000001
 50
308.012279544398
 51
47.9016720008997
  0
ARC
  8
3
  6
CONTINUOUS
 62
3
 10
3.71390117439408
 20
4.70111458085481
 30
0.0
 40
0.125
 50
128.012279544399
 51
269.999999999999
  0
LINE
  8
3
  6
CONTINUOUS
 62
3
 10
3.71390117439408
 20
4.57611458085481
 30
0.0
 11
7.56875108479408
 21
4.57611458085481
 31
0.0
  0
ARC
  8
3
  6
CONTINUOUS
 62
3
 10
7.56875108479408
 20
4.82611458085481
 30
0.0
 40
0.250000000000002
 50
269.999999999997
 51
359.999999999997
  0
LINE
  8
3
  6
CONTINUOUS
 62
3
 10
7.81875108479408
 20
4.82611458085481
 30
0.0
 11
7.81875108479408
 21
4.89449122335481
 31
0.0
  0
ARC
  8
3
  6
CONTINUOUS
 62
3
 10
7.56875108479408
 20
4.89449122335481
 30
0.0
 40
0.25
 50
359.999999999998
 51
69.3326835064997
  0
ARC
  8
3
  6
CONTINUOUS
 62
3
 10
7.94375108479406
 20
5.88861458085479
 30
0.0
 40
0.8125
 50
135.496042495198
 51
249.332683506498
  0
ARC
  8
3
  6
CONTINUOUS
 62
3
 10
7.18597392299408
 20
6.63338301675481
 30
0.0
 40
0.249999999999994
 50
315.496042495198
 51
61.7643730613993
  0
ARC
  8
3
  6
CONTINUOUS
 62
3
 10
2.44375108930201
 20
-2.19763540974461
 30
0.0
 40
10.2737499895853
 50
61.7643730587461
 51
71.9668950246359
  0
LINE
  8
3
  6
CONTINUOUS
 62
3
 10
15.6937510847941
 20
8.26361458085481
 30
0.0
 11
15.6937510847941
 21
8.07611458085481
 31
0.0
  0
LINE
  8
3
  6
CONTINUOUS
 62
3
 10
15.6937510847941
 20
8.07611458085481
 30
0.0
 11
15.4437510847941
 21
8.07611458085481
 31
0.0
  0
LINE
  8
3
  6
CONTINUOUS
 62
3
 10
15.4437510847941
 20
8.07611458085481
 30
0.0
 11
15.4437510847941
 21
7.70111458085481
 31
0.0
  0
ARC
  8
3
  6
CONTINUOUS
 62
3
 10
15.4598503088941
 20
8.13831826905481
 30
0.0
 40
0.437499999999999
 50
216.8472644445
 51
267.8911408019
  0
ARC
  8
3
  6
CONTINUOUS
 62
3
 10
14.7096281664941
 20
7.57611458085481
 30
0.0
 40
0.499999999999996
 50
36.847264444499
 51
89.999999999999
  0
LINE
  8
3
  6
CONTINUOUS
 62
3
 10
14.7096281664941
 20
8.07611458085481
 30
0.0
 11
13.4437510847941
 21
8.07611458085481
 31
0.0
  0
ARC
  8
3
  6
CONTINUOUS
 62
3
 10
13.4437510847941
 20
6.32611458085481
 30
0.0
 40
1.75
 50
90
 51
270
  0
LINE
  8
3
  6
CONTINUOUS
 62
3
 10
13.4437510847941
 20
4.57611458085481
 30
0.0
 11
14.7096281664941
 21
4.57611458085481
 31
0.0
  0
ARC
  8
3
  6
CONTINUOUS
 62
3
 10
14.7096281664941
 20
5.07611458085481
 30
0.0
 40
0.500000000000003
 50
269.999999999998
 51
323.152735555498
  0
ARC
  8
3
  6
CONTINUOUS
 62
3
 10
15.4598503088941
 20
4.51391089265479
 30
0.0
 40
0.437500000000011
 50
92.108859198099
 51
143.152735555499
  0
LINE
  8
3
  6
CONTINUOUS
 62
3
 10
15.4437510847941
 20
4.95111458085481
 30
0.0
 11
15.4437510847941
 21
4.57611458085481
 31
0.0
  0
LINE
  8
3
  6
CONTINUOUS
 62
3
 10
15.4437510847941
 20
4.57611458085481
 30
0.0
 11
15.6937510847941
 21
4.57611458085481
 31
0.0
  0
LINE
  8
3
  6
CONTINUOUS
 62
3
 10
15.6937510847941
 20
4.57611458085481
 30
0.0
 11
15.6937510847941
 21
4.38861458085481
 31
0.0
  0
LINE
  8
3
  6
CONTINUOUS
 62
3
 10
15.6937510847941
 20
4.38861458085481
 30
0.0
 11
0.193751084794076
 21
4.38861458085481
 31
0.0
  0
LINE
  8
3
  6
CONTINUOUS
 62
3
 10
0.193751084794076
 20
4.38861458085481
 30
0.0
 11
0.193751084794076
 21
4.57611458085481
 31
0.0
  0
LINE
  8
3
  6
CONTINUOUS
 62
3
 10
0.193751084794076
 20
4.57611458085481
 30
0.0
 11
0.443751084794076
 21
4.57611458085481
 31
0.0
  0
LINE
  8
3
  6
CONTINUOUS
 62
3
 10
0.443751084794076
 20
4.57611458085481
 30
0.0
 11
0.443751084794076
 21
4.95111458085481
 31
0.0
  0
ARC
  8
3
  6
CONTINUOUS
 62
3
 10
0.427651860694071
 20
4.5139108926548
 30
0.0
 40
0.437500000000012
 50
36.8472644445002
 51
87.8911408019001
  0
ARC
  8
3
  6
CONTINUOUS
 62
3
 10
1.17787400309408
 20
5.0761145808548
 30
0.0
 40
0.499999999999999
 50
216.847264444497
 51
269.999999999997
  0
LINE
  8
3
  6
CONTINUOUS
 62
3
 10
1.17787400309408
 20
4.57611458085481
 30
0.0
 11
2.44375108479408
 21
4.57611458085481
 31
0.0
  0
ARC
  8
3
  6
CONTINUOUS
 62
3
 10
2.44375108479411
 20
6.32611458085481
 30
0.0
 40
1.75
 50
270
 51
90
  0
LINE
  8
3
  6
CONTINUOUS
 62
3
 10
2.44375108479408
 20
8.07611458085481
 30
0.0
 11
1.17787400309408
 21
8.07611458085481
 31
0.0
  0
ARC
  8
3
  6
CONTINUOUS
 62
3
 10
1.17787400309407
 20
7.5761145808548
 30
0.0
 40
0.500000000000002
 50
89.9999999999994
 51
143.1527355555
  0
ARC
  8
3
  6
CONTINUOUS
 62
3
 10
0.42765186069408
 20
8.13831826905482
 30
0.0
 40
0.437500000000015
 50
272.108859198099
 51
323.152735555499
  0
LINE
  8
3
  6
CONTINUOUS
 62
3
 10
0.443751084794076
 20
7.70111458085481
 30
0.0
 11
0.443751084794076
 21
8.07611458085481
 31
0.0
  0
LINE
  8
3
  6
CONTINUOUS
 62
3
 10
0.443751084794076
 20
8.07611458085481
 30
0.0
 11
0.193751084794076
 21
8.07611458085481
 31
0.0
  0
LINE
  8
3
  6
CONTINUOUS
 62
3
 10
0.193751084794076
 20
8.07611458085481
 30
0.0
 11
0.193751084794076
 21
8.26361458085481
 31
0.0
  0
LINE
  8
3
  6
CONTINUOUS
 62
3
 10
0.193751084794076
 20
8.26361458085481
 30
0.0
 11
2.44375108479408
 21
8.26361458085481
 31
0.0
  0
ARC
  8
3
  6
CONTINUOUS
 62
3
 10
2.44375108479389
 20
-2.1976354191452
 30
0.0
 40
10.4612499999999
 50
61.3225755372994
 51
89.9999999999993
  0
ARC
  8
3
  6
CONTINUOUS
 62
3
 10
7.94375108479411
 20
7.8577239261548
 30
0.0
 40
0.999999999999998
 50
241.322575537297
 51
298.677424462697
  0
ARC
  8
3
  6
CONTINUOUS
 62
3
 10
13.4437510847939
 20
-2.19763541914521
 30
0.0
 40
10.4612499999998
 50
89.9999999999994
 51
118.6774244627
  0
LINE
  8
3
  6
CONTINUOUS
 62
3
 10
13.4437510847941
 20
8.26361458085481
 30
0.0
 11
15.6937510847941
 21
8.26361458085481
 31
0.0
  0
ARC
  8
3
  6
CONTINUOUS
 62
3
 10
10.8067907918167
 20
13.6675621535944
 30
0.0
 40
0.0747499999949675
 50
359.999999996141
 51
90.0000000038585
  0
ARC
  8
3
  6
CONTINUOUS
 62
3
 10
10.8067907918117
 20
13.6675621535894
 30
0.0
 40
0.0747500000000016
 50
89.9999999999985
 51
270
  0
ARC
  8
3
  6
CONTINUOUS
 62
3
 10
10.8067907918167
 20
13.6675621535844
 30
0.0
 40
0.0747499999949675
 50
269.999999996141
 51
3.85850263403619E-9
  0
ARC
  8
3
  6
CONTINUOUS
 62
3
 10
11.5567907918167
 20
13.6675621535944
 30
0.0
 40
0.0747499999949675
 50
359.999999996141
 51
90.0000000038585
  0
ARC
  8
3
  6
CONTINUOUS
 62
3
 10
11.5567907918117
 20
13.6675621535894
 30
0.0
 40
0.0747500000000016
 50
89.9999999999985
 51
270
  0
ARC
  8
3
  6
CONTINUOUS
 62
3
 10
11.5567907918167
 20
13.6675621535844
 30
0.0
 40
0.0747499999949675
 50
269.999999996141
 51
3.85850263403619E-9
  0
ARC
  8
3
  6
CONTINUOUS
 62
3
 10
13.5567907918167
 20
13.6675621535944
 30
0.0
 40
0.0747499999949675
 50
359.999999996141
 51
90.0000000038585
  0
ARC
  8
3
  6
CONTINUOUS
 62
3
 10
13.5567907918117
 20
13.6675621535894
 30
0.0
 40
0.0747500000000016
 50
89.9999999999985
 51
270
  0
ARC
  8
3
  6
CONTINUOUS
 62
3
 10
13.5567907918167
 20
13.6675621535844
 30
0.0
 40
0.0747499999949675
 50
269.999999996141
 51
3.85850263403619E-9
  0
ARC
  8
3
  6
CONTINUOUS
 62
3
 10
14.3067907918117
 20
13.6675621535894
 30
0.0
 40
0.0747500000000016
 50
89.9999999999985
 51
270
  0
ARC
  8
3
  6
CONTINUOUS
 62
3
 10
14.3067907918117
 20
13.6675621535894
 30
0.0
 40
0.0747500000000016
 50
270
 51
90
  0
ARC
  8
3
  6
CONTINUOUS
 62
3
 10
14.2442907918031
 20
18.9365621536599
 30
0.0
 40
0.249999999929459
 50
67.4999999916041
 51
89.9999999980356
  0
LINE
  8
3
  6
CONTINUOUS
 62
3
 10
14.2442907918117
 20
19.1865621535893
 30
0.0
 11
13.5567907918117
 21
19.1865621535893
 31
0.0
  0
ARC
  8
3
  6
CONTINUOUS
 62
3
 10
13.5567907918117
 20
19.4175621535893
 30
0.0
 40
0.230999999999989
 50
234.315710374102
 51
270.000000000002
  0
ARC
  8
3
  6
CONTINUOUS
 62
3
 10
13.1303849552117
 20
18.8238121535893
 30
0.0
 40
0.499999999999995
 50
54.3157103741009
 51
90.0000000000008
  0
LINE
  8
3
  6
CONTINUOUS
 62
3
 10
13.1303849552117
 20
19.3238121535894
 30
0.0
 11
11.9831966284117
 21
19.3238121535894
 31
0.0
  0
ARC
  8
3
  6
CONTINUOUS
 62
3
 10
11.9831966284117
 20
18.8238121535893
 30
0.0
 40
0.500000000000003
 50
89.999999999999
 51
125.6842896259
  0
ARC
  8
3
  6
CONTINUOUS
 62
3
 10
11.5567907918117
 20
19.4175621535893
 30
0.0
 40
0.230999999999992
 50
269.999999999996
 51
305.684289625896
  0
LINE
  8
3
  6
CONTINUOUS
 62
3
 10
11.5567907918117
 20
19.1865621535893
 30
0.0
 11
10.8692907918117
 21
19.1865621535893
 31
0.0
  0
ARC
  8
3
  6
CONTINUOUS
 62
3
 10
10.8692907918117
 20
18.9365621535893
 30
0.0
 40
0.25
 50
89.9999999999986
 51
180
  0
LINE
  8
3
  6
CONTINUOUS
 62
3
 10
10.6192907918117
 20
18.9365621535893
 30
0.0
 11
10.6192907918117
 21
14.1485621535894
 31
0.0
  0
ARC
  8
3
  6
CONTINUOUS
 62
3
 10
10.8692907918117
 20
14.1485621535894
 30
0.0
 40
0.25
 50
179.999999999999
 51
270
  0
LINE
  8
3
  6
CONTINUOUS
 62
3
 10
10.8692907918117
 20
13.8985621535894
 30
0.0
 11
11.5567907918117
 21
13.8985621535894
 31
0.0
  0
ARC
  8
3
  6
CONTINUOUS
 62
3
 10
11.5567907918117
 20
13.6675621535894
 30
0.0
 40
0.230999999999996
 50
54.3157103741026
 51
90.0000000000028
  0
ARC
  8
3
  6
CONTINUOUS
 62
3
 10
11.9831966284117
 20
14.2613121535893
 30
0.0
 40
0.5
 50
234.315710374099
 51
269.999999999999
  0
LINE
  8
3
  6
CONTINUOUS
 62
3
 10
11.9831966284117
 20
13.7613121535894
 30
0.0
 11
13.1303849552117
 21
13.7613121535894
 31
0.0
  0
ARC
  8
3
  6
CONTINUOUS
 62
3
 10
13.1303849552117
 20
14.2613121535893
 30
0.0
 40
0.499999999999997
 50
269.999999999998
 51
305.684289625898
  0
ARC
  8
3
  6
CONTINUOUS
 62
3
 10
13.5567907918117
 20
13.6675621535894
 30
0.0
 40
0.230999999999989
 50
89.9999999999967
 51
125.684289625898
  0
LINE
  8
3
  6
CONTINUOUS
 62
3
 10
13.5567907918117
 20
13.8985621535894
 30
0.0
 11
14.2442907918117
 21
13.8985621535894
 31
0.0
  0
ARC
  8
3
  6
CONTINUOUS
 62
3
 10
14.2442907918117
 20
14.1485621535894
 30
0.0
 40
0.249999999999998
 50
269.999999999997
 51
359.999999999997
  0
LINE
  8
3
  6
CONTINUOUS
 62
3
 10
14.4942907918117
 20
14.1485621535894
 30
0.0
 11
14.4942907918117
 21
18.9365621535893
 31
0.0
  0
ARC
  8
3
  6
CONTINUOUS
 62
3
 10
14.2442907918551
 20
18.936562153609
 30
0.0
 40
0.24999999995659
 50
359.999999995497
 51
67.5000000070734
  0
ARC
  8
3
  6
CONTINUOUS
 62
3
 10
14.3067907918067
 20
19.4175621535844
 30
0.0
 40
0.0747499999949692
 50
179.999999996142
 51
270.000000003859
  0
ARC
  8
3
  6
CONTINUOUS
 62
3
 10
14.3067907918117
 20
19.4175621535894
 30
0.0
 40
0.0747500000000016
 50
270
 51
90
  0
ARC
  8
3
  6
CONTINUOUS
 62
3
 10
14.3067907918067
 20
19.4175621535944
 30
0.0
 40
0.0747499999949683
 50
89.9999999961404
 51
180.000000003858
  0
ARC
  8
3
  6
CONTINUOUS
 62
3
 10
13.5567907918067
 20
19.4175621535844
 30
0.0
 40
0.0747499999949692
 50
179.999999996142
 51
270.000000003859
  0
ARC
  8
3
  6
CONTINUOUS
 62
3
 10
13.5567907918117
 20
19.4175621535894
 30
0.0
 40
0.0747500000000016
 50
270
 51
90
  0
ARC
  8
3
  6
CONTINUOUS
 62
3
 10
13.5567907918067
 20
19.4175621535944
 30
0.0
 40
0.0747499999949683
 50
89.9999999961404
 51
180.000000003858
  0
ARC
  8
3
  6
CONTINUOUS
 62
3
 10
11.5567907918067
 20
19.4175621535844
 30
0.0
 40
0.0747499999949692
 50
179.999999996142
 51
270.000000003859
  0
ARC
  8
3
  6
CONTINUOUS
 62
3
 10
11.5567907918117
 20
19.4175621535894
 30
0.0
 40
0.0747500000000016
 50
270
 51
90
  0
ARC
  8
3
  6
CONTINUOUS
 62
3
 10
11.5567907918067
 20
19.4175621535944
 30
0.0
 40
0.0747499999949683
 50
89.9999999961404
 51
180.000000003858
  0
ARC
  8
3
  6
CONTINUOUS
 62
3
 10
10.80679079181
 20
19.4175621535892
 30
0.0
 40
0.0747499999997808
 50
104.999999998713
 51
270.000000001287
  0
ARC
  8
3
  6
CONTINUOUS
 62
3
 10
10.8067907918117
 20
19.4175621535894
 30
0.0
 40
0.0747500000000016
 50
270
 51
90
  0
ARC
  8
3
  6
CONTINUOUS
 62
3
 10
10.8067907918033
 20
19.4175621536531
 30
0.0
 40
0.0747499999362775
 50
89.9999999935688
 51
105.00000000643
  0
LINE
  8
3
  6
CONTINUOUS
 62
3
 10
9.86929079181173
 20
24.2925621535894
 30
0.0
 11
10.0567907918117
 21
24.2925621535894
 31
0.0
  0
LINE
  8
3
  6
CONTINUOUS
 62
3
 10
10.0567907918117
 20
24.2925621535894
 30
0.0
 11
10.0567907918117
 21
24.0425621535894
 31
0.0
  0
LINE
  8
3
  6
CONTINUOUS
 62
3
 10
10.0567907918117
 20
24.0425621535894
 30
0.0
 11
10.4317907918117
 21
24.0425621535894
 31
0.0
  0
ARC
  8
3
  6
CONTINUOUS
 62
3
 10
9.99437548911173
 20
24.0511704602894
 30
0.0
 40
0.4375
 50
308.013288775399
 51
358.872568056999
  0
ARC
  8
3
  6
CONTINUOUS
 62
3
 10
10.5717294494117
 20
23.3125442662894
 30
0.0
 40
0.500000000000005
 50
128.013288775401
 51
182.344607182201
  0
ARC
  8
3
  6
CONTINUOUS
 62
3
 10
28.4014088474117
 20
24.0425621535889
 30
0.0
 40
18.3446180555543
 50
182.344607182198
 51
193.240506695898
  0
ARC
  8
3
  6
CONTINUOUS
 62
3
 10
10.7877960215117
 20
19.8981869538893
 30
0.0
 40
0.250000000000002
 50
193.240506695898
 51
272.263208399599
  0
ARC
  8
3
  6
CONTINUOUS
 62
3
 10
10.8067907918117
 20
19.4175621535895
 30
0.0
 40
0.230999999998356
 50
89.9999999999905
 51
92.2632083995905
  0
LINE
  8
3
  6
CONTINUOUS
 62
3
 10
10.8067907918117
 20
19.6485621535894
 30
0.0
 11
11.5567907918117
 21
19.6485621535894
 31
0.0
  0
ARC
  8
3
  6
CONTINUOUS
 62
3
 10
11.5567907918117
 20
19.4175621535893
 30
0.0
 40
0.231000000000004
 50
54.3157103741002
 51
90.0000000000006
  0
ARC
  8
3
  6
CONTINUOUS
 62
3
 10
11.9831966284117
 20
20.0113121535894
 30
0.0
 40
0.499999999999996
 50
234.315710374101
 51
270.000000000001
  0
LINE
  8
3
  6
CONTINUOUS
 62
3
 10
11.9831966284117
 20
19.5113121535894
 30
0.0
 11
13.1303849552117
 21
19.5113121535894
 31
0.0
  0
ARC
  8
3
  6
CONTINUOUS
 62
3
 10
13.1303849552117
 20
20.0113121535893
 30
0.0
 40
0.499999999999997
 50
269.999999999998
 51
305.684289625898
  0
ARC
  8
3
  6
CONTINUOUS
 62
3
 10
13.5567907918117
 20
19.4175621535894
 30
0.0
 40
0.230999999999998
 50
89.9999999999994
 51
125.6842896259
  0
LINE
  8
3
  6
CONTINUOUS
 62
3
 10
13.5567907918117
 20
19.6485621535894
 30
0.0
 11
14.3067907918117
 21
19.6485621535894
 31
0.0
  0
ARC
  8
3
  6
CONTINUOUS
 62
3
 10
14.3067907918119
 20
19.4175621535894
 30
0.0
 40
0.230999999998167
 50
87.7367916004528
 51
90.0000000000533
  0
ARC
  8
3
  6
CONTINUOUS
 62
3
 10
14.3257855621117
 20
19.8981869538894
 30
0.0
 40
0.249999999999938
 50
267.736791600397
 51
346.759493304097
  0
ARC
  8
3
  6
CONTINUOUS
 62
3
 10
-3.2878272637882
 20
24.0425621535899
 30
0.0
 40
18.3446180555544
 50
346.759493304097
 51
357.655392817797
  0
ARC
  8
3
  6
CONTINUOUS
 62
3
 10
14.5418521342117
 20
23.3125442662894
 30
0.0
 40
0.499999999999992
 50
357.655392817797
 51
51.9867112245986
  0
ARC
  8
3
  6
CONTINUOUS
 62
3
 10
15.1192060945117
 20
24.0511704602893
 30
0.0
 40
0.437500000000007
 50
181.127431942998
 51
231.986711224598
  0
LINE
  8
3
  6
CONTINUOUS
 62
3
 10
14.6817907918117
 20
24.0425621535894
 30
0.0
 11
15.0567907918117
 21
24.0425621535894
 31
0.0
  0
LINE
  8
3
  6
CONTINUOUS
 62
3
 10
15.0567907918117
 20
24.0425621535894
 30
0.0
 11
15.0567907918117
 21
24.2925621535894
 31
0.0
  0
LINE
  8
3
  6
CONTINUOUS
 62
3
 10
15.0567907918117
 20
24.2925621535894
 30
0.0
 11
15.2442907918117
 21
24.2925621535894
 31
0.0
  0
LINE
  8
3
  6
CONTINUOUS
 62
3
 10
15.2442907918117
 20
24.2925621535894
 30
0.0
 11
15.2442907918117
 21
24.0425621535894
 31
0.0
  0
ARC
  8
3
  6
CONTINUOUS
 62
3
 10
-3.28782726378822
 20
24.0425621535898
 30
0.0
 40
18.5321180555559
 50
346.216102632698
 51
359.999999999998
  0
ARC
  8
3
  6
CONTINUOUS
 62
3
 10
15.6817907918117
 20
19.3888296126893
 30
0.0
 40
0.999999999999828
 50
166.216102632699
 51
179.999999999999
  0
LINE
  8
3
  6
CONTINUOUS
 62
3
 10
14.6817907918117
 20
19.3888296126893
 30
0.0
 11
14.6817907918117
 21
13.6962946944894
 31
0.0
  0
ARC
  8
3
  6
CONTINUOUS
 62
3
 10
15.6817907918117
 20
13.6962946944893
 30
0.0
 40
0.99999999999989
 50
179.999999999998
 51
193.783897367298
  0
ARC
  8
3
  6
CONTINUOUS
 62
3
 10
-3.28782726378833
 20
9.04256215358992
 30
0.0
 40
18.5321180555559
 50
359.999999999997
 51
13.7838973672986
  0
LINE
  8
3
  6
CONTINUOUS
 62
3
 10
15.2442907918117
 20
9.04256215358935
 30
0.0
 11
15.2442907918117
 21
8.79256215358935
 31
0.0
  0
LINE
  8
3
  6
CONTINUOUS
 62
3
 10
15.2442907918117
 20
8.79256215358935
 30
0.0
 11
15.0567907918117
 21
8.79256215358935
 31
0.0
  0
LINE
  8
3
  6
CONTINUOUS
 62
3
 10
15.0567907918117
 20
8.79256215358935
 30
0.0
 11
15.0567907918117
 21
9.04256215358935
 31
0.0
  0
LINE
  8
3
  6
CONTINUOUS
 62
3
 10
15.0567907918117
 20
9.04256215358935
 30
0.0
 11
14.6817907918117
 21
9.04256215358935
 31
0.0
  0
ARC
  8
3
  6
CONTINUOUS
 62
3
 10
15.1192060945117
 20
9.03395384688934
 30
0.0
 40
0.437500000000001
 50
128.0132887754
 51
178.872568057
  0
ARC
  8
3
  6
CONTINUOUS
 62
3
 10
14.5418521342117
 20
9.77258004088936
 30
0.0
 40
0.500000000000005
 50
308.013288775398
 51
2.34460718219895
  0
ARC
  8
3
  6
CONTINUOUS
 62
3
 10
-3.28782726378828
 20
9.04256215358962
 30
0.0
 40
18.3446180555545
 50
2.34460718219867
 51
13.2405066958996
  0
ARC
  8
3
  6
CONTINUOUS
 62
3
 10
14.3257855621117
 20
13.1869373532894
 30
0.0
 40
0.250000000000001
 50
13.2405066958975
 51
92.2632083995982
  0
ARC
  8
3
  6
CONTINUOUS
 62
3
 10
14.3067907918118
 20
13.6675621535893
 30
0.0
 40
0.230999999998358
 50
269.99999999999
 51
272.26320839959
  0
LINE
  8
3
  6
CONTINUOUS
 62
3
 10
14.3067907918117
 20
13.4365621535894
 30
0.0
 11
13.5567907918117
 21
13.4365621535894
 31
0.0
  0
ARC
  8
3
  6
CONTINUOUS
 62
3
 10
13.5567907918117
 20
13.6675621535893
 30
0.0
 40
0.231
 50
234.315710374095
 51
269.999999999995
  0
ARC
  8
3
  6
CONTINUOUS
 62
3
 10
13.1303849552117
 20
13.0738121535893
 30
0.0
 40
0.500000000000001
 50
54.3157103740997
 51
89.9999999999998
  0
LINE
  8
3
  6
CONTINUOUS
 62
3
 10
13.1303849552117
 20
13.5738121535894
 30
0.0
 11
11.9831966284117
 21
13.5738121535894
 31
0.0
  0
ARC
  8
3
  6
CONTINUOUS
 62
3
 10
11.9831966284117
 20
13.0738121535894
 30
0.0
 40
0.500000000000003
 50
89.999999999999
 51
125.6842896259
  0
ARC
  8
3
  6
CONTINUOUS
 62
3
 10
11.5567907918117
 20
13.6675621535893
 30
0.0
 40
0.231
 50
270.000000000002
 51
305.684289625902
  0
LINE
  8
3
  6
CONTINUOUS
 62
3
 10
11.5567907918117
 20
13.4365621535894
 30
0.0
 11
10.8067907918117
 21
13.4365621535894
 31
0.0
  0
ARC
  8
3
  6
CONTINUOUS
 62
3
 10
10.8067907918119
 20
13.6675621535894
 30
0.0
 40
0.230999999998357
 50
267.736791600364
 51
269.999999999965
  0
ARC
  8
3
  6
CONTINUOUS
 62
3
 10
10.7877960215117
 20
13.1869373532894
 30
0.0
 40
0.249999999999942
 50
87.7367916003986
 51
166.759493304099
  0
ARC
  8
3
  6
CONTINUOUS
 62
3
 10
28.4014088474116
 20
9.04256215358914
 30
0.0
 40
18.3446180555541
 50
166.7594933041
 51
177.6553928178
  0
ARC
  8
3
  6
CONTINUOUS
 62
3
 10
10.5717294494117
 20
9.77258004088935
 30
0.0
 40
0.499999999999982
 50
177.655392817799
 51
231.986711224598
  0
ARC
  8
3
  6
CONTINUOUS
 62
3
 10
9.99437548911173
 20
9.03395384688936
 30
0.0
 40
0.437500000000001
 50
1.12743194299882
 51
51.9867112245988
  0
LINE
  8
3
  6
CONTINUOUS
 62
3
 10
10.4317907918117
 20
9.04256215358935
 30
0.0
 11
10.0567907918117
 21
9.04256215358935
 31
0.0
  0
LINE
  8
3
  6
CONTINUOUS
 62
3
 10
10.0567907918117
 20
9.04256215358935
 30
0.0
 11
10.0567907918117
 21
8.79256215358935
 31
0.0
  0
LINE
  8
3
  6
CONTINUOUS
 62
3
 10
10.0567907918117
 20
8.79256215358935
 30
0.0
 11
9.86929079181173
 21
8.79256215358935
 31
0.0
  0
LINE
  8
3
  6
CONTINUOUS
 62
3
 10
9.86929079181173
 20
8.79256215358935
 30
0.0
 11
9.86929079181173
 21
9.04256215358935
 31
0.0
  0
ARC
  8
3
  6
CONTINUOUS
 62
3
 10
28.4014088474117
 20
9.04256215358905
 30
0.0
 40
18.5321180555558
 50
166.2161026327
 51
180
  0
ARC
  8
3
  6
CONTINUOUS
 62
3
 10
9.43179079181174
 20
13.6962946944894
 30
0.0
 40
1.00000000000003
 50
346.216102632698
 51
359.999999999998
  0
LINE
  8
3
  6
CONTINUOUS
 62
3
 10
10.4317907918117
 20
13.6962946944894
 30
0.0
 11
10.4317907918117
 21
19.3888296126893
 31
0.0
  0
ARC
  8
3
  6
CONTINUOUS
 62
3
 10
9.43179079181175
 20
19.3888296126894
 30
0.0
 40
1.00000000000032
 50
1.03208999413491E-12
 51
13.783897367301
  0
ARC
  8
3
  6
CONTINUOUS
 62
3
 10
28.4014088474117
 20
24.042562153589
 30
0.0
 40
18.532118055556
 50
179.999999999999
 51
193.783897367299
  0
LINE
  8
3
  6
CONTINUOUS
 62
3
 10
9.86929079181173
 20
24.0425621535894
 30
0.0
 11
9.86929079181173
 21
24.2925621535894
 31
0.0
  0
ARC
  8
3
  6
CONTINUOUS
 62
3
 10
9.19455159090398
 20
31.0656354655257
 30
0.0
 40
0.0747499999961389
 50
344.999999996141
 51
90.0000000038585
  0
ARC
  8
3
  6
CONTINUOUS
 62
3
 10
9.19455159089895
 20
31.0656354655218
 30
0.0
 40
0.0747500000000016
 50
89.9999999999985
 51
270
  0
ARC
  8
3
  6
CONTINUOUS
 62
3
 10
9.19455159090398
 20
31.0656354655152
 30
0.0
 40
0.074749999993441
 50
269.999999996141
 51
345.000000003858
  0
ARC
  8
3
  6
CONTINUOUS
 62
3
 10
11.6629064321053
 20
30.9777607552015
 30
0.0
 40
0.187499999879678
 50
254.699811122841
 51
269.999999967493
  0
LINE
  8
3
  6
CONTINUOUS
 62
3
 10
11.6629064319989
 20
30.7902607553218
 30
0.0
 11
13.1496990500989
 21
30.7902607553218
 31
0.0
  0
ARC
  8
3
  6
CONTINUOUS
 62
3
 10
13.149699050099
 20
31.2902607553218
 30
0.0
 40
0.500000000000006
 50
269.999999999998
 51
1.76154112029905
  0
ARC
  8
3
  6
CONTINUOUS
 62
3
 10
6.0368917751989
 20
31.0715107553219
 30
0.0
 40
7.61617024061029
 50
1.7615411202996
 51
23.6852157403985
  0
ARC
  8
3
  6
CONTINUOUS
 62
3
 10
12.8398174796989
 20
34.0556929552218
 30
0.0
 40
0.187499999999999
 50
23.6852157404017
 51
170.550733115503
  0
ARC
  8
3
  6
CONTINUOUS
 62
3
 10
4.67093279699899
 20
35.415260755322
 30
0.0
 40
8.09375000000004
 50
327.598489321799
 51
350.550733115498
  0
ARC
  8
3
  6
CONTINUOUS
 62
3
 10
11.6629064319891
 20
30.9777607553396
 30
0.0
 40
0.187499999982225
 50
147.598489324784
 51
254.69981116821
  0
ARC
  8
3
  6
CONTINUOUS
 62
3
 10
11.4834327969989
 20
27.9152607553218
 30
0.0
 40
0.0747500000000016
 50
270
 51
90
  0
ARC
  8
3
  6
CONTINUOUS
 62
3
 10
11.4834327969989
 20
27.9152607553218
 30
0.0
 40
0.0747500000000016
 50
89.9999999999985
 51
270
  0
ARC
  8
3
  6
CONTINUOUS
 62
3
 10
11.6629064319438
 20
24.8527607552937
 30
0.0
 40
0.187499999938456
 50
181.801133000133
 51
212.401510679973
  0
ARC
  8
3
  6
CONTINUOUS
 62
3
 10
4.67093279699881
 20
20.415260755322
 30
0.0
 40
8.09375
 50
9.44926688449864
 51
32.4015106781986
  0
ARC
  8
3
  6
CONTINUOUS
 62
3
 10
12.8398174796989
 20
21.7748285554218
 30
0.0
 40
0.187500000000004
 50
189.449266884499
 51
336.314784259599
  0
ARC
  8
3
  6
CONTINUOUS
 62
3
 10
6.03689177519906
 20
24.7590107553221
 30
0.0
 40
7.61617024061024
 50
336.314784259597
 51
358.238458879697
  0
ARC
  8
3
  6
CONTINUOUS
 62
3
 10
13.1496990500989
 20
24.5402607553218
 30
0.0
 40
0.500000000000001
 50
358.238458879698
 51
89.9999999999987
  0
LINE
  8
3
  6
CONTINUOUS
 62
3
 10
13.1496990500989
 20
25.0402607553218
 30
0.0
 11
11.6629064319989
 21
25.0402607553218
 31
0.0
  0
ARC
  8
3
  6
CONTINUOUS
 62
3
 10
11.6629064319957
 20
24.8527607553304
 30
0.0
 40
0.187499999991421
 50
89.9999999990122
 51
181.801133010832
  0
ARC
  8
3
  6
CONTINUOUS
 62
3
 10
9.19455159089727
 20
24.7648860451208
 30
0.0
 40
0.0747499999990301
 50
149.999999998716
 51
270.000000001287
  0
ARC
  8
3
  6
CONTINUOUS
 62
3
 10
9.19455159089895
 20
24.7648860451218
 30
0.0
 40
0.0747499999999981
 50
270
 51
90
  0
ARC
  8
3
  6
CONTINUOUS
 62
3
 10
9.19455159089056
 20
24.7648860451363
 30
0.0
 40
0.0747499999854669
 50
89.9999999935683
 51
150.000000006432
  0
ARC
  8
3
  6
CONTINUOUS
 62
3
 10
5.49106400309895
 20
25.9682221071218
 30
0.0
 40
0.0747500000000016
 50
89.9999999999992
 51
270.000000000001
  0
ARC
  8
3
  6
CONTINUOUS
 62
3
 10
5.49106400309894
 20
25.9682221071218
 30
0.0
 40
0.0747500000000016
 50
270
 51
90
  0
ARC
  8
3
  6
CONTINUOUS
 62
3
 10
8.1709327969288
 20
27.9152607552813
 30
0.0
 40
3.12499999995951
 50
149.999999998714
 51
270.000000001286
  0
ARC
  8
3
  6
CONTINUOUS
 62
3
 10
8.17093279699896
 20
27.9152607553218
 30
0.0
 40
3.125
 50
270
 51
90
  0
ARC
  8
3
  6
CONTINUOUS
 62
3
 10
8.17093279664818
 20
27.9152607559293
 30
0.0
 40
3.12499999939248
 50
89.9999999935684
 51
150.000000006431
  0
ARC
  8
3
  6
CONTINUOUS
 62
3
 10
5.49106400310397
 20
29.8622994035268
 30
0.0
 40
0.0747499999949675
 50
359.999999996141
 51
90.0000000038585
  0
ARC
  8
3
  6
CONTINUOUS
 62
3
 10
5.49106400309895
 20
29.8622994035218
 30
0.0
 40
0.0747500000000016
 50
89.9999999999992
 51
270.000000000001
  0
ARC
  8
3
  6
CONTINUOUS
 62
3
 10
5.49106400310398
 20
29.8622994035168
 30
0.0
 40
0.0747499999949675
 50
269.999999996141
 51
3.85850263403619E-9
  0
LINE
  8
3
  6
CONTINUOUS
 62
3
 10
5.76468279699895
 20
20.1652607553218
 30
0.0
 11
5.57718279699895
 21
20.1652607553218
 31
0.0
  0
LINE
  8
3
  6
CONTINUOUS
 62
3
 10
5.57718279699895
 20
20.1652607553218
 30
0.0
 11
5.57718279699895
 21
20.4152607553218
 31
0.0
  0
ARC
  8
3
  6
CONTINUOUS
 62
3
 10
20.670932796999
 20
20.4152607553216
 30
0.0
 40
15.0937500000004
 50
164.181977778699
 51
179.999999999999
  0
ARC
  8
3
  6
CONTINUOUS
 62
3
 10
5.18661607829895
 20
24.8021417450218
 30
0.0
 40
0.999999999999992
 50
344.181977778698
 51
46.2101366277986
  0
ARC
  8
3
  6
CONTINUOUS
 62
3
 10
8.17093279699918
 20
27.9152607553218
 30
0.0
 40
3.31249999999949
 50
222.877422464796
 51
226.210136627796
  0
ARC
  8
3
  6
CONTINUOUS
 62
3
 10
5.46869193379895
 20
25.4061671805218
 30
0.0
 40
0.37499999999999
 50
42.8774224648008
 51
87.7205985115008
  0
ARC
  8
3
  6
CONTINUOUS
 62
3
 10
5.49106400309894
 20
25.9682221071218
 30
0.0
 40
0.187499999999998
 50
164.279401488499
 51
267.720598511499
  0
ARC
  8
3
  6
CONTINUOUS
 62
3
 10
4.94960465299895
 20
26.1206295288218
 30
0.0
 40
0.375000000000007
 50
344.2794014885
 51
29.1225775352011
  0
ARC
  8
3
  6
CONTINUOUS
 62
3
 10
8.17093279699887
 20
27.9152607553218
 30
0.0
 40
3.31249999999999
 50
150.8774224648
 51
209.1225775352
  0
ARC
  8
3
  6
CONTINUOUS
 62
3
 10
4.94960465299894
 20
29.7098919818218
 30
0.0
 40
0.374999999999999
 50
330.8774224648
 51
15.7205985115008
  0
ARC
  8
3
  6
CONTINUOUS
 62
3
 10
5.49106400309894
 20
29.8622994035218
 30
0.0
 40
0.1875
 50
92.2794014885001
 51
195.7205985115
  0
ARC
  8
3
  6
CONTINUOUS
 62
3
 10
5.46869193379896
 20
30.4243543301218
 30
0.0
 40
0.375000000000001
 50
272.279401488498
 51
317.122577535198
  0
ARC
  8
3
  6
CONTINUOUS
 62
3
 10
8.17093279699901
 20
27.9152607553216
 30
0.0
 40
3.31249999999889
 50
133.789863372198
 51
137.122577535198
  0
ARC
  8
3
  6
CONTINUOUS
 62
3
 10
5.18661607829897
 20
31.0283797656218
 30
0.0
 40
1.00000000000001
 50
313.789863372198
 51
15.8180222212988
  0
ARC
  8
3
  6
CONTINUOUS
 62
3
 10
20.6709327969989
 20
35.4152607553215
 30
0.0
 40
15.0937500000003
 50
179.999999999999
 51
195.818022221299
  0
LINE
  8
3
  6
CONTINUOUS
 62
3
 10
5.57718279699895
 20
35.4152607553218
 30
0.0
 11
5.57718279699895
 21
35.6652607553218
 31
0.0
  0
LINE
  8
3
  6
CONTINUOUS
 62
3
 10
5.57718279699895
 20
35.6652607553218
 30
0.0
 11
5.76468279699895
 21
35.6652607553218
 31
0.0
  0
LINE
  8
3
  6
CONTINUOUS
 62
3
 10
5.76468279699895
 20
35.6652607553218
 30
0.0
 11
5.76468279699895
 21
35.4152607553218
 31
0.0
  0
LINE
  8
3
  6
CONTINUOUS
 62
3
 10
5.76468279699895
 20
35.4152607553218
 30
0.0
 11
6.13968279699895
 21
35.4152607553218
 31
0.0
  0
LINE
  8
3
  6
CONTINUOUS
 62
3
 10
6.13968279699895
 20
35.4152607553218
 30
0.0
 11
6.13968279699895
 21
35.3579872688218
 31
0.0
  0
ARC
  8
3
  6
CONTINUOUS
 62
3
 10
5.70218279699895
 20
35.3579872688218
 30
0.0
 40
0.437499999999999
 50
308.546611985699
 51
359.999999999999
  0
ARC
  8
3
  6
CONTINUOUS
 62
3
 10
6.28638696059895
 20
34.6247671482218
 30
0.0
 40
0.500000000000025
 50
128.546611985699
 51
183.145489384199
  0
ARC
  8
3
  6
CONTINUOUS
 62
3
 10
20.6709327969989
 20
35.4152607553215
 30
0.0
 40
14.9062500000001
 50
183.145489384198
 51
193.756304434999
  0
ARC
  8
3
  6
CONTINUOUS
 62
3
 10
7.16357091509895
 20
32.1084550376218
 30
0.0
 40
1
 50
193.756304434998
 51
283.508591084498
  0
ARC
  8
3
  6
CONTINUOUS
 62
3
 10
8.17093279699886
 20
27.9152607553218
 30
0.0
 40
3.31249999999999
 50
78.8774224647996
 51
103.5085910845
  0
ARC
  8
3
  6
CONTINUOUS
 62
3
 10
8.88228337829895
 20
31.5334974253218
 30
0.0
 40
0.374999999999992
 50
258.877422464799
 51
303.720598511499
  0
ARC
  8
3
  6
CONTINUOUS
 62
3
 10
9.19455159089894
 20
31.0656354655218
 30
0.0
 40
0.187500000000003
 50
20.2794014884995
 51
123.720598511499
  0
ARC
  8
3
  6
CONTINUOUS
 62
3
 10
9.72218424169896
 20
31.2605970920218
 30
0.0
 40
0.37500000000002
 50
200.279401488497
 51
245.122577535197
  0
ARC
  8
3
  6
CONTINUOUS
 62
3
 10
8.17093279699893
 20
27.9152607553219
 30
0.0
 40
3.31250000000019
 50
58.5184133569998
 51
65.1225775351998
  0
ARC
  8
3
  6
CONTINUOUS
 62
3
 10
10.423026046399
 20
31.5929954175218
 30
0.0
 40
0.999999999999998
 50
238.518413356997
 51
326.395966437197
  0
ARC
  8
3
  6
CONTINUOUS
 62
3
 10
4.67093279699906
 20
35.4152607553221
 30
0.0
 40
7.90624999999999
 50
326.395966437197
 51
353.924055026997
  0
ARC
  8
3
  6
CONTINUOUS
 62
3
 10
12.0355779679989
 20
34.6313343762218
 30
0.0
 40
0.500000000000016
 50
353.924055026998
 51
49.8809076626991
  0
ARC
  8
3
  6
CONTINUOUS
 62
3
 10
12.6396827969989
 20
35.3482469270218
 30
0.0
 40
0.437499999999997
 50
179.999999999999
 51
229.880907662699
  0
LINE
  8
3
  6
CONTINUOUS
 62
3
 10
12.2021827969989
 20
35.3482469270218
 30
0.0
 11
12.2021827969989
 21
35.4152607553218
 31
0.0
  0
LINE
  8
3
  6
CONTINUOUS
 62
3
 10
12.2021827969989
 20
35.4152607553218
 30
0.0
 11
12.5771827969989
 21
35.4152607553218
 31
0.0
  0
LINE
  8
3
  6
CONTINUOUS
 62
3
 10
12.5771827969989
 20
35.4152607553218
 30
0.0
 11
12.5771827969989
 21
35.6652607553218
 31
0.0
  0
LINE
  8
3
  6
CONTINUOUS
 62
3
 10
12.5771827969989
 20
35.6652607553218
 30
0.0
 11
12.7646827969989
 21
35.6652607553218
 31
0.0
  0
LINE
  8
3
  6
CONTINUOUS
 62
3
 10
12.7646827969989
 20
35.6652607553218
 30
0.0
 11
12.7646827969989
 21
35.4152607553218
 31
0.0
  0
ARC
  8
3
  6
CONTINUOUS
 62
3
 10
4.67093279699898
 20
35.415260755322
 30
0.0
 40
8.09375000000071
 50
358.335884965498
 51
359.999999999998
  0
ARC
  8
3
  6
CONTINUOUS
 62
3
 10
13.261058334499
 20
35.1656965093218
 30
0.0
 40
0.500000000000038
 50
178.335884965499
 51
209.541732054599
  0
ARC
  8
3
  6
CONTINUOUS
 62
3
 10
6.03689177519891
 20
31.0715107553221
 30
0.0
 40
7.80367024061038
 50
359.999999999997
 51
29.5417320545986
  0
LINE
  8
3
  6
CONTINUOUS
 62
3
 10
13.8405620157989
 20
31.0715107553218
 30
0.0
 11
13.8405620157989
 21
30.6027607553218
 31
0.0
  0
LINE
  8
3
  6
CONTINUOUS
 62
3
 10
13.8405620157989
 20
30.6027607553218
 30
0.0
 11
11.4751899113989
 21
30.6027607553218
 31
0.0
  0
ARC
  8
3
  6
CONTINUOUS
 62
3
 10
11.4751899113989
 20
30.1027607553218
 30
0.0
 40
0.500000000000003
 50
89.9999999999998
 51
165.365565596
  0
ARC
  8
3
  6
CONTINUOUS
 62
3
 10
11.9589686632989
 20
29.9764353054218
 30
0.0
 40
0.999999999999992
 50
165.365565595998
 51
208.551828195298
  0
ARC
  8
3
  6
CONTINUOUS
 62
3
 10
8.17093279699892
 20
27.9152607553219
 30
0.0
 40
3.31250000000002
 50
6.87742246479874
 51
28.5518281952987
  0
ARC
  8
3
  6
CONTINUOUS
 62
3
 10
11.8318997780989
 20
28.3568227703218
 30
0.0
 40
0.374999999999991
 50
186.877422464798
 51
231.720598511497
  0
ARC
  8
3
  6
CONTINUOUS
 62
3
 10
11.4834327969989
 20
27.9152607553218
 30
0.0
 40
0.1875
 50
308.2794014885
 51
51.7205985115003
  0
ARC
  8
3
  6
CONTINUOUS
 62
3
 10
11.8318997780989
 20
27.4736987403218
 30
0.0
 40
0.375000000000015
 50
128.2794014885
 51
173.1225775352
  0
ARC
  8
3
  6
CONTINUOUS
 62
3
 10
8.17093279699897
 20
27.9152607553219
 30
0.0
 40
3.31250000000005
 50
331.448171804698
 51
353.122577535198
  0
ARC
  8
3
  6
CONTINUOUS
 62
3
 10
11.9589686632989
 20
25.8540862052218
 30
0.0
 40
0.999999999999985
 50
151.4481718047
 51
194.634434404
  0
ARC
  8
3
  6
CONTINUOUS
 62
3
 10
11.4751899113989
 20
25.7277607553218
 30
0.0
 40
0.500000000000001
 50
194.634434403999
 51
269.999999999999
  0
LINE
  8
3
  6
CONTINUOUS
 62
3
 10
11.4751899113989
 20
25.2277607553218
 30
0.0
 11
13.8405620157989
 21
25.2277607553218
 31
0.0
  0
LINE
  8
3
  6
CONTINUOUS
 62
3
 10
13.8405620157989
 20
25.2277607553218
 30
0.0
 11
13.8405620157989
 21
24.7590107553218
 31
0.0
  0
ARC
  8
3
  6
CONTINUOUS
 62
3
 10
6.03689177519901
 20
24.759010755322
 30
0.0
 40
7.80367024061044
 50
330.458267945398
 51
359.999999999998
  0
ARC
  8
3
  6
CONTINUOUS
 62
3
 10
13.2610583344989
 20
20.6648250013218
 30
0.0
 40
0.499999999999952
 50
150.4582679454
 51
181.6641150345
  0
ARC
  8
3
  6
CONTINUOUS
 62
3
 10
4.67093279699928
 20
20.4152607553218
 30
0.0
 40
8.0937500000007
 50
5.173370974068E-14
 51
1.66411503450007
  0
LINE
  8
3
  6
CONTINUOUS
 62
3
 10
12.7646827969989
 20
20.4152607553218
 30
0.0
 11
12.7646827969989
 21
20.1652607553218
 31
0.0
  0
LINE
  8
3
  6
CONTINUOUS
 62
3
 10
12.7646827969989
 20
20.1652607553218
 30
0.0
 11
12.5771827969989
 21
20.1652607553218
 31
0.0
  0
LINE
  8
3
  6
CONTINUOUS
 62
3
 10
12.5771827969989
 20
20.1652607553218
 30
0.0
 11
12.5771827969989
 21
20.4152607553218
 31
0.0
  0
LINE
  8
3
  6
CONTINUOUS
 62
3
 10
12.5771827969989
 20
20.4152607553218
 30
0.0
 11
12.2021827969989
 21
20.4152607553218
 31
0.0
  0
LINE
  8
3
  6
CONTINUOUS
 62
3
 10
12.2021827969989
 20
20.4152607553218
 30
0.0
 11
12.2021827969989
 21
20.4822745836218
 31
0.0
  0
ARC
  8
3
  6
CONTINUOUS
 62
3
 10
12.6396827969989
 20
20.4822745836218
 30
0.0
 40
0.437500000000001
 50
130.1190923373
 51
180
  0
ARC
  8
3
  6
CONTINUOUS
 62
3
 10
12.035577967999
 20
21.1991871344218
 30
0.0
 40
0.500000000000006
 50
310.119092337298
 51
6.07594497299946
  0
ARC
  8
3
  6
CONTINUOUS
 62
3
 10
4.67093279699886
 20
20.4152607553219
 30
0.0
 40
7.90625000000017
 50
6.07594497299963
 51
33.6040335627986
  0
ARC
  8
3
  6
CONTINUOUS
 62
3
 10
10.4230260463989
 20
24.2375260931218
 30
0.0
 40
0.999999999999994
 50
33.6040335627987
 51
121.481586643
  0
ARC
  8
3
  6
CONTINUOUS
 62
3
 10
8.17093279699902
 20
27.9152607553218
 30
0.0
 40
3.3125000000003
 50
294.877422464799
 51
301.481586642999
  0
ARC
  8
3
  6
CONTINUOUS
 62
3
 10
9.72218424169893
 20
24.5699244186218
 30
0.0
 40
0.374999999999983
 50
114.877422464799
 51
159.720598511499
  0
ARC
  8
3
  6
CONTINUOUS
 62
3
 10
9.19455159089895
 20
24.7648860451218
 30
0.0
 40
0.187500000000003
 50
236.279401488498
 51
339.720598511498
  0
ARC
  8
3
  6
CONTINUOUS
 62
3
 10
8.88228337829893
 20
24.2970240853218
 30
0.0
 40
0.375000000000019
 50
56.2794014884981
 51
101.122577535198
  0
ARC
  8
3
  6
CONTINUOUS
 62
3
 10
8.170932796999
 20
27.9152607553218
 30
0.0
 40
3.31250000000004
 50
256.491408915499
 51
281.122577535199
  0
ARC
  8
3
  6
CONTINUOUS
 62
3
 10
7.16357091509893
 20
23.7220664730218
 30
0.0
 40
0.999999999999996
 50
76.4914089154985
 51
166.243695565
  0
ARC
  8
3
  6
CONTINUOUS
 62
3
 10
20.6709327969989
 20
20.4152607553217
 30
0.0
 40
14.9062500000004
 50
166.243695565
 51
176.8545106158
  0
ARC
  8
3
  6
CONTINUOUS
 62
3
 10
6.28638696059894
 20
21.2057543624218
 30
0.0
 40
0.499999999999999
 50
176.854510615798
 51
231.453388014297
  0
ARC
  8
3
  6
CONTINUOUS
 62
3
 10
5.70218279699895
 20
20.4725342418218
 30
0.0
 40
0.437499999999989
 50
7.13289083485091E-13
 51
51.4533880143007
  0
LINE
  8
3
  6
CONTINUOUS
 62
3
 10
6.13968279699895
 20
20.4725342418218
 30
0.0
 11
6.13968279699895
 21
20.4152607553218
 31
0.0
  0
LINE
  8
3
  6
CONTINUOUS
 62
3
 10
6.13968279699895
 20
20.4152607553218
 30
0.0
 11
5.76468279699895
 21
20.4152607553218
 31
0.0
  0
LINE
  8
3
  6
CONTINUOUS
 62
3
 10
5.76468279699895
 20
20.4152607553218
 30
0.0
 11
5.76468279699895
 21
20.1652607553218
 31
0.0
  0
ARC
  8
3
  6
CONTINUOUS
 62
3
 10
2.69485055007276
 20
16.3945082868244
 30
0.0
 40
0.074749999936271
 50
254.999999993569
 51
270.000000006431
  0
ARC
  8
3
  6
CONTINUOUS
 62
3
 10
2.69485055008115
 20
16.3945082868881
 30
0.0
 40
0.0747500000000016
 50
269.999999999999
 51
90.0000000000008
  0
ARC
  8
3
  6
CONTINUOUS
 62
3
 10
2.69485055007947
 20
16.3945082868883
 30
0.0
 40
0.0747499999997808
 50
89.9999999987135
 51
255.000000001286
  0
ARC
  8
3
  6
CONTINUOUS
 62
3
 10
2.51537691509131
 20
13.3320082868993
 30
0.0
 40
0.187499999988708
 50
358.198866987333
 51
90.0000000031043
  0
LINE
  8
3
  6
CONTINUOUS
 62
3
 10
2.51537691508114
 20
13.519508286888
 30
0.0
 11
1.02858429698115
 21
13.519508286888
 31
0.0
  0
ARC
  8
3
  6
CONTINUOUS
 62
3
 10
1.02858429698113
 20
13.019508286888
 30
0.0
 40
0.500000000000004
 50
89.9999999999987
 51
181.761541120299
  0
ARC
  8
3
  6
CONTINUOUS
 62
3
 10
8.14139157188116
 20
13.2382582868878
 30
0.0
 40
7.61617024061028
 50
181.761541120298
 51
203.685215740397
  0
ARC
  8
3
  6
CONTINUOUS
 62
3
 10
1.33846586738116
 20
10.254076086988
 30
0.0
 40
0.1875
 50
203.685215740398
 51
350.550733115499
  0
ARC
  8
3
  6
CONTINUOUS
 62
3
 10
9.50735055008111
 20
8.89450828688785
 30
0.0
 40
8.09375000000002
 50
147.5984893218
 51
170.550733115499
  0
ARC
  8
3
  6
CONTINUOUS
 62
3
 10
2.51537691514409
 20
13.3320082868657
 30
0.0
 40
0.1874999999349
 50
327.598489317251
 51
358.198866997091
  0
ARC
  8
3
  6
CONTINUOUS
 62
3
 10
4.98373175618617
 20
13.2441335766946
 30
0.0
 40
0.0747499999934391
 50
14.9999999961401
 51
90.0000000038584
  0
ARC
  8
3
  6
CONTINUOUS
 62
3
 10
4.98373175618115
 20
13.244133576688
 30
0.0
 40
0.0747499999999999
 50
90
 51
270
  0
ARC
  8
3
  6
CONTINUOUS
 62
3
 10
4.98373175618617
 20
13.2441335766841
 30
0.0
 40
0.0747499999961372
 50
269.999999996141
 51
15.0000000038573
  0
ARC
  8
3
  6
CONTINUOUS
 62
3
 10
8.68721934398115
 20
14.447469638688
 30
0.0
 40
0.0747500000000016
 50
90
 51
270
  0
ARC
  8
3
  6
CONTINUOUS
 62
3
 10
8.68721934398114
 20
14.447469638688
 30
0.0
 40
0.0747500000000016
 50
269.999999999999
 51
90.0000000000008
  0
ARC
  8
3
  6
CONTINUOUS
 62
3
 10
8.68721934397947
 20
18.3415469350867
 30
0.0
 40
0.0747499999987141
 50
164.999999998713
 51
270.000000001286
  0
ARC
  8
3
  6
CONTINUOUS
 62
3
 10
8.68721934398114
 20
18.341546935088
 30
0.0
 40
0.0747500000000016
 50
269.999999999999
 51
90.0000000000008
  0
ARC
  8
3
  6
CONTINUOUS
 62
3
 10
8.68721934397276
 20
18.3415469350989
 30
0.0
 40
0.0747499999890673
 50
89.9999999935686
 51
165.000000006431
  0
ARC
  8
3
  6
CONTINUOUS
 62
3
 10
6.00735055001099
 20
16.3945082868788
 30
0.0
 40
3.12499999999076
 50
104.999999998713
 51
270.000000001286
  0
ARC
  8
3
  6
CONTINUOUS
 62
3
 10
6.00735055008118
 20
16.394508286888
 30
0.0
 40
3.125
 50
269.999999999999
 51
90.0000000000008
  0
ARC
  8
3
  6
CONTINUOUS
 62
3
 10
6.00735054973039
 20
16.3945082895523
 30
0.0
 40
3.12499999733567
 50
89.9999999935687
 51
105.000000006431
  0
ARC
  8
3
  6
CONTINUOUS
 62
3
 10
4.98373175617947
 20
19.544882997087
 30
0.0
 40
0.0747499999990328
 50
149.999999998713
 51
270.000000001286
  0
ARC
  8
3
  6
CONTINUOUS
 62
3
 10
4.98373175618114
 20
19.544882997088
 30
0.0
 40
0.0747500000000016
 50
269.999999999999
 51
90.0000000000008
  0
ARC
  8
3
  6
CONTINUOUS
 62
3
 10
4.98373175617276
 20
19.5448829971025
 30
0.0
 40
0.0747499999854692
 50
89.9999999935686
 51
150.000000006431
  0
ARC
  8
3
  6
CONTINUOUS
 62
3
 10
9.50735054944532
 20
23.8945082885511
 30
0.0
 40
8.09374999964574
 50
189.449266896851
 51
200.925388793701
  0
ARC
  8
3
  6
CONTINUOUS
 62
3
 10
1.33846586738115
 20
22.534940486788
 30
0.0
 40
0.187500000000004
 50
9.44926688449959
 51
156.3147842596
  0
ARC
  8
3
  6
CONTINUOUS
 62
3
 10
8.14139157188107
 20
19.5507582868879
 30
0.0
 40
7.61617024061024
 50
156.314784259599
 51
178.238458879699
  0
ARC
  8
3
  6
CONTINUOUS
 62
3
 10
1.02858429698115
 20
19.769508286888
 30
0.0
 40
0.500000000000004
 50
178.238458879698
 51
269.999999999998
  0
LINE
  8
3
  6
CONTINUOUS
 62
3
 10
1.02858429698115
 20
19.2695082868881
 30
0.0
 11
2.51537691508114
 21
19.2695082868881
 31
0.0
  0
ARC
  8
3
  6
CONTINUOUS
 62
3
 10
2.51537691508115
 20
19.457008286888
 30
0.0
 40
0.187499999999997
 50
269.999999999998
 51
32.4015106781993
  0
ARC
  8
3
  6
CONTINUOUS
 62
3
 10
9.50735055103541
 20
23.8945082853845
 30
0.0
 40
8.09374999999999
 50
200.925388768743
 51
212.401510665593
  0
LINE
  8
3
  6
CONTINUOUS
 62
3
 10
8.03860055008115
 20
8.89450828688805
 30
0.0
 11
8.03860055008115
 21
8.95178177338805
 31
0.0
  0
ARC
  8
3
  6
CONTINUOUS
 62
3
 10
8.47610055008114
 20
8.95178177338805
 30
0.0
 40
0.437499999999999
 50
128.5466119857
 51
180
  0
ARC
  8
3
  6
CONTINUOUS
 62
3
 10
7.89189638648115
 20
9.68500189398805
 30
0.0
 40
0.500000000000013
 50
308.546611985698
 51
3.14548938419888
  0
ARC
  8
3
  6
CONTINUOUS
 62
3
 10
-6.49264944991882
 20
8.89450828688815
 30
0.0
 40
14.9062500000001
 50
3.14548938419943
 51
13.7563044349996
  0
ARC
  8
3
  6
CONTINUOUS
 62
3
 10
7.01471243198114
 20
12.2013140045881
 30
0.0
 40
1
 50
13.7563044349995
 51
103.5085910845
  0
ARC
  8
3
  6
CONTINUOUS
 62
3
 10
6.00735055008122
 20
16.3945082868881
 30
0.0
 40
3.31249999999998
 50
258.877422464799
 51
283.508591084499
  0
ARC
  8
3
  6
CONTINUOUS
 62
3
 10
5.29599996878115
 20
12.7762716168881
 30
0.0
 40
0.374999999999987
 50
78.8774224648001
 51
123.7205985115
  0
ARC
  8
3
  6
CONTINUOUS
 62
3
 10
4.98373175618114
 20
13.244133576688
 30
0.0
 40
0.187500000000003
 50
200.2794014885
 51
303.7205985115
  0
ARC
  8
3
  6
CONTINUOUS
 62
3
 10
4.45609910538115
 20
13.0491719501881
 30
0.0
 40
0.375000000000014
 50
20.2794014884995
 51
65.1225775351995
  0
ARC
  8
3
  6
CONTINUOUS
 62
3
 10
6.00735055008117
 20
16.394508286888
 30
0.0
 40
3.31250000000019
 50
238.518413356999
 51
245.122577535199
  0
ARC
  8
3
  6
CONTINUOUS
 62
3
 10
3.75525730068113
 20
12.7167736246881
 30
0.0
 40
1
 50
58.5184133569985
 51
146.395966437199
  0
ARC
  8
3
  6
CONTINUOUS
 62
3
 10
9.5073505500811
 20
8.89450828688791
 30
0.0
 40
7.90625
 50
146.395966437199
 51
173.924055026999
  0
ARC
  8
3
  6
CONTINUOUS
 62
3
 10
2.14270537908115
 20
9.67843466598803
 30
0.0
 40
0.500000000000011
 50
173.924055026998
 51
229.880907662698
  0
ARC
  8
3
  6
CONTINUOUS
 62
3
 10
1.53860055008115
 20
8.96152211518805
 30
0.0
 40
0.437499999999997
 50
359.999999999997
 51
49.8809076626986
  0
LINE
  8
3
  6
CONTINUOUS
 62
3
 10
1.97610055008114
 20
8.96152211518805
 30
0.0
 11
1.97610055008114
 21
8.89450828688805
 31
0.0
  0
LINE
  8
3
  6
CONTINUOUS
 62
3
 10
1.97610055008114
 20
8.89450828688805
 30
0.0
 11
1.60110055008114
 21
8.89450828688805
 31
0.0
  0
LINE
  8
3
  6
CONTINUOUS
 62
3
 10
1.60110055008114
 20
8.89450828688805
 30
0.0
 11
1.60110055008114
 21
8.64450828688805
 31
0.0
  0
LINE
  8
3
  6
CONTINUOUS
 62
3
 10
1.60110055008114
 20
8.64450828688805
 30
0.0
 11
1.41360055008114
 21
8.64450828688805
 31
0.0
  0
LINE
  8
3
  6
CONTINUOUS
 62
3
 10
1.41360055008114
 20
8.64450828688805
 30
0.0
 11
1.41360055008114
 21
8.89450828688805
 31
0.0
  0
ARC
  8
3
  6
CONTINUOUS
 62
3
 10
9.50735055008124
 20
8.89450828688782
 30
0.0
 40
8.09375000000083
 50
178.335884965499
 51
179.999999999999
  0
ARC
  8
3
  6
CONTINUOUS
 62
3
 10
0.917225012581143
 20
9.14407253288807
 30
0.0
 40
0.500000000000033
 50
358.335884965498
 51
29.5417320545989
  0
ARC
  8
3
  6
CONTINUOUS
 62
3
 10
8.14139157188116
 20
13.2382582868879
 30
0.0
 40
7.8036702406104
 50
179.999999999998
 51
209.541732054598
  0
LINE
  8
3
  6
CONTINUOUS
 62
3
 10
0.337721331281145
 20
13.238258286888
 30
0.0
 11
0.337721331281145
 21
13.707008286888
 31
0.0
  0
LINE
  8
3
  6
CONTINUOUS
 62
3
 10
0.337721331281145
 20
13.707008286888
 30
0.0
 11
2.70309343568115
 21
13.707008286888
 31
0.0
  0
ARC
  8
3
  6
CONTINUOUS
 62
3
 10
2.70309343568116
 20
14.207008286888
 30
0.0
 40
0.499999999999999
 50
269.999999999999
 51
345.365565595999
  0
ARC
  8
3
  6
CONTINUOUS
 62
3
 10
2.21931468378115
 20
14.3333337367881
 30
0.0
 40
0.999999999999992
 50
345.365565595998
 51
28.5518281952995
  0
ARC
  8
3
  6
CONTINUOUS
 62
3
 10
6.00735055008115
 20
16.394508286888
 30
0.0
 40
3.31250000000002
 50
186.877422464798
 51
208.551828195298
  0
ARC
  8
3
  6
CONTINUOUS
 62
3
 10
2.34638356898114
 20
15.9529462718881
 30
0.0
 40
0.374999999999996
 50
6.87742246479885
 51
51.7205985114985
  0
ARC
  8
3
  6
CONTINUOUS
 62
3
 10
2.69485055008115
 20
16.3945082868881
 30
0.0
 40
0.1875
 50
128.2794014885
 51
231.7205985115
  0
ARC
  8
3
  6
CONTINUOUS
 62
3
 10
2.34638356898115
 20
16.8360703018881
 30
0.0
 40
0.375000000000015
 50
308.2794014885
 51
353.122577535199
  0
ARC
  8
3
  6
CONTINUOUS
 62
3
 10
6.00735055008113
 20
16.394508286888
 30
0.0
 40
3.31250000000004
 50
151.448171804699
 51
173.122577535199
  0
ARC
  8
3
  6
CONTINUOUS
 62
3
 10
2.21931468378116
 20
18.4556828369881
 30
0.0
 40
0.999999999999985
 50
331.448171804698
 51
14.6344344039997
  0
ARC
  8
3
  6
CONTINUOUS
 62
3
 10
2.70309343568115
 20
18.5820082868881
 30
0.0
 40
0.499999999999996
 50
14.6344344039997
 51
89.9999999999997
  0
LINE
  8
3
  6
CONTINUOUS
 62
3
 10
2.70309343568115
 20
19.0820082868881
 30
0.0
 11
0.337721331281145
 21
19.0820082868881
 31
0.0
  0
LINE
  8
3
  6
CONTINUOUS
 62
3
 10
0.337721331281145
 20
19.0820082868881
 30
0.0
 11
0.337721331281145
 21
19.5507582868881
 31
0.0
  0
ARC
  8
3
  6
CONTINUOUS
 62
3
 10
8.14139157188111
 20
19.5507582868879
 30
0.0
 40
7.80367024061044
 50
150.458267945399
 51
179.999999999999
  0
ARC
  8
3
  6
CONTINUOUS
 62
3
 10
0.917225012581171
 20
23.6449440408881
 30
0.0
 40
0.499999999999957
 50
330.458267945398
 51
1.66411503449937
  0
ARC
  8
3
  6
CONTINUOUS
 62
3
 10
9.50735055008082
 20
23.894508286888
 30
0.0
 40
8.09375000000071
 50
180
 51
181.6641150345
  0
LINE
  8
3
  6
CONTINUOUS
 62
3
 10
1.41360055008115
 20
23.8945082868881
 30
0.0
 11
1.41360055008115
 21
24.1445082868881
 31
0.0
  0
LINE
  8
3
  6
CONTINUOUS
 62
3
 10
1.41360055008115
 20
24.1445082868881
 30
0.0
 11
1.60110055008115
 21
24.1445082868881
 31
0.0
  0
LINE
  8
3
  6
CONTINUOUS
 62
3
 10
1.60110055008115
 20
24.1445082868881
 30
0.0
 11
1.60110055008115
 21
23.8945082868881
 31
0.0
  0
LINE
  8
3
  6
CONTINUOUS
 62
3
 10
1.60110055008115
 20
23.8945082868881
 30
0.0
 11
1.97610055008115
 21
23.8945082868881
 31
0.0
  0
LINE
  8
3
  6
CONTINUOUS
 62
3
 10
1.97610055008115
 20
23.8945082868881
 30
0.0
 11
1.97610055008115
 21
23.8274944585881
 31
0.0
  0
ARC
  8
3
  6
CONTINUOUS
 62
3
 10
1.53860055008115
 20
23.8274944585881
 30
0.0
 40
0.437500000000002
 50
310.1190923373
 51
5.60622458774843E-13
  0
ARC
  8
3
  6
CONTINUOUS
 62
3
 10
2.14270537908115
 20
23.110581907788
 30
0.0
 40
0.500000000000015
 50
130.1190923373
 51
186.075944973
  0
ARC
  8
3
  6
CONTINUOUS
 62
3
 10
9.50735055008125
 20
23.8945082868878
 30
0.0
 40
7.90625000000017
 50
186.075944972998
 51
213.604033562797
  0
ARC
  8
3
  6
CONTINUOUS
 62
3
 10
3.75525730068115
 20
20.072242949088
 30
0.0
 40
0.999999999999994
 50
213.604033562798
 51
301.481586642998
  0
ARC
  8
3
  6
CONTINUOUS
 62
3
 10
6.00735055008109
 20
16.3945082868881
 30
0.0
 40
3.31250000000034
 50
114.877422464799
 51
121.481586642999
  0
ARC
  8
3
  6
CONTINUOUS
 62
3
 10
4.45609910538116
 20
19.739844623588
 30
0.0
 40
0.374999999999982
 50
294.877422464797
 51
339.720598511497
  0
ARC
  8
3
  6
CONTINUOUS
 62
3
 10
4.98373175618115
 20
19.544882997088
 30
0.0
 40
0.187500000000002
 50
56.2794014884988
 51
159.720598511499
  0
ARC
  8
3
  6
CONTINUOUS
 62
3
 10
5.29599996878116
 20
20.012744956888
 30
0.0
 40
0.375000000000014
 50
236.279401488497
 51
281.122577535198
  0
ARC
  8
3
  6
CONTINUOUS
 62
3
 10
6.0073505500811
 20
16.394508286888
 30
0.0
 40
3.31250000000003
 50
76.4914089154996
 51
101.1225775352
  0
ARC
  8
3
  6
CONTINUOUS
 62
3
 10
7.01471243198118
 20
20.587702569188
 30
0.0
 40
1
 50
256.491408915497
 51
346.243695564998
  0
ARC
  8
3
  6
CONTINUOUS
 62
3
 10
-6.49264944991873
 20
23.8945082868883
 30
0.0
 40
14.9062500000004
 50
346.243695564998
 51
356.854510615798
  0
ARC
  8
3
  6
CONTINUOUS
 62
3
 10
7.89189638648115
 20
23.1040146797881
 30
0.0
 40
0.500000000000002
 50
356.854510615797
 51
51.4533880142985
  0
ARC
  8
3
  6
CONTINUOUS
 62
3
 10
8.47610055008115
 20
23.837234800388
 30
0.0
 40
0.437499999999994
 50
180
 51
231.4533880143
  0
LINE
  8
3
  6
CONTINUOUS
 62
3
 10
8.03860055008115
 20
23.837234800388
 30
0.0
 11
8.03860055008115
 21
23.894508286888
 31
0.0
  0
LINE
  8
3
  6
CONTINUOUS
 62
3
 10
8.03860055008115
 20
23.894508286888
 30
0.0
 11
8.41360055008115
 21
23.894508286888
 31
0.0
  0
LINE
  8
3
  6
CONTINUOUS
 62
3
 10
8.41360055008115
 20
23.894508286888
 30
0.0
 11
8.41360055008115
 21
24.144508286888
 31
0.0
  0
LINE
  8
3
  6
CONTINUOUS
 62
3
 10
8.41360055008115
 20
24.144508286888
 30
0.0
 11
8.60110055008115
 21
24.144508286888
 31
0.0
  0
LINE
  8
3
  6
CONTINUOUS
 62
3
 10
8.60110055008115
 20
24.144508286888
 30
0.0
 11
8.60110055008115
 21
23.894508286888
 31
0.0
  0
ARC
  8
3
  6
CONTINUOUS
 62
3
 10
-6.49264944991881
 20
23.8945082868884
 30
0.0
 40
15.0937500000004
 50
344.181977778699
 51
359.999999999999
  0
ARC
  8
3
  6
CONTINUOUS
 62
3
 10
8.99166726878114
 20
19.507627297188
 30
0.0
 40
0.999999999999989
 50
164.181977778697
 51
226.210136627797
  0
ARC
  8
3
  6
CONTINUOUS
 62
3
 10
6.0073505500809
 20
16.394508286888
 30
0.0
 40
3.31249999999954
 50
42.8774224647978
 51
46.2101366277978
  0
ARC
  8
3
  6
CONTINUOUS
 62
3
 10
8.70959141328115
 20
18.903601861688
 30
0.0
 40
0.374999999999993
 50
222.877422464799
 51
267.720598511499
  0
ARC
  8
3
  6
CONTINUOUS
 62
3
 10
8.68721934398114
 20
18.3415469350881
 30
0.0
 40
0.187499999999998
 50
344.279401488498
 51
87.7205985114995
  0
ARC
  8
3
  6
CONTINUOUS
 62
3
 10
9.22867869408114
 20
18.189139513388
 30
0.0
 40
0.375000000000013
 50
164.279401488499
 51
209.122577535199
  0
ARC
  8
3
  6
CONTINUOUS
 62
3
 10
6.00735055008115
 20
16.3945082868881
 30
0.0
 40
3.31249999999999
 50
330.877422464799
 51
29.1225775351997
  0
ARC
  8
3
  6
CONTINUOUS
 62
3
 10
9.22867869408115
 20
14.599877060388
 30
0.0
 40
0.374999999999999
 50
150.877422464801
 51
195.720598511501
  0
ARC
  8
3
  6
CONTINUOUS
 62
3
 10
8.68721934398114
 20
14.447469638688
 30
0.0
 40
0.187500000000001
 50
272.2794014885
 51
15.7205985115005
  0
ARC
  8
3
  6
CONTINUOUS
 62
3
 10
8.70959141328113
 20
13.8854147120881
 30
0.0
 40
0.374999999999999
 50
92.2794014884979
 51
137.122577535198
  0
ARC
  8
3
  6
CONTINUOUS
 62
3
 10
6.00735055008102
 20
16.3945082868882
 30
0.0
 40
3.31249999999892
 50
313.789863372199
 51
317.122577535199
  0
ARC
  8
3
  6
CONTINUOUS
 62
3
 10
8.99166726878114
 20
13.281389276588
 30
0.0
 40
1.00000000000001
 50
133.789863372199
 51
195.818022221299
  0
ARC
  8
3
  6
CONTINUOUS
 62
3
 10
-6.49264944991888
 20
8.89450828688845
 30
0.0
 40
15.0937500000003
 50
359.999999999998
 51
15.8180222212996
  0
LINE
  8
3
  6
CONTINUOUS
 62
3
 10
8.60110055008114
 20
8.89450828688805
 30
0.0
 11
8.60110055008114
 21
8.64450828688805
 31
0.0
  0
LINE
  8
3
  6
CONTINUOUS
 62
3
 10
8.60110055008114
 20
8.64450828688805
 30
0.0
 11
8.41360055008114
 21
8.64450828688805
 31
0.0
  0
LINE
  8
3
  6
CONTINUOUS
 62
3
 10
8.41360055008114
 20
8.64450828688805
 30
0.0
 11
8.41360055008114
 21
8.89450828688805
 31
0.0
  0
LINE
  8
3
  6
CONTINUOUS
 62
3
 10
8.41360055008114
 20
8.89450828688805
 30
0.0
 11
8.03860055008115
 21
8.89450828688805
 31
0.0
  0
ARC
  8
3
  6
CONTINUOUS
 62
3
 10
3.94672283035149
 20
9.2785927108953
 30
0.0
 40
0.0747500000000016
 50
359.999999999998
 51
180
  0
ARC
  8
3
  6
CONTINUOUS
 62
3
 10
3.94672283035149
 20
9.2785927108953
 30
0.0
 40
0.0747500000000016
 50
179.999999999998
 51
359.999999999998
  0
ARC
  8
3
  6
CONTINUOUS
 62
3
 10
4.69672283035149
 20
9.2785927108953
 30
0.0
 40
0.0747499999999981
 50
359.999999999998
 51
180
  0
ARC
  8
3
  6
CONTINUOUS
 62
3
 10
4.69672283035149
 20
9.2785927108953
 30
0.0
 40
0.0747499999999981
 50
179.999999999998
 51
359.999999999998
  0
ARC
  8
3
  6
CONTINUOUS
 62
3
 10
5.44672283035149
 20
9.2785927108953
 30
0.0
 40
0.0747499999999981
 50
359.999999999998
 51
180
  0
ARC
  8
3
  6
CONTINUOUS
 62
3
 10
5.44672283035149
 20
9.2785927108953
 30
0.0
 40
0.0747499999999981
 50
179.999999999998
 51
359.999999999998
  0
ARC
  8
3
  6
CONTINUOUS
 62
3
 10
6.19672283034568
 20
9.27859271089866
 30
0.0
 40
0.0747499999941899
 50
119.999999997428
 51
180.000000002572
  0
ARC
  8
3
  6
CONTINUOUS
 62
3
 10
6.19672283035149
 20
9.2785927108953
 30
0.0
 40
0.0747500000000016
 50
179.999999999998
 51
359.999999999998
  0
ARC
  8
3
  6
CONTINUOUS
 62
3
 10
6.19672283035536
 20
9.27859271090201
 30
0.0
 40
0.074749999996127
 50
359.999999994853
 51
120.000000005144
  0
ARC
  8
3
  6
CONTINUOUS
 62
3
 10
5.69044126385149
 20
10.0348742773953
 30
0.0
 40
0.0747500000000016
 50
179.999999999998
 51
359.999999999998
  0
ARC
  8
3
  6
CONTINUOUS
 62
3
 10
5.69044126385149
 20
10.0348742773953
 30
0.0
 40
0.0747500000000016
 50
359.999999999998
 51
180
  0
ARC
  8
3
  6
CONTINUOUS
 62
3
 10
4.4530043968501
 20
10.0348742773987
 30
0.0
 40
0.0747499999986119
 50
44.9999999974261
 51
180.000000002573
  0
ARC
  8
3
  6
CONTINUOUS
 62
3
 10
4.45300439685149
 20
10.0348742773953
 30
0.0
 40
0.0747500000000016
 50
179.999999999998
 51
359.999999999998
  0
ARC
  8
3
  6
CONTINUOUS
 62
3
 10
4.45300439686769
 20
10.034874277402
 30
0.0
 40
0.0747499999838011
 50
359.999999994853
 51
45.0000000051415
  0
ARC
  8
3
  6
CONTINUOUS
 62
3
 10
5.07172283033032
 20
10.6535927109041
 30
0.0
 40
0.19529999997883
 50
134.999999997427
 51
180.000000002572
  0
ARC
  8
3
  6
CONTINUOUS
 62
3
 10
5.07172283035149
 20
10.6535927108953
 30
0.0
 40
0.1953
 50
179.999999999997
 51
359.999999999997
  0
ARC
  8
3
  6
CONTINUOUS
 62
3
 10
5.07172283035875
 20
10.6535927109128
 30
0.0
 40
0.195299999992737
 50
359.999999994853
 51
135.000000005143
  0
ARC
  8
3
  6
CONTINUOUS
 62
3
 10
4.45300439685149
 20
11.2723111443953
 30
0.0
 40
0.0747500000000016
 50
359.999999999998
 51
180
  0
ARC
  8
3
  6
CONTINUOUS
 62
3
 10
4.45300439685149
 20
11.2723111443953
 30
0.0
 40
0.0747500000000016
 50
179.999999999998
 51
359.999999999998
  0
ARC
  8
3
  6
CONTINUOUS
 62
3
 10
5.69044126384712
 20
11.2723111443987
 30
0.0
 40
0.0747499999956254
 50
104.999999997427
 51
180.000000002573
  0
ARC
  8
3
  6
CONTINUOUS
 62
3
 10
5.69044126385149
 20
11.2723111443953
 30
0.0
 40
0.0747499999999981
 50
179.999999999998
 51
359.999999999998
  0
ARC
  8
3
  6
CONTINUOUS
 62
3
 10
5.69044126385664
 20
11.272311144402
 30
0.0
 40
0.0747499999948489
 50
359.999999994853
 51
105.000000005143
  0
ARC
  8
3
  6
CONTINUOUS
 62
3
 10
5.44672283035149
 20
12.0285927108953
 30
0.0
 40
0.0747499999999981
 50
179.999999999998
 51
359.999999999998
  0
ARC
  8
3
  6
CONTINUOUS
 62
3
 10
5.44672283035149
 20
12.0285927108953
 30
0.0
 40
0.0747499999999981
 50
359.999999999998
 51
180
  0
ARC
  8
3
  6
CONTINUOUS
 62
3
 10
4.69672283034568
 20
12.0285927108987
 30
0.0
 40
0.0747499999941869
 50
119.999999997428
 51
180.000000002573
  0
ARC
  8
3
  6
CONTINUOUS
 62
3
 10
4.69672283035149
 20
12.0285927108953
 30
0.0
 40
0.0747499999999981
 50
179.999999999998
 51
359.999999999998
  0
ARC
  8
3
  6
CONTINUOUS
 62
3
 10
4.69672283035536
 20
12.028592710902
 30
0.0
 40
0.074749999996124
 50
359.999999994853
 51
120.000000005143
  0
ARC
  8
3
  6
CONTINUOUS
 62
3
 10
4.69672283034945
 20
12.0285927109308
 30
0.0
 40
0.262249999964509
 50
89.9999999995535
 51
126.069002175156
  0
LINE
  8
3
  6
CONTINUOUS
 62
3
 10
4.69672283035149
 20
12.2908427108953
 30
0.0
 11
5.44672283035149
 21
12.2908427108953
 31
0.0
  0
ARC
  8
3
  6
CONTINUOUS
 62
3
 10
5.44672283035149
 20
12.0285927108953
 30
0.0
 40
0.262249999999999
 50
17.8619956572989
 51
89.9999999999988
  0
LINE
  8
3
  6
CONTINUOUS
 62
3
 10
5.69633187275149
 20
12.1090314356953
 30
0.0
 11
5.90448932835149
 21
11.4630989787953
 31
0.0
  0
ARC
  8
3
  6
CONTINUOUS
 62
3
 10
4.95269126385149
 20
11.1563736219953
 30
0.0
 40
0.999999999999994
 50
359.999999999997
 51
17.8619956572993
  0
LINE
  8
3
  6
CONTINUOUS
 62
3
 10
5.95269126385149
 20
11.1563736219953
 30
0.0
 11
5.95269126385149
 21
10.4183721189953
 31
0.0
  0
ARC
  8
3
  6
CONTINUOUS
 62
3
 10
6.95269126385149
 20
10.4183721189953
 30
0.0
 40
1
 50
179.999999999997
 51
213.799748134397
  0
LINE
  8
3
  6
CONTINUOUS
 62
3
 10
6.12170434925149
 20
9.8620801563953
 30
0.0
 11
6.41464914875149
 21
9.4244802780953
 31
0.0
  0
ARC
  8
3
  6
CONTINUOUS
 62
3
 10
6.19672283035149
 20
9.2785927108953
 30
0.0
 40
0.262250000000001
 50
270
 51
33.7997481344002
  0
LINE
  8
3
  6
CONTINUOUS
 62
3
 10
6.19672283035149
 20
9.0163427108953
 30
0.0
 11
3.94672283035149
 21
9.0163427108953
 31
0.0
  0
ARC
  8
3
  6
CONTINUOUS
 62
3
 10
3.94672283035149
 20
9.2785927108953
 30
0.0
 40
0.26225
 50
146.200251865598
 51
269.999999999998
  0
LINE
  8
3
  6
CONTINUOUS
 62
3
 10
3.72879651195149
 20
9.4244802780953
 30
0.0
 11
4.02174131145149
 21
9.8620801563953
 31
0.0
  0
ARC
  8
3
  6
CONTINUOUS
 62
3
 10
3.19075439685151
 20
10.4183721189953
 30
0.0
 40
0.999999999999998
 50
326.200251865697
 51
359.999999999997
  0
LINE
  8
3
  6
CONTINUOUS
 62
3
 10
4.19075439685149
 20
10.4183721189953
 30
0.0
 11
4.19075439685149
 21
11.1563736219953
 31
0.0
  0
ARC
  8
3
  6
CONTINUOUS
 62
3
 10
5.19075439685147
 20
11.1563736219953
 30
0.0
 40
0.999999999999988
 50
162.1380043427
 51
180
  0
LINE
  8
3
  6
CONTINUOUS
 62
3
 10
4.23895633235149
 20
11.4630989787953
 30
0.0
 11
4.44711378795149
 21
12.1090314356953
 31
0.0
  0
ARC
  8
3
  6
CONTINUOUS
 62
3
 10
4.69672283034857
 20
12.0285927108862
 30
0.0
 40
0.262250000000004
 50
126.06900216927
 51
162.13800434062
  0
LINE
  8
9
  6
CONTINUOUS
 62
9
 10
8.54857236303848
 20
2.07774271393457
 30
0.0
 11
8.39988443261933
 21
2.05794626607972
 31
0.0
  0
LINE
  8
9
  6
CONTINUOUS
 62
9
 10
8.39988443261933
 20
2.05794626607972
 30
0.0
 11
8.44983359997611
 21
2.06020030253998
 31
0.0
  0
LINE
  8
9
  6
CONTINUOUS
 62
9
 10
7.90001890409674
 20
1.77058051715526
 30
0.0
 11
7.76696727912
 21
1.83984280914051
 31
0.0
  0
LINE
  8
9
  6
CONTINUOUS
 62
9
 10
7.76696727912
 20
1.83984280914051
 30
0.0
 11
7.80913685141065
 21
1.81297782872317
 31
0.0
  0
LINE
  8
9
  6
CONTINUOUS
 62
9
 10
3.91299386869127
 20
3.6663048872809
 30
0.0
 11
3.7636349044191
 21
3.68015767730842
 31
0.0
  0
LINE
  8
9
  6
CONTINUOUS
 62
9
 10
3.7636349044191
 20
3.68015767730842
 30
0.0
 11
3.81282932379125
 21
3.67121848815964
 31
0.0
  0
LINE
  8
9
  6
CONTINUOUS
 62
9
 10
0.083473630066115
 20
4.0898428091405
 30
0.0
 11
0.233473630066115
 21
4.0898428091405
 31
0.0
  0
LINE
  8
9
  6
CONTINUOUS
 62
9
 10
0.233473630066115
 20
4.0898428091405
 30
0.0
 11
0.233473630066115
 21
4.1398428091405
 31
0.0
  0
LINE
  8
9
  6
CONTINUOUS
 62
9
 10
8.61249679649959
 20
6.58707120105343
 30
0.0
 11
8.48773334222987
 21
6.50380007473292
 31
0.0
  0
LINE
  8
9
  6
CONTINUOUS
 62
9
 10
8.48773334222987
 20
6.50380007473292
 30
0.0
 11
8.53158209173754
 21
6.52782687573958
 31
0.0
  0
LINE
  8
9
  6
CONTINUOUS
 62
9
 10
7.58966342014207
 20
6.10060228886957
 30
0.0
 11
7.45661179516534
 21
6.16986458085482
 31
0.0
  0
LINE
  8
9
  6
CONTINUOUS
 62
9
 10
7.45661179516534
 20
6.16986458085482
 30
0.0
 11
7.49878136745598
 21
6.14299960043748
 31
0.0
  0
LINE
  8
9
  6
CONTINUOUS
 62
9
 10
5.58399018160315
 20
7.42692410198651
 30
0.0
 11
5.62415944785636
 21
7.57144548465592
 31
0.0
  0
LINE
  8
9
  6
CONTINUOUS
 62
9
 10
5.62415944785636
 20
7.57144548465592
 30
0.0
 11
5.60662202168397
 21
7.52462200034251
 31
0.0
  0
LINE
  8
9
  6
CONTINUOUS
 62
9
 10
15.6937510847941
 20
8.41361458085481
 30
0.0
 11
15.6937510847941
 21
8.26361458085481
 31
0.0
  0
LINE
  8
9
  6
CONTINUOUS
 62
9
 10
15.6937510847941
 20
8.26361458085481
 30
0.0
 11
15.7437510847941
 21
8.26361458085481
 31
0.0
  0
LINE
  8
9
  6
CONTINUOUS
 62
9
 10
10.8068619372485
 20
13.6643016043838
 30
0.0
 11
10.8815407918117
 21
13.6675621535894
 31
0.0
  0
LINE
  8
9
  6
CONTINUOUS
 62
9
 10
10.8815407918117
 20
13.6675621535894
 30
0.0
 11
10.8315883807326
 21
13.6697431229577
 31
0.0
  0
LINE
  8
9
  6
CONTINUOUS
 62
9
 10
11.5568619372485
 20
13.6643016043838
 30
0.0
 11
11.6315407918117
 21
13.6675621535894
 31
0.0
  0
LINE
  8
9
  6
CONTINUOUS
 62
9
 10
11.6315407918117
 20
13.6675621535894
 30
0.0
 11
11.5815883807326
 21
13.6697431229577
 31
0.0
  0
LINE
  8
9
  6
CONTINUOUS
 62
9
 10
13.5568619372485
 20
13.6643016043838
 30
0.0
 11
13.6315407918117
 21
13.6675621535894
 31
0.0
  0
LINE
  8
9
  6
CONTINUOUS
 62
9
 10
13.6315407918117
 20
13.6675621535894
 30
0.0
 11
13.5815883807326
 21
13.6697431229577
 31
0.0
  0
LINE
  8
9
  6
CONTINUOUS
 62
9
 10
14.3100513410173
 20
13.6676332990262
 30
0.0
 11
14.3067907918117
 21
13.7423121535894
 31
0.0
  0
LINE
  8
9
  6
CONTINUOUS
 62
9
 10
14.3067907918117
 20
13.7423121535894
 30
0.0
 11
14.3046098224434
 21
13.6923597425103
 31
0.0
  0
LINE
  8
9
  6
CONTINUOUS
 62
9
 10
14.2886586284056
 20
19.0265781435895
 30
0.0
 11
14.3399616499013
 21
19.1675320367086
 31
0.0
  0
LINE
  8
9
  6
CONTINUOUS
 62
9
 10
14.3399616499013
 20
19.1675320367086
 30
0.0
 11
14.3188307368152
 21
19.1222166473563
 31
0.0
  0
LINE
  8
9
  6
CONTINUOUS
 62
9
 10
14.3067196463749
 20
19.420822702795
 30
0.0
 11
14.2320407918117
 21
19.4175621535894
 31
0.0
  0
LINE
  8
9
  6
CONTINUOUS
 62
9
 10
14.2320407918117
 20
19.4175621535894
 30
0.0
 11
14.2819932028908
 21
19.4153811842211
 31
0.0
  0
LINE
  8
9
  6
CONTINUOUS
 62
9
 10
13.5567196463749
 20
19.420822702795
 30
0.0
 11
13.4820407918117
 21
19.4175621535894
 31
0.0
  0
LINE
  8
9
  6
CONTINUOUS
 62
9
 10
13.4820407918117
 20
19.4175621535894
 30
0.0
 11
13.5319932028908
 21
19.4153811842211
 31
0.0
  0
LINE
  8
9
  6
CONTINUOUS
 62
9
 10
11.5567196463749
 20
19.420822702795
 30
0.0
 11
11.4820407918117
 21
19.4175621535894
 31
0.0
  0
LINE
  8
9
  6
CONTINUOUS
 62
9
 10
11.4820407918117
 20
19.4175621535894
 30
0.0
 11
11.5319932028908
 21
19.4153811842211
 31
0.0
  0
LINE
  8
9
  6
CONTINUOUS
 62
9
 10
10.8099218267032
 20
19.4184747670361
 30
0.0
 11
10.7874440681903
 21
19.4897651091045
 31
0.0
  0
LINE
  8
9
  6
CONTINUOUS
 62
9
 10
10.7874440681903
 20
19.4897651091045
 30
0.0
 11
10.7982660488872
 21
19.4409503087485
 31
0.0
  0
LINE
  8
9
  6
CONTINUOUS
 62
9
 10
9.71929079181173
 20
24.2925621535894
 30
0.0
 11
9.86929079181173
 21
24.2925621535894
 31
0.0
  0
LINE
  8
9
  6
CONTINUOUS
 62
9
 10
9.86929079181173
 20
24.2925621535894
 30
0.0
 11
9.86929079181173
 21
24.3425621535894
 31
0.0
  0
LINE
  8
9
  6
CONTINUOUS
 62
9
 10
9.19377641988184
 20
31.0624676030423
 30
0.0
 11
9.26675454641406
 21
31.0462887419004
 31
0.0
  0
LINE
  8
9
  6
CONTINUOUS
 62
9
 10
9.26675454641406
 20
31.0462887419004
 30
0.0
 11
9.21906869887665
 21
31.0613240318756
 31
0.0
  0
LINE
  8
9
  6
CONTINUOUS
 62
9
 10
11.6466623957948
 20
30.9431786960776
 30
0.0
 11
11.6134296390768
 21
30.7969064024574
 31
0.0
  0
LINE
  8
9
  6
CONTINUOUS
 62
9
 10
11.6134296390768
 20
30.7969064024574
 30
0.0
 11
11.6287145612232
 21
30.8445128217197
 31
0.0
  0
LINE
  8
9
  6
CONTINUOUS
 62
9
 10
11.4801722477933
 20
27.915189609885
 30
0.0
 11
11.4834327969989
 21
27.8405107553218
 31
0.0
  0
LINE
  8
9
  6
CONTINUOUS
 62
9
 10
11.4834327969989
 20
27.8405107553218
 30
0.0
 11
11.4856137663672
 21
27.8904631664009
 31
0.0
  0
LINE
  8
9
  6
CONTINUOUS
 62
9
 10
11.6250766160329
 20
24.8581172989485
 30
0.0
 11
11.4754990684362
 21
24.8468675320649
 31
0.0
  0
LINE
  8
9
  6
CONTINUOUS
 62
9
 10
11.4754990684362
 20
24.8468675320649
 30
0.0
 11
11.5254953489888
 21
24.8462576706866
 31
0.0
  0
LINE
  8
9
  6
CONTINUOUS
 62
9
 10
9.19612025174613
 20
24.7677453362825
 30
0.0
 11
9.12981619196606
 21
24.8022610451218
 31
0.0
  0
LINE
  8
9
  6
CONTINUOUS
 62
9
 10
9.12981619196606
 20
24.8022610451218
 30
0.0
 11
9.17198576425671
 21
24.7753960647045
 31
0.0
  0
LINE
  8
9
  6
CONTINUOUS
 62
9
 10
5.49432455230451
 20
25.9682932525586
 30
0.0
 11
5.49106400309895
 21
26.0429721071218
 31
0.0
  0
LINE
  8
9
  6
CONTINUOUS
 62
9
 10
5.49106400309895
 20
26.0429721071218
 30
0.0
 11
5.48888303373068
 21
25.9930196960427
 31
0.0
  0
LINE
  8
9
  6
CONTINUOUS
 62
9
 10
5.5976550351493
 20
29.4084984633365
 30
0.0
 11
5.46460341017257
 21
29.4777607553218
 31
0.0
  0
LINE
  8
9
  6
CONTINUOUS
 62
9
 10
5.46460341017257
 20
29.4777607553218
 30
0.0
 11
5.50677298246321
 21
29.4508957749045
 31
0.0
  0
LINE
  8
9
  6
CONTINUOUS
 62
9
 10
5.4911351485357
 20
29.8590388543162
 30
0.0
 11
5.56581400309894
 21
29.8622994035218
 31
0.0
  0
LINE
  8
9
  6
CONTINUOUS
 62
9
 10
5.56581400309894
 20
29.8622994035218
 30
0.0
 11
5.51586159201985
 21
29.8644803728901
 31
0.0
  0
LINE
  8
9
  6
CONTINUOUS
 62
9
 10
5.91468279699895
 20
20.1652607553218
 30
0.0
 11
5.76468279699895
 21
20.1652607553218
 31
0.0
  0
LINE
  8
9
  6
CONTINUOUS
 62
9
 10
5.76468279699895
 20
20.1652607553218
 30
0.0
 11
5.76468279699895
 21
20.1152607553218
 31
0.0
  0
LINE
  8
9
  6
CONTINUOUS
 62
9
 10
2.69168268760161
 20
16.3952834579052
 30
0.0
 11
2.67550382645974
 21
16.322305331373
 31
0.0
  0
LINE
  8
9
  6
CONTINUOUS
 62
9
 10
2.67550382645974
 20
16.322305331373
 30
0.0
 11
2.69053911643495
 21
16.3699911789104
 31
0.0
  0
LINE
  8
9
  6
CONTINUOUS
 62
9
 10
2.55279543699001
 20
13.3242854794898
 30
0.0
 11
2.70278427864792
 21
13.3261150636279
 31
0.0
  0
LINE
  8
9
  6
CONTINUOUS
 62
9
 10
2.70278427864792
 20
13.3261150636279
 30
0.0
 11
2.65292509611558
 21
13.3298649859214
 31
0.0
  0
LINE
  8
9
  6
CONTINUOUS
 62
9
 10
4.98464436962782
 20
13.2410025417965
 30
0.0
 11
5.05593471169625
 21
13.2634803003094
 31
0.0
  0
LINE
  8
9
  6
CONTINUOUS
 62
9
 10
5.05593471169625
 20
13.2634803003094
 30
0.0
 11
5.00711991134025
 21
13.2526583196125
 31
0.0
  0
LINE
  8
9
  6
CONTINUOUS
 62
9
 10
8.69047989318671
 20
14.4475407841248
 30
0.0
 11
8.68721934398115
 21
14.522219638688
 31
0.0
  0
LINE
  8
9
  6
CONTINUOUS
 62
9
 10
8.68721934398115
 20
14.522219638688
 30
0.0
 11
8.68503837461288
 21
14.4722672276089
 31
0.0
  0
LINE
  8
9
  6
CONTINUOUS
 62
9
 10
8.68799451499826
 20
18.3447147975675
 30
0.0
 11
8.61501638846604
 21
18.3608936587094
 31
0.0
  0
LINE
  8
9
  6
CONTINUOUS
 62
9
 10
8.61501638846604
 20
18.3608936587094
 30
0.0
 11
8.66270223600345
 21
18.3458583687342
 31
0.0
  0
LINE
  8
9
  6
CONTINUOUS
 62
9
 10
5.24364690406143
 20
19.2699689514291
 30
0.0
 11
5.19854103413579
 21
19.4130264940413
 31
0.0
  0
LINE
  8
9
  6
CONTINUOUS
 62
9
 10
5.19854103413579
 20
19.4130264940413
 30
0.0
 11
5.2093630148327
 21
19.3642116936853
 31
0.0
  0
LINE
  8
9
  6
CONTINUOUS
 62
9
 10
4.98530041702834
 20
19.5477422882487
 30
0.0
 11
4.91899635724826
 21
19.582257997088
 31
0.0
  0
LINE
  8
9
  6
CONTINUOUS
 62
9
 10
4.91899635724826
 20
19.582257997088
 30
0.0
 11
4.96116592953891
 21
19.5553930166707
 31
0.0
  0
LINE
  8
9
  6
CONTINUOUS
 62
9
 10
1.80977648128234
 20
20.9441766995881
 30
0.0
 11
1.94741326411105
 21
21.0038098783778
 31
0.0
  0
LINE
  8
9
  6
CONTINUOUS
 62
9
 10
1.94741326411105
 20
21.0038098783778
 30
0.0
 11
1.89997646167566
 21
20.9880064048766
 31
0.0
  0
LINE
  8
9
  6
CONTINUOUS
 62
9
 10
8.03860055008115
 20
8.74450828688805
 30
0.0
 11
8.03860055008115
 21
8.89450828688805
 31
0.0
  0
LINE
  8
9
  6
CONTINUOUS
 62
9
 10
8.03860055008115
 20
8.89450828688805
 30
0.0
 11
7.98860055008115
 21
8.89450828688805
 31
0.0
  0
LINE
  8
9
  6
CONTINUOUS
 62
9
 10
3.94679397578825
 20
9.27533216168974
 30
0.0
 11
4.02147283035149
 21
9.2785927108953
 31
0.0
  0
LINE
  8
9
  6
CONTINUOUS
 62
9
 10
4.02147283035149
 20
9.2785927108953
 30
0.0
 11
3.9715204192724
 21
9.28077368026357
 31
0.0
  0
LINE
  8
9
  6
CONTINUOUS
 62
9
 10
4.69679397578825
 20
9.27533216168974
 30
0.0
 11
4.77147283035149
 21
9.2785927108953
 31
0.0
  0
LINE
  8
9
  6
CONTINUOUS
 62
9
 10
4.77147283035149
 20
9.2785927108953
 30
0.0
 11
4.7215204192724
 21
9.28077368026357
 31
0.0
  0
LINE
  8
9
  6
CONTINUOUS
 62
9
 10
5.44679397578825
 20
9.27533216168974
 30
0.0
 11
5.52147283035149
 21
9.2785927108953
 31
0.0
  0
LINE
  8
9
  6
CONTINUOUS
 62
9
 10
5.52147283035149
 20
9.2785927108953
 30
0.0
 11
5.4715204192724
 21
9.28077368026357
 31
0.0
  0
LINE
  8
9
  6
CONTINUOUS
 62
9
 10
6.19951097607542
 20
9.28028459925367
 30
0.0
 11
6.15934783035149
 21
9.34332810982819
 31
0.0
  0
LINE
  8
9
  6
CONTINUOUS
 62
9
 10
6.15934783035149
 20
9.34332810982819
 30
0.0
 11
6.18243526101324
 21
9.29897756816928
 31
0.0
  0
LINE
  8
9
  6
CONTINUOUS
 62
9
 10
5.69037011841473
 20
10.0381348266009
 30
0.0
 11
5.61569126385149
 21
10.0348742773953
 31
0.0
  0
LINE
  8
9
  6
CONTINUOUS
 62
9
 10
5.61569126385149
 20
10.0348742773953
 30
0.0
 11
5.66564367493058
 21
10.032693308027
 31
0.0
  0
LINE
  8
9
  6
CONTINUOUS
 62
9
 10
4.45536026072591
 20
10.0326190283624
 30
0.0
 11
4.50586062874519
 21
10.087730509289
 31
0.0
  0
LINE
  8
9
  6
CONTINUOUS
 62
9
 10
4.50586062874519
 20
10.087730509289
 30
0.0
 11
4.46899676190468
 21
10.0539509989082
 31
0.0
  0
LINE
  8
9
  6
CONTINUOUS
 62
9
 10
5.04421647650728
 20
10.6903521341187
 30
0.0
 11
4.93362487598576
 21
10.791690665261
 31
0.0
  0
LINE
  8
9
  6
CONTINUOUS
 62
9
 10
4.93362487598576
 20
10.791690665261
 30
0.0
 11
4.96740438636654
 21
10.7548267984205
 31
0.0
  0
LINE
  8
9
  6
CONTINUOUS
 62
9
 10
4.45307554228825
 20
11.2690505951897
 30
0.0
 11
4.52775439685149
 21
11.2723111443953
 31
0.0
  0
LINE
  8
9
  6
CONTINUOUS
 62
9
 10
4.52775439685149
 20
11.2723111443953
 30
0.0
 11
4.4778019857724
 21
11.2744921137636
 31
0.0
  0
LINE
  8
9
  6
CONTINUOUS
 62
9
 10
5.69357229874302
 20
11.273223757842
 30
0.0
 11
5.67109454023008
 21
11.3445140999104
 31
0.0
  0
LINE
  8
9
  6
CONTINUOUS
 62
9
 10
5.67109454023008
 20
11.3445140999104
 30
0.0
 11
5.68191652092698
 21
11.2956992995544
 31
0.0
  0
LINE
  8
9
  6
CONTINUOUS
 62
9
 10
5.44665168491473
 20
12.0318532601009
 30
0.0
 11
5.37197283035149
 21
12.0285927108953
 31
0.0
  0
LINE
  8
9
  6
CONTINUOUS
 62
9
 10
5.37197283035149
 20
12.0285927108953
 30
0.0
 11
5.42192524143058
 21
12.026411741527
 31
0.0
  0
LINE
  8
9
  6
CONTINUOUS
 62
9
 10
4.69951097607542
 20
12.0302845992537
 30
0.0
 11
4.65934783035149
 21
12.0933281098282
 31
0.0
  0
LINE
  8
9
  6
CONTINUOUS
 62
9
 10
4.65934783035149
 20
12.0933281098282
 30
0.0
 11
4.68243526101324
 21
12.0489775681693
 31
0.0
  0
LINE
  8
9
  6
CONTINUOUS
 62
9
 10
4.44880224286368
 20
12.357850305535
 30
0.0
 11
4.54232074663351
 21
12.2405716226781
 31
0.0
  0
LINE
  8
9
  6
CONTINUOUS
 62
9
 10
4.54232074663351
 20
12.2405716226781
 30
0.0
 11
4.51467370432813
 21
12.2822326482507
 31
0.0
  0
LINE
  8
10
  6
CONTINUOUS
 62
10
 10
5.51586159201985
 20
29.8644803728901
 30
0.0
 11
5.91468279699895
 21
20.1652607553218
 31
0.0
  0
LINE
  8
10
  6
CONTINUOUS
 62
10
 10
1.89997646167566
 20
20.9880064048766
 30
0.0
 11
8.03860055008115
 21
8.74450828688805
 31
0.0
  0
ENDSEC
  0
EOF
