  0
SECTION
  2
HEADER
  9
$ACADVER
  1
AC1003
  9
$EXTMIN
 10
1
 20
6.375
  9
$EXTMAX
 10
16.5
 20
1
  9
$INSUNITS
 70
1
  9
$INSBASE
 10
8.75
 20
3.6875
999
Created with OMAX Layout for Windows. (www.omax.com) 2/25/2016
  0
ENDSEC
  0
SECTION
  2
TABLES
  0
TABLE
  2
LAYER
 70
    10
  0
LAYER
  2
0
 70
     0
 62
     7
  6
CONTINUOUS
  0
LAYER
  2
1
 70
     0
 62
     7
  6
CONTINUOUS
  0
LAYER
  2
2
 70
     0
 62
     7
  6
CONTINUOUS
  0
LAYER
  2
3
 70
     0
 62
     7
  6
CONTINUOUS
  0
LAYER
  2
4
 70
     0
 62
     7
  6
CONTINUOUS
  0
LAYER
  2
5
 70
     0
 62
     7
  6
CONTINUOUS
  0
LAYER
  2
6
 70
     0
 62
     7
  6
CONTINUOUS
  0
LAYER
  2
7
 70
     0
 62
     7
  6
CONTINUOUS
  0
LAYER
  2
8
 70
     0
 62
     7
  6
CONTINUOUS
  0
LAYER
  2
9
 70
     0
 62
     7
  6
CONTINUOUS
  0
LAYER
  2
10
 70
     0
 62
     7
  6
CONTINUOUS
  0
LAYER
  2
11
 70
     0
 62
     7
  6
CONTINUOUS
  0
LAYER
  2
12
 70
     0
 62
     7
  6
CONTINUOUS
  0
LAYER
  2
13
 70
     0
 62
     7
  6
CONTINUOUS
  0
LAYER
  2
14
 70
     0
 62
     7
  6
CONTINUOUS
  0
LAYER
  2
15
 70
     0
 62
     7
  6
CONTINUOUS
  0
LAYER
  2
16
 70
     0
 62
     7
  6
CONTINUOUS
  0
LAYER
  2
17
 70
     0
 62
     7
  6
CONTINUOUS
  0
LAYER
  2
18
 70
     0
 62
     7
  6
CONTINUOUS
  0
LAYER
  2
19
 70
     0
 62
     7
  6
CONTINUOUS
  0
LAYER
  2
20
 70
     0
 62
     7
  6
CONTINUOUS
  0
LAYER
  2
21
 70
     0
 62
     7
  6
CONTINUOUS
  0
LAYER
  2
22
 70
     0
 62
     7
  6
CONTINUOUS
  0
LAYER
  2
23
 70
     0
 62
     7
  6
CONTINUOUS
  0
LAYER
  2
24
 70
     0
 62
     7
  6
CONTINUOUS
  0
LAYER
  2
25
 70
     0
 62
     7
  6
CONTINUOUS
  0
LAYER
  2
26
 70
     0
 62
     7
  6
CONTINUOUS
  0
LAYER
  2
27
 70
     0
 62
     7
  6
CONTINUOUS
  0
LAYER
  2
28
 70
     0
 62
     7
  6
CONTINUOUS
  0
LAYER
  2
29
 70
     0
 62
     7
  6
CONTINUOUS
  0
LAYER
  2
30
 70
     0
 62
     7
  6
CONTINUOUS
  0
LAYER
  2
31
 70
     0
 62
     7
  6
CONTINUOUS
  0
ENDTAB
  0
ENDSEC
  0
SECTION
  2
ENTITIES
  0
ARC
  8
0
  6
CONTINUOUS
 62
0
 10
5.875
 20
1.9375
 30
0.0
 40
0.0747499999999999
 50
179.999999999999
 51
359.999999999999
  0
ARC
  8
0
  6
CONTINUOUS
 62
0
 10
5.875
 20
1.9375
 30
0.0
 40
0.0747499999999999
 50
359.999999999999
 51
180
  0
ARC
  8
0
  6
CONTINUOUS
 62
0
 10
5.875
 20
2.6875
 30
0.0
 40
0.0747499999999999
 50
179.999999999999
 51
359.999999999999
  0
ARC
  8
0
  6
CONTINUOUS
 62
0
 10
5.875
 20
2.6875
 30
0.0
 40
0.0747499999999999
 50
359.999999999999
 51
180
  0
ARC
  8
0
  6
CONTINUOUS
 62
0
 10
11.625
 20
2.6875
 30
0.0
 40
0.0747499999999999
 50
179.999999999999
 51
359.999999999999
  0
ARC
  8
0
  6
CONTINUOUS
 62
0
 10
11.625
 20
2.6875
 30
0.0
 40
0.0747499999999999
 50
359.999999999999
 51
180
  0
ARC
  8
0
  6
CONTINUOUS
 62
0
 10
11.625
 20
1.9375
 30
0.0
 40
0.0747499999999999
 50
179.999999999999
 51
359.999999999999
  0
ARC
  8
0
  6
CONTINUOUS
 62
0
 10
11.625
 20
1.9375
 30
0.0
 40
0.0747499999999999
 50
359.999999999999
 51
180
  0
ARC
  8
0
  6
CONTINUOUS
 62
0
 10
11.625
 20
5.4375
 30
0.0
 40
0.0747499999999999
 50
179.999999999999
 51
359.999999999999
  0
ARC
  8
0
  6
CONTINUOUS
 62
0
 10
11.625
 20
5.4375
 30
0.0
 40
0.0747499999999999
 50
359.999999999999
 51
180
  0
ARC
  8
0
  6
CONTINUOUS
 62
0
 10
11.625
 20
4.6875
 30
0.0
 40
0.0747499999999999
 50
179.999999999999
 51
359.999999999999
  0
ARC
  8
0
  6
CONTINUOUS
 62
0
 10
11.625
 20
4.6875
 30
0.0
 40
0.0747499999999999
 50
359.999999999999
 51
180
  0
ARC
  8
0
  6
CONTINUOUS
 62
0
 10
5.875
 20
4.6875
 30
0.0
 40
0.0747499999999999
 50
179.999999999999
 51
359.999999999999
  0
ARC
  8
0
  6
CONTINUOUS
 62
0
 10
5.875
 20
4.6875
 30
0.0
 40
0.0747499999999999
 50
359.999999999999
 51
180
  0
ARC
  8
0
  6
CONTINUOUS
 62
0
 10
5.875
 20
5.4375
 30
0.0
 40
0.0747499999999999
 50
179.999999999999
 51
359.999999999999
  0
ARC
  8
0
  6
CONTINUOUS
 62
0
 10
5.875
 20
5.4375
 30
0.0
 40
0.0747499999999999
 50
359.999999999999
 51
180
  0
LINE
  8
0
  6
CONTINUOUS
 62
0
 10
16.25
 20
1.1875
 30
0.0
 11
16.25
 21
1.5625
 31
0.0
  0
LINE
  8
0
  6
CONTINUOUS
 62
0
 10
1.25
 20
1.1875
 30
0.0
 11
1.25
 21
1.5625
 31
0.0
  0
LINE
  8
0
  6
CONTINUOUS
 62
0
 10
5.644
 20
1.9375
 30
0.0
 11
5.644
 21
2.6875
 31
0.0
  0
LINE
  8
0
  6
CONTINUOUS
 62
0
 10
5.644
 20
5.4375
 30
0.0
 11
5.644
 21
4.6875
 31
0.0
  0
LINE
  8
0
  6
CONTINUOUS
 62
0
 10
1.25
 20
6.1875
 30
0.0
 11
1.25
 21
5.8125
 31
0.0
  0
LINE
  8
0
  6
CONTINUOUS
 62
0
 10
16.25
 20
6.1875
 30
0.0
 11
16.25
 21
5.8125
 31
0.0
  0
LINE
  8
0
  6
CONTINUOUS
 62
0
 10
11.856
 20
5.4375
 30
0.0
 11
11.856
 21
4.6875
 31
0.0
  0
LINE
  8
0
  6
CONTINUOUS
 62
0
 10
11.856
 20
1.9375
 30
0.0
 11
11.856
 21
2.6875
 31
0.0
  0
LINE
  8
0
  6
CONTINUOUS
 62
0
 10
6.106
 20
5.375
 30
0.0
 11
6.106
 21
4.6875
 31
0.0
  0
LINE
  8
0
  6
CONTINUOUS
 62
0
 10
6.106
 20
2
 30
0.0
 11
6.106
 21
2.6875
 31
0.0
  0
LINE
  8
0
  6
CONTINUOUS
 62
0
 10
11.394
 20
2
 30
0.0
 11
11.394
 21
2.6875
 31
0.0
  0
LINE
  8
0
  6
CONTINUOUS
 62
0
 10
11.394
 20
5.375
 30
0.0
 11
11.394
 21
4.6875
 31
0.0
  0
LINE
  8
0
  6
CONTINUOUS
 62
0
 10
1
 20
6.1875
 30
0.0
 11
1.25
 21
6.1875
 31
0.0
  0
LINE
  8
0
  6
CONTINUOUS
 62
0
 10
1
 20
6.1875
 30
0.0
 11
1
 21
6.375
 31
0.0
  0
LINE
  8
0
  6
CONTINUOUS
 62
0
 10
1
 20
6.375
 30
0.0
 11
1.25
 21
6.375
 31
0.0
  0
LINE
  8
0
  6
CONTINUOUS
 62
0
 10
11.5962674591
 20
5.8125
 30
0.0
 11
5.9037325409
 21
5.8125
 31
0.0
  0
LINE
  8
0
  6
CONTINUOUS
 62
0
 10
16.5
 20
6.375
 30
0.0
 11
16.25
 21
6.375
 31
0.0
  0
LINE
  8
0
  6
CONTINUOUS
 62
0
 10
16.5
 20
6.1875
 30
0.0
 11
16.5
 21
6.375
 31
0.0
  0
LINE
  8
0
  6
CONTINUOUS
 62
0
 10
16.5
 20
6.1875
 30
0.0
 11
16.25
 21
6.1875
 31
0.0
  0
LINE
  8
0
  6
CONTINUOUS
 62
0
 10
16.5
 20
1.1875
 30
0.0
 11
16.25
 21
1.1875
 31
0.0
  0
LINE
  8
0
  6
CONTINUOUS
 62
0
 10
16.5
 20
1.1875
 30
0.0
 11
16.5
 21
1
 31
0.0
  0
LINE
  8
0
  6
CONTINUOUS
 62
0
 10
16.5
 20
1
 30
0.0
 11
16.25
 21
1
 31
0.0
  0
LINE
  8
0
  6
CONTINUOUS
 62
0
 10
11.5962674591
 20
1.5625
 30
0.0
 11
5.9037325409
 21
1.5625
 31
0.0
  0
LINE
  8
0
  6
CONTINUOUS
 62
0
 10
1
 20
1
 30
0.0
 11
1.25
 21
1
 31
0.0
  0
LINE
  8
0
  6
CONTINUOUS
 62
0
 10
1
 20
1.1875
 30
0.0
 11
1
 21
1
 31
0.0
  0
LINE
  8
0
  6
CONTINUOUS
 62
0
 10
1
 20
1.1875
 30
0.0
 11
1.25
 21
1.1875
 31
0.0
  0
LINE
  8
0
  6
CONTINUOUS
 62
0
 10
5.78125
 20
3.1139058366
 30
0.0
 11
5.78125
 21
4.2610941634
 31
0.0
  0
LINE
  8
0
  6
CONTINUOUS
 62
0
 10
5.96875
 20
3.1139058366
 30
0.0
 11
5.96875
 21
4.2610941634
 31
0.0
  0
LINE
  8
0
  6
CONTINUOUS
 62
0
 10
11.144
 20
1.75
 30
0.0
 11
6.356
 21
1.75
 31
0.0
  0
LINE
  8
0
  6
CONTINUOUS
 62
0
 10
11.53125
 20
3.1139058366
 30
0.0
 11
11.53125
 21
4.2610941634
 31
0.0
  0
LINE
  8
0
  6
CONTINUOUS
 62
0
 10
11.144
 20
5.625
 30
0.0
 11
6.356
 21
5.625
 31
0.0
  0
LINE
  8
0
  6
CONTINUOUS
 62
0
 10
11.71875
 20
3.1139058366
 30
0.0
 11
11.71875
 21
4.2610941634
 31
0.0
  0
ARC
  8
0
  6
CONTINUOUS
 62
0
 10
15.5199821127
 20
1.7024386576
 30
0.0
 40
0.499999999999996
 50
267.655392817799
 51
321.986711224599
  0
ARC
  8
0
  6
CONTINUOUS
 62
0
 10
16.2586083067
 20
1.1250846973
 30
0.0
 40
0.437500000000004
 50
91.1274319429991
 51
141.986711224599
  0
ARC
  8
0
  6
CONTINUOUS
 62
0
 10
11.5962674591
 20
0.562499999999995
 30
0.0
 40
0.999999999999826
 50
76.2161026326992
 51
89.9999999999992
  0
ARC
  8
0
  6
CONTINUOUS
 62
0
 10
5.90373254089999
 20
0.562499999999983
 30
0.0
 40
0.999999999999907
 50
89.9999999999997
 51
103.7838973673
  0
ARC
  8
0
  6
CONTINUOUS
 62
0
 10
1.2413916933
 20
1.1250846973
 30
0.0
 40
0.437500000000002
 50
38.0132887754002
 51
88.8725680570004
  0
ARC
  8
0
  6
CONTINUOUS
 62
0
 10
1.98001788730001
 20
1.7024386576
 30
0.0
 40
0.500000000000008
 50
218.013288775399
 51
272.344607182199
  0
ARC
  8
0
  6
CONTINUOUS
 62
0
 10
5.3943751997
 20
1.9185052297
 30
0.0
 40
0.250000000000002
 50
283.240506695899
 51
2.26320839959962
  0
ARC
  8
0
  6
CONTINUOUS
 62
0
 10
5.87499999999993
 20
1.93750000000005
 30
0.0
 40
0.230999999998371
 50
180.000000000012
 51
182.263208399612
  0
ARC
  8
0
  6
CONTINUOUS
 62
0
 10
5.875
 20
2.68749999999999
 30
0.0
 40
0.231
 50
144.315710374097
 51
179.999999999997
  0
ARC
  8
0
  6
CONTINUOUS
 62
0
 10
5.28125
 20
3.1139058366
 30
0.0
 40
0.5
 50
324.3157103741
 51
1.01777749806833E-13
  0
ARC
  8
0
  6
CONTINUOUS
 62
0
 10
5.28125
 20
4.26109416340001
 30
0.0
 40
0.5
 50
359.999999999999
 51
35.6842896258996
  0
ARC
  8
0
  6
CONTINUOUS
 62
0
 10
5.875
 20
4.68750000000001
 30
0.0
 40
0.231000000000001
 50
180.000000000002
 51
215.684289625902
  0
ARC
  8
0
  6
CONTINUOUS
 62
0
 10
5.87500000000003
 20
5.43749999999995
 30
0.0
 40
0.23099999999836
 50
177.736791600387
 51
179.999999999987
  0
ARC
  8
0
  6
CONTINUOUS
 62
0
 10
5.3943751997
 20
5.4564947703
 30
0.0
 40
0.249999999999941
 50
357.736791600399
 51
76.7594933040994
  0
ARC
  8
0
  6
CONTINUOUS
 62
0
 10
1.9800178873
 20
5.6725613424
 30
0.0
 40
0.499999999999984
 50
87.6553928178001
 51
141.9867112246
  0
ARC
  8
0
  6
CONTINUOUS
 62
0
 10
1.24139169330001
 20
6.2499153027
 30
0.0
 40
0.437500000000004
 50
271.127431942999
 51
321.986711224599
  0
ARC
  8
0
  6
CONTINUOUS
 62
0
 10
5.90373254090003
 20
6.81249999999999
 30
0.0
 40
1.00000000000003
 50
256.216102632698
 51
269.999999999998
  0
ARC
  8
0
  6
CONTINUOUS
 62
0
 10
11.5962674591
 20
6.81249999999999
 30
0.0
 40
1.00000000000033
 50
270.000000000001
 51
283.783897367301
  0
ARC
  8
0
  6
CONTINUOUS
 62
0
 10
16.2586083067
 20
6.2499153027
 30
0.0
 40
0.437500000000004
 50
218.0132887754
 51
268.872568057
  0
ARC
  8
0
  6
CONTINUOUS
 62
0
 10
15.5199821127
 20
5.67256134239999
 30
0.0
 40
0.500000000000005
 50
38.0132887754005
 51
92.3446071822004
  0
ARC
  8
0
  6
CONTINUOUS
 62
0
 10
12.1056248003
 20
5.4564947703
 30
0.0
 40
0.250000000000002
 50
103.2405066959
 51
182.2632083996
  0
ARC
  8
0
  6
CONTINUOUS
 62
0
 10
11.6250000000001
 20
5.43749999999995
 30
0.0
 40
0.230999999998356
 50
1.27848358961454E-11
 51
2.2632083996128
  0
ARC
  8
0
  6
CONTINUOUS
 62
0
 10
11.625
 20
4.6875
 30
0.0
 40
0.230999999999999
 50
324.315710374101
 51
1.34855518494053E-12
  0
ARC
  8
0
  6
CONTINUOUS
 62
0
 10
12.21875
 20
4.2610941634
 30
0.0
 40
0.499999999999997
 50
144.3157103741
 51
180
  0
ARC
  8
0
  6
CONTINUOUS
 62
0
 10
12.21875
 20
3.11390583659999
 30
0.0
 40
0.5
 50
179.999999999999
 51
215.684289625899
  0
ARC
  8
0
  6
CONTINUOUS
 62
0
 10
11.625
 20
2.68750000000001
 30
0.0
 40
0.230999999999999
 50
359.999999999998
 51
35.6842896258983
  0
ARC
  8
0
  6
CONTINUOUS
 62
0
 10
11.6250000000001
 20
1.93749999999983
 30
0.0
 40
0.230999999998111
 50
357.736791600441
 51
4.14072438286383E-11
  0
ARC
  8
0
  6
CONTINUOUS
 62
0
 10
12.1056248003
 20
1.9185052297
 30
0.0
 40
0.249999999999941
 50
177.736791600399
 51
256.759493304099
  0
ARC
  8
0
  6
CONTINUOUS
 62
0
 10
6.356
 20
5.375
 30
0.0
 40
0.25
 50
89.9999999999998
 51
180
  0
ARC
  8
0
  6
CONTINUOUS
 62
0
 10
5.875
 20
4.6875
 30
0.0
 40
0.230999999999997
 50
324.315710374101
 51
1.2467774351337E-12
  0
ARC
  8
0
  6
CONTINUOUS
 62
0
 10
6.46875
 20
4.2610941634
 30
0.0
 40
0.499999999999997
 50
144.3157103741
 51
180
  0
ARC
  8
0
  6
CONTINUOUS
 62
0
 10
6.46875
 20
3.11390583659999
 30
0.0
 40
0.5
 50
179.999999999999
 51
215.684289625899
  0
ARC
  8
0
  6
CONTINUOUS
 62
0
 10
5.875
 20
2.68750000000001
 30
0.0
 40
0.230999999999997
 50
359.999999999998
 51
35.6842896258984
  0
ARC
  8
0
  6
CONTINUOUS
 62
0
 10
6.356
 20
2
 30
0.0
 40
0.25
 50
179.999999999999
 51
269.999999999999
  0
ARC
  8
0
  6
CONTINUOUS
 62
0
 10
11.144
 20
2
 30
0.0
 40
0.25
 50
269.999999999999
 51
359.999999999999
  0
ARC
  8
0
  6
CONTINUOUS
 62
0
 10
11.625
 20
2.68750000000001
 30
0.0
 40
0.230999999999997
 50
144.315710374101
 51
180.000000000001
  0
ARC
  8
0
  6
CONTINUOUS
 62
0
 10
11.03125
 20
3.1139058366
 30
0.0
 40
0.499999999999997
 50
324.3157103741
 51
360
  0
ARC
  8
0
  6
CONTINUOUS
 62
0
 10
11.03125
 20
4.26109416340001
 30
0.0
 40
0.5
 50
359.999999999999
 51
35.6842896258996
  0
ARC
  8
0
  6
CONTINUOUS
 62
0
 10
11.625
 20
4.68749999999999
 30
0.0
 40
0.230999999999997
 50
179.999999999998
 51
215.684289625898
  0
ARC
  8
0
  6
CONTINUOUS
 62
0
 10
11.144
 20
5.375
 30
0.0
 40
0.25
 50
359.999999999999
 51
89.9999999999998
  0
ARC
  8
0
  6
CONTINUOUS
 62
0
 10
1.24999999999994
 20
-12.1571180556
 30
0.0
 40
18.5321180555558
 50
76.2161026326998
 51
89.9999999999998
  0
ARC
  8
0
  6
CONTINUOUS
 62
0
 10
16.2499999999999
 20
-12.1571180556
 30
0.0
 40
18.532118055556
 50
89.9999999999997
 51
103.7838973673
  0
ARC
  8
0
  6
CONTINUOUS
 62
0
 10
16.2500000000002
 20
19.5321180556
 30
0.0
 40
18.5321180555559
 50
256.216102632699
 51
269.999999999999
  0
ARC
  8
0
  6
CONTINUOUS
 62
0
 10
1.2500000000002
 20
19.5321180556
 30
0.0
 40
18.5321180555559
 50
269.999999999999
 51
283.783897367299
  0
ARC
  8
0
  6
CONTINUOUS
 62
0
 10
1.24999999999991
 20
-12.1571180555999
 30
0.0
 40
18.3446180555541
 50
76.7594933040997
 51
87.6553928177997
  0
ARC
  8
0
  6
CONTINUOUS
 62
0
 10
16.2500000000002
 20
19.5321180556
 30
0.0
 40
18.3446180555544
 50
256.759493304099
 51
267.655392817799
  0
ARC
  8
0
  6
CONTINUOUS
 62
0
 10
1.25000000000016
 20
19.5321180556
 30
0.0
 40
18.3446180555545
 50
272.344607182199
 51
283.2405066959
  0
ARC
  8
0
  6
CONTINUOUS
 62
0
 10
16.2499999999999
 20
-12.1571180556
 30
0.0
 40
18.3446180555543
 50
92.3446071821998
 51
103.2405066959
  0
ENDSEC
  0
EOF
