  0
SECTION
  2
HEADER
  9
$ACADVER
  1
AC1003
  9
$EXTMIN
 10
-0.02190798060709
 20
1.45306684628233
  9
$EXTMAX
 10
1.61823700653996
 20
0.0412243414456272
  9
$INSUNITS
 70
1
  9
$INSBASE
 10
0.798164512966435
 20
0.747145593863979
999
Created with OMAX Layout for Windows. (www.omax.com) 2/26/2016
  0
ENDSEC
  0
SECTION
  2
TABLES
  0
TABLE
  2
LAYER
 70
    10
  0
LAYER
  2
0
 70
     0
 62
     7
  6
CONTINUOUS
  0
LAYER
  2
1
 70
     0
 62
     7
  6
CONTINUOUS
  0
LAYER
  2
2
 70
     0
 62
     7
  6
CONTINUOUS
  0
LAYER
  2
3
 70
     0
 62
     7
  6
CONTINUOUS
  0
LAYER
  2
4
 70
     0
 62
     7
  6
CONTINUOUS
  0
LAYER
  2
5
 70
     0
 62
     7
  6
CONTINUOUS
  0
LAYER
  2
6
 70
     0
 62
     7
  6
CONTINUOUS
  0
LAYER
  2
7
 70
     0
 62
     7
  6
CONTINUOUS
  0
LAYER
  2
8
 70
     0
 62
     7
  6
CONTINUOUS
  0
LAYER
  2
9
 70
     0
 62
     7
  6
CONTINUOUS
  0
LAYER
  2
10
 70
     0
 62
     7
  6
CONTINUOUS
  0
LAYER
  2
11
 70
     0
 62
     7
  6
CONTINUOUS
  0
LAYER
  2
12
 70
     0
 62
     7
  6
CONTINUOUS
  0
LAYER
  2
13
 70
     0
 62
     7
  6
CONTINUOUS
  0
LAYER
  2
14
 70
     0
 62
     7
  6
CONTINUOUS
  0
LAYER
  2
15
 70
     0
 62
     7
  6
CONTINUOUS
  0
LAYER
  2
16
 70
     0
 62
     7
  6
CONTINUOUS
  0
LAYER
  2
17
 70
     0
 62
     7
  6
CONTINUOUS
  0
LAYER
  2
18
 70
     0
 62
     7
  6
CONTINUOUS
  0
LAYER
  2
19
 70
     0
 62
     7
  6
CONTINUOUS
  0
LAYER
  2
20
 70
     0
 62
     7
  6
CONTINUOUS
  0
LAYER
  2
21
 70
     0
 62
     7
  6
CONTINUOUS
  0
LAYER
  2
22
 70
     0
 62
     7
  6
CONTINUOUS
  0
LAYER
  2
23
 70
     0
 62
     7
  6
CONTINUOUS
  0
LAYER
  2
24
 70
     0
 62
     7
  6
CONTINUOUS
  0
LAYER
  2
25
 70
     0
 62
     7
  6
CONTINUOUS
  0
LAYER
  2
26
 70
     0
 62
     7
  6
CONTINUOUS
  0
LAYER
  2
27
 70
     0
 62
     7
  6
CONTINUOUS
  0
LAYER
  2
28
 70
     0
 62
     7
  6
CONTINUOUS
  0
LAYER
  2
29
 70
     0
 62
     7
  6
CONTINUOUS
  0
LAYER
  2
30
 70
     0
 62
     7
  6
CONTINUOUS
  0
LAYER
  2
31
 70
     0
 62
     7
  6
CONTINUOUS
  0
ENDTAB
  0
ENDSEC
  0
SECTION
  2
ENTITIES
  0
LINE
  8
0
  6
CONTINUOUS
 62
0
 10
-0.02190798060709
 20
0.0413575980352007
 30
0.0
 11
1.40357632410546
 21
0.266313570672329
 31
0.0
  0
LINE
  8
0
  6
CONTINUOUS
 62
0
 10
1.39730603717169
 20
0.310021930366535
 30
0.0
 11
1.40357632410546
 21
1.06631357067233
 31
0.0
  0
LINE
  8
0
  6
CONTINUOUS
 62
0
 10
1.39730603717169
 20
1.11002193036653
 30
0.0
 11
1.39294409843516
 21
1.44108157468291
 31
0.0
  0
LINE
  8
0
  6
CONTINUOUS
 62
0
 10
0.845983543598169
 20
0.316014566166247
 30
0.0
 11
0.852253830531935
 21
1.07230620647204
 31
0.0
  0
LINE
  8
0
  6
CONTINUOUS
 62
0
 10
0.845983543598169
 20
1.11601456616625
 30
0.0
 11
0.841621604861638
 21
1.44707421048262
 31
0.0
  0
LINE
  8
0
  6
CONTINUOUS
 62
0
 10
0.294661050024644
 20
0.32200720196596
 30
0.0
 11
0.30093133695841
 21
1.07829884227175
 31
0.0
  0
LINE
  8
0
  6
CONTINUOUS
 62
0
 10
0.294661050024644
 20
1.12200720196596
 30
0.0
 11
0.290299111288113
 21
1.45306684628233
 31
0.0
  0
LINE
  8
0
  6
CONTINUOUS
 62
0
 10
0.299022988761179
 20
1.35316202412415
 30
0.0
 11
0.07809201939291
 21
1.45306684628233
 31
0.0
  0
ARC
  8
3
  6
CONTINUOUS
 62
3
 10
1.39948700653365
 20
0.266224341451941
 30
0.0
 40
0.0937499999936866
 50
89.9999999961408
 51
180.000000003858
  0
ARC
  8
3
  6
CONTINUOUS
 62
3
 10
1.39948700653996
 20
0.266224341445627
 30
0.0
 40
0.09375
 50
179.999999999998
 51
359.999999999998
  0
ARC
  8
3
  6
CONTINUOUS
 62
3
 10
1.39948700654627
 20
0.266224341451942
 30
0.0
 40
0.0937499999936866
 50
359.99999999614
 51
90.0000000038577
  0
ARC
  8
3
  6
CONTINUOUS
 62
3
 10
1.39948700653365
 20
1.06622434145194
 30
0.0
 40
0.0937499999936867
 50
89.9999999961408
 51
180.000000003858
  0
ARC
  8
3
  6
CONTINUOUS
 62
3
 10
1.39948700653996
 20
1.06622434144563
 30
0.0
 40
0.09375
 50
179.999999999998
 51
359.999999999998
  0
ARC
  8
3
  6
CONTINUOUS
 62
3
 10
1.39948700654627
 20
1.06622434145194
 30
0.0
 40
0.0937499999936867
 50
359.99999999614
 51
90.0000000038577
  0
ARC
  8
3
  6
CONTINUOUS
 62
3
 10
1.39948700653505
 20
1.07247434144072
 30
0.0
 40
0.218750000004912
 50
1.28519938052062E-9
 51
89.9999999987128
  0
LINE
  8
3
  6
CONTINUOUS
 62
3
 10
1.61823700653996
 20
1.07247434144563
 30
0.0
 11
1.61823700653996
 21
0.259974341445628
 31
0.0
  0
ARC
  8
3
  6
CONTINUOUS
 62
3
 10
1.39948700653996
 20
0.259974341445629
 30
0.0
 40
0.21875
 50
179.999999999999
 51
359.999999999999
  0
LINE
  8
3
  6
CONTINUOUS
 62
3
 10
1.18073700653996
 20
0.259974341445628
 30
0.0
 11
1.18073700653996
 21
1.07247434144563
 31
0.0
  0
ARC
  8
3
  6
CONTINUOUS
 62
3
 10
1.39948700654487
 20
1.07247434144071
 30
0.0
 40
0.218750000004912
 50
90.0000000012858
 51
179.999999998713
  0
ARC
  8
3
  6
CONTINUOUS
 62
3
 10
0.848164512960121
 20
0.272216977251654
 30
0.0
 40
0.0937499999936866
 50
89.9999999961408
 51
180.000000003858
  0
ARC
  8
3
  6
CONTINUOUS
 62
3
 10
0.848164512966435
 20
0.272216977245339
 30
0.0
 40
0.09375
 50
179.999999999998
 51
359.999999999998
  0
ARC
  8
3
  6
CONTINUOUS
 62
3
 10
0.848164512972748
 20
0.272216977251655
 30
0.0
 40
0.0937499999936866
 50
359.99999999614
 51
90.0000000038577
  0
ARC
  8
3
  6
CONTINUOUS
 62
3
 10
0.848164512960121
 20
1.07221697725165
 30
0.0
 40
0.0937499999936867
 50
89.9999999961408
 51
180.000000003858
  0
ARC
  8
3
  6
CONTINUOUS
 62
3
 10
0.848164512966435
 20
1.07221697724534
 30
0.0
 40
0.09375
 50
179.999999999998
 51
359.999999999998
  0
ARC
  8
3
  6
CONTINUOUS
 62
3
 10
0.848164512972748
 20
1.07221697725165
 30
0.0
 40
0.0937499999936867
 50
359.99999999614
 51
90.0000000038577
  0
ARC
  8
3
  6
CONTINUOUS
 62
3
 10
0.848164512961521
 20
1.07846697724043
 30
0.0
 40
0.218750000004912
 50
1.28519938052062E-9
 51
89.9999999987128
  0
LINE
  8
3
  6
CONTINUOUS
 62
3
 10
1.06691451296644
 20
1.07846697724534
 30
0.0
 11
1.06691451296644
 21
0.26596697724534
 31
0.0
  0
ARC
  8
3
  6
CONTINUOUS
 62
3
 10
0.848164512966435
 20
0.265966977245341
 30
0.0
 40
0.21875
 50
179.999999999999
 51
359.999999999999
  0
LINE
  8
3
  6
CONTINUOUS
 62
3
 10
0.629414512966435
 20
0.26596697724534
 30
0.0
 11
0.629414512966435
 21
1.07846697724534
 31
0.0
  0
ARC
  8
3
  6
CONTINUOUS
 62
3
 10
0.848164512971347
 20
1.07846697724043
 30
0.0
 40
0.218750000004912
 50
90.0000000012858
 51
179.999999998713
  0
ARC
  8
3
  6
CONTINUOUS
 62
3
 10
0.296842019386596
 20
0.278209613051366
 30
0.0
 40
0.0937499999936866
 50
89.9999999961408
 51
180.000000003858
  0
ARC
  8
3
  6
CONTINUOUS
 62
3
 10
0.29684201939291
 20
0.278209613045052
 30
0.0
 40
0.09375
 50
179.999999999998
 51
359.999999999998
  0
ARC
  8
3
  6
CONTINUOUS
 62
3
 10
0.296842019399223
 20
0.278209613051367
 30
0.0
 40
0.0937499999936866
 50
359.99999999614
 51
90.0000000038577
  0
ARC
  8
3
  6
CONTINUOUS
 62
3
 10
0.296842019386596
 20
1.07820961305137
 30
0.0
 40
0.0937499999936867
 50
89.9999999961408
 51
180.000000003858
  0
ARC
  8
3
  6
CONTINUOUS
 62
3
 10
0.29684201939291
 20
1.07820961304505
 30
0.0
 40
0.09375
 50
179.999999999998
 51
359.999999999998
  0
ARC
  8
3
  6
CONTINUOUS
 62
3
 10
0.296842019399223
 20
1.07820961305137
 30
0.0
 40
0.0937499999936867
 50
359.99999999614
 51
90.0000000038577
  0
ARC
  8
3
  6
CONTINUOUS
 62
3
 10
0.296842019387996
 20
1.08445961304014
 30
0.0
 40
0.218750000004912
 50
1.28525026939552E-9
 51
89.9999999987128
  0
LINE
  8
3
  6
CONTINUOUS
 62
3
 10
0.51559201939291
 20
1.08445961304505
 30
0.0
 11
0.51559201939291
 21
0.271959613045053
 31
0.0
  0
ARC
  8
3
  6
CONTINUOUS
 62
3
 10
0.29684201939291
 20
0.271959613045053
 30
0.0
 40
0.21875
 50
179.999999999999
 51
359.999999999999
  0
LINE
  8
3
  6
CONTINUOUS
 62
3
 10
0.0780920193929101
 20
0.271959613045053
 30
0.0
 11
0.0780920193929101
 21
1.08445961304505
 31
0.0
  0
ARC
  8
3
  6
CONTINUOUS
 62
3
 10
0.296842019397822
 20
1.08445961304014
 30
0.0
 40
0.218750000004912
 50
90.0000000012858
 51
179.999999998713
  0
LINE
  8
9
  6
CONTINUOUS
 62
9
 10
1.40357632410546
 20
0.266313570672329
 30
0.0
 11
1.39948700653996
 21
0.359974341445628
 31
0.0
  0
LINE
  8
9
  6
CONTINUOUS
 62
9
 10
1.39948700653996
 20
0.359974341445628
 30
0.0
 11
1.39730603717169
 21
0.310021930366535
 31
0.0
  0
LINE
  8
9
  6
CONTINUOUS
 62
9
 10
1.40357632410546
 20
1.06631357067233
 30
0.0
 11
1.39948700653996
 21
1.15997434144563
 31
0.0
  0
LINE
  8
9
  6
CONTINUOUS
 62
9
 10
1.39948700653996
 20
1.15997434144563
 30
0.0
 11
1.39730603717169
 21
1.11002193036653
 31
0.0
  0
LINE
  8
9
  6
CONTINUOUS
 62
9
 10
1.39294409843516
 20
1.44108157468291
 30
0.0
 11
1.39948700653996
 21
1.29122434144563
 31
0.0
  0
LINE
  8
9
  6
CONTINUOUS
 62
9
 10
1.39948700653996
 20
1.29122434144563
 30
0.0
 11
1.40166797590823
 21
1.34117675252472
 31
0.0
  0
LINE
  8
9
  6
CONTINUOUS
 62
9
 10
0.852253830531935
 20
0.272306206472041
 30
0.0
 11
0.848164512966436
 21
0.36596697724534
 31
0.0
  0
LINE
  8
9
  6
CONTINUOUS
 62
9
 10
0.848164512966436
 20
0.36596697724534
 30
0.0
 11
0.845983543598169
 21
0.316014566166247
 31
0.0
  0
LINE
  8
9
  6
CONTINUOUS
 62
9
 10
0.852253830531935
 20
1.07230620647204
 30
0.0
 11
0.848164512966436
 21
1.16596697724534
 31
0.0
  0
LINE
  8
9
  6
CONTINUOUS
 62
9
 10
0.848164512966436
 20
1.16596697724534
 30
0.0
 11
0.845983543598169
 21
1.11601456616625
 31
0.0
  0
LINE
  8
9
  6
CONTINUOUS
 62
9
 10
0.841621604861638
 20
1.44707421048262
 30
0.0
 11
0.848164512966437
 21
1.29721697724534
 31
0.0
  0
LINE
  8
9
  6
CONTINUOUS
 62
9
 10
0.848164512966437
 20
1.29721697724534
 30
0.0
 11
0.850345482334704
 21
1.34716938832443
 31
0.0
  0
LINE
  8
9
  6
CONTINUOUS
 62
9
 10
0.30093133695841
 20
0.278298842271753
 30
0.0
 11
0.296842019392911
 21
0.371959613045053
 31
0.0
  0
LINE
  8
9
  6
CONTINUOUS
 62
9
 10
0.296842019392911
 20
0.371959613045053
 30
0.0
 11
0.294661050024644
 21
0.32200720196596
 31
0.0
  0
LINE
  8
9
  6
CONTINUOUS
 62
9
 10
0.30093133695841
 20
1.07829884227175
 30
0.0
 11
0.296842019392911
 21
1.17195961304505
 31
0.0
  0
LINE
  8
9
  6
CONTINUOUS
 62
9
 10
0.296842019392911
 20
1.17195961304505
 30
0.0
 11
0.294661050024644
 21
1.12200720196596
 31
0.0
  0
LINE
  8
9
  6
CONTINUOUS
 62
9
 10
0.290299111288113
 20
1.45306684628233
 30
0.0
 11
0.296842019392912
 21
1.30320961304505
 31
0.0
  0
LINE
  8
9
  6
CONTINUOUS
 62
9
 10
0.296842019392912
 20
1.30320961304505
 30
0.0
 11
0.299022988761179
 21
1.35316202412415
 31
0.0
  0
LINE
  8
10
  6
CONTINUOUS
 62
10
 10
1.40166797590823
 20
1.34117675252472
 30
0.0
 11
0.852253830531935
 21
0.272306206472041
 31
0.0
  0
LINE
  8
10
  6
CONTINUOUS
 62
10
 10
0.850345482334704
 20
1.34716938832443
 30
0.0
 11
0.30093133695841
 21
0.278298842271753
 31
0.0
  0
ENDSEC
  0
EOF
