  0
SECTION
  2
HEADER
  9
$ACADVER
  1
AC1003
  9
$EXTMIN
 10
1
 20
2.75
  9
$EXTMAX
 10
3.125
 20
1
  9
$INSUNITS
 70
1
  9
$INSBASE
 10
2.0625
 20
1.875
999
Created with OMAX Layout for Windows. (www.omax.com) 2/25/2016
  0
ENDSEC
  0
SECTION
  2
TABLES
  0
TABLE
  2
LAYER
 70
    10
  0
LAYER
  2
0
 70
     0
 62
     7
  6
CONTINUOUS
  0
LAYER
  2
1
 70
     0
 62
     7
  6
CONTINUOUS
  0
LAYER
  2
2
 70
     0
 62
     7
  6
CONTINUOUS
  0
LAYER
  2
3
 70
     0
 62
     7
  6
CONTINUOUS
  0
LAYER
  2
4
 70
     0
 62
     7
  6
CONTINUOUS
  0
LAYER
  2
5
 70
     0
 62
     7
  6
CONTINUOUS
  0
LAYER
  2
6
 70
     0
 62
     7
  6
CONTINUOUS
  0
LAYER
  2
7
 70
     0
 62
     7
  6
CONTINUOUS
  0
LAYER
  2
8
 70
     0
 62
     7
  6
CONTINUOUS
  0
LAYER
  2
9
 70
     0
 62
     7
  6
CONTINUOUS
  0
LAYER
  2
10
 70
     0
 62
     7
  6
CONTINUOUS
  0
LAYER
  2
11
 70
     0
 62
     7
  6
CONTINUOUS
  0
LAYER
  2
12
 70
     0
 62
     7
  6
CONTINUOUS
  0
LAYER
  2
13
 70
     0
 62
     7
  6
CONTINUOUS
  0
LAYER
  2
14
 70
     0
 62
     7
  6
CONTINUOUS
  0
LAYER
  2
15
 70
     0
 62
     7
  6
CONTINUOUS
  0
LAYER
  2
16
 70
     0
 62
     7
  6
CONTINUOUS
  0
LAYER
  2
17
 70
     0
 62
     7
  6
CONTINUOUS
  0
LAYER
  2
18
 70
     0
 62
     7
  6
CONTINUOUS
  0
LAYER
  2
19
 70
     0
 62
     7
  6
CONTINUOUS
  0
LAYER
  2
20
 70
     0
 62
     7
  6
CONTINUOUS
  0
LAYER
  2
21
 70
     0
 62
     7
  6
CONTINUOUS
  0
LAYER
  2
22
 70
     0
 62
     7
  6
CONTINUOUS
  0
LAYER
  2
23
 70
     0
 62
     7
  6
CONTINUOUS
  0
LAYER
  2
24
 70
     0
 62
     7
  6
CONTINUOUS
  0
LAYER
  2
25
 70
     0
 62
     7
  6
CONTINUOUS
  0
LAYER
  2
26
 70
     0
 62
     7
  6
CONTINUOUS
  0
LAYER
  2
27
 70
     0
 62
     7
  6
CONTINUOUS
  0
LAYER
  2
28
 70
     0
 62
     7
  6
CONTINUOUS
  0
LAYER
  2
29
 70
     0
 62
     7
  6
CONTINUOUS
  0
LAYER
  2
30
 70
     0
 62
     7
  6
CONTINUOUS
  0
LAYER
  2
31
 70
     0
 62
     7
  6
CONTINUOUS
  0
ENDTAB
  0
ENDSEC
  0
SECTION
  2
ENTITIES
  0
ARC
  8
0
  6
CONTINUOUS
 62
0
 10
2.0625
 20
1.875
 30
0.0
 40
0.0747499999999995
 50
179.999999999999
 51
359.999999999999
  0
ARC
  8
0
  6
CONTINUOUS
 62
0
 10
2.0625
 20
1.875
 30
0.0
 40
0.0747499999999995
 50
359.999999999999
 51
180
  0
LINE
  8
0
  6
CONTINUOUS
 62
0
 10
2.9375
 20
1
 30
0.0
 11
3.125
 21
1
 31
0.0
  0
LINE
  8
0
  6
CONTINUOUS
 62
0
 10
2.9375
 20
1.6
 30
0.0
 11
2.9375
 21
1
 31
0.0
  0
LINE
  8
0
  6
CONTINUOUS
 62
0
 10
2.6875
 20
1.6
 30
0.0
 11
2.9375
 21
1.6
 31
0.0
  0
LINE
  8
0
  6
CONTINUOUS
 62
0
 10
2.6875
 20
1
 30
0.0
 11
2.6875
 21
1.6
 31
0.0
  0
LINE
  8
0
  6
CONTINUOUS
 62
0
 10
2.5
 20
1
 30
0.0
 11
2.6875
 21
1
 31
0.0
  0
LINE
  8
0
  6
CONTINUOUS
 62
0
 10
2.5
 20
1
 30
0.0
 11
2.5
 21
1.4125
 31
0.0
  0
LINE
  8
0
  6
CONTINUOUS
 62
0
 10
1.8125
 20
1.6
 30
0.0
 11
2.3125
 21
1.6
 31
0.0
  0
LINE
  8
0
  6
CONTINUOUS
 62
0
 10
1.625
 20
1
 30
0.0
 11
1.625
 21
1.4125
 31
0.0
  0
LINE
  8
0
  6
CONTINUOUS
 62
0
 10
1.4375
 20
1
 30
0.0
 11
1.625
 21
1
 31
0.0
  0
LINE
  8
0
  6
CONTINUOUS
 62
0
 10
1.4375
 20
1.6
 30
0.0
 11
1.4375
 21
1
 31
0.0
  0
LINE
  8
0
  6
CONTINUOUS
 62
0
 10
1.1875
 20
1.6
 30
0.0
 11
1.4375
 21
1.6
 31
0.0
  0
LINE
  8
0
  6
CONTINUOUS
 62
0
 10
1.1875
 20
1
 30
0.0
 11
1.1875
 21
1.6
 31
0.0
  0
LINE
  8
0
  6
CONTINUOUS
 62
0
 10
1
 20
1
 30
0.0
 11
1.1875
 21
1
 31
0.0
  0
LINE
  8
0
  6
CONTINUOUS
 62
0
 10
1
 20
1.65
 30
0.0
 11
1
 21
1
 31
0.0
  0
LINE
  8
0
  6
CONTINUOUS
 62
0
 10
1.5625
 20
2.15
 30
0.0
 11
1.5
 21
2.15
 31
0.0
  0
LINE
  8
0
  6
CONTINUOUS
 62
0
 10
1.75
 20
2.75
 30
0.0
 11
1.75
 21
2.3375
 31
0.0
  0
LINE
  8
0
  6
CONTINUOUS
 62
0
 10
1.9375
 20
2.75
 30
0.0
 11
1.75
 21
2.75
 31
0.0
  0
LINE
  8
0
  6
CONTINUOUS
 62
0
 10
1.9375
 20
2.15
 30
0.0
 11
1.9375
 21
2.75
 31
0.0
  0
LINE
  8
0
  6
CONTINUOUS
 62
0
 10
2.1875
 20
2.15
 30
0.0
 11
1.9375
 21
2.15
 31
0.0
  0
LINE
  8
0
  6
CONTINUOUS
 62
0
 10
2.1875
 20
2.75
 30
0.0
 11
2.1875
 21
2.15
 31
0.0
  0
LINE
  8
0
  6
CONTINUOUS
 62
0
 10
2.375
 20
2.75
 30
0.0
 11
2.1875
 21
2.75
 31
0.0
  0
LINE
  8
0
  6
CONTINUOUS
 62
0
 10
2.375
 20
2.75
 30
0.0
 11
2.375
 21
2.3375
 31
0.0
  0
LINE
  8
0
  6
CONTINUOUS
 62
0
 10
2.5625
 20
2.15
 30
0.0
 11
2.625
 21
2.15
 31
0.0
  0
LINE
  8
0
  6
CONTINUOUS
 62
0
 10
3.125
 20
1
 30
0.0
 11
3.125
 21
1.65
 31
0.0
  0
ARC
  8
0
  6
CONTINUOUS
 62
0
 10
2.3125
 20
1.4125
 30
0.0
 40
0.1875
 50
359.999999999999
 51
89.9999999999998
  0
ARC
  8
0
  6
CONTINUOUS
 62
0
 10
1.8125
 20
1.4125
 30
0.0
 40
0.1875
 50
89.9999999999998
 51
180
  0
ARC
  8
0
  6
CONTINUOUS
 62
0
 10
1.5
 20
1.65
 30
0.0
 40
0.500000000000001
 50
89.9999999999999
 51
180
  0
ARC
  8
0
  6
CONTINUOUS
 62
0
 10
1.5625
 20
2.3375
 30
0.0
 40
0.1875
 50
269.999999999999
 51
359.999999999999
  0
ARC
  8
0
  6
CONTINUOUS
 62
0
 10
2.5625
 20
2.3375
 30
0.0
 40
0.1875
 50
179.999999999999
 51
269.999999999999
  0
ARC
  8
0
  6
CONTINUOUS
 62
0
 10
2.625
 20
1.65000000000001
 30
0.0
 40
0.5
 50
359.999999999999
 51
89.9999999999998
  0
ENDSEC
  0
EOF
