  0
SECTION
  2
HEADER
  9
$ACADVER
  1
AC1003
  9
$EXTMIN
 10
1
 20
4.2745
  9
$EXTMAX
 10
3.7745
 20
1
  9
$INSUNITS
 70
1
  9
$INSBASE
 10
2.38725
 20
2.63725
999
Created with OMAX Layout for Windows. (www.omax.com) 2/25/2016
  0
ENDSEC
  0
SECTION
  2
TABLES
  0
TABLE
  2
LAYER
 70
    10
  0
LAYER
  2
0
 70
     0
 62
     7
  6
CONTINUOUS
  0
LAYER
  2
1
 70
     0
 62
     7
  6
CONTINUOUS
  0
LAYER
  2
2
 70
     0
 62
     7
  6
CONTINUOUS
  0
LAYER
  2
3
 70
     0
 62
     7
  6
CONTINUOUS
  0
LAYER
  2
4
 70
     0
 62
     7
  6
CONTINUOUS
  0
LAYER
  2
5
 70
     0
 62
     7
  6
CONTINUOUS
  0
LAYER
  2
6
 70
     0
 62
     7
  6
CONTINUOUS
  0
LAYER
  2
7
 70
     0
 62
     7
  6
CONTINUOUS
  0
LAYER
  2
8
 70
     0
 62
     7
  6
CONTINUOUS
  0
LAYER
  2
9
 70
     0
 62
     7
  6
CONTINUOUS
  0
LAYER
  2
10
 70
     0
 62
     7
  6
CONTINUOUS
  0
LAYER
  2
11
 70
     0
 62
     7
  6
CONTINUOUS
  0
LAYER
  2
12
 70
     0
 62
     7
  6
CONTINUOUS
  0
LAYER
  2
13
 70
     0
 62
     7
  6
CONTINUOUS
  0
LAYER
  2
14
 70
     0
 62
     7
  6
CONTINUOUS
  0
LAYER
  2
15
 70
     0
 62
     7
  6
CONTINUOUS
  0
LAYER
  2
16
 70
     0
 62
     7
  6
CONTINUOUS
  0
LAYER
  2
17
 70
     0
 62
     7
  6
CONTINUOUS
  0
LAYER
  2
18
 70
     0
 62
     7
  6
CONTINUOUS
  0
LAYER
  2
19
 70
     0
 62
     7
  6
CONTINUOUS
  0
LAYER
  2
20
 70
     0
 62
     7
  6
CONTINUOUS
  0
LAYER
  2
21
 70
     0
 62
     7
  6
CONTINUOUS
  0
LAYER
  2
22
 70
     0
 62
     7
  6
CONTINUOUS
  0
LAYER
  2
23
 70
     0
 62
     7
  6
CONTINUOUS
  0
LAYER
  2
24
 70
     0
 62
     7
  6
CONTINUOUS
  0
LAYER
  2
25
 70
     0
 62
     7
  6
CONTINUOUS
  0
LAYER
  2
26
 70
     0
 62
     7
  6
CONTINUOUS
  0
LAYER
  2
27
 70
     0
 62
     7
  6
CONTINUOUS
  0
LAYER
  2
28
 70
     0
 62
     7
  6
CONTINUOUS
  0
LAYER
  2
29
 70
     0
 62
     7
  6
CONTINUOUS
  0
LAYER
  2
30
 70
     0
 62
     7
  6
CONTINUOUS
  0
LAYER
  2
31
 70
     0
 62
     7
  6
CONTINUOUS
  0
ENDTAB
  0
ENDSEC
  0
SECTION
  2
ENTITIES
  0
ARC
  8
0
  6
CONTINUOUS
 62
0
 10
3.0059684335
 20
3.2559684335
 30
0.0
 40
0.074749999999999
 50
179.999999999999
 51
359.999999999999
  0
ARC
  8
0
  6
CONTINUOUS
 62
0
 10
3.0059684335
 20
3.2559684335
 30
0.0
 40
0.074749999999999
 50
359.999999999999
 51
180
  0
ARC
  8
0
  6
CONTINUOUS
 62
0
 10
2.38725
 20
2.63725
 30
0.0
 40
0.1953
 50
179.999999999999
 51
359.999999999999
  0
ARC
  8
0
  6
CONTINUOUS
 62
0
 10
2.38725
 20
2.63725
 30
0.0
 40
0.1953
 50
359.999999999999
 51
180
  0
ARC
  8
0
  6
CONTINUOUS
 62
0
 10
3.51225
 20
1.26225
 30
0.0
 40
0.0747500000000003
 50
179.999999999999
 51
359.999999999999
  0
ARC
  8
0
  6
CONTINUOUS
 62
0
 10
3.51225
 20
1.26225
 30
0.0
 40
0.0747500000000003
 50
359.999999999999
 51
180
  0
ARC
  8
0
  6
CONTINUOUS
 62
0
 10
2.76225
 20
1.26225
 30
0.0
 40
0.0747499999999999
 50
179.999999999999
 51
359.999999999999
  0
ARC
  8
0
  6
CONTINUOUS
 62
0
 10
2.76225
 20
1.26225
 30
0.0
 40
0.0747499999999999
 50
359.999999999999
 51
180
  0
ARC
  8
0
  6
CONTINUOUS
 62
0
 10
2.01225
 20
4.01225
 30
0.0
 40
0.074749999999999
 50
179.999999999999
 51
359.999999999999
  0
ARC
  8
0
  6
CONTINUOUS
 62
0
 10
2.01225
 20
4.01225
 30
0.0
 40
0.074749999999999
 50
359.999999999999
 51
180
  0
ARC
  8
0
  6
CONTINUOUS
 62
0
 10
2.76225
 20
4.01225
 30
0.0
 40
0.074749999999999
 50
179.999999999999
 51
359.999999999999
  0
ARC
  8
0
  6
CONTINUOUS
 62
0
 10
2.76225
 20
4.01225
 30
0.0
 40
0.074749999999999
 50
359.999999999999
 51
180
  0
ARC
  8
0
  6
CONTINUOUS
 62
0
 10
1.26225
 20
1.26225
 30
0.0
 40
0.0747500000000001
 50
179.999999999999
 51
359.999999999999
  0
ARC
  8
0
  6
CONTINUOUS
 62
0
 10
1.26225
 20
1.26225
 30
0.0
 40
0.0747500000000001
 50
359.999999999999
 51
180
  0
ARC
  8
0
  6
CONTINUOUS
 62
0
 10
2.01225
 20
1.26225
 30
0.0
 40
0.0747499999999999
 50
179.999999999999
 51
359.999999999999
  0
ARC
  8
0
  6
CONTINUOUS
 62
0
 10
2.01225
 20
1.26225
 30
0.0
 40
0.0747499999999999
 50
359.999999999999
 51
180
  0
ARC
  8
0
  6
CONTINUOUS
 62
0
 10
1.7685315665
 20
2.0185315665
 30
0.0
 40
0.0747500000000001
 50
179.999999999999
 51
359.999999999999
  0
ARC
  8
0
  6
CONTINUOUS
 62
0
 10
1.7685315665
 20
2.0185315665
 30
0.0
 40
0.0747500000000001
 50
359.999999999999
 51
180
  0
ARC
  8
0
  6
CONTINUOUS
 62
0
 10
3.0059684335
 20
2.0185315665
 30
0.0
 40
0.0747500000000001
 50
179.999999999999
 51
359.999999999999
  0
ARC
  8
0
  6
CONTINUOUS
 62
0
 10
3.0059684335
 20
2.0185315665
 30
0.0
 40
0.0747500000000001
 50
359.999999999999
 51
180
  0
ARC
  8
0
  6
CONTINUOUS
 62
0
 10
1.7685315665
 20
3.2559684335
 30
0.0
 40
0.0747500000000001
 50
179.999999999999
 51
359.999999999999
  0
ARC
  8
0
  6
CONTINUOUS
 62
0
 10
1.7685315665
 20
3.2559684335
 30
0.0
 40
0.0747500000000001
 50
359.999999999999
 51
180
  0
LINE
  8
0
  6
CONTINUOUS
 62
0
 10
2.01225
 20
4.2745
 30
0.0
 11
2.76225
 21
4.2745
 31
0.0
  0
LINE
  8
0
  6
CONTINUOUS
 62
0
 10
3.0118590424
 20
4.0926887248
 30
0.0
 11
3.220016498
 21
3.4467562679
 31
0.0
  0
LINE
  8
0
  6
CONTINUOUS
 62
0
 10
3.2682184335
 20
3.1400309111
 30
0.0
 11
3.2682184335
 21
2.4020294081
 31
0.0
  0
LINE
  8
0
  6
CONTINUOUS
 62
0
 10
3.4372315189
 20
1.8457374455
 30
0.0
 11
3.7301763184
 21
1.4081375672
 31
0.0
  0
LINE
  8
0
  6
CONTINUOUS
 62
0
 10
1.26225
 20
1
 30
0.0
 11
3.51225
 21
1
 31
0.0
  0
LINE
  8
0
  6
CONTINUOUS
 62
0
 10
1.3372684811
 20
1.8457374455
 30
0.0
 11
1.0443236816
 21
1.4081375672
 31
0.0
  0
LINE
  8
0
  6
CONTINUOUS
 62
0
 10
1.5062815665
 20
3.1400309111
 30
0.0
 11
1.5062815665
 21
2.4020294081
 31
0.0
  0
LINE
  8
0
  6
CONTINUOUS
 62
0
 10
1.7626409576
 20
4.0926887248
 30
0.0
 11
1.554483502
 21
3.4467562679
 31
0.0
  0
ARC
  8
0
  6
CONTINUOUS
 62
0
 10
2.01225
 20
4.01225
 30
0.0
 40
0.262250000000001
 50
90.0000000000001
 51
162.1380043427
  0
ARC
  8
0
  6
CONTINUOUS
 62
0
 10
2.76225
 20
4.01225
 30
0.0
 40
0.262250000000001
 50
17.8619956572993
 51
89.9999999999992
  0
ARC
  8
0
  6
CONTINUOUS
 62
0
 10
2.2682184335
 20
3.14003091110001
 30
0.0
 40
0.999999999999989
 50
359.999999999999
 51
17.8619956572998
  0
ARC
  8
0
  6
CONTINUOUS
 62
0
 10
4.2682184335
 20
2.40202940809999
 30
0.0
 40
1
 50
179.999999999999
 51
213.799748134399
  0
ARC
  8
0
  6
CONTINUOUS
 62
0
 10
3.51225
 20
1.26225
 30
0.0
 40
0.262250000000002
 50
270
 51
33.7997481343999
  0
ARC
  8
0
  6
CONTINUOUS
 62
0
 10
1.26225
 20
1.26225
 30
0.0
 40
0.26225
 50
146.200251865599
 51
269.999999999999
  0
ARC
  8
0
  6
CONTINUOUS
 62
0
 10
0.506281566500006
 20
2.40202940810001
 30
0.0
 40
0.999999999999999
 50
326.200251865699
 51
359.999999999999
  0
ARC
  8
0
  6
CONTINUOUS
 62
0
 10
2.50628156649999
 20
3.1400309111
 30
0.0
 40
0.999999999999989
 50
162.1380043427
 51
180
  0
ENDSEC
  0
EOF
