  0
SECTION
  2
HEADER
  9
$ACADVER
  1
AC1015
  9
$ACADMAINTVER
 70
     6
  9
$DWGCODEPAGE
  3
ANSI_1252
  9
$INSBASE
 10
0.0
 20
0.0
 30
0.0
  9
$EXTMIN
 10
-11.2914198814
 20
-6.5
 30
0.0
  9
$EXTMAX
 10
7.7081170043
 20
6.4995541263
 30
0.0
  9
$LIMMIN
 10
0.0
 20
0.0
  9
$LIMMAX
 10
12.0
 20
9.0
  9
$ORTHOMODE
 70
     0
  9
$REGENMODE
 70
     1
  9
$FILLMODE
 70
     1
  9
$QTEXTMODE
 70
     0
  9
$MIRRTEXT
 70
     1
  9
$LTSCALE
 40
1.0
  9
$ATTMODE
 70
     1
  9
$TEXTSIZE
 40
0.125
  9
$TRACEWID
 40
0.05
  9
$TEXTSTYLE
  7
Standard
  9
$CLAYER
  8
0
  9
$CELTYPE
  6
ByLayer
  9
$CECOLOR
 62
   256
  9
$CELTSCALE
 40
1.0
  9
$DISPSILH
 70
     0
  9
$DIMSCALE
 40
1.0
  9
$DIMASZ
 40
0.13
  9
$DIMEXO
 40
0.05
  9
$DIMDLI
 40
0.38
  9
$DIMRND
 40
0.0
  9
$DIMDLE
 40
0.0
  9
$DIMEXE
 40
0.125
  9
$DIMTP
 40
0.0
  9
$DIMTM
 40
0.0
  9
$DIMTXT
 40
0.125
  9
$DIMCEN
 40
0.09
  9
$DIMTSZ
 40
0.0
  9
$DIMTOL
 70
     0
  9
$DIMLIM
 70
     0
  9
$DIMTIH
 70
     1
  9
$DIMTOH
 70
     1
  9
$DIMSE1
 70
     0
  9
$DIMSE2
 70
     0
  9
$DIMTAD
 70
     0
  9
$DIMZIN
 70
     0
  9
$DIMBLK
  1

  9
$DIMASO
 70
     1
  9
$DIMSHO
 70
     1
  9
$DIMPOST
  1

  9
$DIMAPOST
  1

  9
$DIMALT
 70
     0
  9
$DIMALTD
 70
     2
  9
$DIMALTF
 40
25.4
  9
$DIMLFAC
 40
1.0
  9
$DIMTOFL
 70
     0
  9
$DIMTVP
 40
0.0
  9
$DIMTIX
 70
     0
  9
$DIMSOXD
 70
     0
  9
$DIMSAH
 70
     0
  9
$DIMBLK1
  1

  9
$DIMBLK2
  1

  9
$DIMSTYLE
  2
Standard
  9
$DIMCLRD
 70
     0
  9
$DIMCLRE
 70
     0
  9
$DIMCLRT
 70
     0
  9
$DIMTFAC
 40
1.0
  9
$DIMGAP
 40
0.06
  9
$DIMJUST
 70
     0
  9
$DIMSD1
 70
     0
  9
$DIMSD2
 70
     0
  9
$DIMTOLJ
 70
     1
  9
$DIMTZIN
 70
     0
  9
$DIMALTZ
 70
     0
  9
$DIMALTTZ
 70
     0
  9
$DIMUPT
 70
     0
  9
$DIMDEC
 70
     2
  9
$DIMTDEC
 70
     2
  9
$DIMALTU
 70
     2
  9
$DIMALTTD
 70
     2
  9
$DIMTXSTY
  7
Standard
  9
$DIMAUNIT
 70
     0
  9
$DIMADEC
 70
     2
  9
$DIMALTRND
 40
0.0
  9
$DIMAZIN
 70
     0
  9
$DIMDSEP
 70
    46
  9
$DIMATFIT
 70
     3
  9
$DIMFRAC
 70
     0
  9
$DIMLDRBLK
  1

  9
$DIMLUNIT
 70
     2
  9
$DIMLWD
 70
    -2
  9
$DIMLWE
 70
    -2
  9
$DIMTMOVE
 70
     0
  9
$LUNITS
 70
     2
  9
$LUPREC
 70
     2
  9
$SKETCHINC
 40
0.1
  9
$FILLETRAD
 40
0.5
  9
$AUNITS
 70
     0
  9
$AUPREC
 70
     2
  9
$MENU
  1
.
  9
$ELEVATION
 40
0.0
  9
$PELEVATION
 40
0.0
  9
$THICKNESS
 40
0.0
  9
$LIMCHECK
 70
     0
  9
$CHAMFERA
 40
0.0
  9
$CHAMFERB
 40
0.0
  9
$CHAMFERC
 40
0.0
  9
$CHAMFERD
 40
0.0
  9
$SKPOLY
 70
     0
  9
$TDCREATE
 40
2457445.230402153
  9
$TDUCREATE
 40
2457445.438735486
  9
$TDUPDATE
 40
2457445.230431551
  9
$TDUUPDATE
 40
2457445.438764884
  9
$TDINDWG
 40
0.0000000116
  9
$TDUSRTIMER
 40
0.0000000116
  9
$USRTIMER
 70
     1
  9
$ANGBASE
 50
0.0
  9
$ANGDIR
 70
     0
  9
$PDMODE
 70
     0
  9
$PDSIZE
 40
-1.0
  9
$PLINEWID
 40
0.0
  9
$SPLFRAME
 70
     0
  9
$SPLINETYPE
 70
     6
  9
$SPLINESEGS
 70
     8
  9
$HANDSEED
  5
2C8
  9
$SURFTAB1
 70
     6
  9
$SURFTAB2
 70
     6
  9
$SURFTYPE
 70
     6
  9
$SURFU
 70
     6
  9
$SURFV
 70
     6
  9
$UCSBASE
  2

  9
$UCSNAME
  2

  9
$UCSORG
 10
0.0
 20
0.0
 30
0.0
  9
$UCSXDIR
 10
1.0
 20
0.0
 30
0.0
  9
$UCSYDIR
 10
0.0
 20
1.0
 30
0.0
  9
$UCSORTHOREF
  2

  9
$UCSORTHOVIEW
 70
     0
  9
$UCSORGTOP
 10
0.0
 20
0.0
 30
0.0
  9
$UCSORGBOTTOM
 10
0.0
 20
0.0
 30
0.0
  9
$UCSORGLEFT
 10
0.0
 20
0.0
 30
0.0
  9
$UCSORGRIGHT
 10
0.0
 20
0.0
 30
0.0
  9
$UCSORGFRONT
 10
0.0
 20
0.0
 30
0.0
  9
$UCSORGBACK
 10
0.0
 20
0.0
 30
0.0
  9
$PUCSBASE
  2

  9
$PUCSNAME
  2

  9
$PUCSORG
 10
0.0
 20
0.0
 30
0.0
  9
$PUCSXDIR
 10
1.0
 20
0.0
 30
0.0
  9
$PUCSYDIR
 10
0.0
 20
1.0
 30
0.0
  9
$PUCSORTHOREF
  2

  9
$PUCSORTHOVIEW
 70
     0
  9
$PUCSORGTOP
 10
0.0
 20
0.0
 30
0.0
  9
$PUCSORGBOTTOM
 10
0.0
 20
0.0
 30
0.0
  9
$PUCSORGLEFT
 10
0.0
 20
0.0
 30
0.0
  9
$PUCSORGRIGHT
 10
0.0
 20
0.0
 30
0.0
  9
$PUCSORGFRONT
 10
0.0
 20
0.0
 30
0.0
  9
$PUCSORGBACK
 10
0.0
 20
0.0
 30
0.0
  9
$USERI1
 70
     0
  9
$USERI2
 70
     0
  9
$USERI3
 70
     0
  9
$USERI4
 70
     0
  9
$USERI5
 70
     0
  9
$USERR1
 40
0.0
  9
$USERR2
 40
0.0
  9
$USERR3
 40
0.0
  9
$USERR4
 40
0.0
  9
$USERR5
 40
0.0
  9
$WORLDVIEW
 70
     1
  9
$SHADEDGE
 70
     3
  9
$SHADEDIF
 70
    70
  9
$TILEMODE
 70
     1
  9
$MAXACTVP
 70
    64
  9
$PINSBASE
 10
0.0
 20
0.0
 30
0.0
  9
$PLIMCHECK
 70
     0
  9
$PEXTMIN
 10
1.0000000000E+20
 20
1.0000000000E+20
 30
1.0000000000E+20
  9
$PEXTMAX
 10
-1.0000000000E+20
 20
-1.0000000000E+20
 30
-1.0000000000E+20
  9
$PLIMMIN
 10
0.0
 20
0.0
  9
$PLIMMAX
 10
12.0
 20
9.0
  9
$UNITMODE
 70
     0
  9
$VISRETAIN
 70
     1
  9
$PLINEGEN
 70
     0
  9
$PSLTSCALE
 70
     1
  9
$TREEDEPTH
 70
  3020
  9
$CMLSTYLE
  2
Standard
  9
$CMLJUST
 70
     0
  9
$CMLSCALE
 40
1.0
  9
$PROXYGRAPHICS
 70
     1
  9
$MEASUREMENT
 70
     0
  9
$CELWEIGHT
370
    -1
  9
$ENDCAPS
280
     0
  9
$JOINSTYLE
280
     0
  9
$LWDISPLAY
290
     1
  9
$INSUNITS
 70
     1
  9
$HYPERLINKBASE
  1

  9
$STYLESHEET
  1

  9
$XEDIT
290
     1
  9
$CEPSNTYPE
380
     0
  9
$PSTYLEMODE
290
     1
  9
$FINGERPRINTGUID
  2
{6BAA18D2-2078-43CB-A24C-8C9D714B1CF0}
  9
$VERSIONGUID
  2
{FAEB1C32-E019-11D5-929B-00C0DF256EC4}
  9
$EXTNAMES
290
     1
  9
$PSVPSCALE
 40
0.0
  9
$OLESTARTUP
290
     0
  0
ENDSEC
  0
SECTION
  2
CLASSES
  0
CLASS
  1
ACDBDICTIONARYWDFLT
  2
AcDbDictionaryWithDefault
  3
ObjectDBX Classes
 90
        0
280
     0
281
     0
  0
CLASS
  1
VISUALSTYLE
  2
AcDbVisualStyle
  3
ObjectDBX Classes
 90
     4095
280
     0
281
     0
  0
CLASS
  1
MATERIAL
  2
AcDbMaterial
  3
ObjectDBX Classes
 90
     1153
280
     0
281
     0
  0
CLASS
  1
SCALE
  2
AcDbScale
  3
ObjectDBX Classes
 90
     1153
280
     0
281
     0
  0
CLASS
  1
TABLESTYLE
  2
AcDbTableStyle
  3
ObjectDBX Classes
 90
     4095
280
     0
281
     0
  0
CLASS
  1
MLEADERSTYLE
  2
AcDbMLeaderStyle
  3
ACDB_MLEADERSTYLE_CLASS
 90
     4095
280
     0
281
     0
  0
CLASS
  1
SUN
  2
AcDbSun
  3
SCENEOE
 90
     1153
280
     0
281
     0
  0
CLASS
  1
ACDBPLACEHOLDER
  2
AcDbPlaceHolder
  3
ObjectDBX Classes
 90
        0
280
     0
281
     0
  0
CLASS
  1
LAYOUT
  2
AcDbLayout
  3
ObjectDBX Classes
 90
        0
280
     0
281
     0
  0
ENDSEC
  0
SECTION
  2
TABLES
  0
TABLE
  2
VPORT
  5
8
330
0
100
AcDbSymbolTable
 70
     1
  0
VPORT
  5
29
330
8
100
AcDbSymbolTableRecord
100
AcDbViewportTableRecord
  2
*Active
 70
     0
 10
0.0
 20
0.0
 11
1.0
 21
1.0
 12
-1.7916514385
 22
-0.0002229369
 13
0.0
 23
0.0
 14
0.5
 24
0.5
 15
0.5
 25
0.5
 16
0.0
 26
0.0
 36
1.0
 17
0.0
 27
0.0
 37
0.0
 40
13.2595452088
 41
1.4615529657
 42
50.0
 43
0.0
 44
0.0
 50
0.0
 51
0.0
 71
     0
 72
   100
 73
     1
 74
     3
 75
     0
 76
     0
 77
     0
 78
     0
281
     0
 65
     1
110
0.0
120
0.0
130
0.0
111
1.0
121
0.0
131
0.0
112
0.0
122
1.0
132
0.0
 79
     0
146
0.0
  0
ENDTAB
  0
TABLE
  2
LTYPE
  5
5
330
0
100
AcDbSymbolTable
 70
     6
  0
LTYPE
  5
14
330
5
100
AcDbSymbolTableRecord
100
AcDbLinetypeTableRecord
  2
ByBlock
 70
     0
  3

 72
    65
 73
     0
 40
0.0
  0
LTYPE
  5
15
330
5
100
AcDbSymbolTableRecord
100
AcDbLinetypeTableRecord
  2
ByLayer
 70
     0
  3

 72
    65
 73
     0
 40
0.0
  0
LTYPE
  5
16
330
5
100
AcDbSymbolTableRecord
100
AcDbLinetypeTableRecord
  2
Continuous
 70
     0
  3
Solid line
 72
    65
 73
     0
 40
0.0
  0
LTYPE
  5
6E
330
5
100
AcDbSymbolTableRecord
100
AcDbLinetypeTableRecord
  2
HIDDEN
 70
     0
  3
Hidden __ __ __ __ __ __ __ __ __ __ __ __ __ __
 72
    65
 73
     2
 40
0.075
 49
0.05
 74
     0
 49
-0.025
 74
     0
  0
LTYPE
  5
6F
330
5
100
AcDbSymbolTableRecord
100
AcDbLinetypeTableRecord
  2
PHANTOM
 70
     0
  3
Phantom ______  __  __  ______  __  __  ______
 72
    65
 73
     6
 40
0.5
 49
0.25
 74
     0
 49
-0.05
 74
     0
 49
0.05
 74
     0
 49
-0.05
 74
     0
 49
0.05
 74
     0
 49
-0.05
 74
     0
  0
LTYPE
  5
70
330
5
100
AcDbSymbolTableRecord
100
AcDbLinetypeTableRecord
  2
CENTER
 70
     0
  3
Center ____ _ ____ _ ____ _ ____ _ ____ _ ____
 72
    65
 73
     4
 40
0.4
 49
0.25
 74
     0
 49
-0.05
 74
     0
 49
0.05
 74
     0
 49
-0.05
 74
     0
  0
LTYPE
  5
71
330
5
100
AcDbSymbolTableRecord
100
AcDbLinetypeTableRecord
  2
CENTERX2
 70
     0
  3
Center (2x) ________  __  ________  __  _____
 72
    65
 73
     4
 40
0.8
 49
0.5
 74
     0
 49
-0.1
 74
     0
 49
0.1
 74
     0
 49
-0.1
 74
     0
  0
LTYPE
  5
72
330
5
100
AcDbSymbolTableRecord
100
AcDbLinetypeTableRecord
  2
DOT2
 70
     0
  3
Dot (.5x) ........................................
 72
    65
 73
     2
 40
0.025
 49
0.0
 74
     0
 49
-0.025
 74
     0
  0
ENDTAB
  0
TABLE
  2
LAYER
  5
2
330
0
100
AcDbSymbolTable
 70
     1
  0
LAYER
  5
10
330
2
100
AcDbSymbolTableRecord
100
AcDbLayerTableRecord
  2
0
 70
     0
 62
     7
  6
Continuous
370
    -3
390
F
  0
ENDTAB
  0
TABLE
  2
STYLE
  5
3
330
0
100
AcDbSymbolTable
 70
     2
  0
STYLE
  5
11
330
3
100
AcDbSymbolTableRecord
100
AcDbTextStyleTableRecord
  2
Standard
 70
     0
 40
0.0
 41
1.0
 50
0.0
 71
     0
 42
0.125
  3
txt
  4

  0
STYLE
  5
2C5
330
3
100
AcDbSymbolTableRecord
100
AcDbTextStyleTableRecord
  2
SLDTEXTSTYLE0
 70
     0
 40
0.0
 41
0.7
 50
0.0
 71
     0
 42
0.125
  3
TXT
  4

  0
ENDTAB
  0
TABLE
  2
VIEW
  5
6
330
0
100
AcDbSymbolTable
 70
     0
  0
ENDTAB
  0
TABLE
  2
UCS
  5
7
330
0
100
AcDbSymbolTable
 70
     0
  0
ENDTAB
  0
TABLE
  2
APPID
  5
9
330
0
100
AcDbSymbolTable
 70
     1
  0
APPID
  5
12
330
9
100
AcDbSymbolTableRecord
100
AcDbRegAppTableRecord
  2
ACAD
 70
     0
  0
ENDTAB
  0
TABLE
  2
DIMSTYLE
  5
A
330
0
100
AcDbSymbolTable
 70
     1
100
AcDbDimStyleTable
  0
DIMSTYLE
105
27
330
A
100
AcDbSymbolTableRecord
100
AcDbDimStyleTableRecord
  2
Standard
 70
     0
178
     0
340
11
  0
ENDTAB
  0
TABLE
  2
BLOCK_RECORD
  5
1
330
0
100
AcDbSymbolTable
 70
     1
  0
BLOCK_RECORD
  5
1F
330
1
100
AcDbSymbolTableRecord
100
AcDbBlockTableRecord
  2
*Model_Space
340
22
  0
BLOCK_RECORD
  5
1B
330
1
100
AcDbSymbolTableRecord
100
AcDbBlockTableRecord
  2
*Paper_Space
340
1E
  0
BLOCK_RECORD
  5
23
330
1
100
AcDbSymbolTableRecord
100
AcDbBlockTableRecord
  2
*Paper_Space0
340
26
  0
ENDTAB
  0
ENDSEC
  0
SECTION
  2
BLOCKS
  0
BLOCK
  5
20
330
1F
100
AcDbEntity
  8
0
100
AcDbBlockBegin
  2
*Model_Space
 70
     0
 10
0.0
 20
0.0
 30
0.0
  3
*Model_Space
  1

  0
ENDBLK
  5
21
330
1F
100
AcDbEntity
  8
0
100
AcDbBlockEnd
  0
BLOCK
  5
1C
330
1B
100
AcDbEntity
 67
     1
  8
0
100
AcDbBlockBegin
  2
*Paper_Space
 70
     0
 10
0.0
 20
0.0
 30
0.0
  3
*Paper_Space
  1

  0
ENDBLK
  5
1D
330
1B
100
AcDbEntity
 67
     1
  8
0
100
AcDbBlockEnd
  0
BLOCK
  5
24
330
23
100
AcDbEntity
  8
0
100
AcDbBlockBegin
  2
*Paper_Space0
 70
     0
 10
0.0
 20
0.0
 30
0.0
  3
*Paper_Space0
  1

  0
ENDBLK
  5
25
330
23
100
AcDbEntity
  8
0
100
AcDbBlockEnd
  0
ENDSEC
  0
SECTION
  2
ENTITIES
  0
LWPOLYLINE
  5
9E
330
1F
100
AcDbEntity
  8
0
  6
Continuous
 62
     7
370
    15
100
AcDbPolyline
 90
       73
 70
   128
 43
0.0
 10
7.1327616894
 20
5.0390346134
 10
6.8187572392
 20
5.1810697972
 10
6.4962240599
 20
5.31662463
 10
6.1655655681
 20
5.4455295633
 10
5.8271953429
 20
5.5676233661
 10
5.4815366092
 20
5.6827533265
 10
5.1290217083
 20
5.7907754428
 10
4.7700915568
 20
5.8915546038
 10
4.4051950956
 20
5.9849647574
 10
4.0347887278
 20
6.0708890686
 10
3.6593357484
 20
6.1492200654
 10
3.2793057645
 20
6.2198597733
 10
2.8951741079
 20
6.2827198381
 10
2.5074212408
 20
6.3377216359
 10
2.1165321547
 20
6.3847963719
 10
1.7229957637
 20
6.4238851662
 10
1.3273042933
 20
6.4549391276
 10
0.9299526642
 20
6.4779194144
 10
0.5314378739
 20
6.4927972836
 10
0.1322583745
 20
6.4995541263
 10
-0.2670865502
 20
6.4981814912
 10
-0.6660974099
 20
6.4886810951
 10
-1.0642751318
 20
6.471064821
 10
-1.4611216854
 20
6.4453547028
 10
-1.8561407048
 20
6.411582898
 10
-2.2488381105
 20
6.3697916476
 10
-2.6387227264
 20
6.3200332231
 10
-3.0253068947
 20
6.2623698609
 10
-3.4081070857
 20
6.1968736851
 10
-3.7866445026
 20
6.1236266165
 10
-4.1604456804
 20
6.0427202707
 10
-4.529043078
 20
5.9542558433
 10
-4.8919756632
 20
5.8583439834
 10
-5.2487894891
 20
5.7551046552
 10
-5.5990382619
 20
5.6446669877
 10
-5.9422838994
 20
5.5271691136
 10
-6.2780970785
 20
5.4027579962
 10
-6.6060577727
 20
5.2715892459
 10
-6.9257557771
 20
5.1338269252
 10
-7.2367912215
 20
4.9896433438
 10
-7.5387750705
 20
4.8392188427
 10
-7.8313296105
 20
4.6827415691
 10
-8.1140889216
 20
4.520407241
 10
-8.3866993357
 20
4.3524189019
 10
-8.6488198785
 20
4.1789866673
 10
-8.9001226963
 20
4.000327462
 10
-9.1402934659
 20
3.8166647484
 10
-9.3690317878
 20
3.6282282471
 10
-9.5860515618
 20
3.4352536498
 10
-9.7910813452
 20
3.2379823241
 10
-9.9838646919
 20
3.0366610121
 10
-10.1641604733
 20
2.8315415214
 10
-10.33174318
 20
2.6228804101
 10
-10.4864032038
 20
2.4109386665
 10
-10.6279471
 20
2.1959813818
 10
-10.7561978288
 20
1.9782774192
 10
-10.8709949777
 20
1.7580990772
 10
-10.9721949613
 20
1.5357217494
 10
-11.059671201
 20
1.3114235797
 10
-11.133314284
 20
1.0854851146
 10
-11.1930320992
 20
0.8581889522
 10
-11.2387499532
 20
0.6298193888
 10
-11.2704106632
 20
0.4006620632
 10
-11.2879746288
 20
0.1710035996
 10
-11.2914198814
 20
-0.0588687509
 10
-11.2807421118
 20
-0.2886674699
 10
-11.2559546755
 20
-0.5181051309
 10
-11.217088576
 20
-0.7468947592
 10
-11.164192426
 20
-0.9747501903
 10
-11.0973323867
 20
-1.2013864286
 10
-11.0165920849
 20
-1.4265200032
 10
-10.9220725085
 20
-1.6498693227
 10
-10.8138918803
 20
-1.8711550273
  0
SPLINE
  5
139
330
1F
100
AcDbEntity
  8
0
  6
Continuous
 62
     7
370
    15
100
AcDbSpline
210
0.0
220
0.0
230
1.0
 70
     8
 71
     3
 72
    28
 73
    24
 74
     0
 42
0.000000001
 43
0.00000001
 40
0.6723454612895503
 40
0.6723454612895503
 40
0.6723454612895503
 40
0.6723454612895503
 40
0.6766856221707165
 40
0.6766856221707165
 40
0.6844981221707166
 40
0.6844981221707166
 40
0.6923106221707167
 40
0.6923106221707167
 40
0.7079356221707168
 40
0.7079356221707168
 40
0.739185622170717
 40
0.739185622170717
 40
0.7548106221707171
 40
0.7548106221707171
 40
0.7626231221707171
 40
0.7626231221707171
 40
0.7704356221707171
 40
0.7704356221707171
 40
0.8016856221707168
 40
0.8016856221707168
 40
0.8329356221707165
 40
0.8329356221707165
 40
0.8480901608811634
 40
0.8480901608811634
 40
0.8480901608811634
 40
0.8480901608811634
 10
-10.56315816550947
 20
1.675390520379754
 30
0.0
 10
-10.54792764352149
 20
1.705507987369697
 30
0.0
 10
-10.53233048951964
 20
1.735481142419991
 30
0.0
 10
-10.48765195382192
 20
1.819011551831553
 30
0.0
 10
-10.45775076062825
 20
1.872264197964182
 30
0.0
 10
-10.39570582129499
 20
1.977813180598626
 30
0.0
 10
-10.36374168522912
 20
2.02980628388626
 30
0.0
 10
-10.26519266360781
 20
2.18358115496895
 30
0.0
 10
-10.19595687374938
 20
2.283163221371241
 30
0.0
 10
-9.978743345318152
 20
2.574021278085918
 30
0.0
 10
-9.82131355146217
 20
2.757454020663018
 30
0.0
 10
-9.569300286279264
 20
3.019435505215479
 30
0.0
 10
-9.482635600281263
 20
3.104555198506358
 30
0.0
 10
-9.348919345243443
 20
3.229148551328051
 30
0.0
 10
-9.303687198541937
 20
3.270197721693429
 30
0.0
 10
-9.212453517276975
 20
3.350923034569478
 30
0.0
 10
-9.166407146117711
 20
3.390642805578174
 30
0.0
 10
-8.934133202231383
 20
3.586185233670265
 30
0.0
 10
-8.741814995757307
 20
3.732891938691539
 30
0.0
 10
-8.346235297667642
 20
4.009926353231144
 30
0.0
 10
-8.14296212891919
 20
4.140236585391983
 30
0.0
 10
-7.833986157211283
 20
4.323073872425724
 30
0.0
 10
-7.731952427389442
 20
4.381092489626007
 30
0.0
 10
-7.628842270054669
 20
4.437499999999999
 30
0.0
  0
SPLINE
  5
141
330
1F
100
AcDbEntity
  8
0
  6
Continuous
 62
     7
370
    15
100
AcDbSpline
210
0.0
220
0.0
230
1.0
 70
     8
 71
     3
 72
     8
 73
     4
 74
     0
 42
0.000000001
 43
0.00000001
 40
0.9975543741129085
 40
0.9975543741129085
 40
0.9975543741129085
 40
0.9975543741129085
 40
1.0
 40
1.0
 40
1.0
 40
1.0
 10
-10.53688606647397
 20
-1.726503621935862
 30
0.0
 10
-10.5457642895973
 20
-1.709501924543053
 30
0.0
 10
-10.55452345787023
 20
-1.692459036187063
 30
0.0
 10
-10.56316238392938
 20
-1.675374546060263
 30
0.0
  0
SPLINE
  5
151
330
1F
100
AcDbEntity
  8
0
  6
Continuous
 62
     7
370
    15
100
AcDbSpline
210
0.0
220
0.0
230
1.0
 70
     8
 71
     3
 72
    12
 73
     8
 74
     0
 42
0.000000001
 43
0.00000001
 40
0.9043942795412653
 40
0.9043942795412653
 40
0.9043942795412653
 40
0.9043942795412653
 40
0.9082421296342913
 40
0.9082421296342913
 40
0.9394921296342919
 40
0.9394921296342919
 40
0.941347850093025
 40
0.941347850093025
 40
0.941347850093025
 40
0.941347850093025
 10
-10.95268171815748
 20
-0.4277048615348049
 30
0.0
 10
-10.95640028805575
 20
-0.3979540965019203
 30
0.0
 10
-10.95972838906443
 20
-0.3682096800567175
 30
0.0
 10
-10.98653783469137
 20
-0.0969560961063077
 30
0.0
 10
-10.98482803125919
 20
0.1441434914900731
 30
0.0
 10
-10.95616414641878
 20
0.3991237166640459
 30
0.0
 10
-10.95446777256019
 20
0.41341501633352
 30
0.0
 10
-10.95268168823064
 20
0.4277048574110139
 30
0.0
  0
SPLINE
  5
157
330
1F
100
AcDbEntity
  8
0
  6
Continuous
 62
     7
370
    15
100
AcDbSpline
210
0.0
220
0.0
230
1.0
 70
     8
 71
     3
 72
    12
 73
     8
 74
     0
 42
0.000000001
 43
0.00000001
 40
0.4367308388964168
 40
0.4367308388964168
 40
0.4367308388964168
 40
0.4367308388964168
 40
0.4624193704460379
 40
0.4624193704460379
 40
0.524919370446038
 40
0.524919370446038
 40
0.5256885315496211
 40
0.5256885315496211
 40
0.5256885315496211
 40
0.5256885315496211
 10
-6.467994076661437
 20
4.99051509053693
 30
0.0
 10
-6.267519014424856
 20
5.073406475226474
 30
0.0
 10
-6.062015501115534
 20
5.152510409865934
 30
0.0
 10
-5.340851857768374
 20
5.410308379428247
 30
0.0
 10
-4.802750817922689
 20
5.569275972791367
 30
0.0
 10
-4.23820648328197
 20
5.703747150424117
 30
0.0
 10
-4.231340373219739
 20
5.705377954371952
 30
0.0
 10
-4.22447131474944
 20
5.707004797658605
 30
0.0
  0
SPLINE
  5
15F
330
1F
100
AcDbEntity
  8
0
  6
Continuous
 62
     7
370
    15
100
AcDbSpline
210
0.0
220
0.0
230
1.0
 70
     8
 71
     3
 72
    14
 73
    10
 74
     0
 42
0.000000001
 43
0.00000001
 40
0.2207534437668405
 40
0.2207534437668405
 40
0.2207534437668405
 40
0.2207534437668405
 40
0.2450426136258154
 40
0.2450426136258154
 40
0.3075426136258155
 40
0.3075426136258155
 40
0.3700426136258155
 40
0.3700426136258155
 40
0.3992891698589749
 40
0.3992891698589749
 40
0.3992891698589749
 40
0.3992891698589749
 10
-3.202091782077858
 20
5.916087304448564
 30
0.0
 10
-2.977218755553782
 20
5.955064279507309
 30
0.0
 10
-2.750124373116159
 20
5.989948878060924
 30
0.0
 10
-1.932408088360411
 20
6.099643673231281
 30
0.0
 10
-1.33193528057416
 20
6.150928915241022
 30
0.0
 10
-0.1242714577276157
 20
6.19657866793232
 30
0.0
 10
0.4829052032277253
 20
6.19094299763867
 30
0.0
 10
1.366884248272068
 20
6.141012342982183
 30
0.0
 10
1.647579643130624
 20
6.118881662387512
 30
0.0
 10
1.926338877789119
 20
6.090630652447385
 30
0.0
  0
SPLINE
  5
161
330
1F
100
AcDbEntity
  8
0
  6
Continuous
 62
     7
370
    15
100
AcDbSpline
210
0.0
220
0.0
230
1.0
 70
     8
 71
     3
 72
    12
 73
     8
 74
     0
 42
0.000000001
 43
0.00000001
 40
0.0491432511225523
 40
0.0491432511225523
 40
0.0491432511225523
 40
0.0491432511225523
 40
0.1088488856940803
 40
0.1088488856940803
 40
0.1713488856940803
 40
0.1713488856940803
 40
0.1847056345715279
 40
0.1847056345715279
 40
0.1847056345715279
 40
0.1847056345715279
 10
2.946693705492541
 20
5.958450309482334
 30
0.0
 10
3.503417840727125
 20
5.870269289367664
 30
0.0
 10
4.047755535691041
 20
5.757096898981739
 30
0.0
 10
5.122529465311918
 20
5.477407124030583
 30
0.0
 10
5.6511077941756
 20
5.308641681546073
 30
0.0
 10
6.258186334775005
 20
5.07569082513043
 30
0.0
 10
6.363782329446172
 20
5.033615124443082
 30
0.0
 10
6.468017390874843
 20
4.990514149620986
 30
0.0
  0
CIRCLE
  5
18E
330
1F
100
AcDbEntity
  8
0
  6
Continuous
 62
     7
370
    15
100
AcDbCircle
 10
-10.0418829957
 20
0.6875
 30
0.0
 40
0.0747500000000016
  0
CIRCLE
  5
18F
330
1F
100
AcDbEntity
  8
0
  6
Continuous
 62
     7
370
    15
100
AcDbCircle
 10
-10.9168829957
 20
0.6875
 30
0.0
 40
0.0747499999999981
  0
CIRCLE
  5
190
330
1F
100
AcDbEntity
  8
0
  6
Continuous
 62
     7
370
    15
100
AcDbCircle
 10
-10.9168829957
 20
-0.6875
 30
0.0
 40
0.0747500000000016
  0
CIRCLE
  5
191
330
1F
100
AcDbEntity
  8
0
  6
Continuous
 62
     7
370
    15
100
AcDbCircle
 10
-10.0418829957
 20
-0.6875
 30
0.0
 40
0.0747500000000016
  0
CIRCLE
  5
192
330
1F
100
AcDbEntity
  8
0
  6
Continuous
 62
     7
370
    15
100
AcDbCircle
 10
7.3331170043
 20
0.6875
 30
0.0
 40
0.0747499999999999
  0
CIRCLE
  5
193
330
1F
100
AcDbEntity
  8
0
  6
Continuous
 62
     7
370
    15
100
AcDbCircle
 10
7.3331170043
 20
-0.6875
 30
0.0
 40
0.074749999999999
  0
CIRCLE
  5
194
330
1F
100
AcDbEntity
  8
0
  6
Continuous
 62
     7
370
    15
100
AcDbCircle
 10
6.4581170043
 20
-0.6875
 30
0.0
 40
0.074749999999999
  0
CIRCLE
  5
195
330
1F
100
AcDbEntity
  8
0
  6
Continuous
 62
     7
370
    15
100
AcDbCircle
 10
6.4581170043
 20
0.6875
 30
0.0
 40
0.074749999999999
  0
CIRCLE
  5
196
330
1F
100
AcDbEntity
  8
0
  6
Continuous
 62
     7
370
    15
100
AcDbCircle
 10
-5.6678672477
 20
4.0625
 30
0.0
 40
0.0669291338582685
  0
CIRCLE
  5
197
330
1F
100
AcDbEntity
  8
0
  6
Continuous
 62
     7
370
    15
100
AcDbCircle
 10
-6.4158987437
 20
4.0625
 30
0.0
 40
0.0669291338582676
  0
CIRCLE
  5
198
330
1F
100
AcDbEntity
  8
0
  6
Continuous
 62
     7
370
    15
100
AcDbCircle
 10
-6.0418829957
 20
3.688484252
 30
0.0
 40
0.0669291338582676
  0
CIRCLE
  5
199
330
1F
100
AcDbEntity
  8
0
  6
Continuous
 62
     7
370
    15
100
AcDbCircle
 10
-6.0418829957
 20
4.436515748
 30
0.0
 40
0.0669291338582685
  0
CIRCLE
  5
19A
330
1F
100
AcDbEntity
  8
0
  6
Continuous
 62
     7
370
    15
100
AcDbCircle
 10
2.4581170043
 20
4.436515748
 30
0.0
 40
0.0669291338582667
  0
CIRCLE
  5
19B
330
1F
100
AcDbEntity
  8
0
  6
Continuous
 62
     7
370
    15
100
AcDbCircle
 10
2.8321327523
 20
4.0625
 30
0.0
 40
0.0669291338582676
  0
CIRCLE
  5
19C
330
1F
100
AcDbEntity
  8
0
  6
Continuous
 62
     7
370
    15
100
AcDbCircle
 10
2.4581170043
 20
3.688484252
 30
0.0
 40
0.0669291338582672
  0
CIRCLE
  5
19D
330
1F
100
AcDbEntity
  8
0
  6
Continuous
 62
     7
370
    15
100
AcDbCircle
 10
2.0841012563
 20
4.0625
 30
0.0
 40
0.066929133858268
  0
CIRCLE
  5
19E
330
1F
100
AcDbEntity
  8
0
  6
Continuous
 62
     7
370
    15
100
AcDbCircle
 10
-0.6678829957
 20
-2.5645
 30
0.0
 40
0.0747500000000004
  0
CIRCLE
  5
19F
330
1F
100
AcDbEntity
  8
0
  6
Continuous
 62
     7
370
    15
100
AcDbCircle
 10
-0.6678829957
 20
3.873
 30
0.0
 40
0.07475
  0
CIRCLE
  5
1A0
330
1F
100
AcDbEntity
  8
0
  6
Continuous
 62
     7
370
    15
100
AcDbCircle
 10
7.0821170043
 20
-2.5645
 30
0.0
 40
0.0747500000000008
  0
CIRCLE
  5
1A1
330
1F
100
AcDbEntity
  8
0
  6
Continuous
 62
     7
370
    15
100
AcDbCircle
 10
7.0821170043
 20
3.873
 30
0.0
 40
0.0747499999999999
  0
CIRCLE
  5
1A2
330
1F
100
AcDbEntity
  8
0
  6
Continuous
 62
     7
370
    15
100
AcDbCircle
 10
-6.0890137948
 20
-0.1448590697
 30
0.0
 40
0.0747500000000008
  0
CIRCLE
  5
1A3
330
1F
100
AcDbEntity
  8
0
  6
Continuous
 62
     7
370
    15
100
AcDbCircle
 10
-3.7765137948
 20
3.8605084228
 30
0.0
 40
0.0747500000000008
  0
CIRCLE
  5
1A4
330
1F
100
AcDbEntity
  8
0
  6
Continuous
 62
     7
370
    15
100
AcDbCircle
 10
-3.5
 20
-4.5
 30
0.0
 40
0.0885000000000002
  0
CIRCLE
  5
1A5
330
1F
100
AcDbEntity
  8
0
  6
Continuous
 62
     7
370
    15
100
AcDbCircle
 10
-2.875
 20
-3.0
 30
0.0
 40
0.0884999999999994
  0
CIRCLE
  5
1A6
330
1F
100
AcDbEntity
  8
0
  6
Continuous
 62
     7
370
    15
100
AcDbCircle
 10
-4.125
 20
-3.0
 30
0.0
 40
0.0884999999999998
  0
CIRCLE
  5
1A7
330
1F
100
AcDbEntity
  8
0
  6
Continuous
 62
     7
370
    15
100
AcDbCircle
 10
-6.1780779241
 20
-5.625
 30
0.0
 40
0.074749999999999
  0
CIRCLE
  5
1A8
330
1F
100
AcDbEntity
  8
0
  6
Continuous
 62
     7
370
    15
100
AcDbCircle
 10
-9.3030779241
 20
-5.625
 30
0.0
 40
0.0747499999999999
  0
CIRCLE
  5
1A9
330
1F
100
AcDbEntity
  8
0
  6
Continuous
 62
     7
370
    15
100
AcDbCircle
 10
-6.1780779241
 20
-2.5
 30
0.0
 40
0.0747499999999999
  0
CIRCLE
  5
1AA
330
1F
100
AcDbEntity
  8
0
  6
Continuous
 62
     7
370
    15
100
AcDbCircle
 10
-9.3030779241
 20
-2.5
 30
0.0
 40
0.0747499999999999
  0
CIRCLE
  5
1AB
330
1F
100
AcDbEntity
  8
0
  6
Continuous
 62
     7
370
    15
100
AcDbCircle
 10
-0.6678829957
 20
-0.5645
 30
0.0
 40
0.0884999999999997
  0
CIRCLE
  5
1AC
330
1F
100
AcDbEntity
  8
0
  6
Continuous
 62
     7
370
    15
100
AcDbCircle
 10
-0.6678829957
 20
-1.5645
 30
0.0
 40
0.0884999999999997
  0
CIRCLE
  5
1AD
330
1F
100
AcDbEntity
  8
0
  6
Continuous
 62
     7
370
    15
100
AcDbCircle
 10
5.9581170043
 20
-6.0
 30
0.0
 40
0.1005000000000011
  0
CIRCLE
  5
1AE
330
1F
100
AcDbEntity
  8
0
  6
Continuous
 62
     7
370
    15
100
AcDbCircle
 10
-7.7405779241
 20
-6.0
 30
0.0
 40
0.1005000000000003
  0
CIRCLE
  5
1AF
330
1F
100
AcDbEntity
  8
0
  6
Continuous
 62
     7
370
    15
100
AcDbCircle
 10
7.3331170043
 20
2.570328906
 30
0.0
 40
0.0747500000000008
  0
CIRCLE
  5
1B0
330
1F
100
AcDbEntity
  8
0
  6
Continuous
 62
     7
370
    15
100
AcDbCircle
 10
4.6730094678
 20
4.4375
 30
0.0
 40
0.0747500000000016
  0
LINE
  5
1B1
330
1F
100
AcDbEntity
  8
0
  6
Continuous
 62
     7
370
    15
100
AcDbLine
 10
7.3956170043
 20
2.9525020506
 30
0.0
 11
7.3956170043
 21
3.3095
 31
0.0
  0
LINE
  5
1B2
330
1F
100
AcDbEntity
  8
0
  6
Continuous
 62
     7
370
    15
100
AcDbLine
 10
7.0821170043
 20
3.5595
 30
0.0
 11
7.1456170043
 21
3.5595
 31
0.0
  0
LINE
  5
1B3
330
1F
100
AcDbEntity
  8
0
  6
Continuous
 62
     7
370
    15
100
AcDbLine
 10
6.7686170043
 20
4.1875
 30
0.0
 11
6.7686170043
 21
3.873
 31
0.0
  0
LINE
  5
1B4
330
1F
100
AcDbEntity
  8
0
  6
Continuous
 62
     7
370
    15
100
AcDbLine
 10
5.231850029
 20
4.4375
 30
0.0
 11
6.5186170043
 21
4.4375
 31
0.0
  0
LINE
  5
1B5
330
1F
100
AcDbEntity
  8
0
  6
Continuous
 62
     7
370
    15
100
AcDbLine
 10
5.1600357562
 20
4.2101881717
 30
0.0
 11
7.125429291
 21
2.8306477034
 31
0.0
  0
LINE
  5
1B6
330
1F
100
AcDbEntity
  8
0
  6
Continuous
 62
     7
370
    15
100
AcDbLine
 10
-1.7535107422
 20
-3.5764487108
 30
0.0
 11
-2.8748992754
 21
-4.4473423655
 31
0.0
  0
LINE
  5
1B7
330
1F
100
AcDbEntity
  8
0
  6
Continuous
 62
     7
370
    15
100
AcDbLine
 10
-1.9068535171
 20
-3.129
 30
0.0
 11
-2.5102603668
 21
-3.129
 31
0.0
  0
LINE
  5
1B8
330
1F
100
AcDbEntity
  8
0
  6
Continuous
 62
     7
370
    15
100
AcDbLine
 10
-3.1189979508
 20
-3.129
 30
0.0
 11
-3.125
 21
-3.129
 31
0.0
  0
LINE
  5
1B9
330
1F
100
AcDbEntity
  8
0
  6
Continuous
 62
     7
370
    15
100
AcDbLine
 10
-3.375
 20
-3.379
 30
0.0
 11
-3.375
 21
-4.1311490816
 31
0.0
  0
LINE
  5
1BA
330
1F
100
AcDbEntity
  8
0
  6
Continuous
 62
     7
370
    15
100
AcDbLine
 10
-3.2820166233
 20
-4.3307095766
 30
0.0
 11
-3.225690761
 21
-4.4032364295
 31
0.0
  0
LINE
  5
1BB
330
1F
100
AcDbEntity
  8
0
  6
Continuous
 62
     7
370
    15
100
AcDbLine
 10
-4.4897396332
 20
-3.129
 30
0.0
 11
-5.8030779241
 21
-3.129
 31
0.0
  0
LINE
  5
1BC
330
1F
100
AcDbEntity
  8
0
  6
Continuous
 62
     7
370
    15
100
AcDbLine
 10
-6.0530779241
 20
-3.379
 30
0.0
 11
-6.0530779241
 21
-5.2057372542
 31
0.0
  0
LINE
  5
1BD
330
1F
100
AcDbEntity
  8
0
  6
Continuous
 62
     7
370
    15
100
AcDbLine
 10
-5.8655779241
 20
-5.9375
 30
0.0
 11
-5.8655779241
 21
-5.625
 31
0.0
  0
LINE
  5
1BE
330
1F
100
AcDbEntity
  8
0
  6
Continuous
 62
     7
370
    15
100
AcDbLine
 10
-5.6155779241
 20
-6.1875
 30
0.0
 11
-5.4582826211
 21
-6.1875
 31
0.0
  0
LINE
  5
1BF
330
1F
100
AcDbEntity
  8
0
  6
Continuous
 62
     7
370
    15
100
AcDbLine
 10
-3.7057634505
 20
-5.092608762
 30
0.0
 11
-4.8449115217
 21
-5.9772948432
 31
0.0
  0
LINE
  5
1C0
330
1F
100
AcDbEntity
  8
0
  6
Continuous
 62
     7
370
    15
100
AcDbLine
 10
-3.7179833767
 20
-4.6692904234
 30
0.0
 11
-3.6616575145
 21
-4.7418172764
 31
0.0
  0
LINE
  5
1C1
330
1F
100
AcDbEntity
  8
0
  6
Continuous
 62
     7
370
    15
100
AcDbLine
 10
-3.625
 20
-3.379
 30
0.0
 11
-3.625
 21
-4.1311490816
 31
0.0
  0
LINE
  5
1C2
330
1F
100
AcDbEntity
  8
0
  6
Continuous
 62
     7
370
    15
100
AcDbLine
 10
-3.875
 20
-3.129
 30
0.0
 11
-3.8810020492
 21
-3.129
 31
0.0
  0
LINE
  5
1C3
330
1F
100
AcDbEntity
  8
0
  6
Continuous
 62
     7
370
    15
100
AcDbLine
 10
7.7081170043
 20
-4.5
 30
0.0
 11
7.7081170043
 21
4.133674524
 31
0.0
  0
LINE
  5
1C4
330
1F
100
AcDbEntity
  8
0
  6
Continuous
 62
     7
370
    15
100
AcDbLine
 10
4.0154214119
 20
-6.5
 30
0.0
 11
5.7081170043
 21
-6.5
 31
0.0
  0
LINE
  5
1C5
330
1F
100
AcDbEntity
  8
0
  6
Continuous
 62
     7
370
    15
100
AcDbLine
 10
-0.0545118963
 20
-3.6053567511
 30
0.0
 11
3.4020503125
 21
-6.2897948432
 31
0.0
  0
LINE
  5
1C6
330
1F
100
AcDbEntity
  8
0
  6
Continuous
 62
     7
370
    15
100
AcDbLine
 10
-1.2812540951
 20
-3.6053567511
 30
0.0
 11
-4.7378163039
 21
-6.2897948432
 31
0.0
  0
LINE
  5
1C7
330
1F
100
AcDbEntity
  8
0
  6
Continuous
 62
     7
370
    15
100
AcDbLine
 10
-8.9542726294
 20
-6.5
 30
0.0
 11
-5.3511874033
 21
-6.5
 31
0.0
  0
LINE
  5
1C8
330
1F
100
AcDbEntity
  8
0
  6
Continuous
 62
     7
370
    15
100
AcDbLine
 10
7.3956170043
 20
-4.5
 30
0.0
 11
7.3956170043
 21
-3.379
 31
0.0
  0
LINE
  5
1C9
330
1F
100
AcDbEntity
  8
0
  6
Continuous
 62
     7
370
    15
100
AcDbLine
 10
0.5710875257
 20
-3.129
 30
0.0
 11
7.1456170043
 21
-3.129
 31
0.0
  0
LINE
  5
1CA
330
1F
100
AcDbEntity
  8
0
  6
Continuous
 62
     7
370
    15
100
AcDbLine
 10
0.4177447508
 20
-3.5764487108
 30
0.0
 11
3.5091455303
 21
-5.9772948432
 31
0.0
  0
LINE
  5
1CB
330
1F
100
AcDbEntity
  8
0
  6
Continuous
 62
     7
370
    15
100
AcDbLine
 10
4.1225166297
 20
-6.1875
 30
0.0
 11
5.42375968
 21
-6.1875
 31
0.0
  0
LINE
  5
1CC
330
1F
100
AcDbEntity
  8
0
  6
Continuous
 62
     7
370
    15
100
AcDbLine
 10
7.3956170043
 20
-0.4328064341
 30
0.0
 11
7.3956170043
 21
0.4328064341
 31
0.0
  0
LINE
  5
1CD
330
1F
100
AcDbEntity
  8
0
  6
Continuous
 62
     7
370
    15
100
AcDbLine
 10
6.7200807423
 20
0.69975
 30
0.0
 11
7.0711532664
 21
0.69975
 31
0.0
  0
LINE
  5
1CE
330
1F
100
AcDbEntity
  8
0
  6
Continuous
 62
     7
370
    15
100
AcDbLine
 10
6.4458670043
 20
-0.4255362621
 30
0.0
 11
6.4458670043
 21
0.4255362621
 31
0.0
  0
LINE
  5
1CF
330
1F
100
AcDbEntity
  8
0
  6
Continuous
 62
     7
370
    15
100
AcDbLine
 10
7.0711532664
 20
-0.69975
 30
0.0
 11
6.7200807423
 21
-0.69975
 31
0.0
  0
LINE
  5
1D0
330
1F
100
AcDbEntity
  8
0
  6
Continuous
 62
     7
370
    15
100
AcDbLine
 10
2.6380255702
 20
3.5085756861
 30
0.0
 11
3.0120413182
 21
3.8825914341
 31
0.0
  0
LINE
  5
1D1
330
1F
100
AcDbEntity
  8
0
  6
Continuous
 62
     7
370
    15
100
AcDbLine
 10
1.9041926904
 20
3.8825914341
 30
0.0
 11
2.2782084384
 21
3.5085756861
 31
0.0
  0
LINE
  5
1D2
330
1F
100
AcDbEntity
  8
0
  6
Continuous
 62
     7
370
    15
100
AcDbLine
 10
-0.1043829957
 20
4.4375
 30
0.0
 11
1.3400996985
 21
4.4375
 31
0.0
  0
LINE
  5
1D3
330
1F
100
AcDbEntity
  8
0
  6
Continuous
 62
     7
370
    15
100
AcDbLine
 10
-0.3543829957
 20
3.873
 30
0.0
 11
-0.3543829957
 21
4.1875
 31
0.0
  0
LINE
  5
1D4
330
1F
100
AcDbEntity
  8
0
  6
Continuous
 62
     7
370
    15
100
AcDbLine
 10
-0.5116329957
 20
-0.230378858
 30
0.0
 11
-0.5116329957
 21
3.4824962388
 31
0.0
  0
LINE
  5
1D5
330
1F
100
AcDbEntity
  8
0
  6
Continuous
 62
     7
370
    15
100
AcDbLine
 10
-0.3918829957
 20
-0.5645
 30
0.0
 11
-0.3918829957
 21
-2.3623707097
 31
0.0
  0
LINE
  5
1D6
330
1F
100
AcDbEntity
  8
0
  6
Continuous
 62
     7
370
    15
100
AcDbLine
 10
0.1241851832
 20
-2.879
 30
0.0
 11
6.5186170043
 21
-2.879
 31
0.0
  0
LINE
  5
1D7
330
1F
100
AcDbEntity
  8
0
  6
Continuous
 62
     7
370
    15
100
AcDbLine
 10
6.7686170043
 20
-2.5645
 30
0.0
 11
6.7686170043
 21
-2.629
 31
0.0
  0
LINE
  5
1D8
330
1F
100
AcDbEntity
  8
0
  6
Continuous
 62
     7
370
    15
100
AcDbLine
 10
7.0821170043
 20
-2.251
 30
0.0
 11
7.1456170043
 21
-2.251
 31
0.0
  0
LINE
  5
1D9
330
1F
100
AcDbEntity
  8
0
  6
Continuous
 62
     7
370
    15
100
AcDbLine
 10
7.3956170043
 20
-2.001
 30
0.0
 11
7.3956170043
 21
-1.44975
 31
0.0
  0
LINE
  5
1DA
330
1F
100
AcDbEntity
  8
0
  6
Continuous
 62
     7
370
    15
100
AcDbLine
 10
6.4581170043
 20
-0.94975
 30
0.0
 11
6.8956170043
 21
-0.94975
 31
0.0
  0
LINE
  5
1DB
330
1F
100
AcDbEntity
  8
0
  6
Continuous
 62
     7
370
    15
100
AcDbLine
 10
6.1958670043
 20
0.6875
 30
0.0
 11
6.1958670043
 21
-0.6875
 31
0.0
  0
LINE
  5
1DC
330
1F
100
AcDbEntity
  8
0
  6
Continuous
 62
     7
370
    15
100
AcDbLine
 10
6.8956170043
 20
0.94975
 30
0.0
 11
6.4581170043
 21
0.94975
 31
0.0
  0
LINE
  5
1DD
330
1F
100
AcDbEntity
  8
0
  6
Continuous
 62
     7
370
    15
100
AcDbLine
 10
7.3956170043
 20
1.44975
 30
0.0
 11
7.3956170043
 21
2.1881557613
 31
0.0
  0
LINE
  5
1DE
330
1F
100
AcDbEntity
  8
0
  6
Continuous
 62
     7
370
    15
100
AcDbLine
 10
4.8806971811
 20
4.1771812026
 30
0.0
 11
7.0177078818
 21
2.6771799609
 31
0.0
  0
LINE
  5
1DF
330
1F
100
AcDbEntity
  8
0
  6
Continuous
 62
     7
370
    15
100
AcDbLine
 10
3.5761343101
 20
4.4375
 30
0.0
 11
4.3064885782
 21
4.4375
 31
0.0
  0
LINE
  5
1E0
330
1F
100
AcDbEntity
  8
0
  6
Continuous
 62
     7
370
    15
100
AcDbLine
 10
-4.4978739733
 20
-2.879
 30
0.0
 11
-5.8218613468
 21
-2.879
 31
0.0
  0
LINE
  5
1E1
330
1F
100
AcDbEntity
  8
0
  6
Continuous
 62
     7
370
    15
100
AcDbLine
 10
-3.2478739733
 20
-2.879
 30
0.0
 11
-3.7521260267
 21
-2.879
 31
0.0
  0
LINE
  5
1E2
330
1F
100
AcDbEntity
  8
0
  6
Continuous
 62
     7
370
    15
100
AcDbLine
 10
-1.4599511746
 20
-2.879
 30
0.0
 11
-2.5021260267
 21
-2.879
 31
0.0
  0
LINE
  5
1E3
330
1F
100
AcDbEntity
  8
0
  6
Continuous
 62
     7
370
    15
100
AcDbLine
 10
-0.9438829957
 20
-0.5645
 30
0.0
 11
-0.9438829957
 21
-2.3623707097
 31
0.0
  0
LINE
  5
1E4
330
1F
100
AcDbEntity
  8
0
  6
Continuous
 62
     7
370
    15
100
AcDbLine
 10
-0.8241329957
 20
3.4824962388
 30
0.0
 11
-0.8241329957
 21
-0.230378858
 31
0.0
  0
LINE
  5
1E5
330
1F
100
AcDbEntity
  8
0
  6
Continuous
 62
     7
370
    15
100
AcDbLine
 10
-0.9813829957
 20
4.1875
 30
0.0
 11
-0.9813829957
 21
3.873
 31
0.0
  0
LINE
  5
1E6
330
1F
100
AcDbEntity
  8
0
  6
Continuous
 62
     7
370
    15
100
AcDbLine
 10
-2.9370513663
 20
4.4375
 30
0.0
 11
-1.2313829957
 21
4.4375
 31
0.0
  0
LINE
  5
1E7
330
1F
100
AcDbEntity
  8
0
  6
Continuous
 62
     7
370
    15
100
AcDbLine
 10
-3.5050148307
 20
3.7037584228
 30
0.0
 11
-3.1535577173
 21
4.3125
 31
0.0
  0
LINE
  5
1E8
330
1F
100
AcDbEntity
  8
0
  6
Continuous
 62
     7
370
    15
100
AcDbLine
 10
-5.7704589016
 20
0.1568941904
 30
0.0
 11
-3.8785623371
 21
3.4337551627
 31
0.0
  0
LINE
  5
1E9
330
1F
100
AcDbEntity
  8
0
  6
Continuous
 62
     7
370
    15
100
AcDbLine
 10
-6.0387736039
 20
-0.6848405065
 30
0.0
 11
-5.8175148307
 21
-0.3016090697
 31
0.0
  0
LINE
  5
1EA
330
1F
100
AcDbEntity
  8
0
  6
Continuous
 62
     7
370
    15
100
AcDbLine
 10
-6.4256780331
 20
-0.9779786355
 30
0.0
 11
-6.6548984248
 21
-1.375
 31
0.0
  0
LINE
  5
1EB
330
1F
100
AcDbEntity
  8
0
  6
Continuous
 62
     7
370
    15
100
AcDbLine
 10
-5.9905779241
 20
-1.9375
 30
0.0
 11
-6.3301388983
 21
-1.9375
 31
0.0
  0
LINE
  5
1EC
330
1F
100
AcDbEntity
  8
0
  6
Continuous
 62
     7
370
    15
100
AcDbLine
 10
-5.8655779241
 20
-2.5
 30
0.0
 11
-5.8655779241
 21
-2.0625
 31
0.0
  0
LINE
  5
1ED
330
1F
100
AcDbEntity
  8
0
  6
Continuous
 62
     7
370
    15
100
AcDbLine
 10
-8.9905779241
 20
-5.9375
 30
0.0
 11
-8.9905779241
 21
-5.625
 31
0.0
  0
LINE
  5
1EE
330
1F
100
AcDbEntity
  8
0
  6
Continuous
 62
     7
370
    15
100
AcDbLine
 10
-8.7405779241
 20
-6.1875
 30
0.0
 11
-8.2749352484
 21
-6.1875
 31
0.0
  0
LINE
  5
1EF
330
1F
100
AcDbEntity
  8
0
  6
Continuous
 62
     7
370
    15
100
AcDbLine
 10
-7.2062205999
 20
-6.1875
 30
0.0
 11
-6.7405779241
 21
-6.1875
 31
0.0
  0
LINE
  5
1F0
330
1F
100
AcDbEntity
  8
0
  6
Continuous
 62
     7
370
    15
100
AcDbLine
 10
-6.4905779241
 20
-5.625
 30
0.0
 11
-6.4905779241
 21
-5.9375
 31
0.0
  0
LINE
  5
1F1
330
1F
100
AcDbEntity
  8
0
  6
Continuous
 62
     7
370
    15
100
AcDbLine
 10
-6.3030779241
 20
-2.9192627458
 30
0.0
 11
-6.3030779241
 21
-5.2057372542
 31
0.0
  0
LINE
  5
1F2
330
1F
100
AcDbEntity
  8
0
  6
Continuous
 62
     7
370
    15
100
AcDbLine
 10
-6.4905779241
 20
-2.375
 30
0.0
 11
-6.4905779241
 21
-2.5
 31
0.0
  0
LINE
  5
1F3
330
1F
100
AcDbEntity
  8
0
  6
Continuous
 62
     7
370
    15
100
AcDbLine
 10
-6.7405779241
 20
-2.125
 30
0.0
 11
-8.7405779241
 21
-2.125
 31
0.0
  0
LINE
  5
1F4
330
1F
100
AcDbEntity
  8
0
  6
Continuous
 62
     7
370
    15
100
AcDbLine
 10
-8.9905779241
 20
-2.5
 30
0.0
 11
-8.9905779241
 21
-2.375
 31
0.0
  0
LINE
  5
1F5
330
1F
100
AcDbEntity
  8
0
  6
Continuous
 62
     7
370
    15
100
AcDbLine
 10
-9.6155779241
 20
-2.375
 30
0.0
 11
-9.6155779241
 21
-2.5
 31
0.0
  0
LINE
  5
1F6
330
1F
100
AcDbEntity
  8
0
  6
Continuous
 62
     7
370
    15
100
AcDbLine
 10
-9.8655779241
 20
-2.125
 30
0.0
 11
-9.9543553217
 21
-2.125
 31
0.0
  0
LINE
  5
1F7
330
1F
100
AcDbEntity
  8
0
  6
Continuous
 62
     7
370
    15
100
AcDbLine
 10
-4.0950686881
 20
3.5587551627
 30
0.0
 11
-5.9869652525
 21
0.2818941904
 31
0.0
  0
LINE
  5
1F8
330
1F
100
AcDbEntity
  8
0
  6
Continuous
 62
     7
370
    15
100
AcDbLine
 10
-4.0218925221
 20
4.0625
 30
0.0
 11
-4.0480127589
 21
4.0172584228
 31
0.0
  0
LINE
  5
1F9
330
1F
100
AcDbEntity
  8
0
  6
Continuous
 62
     7
370
    15
100
AcDbLine
 10
-4.9238656899
 20
4.4375
 30
0.0
 11
-4.2383988731
 21
4.4375
 31
0.0
  0
LINE
  5
1FA
330
1F
100
AcDbEntity
  8
0
  6
Continuous
 62
     7
370
    15
100
AcDbLine
 10
-5.4879586818
 20
3.8825914341
 30
0.0
 11
-5.8619744298
 21
3.5085756861
 31
0.0
  0
LINE
  5
1FB
330
1F
100
AcDbEntity
  8
0
  6
Continuous
 62
     7
370
    15
100
AcDbLine
 10
-6.5958073096
 20
3.8825914341
 30
0.0
 11
-6.2217915616
 21
3.5085756861
 31
0.0
  0
LINE
  5
1FC
330
1F
100
AcDbEntity
  8
0
  6
Continuous
 62
     7
370
    15
100
AcDbLine
 10
-7.6288422701
 20
4.4375
 30
0.0
 11
-7.1599003015
 21
4.4375
 31
0.0
  0
LINE
  5
1FD
330
1F
100
AcDbEntity
  8
0
  6
Continuous
 62
     7
370
    15
100
AcDbLine
 10
-10.1169672248
 20
0.94975
 30
0.0
 11
-10.0418829957
 21
0.94975
 31
0.0
  0
LINE
  5
1FE
330
1F
100
AcDbEntity
  8
0
  6
Continuous
 62
     7
370
    15
100
AcDbLine
 10
-9.7796329957
 20
0.6875
 30
0.0
 11
-9.7796329957
 21
-0.6875
 31
0.0
  0
LINE
  5
1FF
330
1F
100
AcDbEntity
  8
0
  6
Continuous
 62
     7
370
    15
100
AcDbLine
 10
-10.0418829957
 20
-0.94975
 30
0.0
 11
-10.1169633653
 21
-0.94975
 31
0.0
  0
LINE
  5
200
330
1F
100
AcDbEntity
  8
0
  6
Continuous
 62
     7
370
    15
100
AcDbLine
 10
-10.4981615664
 20
-1.8014053254
 30
0.0
 11
-10.5368860665
 21
-1.7265036219
 31
0.0
  0
LINE
  5
201
330
1F
100
AcDbEntity
  8
0
  6
Continuous
 62
     7
370
    15
100
AcDbLine
 10
-7.5570082204
 20
-1.9375
 30
0.0
 11
-10.2756181396
 21
-1.9375
 31
0.0
  0
LINE
  5
202
330
1F
100
AcDbEntity
  8
0
  6
Continuous
 62
     7
370
    15
100
AcDbLine
 10
-6.6421843841
 20
-0.8529786355
 30
0.0
 11
-7.1239955185
 21
-1.6875
 31
0.0
  0
LINE
  5
203
330
1F
100
AcDbEntity
  8
0
  6
Continuous
 62
     7
370
    15
100
AcDbLine
 10
-6.3605127589
 20
0.0118909303
 30
0.0
 11
-6.5817715321
 21
-0.3713405065
 31
0.0
  0
LINE
  5
204
330
1F
100
AcDbEntity
  8
0
  6
Continuous
 62
     7
370
    15
100
AcDbLine
 10
-10.3038467336
 20
-0.69975
 30
0.0
 11
-10.6549192577
 21
-0.69975
 31
0.0
  0
LINE
  5
205
330
1F
100
AcDbEntity
  8
0
  6
Continuous
 62
     7
370
    15
100
AcDbLine
 10
-10.0296329957
 20
0.4255362621
 30
0.0
 11
-10.0296329957
 21
-0.4255362621
 31
0.0
  0
LINE
  5
206
330
1F
100
AcDbEntity
  8
0
  6
Continuous
 62
     7
370
    15
100
AcDbLine
 10
-10.6549192577
 20
0.69975
 30
0.0
 11
-10.3038467336
 21
0.69975
 31
0.0
  0
LINE
  5
207
330
1F
100
AcDbEntity
  8
0
  6
Continuous
 62
     7
370
    15
100
AcDbLine
 10
-6.4202314987
 20
4.75
 30
0.0
 11
-4.1380483817
 21
4.75
 31
0.0
  0
LINE
  5
208
330
1F
100
AcDbEntity
  8
0
  6
Continuous
 62
     7
370
    15
100
AcDbLine
 10
-3.7630483817
 20
5.3420992254
 30
0.0
 11
-3.7630483817
 21
5.125
 31
0.0
  0
LINE
  5
209
330
1F
100
AcDbEntity
  8
0
  6
Continuous
 62
     7
370
    15
100
AcDbLine
 10
-3.5130483817
 20
5.5465965158
 30
0.0
 11
-3.5130483817
 21
5.125
 31
0.0
  0
LINE
  5
20A
330
1F
100
AcDbEntity
  8
0
  6
Continuous
 62
     7
370
    15
100
AcDbLine
 10
-3.1380483817
 20
4.75
 30
0.0
 11
1.8885279741
 21
4.75
 31
0.0
  0
LINE
  5
20B
330
1F
100
AcDbEntity
  8
0
  6
Continuous
 62
     7
370
    15
100
AcDbLine
 10
2.2635279741
 20
5.7175417414
 30
0.0
 11
2.2635279741
 21
5.125
 31
0.0
  0
LINE
  5
20C
330
1F
100
AcDbEntity
  8
0
  6
Continuous
 62
     7
370
    15
100
AcDbLine
 10
2.513027809
 20
5.5880676525
 30
0.0
 11
2.513027809
 21
5.125
 31
0.0
  0
LINE
  5
20D
330
1F
100
AcDbEntity
  8
0
  6
Continuous
 62
     7
370
    15
100
AcDbLine
 10
2.888027809
 20
4.75
 30
0.0
 11
6.4202525373
 21
4.75
 31
0.0
  0
LINE
  5
20E
330
1F
100
AcDbEntity
  8
0
  6
Continuous
 62
     7
370
    15
100
AcDbLine
 10
6.9561170043
 20
-2.9415
 30
0.0
 11
7.2081170043
 21
-2.9415
 31
0.0
  0
LINE
  5
20F
330
1F
100
AcDbEntity
  8
0
  6
Continuous
 62
     7
370
    15
100
AcDbLine
 10
7.2081170043
 20
-2.9415
 30
0.0
 11
7.2081170043
 21
-2.752
 31
0.0
  0
LINE
  5
210
330
1F
100
AcDbEntity
  8
0
  6
Continuous
 62
     7
370
    15
100
AcDbLine
 10
7.2081170043
 20
-2.752
 30
0.0
 11
6.9561170043
 21
-2.752
 31
0.0
  0
LINE
  5
211
330
1F
100
AcDbEntity
  8
0
  6
Continuous
 62
     7
370
    15
100
AcDbLine
 10
6.9561170043
 20
-2.752
 30
0.0
 11
6.9561170043
 21
-2.9415
 31
0.0
  0
LINE
  5
212
330
1F
100
AcDbEntity
  8
0
  6
Continuous
 62
     7
370
    15
100
AcDbLine
 10
6.9561170043
 20
4.0605
 30
0.0
 11
7.2081170043
 21
4.0605
 31
0.0
  0
LINE
  5
213
330
1F
100
AcDbEntity
  8
0
  6
Continuous
 62
     7
370
    15
100
AcDbLine
 10
7.2081170043
 20
4.0605
 30
0.0
 11
7.2081170043
 21
4.25
 31
0.0
  0
LINE
  5
214
330
1F
100
AcDbEntity
  8
0
  6
Continuous
 62
     7
370
    15
100
AcDbLine
 10
7.2081170043
 20
4.25
 30
0.0
 11
6.9561170043
 21
4.25
 31
0.0
  0
LINE
  5
215
330
1F
100
AcDbEntity
  8
0
  6
Continuous
 62
     7
370
    15
100
AcDbLine
 10
6.9561170043
 20
4.25
 30
0.0
 11
6.9561170043
 21
4.0605
 31
0.0
  0
LINE
  5
216
330
1F
100
AcDbEntity
  8
0
  6
Continuous
 62
     7
370
    15
100
AcDbLine
 10
-0.7938829957
 20
4.0605
 30
0.0
 11
-0.5418829957
 21
4.0605
 31
0.0
  0
LINE
  5
217
330
1F
100
AcDbEntity
  8
0
  6
Continuous
 62
     7
370
    15
100
AcDbLine
 10
-0.5418829957
 20
4.0605
 30
0.0
 11
-0.5418829957
 21
4.25
 31
0.0
  0
LINE
  5
218
330
1F
100
AcDbEntity
  8
0
  6
Continuous
 62
     7
370
    15
100
AcDbLine
 10
-0.5418829957
 20
4.25
 30
0.0
 11
-0.7938829957
 21
4.25
 31
0.0
  0
LINE
  5
219
330
1F
100
AcDbEntity
  8
0
  6
Continuous
 62
     7
370
    15
100
AcDbLine
 10
-0.7938829957
 20
4.25
 30
0.0
 11
-0.7938829957
 21
4.0605
 31
0.0
  0
LINE
  5
21A
330
1F
100
AcDbEntity
  8
0
  6
Continuous
 62
     7
370
    15
100
AcDbLine
 10
-6.1683945939
 20
-0.534350647
 30
0.0
 11
-6.0736445939
 21
-0.3702388329
 31
0.0
  0
LINE
  5
21B
330
1F
100
AcDbEntity
  8
0
  6
Continuous
 62
     7
370
    15
100
AcDbLine
 10
-6.0736445939
 20
-0.3702388329
 30
0.0
 11
-6.2918829957
 21
-0.2442388329
 31
0.0
  0
LINE
  5
21C
330
1F
100
AcDbEntity
  8
0
  6
Continuous
 62
     7
370
    15
100
AcDbLine
 10
-6.2918829957
 20
-0.2442388329
 30
0.0
 11
-6.3866329957
 21
-0.408350647
 31
0.0
  0
LINE
  5
21D
330
1F
100
AcDbEntity
  8
0
  6
Continuous
 62
     7
370
    15
100
AcDbLine
 10
-6.3866329957
 20
-0.408350647
 30
0.0
 11
-6.1683945939
 21
-0.534350647
 31
0.0
  0
LINE
  5
21E
330
1F
100
AcDbEntity
  8
0
  6
Continuous
 62
     7
370
    15
100
AcDbLine
 10
-0.7938829957
 20
-2.9415
 30
0.0
 11
-0.5418829957
 21
-2.9415
 31
0.0
  0
LINE
  5
21F
330
1F
100
AcDbEntity
  8
0
  6
Continuous
 62
     7
370
    15
100
AcDbLine
 10
-0.5418829957
 20
-2.9415
 30
0.0
 11
-0.5418829957
 21
-2.752
 31
0.0
  0
LINE
  5
220
330
1F
100
AcDbEntity
  8
0
  6
Continuous
 62
     7
370
    15
100
AcDbLine
 10
-0.5418829957
 20
-2.752
 30
0.0
 11
-0.7938829957
 21
-2.752
 31
0.0
  0
LINE
  5
221
330
1F
100
AcDbEntity
  8
0
  6
Continuous
 62
     7
370
    15
100
AcDbLine
 10
-0.7938829957
 20
-2.752
 30
0.0
 11
-0.7938829957
 21
-2.9415
 31
0.0
  0
LINE
  5
222
330
1F
100
AcDbEntity
  8
0
  6
Continuous
 62
     7
370
    15
100
AcDbLine
 10
-3.7918829957
 20
4.085888186
 30
0.0
 11
-3.5736445939
 21
3.959888186
 31
0.0
  0
LINE
  5
223
330
1F
100
AcDbEntity
  8
0
  6
Continuous
 62
     7
370
    15
100
AcDbLine
 10
-3.5736445939
 20
3.959888186
 30
0.0
 11
-3.4788945939
 21
4.124
 31
0.0
  0
LINE
  5
224
330
1F
100
AcDbEntity
  8
0
  6
Continuous
 62
     7
370
    15
100
AcDbLine
 10
-3.4788945939
 20
4.124
 30
0.0
 11
-3.6971329957
 21
4.25
 31
0.0
  0
LINE
  5
225
330
1F
100
AcDbEntity
  8
0
  6
Continuous
 62
     7
370
    15
100
AcDbLine
 10
-3.6971329957
 20
4.25
 30
0.0
 11
-3.7918829957
 21
4.085888186
 31
0.0
  0
LINE
  5
226
330
1F
100
AcDbEntity
  8
0
  6
Continuous
 62
     7
370
    15
100
AcDbLine
 10
-9.4280779241
 20
-6.0
 30
0.0
 11
-9.1780779241
 21
-6.0
 31
0.0
  0
LINE
  5
227
330
1F
100
AcDbEntity
  8
0
  6
Continuous
 62
     7
370
    15
100
AcDbLine
 10
-9.1780779241
 20
-6.0
 30
0.0
 11
-9.1780779241
 21
-5.8125
 31
0.0
  0
LINE
  5
228
330
1F
100
AcDbEntity
  8
0
  6
Continuous
 62
     7
370
    15
100
AcDbLine
 10
-9.1780779241
 20
-5.8125
 30
0.0
 11
-9.4280779241
 21
-5.8125
 31
0.0
  0
LINE
  5
229
330
1F
100
AcDbEntity
  8
0
  6
Continuous
 62
     7
370
    15
100
AcDbLine
 10
-9.4280779241
 20
-5.8125
 30
0.0
 11
-9.4280779241
 21
-6.0
 31
0.0
  0
LINE
  5
22A
330
1F
100
AcDbEntity
  8
0
  6
Continuous
 62
     7
370
    15
100
AcDbLine
 10
-9.4280779241
 20
-2.3125
 30
0.0
 11
-9.1780779241
 21
-2.3125
 31
0.0
  0
LINE
  5
22B
330
1F
100
AcDbEntity
  8
0
  6
Continuous
 62
     7
370
    15
100
AcDbLine
 10
-9.1780779241
 20
-2.3125
 30
0.0
 11
-9.1780779241
 21
-2.125
 31
0.0
  0
LINE
  5
22C
330
1F
100
AcDbEntity
  8
0
  6
Continuous
 62
     7
370
    15
100
AcDbLine
 10
-9.1780779241
 20
-2.125
 30
0.0
 11
-9.4280779241
 21
-2.125
 31
0.0
  0
LINE
  5
22D
330
1F
100
AcDbEntity
  8
0
  6
Continuous
 62
     7
370
    15
100
AcDbLine
 10
-9.4280779241
 20
-2.125
 30
0.0
 11
-9.4280779241
 21
-2.3125
 31
0.0
  0
LINE
  5
22E
330
1F
100
AcDbEntity
  8
0
  6
Continuous
 62
     7
370
    15
100
AcDbLine
 10
-6.0530779241
 20
-2.3125
 30
0.0
 11
-6.0530779241
 21
-2.125
 31
0.0
  0
LINE
  5
22F
330
1F
100
AcDbEntity
  8
0
  6
Continuous
 62
     7
370
    15
100
AcDbLine
 10
-6.0530779241
 20
-2.125
 30
0.0
 11
-6.3030779241
 21
-2.125
 31
0.0
  0
LINE
  5
230
330
1F
100
AcDbEntity
  8
0
  6
Continuous
 62
     7
370
    15
100
AcDbLine
 10
-6.3030779241
 20
-2.125
 30
0.0
 11
-6.3030779241
 21
-2.3125
 31
0.0
  0
LINE
  5
231
330
1F
100
AcDbEntity
  8
0
  6
Continuous
 62
     7
370
    15
100
AcDbLine
 10
-6.3030779241
 20
-2.3125
 30
0.0
 11
-6.0530779241
 21
-2.3125
 31
0.0
  0
LINE
  5
232
330
1F
100
AcDbEntity
  8
0
  6
Continuous
 62
     7
370
    15
100
AcDbLine
 10
-6.0530779241
 20
-6.0
 30
0.0
 11
-6.0530779241
 21
-5.8125
 31
0.0
  0
LINE
  5
233
330
1F
100
AcDbEntity
  8
0
  6
Continuous
 62
     7
370
    15
100
AcDbLine
 10
-6.0530779241
 20
-5.8125
 30
0.0
 11
-6.3030779241
 21
-5.8125
 31
0.0
  0
LINE
  5
234
330
1F
100
AcDbEntity
  8
0
  6
Continuous
 62
     7
370
    15
100
AcDbLine
 10
-6.3030779241
 20
-5.8125
 30
0.0
 11
-6.3030779241
 21
-6.0
 31
0.0
  0
LINE
  5
235
330
1F
100
AcDbEntity
  8
0
  6
Continuous
 62
     7
370
    15
100
AcDbLine
 10
-6.3030779241
 20
-6.0
 30
0.0
 11
-6.0530779241
 21
-6.0
 31
0.0
  0
ARC
  5
236
330
1F
100
AcDbEntity
  8
0
  6
Continuous
 62
     7
370
    15
100
AcDbCircle
 10
7.1972435639
 20
2.9329595317
 30
0.0
 40
0.1249999999999997
100
AcDbArc
 50
234.9343827856
 51
290.5403846281
  0
ARC
  5
237
330
1F
100
AcDbEntity
  8
0
  6
Continuous
 62
     7
370
    15
100
AcDbCircle
 10
7.3331170043
 20
2.570328906
 30
0.0
 40
0.2622500000000382
100
AcDbArc
 50
99.2878442361
 51
110.5403846281
  0
ARC
  5
238
330
1F
100
AcDbEntity
  8
0
  6
Continuous
 62
     7
370
    15
100
AcDbCircle
 10
7.2706170043
 20
2.9525020506
 30
0.0
 40
0.1250000000000011
100
AcDbArc
 50
279.2878442361
 51
0.0
  0
ARC
  5
239
330
1F
100
AcDbEntity
  8
0
  6
Continuous
 62
     7
370
    15
100
AcDbCircle
 10
7.1456170043
 20
3.3095
 30
0.0
 40
0.2500000000000022
100
AcDbArc
 50
0.0
 51
90.0
  0
ARC
  5
23A
330
1F
100
AcDbEntity
  8
0
  6
Continuous
 62
     7
370
    15
100
AcDbCircle
 10
7.0821170043
 20
3.873
 30
0.0
 40
0.3134999999999994
100
AcDbArc
 50
180.0
 51
270.0
  0
ARC
  5
23B
330
1F
100
AcDbEntity
  8
0
  6
Continuous
 62
     7
370
    15
100
AcDbCircle
 10
6.5186170043
 20
4.1875
 30
0.0
 40
0.2500000000000009
100
AcDbArc
 50
0.0
 51
90.0
  0
ARC
  5
23C
330
1F
100
AcDbEntity
  8
0
  6
Continuous
 62
     7
370
    15
100
AcDbCircle
 10
5.231850029
 20
4.3125
 30
0.0
 40
0.1250000000000009
100
AcDbArc
 50
90.0
 51
234.9343827856
  0
ARC
  5
23D
330
1F
100
AcDbEntity
  8
0
  6
Continuous
 62
     7
370
    15
100
AcDbCircle
 10
-3.0282420502
 20
-4.2498936546
 30
0.0
 40
0.2500000000000011
100
AcDbArc
 50
217.8336565899
 51
307.8336565899
  0
ARC
  5
23E
330
1F
100
AcDbEntity
  8
0
  6
Continuous
 62
     7
370
    15
100
AcDbCircle
 10
-1.9068535171
 20
-3.379
 30
0.0
 40
0.2500000000000006
100
AcDbArc
 50
307.8336565899
 51
90.0
  0
ARC
  5
23F
330
1F
100
AcDbEntity
  8
0
  6
Continuous
 62
     7
370
    15
100
AcDbCircle
 10
-2.5102603668
 20
-3.379
 30
0.0
 40
0.2500000000000047
100
AcDbArc
 50
90.0
 51
133.9015527846
  0
ARC
  5
240
330
1F
100
AcDbEntity
  8
0
  6
Continuous
 62
     7
370
    15
100
AcDbCircle
 10
-2.875
 20
-3.0
 30
0.0
 40
0.2759999999999993
100
AcDbArc
 50
207.8650932663
 51
313.9015527846
  0
ARC
  5
241
330
1F
100
AcDbEntity
  8
0
  6
Continuous
 62
     7
370
    15
100
AcDbCircle
 10
-3.125
 20
-3.379
 30
0.0
 40
0.2500000000000004
100
AcDbArc
 50
90.0
 51
180.0
  0
ARC
  5
242
330
1F
100
AcDbEntity
  8
0
  6
Continuous
 62
     7
370
    15
100
AcDbCircle
 10
-3.125
 20
-4.1311490816
 30
0.0
 40
0.249999999999996
100
AcDbArc
 50
180.0
 51
224.5263723009
  0
ARC
  5
243
330
1F
100
AcDbEntity
  8
0
  6
Continuous
 62
     7
370
    15
100
AcDbCircle
 10
-3.5
 20
-4.5
 30
0.0
 40
0.2760000000004589
100
AcDbArc
 50
37.8336565899
 51
44.5263723009
  0
ARC
  5
244
330
1F
100
AcDbEntity
  8
0
  6
Continuous
 62
     7
370
    15
100
AcDbCircle
 10
-4.125
 20
-3.0
 30
0.0
 40
0.2760000000000001
100
AcDbArc
 50
226.0984472154
 51
332.1349067337
  0
ARC
  5
245
330
1F
100
AcDbEntity
  8
0
  6
Continuous
 62
     7
370
    15
100
AcDbCircle
 10
-4.4897396332
 20
-3.379
 30
0.0
 40
0.2500000000000058
100
AcDbArc
 50
46.0984472154
 51
90.0
  0
ARC
  5
246
330
1F
100
AcDbEntity
  8
0
  6
Continuous
 62
     7
370
    15
100
AcDbCircle
 10
-5.8030779241
 20
-3.379
 30
0.0
 40
0.2500000000000009
100
AcDbArc
 50
90.0
 51
180.0
  0
ARC
  5
247
330
1F
100
AcDbEntity
  8
0
  6
Continuous
 62
     7
370
    15
100
AcDbCircle
 10
-5.8030779241
 20
-5.2057372542
 30
0.0
 40
0.2499999999999932
100
AcDbArc
 50
180.0
 51
228.1896851042
  0
ARC
  5
248
330
1F
100
AcDbEntity
  8
0
  6
Continuous
 62
     7
370
    15
100
AcDbCircle
 10
-6.1780779241
 20
-5.625
 30
0.0
 40
0.3125000000000169
100
AcDbArc
 50
0.0
 51
48.1896851042
  0
ARC
  5
249
330
1F
100
AcDbEntity
  8
0
  6
Continuous
 62
     7
370
    15
100
AcDbCircle
 10
-5.6155779241
 20
-5.9375
 30
0.0
 40
0.2500000000000009
100
AcDbArc
 50
180.0
 51
270.0
  0
ARC
  5
24A
330
1F
100
AcDbEntity
  8
0
  6
Continuous
 62
     7
370
    15
100
AcDbCircle
 10
-5.4582826211
 20
-5.1875
 30
0.0
 40
1.000000000000002
100
AcDbArc
 50
270.0
 51
307.8336565899
  0
ARC
  5
24B
330
1F
100
AcDbEntity
  8
0
  6
Continuous
 62
     7
370
    15
100
AcDbCircle
 10
-3.8591062253
 20
-4.8951600512
 30
0.0
 40
0.2499999999999989
100
AcDbArc
 50
307.8336565899
 51
37.8336565899
  0
ARC
  5
24C
330
1F
100
AcDbEntity
  8
0
  6
Continuous
 62
     7
370
    15
100
AcDbCircle
 10
-3.5
 20
-4.5
 30
0.0
 40
0.2759999999999991
100
AcDbArc
 50
135.4736276991
 51
217.8336565899
  0
ARC
  5
24D
330
1F
100
AcDbEntity
  8
0
  6
Continuous
 62
     7
370
    15
100
AcDbCircle
 10
-3.875
 20
-4.1311490816
 30
0.0
 40
0.2500000000000004
100
AcDbArc
 50
315.4736276991
 51
0.0
  0
ARC
  5
24E
330
1F
100
AcDbEntity
  8
0
  6
Continuous
 62
     7
370
    15
100
AcDbCircle
 10
-3.875
 20
-3.379
 30
0.0
 40
0.2500000000000004
100
AcDbArc
 50
0.0
 51
90.0
  0
ARC
  5
24F
330
1F
100
AcDbEntity
  8
0
  6
Continuous
 62
     7
370
    15
100
AcDbCircle
 10
6.7081170043
 20
4.133674524
 30
0.0
 40
1.0
100
AcDbArc
 50
0.0
 51
64.8718247856
  0
ARC
  5
250
330
1F
100
AcDbEntity
  8
0
  6
Continuous
 62
     7
370
    15
100
AcDbCircle
 10
5.7081170043
 20
-4.5
 30
0.0
 40
2.000000000000025
100
AcDbArc
 50
270.0
 51
0.0
  0
ARC
  5
251
330
1F
100
AcDbEntity
  8
0
  6
Continuous
 62
     7
370
    15
100
AcDbCircle
 10
4.0154214119
 20
-5.5
 30
0.0
 40
0.9999999999999991
100
AcDbArc
 50
232.1663434101
 51
270.0
  0
ARC
  5
252
330
1F
100
AcDbEntity
  8
0
  6
Continuous
 62
     7
370
    15
100
AcDbCircle
 10
-0.6678829957
 20
-4.3951515944
 30
0.0
 40
0.9999999999999951
100
AcDbArc
 50
52.1663434101
 51
127.8336565899
  0
ARC
  5
253
330
1F
100
AcDbEntity
  8
0
  6
Continuous
 62
     7
370
    15
100
AcDbCircle
 10
-5.3511874033
 20
-5.5
 30
0.0
 40
0.9999999999999929
100
AcDbArc
 50
270.0
 51
307.8336565899
  0
ARC
  5
254
330
1F
100
AcDbEntity
  8
0
  6
Continuous
 62
     7
370
    15
100
AcDbCircle
 10
-8.9542726294
 20
-5.75
 30
0.0
 40
0.75
100
AcDbArc
 50
184.0006299616
 51
270.0
  0
ARC
  5
255
330
1F
100
AcDbEntity
  8
0
  6
Continuous
 62
     7
370
    15
100
AcDbCircle
 10
-19.6780779241
 20
-6.5
 30
0.0
 40
10.00000000000012
100
AcDbArc
 50
4.0006299616
 51
27.5733960436
  0
ARC
  5
256
330
1F
100
AcDbEntity
  8
0
  6
Continuous
 62
     7
370
    15
100
AcDbCircle
 10
7.1456170043
 20
-3.379
 30
0.0
 40
0.2500000000000018
100
AcDbArc
 50
0.0
 51
90.0
  0
ARC
  5
257
330
1F
100
AcDbEntity
  8
0
  6
Continuous
 62
     7
370
    15
100
AcDbCircle
 10
0.5710875257
 20
-3.379
 30
0.0
 40
0.25
100
AcDbArc
 50
90.0
 51
232.1663434101
  0
ARC
  5
258
330
1F
100
AcDbEntity
  8
0
  6
Continuous
 62
     7
370
    15
100
AcDbCircle
 10
4.1225166297
 20
-5.1875
 30
0.0
 40
0.999999999999995
100
AcDbArc
 50
232.1663434101
 51
270.0
  0
ARC
  5
259
330
1F
100
AcDbEntity
  8
0
  6
Continuous
 62
     7
370
    15
100
AcDbCircle
 10
5.42375968
 20
-5.9375
 30
0.0
 40
0.2499999999999993
100
AcDbArc
 50
270.0
 51
353.3288286497
  0
ARC
  5
25A
330
1F
100
AcDbEntity
  8
0
  6
Continuous
 62
     7
370
    15
100
AcDbCircle
 10
5.9581170043
 20
-6.0
 30
0.0
 40
0.2879999999999993
100
AcDbArc
 50
28.5668864669
 51
173.3288286497
  0
ARC
  5
25B
330
1F
100
AcDbEntity
  8
0
  6
Continuous
 62
     7
370
    15
100
AcDbCircle
 10
6.4306206067
 20
-5.7427368163
 30
0.0
 40
0.2500000000000006
100
AcDbArc
 50
208.5668864669
 51
300.1729066043
  0
ARC
  5
25C
330
1F
100
AcDbEntity
  8
0
  6
Continuous
 62
     7
370
    15
100
AcDbCircle
 10
5.7081170043
 20
-4.5
 30
0.0
 40
1.687500000000061
100
AcDbArc
 50
300.1729066043
 51
0.0
  0
ARC
  5
25D
330
1F
100
AcDbEntity
  8
0
  6
Continuous
 62
     7
370
    15
100
AcDbCircle
 10
7.3331170043
 20
-0.6875
 30
0.0
 40
0.2622499999999995
100
AcDbArc
 50
76.2124629295
 51
182.677326177
  0
ARC
  5
25E
330
1F
100
AcDbEntity
  8
0
  6
Continuous
 62
     7
370
    15
100
AcDbCircle
 10
7.3331170043
 20
0.6875
 30
0.0
 40
0.2622500000000014
100
AcDbArc
 50
177.322673823
 51
283.7875370705
  0
ARC
  5
25F
330
1F
100
AcDbEntity
  8
0
  6
Continuous
 62
     7
370
    15
100
AcDbCircle
 10
6.4581170043
 20
0.6875
 30
0.0
 40
0.2622500000000005
100
AcDbArc
 50
267.322673823
 51
2.677326177
  0
ARC
  5
260
330
1F
100
AcDbEntity
  8
0
  6
Continuous
 62
     7
370
    15
100
AcDbCircle
 10
6.4581170043
 20
-0.6875
 30
0.0
 40
0.2622500000000015
100
AcDbArc
 50
357.322673823
 51
92.677326177
  0
ARC
  5
261
330
1F
100
AcDbEntity
  8
0
  6
Continuous
 62
     7
370
    15
100
AcDbCircle
 10
2.4581170043
 20
3.688484252
 30
0.0
 40
0.2544291338582659
100
AcDbArc
 50
225.0
 51
315.0
  0
ARC
  5
262
330
1F
100
AcDbEntity
  8
0
  6
Continuous
 62
     7
370
    15
100
AcDbCircle
 10
2.0841012563
 20
4.0625
 30
0.0
 40
0.2544291338582803
100
AcDbArc
 50
189.5372153276
 51
225.0
  0
ARC
  5
263
330
1F
100
AcDbEntity
  8
0
  6
Continuous
 62
     7
370
    15
100
AcDbCircle
 10
1.3400996985
 20
3.9375
 30
0.0
 40
0.4999999999999996
100
AcDbArc
 50
9.5372153276
 51
90.0
  0
ARC
  5
264
330
1F
100
AcDbEntity
  8
0
  6
Continuous
 62
     7
370
    15
100
AcDbCircle
 10
-0.1043829957
 20
4.1875
 30
0.0
 40
0.2499999999999986
100
AcDbArc
 50
90.0
 51
180.0
  0
ARC
  5
265
330
1F
100
AcDbEntity
  8
0
  6
Continuous
 62
     7
370
    15
100
AcDbCircle
 10
-0.6678829957
 20
3.873
 30
0.0
 40
0.3134999999999994
100
AcDbArc
 50
316.1321886892
 51
0.0
  0
ARC
  5
266
330
1F
100
AcDbEntity
  8
0
  6
Continuous
 62
     7
370
    15
100
AcDbCircle
 10
-0.2616329957
 20
3.4824962388
 30
0.0
 40
0.2499999999999989
100
AcDbArc
 50
136.1321886892
 51
180.0
  0
ARC
  5
267
330
1F
100
AcDbEntity
  8
0
  6
Continuous
 62
     7
370
    15
100
AcDbCircle
 10
-0.2616329957
 20
-0.230378858
 30
0.0
 40
0.2500000000000029
100
AcDbArc
 50
180.0
 51
219.4356576945
  0
ARC
  5
268
330
1F
100
AcDbEntity
  8
0
  6
Continuous
 62
     7
370
    15
100
AcDbCircle
 10
-0.6678829957
 20
-0.5645
 30
0.0
 40
0.276
100
AcDbArc
 50
0.0
 51
39.4356576945
  0
ARC
  5
269
330
1F
100
AcDbEntity
  8
0
  6
Continuous
 62
     7
370
    15
100
AcDbCircle
 10
-0.1418829957
 20
-2.3623707097
 30
0.0
 40
0.2500000000000023
100
AcDbArc
 50
180.0
 51
201.0205804809
  0
ARC
  5
26A
330
1F
100
AcDbEntity
  8
0
  6
Continuous
 62
     7
370
    15
100
AcDbCircle
 10
-0.6678829957
 20
-2.5645
 30
0.0
 40
0.3134999999999641
100
AcDbArc
 50
13.1809433352
 51
21.0205804809
  0
ARC
  5
26B
330
1F
100
AcDbEntity
  8
0
  6
Continuous
 62
     7
370
    15
100
AcDbCircle
 10
0.1241851832
 20
-2.379
 30
0.0
 40
0.4999999999999996
100
AcDbArc
 50
193.1809433352
 51
270.0
  0
ARC
  5
26C
330
1F
100
AcDbEntity
  8
0
  6
Continuous
 62
     7
370
    15
100
AcDbCircle
 10
6.5186170043
 20
-2.629
 30
0.0
 40
0.25
100
AcDbArc
 50
270.0
 51
0.0
  0
ARC
  5
26D
330
1F
100
AcDbEntity
  8
0
  6
Continuous
 62
     7
370
    15
100
AcDbCircle
 10
7.0821170043
 20
-2.5645
 30
0.0
 40
0.3135000000000021
100
AcDbArc
 50
90.0
 51
180.0
  0
ARC
  5
26E
330
1F
100
AcDbEntity
  8
0
  6
Continuous
 62
     7
370
    15
100
AcDbCircle
 10
7.1456170043
 20
-2.001
 30
0.0
 40
0.2500000000000036
100
AcDbArc
 50
270.0
 51
0.0
  0
ARC
  5
26F
330
1F
100
AcDbEntity
  8
0
  6
Continuous
 62
     7
370
    15
100
AcDbCircle
 10
6.8956170043
 20
-1.44975
 30
0.0
 40
0.4999999999999993
100
AcDbArc
 50
0.0
 51
90.0
  0
ARC
  5
270
330
1F
100
AcDbEntity
  8
0
  6
Continuous
 62
     7
370
    15
100
AcDbCircle
 10
6.4581170043
 20
-0.6875
 30
0.0
 40
0.2622500000000016
100
AcDbArc
 50
180.0
 51
270.0
  0
ARC
  5
271
330
1F
100
AcDbEntity
  8
0
  6
Continuous
 62
     7
370
    15
100
AcDbCircle
 10
6.4581170043
 20
0.6875
 30
0.0
 40
0.2622499999999995
100
AcDbArc
 50
90.0
 51
180.0
  0
ARC
  5
272
330
1F
100
AcDbEntity
  8
0
  6
Continuous
 62
     7
370
    15
100
AcDbCircle
 10
6.8956170043
 20
1.44975
 30
0.0
 40
0.500000000000001
100
AcDbArc
 50
270.0
 51
0.0
  0
ARC
  5
273
330
1F
100
AcDbEntity
  8
0
  6
Continuous
 62
     7
370
    15
100
AcDbCircle
 10
7.2706170043
 20
2.1881557613
 30
0.0
 40
0.125000000000002
100
AcDbArc
 50
0.0
 51
80.7121557639
  0
ARC
  5
274
330
1F
100
AcDbEntity
  8
0
  6
Continuous
 62
     7
370
    15
100
AcDbCircle
 10
7.3331170043
 20
2.570328906
 30
0.0
 40
0.2622500000000024
100
AcDbArc
 50
179.3283809431
 51
260.7121557639
  0
ARC
  5
275
330
1F
100
AcDbEntity
  8
0
  6
Continuous
 62
     7
370
    15
100
AcDbCircle
 10
6.9458936089
 20
2.5748681325
 30
0.0
 40
0.1250000000000026
100
AcDbArc
 50
359.3283809431
 51
54.9343827856
  0
ARC
  5
276
330
1F
100
AcDbEntity
  8
0
  6
Continuous
 62
     7
370
    15
100
AcDbCircle
 10
4.8088829082
 20
4.0748693743
 30
0.0
 40
0.125000000000002
100
AcDbArc
 50
54.9343827856
 51
110.5403846281
  0
ARC
  5
277
330
1F
100
AcDbEntity
  8
0
  6
Continuous
 62
     7
370
    15
100
AcDbCircle
 10
4.6730094678
 20
4.4375
 30
0.0
 40
0.2622500000000029
100
AcDbArc
 50
198.8316696193
 51
290.5403846281
  0
ARC
  5
278
330
1F
100
AcDbEntity
  8
0
  6
Continuous
 62
     7
370
    15
100
AcDbCircle
 10
4.3064885782
 20
4.3125
 30
0.0
 40
0.1249999999999982
100
AcDbArc
 50
18.8316696193
 51
90.0
  0
ARC
  5
279
330
1F
100
AcDbEntity
  8
0
  6
Continuous
 62
     7
370
    15
100
AcDbCircle
 10
3.5761343101
 20
3.9375
 30
0.0
 40
0.5000000000000027
100
AcDbArc
 50
90.0
 51
170.4627846724
  0
ARC
  5
27A
330
1F
100
AcDbEntity
  8
0
  6
Continuous
 62
     7
370
    15
100
AcDbCircle
 10
2.8321327523
 20
4.0625
 30
0.0
 40
0.2544291338582846
100
AcDbArc
 50
315.0
 51
350.4627846724
  0
ARC
  5
27B
330
1F
100
AcDbEntity
  8
0
  6
Continuous
 62
     7
370
    15
100
AcDbCircle
 10
-6.1780779241
 20
-2.5
 30
0.0
 40
0.3124999999999521
100
AcDbArc
 50
324.5092560769
 51
0.0
  0
ARC
  5
27C
330
1F
100
AcDbEntity
  8
0
  6
Continuous
 62
     7
370
    15
100
AcDbCircle
 10
-5.8218613468
 20
-2.754
 30
0.0
 40
0.1250000000000006
100
AcDbArc
 50
144.5092560769
 51
270.0
  0
ARC
  5
27D
330
1F
100
AcDbEntity
  8
0
  6
Continuous
 62
     7
370
    15
100
AcDbCircle
 10
-4.4978739733
 20
-2.629
 30
0.0
 40
0.2499999999999996
100
AcDbArc
 50
270.0
 51
315.1443396872
  0
ARC
  5
27E
330
1F
100
AcDbEntity
  8
0
  6
Continuous
 62
     7
370
    15
100
AcDbCircle
 10
-4.125
 20
-3.0
 30
0.0
 40
0.2760000000000006
100
AcDbArc
 50
44.8556603128
 51
135.1443396872
  0
ARC
  5
27F
330
1F
100
AcDbEntity
  8
0
  6
Continuous
 62
     7
370
    15
100
AcDbCircle
 10
-3.7521260267
 20
-2.629
 30
0.0
 40
0.2500000000000028
100
AcDbArc
 50
224.8556603128
 51
270.0
  0
ARC
  5
280
330
1F
100
AcDbEntity
  8
0
  6
Continuous
 62
     7
370
    15
100
AcDbCircle
 10
-3.2478739733
 20
-2.629
 30
0.0
 40
0.2499999999999982
100
AcDbArc
 50
270.0
 51
315.1443396872
  0
ARC
  5
281
330
1F
100
AcDbEntity
  8
0
  6
Continuous
 62
     7
370
    15
100
AcDbCircle
 10
-2.875
 20
-3.0
 30
0.0
 40
0.276
100
AcDbArc
 50
44.8556603128
 51
135.1443396872
  0
ARC
  5
282
330
1F
100
AcDbEntity
  8
0
  6
Continuous
 62
     7
370
    15
100
AcDbCircle
 10
-2.5021260267
 20
-2.629
 30
0.0
 40
0.2500000000000049
100
AcDbArc
 50
224.8556603128
 51
270.0
  0
ARC
  5
283
330
1F
100
AcDbEntity
  8
0
  6
Continuous
 62
     7
370
    15
100
AcDbCircle
 10
-1.4599511746
 20
-2.379
 30
0.0
 40
0.4999999999999993
100
AcDbArc
 50
270.0
 51
346.8190566648
  0
ARC
  5
284
330
1F
100
AcDbEntity
  8
0
  6
Continuous
 62
     7
370
    15
100
AcDbCircle
 10
-0.6678829957
 20
-2.5645
 30
0.0
 40
0.3134999999999398
100
AcDbArc
 50
158.9794195191
 51
166.8190566648
  0
ARC
  5
285
330
1F
100
AcDbEntity
  8
0
  6
Continuous
 62
     7
370
    15
100
AcDbCircle
 10
-1.1938829957
 20
-2.3623707097
 30
0.0
 40
0.2499999999999982
100
AcDbArc
 50
338.9794195191
 51
0.0
  0
ARC
  5
286
330
1F
100
AcDbEntity
  8
0
  6
Continuous
 62
     7
370
    15
100
AcDbCircle
 10
-0.6678829957
 20
-0.5645
 30
0.0
 40
0.2760000000000021
100
AcDbArc
 50
140.5643423055
 51
180.0
  0
ARC
  5
287
330
1F
100
AcDbEntity
  8
0
  6
Continuous
 62
     7
370
    15
100
AcDbCircle
 10
-1.0741329957
 20
-0.230378858
 30
0.0
 40
0.2500000000000002
100
AcDbArc
 50
320.5643423055
 51
0.0
  0
ARC
  5
288
330
1F
100
AcDbEntity
  8
0
  6
Continuous
 62
     7
370
    15
100
AcDbCircle
 10
-1.0741329957
 20
3.4824962388
 30
0.0
 40
0.2500000000000007
100
AcDbArc
 50
0.0
 51
43.8678113108
  0
ARC
  5
289
330
1F
100
AcDbEntity
  8
0
  6
Continuous
 62
     7
370
    15
100
AcDbCircle
 10
-0.6678829957
 20
3.873
 30
0.0
 40
0.3134999999999984
100
AcDbArc
 50
180.0
 51
223.8678113108
  0
ARC
  5
28A
330
1F
100
AcDbEntity
  8
0
  6
Continuous
 62
     7
370
    15
100
AcDbCircle
 10
-1.2313829957
 20
4.1875
 30
0.0
 40
0.25
100
AcDbArc
 50
0.0
 51
90.0
  0
ARC
  5
28B
330
1F
100
AcDbEntity
  8
0
  6
Continuous
 62
     7
370
    15
100
AcDbCircle
 10
-2.9370513663
 20
4.1875
 30
0.0
 40
0.25
100
AcDbArc
 50
90.0
 51
150.0
  0
ARC
  5
28C
330
1F
100
AcDbEntity
  8
0
  6
Continuous
 62
     7
370
    15
100
AcDbCircle
 10
-3.7765137948
 20
3.8605084228
 30
0.0
 40
0.3134999999999931
100
AcDbArc
 50
281.7194353952
 51
330.0
  0
ARC
  5
28D
330
1F
100
AcDbEntity
  8
0
  6
Continuous
 62
     7
370
    15
100
AcDbCircle
 10
-3.6620559862
 20
3.3087551627
 30
0.0
 40
0.2500000000000026
100
AcDbArc
 50
101.7194353952
 51
150.0
  0
ARC
  5
28E
330
1F
100
AcDbEntity
  8
0
  6
Continuous
 62
     7
370
    15
100
AcDbCircle
 10
-5.5539525506
 20
0.0318941904
 30
0.0
 40
0.2500000000000008
100
AcDbArc
 50
150.0
 51
198.2805646048
  0
ARC
  5
28F
330
1F
100
AcDbEntity
  8
0
  6
Continuous
 62
     7
370
    15
100
AcDbCircle
 10
-6.0890137948
 20
-0.1448590697
 30
0.0
 40
0.3134999999999661
100
AcDbArc
 50
330.0
 51
18.2805646048
  0
ARC
  5
290
330
1F
100
AcDbEntity
  8
0
  6
Continuous
 62
     7
370
    15
100
AcDbCircle
 10
-6.2552799549
 20
-0.5598405065
 30
0.0
 40
0.250000000000007
100
AcDbArc
 50
284.2987763163
 51
330.0
  0
ARC
  5
291
330
1F
100
AcDbEntity
  8
0
  6
Continuous
 62
     7
370
    15
100
AcDbCircle
 10
-6.1009185067
 20
-1.1654786355
 30
0.0
 40
0.3749999999999914
100
AcDbArc
 50
104.2987763163
 51
150.0
  0
ARC
  5
292
330
1F
100
AcDbEntity
  8
0
  6
Continuous
 62
     7
370
    15
100
AcDbCircle
 10
-6.3301388983
 20
-1.5625
 30
0.0
 40
0.3750000000000009
100
AcDbArc
 50
150.0
 51
270.0
  0
ARC
  5
293
330
1F
100
AcDbEntity
  8
0
  6
Continuous
 62
     7
370
    15
100
AcDbCircle
 10
-5.9905779241
 20
-2.0625
 30
0.0
 40
0.1249999999999993
100
AcDbArc
 50
0.0
 51
90.0
  0
ARC
  5
294
330
1F
100
AcDbEntity
  8
0
  6
Continuous
 62
     7
370
    15
100
AcDbCircle
 10
-8.7405779241
 20
-5.9375
 30
0.0
 40
0.2500000000000018
100
AcDbArc
 50
180.0
 51
270.0
  0
ARC
  5
295
330
1F
100
AcDbEntity
  8
0
  6
Continuous
 62
     7
370
    15
100
AcDbCircle
 10
-8.2749352484
 20
-5.9375
 30
0.0
 40
0.2500000000000018
100
AcDbArc
 50
270.0
 51
353.3288286497
  0
ARC
  5
296
330
1F
100
AcDbEntity
  8
0
  6
Continuous
 62
     7
370
    15
100
AcDbCircle
 10
-7.7405779241
 20
-6.0
 30
0.0
 40
0.2880000000000004
100
AcDbArc
 50
6.6711713503
 51
173.3288286497
  0
ARC
  5
297
330
1F
100
AcDbEntity
  8
0
  6
Continuous
 62
     7
370
    15
100
AcDbCircle
 10
-7.2062205999
 20
-5.9375
 30
0.0
 40
0.2500000000000012
100
AcDbArc
 50
186.6711713504
 51
270.0
  0
ARC
  5
298
330
1F
100
AcDbEntity
  8
0
  6
Continuous
 62
     7
370
    15
100
AcDbCircle
 10
-6.7405779241
 20
-5.9375
 30
0.0
 40
0.2500000000000009
100
AcDbArc
 50
270.0
 51
0.0
  0
ARC
  5
299
330
1F
100
AcDbEntity
  8
0
  6
Continuous
 62
     7
370
    15
100
AcDbCircle
 10
-6.1780779241
 20
-5.625
 30
0.0
 40
0.3125000000000124
100
AcDbArc
 50
131.8103148958
 51
180.0
  0
ARC
  5
29A
330
1F
100
AcDbEntity
  8
0
  6
Continuous
 62
     7
370
    15
100
AcDbCircle
 10
-6.5530779241
 20
-5.2057372542
 30
0.0
 40
0.2500000000000021
100
AcDbArc
 50
311.8103148958
 51
0.0
  0
ARC
  5
29B
330
1F
100
AcDbEntity
  8
0
  6
Continuous
 62
     7
370
    15
100
AcDbCircle
 10
-6.5530779241
 20
-2.9192627458
 30
0.0
 40
0.2500000000000053
100
AcDbArc
 50
0.0
 51
48.1896851042
  0
ARC
  5
29C
330
1F
100
AcDbEntity
  8
0
  6
Continuous
 62
     7
370
    15
100
AcDbCircle
 10
-6.1780779241
 20
-2.5
 30
0.0
 40
0.3124999999999822
100
AcDbArc
 50
180.0
 51
228.1896851042
  0
ARC
  5
29D
330
1F
100
AcDbEntity
  8
0
  6
Continuous
 62
     7
370
    15
100
AcDbCircle
 10
-6.7405779241
 20
-2.375
 30
0.0
 40
0.2499999999999991
100
AcDbArc
 50
0.0
 51
90.0
  0
ARC
  5
29E
330
1F
100
AcDbEntity
  8
0
  6
Continuous
 62
     7
370
    15
100
AcDbCircle
 10
-8.7405779241
 20
-2.375
 30
0.0
 40
0.2500000000000018
100
AcDbArc
 50
90.0
 51
180.0
  0
ARC
  5
29F
330
1F
100
AcDbEntity
  8
0
  6
Continuous
 62
     7
370
    15
100
AcDbCircle
 10
-9.3030779241
 20
-2.5
 30
0.0
 40
0.3124999999999982
100
AcDbArc
 50
180.0
 51
0.0
  0
ARC
  5
2A0
330
1F
100
AcDbEntity
  8
0
  6
Continuous
 62
     7
370
    15
100
AcDbCircle
 10
-9.8655779241
 20
-2.375
 30
0.0
 40
0.2500000000000036
100
AcDbArc
 50
0.0
 51
90.0
  0
ARC
  5
2A1
330
1F
100
AcDbEntity
  8
0
  6
Continuous
 62
     7
370
    15
100
AcDbCircle
 10
-9.9543553217
 20
-2.375
 30
0.0
 40
0.2499999999999996
100
AcDbArc
 50
90.0
 51
202.9876399233
  0
ARC
  5
2A2
330
1F
100
AcDbEntity
  8
0
  6
Continuous
 62
     7
370
    15
100
AcDbCircle
 10
-19.6780779241
 20
-6.5
 30
0.0
 40
10.31250000000002
100
AcDbArc
 50
7.7820499796
 51
22.9876399233
  0
ARC
  5
2A3
330
1F
100
AcDbEntity
  8
0
  6
Continuous
 62
     7
370
    15
100
AcDbCircle
 10
-9.2128552772
 20
-5.0697828137
 30
0.0
 40
0.2500000000000036
100
AcDbArc
 50
187.7820499796
 51
260.770128419
  0
ARC
  5
2A4
330
1F
100
AcDbEntity
  8
0
  6
Continuous
 62
     7
370
    15
100
AcDbCircle
 10
-9.3030779241
 20
-5.625
 30
0.0
 40
0.3124999999999982
100
AcDbArc
 50
0.0
 51
80.770128419
  0
ARC
  5
2A5
330
1F
100
AcDbEntity
  8
0
  6
Continuous
 62
     7
370
    15
100
AcDbCircle
 10
-6.0890137948
 20
-0.1448590697
 30
0.0
 40
0.3134999999999706
100
AcDbArc
 50
101.7194353952
 51
150.0
  0
ARC
  5
2A6
330
1F
100
AcDbEntity
  8
0
  6
Continuous
 62
     7
370
    15
100
AcDbCircle
 10
-6.2034716035
 20
0.4068941904
 30
0.0
 40
0.2500000000000033
100
AcDbArc
 50
281.7194353952
 51
330.0
  0
ARC
  5
2A7
330
1F
100
AcDbEntity
  8
0
  6
Continuous
 62
     7
370
    15
100
AcDbCircle
 10
-4.311575039
 20
3.6837551627
 30
0.0
 40
0.2499999999999881
100
AcDbArc
 50
330.0
 51
18.2805646048
  0
ARC
  5
2A8
330
1F
100
AcDbEntity
  8
0
  6
Continuous
 62
     7
370
    15
100
AcDbCircle
 10
-3.7765137948
 20
3.8605084228
 30
0.0
 40
0.3135000000000018
100
AcDbArc
 50
150.0
 51
198.2805646048
  0
ARC
  5
2A9
330
1F
100
AcDbEntity
  8
0
  6
Continuous
 62
     7
370
    15
100
AcDbCircle
 10
-4.2383988731
 20
4.1875
 30
0.0
 40
0.2500000000000001
100
AcDbArc
 50
330.0
 51
90.0
  0
ARC
  5
2AA
330
1F
100
AcDbEntity
  8
0
  6
Continuous
 62
     7
370
    15
100
AcDbCircle
 10
-4.9238656899
 20
3.9375
 30
0.0
 40
0.4999999999999996
100
AcDbArc
 50
90.0
 51
170.4627846724
  0
ARC
  5
2AB
330
1F
100
AcDbEntity
  8
0
  6
Continuous
 62
     7
370
    15
100
AcDbCircle
 10
-5.6678672477
 20
4.0625
 30
0.0
 40
0.2544291338582593
100
AcDbArc
 50
315.0
 51
350.4627846724
  0
ARC
  5
2AC
330
1F
100
AcDbEntity
  8
0
  6
Continuous
 62
     7
370
    15
100
AcDbCircle
 10
-6.0418829957
 20
3.688484252
 30
0.0
 40
0.2544291338582728
100
AcDbArc
 50
225.0
 51
315.0
  0
ARC
  5
2AD
330
1F
100
AcDbEntity
  8
0
  6
Continuous
 62
     7
370
    15
100
AcDbCircle
 10
-6.4158987437
 20
4.0625
 30
0.0
 40
0.254429133858275
100
AcDbArc
 50
189.5372153276
 51
225.0
  0
ARC
  5
2AE
330
1F
100
AcDbEntity
  8
0
  6
Continuous
 62
     7
370
    15
100
AcDbCircle
 10
-7.1599003015
 20
3.9375
 30
0.0
 40
0.5000000000000021
100
AcDbArc
 50
9.5372153276
 51
90.0
  0
ARC
  5
2AF
330
1F
100
AcDbEntity
  8
0
  6
Continuous
 62
     7
370
    15
100
AcDbCircle
 10
-10.1169672248
 20
1.44975
 30
0.0
 40
0.5000000000000019
100
AcDbArc
 50
153.1740960225
 51
270.0
  0
ARC
  5
2B0
330
1F
100
AcDbEntity
  8
0
  6
Continuous
 62
     7
370
    15
100
AcDbCircle
 10
-10.0418829957
 20
0.6875
 30
0.0
 40
0.2622500000000016
100
AcDbArc
 50
0.0
 51
90.0
  0
ARC
  5
2B1
330
1F
100
AcDbEntity
  8
0
  6
Continuous
 62
     7
370
    15
100
AcDbCircle
 10
-10.0418829957
 20
-0.6875
 30
0.0
 40
0.2622500000000006
100
AcDbArc
 50
270.0
 51
0.0
  0
ARC
  5
2B2
330
1F
100
AcDbEntity
  8
0
  6
Continuous
 62
     7
370
    15
100
AcDbCircle
 10
-10.1169633653
 20
-1.44975
 30
0.0
 40
0.4999999999999919
100
AcDbArc
 50
90.0
 51
206.8238526845
  0
ARC
  5
2B3
330
1F
100
AcDbEntity
  8
0
  6
Continuous
 62
     7
370
    15
100
AcDbCircle
 10
-10.2756181396
 20
-1.6875
 30
0.0
 40
0.2500000000000075
100
AcDbArc
 50
207.1049170051
 51
270.0
  0
ARC
  5
2B4
330
1F
100
AcDbEntity
  8
0
  6
Continuous
 62
     7
370
    15
100
AcDbCircle
 10
-7.5570082204
 20
-1.4375
 30
0.0
 40
0.5000000000000036
100
AcDbArc
 50
270.0
 51
330.0
  0
ARC
  5
2B5
330
1F
100
AcDbEntity
  8
0
  6
Continuous
 62
     7
370
    15
100
AcDbCircle
 10
-6.9669439105
 20
-0.6654786355
 30
0.0
 40
0.3750000000000061
100
AcDbArc
 50
330.0
 51
15.7012236837
  0
ARC
  5
2B6
330
1F
100
AcDbEntity
  8
0
  6
Continuous
 62
     7
370
    15
100
AcDbCircle
 10
-6.3652651812
 20
-0.4963405065
 30
0.0
 40
0.2500000000000093
100
AcDbArc
 50
150.0
 51
195.7012236837
  0
ARC
  5
2B7
330
1F
100
AcDbEntity
  8
0
  6
Continuous
 62
     7
370
    15
100
AcDbCircle
 10
-10.9168829957
 20
-0.6875
 30
0.0
 40
0.2622500000000014
100
AcDbArc
 50
357.322673823
 51
97.8457188772
  0
ARC
  5
2B8
330
1F
100
AcDbEntity
  8
0
  6
Continuous
 62
     7
370
    15
100
AcDbCircle
 10
-10.0418829957
 20
-0.6875
 30
0.0
 40
0.2622500000000068
100
AcDbArc
 50
87.322673823
 51
182.677326177
  0
ARC
  5
2B9
330
1F
100
AcDbEntity
  8
0
  6
Continuous
 62
     7
370
    15
100
AcDbCircle
 10
-10.0418829957
 20
0.6875
 30
0.0
 40
0.2622499999999997
100
AcDbArc
 50
177.322673823
 51
272.677326177
  0
ARC
  5
2BA
330
1F
100
AcDbEntity
  8
0
  6
Continuous
 62
     7
370
    15
100
AcDbCircle
 10
-10.9168829957
 20
0.6875
 30
0.0
 40
0.2622500000000003
100
AcDbArc
 50
262.1542877229
 51
2.677326177
  0
ARC
  5
2BB
330
1F
100
AcDbEntity
  8
0
  6
Continuous
 62
     7
370
    15
100
AcDbCircle
 10
-6.4202314987
 20
4.875
 30
0.0
 40
0.125000000000001
100
AcDbArc
 50
112.4638610028
 51
270.0
  0
ARC
  5
2BC
330
1F
100
AcDbEntity
  8
0
  6
Continuous
 62
     7
370
    15
100
AcDbCircle
 10
-4.1380483817
 20
5.125
 30
0.0
 40
0.3750000000000018
100
AcDbArc
 50
270.0
 51
0.0
  0
ARC
  5
2BD
330
1F
100
AcDbEntity
  8
0
  6
Continuous
 62
     7
370
    15
100
AcDbCircle
 10
-4.1380483817
 20
5.3420992254
 30
0.0
 40
0.3749999999999993
100
AcDbArc
 50
0.0
 51
103.3242233727
  0
ARC
  5
2BE
330
1F
100
AcDbEntity
  8
0
  6
Continuous
 62
     7
370
    15
100
AcDbCircle
 10
-3.1380483817
 20
5.5465965158
 30
0.0
 40
0.3750000000000018
100
AcDbArc
 50
99.8333125952
 51
180.0
  0
ARC
  5
2BF
330
1F
100
AcDbEntity
  8
0
  6
Continuous
 62
     7
370
    15
100
AcDbCircle
 10
-3.1380483817
 20
5.125
 30
0.0
 40
0.3750000000000013
100
AcDbArc
 50
180.0
 51
270.0
  0
ARC
  5
2C0
330
1F
100
AcDbEntity
  8
0
  6
Continuous
 62
     7
370
    15
100
AcDbCircle
 10
1.8885279741
 20
5.125
 30
0.0
 40
0.3750000000000031
100
AcDbArc
 50
270.0
 51
0.0
  0
ARC
  5
2C1
330
1F
100
AcDbEntity
  8
0
  6
Continuous
 62
     7
370
    15
100
AcDbCircle
 10
1.8885279741
 20
5.7175417414
 30
0.0
 40
0.3750000000000053
100
AcDbArc
 50
0.0
 51
84.2130856459
  0
ARC
  5
2C2
330
1F
100
AcDbEntity
  8
0
  6
Continuous
 62
     7
370
    15
100
AcDbCircle
 10
6.4202525373
 20
4.875
 30
0.0
 40
0.1250000000000011
100
AcDbArc
 50
270.0
 51
67.5350102911
  0
ARC
  5
2C3
330
1F
100
AcDbEntity
  8
0
  6
Continuous
 62
     7
370
    15
100
AcDbCircle
 10
2.888027809
 20
5.5880676525
 30
0.0
 40
0.3750000000000027
100
AcDbArc
 50
80.9995402266
 51
180.0
  0
ARC
  5
2C4
330
1F
100
AcDbEntity
  8
0
  6
Continuous
 62
     7
370
    15
100
AcDbCircle
 10
2.888027809
 20
5.125
 30
0.0
 40
0.3750000000000013
100
AcDbArc
 50
180.0
 51
270.0
  0
MTEXT
  5
2C6
330
1F
100
AcDbEntity
  8
0
  6
Continuous
 62
     7
100
AcDbMText
 10
-11.2914198814
 20
-6.5401404091
 30
0.0
 40
0.1903
 41
0.0
 71
     1
 72
     1
  1
SOLIDWORKS Student Edition.
  7
SLDTEXTSTYLE0
 73
     1
 44
1.0
  0
MTEXT
  5
2C7
330
1F
100
AcDbEntity
  8
0
  6
Continuous
 62
     7
100
AcDbMText
 10
-11.2914198814
 20
-6.8255904091
 30
0.0
 40
0.1903
 41
0.0
 71
     1
 72
     1
  1
For Academic Use Only.
  7
SLDTEXTSTYLE0
 73
     1
 44
1.0
  0
ENDSEC
  0
SECTION
  2
OBJECTS
  0
DICTIONARY
  5
C
330
0
100
AcDbDictionary
281
     1
  3
ACAD_GROUP
350
D
  3
ACAD_LAYOUT
350
1A
  3
ACAD_MLINESTYLE
350
17
  3
ACAD_PLOTSETTINGS
350
19
  3
ACAD_PLOTSTYLENAME
350
E
  3
ACAD_SCALELIST
350
47
  0
DICTIONARY
  5
D
102
{ACAD_REACTORS
330
C
102
}
330
C
100
AcDbDictionary
281
     1
  0
DICTIONARY
  5
1A
102
{ACAD_REACTORS
330
C
102
}
330
C
100
AcDbDictionary
281
     1
  3
Layout1
350
1E
  3
Layout2
350
26
  3
Model
350
22
  0
DICTIONARY
  5
17
102
{ACAD_REACTORS
330
C
102
}
330
C
100
AcDbDictionary
281
     1
  3
Standard
350
18
  0
DICTIONARY
  5
19
102
{ACAD_REACTORS
330
C
102
}
330
C
100
AcDbDictionary
281
     1
  0
ACDBDICTIONARYWDFLT
  5
E
102
{ACAD_REACTORS
330
C
102
}
330
C
100
AcDbDictionary
281
     1
  3
Normal
350
F
100
AcDbDictionaryWithDefault
340
F
  0
DICTIONARY
  5
47
102
{ACAD_REACTORS
330
C
102
}
330
C
100
AcDbDictionary
281
     1
  3
A0
350
48
  3
A1
350
49
  3
A2
350
4A
  3
A3
350
4B
  3
A4
350
4C
  3
A5
350
4D
  3
A6
350
4E
  3
A7
350
4F
  3
A8
350
50
  3
A9
350
51
  3
B0
350
52
  3
B1
350
53
  3
B2
350
54
  3
B3
350
55
  3
B4
350
56
  3
B5
350
57
  3
B6
350
58
  3
B7
350
59
  3
B8
350
5A
  3
B9
350
5B
  3
C0
350
5C
  3
C1
350
5D
  3
C2
350
5E
  3
C3
350
5F
  3
C4
350
60
  3
C5
350
61
  3
C6
350
62
  3
C7
350
63
  3
C8
350
64
  3
C9
350
65
  3
D0
350
66
  3
D1
350
67
  3
D2
350
68
  0
LAYOUT
  5
1E
102
{ACAD_REACTORS
330
1A
102
}
330
1A
100
AcDbPlotSettings
  1

  2
none_device
  4

  6

 40
0.0
 41
0.0
 42
0.0
 43
0.0
 44
0.0
 45
0.0
 46
0.0
 47
0.0
 48
0.0
 49
0.0
140
0.0
141
0.0
142
1.0
143
1.0
 70
   688
 72
     0
 73
     0
 74
     5
  7

 75
    16
147
1.0
148
0.0
149
0.0
100
AcDbLayout
  1
Layout1
 70
     1
 71
     1
 10
0.0
 20
0.0
 11
12.0
 21
9.0
 12
0.0
 22
0.0
 32
0.0
 14
1.0000000000E+20
 24
1.0000000000E+20
 34
1.0000000000E+20
 15
-1.0000000000E+20
 25
-1.0000000000E+20
 35
-1.0000000000E+20
146
0.0
 13
0.0
 23
0.0
 33
0.0
 16
1.0
 26
0.0
 36
0.0
 17
0.0
 27
1.0
 37
0.0
 76
     0
330
1B
  0
LAYOUT
  5
26
102
{ACAD_REACTORS
330
1A
102
}
330
1A
100
AcDbPlotSettings
  1

  2
none_device
  4

  6

 40
0.0
 41
0.0
 42
0.0
 43
0.0
 44
0.0
 45
0.0
 46
0.0
 47
0.0
 48
0.0
 49
0.0
140
0.0
141
0.0
142
1.0
143
1.0
 70
   688
 72
     0
 73
     0
 74
     5
  7

 75
    16
147
1.0
148
0.0
149
0.0
100
AcDbLayout
  1
Layout2
 70
     1
 71
     2
 10
0.0
 20
0.0
 11
0.0
 21
0.0
 12
0.0
 22
0.0
 32
0.0
 14
0.0
 24
0.0
 34
0.0
 15
0.0
 25
0.0
 35
0.0
146
0.0
 13
0.0
 23
0.0
 33
0.0
 16
1.0
 26
0.0
 36
0.0
 17
0.0
 27
1.0
 37
0.0
 76
     0
330
23
  0
LAYOUT
  5
22
102
{ACAD_REACTORS
330
1A
102
}
330
1A
100
AcDbPlotSettings
  1

  2
none_device
  4
ANSI_A_(11.00_x_8.50_Inches)
  6

 40
6.35
 41
19.05
 42
6.35000508
 43
19.05000254
 44
279.4
 45
215.9
 46
159.4338720718
 47
88.9032443709
 48
0.0
 49
0.0
140
0.0
141
0.0
142
0.5731718655
143
1.0
 70
  1696
 72
     0
 73
     0
 74
     0
  7

 75
     0
147
0.5913241897
148
-39.4088153714
149
0.0
100
AcDbLayout
  1
Model
 70
     1
 71
     0
 10
0.0
 20
0.0
 11
12.0
 21
9.0
 12
0.0
 22
0.0
 32
0.0
 14
-11.2914198814
 24
-6.5
 34
0.0
 15
7.7081170043
 25
6.4995541263
 35
0.0
146
0.0
 13
0.0
 23
0.0
 33
0.0
 16
1.0
 26
0.0
 36
0.0
 17
0.0
 27
1.0
 37
0.0
 76
     0
330
1F
331
29
  0
MLINESTYLE
  5
18
102
{ACAD_REACTORS
330
17
102
}
330
17
100
AcDbMlineStyle
  2
Standard
 70
     0
  3

 62
   256
 51
90.0
 52
90.0
 71
     2
 49
0.5
 62
   256
  6
BYLAYER
 49
-0.5
 62
   256
  6
BYLAYER
  0
ACDBPLACEHOLDER
  5
F
102
{ACAD_REACTORS
330
E
102
}
330
E
  0
SCALE
  5
48
102
{ACAD_REACTORS
330
47
102
}
330
47
100
AcDbScale
 70
     0
300
1:1
140
1.0
141
1.0
290
     1
  0
SCALE
  5
49
102
{ACAD_REACTORS
330
47
102
}
330
47
100
AcDbScale
 70
     0
300
1:2
140
1.0
141
2.0
290
     0
  0
SCALE
  5
4A
102
{ACAD_REACTORS
330
47
102
}
330
47
100
AcDbScale
 70
     0
300
1:4
140
1.0
141
4.0
290
     0
  0
SCALE
  5
4B
102
{ACAD_REACTORS
330
47
102
}
330
47
100
AcDbScale
 70
     0
300
1:5
140
1.0
141
5.0
290
     0
  0
SCALE
  5
4C
102
{ACAD_REACTORS
330
47
102
}
330
47
100
AcDbScale
 70
     0
300
1:8
140
1.0
141
8.0
290
     0
  0
SCALE
  5
4D
102
{ACAD_REACTORS
330
47
102
}
330
47
100
AcDbScale
 70
     0
300
1:10
140
1.0
141
10.0
290
     0
  0
SCALE
  5
4E
102
{ACAD_REACTORS
330
47
102
}
330
47
100
AcDbScale
 70
     0
300
1:16
140
1.0
141
16.0
290
     0
  0
SCALE
  5
4F
102
{ACAD_REACTORS
330
47
102
}
330
47
100
AcDbScale
 70
     0
300
1:20
140
1.0
141
20.0
290
     0
  0
SCALE
  5
50
102
{ACAD_REACTORS
330
47
102
}
330
47
100
AcDbScale
 70
     0
300
1:30
140
1.0
141
30.0
290
     0
  0
SCALE
  5
51
102
{ACAD_REACTORS
330
47
102
}
330
47
100
AcDbScale
 70
     0
300
1:40
140
1.0
141
40.0
290
     0
  0
SCALE
  5
52
102
{ACAD_REACTORS
330
47
102
}
330
47
100
AcDbScale
 70
     0
300
1:50
140
1.0
141
50.0
290
     0
  0
SCALE
  5
53
102
{ACAD_REACTORS
330
47
102
}
330
47
100
AcDbScale
 70
     0
300
1:100
140
1.0
141
100.0
290
     0
  0
SCALE
  5
54
102
{ACAD_REACTORS
330
47
102
}
330
47
100
AcDbScale
 70
     0
300
2:1
140
2.0
141
1.0
290
     0
  0
SCALE
  5
55
102
{ACAD_REACTORS
330
47
102
}
330
47
100
AcDbScale
 70
     0
300
4:1
140
4.0
141
1.0
290
     0
  0
SCALE
  5
56
102
{ACAD_REACTORS
330
47
102
}
330
47
100
AcDbScale
 70
     0
300
8:1
140
8.0
141
1.0
290
     0
  0
SCALE
  5
57
102
{ACAD_REACTORS
330
47
102
}
330
47
100
AcDbScale
 70
     0
300
10:1
140
10.0
141
1.0
290
     0
  0
SCALE
  5
58
102
{ACAD_REACTORS
330
47
102
}
330
47
100
AcDbScale
 70
     0
300
100:1
140
100.0
141
1.0
290
     0
  0
SCALE
  5
59
102
{ACAD_REACTORS
330
47
102
}
330
47
100
AcDbScale
 70
     0
300
1/128" = 1'-0"
140
0.0078125
141
12.0
290
     0
  0
SCALE
  5
5A
102
{ACAD_REACTORS
330
47
102
}
330
47
100
AcDbScale
 70
     0
300
1/64" = 1'-0"
140
0.015625
141
12.0
290
     0
  0
SCALE
  5
5B
102
{ACAD_REACTORS
330
47
102
}
330
47
100
AcDbScale
 70
     0
300
1/32" = 1'-0"
140
0.03125
141
12.0
290
     0
  0
SCALE
  5
5C
102
{ACAD_REACTORS
330
47
102
}
330
47
100
AcDbScale
 70
     0
300
1/16" = 1'-0"
140
0.0625
141
12.0
290
     0
  0
SCALE
  5
5D
102
{ACAD_REACTORS
330
47
102
}
330
47
100
AcDbScale
 70
     0
300
3/32" = 1'-0"
140
0.09375
141
12.0
290
     0
  0
SCALE
  5
5E
102
{ACAD_REACTORS
330
47
102
}
330
47
100
AcDbScale
 70
     0
300
1/8" = 1'-0"
140
0.125
141
12.0
290
     0
  0
SCALE
  5
5F
102
{ACAD_REACTORS
330
47
102
}
330
47
100
AcDbScale
 70
     0
300
3/16" = 1'-0"
140
0.1875
141
12.0
290
     0
  0
SCALE
  5
60
102
{ACAD_REACTORS
330
47
102
}
330
47
100
AcDbScale
 70
     0
300
1/4" = 1'-0"
140
0.25
141
12.0
290
     0
  0
SCALE
  5
61
102
{ACAD_REACTORS
330
47
102
}
330
47
100
AcDbScale
 70
     0
300
3/8" = 1'-0"
140
0.375
141
12.0
290
     0
  0
SCALE
  5
62
102
{ACAD_REACTORS
330
47
102
}
330
47
100
AcDbScale
 70
     0
300
1/2" = 1'-0"
140
0.5
141
12.0
290
     0
  0
SCALE
  5
63
102
{ACAD_REACTORS
330
47
102
}
330
47
100
AcDbScale
 70
     0
300
3/4" = 1'-0"
140
0.75
141
12.0
290
     0
  0
SCALE
  5
64
102
{ACAD_REACTORS
330
47
102
}
330
47
100
AcDbScale
 70
     0
300
1" = 1'-0"
140
1.0
141
12.0
290
     0
  0
SCALE
  5
65
102
{ACAD_REACTORS
330
47
102
}
330
47
100
AcDbScale
 70
     0
300
1-1/2" = 1'-0"
140
1.5
141
12.0
290
     0
  0
SCALE
  5
66
102
{ACAD_REACTORS
330
47
102
}
330
47
100
AcDbScale
 70
     0
300
3" = 1'-0"
140
3.0
141
12.0
290
     0
  0
SCALE
  5
67
102
{ACAD_REACTORS
330
47
102
}
330
47
100
AcDbScale
 70
     0
300
6" = 1'-0"
140
6.0
141
12.0
290
     0
  0
SCALE
  5
68
102
{ACAD_REACTORS
330
47
102
}
330
47
100
AcDbScale
 70
     0
300
1'-0" = 1'-0"
140
12.0
141
12.0
290
     0
  0
ENDSEC
  0
EOF
