  0
SECTION
  2
HEADER
  9
$ACADVER
  1
AC1003
  9
$EXTMIN
 10
1
 20
13.9995541263
  9
$EXTMAX
 10
19.9995368857
 20
1
  9
$INSUNITS
 70
1
  9
$INSBASE
 10
10.49976844285
 20
7.49977706315
999
Created with OMAX Layout for Windows. (www.omax.com) 2/26/2016
  0
ENDSEC
  0
SECTION
  2
TABLES
  0
TABLE
  2
LAYER
 70
    10
  0
LAYER
  2
0
 70
     0
 62
     7
  6
CONTINUOUS
  0
LAYER
  2
1
 70
     0
 62
     7
  6
CONTINUOUS
  0
LAYER
  2
2
 70
     0
 62
     7
  6
CONTINUOUS
  0
LAYER
  2
3
 70
     0
 62
     7
  6
CONTINUOUS
  0
LAYER
  2
4
 70
     0
 62
     7
  6
CONTINUOUS
  0
LAYER
  2
5
 70
     0
 62
     7
  6
CONTINUOUS
  0
LAYER
  2
6
 70
     0
 62
     7
  6
CONTINUOUS
  0
LAYER
  2
7
 70
     0
 62
     7
  6
CONTINUOUS
  0
LAYER
  2
8
 70
     0
 62
     7
  6
CONTINUOUS
  0
LAYER
  2
9
 70
     0
 62
     7
  6
CONTINUOUS
  0
LAYER
  2
10
 70
     0
 62
     7
  6
CONTINUOUS
  0
LAYER
  2
11
 70
     0
 62
     7
  6
CONTINUOUS
  0
LAYER
  2
12
 70
     0
 62
     7
  6
CONTINUOUS
  0
LAYER
  2
13
 70
     0
 62
     7
  6
CONTINUOUS
  0
LAYER
  2
14
 70
     0
 62
     7
  6
CONTINUOUS
  0
LAYER
  2
15
 70
     0
 62
     7
  6
CONTINUOUS
  0
LAYER
  2
16
 70
     0
 62
     7
  6
CONTINUOUS
  0
LAYER
  2
17
 70
     0
 62
     7
  6
CONTINUOUS
  0
LAYER
  2
18
 70
     0
 62
     7
  6
CONTINUOUS
  0
LAYER
  2
19
 70
     0
 62
     7
  6
CONTINUOUS
  0
LAYER
  2
20
 70
     0
 62
     7
  6
CONTINUOUS
  0
LAYER
  2
21
 70
     0
 62
     7
  6
CONTINUOUS
  0
LAYER
  2
22
 70
     0
 62
     7
  6
CONTINUOUS
  0
LAYER
  2
23
 70
     0
 62
     7
  6
CONTINUOUS
  0
LAYER
  2
24
 70
     0
 62
     7
  6
CONTINUOUS
  0
LAYER
  2
25
 70
     0
 62
     7
  6
CONTINUOUS
  0
LAYER
  2
26
 70
     0
 62
     7
  6
CONTINUOUS
  0
LAYER
  2
27
 70
     0
 62
     7
  6
CONTINUOUS
  0
LAYER
  2
28
 70
     0
 62
     7
  6
CONTINUOUS
  0
LAYER
  2
29
 70
     0
 62
     7
  6
CONTINUOUS
  0
LAYER
  2
30
 70
     0
 62
     7
  6
CONTINUOUS
  0
LAYER
  2
31
 70
     0
 62
     7
  6
CONTINUOUS
  0
ENDTAB
  0
ENDSEC
  0
SECTION
  2
ENTITIES
  0
ARC
  8
3
  6
CONTINUOUS
 62
3
 10
6.61334195730088
 20
5.2499999999933
 30
0.0
 40
0.0747499999991162
 50
194.999999994854
 51
5.1447253083294E-9
  0
ARC
  8
3
  6
CONTINUOUS
 62
3
 10
6.6133419573
 20
5.25000000000001
 30
0.0
 40
0.0747499999999999
 50
359.999999999999
 51
180
  0
ARC
  8
3
  6
CONTINUOUS
 62
3
 10
6.61334195727451
 20
5.24999999999665
 30
0.0
 40
0.0747499999745075
 50
179.999999997427
 51
195.000000002572
  0
ARC
  8
3
  6
CONTINUOUS
 62
3
 10
6.11334195729742
 20
5.00000000000337
 30
0.0
 40
0.0747499999974246
 50
74.9999999974276
 51
180.000000002572
  0
ARC
  8
3
  6
CONTINUOUS
 62
3
 10
6.1133419573
 20
5.00000000000001
 30
0.0
 40
0.0747499999999999
 50
179.999999999999
 51
359.999999999999
  0
ARC
  8
3
  6
CONTINUOUS
 62
3
 10
6.11334195730875
 20
5.00000000000672
 30
0.0
 40
0.0747499999912523
 50
359.999999994855
 51
75.000000005145
  0
LINE
  8
3
  6
CONTINUOUS
 62
3
 10
6.1445919573
 20
5.37500000000001
 30
0.0
 11
5.9883419573
 21
5.37500000000001
 31
0.0
  0
LINE
  8
3
  6
CONTINUOUS
 62
3
 10
5.9883419573
 20
5.37500000000001
 30
0.0
 11
5.9883419573
 21
5.18750000000001
 31
0.0
  0
LINE
  8
3
  6
CONTINUOUS
 62
3
 10
5.9883419573
 20
5.18750000000001
 30
0.0
 11
6.2383419573
 21
5.18750000000001
 31
0.0
  0
LINE
  8
3
  6
CONTINUOUS
 62
3
 10
6.2383419573
 20
5.18750000000001
 30
0.0
 11
6.2383419573
 21
5.37500000000001
 31
0.0
  0
LINE
  8
3
  6
CONTINUOUS
 62
3
 10
6.2383419573
 20
5.37500000000001
 30
0.0
 11
6.1445919573
 21
5.37500000000001
 31
0.0
  0
ARC
  8
3
  6
CONTINUOUS
 62
3
 10
6.20154006120388
 20
7.3573729810933
 30
0.0
 40
0.0747499999961245
 50
239.999999994854
 51
5.14469986389195E-9
  0
ARC
  8
3
  6
CONTINUOUS
 62
3
 10
6.2015400612
 20
7.35737298110001
 30
0.0
 40
0.0747499999999999
 50
359.999999999999
 51
180
  0
ARC
  8
3
  6
CONTINUOUS
 62
3
 10
6.20154006119419
 20
7.35737298109665
 30
0.0
 40
0.0747499999941868
 50
179.999999997427
 51
240.000000002572
  0
LINE
  8
3
  6
CONTINUOUS
 62
3
 10
5.9409431357
 20
7.15600586590001
 30
0.0
 11
5.9057868857
 21
7.09511345470001
 31
0.0
  0
LINE
  8
3
  6
CONTINUOUS
 62
3
 10
5.9057868857
 20
7.09511345470001
 30
0.0
 11
6.1222932366
 21
6.97011345470001
 31
0.0
  0
LINE
  8
3
  6
CONTINUOUS
 62
3
 10
6.1222932366
 20
6.97011345470001
 30
0.0
 11
6.2160432366
 21
7.13249321790001
 31
0.0
  0
LINE
  8
3
  6
CONTINUOUS
 62
3
 10
6.2160432366
 20
7.13249321790001
 30
0.0
 11
5.9995368857
 21
7.25749321790001
 31
0.0
  0
LINE
  8
3
  6
CONTINUOUS
 62
3
 10
5.9995368857
 20
7.25749321790001
 30
0.0
 11
5.9409431357
 21
7.15600586590001
 31
0.0
  0
ARC
  8
3
  6
CONTINUOUS
 62
3
 10
2.2495368857
 20
8.18750000000001
 30
0.0
 40
0.0747499999999999
 50
179.999999999999
 51
359.999999999999
  0
ARC
  8
3
  6
CONTINUOUS
 62
3
 10
2.2495368857
 20
8.18750000000001
 30
0.0
 40
0.0747499999999999
 50
359.999999999999
 51
180
  0
ARC
  8
3
  6
CONTINUOUS
 62
3
 10
1.37453688570503
 20
8.18749999999498
 30
0.0
 40
0.0747499999949657
 50
269.999999996141
 51
3.85850263403619E-9
  0
ARC
  8
3
  6
CONTINUOUS
 62
3
 10
1.3745368857
 20
8.18750000000001
 30
0.0
 40
0.0747499999999999
 50
359.999999999999
 51
180
  0
ARC
  8
3
  6
CONTINUOUS
 62
3
 10
1.37453688569497
 20
8.18749999999498
 30
0.0
 40
0.0747499999949657
 50
179.999999996141
 51
270.000000003858
  0
ARC
  8
3
  6
CONTINUOUS
 62
3
 10
1.3745368857
 20
6.81250000000001
 30
0.0
 40
0.0747499999999999
 50
359.999999999999
 51
180
  0
ARC
  8
3
  6
CONTINUOUS
 62
3
 10
1.3745368857
 20
6.81250000000001
 30
0.0
 40
0.0747499999999999
 50
179.999999999999
 51
359.999999999999
  0
ARC
  8
3
  6
CONTINUOUS
 62
3
 10
2.24953688570562
 20
6.8125000000056
 30
0.0
 40
0.262249999994153
 50
87.3226738241635
 51
170.757994633914
  0
LINE
  8
3
  6
CONTINUOUS
 62
3
 10
2.2617868857
 20
7.07446373790001
 30
0.0
 11
2.2617868857
 21
7.92553626210001
 31
0.0
  0
ARC
  8
3
  6
CONTINUOUS
 62
3
 10
2.24953688570004
 20
8.1875
 30
0.0
 40
0.262249999999998
 50
179.240662068598
 51
272.677326176998
  0
LINE
  8
3
  6
CONTINUOUS
 62
3
 10
1.9873099162
 20
8.19097548360001
 30
0.0
 11
1.6367638552
 21
8.19097548360001
 31
0.0
  0
ARC
  8
3
  6
CONTINUOUS
 62
3
 10
1.37453688570004
 20
8.18750000000003
 30
0.0
 40
0.262250000000024
 50
262.153770355603
 51
0.759337931395927
  0
ARC
  8
3
  6
CONTINUOUS
 62
3
 10
4.79267821855558
 20
7.49602981584666
 30
0.0
 40
3.48081334241055
 50
172.876085034553
 51
173.789335663679
  0
ARC
  8
3
  6
CONTINUOUS
 62
3
 10
4.77829975158805
 20
7.49759452507998
 30
0.0
 40
3.46634998777474
 50
173.789335663547
 51
174.706029353648
  0
ARC
  8
3
  6
CONTINUOUS
 62
3
 10
4.7704820866226
 20
7.49831891819753
 30
0.0
 40
3.45849883302523
 50
174.706029353752
 51
175.622653206153
  0
ARC
  8
3
  6
CONTINUOUS
 62
3
 10
4.75913299513755
 20
7.4991876696355
 30
0.0
 40
3.44711653946914
 50
175.622653206073
 51
176.543403187359
  0
ARC
  8
3
  6
CONTINUOUS
 62
3
 10
4.74879963195367
 20
7.49975687822978
 30
0.0
 40
3.43676765665492
 50
176.542488755791
 51
179.189470533587
  0
ARC
  8
3
  6
CONTINUOUS
 62
3
 10
4.741132964491
 20
7.49986534127158
 30
0.0
 40
3.42910022199823
 50
179.189470533612
 51
181.842411592445
  0
ARC
  8
3
  6
CONTINUOUS
 62
3
 10
4.74698295089922
 20
7.50005351916734
 30
0.0
 40
3.43495323420536
 50
181.842411592446
 51
184.498013425725
  0
ARC
  8
3
  6
CONTINUOUS
 62
3
 10
4.78331017597374
 20
7.50291126643832
 30
0.0
 40
3.47139269085717
 50
184.498013425702
 51
187.12574904024
  0
ARC
  8
3
  6
CONTINUOUS
 62
3
 10
1.37453688570001
 20
6.81250000000002
 30
0.0
 40
0.262249999999983
 50
357.322673822996
 51
97.8476264372966
  0
LINE
  8
3
  6
CONTINUOUS
 62
3
 10
1.6365006237
 20
6.80025000000001
 30
0.0
 11
1.9875731478
 21
6.80025000000001
 31
0.0
  0
ARC
  8
3
  6
CONTINUOUS
 62
3
 10
2.24953688592882
 20
6.81249999993626
 30
0.0
 40
0.262250000225595
 50
170.757994626791
 51
182.677326160751
  0
ARC
  8
3
  6
CONTINUOUS
 62
3
 10
2.24953688570875
 20
6.8124999999933
 30
0.0
 40
0.0747499999912524
 50
284.999999994855
 51
5.14478891942303E-9
  0
ARC
  8
3
  6
CONTINUOUS
 62
3
 10
2.2495368857
 20
6.81250000000001
 30
0.0
 40
0.0747499999999999
 50
359.999999999999
 51
180
  0
ARC
  8
3
  6
CONTINUOUS
 62
3
 10
2.24953688569742
 20
6.81249999999665
 30
0.0
 40
0.0747499999974247
 50
179.999999997427
 51
285.000000002572
  0
LINE
  8
3
  6
CONTINUOUS
 62
3
 10
2.8633419573
 20
5.30468750000001
 30
0.0
 11
2.8633419573
 21
5.18750000000001
 31
0.0
  0
LINE
  8
3
  6
CONTINUOUS
 62
3
 10
2.8633419573
 20
5.18750000000001
 30
0.0
 11
3.1133419573
 21
5.18750000000001
 31
0.0
  0
LINE
  8
3
  6
CONTINUOUS
 62
3
 10
3.1133419573
 20
5.18750000000001
 30
0.0
 11
3.1133419573
 21
5.37500000000001
 31
0.0
  0
LINE
  8
3
  6
CONTINUOUS
 62
3
 10
3.1133419573
 20
5.37500000000001
 30
0.0
 11
2.8633419573
 21
5.37500000000001
 31
0.0
  0
LINE
  8
3
  6
CONTINUOUS
 62
3
 10
2.8633419573
 20
5.37500000000001
 30
0.0
 11
2.8633419573
 21
5.30468750000001
 31
0.0
  0
ARC
  8
3
  6
CONTINUOUS
 62
3
 10
2.98834195730503
 20
4.99999999999498
 30
0.0
 40
0.0747499999949657
 50
269.999999996141
 51
3.85850263403619E-9
  0
ARC
  8
3
  6
CONTINUOUS
 62
3
 10
2.9883419573
 20
5.00000000000001
 30
0.0
 40
0.0747499999999999
 50
359.999999999999
 51
180
  0
ARC
  8
3
  6
CONTINUOUS
 62
3
 10
2.98834195729497
 20
4.99999999999497
 30
0.0
 40
0.0747499999949657
 50
179.999999996141
 51
270.000000003858
  0
ARC
  8
3
  6
CONTINUOUS
 62
3
 10
2.98834195730503
 20
1.87499999999498
 30
0.0
 40
0.0747499999949657
 50
269.999999996141
 51
3.85850263403619E-9
  0
ARC
  8
3
  6
CONTINUOUS
 62
3
 10
2.9883419573
 20
1.87500000000001
 30
0.0
 40
0.0747499999999999
 50
359.999999999999
 51
180
  0
ARC
  8
3
  6
CONTINUOUS
 62
3
 10
2.98834195729497
 20
1.87499999999497
 30
0.0
 40
0.0747499999949657
 50
179.999999996141
 51
270.000000003858
  0
LINE
  8
3
  6
CONTINUOUS
 62
3
 10
3.1133419573
 20
1.57031250000001
 30
0.0
 11
3.1133419573
 21
1.68750000000001
 31
0.0
  0
LINE
  8
3
  6
CONTINUOUS
 62
3
 10
3.1133419573
 20
1.68750000000001
 30
0.0
 11
2.8633419573
 21
1.68750000000001
 31
0.0
  0
LINE
  8
3
  6
CONTINUOUS
 62
3
 10
2.8633419573
 20
1.68750000000001
 30
0.0
 11
2.8633419573
 21
1.50000000000001
 31
0.0
  0
LINE
  8
3
  6
CONTINUOUS
 62
3
 10
2.8633419573
 20
1.50000000000001
 30
0.0
 11
3.1133419573
 21
1.50000000000001
 31
0.0
  0
LINE
  8
3
  6
CONTINUOUS
 62
3
 10
3.1133419573
 20
1.50000000000001
 30
0.0
 11
3.1133419573
 21
1.57031250000001
 31
0.0
  0
ARC
  8
3
  6
CONTINUOUS
 62
3
 10
4.5508419573
 20
1.50000000000001
 30
0.0
 40
0.1005
 50
359.999999999999
 51
180
  0
ARC
  8
3
  6
CONTINUOUS
 62
3
 10
4.5508419573
 20
1.50000000000001
 30
0.0
 40
0.1005
 50
179.999999999999
 51
359.999999999999
  0
LINE
  8
3
  6
CONTINUOUS
 62
3
 10
5.8008419573
 20
1.60156250000001
 30
0.0
 11
5.8008419573
 21
1.87500000000001
 31
0.0
  0
ARC
  8
3
  6
CONTINUOUS
 62
3
 10
6.1133419573
 20
1.87500000000002
 30
0.0
 40
0.312499999999995
 50
131.810314895802
 51
180.000000000002
  0
ARC
  8
3
  6
CONTINUOUS
 62
3
 10
5.7383419573
 20
2.29426274580001
 30
0.0
 40
0.250000000000014
 50
311.810314895799
 51
359.999999999999
  0
LINE
  8
3
  6
CONTINUOUS
 62
3
 10
5.9883419573
 20
2.29426274580001
 30
0.0
 11
5.9883419573
 21
4.58073725420001
 31
0.0
  0
ARC
  8
3
  6
CONTINUOUS
 62
3
 10
5.7383419573
 20
4.58073725420002
 30
0.0
 40
0.249999999999998
 50
359.999999999998
 51
48.1896851041989
  0
ARC
  8
3
  6
CONTINUOUS
 62
3
 10
6.11334195729999
 20
5
 30
0.0
 40
0.312499999999984
 50
179.999999999999
 51
228.189685104199
  0
LINE
  8
3
  6
CONTINUOUS
 62
3
 10
5.8008419573
 20
5.00000000000001
 30
0.0
 11
5.8008419573
 21
5.12500000000001
 31
0.0
  0
ARC
  8
3
  6
CONTINUOUS
 62
3
 10
5.5508419573
 20
5.12500000000001
 30
0.0
 40
0.25
 50
359.999999999999
 51
89.9999999999998
  0
LINE
  8
3
  6
CONTINUOUS
 62
3
 10
5.5508419573
 20
5.37500000000001
 30
0.0
 11
3.5508419573
 21
5.37500000000001
 31
0.0
  0
ARC
  8
3
  6
CONTINUOUS
 62
3
 10
3.5508419573
 20
5.12500000000001
 30
0.0
 40
0.25
 50
89.9999999999998
 51
180
  0
LINE
  8
3
  6
CONTINUOUS
 62
3
 10
3.3008419573
 20
5.12500000000001
 30
0.0
 11
3.3008419573
 21
5.00000000000001
 31
0.0
  0
ARC
  8
3
  6
CONTINUOUS
 62
3
 10
2.9883419573
 20
5.00000000000001
 30
0.0
 40
0.3125
 50
180
 51
1.53511459547513E-13
  0
LINE
  8
3
  6
CONTINUOUS
 62
3
 10
2.6758419573
 20
5.00000000000001
 30
0.0
 11
2.6758419573
 21
5.06250000000001
 31
0.0
  0
ARC
  8
3
  6
CONTINUOUS
 62
3
 10
2.4258419573
 20
5.06250000000001
 30
0.0
 40
0.25
 50
360
 51
89.9999999999997
  0
LINE
  8
3
  6
CONTINUOUS
 62
3
 10
2.4258419573
 20
5.31250000000001
 30
0.0
 11
2.3633419573
 21
5.31250000000001
 31
0.0
  0
ARC
  8
3
  6
CONTINUOUS
 62
3
 10
2.3633419573
 20
5.06250000000001
 30
0.0
 40
0.249999999999999
 50
89.9999999999996
 51
202.619864947999
  0
ARC
  8
3
  6
CONTINUOUS
 62
3
 10
-7.3866580427
 20
1.00000000000018
 30
0.0
 40
10.3125000000001
 50
7.78204997959945
 51
22.6198649479995
  0
ARC
  8
3
  6
CONTINUOUS
 62
3
 10
3.0785646042
 20
2.43021718630001
 30
0.0
 40
0.250000000000009
 50
187.7820499796
 51
260.770128419001
  0
ARC
  8
3
  6
CONTINUOUS
 62
3
 10
2.9883419573
 20
1.87500000000001
 30
0.0
 40
0.312499999999997
 50
359.999999999999
 51
80.7701284189994
  0
LINE
  8
3
  6
CONTINUOUS
 62
3
 10
3.3008419573
 20
1.87500000000001
 30
0.0
 11
3.3008419573
 21
1.56250000000001
 31
0.0
  0
ARC
  8
3
  6
CONTINUOUS
 62
3
 10
3.5508419573
 20
1.56250000000001
 30
0.0
 40
0.25
 50
179.999999999999
 51
269.999999999999
  0
LINE
  8
3
  6
CONTINUOUS
 62
3
 10
3.5508419573
 20
1.31250000000001
 30
0.0
 11
4.016484633
 21
1.31250000000001
 31
0.0
  0
ARC
  8
3
  6
CONTINUOUS
 62
3
 10
4.016484633
 20
1.56250000000001
 30
0.0
 40
0.249999999999996
 50
270
 51
353.3288286497
  0
ARC
  8
3
  6
CONTINUOUS
 62
3
 10
4.5508419573
 20
1.5
 30
0.0
 40
0.287999999999999
 50
6.67117135030041
 51
173.328828649699
  0
ARC
  8
3
  6
CONTINUOUS
 62
3
 10
5.0851992815
 20
1.56250000000001
 30
0.0
 40
0.250000000000002
 50
186.6711713503
 51
270
  0
LINE
  8
3
  6
CONTINUOUS
 62
3
 10
5.0851992815
 20
1.31250000000001
 30
0.0
 11
5.5508419573
 21
1.31250000000001
 31
0.0
  0
ARC
  8
3
  6
CONTINUOUS
 62
3
 10
5.5508419573
 20
1.56250000000001
 30
0.0
 40
0.25
 50
269.999999999999
 51
359.999999999999
  0
LINE
  8
3
  6
CONTINUOUS
 62
3
 10
5.8008419573
 20
1.56250000000001
 30
0.0
 11
5.8008419573
 21
1.60156250000001
 31
0.0
  0
LINE
  8
3
  6
CONTINUOUS
 62
3
 10
6.2383419573
 20
1.57031250000001
 30
0.0
 11
6.2383419573
 21
1.68750000000001
 31
0.0
  0
LINE
  8
3
  6
CONTINUOUS
 62
3
 10
6.2383419573
 20
1.68750000000001
 30
0.0
 11
5.9883419573
 21
1.68750000000001
 31
0.0
  0
LINE
  8
3
  6
CONTINUOUS
 62
3
 10
5.9883419573
 20
1.68750000000001
 30
0.0
 11
5.9883419573
 21
1.50000000000001
 31
0.0
  0
LINE
  8
3
  6
CONTINUOUS
 62
3
 10
5.9883419573
 20
1.50000000000001
 30
0.0
 11
6.2383419573
 21
1.50000000000001
 31
0.0
  0
LINE
  8
3
  6
CONTINUOUS
 62
3
 10
6.2383419573
 20
1.50000000000001
 30
0.0
 11
6.2383419573
 21
1.57031250000001
 31
0.0
  0
ARC
  8
3
  6
CONTINUOUS
 62
3
 10
6.11334195729806
 20
1.87500000000337
 30
0.0
 40
0.0747499999980622
 50
59.9999999974273
 51
180.000000002572
  0
ARC
  8
3
  6
CONTINUOUS
 62
3
 10
6.1133419573
 20
1.87500000000001
 30
0.0
 40
0.0747499999999999
 50
179.999999999999
 51
359.999999999999
  0
ARC
  8
3
  6
CONTINUOUS
 62
3
 10
6.11334195731163
 20
1.87500000000672
 30
0.0
 40
0.0747499999883739
 50
359.999999994855
 51
60.0000000051447
  0
ARC
  8
3
  6
CONTINUOUS
 62
3
 10
6.6133419573
 20
2.75000000000001
 30
0.0
 40
0.0747499999999999
 50
359.999999999999
 51
180
  0
ARC
  8
3
  6
CONTINUOUS
 62
3
 10
6.6133419573
 20
2.75000000000001
 30
0.0
 40
0.0747499999999999
 50
179.999999999999
 51
359.999999999999
  0
ARC
  8
3
  6
CONTINUOUS
 62
3
 10
9.86334195729497
 20
2.75000000000504
 30
0.0
 40
0.0747499999949657
 50
89.9999999961411
 51
180.000000003859
  0
ARC
  8
3
  6
CONTINUOUS
 62
3
 10
9.8633419573
 20
2.75000000000001
 30
0.0
 40
0.0747499999999999
 50
179.999999999999
 51
359.999999999999
  0
ARC
  8
3
  6
CONTINUOUS
 62
3
 10
9.86334195730503
 20
2.75000000000504
 30
0.0
 40
0.0747499999949657
 50
359.999999996141
 51
90.0000000038585
  0
ARC
  8
3
  6
CONTINUOUS
 62
3
 10
9.86334195731163
 20
5.2499999999933
 30
0.0
 40
0.0747499999883736
 50
299.999999994854
 51
5.14433728065826E-9
  0
ARC
  8
3
  6
CONTINUOUS
 62
3
 10
9.8633419573
 20
5.25000000000001
 30
0.0
 40
0.0747499999999999
 50
359.999999999999
 51
180
  0
ARC
  8
3
  6
CONTINUOUS
 62
3
 10
9.86334195729806
 20
5.24999999999665
 30
0.0
 40
0.0747499999980619
 50
179.999999997427
 51
300.000000002572
  0
ARC
  8
3
  6
CONTINUOUS
 62
3
 10
10.3469303274127
 20
4.12500000002256
 30
0.0
 40
0.249999999977454
 50
18.3357017771599
 51
90.0000000029222
  0
LINE
  8
3
  6
CONTINUOUS
 62
3
 10
10.3469303274
 20
4.37500000000001
 30
0.0
 11
6.4883419573
 21
4.37500000000001
 31
0.0
  0
ARC
  8
3
  6
CONTINUOUS
 62
3
 10
6.4883419573
 20
4.12500000000001
 30
0.0
 40
0.25
 50
89.9999999999998
 51
180
  0
LINE
  8
3
  6
CONTINUOUS
 62
3
 10
6.2383419573
 20
4.12500000000001
 30
0.0
 11
6.2383419573
 21
3.38725000000001
 31
0.0
  0
ARC
  8
3
  6
CONTINUOUS
 62
3
 10
6.6133419573
 20
3.38725000000001
 30
0.0
 40
0.375
 50
179.999999999999
 51
269.999999999999
  0
ARC
  8
3
  6
CONTINUOUS
 62
3
 10
6.6133419573
 20
2.75000000000001
 30
0.0
 40
0.26225
 50
270
 51
90.0000000000004
  0
LINE
  8
3
  6
CONTINUOUS
 62
3
 10
6.6133419573
 20
2.48775000000001
 30
0.0
 11
6.4258419573
 21
2.48775000000001
 31
0.0
  0
ARC
  8
3
  6
CONTINUOUS
 62
3
 10
6.4258419573
 20
2.30025000000001
 30
0.0
 40
0.1875
 50
89.9999999999998
 51
180
  0
LINE
  8
3
  6
CONTINUOUS
 62
3
 10
6.2383419573
 20
2.30025000000001
 30
0.0
 11
6.2383419573
 21
2.29426274580001
 31
0.0
  0
ARC
  8
3
  6
CONTINUOUS
 62
3
 10
6.4883419573
 20
2.2942627458
 30
0.0
 40
0.25000000000001
 50
179.999999999997
 51
228.189685104197
  0
ARC
  8
3
  6
CONTINUOUS
 62
3
 10
6.1133419573
 20
1.87500000000001
 30
0.0
 40
0.312499999999999
 50
359.999999999999
 51
48.1896851041999
  0
LINE
  8
3
  6
CONTINUOUS
 62
3
 10
6.4258419573
 20
1.87500000000001
 30
0.0
 11
6.4258419573
 21
1.56273842460001
 31
0.0
  0
ARC
  8
3
  6
CONTINUOUS
 62
3
 10
6.6758419573
 20
1.56273842460001
 30
0.0
 40
0.250000000000001
 50
179.999999999999
 51
271.444754576299
  0
ARC
  8
3
  6
CONTINUOUS
 62
3
 10
6.65693216810002
 20
2.31250000000001
 30
0.0
 40
0.999999999999999
 50
271.444754576299
 51
306.671403563399
  0
LINE
  8
3
  6
CONTINUOUS
 62
3
 10
7.2541570729
 20
1.51042617970001
 30
0.0
 11
10.4962365536
 21
3.92448154490001
 31
0.0
  0
ARC
  8
3
  6
CONTINUOUS
 62
3
 10
10.3469303274377
 20
4.12499999998513
 30
0.0
 40
0.24999999996556
 50
306.67140355851
 51
18.3357017870998
  0
LINE
  8
3
  6
CONTINUOUS
 62
3
 10
11.4995368857
 20
4.63281250000001
 30
0.0
 11
11.4995368857
 21
4.56250000000001
 31
0.0
  0
LINE
  8
3
  6
CONTINUOUS
 62
3
 10
11.4995368857
 20
4.56250000000001
 30
0.0
 11
11.7495368857
 21
4.56250000000001
 31
0.0
  0
LINE
  8
3
  6
CONTINUOUS
 62
3
 10
11.7495368857
 20
4.56250000000001
 30
0.0
 11
11.7495368857
 21
4.75000000000001
 31
0.0
  0
LINE
  8
3
  6
CONTINUOUS
 62
3
 10
11.7495368857
 20
4.75000000000001
 30
0.0
 11
11.4995368857
 21
4.75000000000001
 31
0.0
  0
LINE
  8
3
  6
CONTINUOUS
 62
3
 10
11.4995368857
 20
4.75000000000001
 30
0.0
 11
11.4995368857
 21
4.63281250000001
 31
0.0
  0
ARC
  8
3
  6
CONTINUOUS
 62
3
 10
11.6245368857
 20
4.93750000000001
 30
0.0
 40
0.0747499999999999
 50
359.999999999999
 51
180
  0
ARC
  8
3
  6
CONTINUOUS
 62
3
 10
11.6245368857
 20
4.93750000000001
 30
0.0
 40
0.0747499999999999
 50
179.999999999999
 51
359.999999999999
  0
ARC
  8
3
  6
CONTINUOUS
 62
3
 10
12.8745368857
 20
4.93750000000001
 30
0.0
 40
0.0884999999999998
 50
359.999999999999
 51
180
  0
ARC
  8
3
  6
CONTINUOUS
 62
3
 10
12.8745368857
 20
4.93750000000001
 30
0.0
 40
0.0884999999999998
 50
179.999999999999
 51
359.999999999999
  0
ARC
  8
3
  6
CONTINUOUS
 62
3
 10
18.1245368857604
 20
4.93749999999206
 30
0.0
 40
0.088499999939637
 50
344.999999994856
 51
5.14599912047933E-9
  0
ARC
  8
3
  6
CONTINUOUS
 62
3
 10
18.1245368857
 20
4.93750000000001
 30
0.0
 40
0.0884999999999998
 50
359.999999999999
 51
180
  0
ARC
  8
3
  6
CONTINUOUS
 62
3
 10
18.1245368856995
 20
4.93749999999604
 30
0.0
 40
0.0884999999994769
 50
179.999999997427
 51
345.000000002572
  0
ARC
  8
3
  6
CONTINUOUS
 62
3
 10
18.6505368859428
 20
4.87499999985756
 30
0.0
 40
0.249999999857552
 50
258.749999937917
 51
269.999999944348
  0
LINE
  8
3
  6
CONTINUOUS
 62
3
 10
18.6505368857
 20
4.62500000000001
 30
0.0
 11
18.8120368857
 21
4.62500000000001
 31
0.0
  0
ARC
  8
3
  6
CONTINUOUS
 62
3
 10
18.8120368857
 20
4.87500000000001
 30
0.0
 40
0.25
 50
269.999999999999
 51
359.999999999999
  0
LINE
  8
3
  6
CONTINUOUS
 62
3
 10
19.0620368857
 20
4.87500000000001
 30
0.0
 11
19.0620368857
 21
4.93750000000001
 31
0.0
  0
ARC
  8
3
  6
CONTINUOUS
 62
3
 10
19.3745368857
 20
4.93750000000001
 30
0.0
 40
0.3125
 50
89.9999999999998
 51
180
  0
LINE
  8
3
  6
CONTINUOUS
 62
3
 10
19.3745368857
 20
5.25000000000001
 30
0.0
 11
19.437036938
 21
5.25000000000001
 31
0.0
  0
ARC
  8
3
  6
CONTINUOUS
 62
3
 10
19.437036938
 20
5.50000000000001
 30
0.0
 40
0.249999999999998
 50
269.999999999999
 51
4.65299208958049E-7
  0
LINE
  8
3
  6
CONTINUOUS
 62
3
 10
19.687036938
 20
5.50000000200001
 30
0.0
 11
19.6870369335
 21
6.05025000410001
 31
0.0
  0
ARC
  8
3
  6
CONTINUOUS
 62
3
 10
19.1870369335
 20
6.05025000000001
 30
0.0
 40
0.499999999999998
 50
4.65300074068922E-7
 51
90
  0
LINE
  8
3
  6
CONTINUOUS
 62
3
 10
19.1870369335
 20
6.55025000000001
 30
0.0
 11
18.7495368857
 21
6.55025000000001
 31
0.0
  0
ARC
  8
3
  6
CONTINUOUS
 62
3
 10
18.7495368857
 20
6.81250000000001
 30
0.0
 40
0.262249999999999
 50
180
 51
270
  0
LINE
  8
3
  6
CONTINUOUS
 62
3
 10
18.4872868857
 20
6.81250000000001
 30
0.0
 11
18.4872868857
 21
8.18750000000001
 31
0.0
  0
ARC
  8
3
  6
CONTINUOUS
 62
3
 10
18.7495368857
 20
8.18750000000001
 30
0.0
 40
0.262249999999998
 50
89.9999966297999
 51
180
  0
LINE
  8
3
  6
CONTINUOUS
 62
3
 10
18.7495369011
 20
8.44975000000001
 30
0.0
 11
19.18703691
 21
8.44975000000001
 31
0.0
  0
ARC
  8
3
  6
CONTINUOUS
 62
3
 10
19.18703691
 20
8.94975000000001
 30
0.0
 40
0.500000000000001
 50
269.999999999999
 51
4.65299915041188E-7
  0
LINE
  8
3
  6
CONTINUOUS
 62
3
 10
19.68703691
 20
8.94975000410001
 30
0.0
 11
19.6870368948
 21
10.812500002
 31
0.0
  0
ARC
  8
3
  6
CONTINUOUS
 62
3
 10
19.4370368948
 20
10.8125
 30
0.0
 40
0.250000000000002
 50
4.65299310735799E-7
 51
89.9999999999993
  0
LINE
  8
3
  6
CONTINUOUS
 62
3
 10
19.4370368948
 20
11.0625
 30
0.0
 11
19.3745368857
 21
11.0625
 31
0.0
  0
ARC
  8
3
  6
CONTINUOUS
 62
3
 10
19.3745368857
 20
11.375
 30
0.0
 40
0.3125
 50
180
 51
270
  0
LINE
  8
3
  6
CONTINUOUS
 62
3
 10
19.0620368857
 20
11.375
 30
0.0
 11
19.0620368857
 21
11.6875
 31
0.0
  0
ARC
  8
3
  6
CONTINUOUS
 62
3
 10
18.8120368857
 20
11.6875
 30
0.0
 40
0.25
 50
359.999999999999
 51
89.9999999999998
  0
LINE
  8
3
  6
CONTINUOUS
 62
3
 10
18.8120368857
 20
11.9375
 30
0.0
 11
15.8675541915
 21
11.9375
 31
0.0
  0
ARC
  8
3
  6
CONTINUOUS
 62
3
 10
15.8675541915
 20
11.4375
 30
0.0
 40
0.5
 50
90.0000000000001
 51
170.4627846724
  0
ARC
  8
3
  6
CONTINUOUS
 62
3
 10
15.1235526337
 20
11.5625
 30
0.0
 40
0.254429133858263
 50
314.999999999998
 51
350.462784672398
  0
LINE
  8
3
  6
CONTINUOUS
 62
3
 10
15.3034611996
 20
11.3825914341
 30
0.0
 11
14.9294454516
 21
11.0085756861
 31
0.0
  0
ARC
  8
3
  6
CONTINUOUS
 62
3
 10
14.7495368857
 20
11.188484252
 30
0.0
 40
0.254429133858267
 50
225
 51
315
  0
LINE
  8
3
  6
CONTINUOUS
 62
3
 10
14.5696283198
 20
11.0085756861
 30
0.0
 11
14.1970553771
 21
11.3811486288
 31
0.0
  0
LINE
  8
3
  6
CONTINUOUS
 62
3
 10
14.1970553771
 20
11.3811486288
 30
0.0
 11
13.8170961036
 21
11.7491109783
 31
0.0
  0
ARC
  8
3
  6
CONTINUOUS
 62
3
 10
13.9995368857
 20
11.9375
 30
0.0
 40
0.262249999999984
 50
209.212031179099
 51
225.918965507899
  0
ARC
  8
3
  6
CONTINUOUS
 62
3
 10
13.5524350377
 20
11.6875
 30
0.0
 40
0.250000000000002
 50
29.2120311790997
 51
89.9999999999996
  0
LINE
  8
3
  6
CONTINUOUS
 62
3
 10
13.5524350377
 20
11.9375
 30
0.0
 11
12.1870368857
 21
11.9375
 31
0.0
  0
ARC
  8
3
  6
CONTINUOUS
 62
3
 10
12.1870368857
 20
11.6875
 30
0.0
 40
0.249999999999999
 50
90
 51
180
  0
LINE
  8
3
  6
CONTINUOUS
 62
3
 10
11.9370368857
 20
11.6875
 30
0.0
 11
11.9370368857
 21
11.375
 31
0.0
  0
ARC
  8
3
  6
CONTINUOUS
 62
3
 10
11.6245368857
 20
11.375
 30
0.0
 40
0.312500000000002
 50
316.2382573073
 51
4.5884470896801E-13
  0
ARC
  8
3
  6
CONTINUOUS
 62
3
 10
12.0307868857
 20
10.9859406376
 30
0.0
 40
0.249999999999999
 50
136.238257307299
 51
179.999999999999
  0
LINE
  8
3
  6
CONTINUOUS
 62
3
 10
11.7807868857
 20
10.9859406376
 30
0.0
 11
11.7807868857
 21
5.32655936240001
 31
0.0
  0
ARC
  8
3
  6
CONTINUOUS
 62
3
 10
12.0307868857
 20
5.32655936240001
 30
0.0
 40
0.249999999999998
 50
179.999999999999
 51
223.761742692699
  0
ARC
  8
3
  6
CONTINUOUS
 62
3
 10
11.6245368857
 20
4.93750000000001
 30
0.0
 40
0.312499999999996
 50
13.3423637971003
 51
43.7617426927004
  0
ARC
  8
3
  6
CONTINUOUS
 62
3
 10
12.4151063007
 20
5.12500000000001
 30
0.0
 40
0.5
 50
193.342363797099
 51
254.557114600699
  0
ARC
  8
3
  6
CONTINUOUS
 62
3
 10
12.3485368857
 20
4.88402590810001
 30
0.0
 40
0.249999999999998
 50
254.557114600699
 51
359.999999999999
  0
LINE
  8
3
  6
CONTINUOUS
 62
3
 10
12.5985368857
 20
4.88402590810001
 30
0.0
 11
12.5985368857
 21
4.93750000000001
 31
0.0
  0
ARC
  8
3
  6
CONTINUOUS
 62
3
 10
12.8745368857
 20
4.93750000000001
 30
0.0
 40
0.276
 50
359.999999999999
 51
180
  0
LINE
  8
3
  6
CONTINUOUS
 62
3
 10
13.1505368857
 20
4.93750000000001
 30
0.0
 11
13.1505368857
 21
4.87500000000001
 31
0.0
  0
ARC
  8
3
  6
CONTINUOUS
 62
3
 10
13.4005368857
 20
4.87500000000001
 30
0.0
 40
0.25
 50
179.999999999999
 51
269.999999999999
  0
LINE
  8
3
  6
CONTINUOUS
 62
3
 10
13.4005368857
 20
4.62500000000001
 30
0.0
 11
17.5985368857
 21
4.62500000000001
 31
0.0
  0
ARC
  8
3
  6
CONTINUOUS
 62
3
 10
17.5985368857
 20
4.87500000000001
 30
0.0
 40
0.25
 50
269.999999999999
 51
359.999999999999
  0
LINE
  8
3
  6
CONTINUOUS
 62
3
 10
17.8485368857
 20
4.87500000000001
 30
0.0
 11
17.8485368857
 21
4.93750000000001
 31
0.0
  0
ARC
  8
3
  6
CONTINUOUS
 62
3
 10
18.1245368857
 20
4.93750000000001
 30
0.0
 40
0.276
 50
359.999999999999
 51
180
  0
LINE
  8
3
  6
CONTINUOUS
 62
3
 10
18.4005368857
 20
4.93750000000001
 30
0.0
 11
18.4005368857
 21
4.87500000000001
 31
0.0
  0
ARC
  8
3
  6
CONTINUOUS
 62
3
 10
18.6505368856412
 20
4.87500000000281
 30
0.0
 40
0.249999999941164
 50
180.000000000642
 51
258.750000012219
  0
ARC
  8
3
  6
CONTINUOUS
 62
3
 10
18.2495368857038
 20
1.50000000000075
 30
0.0
 40
0.287999999996273
 50
28.5668826007353
 51
82.8526123691852
  0
ARC
  8
3
  6
CONTINUOUS
 62
3
 10
18.7220405055
 20
1.75726315190001
 30
0.0
 40
0.249999999999998
 50
208.566882600499
 51
300.172906563699
  0
ARC
  8
3
  6
CONTINUOUS
 62
3
 10
17.9995367236
 20
3.00000013520002
 30
0.0
 40
1.6875002346596
 50
300.1729090135
 51
359.9999958739
  0
LINE
  8
3
  6
CONTINUOUS
 62
3
 10
19.6870369583
 20
3.00000001370001
 30
0.0
 11
19.6870369491
 21
4.12500000200001
 31
0.0
  0
ARC
  8
3
  6
CONTINUOUS
 62
3
 10
19.4370369491
 20
4.12500000000001
 30
0.0
 40
0.250000000000002
 50
4.65299412513549E-7
 51
89.9999999999994
  0
LINE
  8
3
  6
CONTINUOUS
 62
3
 10
19.4370369491
 20
4.37500000000001
 30
0.0
 11
12.902143444
 21
4.37500000000001
 31
0.0
  0
ARC
  8
3
  6
CONTINUOUS
 62
3
 10
12.902143444
 20
4.12500000000001
 30
0.0
 40
0.25
 50
89.9999999999997
 51
233.3285964366
  0
LINE
  8
3
  6
CONTINUOUS
 62
3
 10
12.7528372178
 20
3.92448154490001
 30
0.0
 11
15.9949166985
 21
1.51042617970001
 31
0.0
  0
ARC
  8
3
  6
CONTINUOUS
 62
3
 10
16.5921416033
 20
2.3125
 30
0.0
 40
0.999999999999996
 50
233.3285964366
 51
270
  0
LINE
  8
3
  6
CONTINUOUS
 62
3
 10
16.5921416033
 20
1.31250000000001
 30
0.0
 11
17.7151795614
 21
1.31250000000001
 31
0.0
  0
ARC
  8
3
  6
CONTINUOUS
 62
3
 10
17.7151795614
 20
1.56250000000001
 30
0.0
 40
0.250000000000002
 50
269.999999999999
 51
353.328828649699
  0
ARC
  8
3
  6
CONTINUOUS
 62
3
 10
18.2495368856997
 20
1.49999999999751
 30
0.0
 40
0.288000000000003
 50
82.8526123684493
 51
173.328828649199
  0
ARC
  8
3
  6
CONTINUOUS
 62
3
 10
18.2495368856657
 20
1.50000000000452
 30
0.0
 40
0.100499999965726
 50
164.999999997426
 51
180.000000002571
  0
ARC
  8
3
  6
CONTINUOUS
 62
3
 10
18.2495368857
 20
1.50000000000001
 30
0.0
 40
0.1005
 50
179.999999999999
 51
359.999999999999
  0
ARC
  8
3
  6
CONTINUOUS
 62
3
 10
18.2495368857012
 20
1.50000000000904
 30
0.0
 40
0.100499999998812
 50
359.999999994855
 51
165.000000005145
  0
LINE
  8
3
  6
CONTINUOUS
 62
3
 10
19.4995368857
 20
4.63281250000001
 30
0.0
 11
19.4995368857
 21
4.75000000000001
 31
0.0
  0
LINE
  8
3
  6
CONTINUOUS
 62
3
 10
19.4995368857
 20
4.75000000000001
 30
0.0
 11
19.2495368857
 21
4.75000000000001
 31
0.0
  0
LINE
  8
3
  6
CONTINUOUS
 62
3
 10
19.2495368857
 20
4.75000000000001
 30
0.0
 11
19.2495368857
 21
4.56250000000001
 31
0.0
  0
LINE
  8
3
  6
CONTINUOUS
 62
3
 10
19.2495368857
 20
4.56250000000001
 30
0.0
 11
19.4995368857
 21
4.56250000000001
 31
0.0
  0
LINE
  8
3
  6
CONTINUOUS
 62
3
 10
19.4995368857
 20
4.56250000000001
 30
0.0
 11
19.4995368857
 21
4.63281250000001
 31
0.0
  0
ARC
  8
3
  6
CONTINUOUS
 62
3
 10
19.3745368856745
 20
4.93750000000337
 30
0.0
 40
0.0747499999745058
 50
164.999999997427
 51
180.000000002572
  0
ARC
  8
3
  6
CONTINUOUS
 62
3
 10
19.3745368857
 20
4.93750000000001
 30
0.0
 40
0.0747499999999981
 50
179.999999999999
 51
359.999999999999
  0
ARC
  8
3
  6
CONTINUOUS
 62
3
 10
19.3745368857009
 20
4.93750000000672
 30
0.0
 40
0.0747499999991144
 50
359.999999994854
 51
165.000000005145
  0
ARC
  8
3
  6
CONTINUOUS
 62
3
 10
19.6245368857
 20
6.81250000000001
 30
0.0
 40
0.0747499999999981
 50
179.999999999999
 51
359.999999999999
  0
ARC
  8
3
  6
CONTINUOUS
 62
3
 10
19.6245368857
 20
6.81250000000001
 30
0.0
 40
0.0747499999999981
 50
359.999999999999
 51
180
  0
ARC
  8
3
  6
CONTINUOUS
 62
3
 10
18.749536885695
 20
6.81250000000504
 30
0.0
 40
0.0747499999949639
 50
89.9999999961411
 51
180.000000003859
  0
ARC
  8
3
  6
CONTINUOUS
 62
3
 10
18.7495368857
 20
6.81250000000001
 30
0.0
 40
0.0747499999999981
 50
179.999999999999
 51
359.999999999999
  0
ARC
  8
3
  6
CONTINUOUS
 62
3
 10
18.749536885705
 20
6.81250000000504
 30
0.0
 40
0.0747499999949639
 50
359.999999996141
 51
90.0000000038585
  0
ARC
  8
3
  6
CONTINUOUS
 62
3
 10
18.749536885751
 20
8.1874999999933
 30
0.0
 40
0.0747499999490134
 50
344.999999994855
 51
5.14421800985771E-9
  0
ARC
  8
3
  6
CONTINUOUS
 62
3
 10
18.7495368857
 20
8.18750000000001
 30
0.0
 40
0.0747499999999981
 50
359.999999999999
 51
180
  0
ARC
  8
3
  6
CONTINUOUS
 62
3
 10
18.7495368856996
 20
8.18749999999665
 30
0.0
 40
0.0747499999995562
 50
179.999999997427
 51
345.000000002572
  0
ARC
  8
3
  6
CONTINUOUS
 62
3
 10
19.6245368858755
 20
8.1875000000365
 30
0.0
 40
0.26225000017363
 50
177.322673832755
 51
190.630782642928
  0
LINE
  8
3
  6
CONTINUOUS
 62
3
 10
19.3625731478
 20
8.19975000000001
 30
0.0
 11
19.0115006237
 21
8.19975000000001
 31
0.0
  0
ARC
  8
3
  6
CONTINUOUS
 62
3
 10
18.7495368857
 20
8.18750000000001
 30
0.0
 40
0.262249999999998
 50
267.322673823
 51
2.67732617700011
  0
LINE
  8
3
  6
CONTINUOUS
 62
3
 10
18.7372868857
 20
7.92553626210001
 30
0.0
 11
18.7372868857
 21
7.07446373790001
 31
0.0
  0
ARC
  8
3
  6
CONTINUOUS
 62
3
 10
18.7495368857
 20
6.81250000000001
 30
0.0
 40
0.262249999999999
 50
357.322673822999
 51
92.6773261769997
  0
LINE
  8
3
  6
CONTINUOUS
 62
3
 10
19.0115006237
 20
6.80025000000001
 30
0.0
 11
19.3625731478
 21
6.80025000000001
 31
0.0
  0
ARC
  8
3
  6
CONTINUOUS
 62
3
 10
19.6245368857
 20
6.81250000000001
 30
0.0
 40
0.262249999999997
 50
76.2124540319
 51
182.677326177
  0
LINE
  8
3
  6
CONTINUOUS
 62
3
 10
19.6870369253
 20
7.06719355620001
 30
0.0
 11
19.6870369182
 21
7.93280644210001
 31
0.0
  0
ARC
  8
3
  6
CONTINUOUS
 62
3
 10
19.6245368857055
 20
8.18750000000135
 30
0.0
 40
0.26225
 50
190.630782642234
 51
283.787544385472
  0
ARC
  8
3
  6
CONTINUOUS
 62
3
 10
19.6245368857
 20
8.18750000000001
 30
0.0
 40
0.0747499999999981
 50
179.999999999999
 51
359.999999999999
  0
ARC
  8
3
  6
CONTINUOUS
 62
3
 10
19.6245368857
 20
8.18750000000001
 30
0.0
 40
0.0747499999999981
 50
359.999999999999
 51
180
  0
ARC
  8
3
  6
CONTINUOUS
 62
3
 10
19.374536885695
 20
11.375000000005
 30
0.0
 40
0.0747499999949639
 50
89.9999999961411
 51
180.000000003859
  0
ARC
  8
3
  6
CONTINUOUS
 62
3
 10
19.3745368857
 20
11.375
 30
0.0
 40
0.0747499999999981
 50
179.999999999999
 51
359.999999999999
  0
ARC
  8
3
  6
CONTINUOUS
 62
3
 10
19.374536885705
 20
11.375000000005
 30
0.0
 40
0.0747499999949639
 50
359.999999996141
 51
90.0000000038585
  0
LINE
  8
3
  6
CONTINUOUS
 62
3
 10
19.3745368857
 20
11.75
 30
0.0
 11
19.2495368857
 21
11.75
 31
0.0
  0
LINE
  8
3
  6
CONTINUOUS
 62
3
 10
19.2495368857
 20
11.75
 30
0.0
 11
19.2495368857
 21
11.5625
 31
0.0
  0
LINE
  8
3
  6
CONTINUOUS
 62
3
 10
19.2495368857
 20
11.5625
 30
0.0
 11
19.4995368857
 21
11.5625
 31
0.0
  0
LINE
  8
3
  6
CONTINUOUS
 62
3
 10
19.4995368857
 20
11.5625
 30
0.0
 11
19.4995368857
 21
11.75
 31
0.0
  0
LINE
  8
3
  6
CONTINUOUS
 62
3
 10
19.4995368857
 20
11.75
 30
0.0
 11
19.3745368857
 21
11.75
 31
0.0
  0
ARC
  8
3
  6
CONTINUOUS
 62
3
 10
15.1794476904756
 20
12.6249999999306
 30
0.0
 40
0.374999999930622
 50
236.249999982014
 51
269.999999988445
  0
LINE
  8
3
  6
CONTINUOUS
 62
3
 10
15.1794476904
 20
12.25
 30
0.0
 11
18.7116724187
 21
12.25
 31
0.0
  0
ARC
  8
3
  6
CONTINUOUS
 62
3
 10
18.7116724184888
 20
12.375
 30
0.0
 40
0.124999999999999
 50
270.000000096816
 51
67.5348751708487
  0
ARC
  8
3
  6
CONTINUOUS
 62
3
 10
13.7753939279174
 20
0.437222261721042
 30
0.0
 40
13.0431029050332
 50
67.5348752603189
 51
67.9079817680229
  0
ARC
  8
3
  6
CONTINUOUS
 62
3
 10
13.704324193912
 20
0.262128642051989
 30
0.0
 40
13.2320703168808
 50
67.9079817680178
 51
68.275612173753
  0
ARC
  8
3
  6
CONTINUOUS
 62
3
 10
13.6725269256091
 20
0.182324528628824
 30
0.0
 40
13.3179758626319
 50
68.2756121737545
 51
68.643684148995
  0
ARC
  8
3
  6
CONTINUOUS
 62
3
 10
13.6084703967143
 20
0.0185039807383142
 30
0.0
 40
13.4938747279074
 50
68.643684148995
 51
69.0076558838191
  0
ARC
  8
3
  6
CONTINUOUS
 62
3
 10
13.5072842905937
 20
-0.244797328925632
 30
0.0
 40
13.775949518245
 50
69.0070556875651
 51
70.7052176731701
  0
ARC
  8
3
  6
CONTINUOUS
 62
3
 10
13.2067236639534
 20
-1.10331437308082
 30
0.0
 40
14.6855583382283
 50
70.7052176731707
 51
72.2982252303467
  0
ARC
  8
3
  6
CONTINUOUS
 62
3
 10
13.0815699486873
 20
-1.49543085443172
 30
0.0
 40
15.097163473512
 50
72.2982252303468
 51
73.8940044488125
  0
ARC
  8
3
  6
CONTINUOUS
 62
3
 10
12.8707393849885
 20
-2.22558370472597
 30
0.0
 40
15.857145520262
 50
73.8940044488115
 51
75.4139729556256
  0
ARC
  8
3
  6
CONTINUOUS
 62
3
 10
12.7800315504798
 20
-2.57363600748273
 30
0.0
 40
16.2168235698385
 50
75.4135023497649
 51
76.8667993177506
  0
ARC
  8
3
  6
CONTINUOUS
 62
3
 10
12.6136219937248
 20
-3.28686604169043
 30
0.0
 40
16.9492095488655
 50
76.8667993177507
 51
78.2573725634116
  0
ARC
  8
3
  6
CONTINUOUS
 62
3
 10
12.5503791945219
 20
-3.59111387871796
 30
0.0
 40
17.2599608931698
 50
78.2573725634107
 51
79.6494261346972
  0
ARC
  8
3
  6
CONTINUOUS
 62
3
 10
12.4539099320254
 20
-4.11929935240196
 30
0.0
 40
17.7968838049713
 50
79.6494261346974
 51
80.9994861059902
  0
ARC
  8
3
  6
CONTINUOUS
 62
3
 10
15.1794476904
 20
13.0880676525
 30
0.0
 40
0.375000000000003
 50
80.9995402265999
 51
180
  0
LINE
  8
3
  6
CONTINUOUS
 62
3
 10
14.8044476904
 20
13.0880676525
 30
0.0
 11
14.8044476904
 21
12.625
 31
0.0
  0
ARC
  8
3
  6
CONTINUOUS
 62
3
 10
15.179447690287
 20
12.6250000000042
 30
0.0
 40
0.374999999887033
 50
180.000000000643
 51
236.250000012219
  0
ARC
  8
3
  6
CONTINUOUS
 62
3
 10
14.7495368857145
 20
11.936515747994
 30
0.0
 40
0.0669291338437611
 50
314.999999994855
 51
5.14514196099267E-9
  0
ARC
  8
3
  6
CONTINUOUS
 62
3
 10
14.7495368857
 20
11.936515748
 30
0.0
 40
0.0669291338582703
 50
359.999999999999
 51
180
  0
ARC
  8
3
  6
CONTINUOUS
 62
3
 10
14.7495368856988
 20
11.936515747997
 30
0.0
 40
0.0669291338570258
 50
179.999999997427
 51
315.000000002572
  0
ARC
  8
3
  6
CONTINUOUS
 62
3
 10
15.1235526337025
 20
11.562499999994
 30
0.0
 40
0.066929133855781
 50
224.999999994855
 51
5.14481436386048E-9
  0
ARC
  8
3
  6
CONTINUOUS
 62
3
 10
15.1235526337
 20
11.5625
 30
0.0
 40
0.0669291338582703
 50
359.999999999999
 51
180
  0
ARC
  8
3
  6
CONTINUOUS
 62
3
 10
15.1235526336927
 20
11.562499999997
 30
0.0
 40
0.0669291338510158
 50
179.999999997427
 51
225.000000002571
  0
ARC
  8
3
  6
CONTINUOUS
 62
3
 10
14.7495368856948
 20
11.188484252003
 30
0.0
 40
0.0669291338530652
 50
119.999999997427
 51
180.000000002572
  0
ARC
  8
3
  6
CONTINUOUS
 62
3
 10
14.7495368857
 20
11.188484252
 30
0.0
 40
0.0669291338582703
 50
179.999999999999
 51
359.999999999999
  0
ARC
  8
3
  6
CONTINUOUS
 62
3
 10
14.7495368857035
 20
11.188484252006
 30
0.0
 40
0.0669291338548001
 50
359.999999994855
 51
120.000000005145
  0
ARC
  8
3
  6
CONTINUOUS
 62
3
 10
14.3755211376927
 20
11.562500000003
 30
0.0
 40
0.0669291338510158
 50
134.999999997428
 51
180.000000002573
  0
ARC
  8
3
  6
CONTINUOUS
 62
3
 10
14.3755211377
 20
11.5625
 30
0.0
 40
0.0669291338582703
 50
179.999999999999
 51
359.999999999999
  0
ARC
  8
3
  6
CONTINUOUS
 62
3
 10
14.3755211377025
 20
11.562500000006
 30
0.0
 40
0.066929133855781
 50
359.999999994854
 51
135.000000005145
  0
ARC
  8
3
  6
CONTINUOUS
 62
3
 10
13.9995368857116
 20
11.9374999999933
 30
0.0
 40
0.0747499999883744
 50
299.999999994856
 51
5.14543139146869E-9
  0
ARC
  8
3
  6
CONTINUOUS
 62
3
 10
13.9995368857
 20
11.9375
 30
0.0
 40
0.0747499999999999
 50
359.999999999999
 51
180
  0
ARC
  8
3
  6
CONTINUOUS
 62
3
 10
13.9995368856981
 20
11.9374999999967
 30
0.0
 40
0.0747499999980627
 50
179.999999997427
 51
300.000000002572
  0
ARC
  8
3
  6
CONTINUOUS
 62
3
 10
11.0592034372981
 20
10.5529642611034
 30
0.0
 40
0.0747499999980627
 50
59.9999999974273
 51
180.000000002573
  0
ARC
  8
3
  6
CONTINUOUS
 62
3
 10
11.0592034373
 20
10.5529642611
 30
0.0
 40
0.0747499999999999
 50
179.999999999999
 51
359.999999999999
  0
ARC
  8
3
  6
CONTINUOUS
 62
3
 10
11.0592034373116
 20
10.5529642611067
 30
0.0
 40
0.0747499999883744
 50
359.999999994854
 51
60.0000000051437
  0
LINE
  8
3
  6
CONTINUOUS
 62
3
 10
11.7495368857
 20
11.6796875
 30
0.0
 11
11.7495368857
 21
11.75
 31
0.0
  0
LINE
  8
3
  6
CONTINUOUS
 62
3
 10
11.7495368857
 20
11.75
 30
0.0
 11
11.4995368857
 21
11.75
 31
0.0
  0
LINE
  8
3
  6
CONTINUOUS
 62
3
 10
11.4995368857
 20
11.75
 30
0.0
 11
11.4995368857
 21
11.5625
 31
0.0
  0
LINE
  8
3
  6
CONTINUOUS
 62
3
 10
11.4995368857
 20
11.5625
 30
0.0
 11
11.7495368857
 21
11.5625
 31
0.0
  0
LINE
  8
3
  6
CONTINUOUS
 62
3
 10
11.7495368857
 20
11.5625
 30
0.0
 11
11.7495368857
 21
11.6796875
 31
0.0
  0
ARC
  8
3
  6
CONTINUOUS
 62
3
 10
11.6245368856745
 20
11.3750000000034
 30
0.0
 40
0.0747499999745077
 50
164.999999997428
 51
180.000000002573
  0
ARC
  8
3
  6
CONTINUOUS
 62
3
 10
11.6245368857
 20
11.375
 30
0.0
 40
0.0747499999999999
 50
179.999999999999
 51
359.999999999999
  0
ARC
  8
3
  6
CONTINUOUS
 62
3
 10
11.6245368857009
 20
11.3750000000067
 30
0.0
 40
0.0747499999991163
 50
359.999999994854
 51
165.000000005144
  0
ARC
  8
3
  6
CONTINUOUS
 62
3
 10
9.35105911393381
 20
11.6875000000529
 30
0.0
 40
0.24999999991622
 50
119.999999992627
 51
150.000000002917
  0
LINE
  8
3
  6
CONTINUOUS
 62
3
 10
9.1345527631
 20
11.8125
 30
0.0
 11
8.7846729999
 21
11.2064904736
 31
0.0
  0
ARC
  8
3
  6
CONTINUOUS
 62
3
 10
8.5140400612
 20
11.3627404736
 30
0.0
 40
0.312499999999989
 50
281.8103148958
 51
330
  0
ARC
  8
3
  6
CONTINUOUS
 62
3
 10
8.6291682147
 20
10.8121482849
 30
0.0
 40
0.249999999999997
 50
101.8103148958
 51
150
  0
LINE
  8
3
  6
CONTINUOUS
 62
3
 10
8.4126618638
 20
10.9371482849
 30
0.0
 11
6.5194246095
 21
7.65796516980001
 31
0.0
  0
ARC
  8
3
  6
CONTINUOUS
 62
3
 10
6.7359309605
 20
7.53296516980001
 30
0.0
 40
0.25
 50
149.999999999999
 51
198.189685104199
  0
ARC
  8
3
  6
CONTINUOUS
 62
3
 10
6.2015400612
 20
7.35737298110001
 30
0.0
 40
0.312500000000094
 50
330
 51
18.1896851042001
  0
LINE
  8
3
  6
CONTINUOUS
 62
3
 10
6.4721729999
 20
7.20112298110001
 30
0.0
 11
6.251712875
 21
6.81927484390001
 31
0.0
  0
ARC
  8
3
  6
CONTINUOUS
 62
3
 10
6.0352065241
 20
6.9442748439
 30
0.0
 40
0.249999999999985
 50
284.427004000801
 51
330.000000000001
  0
ARC
  8
3
  6
CONTINUOUS
 62
3
 10
6.1909229999
 20
6.33898369140001
 30
0.0
 40
0.374999999999994
 50
104.4270040008
 51
150
  0
LINE
  8
3
  6
CONTINUOUS
 62
3
 10
5.8661634734
 20
6.52648369140001
 30
0.0
 11
5.6343667561
 21
6.12500000000001
 31
0.0
  0
ARC
  8
3
  6
CONTINUOUS
 62
3
 10
5.9591262825
 20
5.93750000000001
 30
0.0
 40
0.374999999999999
 50
149.999999999999
 51
269.999999999999
  0
LINE
  8
3
  6
CONTINUOUS
 62
3
 10
5.9591262825
 20
5.56250000000001
 30
0.0
 11
6.3973268662
 21
5.56250000000001
 31
0.0
  0
ARC
  8
3
  6
CONTINUOUS
 62
3
 10
6.39732686619996
 20
5.31249999999999
 30
0.0
 40
0.250000000000036
 50
76.9858874220905
 51
89.9999999999906
  0
LINE
  8
3
  6
CONTINUOUS
 62
3
 10
6.4536246276
 20
5.55607865680001
 30
0.0
 11
6.672398309
 21
5.50551401100001
 31
0.0
  0
ARC
  8
3
  6
CONTINUOUS
 62
3
 10
6.6133419573
 20
5.25000000000001
 30
0.0
 40
0.26225
 50
312.940257853799
 51
76.9858874220991
  0
ARC
  8
3
  6
CONTINUOUS
 62
3
 10
6.9623047955
 20
4.87500000000001
 30
0.0
 40
0.250000000000001
 50
132.940257853799
 51
269.999999999999
  0
LINE
  8
3
  6
CONTINUOUS
 62
3
 10
6.9623047955
 20
4.62500000000001
 30
0.0
 11
9.1010919573
 21
4.62500000000001
 31
0.0
  0
ARC
  8
3
  6
CONTINUOUS
 62
3
 10
9.1010919573
 20
5.12500000000001
 30
0.0
 40
0.5
 50
269.999999999999
 51
359.999999999999
  0
LINE
  8
3
  6
CONTINUOUS
 62
3
 10
9.6010919573
 20
5.12500000000001
 30
0.0
 11
9.6010919573
 21
5.25000000000001
 31
0.0
  0
ARC
  8
3
  6
CONTINUOUS
 62
3
 10
9.8633419573
 20
5.25000000000001
 30
0.0
 40
0.26225
 50
359.999999999999
 51
180
  0
LINE
  8
3
  6
CONTINUOUS
 62
3
 10
10.1255919573
 20
5.25000000000001
 30
0.0
 11
10.1255919573
 21
5.12500000000001
 31
0.0
  0
ARC
  8
3
  6
CONTINUOUS
 62
3
 10
10.6255919573
 20
5.125
 30
0.0
 40
0.5
 50
179.999999999999
 51
269.999999999999
  0
LINE
  8
3
  6
CONTINUOUS
 62
3
 10
10.6255919573
 20
4.62500000000001
 30
0.0
 11
10.8339674707
 21
4.62500000000001
 31
0.0
  0
ARC
  8
3
  6
CONTINUOUS
 62
3
 10
10.8339674707
 20
5.12500000000001
 30
0.0
 40
0.5
 50
269.999999999999
 51
346.657636202899
  0
ARC
  8
3
  6
CONTINUOUS
 62
3
 10
11.6245368857
 20
4.93750000000001
 30
0.0
 40
0.312499999999996
 50
136.238257307299
 51
166.657636202899
  0
ARC
  8
3
  6
CONTINUOUS
 62
3
 10
11.2182868857
 20
5.32655936240001
 30
0.0
 40
0.249999999999998
 50
316.238257307299
 51
359.999999999999
  0
LINE
  8
3
  6
CONTINUOUS
 62
3
 10
11.4682868857
 20
5.32655936240001
 30
0.0
 11
11.4682868857
 21
10.0407142611
 31
0.0
  0
ARC
  8
3
  6
CONTINUOUS
 62
3
 10
11.2182868857
 20
10.0407142611
 30
0.0
 40
0.250000000000001
 50
1.27222187258541E-14
 51
90
  0
LINE
  8
3
  6
CONTINUOUS
 62
3
 10
11.2182868857
 20
10.2907142611
 30
0.0
 11
11.0592034373
 21
10.2907142611
 31
0.0
  0
ARC
  8
3
  6
CONTINUOUS
 62
3
 10
11.0592034373
 20
10.5529642611
 30
0.0
 40
0.26225
 50
90
 51
270
  0
LINE
  8
3
  6
CONTINUOUS
 62
3
 10
11.0592034373
 20
10.8152142611
 30
0.0
 11
11.2182868857
 21
10.8152142611
 31
0.0
  0
ARC
  8
3
  6
CONTINUOUS
 62
3
 10
11.2182868857
 20
11.0652142611
 30
0.0
 40
0.249999999999998
 50
269.999999999998
 51
320.640140854398
  0
ARC
  8
3
  6
CONTINUOUS
 62
3
 10
11.2666105151
 20
11.0255774493
 30
0.0
 40
0.187500000000005
 50
320.6401408544
 51
39.3598591456001
  0
ARC
  8
3
  6
CONTINUOUS
 62
3
 10
11.2182868856999
 20
10.9859406376
 30
0.0
 40
0.250000000000154
 50
39.3598591456875
 51
43.7617426926876
  0
ARC
  8
3
  6
CONTINUOUS
 62
3
 10
11.6245368857
 20
11.375
 30
0.0
 40
0.312500000000002
 50
180
 51
223.7617426927
  0
LINE
  8
3
  6
CONTINUOUS
 62
3
 10
11.3120368857
 20
11.375
 30
0.0
 11
11.3120368857
 21
11.6875
 31
0.0
  0
ARC
  8
3
  6
CONTINUOUS
 62
3
 10
11.0620368857
 20
11.6875
 30
0.0
 40
0.25
 50
359.999999999999
 51
89.9999999999998
  0
LINE
  8
3
  6
CONTINUOUS
 62
3
 10
11.0620368857
 20
11.9375
 30
0.0
 11
9.351059114
 21
11.9375
 31
0.0
  0
ARC
  8
3
  6
CONTINUOUS
 62
3
 10
9.35105911397615
 20
11.6875000001253
 30
0.0
 40
0.249999999874706
 50
89.9999999945331
 51
120.000000009325
  0
ARC
  8
3
  6
CONTINUOUS
 62
3
 10
9.15337149968815
 20
12.6249999999744
 30
0.0
 40
0.374999999974354
 50
191.249999995292
 51
270.00000000181
  0
LINE
  8
3
  6
CONTINUOUS
 62
3
 10
9.1533714997
 20
12.25
 30
0.0
 11
14.1794476904
 21
12.25
 31
0.0
  0
ARC
  8
3
  6
CONTINUOUS
 62
3
 10
14.1794476904
 20
12.625
 30
0.0
 40
0.375
 50
269.999999999999
 51
359.999999999999
  0
LINE
  8
3
  6
CONTINUOUS
 62
3
 10
14.5544476904
 20
12.625
 30
0.0
 11
14.5544476904
 21
13.217592424
 31
0.0
  0
ARC
  8
3
  6
CONTINUOUS
 62
3
 10
14.1794476904
 20
13.2175924236295
 30
0.0
 40
0.375
 50
5.66162714682804E-8
 51
84.2144187766639
  0
ARC
  8
3
  6
CONTINUOUS
 62
3
 10
12.3251095464526
 20
-5.083834854917
 30
0.0
 40
18.7701300724953
 50
84.214418770957
 51
84.8570056195614
  0
ARC
  8
3
  6
CONTINUOUS
 62
3
 10
12.3114576056327
 20
-5.23551627128882
 30
0.0
 40
18.9224246146192
 50
84.8570056195627
 51
85.4941617750404
  0
ARC
  8
3
  6
CONTINUOUS
 62
3
 10
12.3074187300312
 20
-5.28676828329959
 30
0.0
 40
18.9738355205758
 50
85.4941617750377
 51
86.132039855243
  0
ARC
  8
3
  6
CONTINUOUS
 62
3
 10
12.3017717760008
 20
-5.37028904342302
 30
0.0
 40
19.0575469622156
 50
86.132039855244
 51
86.7676896559145
  0
ARC
  8
3
  6
CONTINUOUS
 62
3
 10
12.2972472717728
 20
-5.44765480960853
 30
0.0
 40
19.1350447619628
 50
86.7672253223098
 51
88.1241642097865
  0
ARC
  8
3
  6
CONTINUOUS
 62
3
 10
12.2912785865755
 20
-5.62989798742162
 30
0.0
 40
19.3173856544208
 50
88.1241642097858
 51
89.468325025283
  0
ARC
  8
3
  6
CONTINUOUS
 62
3
 10
12.29115552602
 20
-5.64315918719548
 30
0.0
 40
19.3306474251677
 50
89.4683250252821
 51
90.8130715967027
  0
ARC
  8
3
  6
CONTINUOUS
 62
3
 10
12.2897590576591
 20
-5.54475903071791
 30
0.0
 40
19.2322373600387
 50
90.813071596702
 51
92.1653074102133
  0
ARC
  8
3
  6
CONTINUOUS
 62
3
 10
12.2865356687613
 20
-5.46332268697725
 30
0.0
 40
19.1507373757678
 50
92.1648759928009
 51
93.5168248052332
  0
ARC
  8
3
  6
CONTINUOUS
 62
3
 10
12.2764230868028
 20
-5.29877640722928
 30
0.0
 40
18.9858806425333
 50
93.5168248052329
 51
94.8805813882049
  0
ARC
  8
3
  6
CONTINUOUS
 62
3
 10
12.263042341054
 20
-5.14207272756278
 30
0.0
 40
18.8286067172379
 50
94.8805813882046
 51
96.2444513854361
  0
ARC
  8
3
  6
CONTINUOUS
 62
3
 10
12.2159325540303
 20
-4.71153106241513
 30
0.0
 40
18.3954953488099
 50
96.2444513854365
 51
97.6407345593658
  0
ARC
  8
3
  6
CONTINUOUS
 62
3
 10
12.1908910374332
 20
-4.52519382146107
 30
0.0
 40
18.2074830008089
 50
97.6405974151
 51
98.1838919868082
  0
ARC
  8
3
  6
CONTINUOUS
 62
3
 10
12.1694576775642
 20
-4.37615982273607
 30
0.0
 40
18.0569156680596
 50
98.1838919868054
 51
98.731807442734
  0
ARC
  8
3
  6
CONTINUOUS
 62
3
 10
12.1551616992844
 20
-4.28308080277942
 30
0.0
 40
17.9627451899304
 50
98.7318074427368
 51
99.279507971206
  0
ARC
  8
3
  6
CONTINUOUS
 62
3
 10
12.1233501592647
 20
-4.088382696679
 30
0.0
 40
17.7654653719117
 50
99.2795079712076
 51
99.8332904449145
  0
ARC
  8
3
  6
CONTINUOUS
 62
3
 10
9.1533714997
 20
13.0465965158
 30
0.0
 40
0.375000000000001
 50
99.8333125951995
 51
179.9999999999
  0
LINE
  8
3
  6
CONTINUOUS
 62
3
 10
8.7783714997
 20
13.0465965158
 30
0.0
 11
8.7783714997
 21
12.625
 31
0.0
  0
ARC
  8
3
  6
CONTINUOUS
 62
3
 10
9.15337149927659
 20
12.6250000000045
 30
0.0
 40
0.374999999576591
 50
180.000000000593
 51
191.250000012082
  0
ARC
  8
3
  6
CONTINUOUS
 62
3
 10
8.15337149974459
 20
12.6249999999744
 30
0.0
 40
0.374999999955418
 50
292.499999994784
 51
3.81316064649725E-9
  0
LINE
  8
3
  6
CONTINUOUS
 62
3
 10
8.5283714997
 20
12.625
 30
0.0
 11
8.5283714997
 21
12.8420992254
 31
0.0
  0
ARC
  8
3
  6
CONTINUOUS
 62
3
 10
8.1533714997
 20
12.8420992254167
 30
0.0
 40
0.375000000000002
 50
359.999999997347
 51
103.32438515322
  0
LINE
  8
3
  6
CONTINUOUS
 62
3
 10
8.06694753628183
 20
13.2070045536145
 30
0.0
 11
8.06179665286154
 21
13.205783763155
 31
0.0
  0
LINE
  8
3
  6
CONTINUOUS
 62
3
 10
8.06179665286154
 20
13.205783763155
 30
0.0
 11
8.05664719210256
 21
13.2045615626004
 31
0.0
  0
LINE
  8
3
  6
CONTINUOUS
 62
3
 10
8.05664719210256
 20
13.2045615626004
 30
0.0
 11
8.05149852489319
 21
13.2033378030501
 31
0.0
  0
LINE
  8
3
  6
CONTINUOUS
 62
3
 10
8.05149852489319
 20
13.2033378030501
 30
0.0
 11
8.04618268920296
 21
13.2020724755207
 31
0.0
  0
ARC
  8
3
  6
CONTINUOUS
 62
3
 10
11.8214969807446
 20
-2.64758613712796
 30
0.0
 40
16.2930867590345
 50
103.397923538902
 51
104.891470695638
  0
ARC
  8
3
  6
CONTINUOUS
 62
3
 10
11.6381023264079
 20
-1.95792520832345
 30
0.0
 40
15.5794581469688
 50
104.89147069564
 51
106.453423573945
  0
ARC
  8
3
  6
CONTINUOUS
 62
3
 10
11.5235724884151
 20
-1.57012158524055
 30
0.0
 40
15.1750960148806
 50
106.453423573944
 51
108.014099858672
  0
ARC
  8
3
  6
CONTINUOUS
 62
3
 10
11.251977278391
 20
-0.734936870655586
 30
0.0
 40
14.2968605876834
 50
108.014099858672
 51
109.671007824913
  0
ARC
  8
3
  6
CONTINUOUS
 62
3
 10
11.1401801630166
 20
-0.422325648668424
 30
0.0
 40
13.9648600314808
 50
109.670835809906
 51
110.352457821068
  0
ARC
  8
3
  6
CONTINUOUS
 62
3
 10
11.0272312704284
 20
-0.117842150760712
 30
0.0
 40
13.6401021942621
 50
110.352457821066
 51
111.05041968399
  0
ARC
  8
3
  6
CONTINUOUS
 62
3
 10
10.9644945842113
 20
0.045163613993229
 30
0.0
 40
13.4654403176532
 50
111.050419683989
 51
111.747761481134
  0
ARC
  8
3
  6
CONTINUOUS
 62
3
 10
10.8339962355446
 20
0.372297442587762
 30
0.0
 40
13.1132381586371
 50
111.747761481135
 51
112.463832365139
  0
ARC
  8
3
  6
CONTINUOUS
 62
3
 10
5.8711883827
 20
12.375
 30
0.0
 40
0.124999999999999
 50
112.463861002798
 51
269.999999999999
  0
LINE
  8
3
  6
CONTINUOUS
 62
3
 10
5.8711883827
 20
12.25
 30
0.0
 11
8.1533714997
 21
12.25
 31
0.0
  0
ARC
  8
3
  6
CONTINUOUS
 62
3
 10
8.15337149972105
 20
12.6249999998435
 30
0.0
 40
0.374999999843453
 50
269.999999996784
 51
292.500000005763
  0
LINE
  8
3
  6
CONTINUOUS
 62
3
 10
8.5581306357
 20
11.6891075888
 30
0.0
 11
8.4995368857
 21
11.5876202368
 31
0.0
  0
LINE
  8
3
  6
CONTINUOUS
 62
3
 10
8.4995368857
 20
11.5876202368
 30
0.0
 11
8.7160432366
 21
11.4626202368
 31
0.0
  0
LINE
  8
3
  6
CONTINUOUS
 62
3
 10
8.7160432366
 20
11.4626202368
 30
0.0
 11
8.8097932366
 21
11.625
 31
0.0
  0
LINE
  8
3
  6
CONTINUOUS
 62
3
 10
8.8097932366
 20
11.625
 30
0.0
 11
8.5932868857
 21
11.75
 31
0.0
  0
LINE
  8
3
  6
CONTINUOUS
 62
3
 10
8.5932868857
 20
11.75
 30
0.0
 11
8.5581306357
 21
11.6891075888
 31
0.0
  0
ARC
  8
3
  6
CONTINUOUS
 62
3
 10
8.5140400612
 20
11.3627404736
 30
0.0
 40
0.0747499999999999
 50
179.999999999999
 51
359.999999999999
  0
ARC
  8
3
  6
CONTINUOUS
 62
3
 10
8.5140400612
 20
11.3627404736
 30
0.0
 40
0.0747499999999999
 50
359.999999999999
 51
180
  0
ARC
  8
3
  6
CONTINUOUS
 62
3
 10
6.2495368856996
 20
11.188484252003
 30
0.0
 40
0.0669291338578745
 50
14.9999999974276
 51
180.000000002572
  0
ARC
  8
3
  6
CONTINUOUS
 62
3
 10
6.2495368857
 20
11.188484252
 30
0.0
 40
0.0669291338582703
 50
179.999999999999
 51
359.999999999999
  0
ARC
  8
3
  6
CONTINUOUS
 62
3
 10
6.24953688574565
 20
11.188484252006
 30
0.0
 40
0.06692913381262
 50
359.999999994856
 51
15.000000005146
  0
ARC
  8
3
  6
CONTINUOUS
 62
3
 10
6.62355263369502
 20
11.5624999999903
 30
0.0
 40
0.254429133854961
 50
315.000000002334
 51
341.597088506635
  0
LINE
  8
3
  6
CONTINUOUS
 62
3
 10
6.8034611996
 20
11.3825914341
 30
0.0
 11
6.4294454516
 21
11.0085756861
 31
0.0
  0
ARC
  8
3
  6
CONTINUOUS
 62
3
 10
6.2495368857
 20
11.188484252
 30
0.0
 40
0.254429133858266
 50
225
 51
315
  0
LINE
  8
3
  6
CONTINUOUS
 62
3
 10
6.0696283198
 20
11.0085756861
 30
0.0
 11
5.6956125718
 21
11.3825914341
 31
0.0
  0
ARC
  8
3
  6
CONTINUOUS
 62
3
 10
5.8755211377
 20
11.5625
 30
0.0
 40
0.254429133858276
 50
189.537215327599
 51
224.999999999999
  0
ARC
  8
3
  6
CONTINUOUS
 62
3
 10
5.1315195799
 20
11.4375
 30
0.0
 40
0.5
 50
9.53721532759955
 51
89.9999999999995
  0
LINE
  8
3
  6
CONTINUOUS
 62
3
 10
5.1315195799
 20
11.9375
 30
0.0
 11
4.7269300841
 21
11.9375
 31
0.0
  0
ARC
  8
3
  6
CONTINUOUS
 62
3
 10
4.72693008607003
 20
11.6875
 30
0.0
 40
0.25000000000001
 50
90.0000004514966
 51
119.031396127159
  0
ARC
  8
3
  6
CONTINUOUS
 62
3
 10
9.69680943411151
 20
2.73317534956722
 30
0.0
 40
10.4910756602731
 50
119.03139573239
 51
120.431879765854
  0
ARC
  8
3
  6
CONTINUOUS
 62
3
 10
9.39092575137974
 20
3.25387744889975
 30
0.0
 40
9.88717541717754
 50
120.431879765851
 51
121.91727786738
  0
ARC
  8
3
  6
CONTINUOUS
 62
3
 10
9.22771445026207
 20
3.51591120477666
 30
0.0
 40
9.57846905502818
 50
121.917277867381
 51
123.401198374791
  0
ARC
  8
3
  6
CONTINUOUS
 62
3
 10
8.88894353157121
 20
4.02966088896256
 30
0.0
 40
8.96307936275851
 50
123.401198374792
 51
124.987959618017
  0
ARC
  8
3
  6
CONTINUOUS
 62
3
 10
8.69082513990499
 20
4.31253935586268
 30
0.0
 40
8.61772286326678
 50
124.987233343168
 51
127.226121490562
  0
ARC
  8
3
  6
CONTINUOUS
 62
3
 10
8.23713619581623
 20
4.90968695947852
 30
0.0
 40
7.86777691955316
 50
127.226121490564
 51
129.678453942261
  0
ARC
  8
3
  6
CONTINUOUS
 62
3
 10
7.99969324284885
 20
5.19590731369999
 30
0.0
 40
7.49588816322335
 50
129.678453942258
 51
132.122149702222
  0
ARC
  8
3
  6
CONTINUOUS
 62
3
 10
7.51349277567425
 20
5.73357803635534
 30
0.0
 40
6.77098768710161
 50
132.122149702224
 51
134.828583145386
  0
ARC
  8
3
  6
CONTINUOUS
 62
3
 10
7.27894917673129
 20
5.96939716169416
 30
0.0
 40
6.43838980593005
 50
134.827754390592
 51
137.522326938893
  0
ARC
  8
3
  6
CONTINUOUS
 62
3
 10
6.84587499094842
 20
6.36592618857134
 30
0.0
 40
5.85120285141925
 50
137.522326938892
 51
140.487373055649
  0
ARC
  8
3
  6
CONTINUOUS
 62
3
 10
6.62915184518604
 20
6.5446591952944
 30
0.0
 40
5.57028576471677
 50
140.487373055661
 51
143.439052925028
  0
ARC
  8
3
  6
CONTINUOUS
 62
3
 10
6.20777929794194
 20
6.85715267283579
 30
0.0
 40
5.04568401378861
 50
143.439052925017
 51
146.698286322176
  0
ARC
  8
3
  6
CONTINUOUS
 62
3
 10
6.0600606664342
 20
6.9541492541108
 30
0.0
 40
4.86896635889605
 50
146.697865889114
 51
148.287919309721
  0
ARC
  8
3
  6
CONTINUOUS
 62
3
 10
5.88775051132193
 20
7.06062037105611
 30
0.0
 40
4.66641540654481
 50
148.287919309719
 51
149.94719986795
  0
ARC
  8
3
  6
CONTINUOUS
 62
3
 10
5.80247945772139
 20
7.10995646642508
 30
0.0
 40
4.5679004184039
 50
149.947199867984
 51
151.602081296019
  0
ARC
  8
3
  6
CONTINUOUS
 62
3
 10
5.64097523383379
 20
7.1972738927909
 30
0.0
 40
4.38430317637482
 50
151.602081295977
 51
153.326252351373
  0
ARC
  8
3
  6
CONTINUOUS
 62
3
 10
2.17005087160002
 20
8.9409754836
 30
0.0
 40
0.499999999999989
 50
153.326321222597
 51
269.999999999997
  0
LINE
  8
3
  6
CONTINUOUS
 62
3
 10
2.1700508716
 20
8.44097548360001
 30
0.0
 11
2.1822669689
 21
8.44097548360001
 31
0.0
  0
ARC
  8
3
  6
CONTINUOUS
 62
3
 10
2.24953688570001
 20
8.18750000000002
 30
0.0
 40
0.26224999999999
 50
359.999999999997
 51
104.863116445797
  0
LINE
  8
3
  6
CONTINUOUS
 62
3
 10
2.5117868857
 20
8.18750000000001
 30
0.0
 11
2.5117868857
 21
6.81250000000001
 31
0.0
  0
ARC
  8
3
  6
CONTINUOUS
 62
3
 10
2.2495368857
 20
6.81250000000001
 30
0.0
 40
0.26225
 50
270
 51
2.55289209354345E-13
  0
LINE
  8
3
  6
CONTINUOUS
 62
3
 10
2.2495368857
 20
6.55025000000001
 30
0.0
 11
2.1744585957
 21
6.55025000000001
 31
0.0
  0
ARC
  8
3
  6
CONTINUOUS
 62
3
 10
2.17445859570568
 20
6.05025000000001
 30
0.0
 40
0.499999999999999
 50
90.0000000006508
 51
206.819929300279
  0
ARC
  8
3
  6
CONTINUOUS
 62
3
 10
5.60856472105914
 20
7.7864413721157
 30
0.0
 40
4.34804435535755
 50
206.819929300573
 51
207.009222110367
  0
ARC
  8
3
  6
CONTINUOUS
 62
3
 10
5.6283921459941
 20
7.79654796992193
 30
0.0
 40
4.37029902000944
 50
207.009222110392
 51
207.197466981188
  0
ARC
  8
3
  6
CONTINUOUS
 62
3
 10
5.63618119663751
 20
7.80055056290301
 30
0.0
 40
4.37905630614716
 50
207.197466980999
 51
207.385851148266
  0
ARC
  8
3
  6
CONTINUOUS
 62
3
 10
5.65373777316679
 20
7.80964552811866
 30
0.0
 40
4.39882880653791
 50
207.385851148353
 51
207.573388540372
  0
LINE
  8
3
  6
CONTINUOUS
 62
3
 10
1.7545338149
 20
5.77349637810001
 30
0.0
 11
1.793258315
 21
5.69859467460001
 31
0.0
  0
ARC
  8
3
  6
CONTINUOUS
 62
3
 10
2.01580174180001
 20
5.81249999999999
 30
0.0
 40
0.249999999999983
 50
207.104917005096
 51
269.999999999996
  0
LINE
  8
3
  6
CONTINUOUS
 62
3
 10
2.0158017418
 20
5.56250000000001
 30
0.0
 11
4.7322569605
 21
5.56250000000001
 31
0.0
  0
ARC
  8
3
  6
CONTINUOUS
 62
3
 10
4.73225696050001
 20
6.06250000000001
 30
0.0
 40
0.500000000000001
 50
269.999999999999
 51
329.999999999999
  0
LINE
  8
3
  6
CONTINUOUS
 62
3
 10
5.1652696624
 20
5.81250000000001
 30
0.0
 11
5.6496571225
 21
6.65148369140001
 31
0.0
  0
ARC
  8
3
  6
CONTINUOUS
 62
3
 10
5.32489759610001
 20
6.83898369140001
 30
0.0
 40
0.375000000000002
 50
329.999999999999
 51
15.5729959991997
  0
ARC
  8
3
  6
CONTINUOUS
 62
3
 10
5.9269533486
 20
7.0067748439
 30
0.0
 40
0.249999999999996
 50
149.999999999999
 51
195.572995999199
  0
LINE
  8
3
  6
CONTINUOUS
 62
3
 10
5.7104469977
 20
7.13177484390001
 30
0.0
 11
5.9309071225
 21
7.51362298110001
 31
0.0
  0
ARC
  8
3
  6
CONTINUOUS
 62
3
 10
6.2015400612
 20
7.3573729811
 30
0.0
 40
0.312500000000108
 50
101.8103148958
 51
150
  0
ARC
  8
3
  6
CONTINUOUS
 62
3
 10
6.0864119076
 20
7.90796516980001
 30
0.0
 40
0.249999999999994
 50
281.810314895799
 51
329.999999999999
  0
LINE
  8
3
  6
CONTINUOUS
 62
3
 10
6.3029182586
 20
7.78296516980001
 30
0.0
 11
8.1961555128
 21
11.0621482849
 31
0.0
  0
ARC
  8
3
  6
CONTINUOUS
 62
3
 10
7.97964916190001
 20
11.1871482849
 30
0.0
 40
0.249999999999994
 50
329.999999999999
 51
18.189685104199
  0
ARC
  8
3
  6
CONTINUOUS
 62
3
 10
8.51404006120001
 20
11.3627404736
 30
0.0
 40
0.312499999999997
 50
150
 51
198.1896851042
  0
LINE
  8
3
  6
CONTINUOUS
 62
3
 10
8.2434071225
 20
11.5189904736
 30
0.0
 11
8.2685273593
 21
11.5625
 31
0.0
  0
ARC
  8
3
  6
CONTINUOUS
 62
3
 10
8.0520210083
 20
11.6875
 30
0.0
 40
0.250000000000001
 50
330
 51
90
  0
LINE
  8
3
  6
CONTINUOUS
 62
3
 10
8.0520210083
 20
11.9375
 30
0.0
 11
7.3675541915
 21
11.9375
 31
0.0
  0
ARC
  8
3
  6
CONTINUOUS
 62
3
 10
7.3675541915
 20
11.4375
 30
0.0
 40
0.5
 50
90.0000000000001
 51
170.4627846724
  0
ARC
  8
3
  6
CONTINUOUS
 62
3
 10
6.62355263370537
 20
11.5625000000319
 30
0.0
 40
0.254429133858275
 50
341.597088497008
 51
350.462784665108
  0
ARC
  8
3
  6
CONTINUOUS
 62
3
 10
6.62355263369275
 20
11.562500000003
 30
0.0
 40
0.0669291338510153
 50
134.999999997429
 51
180.000000002574
  0
ARC
  8
3
  6
CONTINUOUS
 62
3
 10
6.6235526337
 20
11.5625
 30
0.0
 40
0.0669291338582698
 50
179.999999999999
 51
359.999999999999
  0
ARC
  8
3
  6
CONTINUOUS
 62
3
 10
6.62355263370249
 20
11.562500000006
 30
0.0
 40
0.066929133855781
 50
359.999999994854
 51
135.000000005145
  0
ARC
  8
3
  6
CONTINUOUS
 62
3
 10
6.24953688570249
 20
11.936515747994
 30
0.0
 40
0.066929133855781
 50
224.999999994855
 51
5.14481436386048E-9
  0
ARC
  8
3
  6
CONTINUOUS
 62
3
 10
6.2495368857
 20
11.936515748
 30
0.0
 40
0.0669291338582703
 50
359.999999999999
 51
180
  0
ARC
  8
3
  6
CONTINUOUS
 62
3
 10
6.24953688569274
 20
11.936515747997
 30
0.0
 40
0.0669291338510158
 50
179.999999997427
 51
225.000000002571
  0
ARC
  8
3
  6
CONTINUOUS
 62
3
 10
5.87552113769608
 20
11.562500000003
 30
0.0
 40
0.0669291338543534
 50
104.999999997426
 51
180.000000002572
  0
ARC
  8
3
  6
CONTINUOUS
 62
3
 10
5.8755211377
 20
11.5625
 30
0.0
 40
0.0669291338582698
 50
179.999999999999
 51
359.999999999999
  0
ARC
  8
3
  6
CONTINUOUS
 62
3
 10
5.87552113770461
 20
11.562500000006
 30
0.0
 40
0.0669291338536575
 50
359.999999994855
 51
105.000000005145
  0
LINE
  8
3
  6
CONTINUOUS
 62
3
 10
5.5255131065
 20
12.70270808555
 30
0.0
 11
5.6853621087
 21
12.7715892459
 31
0.0
  0
LINE
  8
3
  6
CONTINUOUS
 62
3
 10
5.6853621087
 20
12.7715892459
 30
0.0
 11
6.0133228029
 21
12.9027579962
 31
0.0
  0
LINE
  8
3
  6
CONTINUOUS
 62
3
 10
6.0133228029
 20
12.9027579962
 30
0.0
 11
6.349135982
 21
13.0271691136
 31
0.0
  0
LINE
  8
3
  6
CONTINUOUS
 62
3
 10
6.349135982
 20
13.0271691136
 30
0.0
 11
6.6923816195
 21
13.1446669877
 31
0.0
  0
LINE
  8
3
  6
CONTINUOUS
 62
3
 10
6.6923816195
 20
13.1446669877
 30
0.0
 11
7.0426303923
 21
13.2551046552
 31
0.0
  0
LINE
  8
3
  6
CONTINUOUS
 62
3
 10
7.0426303923
 20
13.2551046552
 30
0.0
 11
7.3994442182
 21
13.3583439834
 31
0.0
  0
LINE
  8
3
  6
CONTINUOUS
 62
3
 10
7.3994442182
 20
13.3583439834
 30
0.0
 11
7.7623768034
 21
13.4542558433
 31
0.0
  0
LINE
  8
3
  6
CONTINUOUS
 62
3
 10
7.7623768034
 20
13.4542558433
 30
0.0
 11
8.130974201
 21
13.5427202707
 31
0.0
  0
LINE
  8
3
  6
CONTINUOUS
 62
3
 10
8.130974201
 20
13.5427202707
 30
0.0
 11
8.5047753788
 21
13.6236266165
 31
0.0
  0
LINE
  8
3
  6
CONTINUOUS
 62
3
 10
8.5047753788
 20
13.6236266165
 30
0.0
 11
8.8833127957
 21
13.6968736851
 31
0.0
  0
LINE
  8
3
  6
CONTINUOUS
 62
3
 10
8.8833127957
 20
13.6968736851
 30
0.0
 11
9.2661129867
 21
13.7623698609
 31
0.0
  0
LINE
  8
3
  6
CONTINUOUS
 62
3
 10
9.2661129867
 20
13.7623698609
 30
0.0
 11
9.652697155
 21
13.8200332231
 31
0.0
  0
LINE
  8
3
  6
CONTINUOUS
 62
3
 10
9.652697155
 20
13.8200332231
 30
0.0
 11
10.0425817709
 21
13.8697916476
 31
0.0
  0
LINE
  8
3
  6
CONTINUOUS
 62
3
 10
10.0425817709
 20
13.8697916476
 30
0.0
 11
10.4352791766
 21
13.911582898
 31
0.0
  0
LINE
  8
3
  6
CONTINUOUS
 62
3
 10
10.4352791766
 20
13.911582898
 30
0.0
 11
10.830298196
 21
13.9453547028
 31
0.0
  0
LINE
  8
3
  6
CONTINUOUS
 62
3
 10
10.830298196
 20
13.9453547028
 30
0.0
 11
11.2271447496
 21
13.971064821
 31
0.0
  0
LINE
  8
3
  6
CONTINUOUS
 62
3
 10
11.2271447496
 20
13.971064821
 30
0.0
 11
11.6253224715
 21
13.9886810951
 31
0.0
  0
LINE
  8
3
  6
CONTINUOUS
 62
3
 10
11.6253224715
 20
13.9886810951
 30
0.0
 11
12.0243333312
 21
13.9981814912
 31
0.0
  0
LINE
  8
3
  6
CONTINUOUS
 62
3
 10
12.0243333312
 20
13.9981814912
 30
0.0
 11
12.4236782559
 21
13.9995541263
 31
0.0
  0
LINE
  8
3
  6
CONTINUOUS
 62
3
 10
12.4236782559
 20
13.9995541263
 30
0.0
 11
12.8228577553
 21
13.9927972836
 31
0.0
  0
LINE
  8
3
  6
CONTINUOUS
 62
3
 10
12.8228577553
 20
13.9927972836
 30
0.0
 11
13.2213725456
 21
13.9779194144
 31
0.0
  0
LINE
  8
3
  6
CONTINUOUS
 62
3
 10
13.2213725456
 20
13.9779194144
 30
0.0
 11
13.6187241747
 21
13.9549391276
 31
0.0
  0
LINE
  8
3
  6
CONTINUOUS
 62
3
 10
13.6187241747
 20
13.9549391276
 30
0.0
 11
14.0144156451
 21
13.9238851662
 31
0.0
  0
LINE
  8
3
  6
CONTINUOUS
 62
3
 10
14.0144156451
 20
13.9238851662
 30
0.0
 11
14.4079520361
 21
13.8847963719
 31
0.0
  0
LINE
  8
3
  6
CONTINUOUS
 62
3
 10
14.4079520361
 20
13.8847963719
 30
0.0
 11
14.7988411222
 21
13.8377216359
 31
0.0
  0
LINE
  8
3
  6
CONTINUOUS
 62
3
 10
14.7988411222
 20
13.8377216359
 30
0.0
 11
15.1865939893
 21
13.7827198381
 31
0.0
  0
LINE
  8
3
  6
CONTINUOUS
 62
3
 10
15.1865939893
 20
13.7827198381
 30
0.0
 11
15.5707256459
 21
13.7198597733
 31
0.0
  0
LINE
  8
3
  6
CONTINUOUS
 62
3
 10
15.5707256459
 20
13.7198597733
 30
0.0
 11
15.9507556298
 21
13.6492200654
 31
0.0
  0
LINE
  8
3
  6
CONTINUOUS
 62
3
 10
15.9507556298
 20
13.6492200654
 30
0.0
 11
16.3262086092
 21
13.5708890686
 31
0.0
  0
LINE
  8
3
  6
CONTINUOUS
 62
3
 10
16.3262086092
 20
13.5708890686
 30
0.0
 11
16.696614977
 21
13.4849647574
 31
0.0
  0
LINE
  8
3
  6
CONTINUOUS
 62
3
 10
16.696614977
 20
13.4849647574
 30
0.0
 11
17.0615114382
 21
13.3915546038
 31
0.0
  0
LINE
  8
3
  6
CONTINUOUS
 62
3
 10
17.0615114382
 20
13.3915546038
 30
0.0
 11
17.4204415897
 21
13.2907754428
 31
0.0
  0
LINE
  8
3
  6
CONTINUOUS
 62
3
 10
17.4204415897
 20
13.2907754428
 30
0.0
 11
17.7729564906
 21
13.1827533265
 31
0.0
  0
LINE
  8
3
  6
CONTINUOUS
 62
3
 10
17.7729564906
 20
13.1827533265
 30
0.0
 11
18.1186152243
 21
13.0676233661
 31
0.0
  0
LINE
  8
3
  6
CONTINUOUS
 62
3
 10
18.1186152243
 20
13.0676233661
 30
0.0
 11
18.4569854495
 21
12.9455295633
 31
0.0
  0
LINE
  8
3
  6
CONTINUOUS
 62
3
 10
18.4569854495
 20
12.9455295633
 30
0.0
 11
18.7876439413
 21
12.81662463
 31
0.0
  0
LINE
  8
3
  6
CONTINUOUS
 62
3
 10
18.7876439413
 20
12.81662463
 30
0.0
 11
19.1101771206
 21
12.6810697972
 31
0.0
  0
LINE
  8
3
  6
CONTINUOUS
 62
3
 10
19.1101771206
 20
12.6810697972
 30
0.0
 11
19.4241815708
 21
12.5390346134
 31
0.0
  0
ARC
  8
3
  6
CONTINUOUS
 62
3
 10
18.9995368857
 20
11.633674524
 30
0.0
 40
1
 50
8.44834837263747E-16
 51
64.8718247855999
  0
LINE
  8
3
  6
CONTINUOUS
 62
3
 10
19.9995368857
 20
11.633674524
 30
0.0
 11
19.9995368857
 21
3.00000000000001
 31
0.0
  0
ARC
  8
3
  6
CONTINUOUS
 62
3
 10
17.9995368857
 20
3.00000000000002
 30
0.0
 40
2
 50
270
 51
1.53511459547513E-13
  0
LINE
  8
3
  6
CONTINUOUS
 62
3
 10
17.9995368857
 20
1.00000000000001
 30
0.0
 11
16.4885760442
 21
1.00000000000001
 31
0.0
  0
ARC
  8
3
  6
CONTINUOUS
 62
3
 10
16.4885760442
 20
2
 30
0.0
 40
0.999999999999994
 50
233.3285964366
 51
270
  0
LINE
  8
3
  6
CONTINUOUS
 62
3
 10
15.8913511394
 20
1.19792617970001
 30
0.0
 11
12.2217617905
 21
3.93030578630001
 31
0.0
  0
ARC
  8
3
  6
CONTINUOUS
 62
3
 10
11.6245368857
 20
3.12823196600001
 30
0.0
 40
0.999999999999997
 50
53.3285964365998
 51
126.6714035634
  0
LINE
  8
3
  6
CONTINUOUS
 62
3
 10
11.027311981
 20
3.93030578630001
 30
0.0
 11
10.2145531973
 21
3.32512484800001
 31
0.0
  0
ARC
  8
3
  6
CONTINUOUS
 62
3
 10
10.4385125366
 20
3.02434716540001
 30
0.0
 40
0.374999999999998
 50
126.671403563401
 51
205.5003953653
  0
ARC
  8
3
  6
CONTINUOUS
 62
3
 10
9.8633419573
 20
2.75000000000001
 30
0.0
 40
0.262249999999995
 50
227.842411761499
 51
25.5003953652993
  0
ARC
  8
3
  6
CONTINUOUS
 62
3
 10
9.4356375726
 20
2.27760554420001
 30
0.0
 40
0.375000000000003
 50
47.8424117615005
 51
126.6714035634
  0
LINE
  8
3
  6
CONTINUOUS
 62
3
 10
9.2116782334
 20
2.57838322680001
 30
0.0
 11
7.357722632
 21
1.19792617970001
 31
0.0
  0
ARC
  8
3
  6
CONTINUOUS
 62
3
 10
6.7604977272
 20
2.00000000000002
 30
0.0
 40
1.00000000000002
 50
270
 51
306.6714035634
  0
LINE
  8
3
  6
CONTINUOUS
 62
3
 10
6.7604977272
 20
1.00000000000001
 30
0.0
 11
3.337147252
 21
1.00000000000001
 31
0.0
  0
ARC
  8
3
  6
CONTINUOUS
 62
3
 10
3.337147252
 20
1.75000000000001
 30
0.0
 40
0.749999999999997
 50
184.0006299616
 51
270
  0
ARC
  8
3
  6
CONTINUOUS
 62
3
 10
-7.38665804269999
 20
1.00000000000023
 30
0.0
 40
10.0000000000001
 50
4.00062996159877
 51
27.5733960435987
  0
LINE
  8
3
  6
CONTINUOUS
 62
3
 10
1.4775280011
 20
5.62884497270001
 30
0.0
 11
1.3693473729
 21
5.85013067730001
 31
0.0
  0
LINE
  8
3
  6
CONTINUOUS
 62
3
 10
1.3693473729
 20
5.85013067730001
 30
0.0
 11
1.2748277965
 21
6.07347999680001
 31
0.0
  0
LINE
  8
3
  6
CONTINUOUS
 62
3
 10
1.2748277965
 20
6.07347999680001
 30
0.0
 11
1.1940874947
 21
6.29861357140001
 31
0.0
  0
LINE
  8
3
  6
CONTINUOUS
 62
3
 10
1.1940874947
 20
6.29861357140001
 30
0.0
 11
1.1272274554
 21
6.52524980970001
 31
0.0
  0
LINE
  8
3
  6
CONTINUOUS
 62
3
 10
1.1272274554
 20
6.52524980970001
 30
0.0
 11
1.0743313054
 21
6.75310524080001
 31
0.0
  0
LINE
  8
3
  6
CONTINUOUS
 62
3
 10
1.0743313054
 20
6.75310524080001
 30
0.0
 11
1.0354652059
 21
6.98189486910001
 31
0.0
  0
LINE
  8
3
  6
CONTINUOUS
 62
3
 10
1.0354652059
 20
6.98189486910001
 30
0.0
 11
1.0106777696
 21
7.21133253010001
 31
0.0
  0
LINE
  8
3
  6
CONTINUOUS
 62
3
 10
1.0106777696
 20
7.21133253010001
 30
0.0
 11
1
 21
7.44113124910001
 31
0.0
  0
LINE
  8
3
  6
CONTINUOUS
 62
3
 10
1
 20
7.44113124910001
 30
0.0
 11
1.0034452526
 21
7.67100359960001
 31
0.0
  0
LINE
  8
3
  6
CONTINUOUS
 62
3
 10
1.0034452526
 20
7.67100359960001
 30
0.0
 11
1.0210092182
 21
7.90066206320001
 31
0.0
  0
LINE
  8
3
  6
CONTINUOUS
 62
3
 10
1.0210092182
 20
7.90066206320001
 30
0.0
 11
1.0526699282
 21
8.12981938880001
 31
0.0
  0
LINE
  8
3
  6
CONTINUOUS
 62
3
 10
1.0526699282
 20
8.12981938880001
 30
0.0
 11
1.0983877822
 21
8.35818895220001
 31
0.0
  0
LINE
  8
3
  6
CONTINUOUS
 62
3
 10
1.0983877822
 20
8.35818895220001
 30
0.0
 11
1.1581055974
 21
8.58548511460001
 31
0.0
  0
LINE
  8
3
  6
CONTINUOUS
 62
3
 10
1.1581055974
 20
8.58548511460001
 30
0.0
 11
1.2317486804
 21
8.81142357970001
 31
0.0
  0
LINE
  8
3
  6
CONTINUOUS
 62
3
 10
1.2317486804
 20
8.81142357970001
 30
0.0
 11
1.3192249201
 21
9.03572174940001
 31
0.0
  0
LINE
  8
3
  6
CONTINUOUS
 62
3
 10
1.3192249201
 20
9.03572174940001
 30
0.0
 11
1.4204249037
 21
9.25809907720001
 31
0.0
  0
LINE
  8
3
  6
CONTINUOUS
 62
3
 10
1.4204249037
 20
9.25809907720001
 30
0.0
 11
1.5352220526
 21
9.47827741920001
 31
0.0
  0
LINE
  8
3
  6
CONTINUOUS
 62
3
 10
1.5352220526
 20
9.47827741920001
 30
0.0
 11
1.6634727814
 21
9.69598138180001
 31
0.0
  0
LINE
  8
3
  6
CONTINUOUS
 62
3
 10
1.6634727814
 20
9.69598138180001
 30
0.0
 11
1.8050166776
 21
9.91093866650001
 31
0.0
  0
LINE
  8
3
  6
CONTINUOUS
 62
3
 10
1.8050166776
 20
9.91093866650001
 30
0.0
 11
1.9596767014
 21
10.1228804101
 31
0.0
  0
LINE
  8
3
  6
CONTINUOUS
 62
3
 10
1.9596767014
 20
10.1228804101
 30
0.0
 11
2.1272594081
 21
10.3315415214
 31
0.0
  0
LINE
  8
3
  6
CONTINUOUS
 62
3
 10
2.1272594081
 20
10.3315415214
 30
0.0
 11
2.3075551895
 21
10.5366610121
 31
0.0
  0
LINE
  8
3
  6
CONTINUOUS
 62
3
 10
2.3075551895
 20
10.5366610121
 30
0.0
 11
2.5003385362
 21
10.7379823241
 31
0.0
  0
LINE
  8
3
  6
CONTINUOUS
 62
3
 10
2.5003385362
 20
10.7379823241
 30
0.0
 11
2.7053683196
 21
10.9352536498
 31
0.0
  0
LINE
  8
3
  6
CONTINUOUS
 62
3
 10
2.7053683196
 20
10.9352536498
 30
0.0
 11
2.9223880936
 21
11.1282282471
 31
0.0
  0
LINE
  8
3
  6
CONTINUOUS
 62
3
 10
2.9223880936
 20
11.1282282471
 30
0.0
 11
3.1511264155
 21
11.3166647484
 31
0.0
  0
LINE
  8
3
  6
CONTINUOUS
 62
3
 10
3.1511264155
 20
11.3166647484
 30
0.0
 11
3.3912971851
 21
11.500327462
 31
0.0
  0
LINE
  8
3
  6
CONTINUOUS
 62
3
 10
3.3912971851
 20
11.500327462
 30
0.0
 11
3.6426000029
 21
11.6789866673
 31
0.0
  0
LINE
  8
3
  6
CONTINUOUS
 62
3
 10
3.6426000029
 20
11.6789866673
 30
0.0
 11
3.9047205457
 21
11.8524189019
 31
0.0
  0
LINE
  8
3
  6
CONTINUOUS
 62
3
 10
3.9047205457
 20
11.8524189019
 30
0.0
 11
4.1773309598
 21
12.020407241
 31
0.0
  0
LINE
  8
3
  6
CONTINUOUS
 62
3
 10
4.1773309598
 20
12.020407241
 30
0.0
 11
4.4600902709
 21
12.1827415691
 31
0.0
  0
LINE
  8
3
  6
CONTINUOUS
 62
3
 10
4.4600902709
 20
12.1827415691
 30
0.0
 11
4.7526448109
 21
12.3392188427
 31
0.0
  0
LINE
  8
3
  6
CONTINUOUS
 62
3
 10
4.7526448109
 20
12.3392188427
 30
0.0
 11
5.0546286599
 21
12.4896433438
 31
0.0
  0
LINE
  8
3
  6
CONTINUOUS
 62
3
 10
5.0546286599
 20
12.4896433438
 30
0.0
 11
5.3656641043
 21
12.6338269252
 31
0.0
  0
LINE
  8
3
  6
CONTINUOUS
 62
3
 10
5.3656641043
 20
12.6338269252
 30
0.0
 11
5.5255131065
 21
12.70270808555
 31
0.0
  0
ENDSEC
  0
EOF
