  0
SECTION
  2
HEADER
  9
$ACADVER
  1
AC1003
  9
$EXTMIN
 10
1
 20
13.9995541263
  9
$EXTMAX
 10
19.9995368857
 20
1
  9
$INSUNITS
 70
1
  9
$INSBASE
 10
10.49976844285
 20
7.49977706315001
999
Created with OMAX Layout for Windows. (www.omax.com) 2/26/2016
  0
ENDSEC
  0
SECTION
  2
TABLES
  0
TABLE
  2
LAYER
 70
    10
  0
LAYER
  2
0
 70
     0
 62
     7
  6
CONTINUOUS
  0
LAYER
  2
1
 70
     0
 62
     7
  6
CONTINUOUS
  0
LAYER
  2
2
 70
     0
 62
     7
  6
CONTINUOUS
  0
LAYER
  2
3
 70
     0
 62
     7
  6
CONTINUOUS
  0
LAYER
  2
4
 70
     0
 62
     7
  6
CONTINUOUS
  0
LAYER
  2
5
 70
     0
 62
     7
  6
CONTINUOUS
  0
LAYER
  2
6
 70
     0
 62
     7
  6
CONTINUOUS
  0
LAYER
  2
7
 70
     0
 62
     7
  6
CONTINUOUS
  0
LAYER
  2
8
 70
     0
 62
     7
  6
CONTINUOUS
  0
LAYER
  2
9
 70
     0
 62
     7
  6
CONTINUOUS
  0
LAYER
  2
10
 70
     0
 62
     7
  6
CONTINUOUS
  0
LAYER
  2
11
 70
     0
 62
     7
  6
CONTINUOUS
  0
LAYER
  2
12
 70
     0
 62
     7
  6
CONTINUOUS
  0
LAYER
  2
13
 70
     0
 62
     7
  6
CONTINUOUS
  0
LAYER
  2
14
 70
     0
 62
     7
  6
CONTINUOUS
  0
LAYER
  2
15
 70
     0
 62
     7
  6
CONTINUOUS
  0
LAYER
  2
16
 70
     0
 62
     7
  6
CONTINUOUS
  0
LAYER
  2
17
 70
     0
 62
     7
  6
CONTINUOUS
  0
LAYER
  2
18
 70
     0
 62
     7
  6
CONTINUOUS
  0
LAYER
  2
19
 70
     0
 62
     7
  6
CONTINUOUS
  0
LAYER
  2
20
 70
     0
 62
     7
  6
CONTINUOUS
  0
LAYER
  2
21
 70
     0
 62
     7
  6
CONTINUOUS
  0
LAYER
  2
22
 70
     0
 62
     7
  6
CONTINUOUS
  0
LAYER
  2
23
 70
     0
 62
     7
  6
CONTINUOUS
  0
LAYER
  2
24
 70
     0
 62
     7
  6
CONTINUOUS
  0
LAYER
  2
25
 70
     0
 62
     7
  6
CONTINUOUS
  0
LAYER
  2
26
 70
     0
 62
     7
  6
CONTINUOUS
  0
LAYER
  2
27
 70
     0
 62
     7
  6
CONTINUOUS
  0
LAYER
  2
28
 70
     0
 62
     7
  6
CONTINUOUS
  0
LAYER
  2
29
 70
     0
 62
     7
  6
CONTINUOUS
  0
LAYER
  2
30
 70
     0
 62
     7
  6
CONTINUOUS
  0
LAYER
  2
31
 70
     0
 62
     7
  6
CONTINUOUS
  0
ENDTAB
  0
ENDSEC
  0
SECTION
  2
ENTITIES
  0
ARC
  8
3
  6
CONTINUOUS
 62
3
 10
6.11334195729742
 20
5.00000000000338
 30
0.0
 40
0.0747499999974246
 50
74.9999999974276
 51
180.000000002572
  0
ARC
  8
3
  6
CONTINUOUS
 62
3
 10
6.1133419573
 20
5.00000000000002
 30
0.0
 40
0.0747499999999999
 50
179.999999999999
 51
359.999999999999
  0
ARC
  8
3
  6
CONTINUOUS
 62
3
 10
6.11334195730875
 20
5.00000000000673
 30
0.0
 40
0.0747499999912523
 50
359.999999994855
 51
75.000000005145
  0
LINE
  8
3
  6
CONTINUOUS
 62
3
 10
6.1445919573
 20
5.37500000000002
 30
0.0
 11
5.9883419573
 21
5.37500000000002
 31
0.0
  0
LINE
  8
3
  6
CONTINUOUS
 62
3
 10
5.9883419573
 20
5.37500000000002
 30
0.0
 11
5.9883419573
 21
5.18750000000002
 31
0.0
  0
LINE
  8
3
  6
CONTINUOUS
 62
3
 10
5.9883419573
 20
5.18750000000002
 30
0.0
 11
6.2383419573
 21
5.18750000000002
 31
0.0
  0
LINE
  8
3
  6
CONTINUOUS
 62
3
 10
6.2383419573
 20
5.18750000000002
 30
0.0
 11
6.2383419573
 21
5.37500000000002
 31
0.0
  0
LINE
  8
3
  6
CONTINUOUS
 62
3
 10
6.2383419573
 20
5.37500000000002
 30
0.0
 11
6.1445919573
 21
5.37500000000002
 31
0.0
  0
ARC
  8
3
  6
CONTINUOUS
 62
3
 10
6.20240608660388
 20
7.35514093029331
 30
0.0
 40
0.0747499999961249
 50
239.999999994855
 51
5.14486525273538E-9
  0
ARC
  8
3
  6
CONTINUOUS
 62
3
 10
6.2024060866
 20
7.35514093030002
 30
0.0
 40
0.0747500000000003
 50
359.999999999999
 51
180
  0
ARC
  8
3
  6
CONTINUOUS
 62
3
 10
6.20240608659419
 20
7.35514093029666
 30
0.0
 40
0.0747499999941876
 50
179.999999997427
 51
240.000000002572
  0
LINE
  8
3
  6
CONTINUOUS
 62
3
 10
5.9403181357
 20
7.15319128328752
 30
0.0
 11
5.9047868857
 21
7.09164935300002
 31
0.0
  0
LINE
  8
3
  6
CONTINUOUS
 62
3
 10
5.9047868857
 20
7.09164935300002
 30
0.0
 11
6.1230252875
 21
6.96564935300002
 31
0.0
  0
LINE
  8
3
  6
CONTINUOUS
 62
3
 10
6.1230252875
 20
6.96564935300002
 30
0.0
 11
6.2177752875
 21
7.12976116710002
 31
0.0
  0
LINE
  8
3
  6
CONTINUOUS
 62
3
 10
6.2177752875
 20
7.12976116710002
 30
0.0
 11
5.9995368857
 21
7.25576116710002
 31
0.0
  0
LINE
  8
3
  6
CONTINUOUS
 62
3
 10
5.9995368857
 20
7.25576116710002
 30
0.0
 11
5.9403181357
 21
7.15319128328752
 31
0.0
  0
ARC
  8
3
  6
CONTINUOUS
 62
3
 10
2.2495368857
 20
8.18750000000002
 30
0.0
 40
0.0747499999999999
 50
179.999999999999
 51
359.999999999999
  0
ARC
  8
3
  6
CONTINUOUS
 62
3
 10
2.2495368857
 20
8.18750000000002
 30
0.0
 40
0.0747499999999999
 50
359.999999999999
 51
180
  0
ARC
  8
3
  6
CONTINUOUS
 62
3
 10
1.37453688570503
 20
8.18749999999499
 30
0.0
 40
0.0747499999949657
 50
269.999999996141
 51
3.85850263403619E-9
  0
ARC
  8
3
  6
CONTINUOUS
 62
3
 10
1.3745368857
 20
8.18750000000002
 30
0.0
 40
0.0747499999999999
 50
359.999999999999
 51
180
  0
ARC
  8
3
  6
CONTINUOUS
 62
3
 10
1.37453688569497
 20
8.18749999999499
 30
0.0
 40
0.0747499999949657
 50
179.999999996141
 51
270.000000003858
  0
ARC
  8
3
  6
CONTINUOUS
 62
3
 10
1.3745368857
 20
6.81250000000002
 30
0.0
 40
0.0747499999999999
 50
359.999999999999
 51
180
  0
ARC
  8
3
  6
CONTINUOUS
 62
3
 10
1.3745368857
 20
6.81250000000002
 30
0.0
 40
0.0747499999999999
 50
179.999999999999
 51
359.999999999999
  0
ARC
  8
3
  6
CONTINUOUS
 62
3
 10
2.24953688570562
 20
6.81250000000561
 30
0.0
 40
0.262249999994155
 50
87.322673824164
 51
170.757994633914
  0
LINE
  8
3
  6
CONTINUOUS
 62
3
 10
2.2617868857
 20
7.07446373790002
 30
0.0
 11
2.2617868857
 21
7.92553626210002
 31
0.0
  0
ARC
  8
3
  6
CONTINUOUS
 62
3
 10
2.24953688570001
 20
8.18750000000003
 30
0.0
 40
0.262250000000012
 50
177.322673823003
 51
272.677326177003
  0
LINE
  8
3
  6
CONTINUOUS
 62
3
 10
1.9875731478
 20
8.19975000000002
 30
0.0
 11
1.6365006237
 21
8.19975000000002
 31
0.0
  0
ARC
  8
3
  6
CONTINUOUS
 62
3
 10
1.37453688570001
 20
8.18750000000001
 30
0.0
 40
0.262249999999991
 50
262.154287724802
 51
2.67732617700173
  0
ARC
  8
3
  6
CONTINUOUS
 62
3
 10
4.79655753533781
 20
7.49550880229704
 30
0.0
 40
3.48472495802703
 50
172.875495333278
 51
173.053058401976
  0
ARC
  8
3
  6
CONTINUOUS
 62
3
 10
4.79546626789993
 20
7.49564176744774
 30
0.0
 40
3.4836256198842
 50
173.053058402594
 51
173.230606448473
  0
ARC
  8
3
  6
CONTINUOUS
 62
3
 10
4.79305071152761
 20
7.49592849646246
 30
0.0
 40
3.48119310552335
 50
173.230606447981
 51
173.408201504372
  0
ARC
  8
3
  6
CONTINUOUS
 62
3
 10
4.79001262433736
 20
7.49627957446018
 30
0.0
 40
3.47813480051304
 50
173.408201504581
 51
173.587155911902
  0
ARC
  8
3
  6
CONTINUOUS
 62
3
 10
4.77701448261243
 20
7.49767535648069
 30
0.0
 40
3.46506209271493
 50
173.586085481947
 51
176.579606605734
  0
ARC
  8
3
  6
CONTINUOUS
 62
3
 10
4.73772700985418
 20
7.5000234957653
 30
0.0
 40
3.4257045105505
 50
176.579606605758
 51
179.607510418097
  0
ARC
  8
3
  6
CONTINUOUS
 62
3
 10
4.73521607274192
 20
7.50004069654296
 30
0.0
 40
3.42319351452332
 50
179.607510418065
 51
182.641281065407
  0
ARC
  8
3
  6
CONTINUOUS
 62
3
 10
4.77013758164766
 20
7.50165168631188
 30
0.0
 40
3.45815216255624
 50
182.641281065431
 51
185.645728122539
  0
ARC
  8
3
  6
CONTINUOUS
 62
3
 10
4.7779419397187
 20
7.5024222031926
 30
0.0
 40
3.46599446452593
 50
185.645711734371
 51
186.015237674896
  0
ARC
  8
3
  6
CONTINUOUS
 62
3
 10
4.78673505223943
 20
7.50334876094381
 30
0.0
 40
3.47483625942678
 50
186.015237674529
 51
186.3849999948
  0
ARC
  8
3
  6
CONTINUOUS
 62
3
 10
4.78949270619287
 20
7.50365735038993
 30
0.0
 40
3.47761112568899
 50
186.384999994943
 51
186.755154441406
  0
ARC
  8
3
  6
CONTINUOUS
 62
3
 10
4.79725546793896
 20
7.50457684194133
 30
0.0
 40
3.48542815419346
 50
186.755154441539
 51
187.124478720897
  0
ARC
  8
3
  6
CONTINUOUS
 62
3
 10
1.37453688570001
 20
6.81250000000003
 30
0.0
 40
0.262249999999989
 50
357.322673822997
 51
97.8457188771975
  0
LINE
  8
3
  6
CONTINUOUS
 62
3
 10
1.6365006237
 20
6.80025000000002
 30
0.0
 11
1.9875731478
 21
6.80025000000002
 31
0.0
  0
ARC
  8
3
  6
CONTINUOUS
 62
3
 10
2.24953688592883
 20
6.81249999993627
 30
0.0
 40
0.262250000225597
 50
170.757994626791
 51
182.677326160751
  0
ARC
  8
3
  6
CONTINUOUS
 62
3
 10
2.24953688570875
 20
6.81249999999331
 30
0.0
 40
0.0747499999912524
 50
284.999999994855
 51
5.14478891942303E-9
  0
ARC
  8
3
  6
CONTINUOUS
 62
3
 10
2.2495368857
 20
6.81250000000002
 30
0.0
 40
0.0747499999999999
 50
359.999999999999
 51
180
  0
ARC
  8
3
  6
CONTINUOUS
 62
3
 10
2.24953688569742
 20
6.81249999999666
 30
0.0
 40
0.0747499999974247
 50
179.999999997427
 51
285.000000002572
  0
LINE
  8
3
  6
CONTINUOUS
 62
3
 10
2.8633419573
 20
5.30468750000002
 30
0.0
 11
2.8633419573
 21
5.18750000000002
 31
0.0
  0
LINE
  8
3
  6
CONTINUOUS
 62
3
 10
2.8633419573
 20
5.18750000000002
 30
0.0
 11
3.1133419573
 21
5.18750000000002
 31
0.0
  0
LINE
  8
3
  6
CONTINUOUS
 62
3
 10
3.1133419573
 20
5.18750000000002
 30
0.0
 11
3.1133419573
 21
5.37500000000002
 31
0.0
  0
LINE
  8
3
  6
CONTINUOUS
 62
3
 10
3.1133419573
 20
5.37500000000002
 30
0.0
 11
2.8633419573
 21
5.37500000000002
 31
0.0
  0
LINE
  8
3
  6
CONTINUOUS
 62
3
 10
2.8633419573
 20
5.37500000000002
 30
0.0
 11
2.8633419573
 21
5.30468750000002
 31
0.0
  0
ARC
  8
3
  6
CONTINUOUS
 62
3
 10
2.98834195730503
 20
4.99999999999499
 30
0.0
 40
0.0747499999949657
 50
269.999999996141
 51
3.85850263403619E-9
  0
ARC
  8
3
  6
CONTINUOUS
 62
3
 10
2.9883419573
 20
5.00000000000002
 30
0.0
 40
0.0747499999999999
 50
359.999999999999
 51
180
  0
ARC
  8
3
  6
CONTINUOUS
 62
3
 10
2.98834195729497
 20
4.99999999999499
 30
0.0
 40
0.0747499999949657
 50
179.999999996141
 51
270.000000003858
  0
ARC
  8
3
  6
CONTINUOUS
 62
3
 10
2.98834195730503
 20
1.87499999999499
 30
0.0
 40
0.0747499999949657
 50
269.999999996141
 51
3.85850263403619E-9
  0
ARC
  8
3
  6
CONTINUOUS
 62
3
 10
2.9883419573
 20
1.87500000000002
 30
0.0
 40
0.0747499999999999
 50
359.999999999999
 51
180
  0
ARC
  8
3
  6
CONTINUOUS
 62
3
 10
2.98834195729497
 20
1.87499999999499
 30
0.0
 40
0.0747499999949657
 50
179.999999996141
 51
270.000000003858
  0
LINE
  8
3
  6
CONTINUOUS
 62
3
 10
3.1133419573
 20
1.57031250000002
 30
0.0
 11
3.1133419573
 21
1.68750000000002
 31
0.0
  0
LINE
  8
3
  6
CONTINUOUS
 62
3
 10
3.1133419573
 20
1.68750000000002
 30
0.0
 11
2.8633419573
 21
1.68750000000002
 31
0.0
  0
LINE
  8
3
  6
CONTINUOUS
 62
3
 10
2.8633419573
 20
1.68750000000002
 30
0.0
 11
2.8633419573
 21
1.50000000000002
 31
0.0
  0
LINE
  8
3
  6
CONTINUOUS
 62
3
 10
2.8633419573
 20
1.50000000000002
 30
0.0
 11
3.1133419573
 21
1.50000000000002
 31
0.0
  0
LINE
  8
3
  6
CONTINUOUS
 62
3
 10
3.1133419573
 20
1.50000000000002
 30
0.0
 11
3.1133419573
 21
1.57031250000002
 31
0.0
  0
ARC
  8
3
  6
CONTINUOUS
 62
3
 10
4.5508419573
 20
1.50000000000002
 30
0.0
 40
0.1005
 50
359.999999999999
 51
180
  0
ARC
  8
3
  6
CONTINUOUS
 62
3
 10
4.5508419573
 20
1.50000000000002
 30
0.0
 40
0.1005
 50
179.999999999999
 51
359.999999999999
  0
LINE
  8
3
  6
CONTINUOUS
 62
3
 10
5.8008419573
 20
1.60156250000002
 30
0.0
 11
5.8008419573
 21
1.87500000000002
 31
0.0
  0
ARC
  8
3
  6
CONTINUOUS
 62
3
 10
6.1133419573
 20
1.87500000000002
 30
0.0
 40
0.31250000000001
 50
131.810314895801
 51
180.000000000001
  0
ARC
  8
3
  6
CONTINUOUS
 62
3
 10
5.7383419573
 20
2.29426274580002
 30
0.0
 40
0.25
 50
311.810314895801
 51
6.64735928425875E-13
  0
LINE
  8
3
  6
CONTINUOUS
 62
3
 10
5.9883419573
 20
2.29426274580002
 30
0.0
 11
5.9883419573
 21
4.58073725420002
 31
0.0
  0
ARC
  8
3
  6
CONTINUOUS
 62
3
 10
5.73834195730001
 20
4.58073725420001
 30
0.0
 40
0.250000000000003
 50
1.35173573962199E-12
 51
48.1896851042014
  0
ARC
  8
3
  6
CONTINUOUS
 62
3
 10
6.1133419573
 20
5.00000000000001
 30
0.0
 40
0.312499999999983
 50
179.999999999999
 51
228.189685104199
  0
LINE
  8
3
  6
CONTINUOUS
 62
3
 10
5.8008419573
 20
5.00000000000002
 30
0.0
 11
5.8008419573
 21
5.12500000000002
 31
0.0
  0
ARC
  8
3
  6
CONTINUOUS
 62
3
 10
5.5508419573
 20
5.12500000000002
 30
0.0
 40
0.25
 50
359.999999999999
 51
89.9999999999998
  0
LINE
  8
3
  6
CONTINUOUS
 62
3
 10
5.5508419573
 20
5.37500000000002
 30
0.0
 11
3.5508419573
 21
5.37500000000002
 31
0.0
  0
ARC
  8
3
  6
CONTINUOUS
 62
3
 10
3.5508419573
 20
5.12500000000002
 30
0.0
 40
0.25
 50
89.9999999999998
 51
180
  0
LINE
  8
3
  6
CONTINUOUS
 62
3
 10
3.3008419573
 20
5.12500000000002
 30
0.0
 11
3.3008419573
 21
5.00000000000002
 31
0.0
  0
ARC
  8
3
  6
CONTINUOUS
 62
3
 10
2.9883419573
 20
5.00000000000002
 30
0.0
 40
0.3125
 50
180
 51
1.53511459547513E-13
  0
LINE
  8
3
  6
CONTINUOUS
 62
3
 10
2.6758419573
 20
5.00000000000002
 30
0.0
 11
2.6758419573
 21
5.12500000000002
 31
0.0
  0
ARC
  8
3
  6
CONTINUOUS
 62
3
 10
2.4258419573
 20
5.12500000000002
 30
0.0
 40
0.25
 50
359.999999999999
 51
89.9999999999998
  0
LINE
  8
3
  6
CONTINUOUS
 62
3
 10
2.4258419573
 20
5.37500000000002
 30
0.0
 11
2.3370645597
 21
5.37500000000002
 31
0.0
  0
ARC
  8
3
  6
CONTINUOUS
 62
3
 10
2.3370645597
 20
5.12500000000002
 30
0.0
 40
0.249999999999997
 50
89.9999999999998
 51
202.9876399233
  0
ARC
  8
3
  6
CONTINUOUS
 62
3
 10
-7.38665804270004
 20
1.00000000000012
 30
0.0
 40
10.3125
 50
7.78204997959981
 51
22.9876399232998
  0
ARC
  8
3
  6
CONTINUOUS
 62
3
 10
3.0785646042
 20
2.43021718630002
 30
0.0
 40
0.250000000000005
 50
187.782049979599
 51
260.770128418999
  0
ARC
  8
3
  6
CONTINUOUS
 62
3
 10
2.98834195729999
 20
1.87500000000002
 30
0.0
 40
0.312500000000002
 50
3.57066959161178E-13
 51
80.7701284190003
  0
LINE
  8
3
  6
CONTINUOUS
 62
3
 10
3.3008419573
 20
1.87500000000002
 30
0.0
 11
3.3008419573
 21
1.56250000000002
 31
0.0
  0
ARC
  8
3
  6
CONTINUOUS
 62
3
 10
3.5508419573
 20
1.56250000000002
 30
0.0
 40
0.25
 50
179.999999999999
 51
269.999999999999
  0
LINE
  8
3
  6
CONTINUOUS
 62
3
 10
3.5508419573
 20
1.31250000000002
 30
0.0
 11
4.016484633
 21
1.31250000000002
 31
0.0
  0
ARC
  8
3
  6
CONTINUOUS
 62
3
 10
4.016484633
 20
1.56250000000002
 30
0.0
 40
0.250000000000002
 50
269.999999999999
 51
353.328828649699
  0
ARC
  8
3
  6
CONTINUOUS
 62
3
 10
4.5508419573
 20
1.50000000000002
 30
0.0
 40
0.288000000000004
 50
6.67117135029913
 51
173.3288286497
  0
ARC
  8
3
  6
CONTINUOUS
 62
3
 10
5.0851992815
 20
1.56250000000002
 30
0.0
 40
0.250000000000004
 50
186.6711713504
 51
269.999999999999
  0
LINE
  8
3
  6
CONTINUOUS
 62
3
 10
5.0851992815
 20
1.31250000000002
 30
0.0
 11
5.5508419573
 21
1.31250000000002
 31
0.0
  0
ARC
  8
3
  6
CONTINUOUS
 62
3
 10
5.5508419573
 20
1.56250000000002
 30
0.0
 40
0.25
 50
269.999999999999
 51
359.999999999999
  0
LINE
  8
3
  6
CONTINUOUS
 62
3
 10
5.8008419573
 20
1.56250000000002
 30
0.0
 11
5.8008419573
 21
1.60156250000002
 31
0.0
  0
LINE
  8
3
  6
CONTINUOUS
 62
3
 10
6.2383419573
 20
1.57031250000002
 30
0.0
 11
6.2383419573
 21
1.68750000000002
 31
0.0
  0
LINE
  8
3
  6
CONTINUOUS
 62
3
 10
6.2383419573
 20
1.68750000000002
 30
0.0
 11
5.9883419573
 21
1.68750000000002
 31
0.0
  0
LINE
  8
3
  6
CONTINUOUS
 62
3
 10
5.9883419573
 20
1.68750000000002
 30
0.0
 11
5.9883419573
 21
1.50000000000002
 31
0.0
  0
LINE
  8
3
  6
CONTINUOUS
 62
3
 10
5.9883419573
 20
1.50000000000002
 30
0.0
 11
6.2383419573
 21
1.50000000000002
 31
0.0
  0
LINE
  8
3
  6
CONTINUOUS
 62
3
 10
6.2383419573
 20
1.50000000000002
 30
0.0
 11
6.2383419573
 21
1.57031250000002
 31
0.0
  0
ARC
  8
3
  6
CONTINUOUS
 62
3
 10
6.11334195729956
 20
1.87500000000338
 30
0.0
 40
0.074749999999558
 50
14.9999999974272
 51
180.000000002572
  0
ARC
  8
3
  6
CONTINUOUS
 62
3
 10
6.1133419573
 20
1.87500000000002
 30
0.0
 40
0.0747499999999999
 50
179.999999999999
 51
359.999999999999
  0
ARC
  8
3
  6
CONTINUOUS
 62
3
 10
6.11334195735098
 20
1.87500000000673
 30
0.0
 40
0.0747499999490154
 50
359.999999994854
 51
15.0000000051445
  0
ARC
  8
3
  6
CONTINUOUS
 62
3
 10
8.79141988139312
 20
3.00000000000399
 30
0.0
 40
0.0884999999931175
 50
119.999999997427
 51
180.000000002572
  0
ARC
  8
3
  6
CONTINUOUS
 62
3
 10
8.7914198814
 20
3.00000000000002
 30
0.0
 40
0.0884999999999998
 50
179.999999999999
 51
359.999999999999
  0
ARC
  8
3
  6
CONTINUOUS
 62
3
 10
8.79141988140459
 20
3.00000000000797
 30
0.0
 40
0.0884999999954116
 50
359.999999994855
 51
120.000000005145
  0
ARC
  8
3
  6
CONTINUOUS
 62
3
 10
8.16641988139264
 20
4.49999999999884
 30
0.0
 40
0.275999999994047
 50
226.09844721633
 51
265.862119535692
  0
ARC
  8
3
  6
CONTINUOUS
 62
3
 10
7.8016802482
 20
4.12100000000002
 30
0.0
 40
0.250000000000014
 50
46.098447215399
 51
89.9999999999991
  0
LINE
  8
3
  6
CONTINUOUS
 62
3
 10
7.8016802482
 20
4.37100000000002
 30
0.0
 11
6.4883419573
 21
4.37100000000002
 31
0.0
  0
ARC
  8
3
  6
CONTINUOUS
 62
3
 10
6.4883419573
 20
4.12100000000002
 30
0.0
 40
0.25
 50
89.9999999999998
 51
180
  0
LINE
  8
3
  6
CONTINUOUS
 62
3
 10
6.2383419573
 20
4.12100000000002
 30
0.0
 11
6.2383419573
 21
2.29426274580002
 31
0.0
  0
ARC
  8
3
  6
CONTINUOUS
 62
3
 10
6.48834195730001
 20
2.29426274580001
 30
0.0
 40
0.249999999999998
 50
179.999999999998
 51
228.189685104199
  0
ARC
  8
3
  6
CONTINUOUS
 62
3
 10
6.1133419573
 20
1.87500000000002
 30
0.0
 40
0.312500000000016
 50
1.17128895761584E-12
 51
48.1896851042012
  0
LINE
  8
3
  6
CONTINUOUS
 62
3
 10
6.4258419573
 20
1.87500000000002
 30
0.0
 11
6.4258419573
 21
1.56250000000002
 31
0.0
  0
ARC
  8
3
  6
CONTINUOUS
 62
3
 10
6.6758419573
 20
1.56250000000002
 30
0.0
 40
0.25
 50
179.999999999999
 51
269.999999999999
  0
LINE
  8
3
  6
CONTINUOUS
 62
3
 10
6.6758419573
 20
1.31250000000002
 30
0.0
 11
6.8331372603
 21
1.31250000000002
 31
0.0
  0
ARC
  8
3
  6
CONTINUOUS
 62
3
 10
6.83313726030001
 20
2.31250000000003
 30
0.0
 40
1.00000000000001
 50
270
 51
307.8336565899
  0
LINE
  8
3
  6
CONTINUOUS
 62
3
 10
7.4465083597
 20
1.52270515680002
 30
0.0
 11
8.5856564309
 21
2.40739123800002
 31
0.0
  0
ARC
  8
3
  6
CONTINUOUS
 62
3
 10
8.4323136561
 20
2.60483994880002
 30
0.0
 40
0.249999999999996
 50
307.8336565899
 51
37.8336565898998
  0
LINE
  8
3
  6
CONTINUOUS
 62
3
 10
8.6297623669
 20
2.75818272360002
 30
0.0
 11
8.5734365047
 21
2.83070957660002
 31
0.0
  0
ARC
  8
3
  6
CONTINUOUS
 62
3
 10
8.7914198814
 20
3.00000000000002
 30
0.0
 40
0.275999999999999
 50
135.473627699099
 51
217.8336565899
  0
ARC
  8
3
  6
CONTINUOUS
 62
3
 10
8.4164198814
 20
3.36885091840002
 30
0.0
 40
0.249999999999997
 50
315.473627699099
 51
359.999999999999
  0
LINE
  8
3
  6
CONTINUOUS
 62
3
 10
8.6664198814
 20
3.36885091840002
 30
0.0
 11
8.6664198814
 21
4.12100000000002
 31
0.0
  0
ARC
  8
3
  6
CONTINUOUS
 62
3
 10
8.4164198814
 20
4.12100000000002
 30
0.0
 40
0.25
 50
359.999999999999
 51
89.9999999999998
  0
LINE
  8
3
  6
CONTINUOUS
 62
3
 10
8.4164198814
 20
4.37100000000002
 30
0.0
 11
8.4104178322
 21
4.37100000000002
 31
0.0
  0
ARC
  8
3
  6
CONTINUOUS
 62
3
 10
8.16641988140217
 20
4.50000000000412
 30
0.0
 40
0.276000000000002
 50
265.862119533798
 51
332.134906732736
  0
ARC
  8
3
  6
CONTINUOUS
 62
3
 10
8.1664198814
 20
4.50000000000002
 30
0.0
 40
0.0884999999999998
 50
359.999999999999
 51
180
  0
ARC
  8
3
  6
CONTINUOUS
 62
3
 10
8.1664198814
 20
4.50000000000002
 30
0.0
 40
0.0884999999999998
 50
179.999999999999
 51
359.999999999999
  0
ARC
  8
3
  6
CONTINUOUS
 62
3
 10
9.41641988146036
 20
4.49999999999207
 30
0.0
 40
0.088499999939637
 50
344.999999994856
 51
5.14599912047933E-9
  0
ARC
  8
3
  6
CONTINUOUS
 62
3
 10
9.4164198814
 20
4.50000000000002
 30
0.0
 40
0.0884999999999998
 50
359.999999999999
 51
180
  0
ARC
  8
3
  6
CONTINUOUS
 62
3
 10
9.41641988139948
 20
4.49999999999605
 30
0.0
 40
0.0884999999994769
 50
179.999999997427
 51
345.000000002572
  0
ARC
  8
3
  6
CONTINUOUS
 62
3
 10
10.3845663642954
 20
4.12100000010395
 30
0.0
 40
0.249999999896068
 50
72.2292070652378
 51
89.9999999989478
  0
LINE
  8
3
  6
CONTINUOUS
 62
3
 10
10.3845663643
 20
4.37100000000002
 30
0.0
 11
9.7811595146
 21
4.37100000000002
 31
0.0
  0
ARC
  8
3
  6
CONTINUOUS
 62
3
 10
9.78115951459999
 20
4.12100000000003
 30
0.0
 40
0.249999999999995
 50
89.9999999999988
 51
133.901552784599
  0
ARC
  8
3
  6
CONTINUOUS
 62
3
 10
9.4164198814
 20
4.50000000000002
 30
0.0
 40
0.276000000000002
 50
207.865093266301
 51
313.901552784601
  0
LINE
  8
3
  6
CONTINUOUS
 62
3
 10
9.1724219306
 20
4.37100000000002
 30
0.0
 11
9.1664198814
 21
4.37100000000002
 31
0.0
  0
ARC
  8
3
  6
CONTINUOUS
 62
3
 10
9.1664198814
 20
4.12100000000002
 30
0.0
 40
0.25
 50
89.9999999999998
 51
180
  0
LINE
  8
3
  6
CONTINUOUS
 62
3
 10
8.9164198814
 20
4.12100000000002
 30
0.0
 11
8.9164198814
 21
3.36885091840002
 31
0.0
  0
ARC
  8
3
  6
CONTINUOUS
 62
3
 10
9.1664198814
 20
3.36885091840002
 30
0.0
 40
0.249999999999997
 50
179.999999999999
 51
224.526372300899
  0
ARC
  8
3
  6
CONTINUOUS
 62
3
 10
8.79141988139994
 20
3.00000000000004
 30
0.0
 40
0.27600000000049
 50
37.8336565898883
 51
44.5263723008883
  0
LINE
  8
3
  6
CONTINUOUS
 62
3
 10
9.0094032581
 20
3.16929042340002
 30
0.0
 11
9.0657291204
 21
3.09676357050002
 31
0.0
  0
ARC
  8
3
  6
CONTINUOUS
 62
3
 10
9.2631778312
 20
3.25010634540002
 30
0.0
 40
0.249999999999996
 50
217.833656589899
 51
307.8336565899
  0
LINE
  8
3
  6
CONTINUOUS
 62
3
 10
9.416520606
 20
3.05265763450002
 30
0.0
 11
10.5379091392
 21
3.92355128920002
 31
0.0
  0
ARC
  8
3
  6
CONTINUOUS
 62
3
 10
10.3845663643262
 20
4.121000000001
 30
0.0
 40
0.249999999984719
 50
307.833656585025
 51
72.2292070791522
  0
ARC
  8
3
  6
CONTINUOUS
 62
3
 10
11.623536885706
 20
6.93549999999406
 30
0.0
 40
0.0884999999940396
 50
269.999999996141
 51
3.85850263403619E-9
  0
ARC
  8
3
  6
CONTINUOUS
 62
3
 10
11.6235368857
 20
6.93550000000002
 30
0.0
 40
0.0884999999999998
 50
359.999999999999
 51
180
  0
ARC
  8
3
  6
CONTINUOUS
 62
3
 10
11.623536885694
 20
6.93549999999406
 30
0.0
 40
0.0884999999940396
 50
179.999999996141
 51
270.000000003858
  0
ARC
  8
3
  6
CONTINUOUS
 62
3
 10
11.623536885706
 20
5.93549999999406
 30
0.0
 40
0.0884999999940396
 50
269.999999996141
 51
3.85850263403619E-9
  0
ARC
  8
3
  6
CONTINUOUS
 62
3
 10
11.6235368857
 20
5.93550000000002
 30
0.0
 40
0.0884999999999998
 50
359.999999999999
 51
180
  0
ARC
  8
3
  6
CONTINUOUS
 62
3
 10
11.623536885694
 20
5.93549999999406
 30
0.0
 40
0.0884999999940396
 50
179.999999996141
 51
270.000000003858
  0
ARC
  8
3
  6
CONTINUOUS
 62
3
 10
11.623536885705
 20
4.93549999999499
 30
0.0
 40
0.0747499999949657
 50
269.999999996141
 51
3.85850263403619E-9
  0
ARC
  8
3
  6
CONTINUOUS
 62
3
 10
11.6235368857
 20
4.93550000000002
 30
0.0
 40
0.0747499999999999
 50
359.999999999999
 51
180
  0
ARC
  8
3
  6
CONTINUOUS
 62
3
 10
11.623536885695
 20
4.93549999999499
 30
0.0
 40
0.0747499999949657
 50
179.999999996141
 51
270.000000003858
  0
LINE
  8
3
  6
CONTINUOUS
 62
3
 10
11.6550368857
 20
4.55850000000002
 30
0.0
 11
11.7495368857
 21
4.55850000000002
 31
0.0
  0
LINE
  8
3
  6
CONTINUOUS
 62
3
 10
11.7495368857
 20
4.55850000000002
 30
0.0
 11
11.7495368857
 21
4.74800000000002
 31
0.0
  0
LINE
  8
3
  6
CONTINUOUS
 62
3
 10
11.7495368857
 20
4.74800000000002
 30
0.0
 11
11.4975368857
 21
4.74800000000002
 31
0.0
  0
LINE
  8
3
  6
CONTINUOUS
 62
3
 10
11.4975368857
 20
4.74800000000002
 30
0.0
 11
11.4975368857
 21
4.55850000000002
 31
0.0
  0
LINE
  8
3
  6
CONTINUOUS
 62
3
 10
11.4975368857
 20
4.55850000000002
 30
0.0
 11
11.6550368857
 21
4.55850000000002
 31
0.0
  0
ARC
  8
3
  6
CONTINUOUS
 62
3
 10
18.2495368856974
 20
1.50000000000453
 30
0.0
 40
0.100499999997396
 50
59.9999999974266
 51
180.000000002572
  0
ARC
  8
3
  6
CONTINUOUS
 62
3
 10
18.2495368857
 20
1.50000000000002
 30
0.0
 40
0.1005
 50
179.999999999999
 51
359.999999999999
  0
ARC
  8
3
  6
CONTINUOUS
 62
3
 10
18.2495368857156
 20
1.50000000000905
 30
0.0
 40
0.10049999998437
 50
359.999999994854
 51
60.0000000051434
  0
ARC
  8
3
  6
CONTINUOUS
 62
3
 10
19.4370368856627
 20
4.12100000014247
 30
0.0
 40
0.249999999857549
 50
78.7499999850102
 51
89.999999991441
  0
LINE
  8
3
  6
CONTINUOUS
 62
3
 10
19.4370368857
 20
4.37100000000002
 30
0.0
 11
12.8625074071
 21
4.37100000000002
 31
0.0
  0
ARC
  8
3
  6
CONTINUOUS
 62
3
 10
12.8625074071
 20
4.12100000000002
 30
0.0
 40
0.249999999999998
 50
89.9999999999998
 51
232.1663434101
  0
LINE
  8
3
  6
CONTINUOUS
 62
3
 10
12.7091646322
 20
3.92355128920002
 30
0.0
 11
15.8005654117
 21
1.52270515680002
 31
0.0
  0
ARC
  8
3
  6
CONTINUOUS
 62
3
 10
16.4139365111
 20
2.31250000000002
 30
0.0
 40
0.999999999999996
 50
232.1663434101
 51
270
  0
LINE
  8
3
  6
CONTINUOUS
 62
3
 10
16.4139365111
 20
1.31250000000002
 30
0.0
 11
17.7151795614
 21
1.31250000000002
 31
0.0
  0
ARC
  8
3
  6
CONTINUOUS
 62
3
 10
17.7151795614
 20
1.56250000000002
 30
0.0
 40
0.250000000000002
 50
269.999999999999
 51
353.328828649699
  0
ARC
  8
3
  6
CONTINUOUS
 62
3
 10
18.2495368857
 20
1.50000000000002
 30
0.0
 40
0.287999999999998
 50
28.5668864668998
 51
173.328828649699
  0
ARC
  8
3
  6
CONTINUOUS
 62
3
 10
18.7220404881
 20
1.75726318370002
 30
0.0
 40
0.249999999999997
 50
208.566886466899
 51
300.172906604299
  0
ARC
  8
3
  6
CONTINUOUS
 62
3
 10
17.9995368857
 20
3.00000000000003
 30
0.0
 40
1.68750000000006
 50
300.172906604299
 51
360
  0
LINE
  8
3
  6
CONTINUOUS
 62
3
 10
19.6870368857
 20
3.00000000000002
 30
0.0
 11
19.6870368857
 21
4.12100000000002
 31
0.0
  0
ARC
  8
3
  6
CONTINUOUS
 62
3
 10
19.4370368857364
 20
4.12100000001967
 30
0.0
 40
0.249999999963613
 50
359.999999995498
 51
78.7500000070744
  0
LINE
  8
3
  6
CONTINUOUS
 62
3
 10
19.4995368857
 20
4.62956250000002
 30
0.0
 11
19.4995368857
 21
4.74800000000002
 31
0.0
  0
LINE
  8
3
  6
CONTINUOUS
 62
3
 10
19.4995368857
 20
4.74800000000002
 30
0.0
 11
19.2475368857
 21
4.74800000000002
 31
0.0
  0
LINE
  8
3
  6
CONTINUOUS
 62
3
 10
19.2475368857
 20
4.74800000000002
 30
0.0
 11
19.2475368857
 21
4.55850000000002
 31
0.0
  0
LINE
  8
3
  6
CONTINUOUS
 62
3
 10
19.2475368857
 20
4.55850000000002
 30
0.0
 11
19.4995368857
 21
4.55850000000002
 31
0.0
  0
LINE
  8
3
  6
CONTINUOUS
 62
3
 10
19.4995368857
 20
4.55850000000002
 30
0.0
 11
19.4995368857
 21
4.62956250000002
 31
0.0
  0
ARC
  8
3
  6
CONTINUOUS
 62
3
 10
19.3735368856974
 20
4.93550000000338
 30
0.0
 40
0.0747499999974247
 50
74.9999999974283
 51
180.000000002573
  0
ARC
  8
3
  6
CONTINUOUS
 62
3
 10
19.3735368857
 20
4.93550000000002
 30
0.0
 40
0.0747499999999999
 50
179.999999999999
 51
359.999999999999
  0
ARC
  8
3
  6
CONTINUOUS
 62
3
 10
19.3735368857087
 20
4.93550000000673
 30
0.0
 40
0.0747499999912542
 50
359.999999994854
 51
75.0000000051446
  0
ARC
  8
3
  6
CONTINUOUS
 62
3
 10
19.6245368857
 20
6.81250000000002
 30
0.0
 40
0.0747499999999981
 50
179.999999999999
 51
359.999999999999
  0
ARC
  8
3
  6
CONTINUOUS
 62
3
 10
19.6245368857
 20
6.81250000000002
 30
0.0
 40
0.0747499999999981
 50
359.999999999999
 51
180
  0
ARC
  8
3
  6
CONTINUOUS
 62
3
 10
18.749536885695
 20
6.81250000000505
 30
0.0
 40
0.0747499999949639
 50
89.9999999961411
 51
180.000000003859
  0
ARC
  8
3
  6
CONTINUOUS
 62
3
 10
18.7495368857
 20
6.81250000000002
 30
0.0
 40
0.0747499999999981
 50
179.999999999999
 51
359.999999999999
  0
ARC
  8
3
  6
CONTINUOUS
 62
3
 10
18.749536885705
 20
6.81250000000506
 30
0.0
 40
0.0747499999949639
 50
359.999999996141
 51
90.0000000038585
  0
ARC
  8
3
  6
CONTINUOUS
 62
3
 10
18.749536885725
 20
8.18749999999331
 30
0.0
 40
0.0747499999749478
 50
329.999999994855
 51
5.14531053039079E-9
  0
ARC
  8
3
  6
CONTINUOUS
 62
3
 10
18.7495368857
 20
8.18750000000002
 30
0.0
 40
0.0747499999999981
 50
359.999999999999
 51
180
  0
ARC
  8
3
  6
CONTINUOUS
 62
3
 10
18.7495368856991
 20
8.18749999999666
 30
0.0
 40
0.074749999999099
 50
179.999999997427
 51
330.000000002572
  0
ARC
  8
3
  6
CONTINUOUS
 62
3
 10
19.624536885702
 20
8.18750000004462
 30
0.0
 40
0.262249999999911
 50
177.322673832753
 51
257.171321258089
  0
LINE
  8
3
  6
CONTINUOUS
 62
3
 10
19.3625731478
 20
8.19975000000002
 30
0.0
 11
19.0115006237
 21
8.19975000000002
 31
0.0
  0
ARC
  8
3
  6
CONTINUOUS
 62
3
 10
18.7495368857
 20
8.18750000000002
 30
0.0
 40
0.262249999999999
 50
267.322673823
 51
2.67732617700016
  0
LINE
  8
3
  6
CONTINUOUS
 62
3
 10
18.7372868857
 20
7.92553626210002
 30
0.0
 11
18.7372868857
 21
7.07446373790002
 31
0.0
  0
ARC
  8
3
  6
CONTINUOUS
 62
3
 10
18.7495368857
 20
6.81250000000002
 30
0.0
 40
0.26225
 50
357.322673822999
 51
92.6773261769995
  0
LINE
  8
3
  6
CONTINUOUS
 62
3
 10
19.0115006237
 20
6.80025000000002
 30
0.0
 11
19.3625731478
 21
6.80025000000002
 31
0.0
  0
ARC
  8
3
  6
CONTINUOUS
 62
3
 10
19.6245368857
 20
6.81250000000002
 30
0.0
 40
0.262250000000001
 50
76.2124629294995
 51
182.677326176999
  0
LINE
  8
3
  6
CONTINUOUS
 62
3
 10
19.6870368857
 20
7.06719356590002
 30
0.0
 11
19.6870368857
 21
7.93280643410002
 31
0.0
  0
ARC
  8
3
  6
CONTINUOUS
 62
3
 10
19.6245368857954
 20
8.18750000002344
 30
0.0
 40
0.262250000000001
 50
257.17132123716
 51
283.787537049034
  0
ARC
  8
3
  6
CONTINUOUS
 62
3
 10
19.624536885695
 20
8.18750000000506
 30
0.0
 40
0.0747499999949639
 50
89.9999999961411
 51
180.000000003859
  0
ARC
  8
3
  6
CONTINUOUS
 62
3
 10
19.6245368857
 20
8.18750000000002
 30
0.0
 40
0.0747499999999981
 50
179.999999999999
 51
359.999999999999
  0
ARC
  8
3
  6
CONTINUOUS
 62
3
 10
19.624536885705
 20
8.18750000000506
 30
0.0
 40
0.0747499999949639
 50
359.999999996141
 51
90.0000000038585
  0
ARC
  8
3
  6
CONTINUOUS
 62
3
 10
19.624536885695
 20
10.0703289060051
 30
0.0
 40
0.0747499999949639
 50
89.9999999961411
 51
180.000000003859
  0
ARC
  8
3
  6
CONTINUOUS
 62
3
 10
19.6245368857
 20
10.070328906
 30
0.0
 40
0.0747499999999981
 50
179.999999999999
 51
359.999999999999
  0
ARC
  8
3
  6
CONTINUOUS
 62
3
 10
19.624536885705
 20
10.0703289060051
 30
0.0
 40
0.0747499999949639
 50
359.999999996141
 51
90.0000000038585
  0
ARC
  8
3
  6
CONTINUOUS
 62
3
 10
19.373536885695
 20
11.3730000000051
 30
0.0
 40
0.0747499999949657
 50
89.9999999961425
 51
180.00000000386
  0
ARC
  8
3
  6
CONTINUOUS
 62
3
 10
19.3735368857
 20
11.373
 30
0.0
 40
0.0747499999999999
 50
179.999999999999
 51
359.999999999999
  0
ARC
  8
3
  6
CONTINUOUS
 62
3
 10
19.373536885705
 20
11.3730000000051
 30
0.0
 40
0.0747499999949675
 50
359.999999996141
 51
90.0000000038585
  0
LINE
  8
3
  6
CONTINUOUS
 62
3
 10
19.2475368857
 20
11.6789375
 30
0.0
 11
19.2475368857
 21
11.5605
 31
0.0
  0
LINE
  8
3
  6
CONTINUOUS
 62
3
 10
19.2475368857
 20
11.5605
 30
0.0
 11
19.4995368857
 21
11.5605
 31
0.0
  0
LINE
  8
3
  6
CONTINUOUS
 62
3
 10
19.4995368857
 20
11.5605
 30
0.0
 11
19.4995368857
 21
11.75
 31
0.0
  0
LINE
  8
3
  6
CONTINUOUS
 62
3
 10
19.4995368857
 20
11.75
 30
0.0
 11
19.2475368857
 21
11.75
 31
0.0
  0
LINE
  8
3
  6
CONTINUOUS
 62
3
 10
19.2475368857
 20
11.75
 30
0.0
 11
19.2475368857
 21
11.6789375
 31
0.0
  0
ARC
  8
3
  6
CONTINUOUS
 62
3
 10
17.5232699104014
 20
11.812499999999
 30
0.0
 40
0.125000000000002
 50
162.467191392025
 51
234.934382784825
  0
LINE
  8
3
  6
CONTINUOUS
 62
3
 10
17.4514556376
 20
11.7101881717
 30
0.0
 11
19.4168491724
 21
10.3306477034
 31
0.0
  0
ARC
  8
3
  6
CONTINUOUS
 62
3
 10
19.4886634453
 20
10.4329595317
 30
0.0
 40
0.124999999999995
 50
234.9343827856
 51
290.5403846281
  0
ARC
  8
3
  6
CONTINUOUS
 62
3
 10
19.6245368857
 20
10.070328906
 30
0.0
 40
0.262250000000045
 50
99.2878442361052
 51
110.540384628105
  0
ARC
  8
3
  6
CONTINUOUS
 62
3
 10
19.5620368857
 20
10.4525020506
 30
0.0
 40
0.125
 50
279.287844236098
 51
359.999999999998
  0
LINE
  8
3
  6
CONTINUOUS
 62
3
 10
19.6870368857
 20
10.4525020506
 30
0.0
 11
19.6870368857
 21
10.8095
 31
0.0
  0
ARC
  8
3
  6
CONTINUOUS
 62
3
 10
19.4370368857
 20
10.8095
 30
0.0
 40
0.25
 50
359.999999999999
 51
89.9999999999998
  0
LINE
  8
3
  6
CONTINUOUS
 62
3
 10
19.4370368857
 20
11.0595
 30
0.0
 11
19.3735368857
 21
11.0595
 31
0.0
  0
ARC
  8
3
  6
CONTINUOUS
 62
3
 10
19.3735368857
 20
11.373
 30
0.0
 40
0.313499999999999
 50
180
 51
270
  0
LINE
  8
3
  6
CONTINUOUS
 62
3
 10
19.0600368857
 20
11.373
 30
0.0
 11
19.0600368857
 21
11.6875
 31
0.0
  0
ARC
  8
3
  6
CONTINUOUS
 62
3
 10
18.8100368857
 20
11.6875
 30
0.0
 40
0.25
 50
359.999999999999
 51
89.9999999999998
  0
LINE
  8
3
  6
CONTINUOUS
 62
3
 10
18.8100368857
 20
11.9375
 30
0.0
 11
17.5232699104
 21
11.9375
 31
0.0
  0
ARC
  8
3
  6
CONTINUOUS
 62
3
 10
17.5232699103862
 20
11.8125000000211
 30
0.0
 40
0.124999999978892
 50
89.9999999936855
 51
162.467191399582
  0
ARC
  8
3
  6
CONTINUOUS
 62
3
 10
16.9644293491745
 20
11.9375000000034
 30
0.0
 40
0.0747499999745057
 50
164.999999997427
 51
180.000000002572
  0
ARC
  8
3
  6
CONTINUOUS
 62
3
 10
16.9644293492
 20
11.9375
 30
0.0
 40
0.0747499999999981
 50
179.999999999999
 51
359.999999999999
  0
ARC
  8
3
  6
CONTINUOUS
 62
3
 10
16.9644293492009
 20
11.9375000000067
 30
0.0
 40
0.0747499999991143
 50
359.999999994855
 51
165.000000005145
  0
ARC
  8
3
  6
CONTINUOUS
 62
3
 10
15.1794476904756
 20
12.6249999999306
 30
0.0
 40
0.374999999930622
 50
236.249999982014
 51
269.999999988445
  0
LINE
  8
3
  6
CONTINUOUS
 62
3
 10
15.1794476904
 20
12.25
 30
0.0
 11
18.7116724187
 21
12.25
 31
0.0
  0
ARC
  8
3
  6
CONTINUOUS
 62
3
 10
18.7116724184888
 20
12.375
 30
0.0
 40
0.124999999999999
 50
270.000000096822
 51
67.5348751708406
  0
ARC
  8
3
  6
CONTINUOUS
 62
3
 10
13.7753939279173
 20
0.437222261722832
 30
0.0
 40
13.0431029050316
 50
67.5348752603154
 51
67.9079817680194
  0
ARC
  8
3
  6
CONTINUOUS
 62
3
 10
13.704324193912
 20
0.262128642052
 30
0.0
 40
13.2320703168808
 50
67.9079817680178
 51
68.275612173753
  0
ARC
  8
3
  6
CONTINUOUS
 62
3
 10
13.6725269256091
 20
0.182324528628835
 30
0.0
 40
13.3179758626319
 50
68.2756121737545
 51
68.643684148995
  0
ARC
  8
3
  6
CONTINUOUS
 62
3
 10
13.608470396662
 20
0.0185039805993301
 30
0.0
 40
13.4938747280559
 50
68.643684149003
 51
69.0076558790142
  0
ARC
  8
3
  6
CONTINUOUS
 62
3
 10
13.5072842905917
 20
-0.244797328932524
 30
0.0
 40
13.7759495182522
 50
69.0070556828569
 51
70.7052176731714
  0
ARC
  8
3
  6
CONTINUOUS
 62
3
 10
13.206723663956
 20
-1.10331437307242
 30
0.0
 40
14.6855583382195
 50
70.7052176731698
 51
72.2982252303467
  0
ARC
  8
3
  6
CONTINUOUS
 62
3
 10
13.0815699486845
 20
-1.49543085443999
 30
0.0
 40
15.0971634735208
 50
72.2982252303459
 51
73.8940044488106
  0
ARC
  8
3
  6
CONTINUOUS
 62
3
 10
12.8707393849889
 20
-2.22558370472612
 30
0.0
 40
15.8571455202621
 50
73.894004448813
 51
75.4139729561731
  0
ARC
  8
3
  6
CONTINUOUS
 62
3
 10
12.7800315504774
 20
-2.57363600749161
 30
0.0
 40
16.2168235698477
 50
75.4135023502987
 51
76.8667993177494
  0
ARC
  8
3
  6
CONTINUOUS
 62
3
 10
12.6136219937248
 20
-3.28686604168839
 30
0.0
 40
16.9492095488635
 50
76.866799317749
 51
78.2573725634098
  0
ARC
  8
3
  6
CONTINUOUS
 62
3
 10
12.5503791945226
 20
-3.59111387871549
 30
0.0
 40
17.2599608931672
 50
78.2573725634108
 51
79.6494261346973
  0
ARC
  8
3
  6
CONTINUOUS
 62
3
 10
12.453909932026
 20
-4.11929935239987
 30
0.0
 40
17.7968838049691
 50
79.6494261346977
 51
80.9994861059905
  0
ARC
  8
3
  6
CONTINUOUS
 62
3
 10
15.1794476904
 20
13.0880676525
 30
0.0
 40
0.375000000000003
 50
80.9995402265999
 51
180
  0
LINE
  8
3
  6
CONTINUOUS
 62
3
 10
14.8044476904
 20
13.0880676525
 30
0.0
 11
14.8044476904
 21
12.625
 31
0.0
  0
ARC
  8
3
  6
CONTINUOUS
 62
3
 10
15.179447690287
 20
12.6250000000042
 30
0.0
 40
0.374999999887033
 50
180.000000000643
 51
236.250000012219
  0
ARC
  8
3
  6
CONTINUOUS
 62
3
 10
14.7495368857145
 20
11.936515747994
 30
0.0
 40
0.0669291338437611
 50
314.999999994855
 51
5.14514196099267E-9
  0
ARC
  8
3
  6
CONTINUOUS
 62
3
 10
14.7495368857
 20
11.936515748
 30
0.0
 40
0.0669291338582703
 50
359.999999999999
 51
180
  0
ARC
  8
3
  6
CONTINUOUS
 62
3
 10
14.7495368856988
 20
11.936515747997
 30
0.0
 40
0.0669291338570258
 50
179.999999997427
 51
315.000000002572
  0
ARC
  8
3
  6
CONTINUOUS
 62
3
 10
15.123552633695
 20
11.5624999999904
 30
0.0
 40
0.254429133854969
 50
315.000000002331
 51
341.597088506631
  0
LINE
  8
3
  6
CONTINUOUS
 62
3
 10
15.3034611996
 20
11.3825914341
 30
0.0
 11
14.9294454516
 21
11.0085756861
 31
0.0
  0
ARC
  8
3
  6
CONTINUOUS
 62
3
 10
14.7495368857
 20
11.188484252
 30
0.0
 40
0.254429133858267
 50
225
 51
315
  0
LINE
  8
3
  6
CONTINUOUS
 62
3
 10
14.5696283198
 20
11.0085756861
 30
0.0
 11
14.1956125718
 21
11.3825914341
 31
0.0
  0
ARC
  8
3
  6
CONTINUOUS
 62
3
 10
14.3755211377
 20
11.5625
 30
0.0
 40
0.254429133858275
 50
189.537215327599
 51
224.999999999999
  0
ARC
  8
3
  6
CONTINUOUS
 62
3
 10
13.6315195799
 20
11.4375
 30
0.0
 40
0.499999999999999
 50
9.5372153275995
 51
89.9999999999997
  0
LINE
  8
3
  6
CONTINUOUS
 62
3
 10
13.6315195799
 20
11.9375
 30
0.0
 11
12.1870368857
 21
11.9375
 31
0.0
  0
ARC
  8
3
  6
CONTINUOUS
 62
3
 10
12.1870368857
 20
11.6875
 30
0.0
 40
0.249999999999999
 50
90
 51
180
  0
LINE
  8
3
  6
CONTINUOUS
 62
3
 10
11.9370368857
 20
11.6875
 30
0.0
 11
11.9370368857
 21
11.373
 31
0.0
  0
ARC
  8
3
  6
CONTINUOUS
 62
3
 10
11.6235368857
 20
11.373
 30
0.0
 40
0.313499999999999
 50
316.1321886892
 51
2.55289209354345E-13
  0
ARC
  8
3
  6
CONTINUOUS
 62
3
 10
12.0297868857
 20
10.9824962388
 30
0.0
 40
0.250000000000001
 50
136.1321886892
 51
180
  0
LINE
  8
3
  6
CONTINUOUS
 62
3
 10
11.7797868857
 20
10.9824962388
 30
0.0
 11
11.7797868857
 21
7.26962114200002
 31
0.0
  0
ARC
  8
3
  6
CONTINUOUS
 62
3
 10
12.0297868857
 20
7.26962114200002
 30
0.0
 40
0.250000000000003
 50
179.999999999999
 51
219.435657694499
  0
ARC
  8
3
  6
CONTINUOUS
 62
3
 10
11.6235368857
 20
6.93550000000002
 30
0.0
 40
0.276000000000001
 50
1.02622584644096E-13
 51
39.4356576945
  0
LINE
  8
3
  6
CONTINUOUS
 62
3
 10
11.8995368857
 20
6.93550000000002
 30
0.0
 11
11.8995368857
 21
5.13762929030002
 31
0.0
  0
ARC
  8
3
  6
CONTINUOUS
 62
3
 10
12.1495368857
 20
5.13762929030002
 30
0.0
 40
0.249999999999995
 50
179.999999999999
 51
201.020580480899
  0
ARC
  8
3
  6
CONTINUOUS
 62
3
 10
11.6235368857
 20
4.93550000000003
 30
0.0
 40
0.313499999999952
 50
13.1809433351983
 51
21.0205804808984
  0
ARC
  8
3
  6
CONTINUOUS
 62
3
 10
12.4156050646
 20
5.12100000000002
 30
0.0
 40
0.500000000000002
 50
193.180943335199
 51
269.999999999999
  0
LINE
  8
3
  6
CONTINUOUS
 62
3
 10
12.4156050646
 20
4.62100000000002
 30
0.0
 11
18.8100368857
 21
4.62100000000002
 31
0.0
  0
ARC
  8
3
  6
CONTINUOUS
 62
3
 10
18.8100368857
 20
4.87100000000002
 30
0.0
 40
0.25
 50
269.999999999999
 51
359.999999999999
  0
LINE
  8
3
  6
CONTINUOUS
 62
3
 10
19.0600368857
 20
4.87100000000002
 30
0.0
 11
19.0600368857
 21
4.93550000000002
 31
0.0
  0
ARC
  8
3
  6
CONTINUOUS
 62
3
 10
19.3735368857
 20
4.93550000000002
 30
0.0
 40
0.313499999999999
 50
89.9999999999999
 51
180
  0
LINE
  8
3
  6
CONTINUOUS
 62
3
 10
19.3735368857
 20
5.24900000000002
 30
0.0
 11
19.4370368857
 21
5.24900000000002
 31
0.0
  0
ARC
  8
3
  6
CONTINUOUS
 62
3
 10
19.4370368857
 20
5.49900000000002
 30
0.0
 40
0.25
 50
269.999999999999
 51
359.999999999999
  0
LINE
  8
3
  6
CONTINUOUS
 62
3
 10
19.6870368857
 20
5.49900000000002
 30
0.0
 11
19.6870368857
 21
6.05025000000002
 31
0.0
  0
ARC
  8
3
  6
CONTINUOUS
 62
3
 10
19.1870368857
 20
6.05025000000003
 30
0.0
 40
0.5
 50
359.999999999999
 51
89.9999999999998
  0
LINE
  8
3
  6
CONTINUOUS
 62
3
 10
19.1870368857
 20
6.55025000000002
 30
0.0
 11
18.7495368857
 21
6.55025000000002
 31
0.0
  0
ARC
  8
3
  6
CONTINUOUS
 62
3
 10
18.7495368857
 20
6.81250000000002
 30
0.0
 40
0.26225
 50
179.999999999999
 51
269.999999999999
  0
LINE
  8
3
  6
CONTINUOUS
 62
3
 10
18.4872868857
 20
6.81250000000002
 30
0.0
 11
18.4872868857
 21
8.18750000000002
 31
0.0
  0
ARC
  8
3
  6
CONTINUOUS
 62
3
 10
18.7495368857
 20
8.18750000000002
 30
0.0
 40
0.262249999999998
 50
89.9999999999998
 51
180
  0
LINE
  8
3
  6
CONTINUOUS
 62
3
 10
18.7495368857
 20
8.44975000000002
 30
0.0
 11
19.1870368857
 21
8.44975000000002
 31
0.0
  0
ARC
  8
3
  6
CONTINUOUS
 62
3
 10
19.1870368857
 20
8.94975000000002
 30
0.0
 40
0.500000000000001
 50
270
 51
360
  0
LINE
  8
3
  6
CONTINUOUS
 62
3
 10
19.6870368857
 20
8.94975000000002
 30
0.0
 11
19.6870368857
 21
9.68815576130002
 31
0.0
  0
ARC
  8
3
  6
CONTINUOUS
 62
3
 10
19.5620368857
 20
9.68815576130003
 30
0.0
 40
0.125000000000001
 50
359.999999999996
 51
80.7121557638964
  0
ARC
  8
3
  6
CONTINUOUS
 62
3
 10
19.6245368857
 20
10.070328906
 30
0.0
 40
0.262249999999997
 50
179.3283809431
 51
260.7121557639
  0
ARC
  8
3
  6
CONTINUOUS
 62
3
 10
19.2373134903
 20
10.0748681325
 30
0.0
 40
0.125000000000007
 50
359.328380943103
 51
54.9343827856038
  0
LINE
  8
3
  6
CONTINUOUS
 62
3
 10
19.3091277632
 20
10.1771799609
 30
0.0
 11
17.1721170625
 21
11.6771812026
 31
0.0
  0
ARC
  8
3
  6
CONTINUOUS
 62
3
 10
17.1003027896
 20
11.5748693743
 30
0.0
 40
0.124999999999994
 50
54.9343827856005
 51
110.540384628101
  0
ARC
  8
3
  6
CONTINUOUS
 62
3
 10
16.9644293492
 20
11.9375
 30
0.0
 40
0.26225
 50
198.831669619299
 51
290.540384628099
  0
ARC
  8
3
  6
CONTINUOUS
 62
3
 10
16.5979084596
 20
11.8125
 30
0.0
 40
0.125000000000002
 50
18.8316696192984
 51
89.9999999999984
  0
LINE
  8
3
  6
CONTINUOUS
 62
3
 10
16.5979084596
 20
11.9375
 30
0.0
 11
15.8675541915
 21
11.9375
 31
0.0
  0
ARC
  8
3
  6
CONTINUOUS
 62
3
 10
15.8675541915
 20
11.4375
 30
0.0
 40
0.5
 50
90.0000000000001
 51
170.4627846724
  0
ARC
  8
3
  6
CONTINUOUS
 62
3
 10
15.1235526337054
 20
11.562500000032
 30
0.0
 40
0.254429133858283
 50
341.597088497005
 51
350.462784665105
  0
ARC
  8
3
  6
CONTINUOUS
 62
3
 10
15.1235526337025
 20
11.562499999994
 30
0.0
 40
0.066929133855781
 50
224.999999994855
 51
5.14481436386048E-9
  0
ARC
  8
3
  6
CONTINUOUS
 62
3
 10
15.1235526337
 20
11.5625
 30
0.0
 40
0.0669291338582703
 50
359.999999999999
 51
180
  0
ARC
  8
3
  6
CONTINUOUS
 62
3
 10
15.1235526336927
 20
11.562499999997
 30
0.0
 40
0.0669291338510158
 50
179.999999997427
 51
225.000000002571
  0
ARC
  8
3
  6
CONTINUOUS
 62
3
 10
14.7495368856927
 20
11.188484252003
 30
0.0
 40
0.0669291338510158
 50
134.999999997428
 51
180.000000002573
  0
ARC
  8
3
  6
CONTINUOUS
 62
3
 10
14.7495368857
 20
11.188484252
 30
0.0
 40
0.0669291338582703
 50
179.999999999999
 51
359.999999999999
  0
ARC
  8
3
  6
CONTINUOUS
 62
3
 10
14.7495368857025
 20
11.188484252006
 30
0.0
 40
0.066929133855781
 50
359.999999994854
 51
135.000000005145
  0
ARC
  8
3
  6
CONTINUOUS
 62
3
 10
14.3755211377045
 20
11.5624999999955
 30
0.0
 40
0.0669291338537628
 50
269.999999996141
 51
3.85850263403619E-9
  0
ARC
  8
3
  6
CONTINUOUS
 62
3
 10
14.3755211377
 20
11.5625
 30
0.0
 40
0.0669291338582703
 50
359.999999999999
 51
180
  0
ARC
  8
3
  6
CONTINUOUS
 62
3
 10
14.3755211376955
 20
11.5624999999955
 30
0.0
 40
0.0669291338537628
 50
179.999999996141
 51
270.000000003858
  0
ARC
  8
3
  6
CONTINUOUS
 62
3
 10
11.623536885695
 20
11.3730000000051
 30
0.0
 40
0.0747499999949657
 50
89.9999999961411
 51
180.000000003859
  0
ARC
  8
3
  6
CONTINUOUS
 62
3
 10
11.6235368857
 20
11.373
 30
0.0
 40
0.0747499999999999
 50
179.999999999999
 51
359.999999999999
  0
ARC
  8
3
  6
CONTINUOUS
 62
3
 10
11.623536885705
 20
11.3730000000051
 30
0.0
 40
0.0747499999949657
 50
359.999999996141
 51
90.0000000038585
  0
LINE
  8
3
  6
CONTINUOUS
 62
3
 10
11.4975368857
 20
11.6789375
 30
0.0
 11
11.4975368857
 21
11.5605
 31
0.0
  0
LINE
  8
3
  6
CONTINUOUS
 62
3
 10
11.4975368857
 20
11.5605
 30
0.0
 11
11.7495368857
 21
11.5605
 31
0.0
  0
LINE
  8
3
  6
CONTINUOUS
 62
3
 10
11.7495368857
 20
11.5605
 30
0.0
 11
11.7495368857
 21
11.75
 31
0.0
  0
LINE
  8
3
  6
CONTINUOUS
 62
3
 10
11.7495368857
 20
11.75
 30
0.0
 11
11.4975368857
 21
11.75
 31
0.0
  0
LINE
  8
3
  6
CONTINUOUS
 62
3
 10
11.4975368857
 20
11.75
 30
0.0
 11
11.4975368857
 21
11.6789375
 31
0.0
  0
ARC
  8
3
  6
CONTINUOUS
 62
3
 10
9.15337150006424
 20
12.6249999997863
 30
0.0
 40
0.37499999978632
 50
258.749999937917
 51
269.999999944348
  0
LINE
  8
3
  6
CONTINUOUS
 62
3
 10
9.1533714997
 20
12.25
 30
0.0
 11
14.1799478555
 21
12.25
 31
0.0
  0
ARC
  8
3
  6
CONTINUOUS
 62
3
 10
14.1799478555
 20
12.625
 30
0.0
 40
0.375
 50
269.999999999999
 51
359.999999999999
  0
LINE
  8
3
  6
CONTINUOUS
 62
3
 10
14.5549478555
 20
12.625
 30
0.0
 11
14.5549478555
 21
13.2175417414
 31
0.0
  0
ARC
  8
3
  6
CONTINUOUS
 62
3
 10
14.1799478555
 20
13.2175417410351
 30
0.0
 40
0.375000000000009
 50
5.57567520100524E-8
 51
84.2128500616681
  0
ARC
  8
3
  6
CONTINUOUS
 62
3
 10
12.3251350986963
 20
-5.08357362858328
 30
0.0
 40
18.7698676030811
 50
84.2128500560451
 51
84.8558358221433
  0
ARC
  8
3
  6
CONTINUOUS
 62
3
 10
12.3114678794873
 20
-5.23539007960668
 30
0.0
 40
18.9222980058302
 50
84.8558358221416
 51
85.4933828750575
  0
ARC
  8
3
  6
CONTINUOUS
 62
3
 10
12.3074243073883
 20
-5.28669278354991
 30
0.0
 40
18.9737598160122
 50
85.4933828750586
 51
86.1316523898395
  0
ARC
  8
3
  6
CONTINUOUS
 62
3
 10
12.3017722275282
 20
-5.37028095800198
 30
0.0
 40
19.0575388641983
 50
86.1316523898389
 51
86.7676896631952
  0
ARC
  8
3
  6
CONTINUOUS
 62
3
 10
12.2972472717722
 20
-5.4476548096086
 30
0.0
 40
19.1350447619629
 50
86.7672253447812
 51
88.1241642097849
  0
ARC
  8
3
  6
CONTINUOUS
 62
3
 10
12.291278586575
 20
-5.62989798742152
 30
0.0
 40
19.3173856544207
 50
88.1241642097844
 51
89.4683250252816
  0
ARC
  8
3
  6
CONTINUOUS
 62
3
 10
12.2911555260205
 20
-5.64315918719546
 30
0.0
 40
19.3306474251677
 50
89.4683250252834
 51
90.813071596704
  0
ARC
  8
3
  6
CONTINUOUS
 62
3
 10
12.2897590576591
 20
-5.54475903071782
 30
0.0
 40
19.2322373600386
 50
90.8130715967019
 51
92.1653074110272
  0
ARC
  8
3
  6
CONTINUOUS
 62
3
 10
12.286535668762
 20
-5.46332268699201
 30
0.0
 40
19.1507373757826
 50
92.1648759936188
 51
93.5168248052325
  0
ARC
  8
3
  6
CONTINUOUS
 62
3
 10
12.2764230868029
 20
-5.29877640722927
 30
0.0
 40
18.9858806425333
 50
93.5168248052329
 51
94.8805813882049
  0
ARC
  8
3
  6
CONTINUOUS
 62
3
 10
12.2630423410541
 20
-5.14207272756277
 30
0.0
 40
18.8286067172379
 50
94.8805813882046
 51
96.2444513854361
  0
ARC
  8
3
  6
CONTINUOUS
 62
3
 10
12.2159325540315
 20
-4.71153106242879
 30
0.0
 40
18.3954953488236
 50
96.2444513854355
 51
97.6407345686546
  0
ARC
  8
3
  6
CONTINUOUS
 62
3
 10
12.1908910374366
 20
-4.52519382148642
 30
0.0
 40
18.2074830008345
 50
97.6405974244869
 51
98.1838919868083
  0
ARC
  8
3
  6
CONTINUOUS
 62
3
 10
12.1694576775554
 20
-4.37615982267333
 30
0.0
 40
18.0569156679962
 50
98.1838919868069
 51
98.7318074427381
  0
ARC
  8
3
  6
CONTINUOUS
 62
3
 10
12.1551616992743
 20
-4.2830808027184
 30
0.0
 40
17.9627451898686
 50
98.7318074427358
 51
99.2795079712077
  0
ARC
  8
3
  6
CONTINUOUS
 62
3
 10
12.1233501592691
 20
-4.08838269670394
 30
0.0
 40
17.765465371937
 50
99.2795079712106
 51
99.8332904449175
  0
ARC
  8
3
  6
CONTINUOUS
 62
3
 10
9.1533714997
 20
13.0465965158
 30
0.0
 40
0.375000000000005
 50
99.8333125952
 51
180
  0
LINE
  8
3
  6
CONTINUOUS
 62
3
 10
8.7783714997
 20
13.0465965158
 30
0.0
 11
8.7783714997
 21
12.625
 31
0.0
  0
ARC
  8
3
  6
CONTINUOUS
 62
3
 10
9.15337149961175
 20
12.6250000000042
 30
0.0
 40
0.374999999911747
 50
180.000000000643
 51
258.750000012219
  0
LINE
  8
3
  6
CONTINUOUS
 62
3
 10
8.9621336074
 20
11.5081292114
 30
0.0
 11
8.7864050507
 21
11.2037584228
 31
0.0
  0
ARC
  8
3
  6
CONTINUOUS
 62
3
 10
8.5149060866
 20
11.3605084228
 30
0.0
 40
0.313499999999996
 50
281.719435395199
 51
329.999999999999
  0
ARC
  8
3
  6
CONTINUOUS
 62
3
 10
8.6293638952
 20
10.8087551627
 30
0.0
 40
0.250000000000005
 50
101.719435395201
 51
150.000000000001
  0
LINE
  8
3
  6
CONTINUOUS
 62
3
 10
8.4128575443
 20
10.9337551627
 30
0.0
 11
6.5209609798
 21
7.65689419040002
 31
0.0
  0
ARC
  8
3
  6
CONTINUOUS
 62
3
 10
6.7374673308
 20
7.53189419040002
 30
0.0
 40
0.250000000000001
 50
149.999999999999
 51
198.280564604799
  0
ARC
  8
3
  6
CONTINUOUS
 62
3
 10
6.2024060866
 20
7.35514093030003
 30
0.0
 40
0.313499999999965
 50
329.999999999998
 51
18.2805646047987
  0
LINE
  8
3
  6
CONTINUOUS
 62
3
 10
6.4739050507
 20
7.19839093030002
 30
0.0
 11
6.2526462775
 21
6.81515949350002
 31
0.0
  0
ARC
  8
3
  6
CONTINUOUS
 62
3
 10
6.0361399265
 20
6.94015949350002
 30
0.0
 40
0.250000000000009
 50
284.298776316299
 51
329.999999999999
  0
ARC
  8
3
  6
CONTINUOUS
 62
3
 10
6.19050137469999
 20
6.33452136450002
 30
0.0
 40
0.37499999999999
 50
104.2987763163
 51
150
  0
LINE
  8
3
  6
CONTINUOUS
 62
3
 10
5.8657418483
 20
6.52202136450002
 30
0.0
 11
5.6365214566
 21
6.12500000000002
 31
0.0
  0
ARC
  8
3
  6
CONTINUOUS
 62
3
 10
5.96128098309999
 20
5.93750000000002
 30
0.0
 40
0.375000000000001
 50
150
 51
270
  0
LINE
  8
3
  6
CONTINUOUS
 62
3
 10
5.9612809831
 20
5.56250000000002
 30
0.0
 11
6.3008419573
 21
5.56250000000002
 31
0.0
  0
ARC
  8
3
  6
CONTINUOUS
 62
3
 10
6.3008419573
 20
5.43750000000002
 30
0.0
 40
0.125
 50
359.999999999999
 51
89.9999999999998
  0
LINE
  8
3
  6
CONTINUOUS
 62
3
 10
6.4258419573
 20
5.43750000000002
 30
0.0
 11
6.4258419573
 21
5.00000000000002
 31
0.0
  0
ARC
  8
3
  6
CONTINUOUS
 62
3
 10
6.11334195730001
 20
5.00000000000002
 30
0.0
 40
0.312499999999942
 50
324.5092560769
 51
1.01862233290559E-12
  0
ARC
  8
3
  6
CONTINUOUS
 62
3
 10
6.4695585346
 20
4.74600000000002
 30
0.0
 40
0.125000000000001
 50
144.509256076899
 51
269.999999999999
  0
LINE
  8
3
  6
CONTINUOUS
 62
3
 10
6.4695585346
 20
4.62100000000002
 30
0.0
 11
7.7935459081
 21
4.62100000000002
 31
0.0
  0
ARC
  8
3
  6
CONTINUOUS
 62
3
 10
7.7935459081
 20
4.87100000000002
 30
0.0
 40
0.25
 50
270
 51
315.1443396872
  0
ARC
  8
3
  6
CONTINUOUS
 62
3
 10
8.1664198814
 20
4.50000000000001
 30
0.0
 40
0.276000000000005
 50
44.8556603127997
 51
135.1443396872
  0
ARC
  8
3
  6
CONTINUOUS
 62
3
 10
8.5392938547
 20
4.87100000000002
 30
0.0
 40
0.25
 50
224.855660312799
 51
269.999999999999
  0
LINE
  8
3
  6
CONTINUOUS
 62
3
 10
8.5392938547
 20
4.62100000000002
 30
0.0
 11
9.0435459081
 21
4.62100000000002
 31
0.0
  0
ARC
  8
3
  6
CONTINUOUS
 62
3
 10
9.0435459081
 20
4.87100000000002
 30
0.0
 40
0.25
 50
270
 51
315.1443396872
  0
ARC
  8
3
  6
CONTINUOUS
 62
3
 10
9.4164198814
 20
4.50000000000001
 30
0.0
 40
0.276000000000005
 50
44.8556603127997
 51
135.1443396872
  0
ARC
  8
3
  6
CONTINUOUS
 62
3
 10
9.78929385469999
 20
4.87100000000001
 30
0.0
 40
0.249999999999995
 50
224.855660312801
 51
270.000000000001
  0
LINE
  8
3
  6
CONTINUOUS
 62
3
 10
9.7892938547
 20
4.62100000000002
 30
0.0
 11
10.8314687068
 21
4.62100000000002
 31
0.0
  0
ARC
  8
3
  6
CONTINUOUS
 62
3
 10
10.8314687068
 20
5.12100000000002
 30
0.0
 40
0.500000000000003
 50
270
 51
346.8190566648
  0
ARC
  8
3
  6
CONTINUOUS
 62
3
 10
11.6235368856999
 20
4.93550000000001
 30
0.0
 40
0.313499999999886
 50
158.979419519095
 51
166.819056664795
  0
ARC
  8
3
  6
CONTINUOUS
 62
3
 10
11.0975368857
 20
5.13762929030002
 30
0.0
 40
0.249999999999994
 50
338.9794195191
 51
2.09916608976592E-13
  0
LINE
  8
3
  6
CONTINUOUS
 62
3
 10
11.3475368857
 20
5.13762929030002
 30
0.0
 11
11.3475368857
 21
6.93550000000002
 31
0.0
  0
ARC
  8
3
  6
CONTINUOUS
 62
3
 10
11.6235368857
 20
6.93550000000002
 30
0.0
 40
0.276000000000001
 50
140.5643423055
 51
180
  0
ARC
  8
3
  6
CONTINUOUS
 62
3
 10
11.2172868857
 20
7.26962114200002
 30
0.0
 40
0.250000000000001
 50
320.564342305499
 51
359.999999999999
  0
LINE
  8
3
  6
CONTINUOUS
 62
3
 10
11.4672868857
 20
7.26962114200002
 30
0.0
 11
11.4672868857
 21
10.9824962388
 31
0.0
  0
ARC
  8
3
  6
CONTINUOUS
 62
3
 10
11.2172868857
 20
10.9824962388
 30
0.0
 40
0.250000000000001
 50
359.999999999999
 51
43.8678113107998
  0
ARC
  8
3
  6
CONTINUOUS
 62
3
 10
11.6235368857
 20
11.373
 30
0.0
 40
0.313499999999998
 50
180
 51
223.8678113108
  0
LINE
  8
3
  6
CONTINUOUS
 62
3
 10
11.3100368857
 20
11.373
 30
0.0
 11
11.3100368857
 21
11.6875
 31
0.0
  0
ARC
  8
3
  6
CONTINUOUS
 62
3
 10
11.0600368857
 20
11.6875
 30
0.0
 40
0.25
 50
359.999999999999
 51
89.9999999999998
  0
LINE
  8
3
  6
CONTINUOUS
 62
3
 10
11.0600368857
 20
11.9375
 30
0.0
 11
9.3543685151
 21
11.9375
 31
0.0
  0
ARC
  8
3
  6
CONTINUOUS
 62
3
 10
9.3543685151
 20
11.6875
 30
0.0
 40
0.249999999999999
 50
89.9999999999999
 51
150
  0
LINE
  8
3
  6
CONTINUOUS
 62
3
 10
9.1378621641
 20
11.8125
 30
0.0
 11
8.9621336074
 21
11.5081292114
 31
0.0
  0
LINE
  8
3
  6
CONTINUOUS
 62
3
 10
8.5587556357
 20
11.68845806975
 30
0.0
 11
8.4995368857
 21
11.585888186
 31
0.0
  0
LINE
  8
3
  6
CONTINUOUS
 62
3
 10
8.4995368857
 20
11.585888186
 30
0.0
 11
8.7177752875
 21
11.459888186
 31
0.0
  0
LINE
  8
3
  6
CONTINUOUS
 62
3
 10
8.7177752875
 20
11.459888186
 30
0.0
 11
8.8125252875
 21
11.624
 31
0.0
  0
LINE
  8
3
  6
CONTINUOUS
 62
3
 10
8.8125252875
 20
11.624
 30
0.0
 11
8.5942868857
 21
11.75
 31
0.0
  0
LINE
  8
3
  6
CONTINUOUS
 62
3
 10
8.5942868857
 20
11.75
 30
0.0
 11
8.5587556357
 21
11.68845806975
 31
0.0
  0
ARC
  8
3
  6
CONTINUOUS
 62
3
 10
8.51490608657451
 20
11.3605084228034
 30
0.0
 40
0.0747499999745077
 50
164.999999997428
 51
180.000000002573
  0
ARC
  8
3
  6
CONTINUOUS
 62
3
 10
8.5149060866
 20
11.3605084228
 30
0.0
 40
0.0747499999999999
 50
179.999999999999
 51
359.999999999999
  0
ARC
  8
3
  6
CONTINUOUS
 62
3
 10
8.51490608660088
 20
11.3605084228067
 30
0.0
 40
0.0747499999991163
 50
359.999999994854
 51
165.000000005144
  0
ARC
  8
3
  6
CONTINUOUS
 62
3
 10
6.623552633695
 20
11.5624999999904
 30
0.0
 40
0.25442913385496
 50
315.000000002334
 51
341.597088506634
  0
LINE
  8
3
  6
CONTINUOUS
 62
3
 10
6.8034611996
 20
11.3825914341
 30
0.0
 11
6.4294454516
 21
11.0085756861
 31
0.0
  0
ARC
  8
3
  6
CONTINUOUS
 62
3
 10
6.2495368857
 20
11.188484252
 30
0.0
 40
0.254429133858266
 50
225
 51
315
  0
LINE
  8
3
  6
CONTINUOUS
 62
3
 10
6.0696283198
 20
11.0085756861
 30
0.0
 11
5.6956125718
 21
11.3825914341
 31
0.0
  0
ARC
  8
3
  6
CONTINUOUS
 62
3
 10
5.8755211377
 20
11.5625
 30
0.0
 40
0.254429133858276
 50
189.537215327599
 51
224.999999999999
  0
ARC
  8
3
  6
CONTINUOUS
 62
3
 10
5.1315195799
 20
11.4375
 30
0.0
 40
0.5
 50
9.53721532759955
 51
89.9999999999995
  0
LINE
  8
3
  6
CONTINUOUS
 62
3
 10
5.1315195799
 20
11.9375
 30
0.0
 11
4.66257761156315
 21
11.9375
 31
0.0
  0
ARC
  8
3
  6
CONTINUOUS
 62
3
 10
9.78719341001487
 20
2.56988796287358
 30
0.0
 40
10.6777264602469
 50
118.681163880633
 51
119.153928680226
  0
ARC
  8
3
  6
CONTINUOUS
 62
3
 10
9.69256147203837
 20
2.73953204924038
 30
0.0
 40
10.483473224175
 50
119.153928680221
 51
119.635260755409
  0
ARC
  8
3
  6
CONTINUOUS
 62
3
 10
9.64347768024582
 20
2.82581147247385
 30
0.0
 40
10.3842091446183
 50
119.635260755419
 51
120.120702815402
  0
ARC
  8
3
  6
CONTINUOUS
 62
3
 10
9.55003166990732
 20
2.98688013530767
 30
0.0
 40
10.1979961724728
 50
120.120702815396
 51
120.615440451702
  0
ARC
  8
3
  6
CONTINUOUS
 62
3
 10
9.46470265182049
 20
3.13095585600502
 30
0.0
 40
10.030548118188
 50
120.61509407893
 51
121.649841262665
  0
ARC
  8
3
  6
CONTINUOUS
 62
3
 10
9.21870705747142
 20
3.53003769859044
 30
0.0
 40
9.56174096218408
 50
121.649841262668
 51
122.735344320219
  0
ARC
  8
3
  6
CONTINUOUS
 62
3
 10
9.10071865327175
 20
3.71357438491249
 30
0.0
 40
9.34355072694963
 50
122.735344320219
 51
123.845696578317
  0
ARC
  8
3
  6
CONTINUOUS
 62
3
 10
8.88322758469038
 20
4.0378988111132
 30
0.0
 40
8.95305271371129
 50
123.845696578319
 51
125.004999630585
  0
ARC
  8
3
  6
CONTINUOUS
 62
3
 10
8.76333415815021
 20
4.20899451710715
 30
0.0
 40
8.74413126651764
 50
125.004631055725
 51
126.191905128462
  0
ARC
  8
3
  6
CONTINUOUS
 62
3
 10
8.48504145737189
 20
4.58934601362454
 30
0.0
 40
8.27284145312304
 50
126.191905128465
 51
127.446877066027
  0
ARC
  8
3
  6
CONTINUOUS
 62
3
 10
8.35602635833779
 20
4.75780493407053
 30
0.0
 40
8.060654498631
 50
127.44687706603
 51
128.738905519794
  0
ARC
  8
3
  6
CONTINUOUS
 62
3
 10
8.12597416088377
 20
5.04455776092589
 30
0.0
 40
7.69302534137744
 50
128.738905519795
 51
130.092921849869
  0
ARC
  8
3
  6
CONTINUOUS
 62
3
 10
8.02653189684148
 20
5.16266564563989
 30
0.0
 40
7.53862898055386
 50
130.092857169992
 51
130.4390580037
  0
ARC
  8
3
  6
CONTINUOUS
 62
3
 10
7.96126123766298
 20
5.23925257140719
 30
0.0
 40
7.43800186617567
 50
130.439058003682
 51
130.790061652366
  0
ARC
  8
3
  6
CONTINUOUS
 62
3
 10
7.92699942209229
 20
5.2789591888451
 30
0.0
 40
7.38555677608555
 50
130.790061652381
 51
131.144166762215
  0
ARC
  8
3
  6
CONTINUOUS
 62
3
 10
7.86291045845386
 20
5.35231152618242
 30
0.0
 40
7.28815061276363
 50
131.144166762213
 51
131.503166788481
  0
ARC
  8
3
  6
CONTINUOUS
 62
3
 10
7.81721506781212
 20
5.40393322887568
 30
0.0
 40
7.21920956037548
 50
131.503052194897
 51
131.865860612678
  0
ARC
  8
3
  6
CONTINUOUS
 62
3
 10
7.76947484772359
 20
5.45720439572159
 30
0.0
 40
7.1476767299322
 50
131.865860612676
 51
132.232318980254
  0
ARC
  8
3
  6
CONTINUOUS
 62
3
 10
7.73482441435683
 20
5.49537520861315
 30
0.0
 40
7.09612419857528
 50
132.232318980244
 51
132.601549496227
  0
ARC
  8
3
  6
CONTINUOUS
 62
3
 10
7.65185038735205
 20
5.5856038875525
 30
0.0
 40
6.9735440058012
 50
132.601549496235
 51
132.97758849189
  0
ARC
  8
3
  6
CONTINUOUS
 62
3
 10
7.60940669059532
 20
5.63110976504312
 30
0.0
 40
6.91131658961041
 50
132.977333475142
 51
133.733538290633
  0
ARC
  8
3
  6
CONTINUOUS
 62
3
 10
7.47132521482134
 20
5.77543454480858
 30
0.0
 40
6.7115764183722
 50
133.733538290635
 51
134.51226609412
  0
ARC
  8
3
  6
CONTINUOUS
 62
3
 10
7.40262852286287
 20
5.84531087679186
 30
0.0
 40
6.61358694313392
 50
134.512266094117
 51
135.300502971406
  0
ARC
  8
3
  6
CONTINUOUS
 62
3
 10
7.27350874114753
 20
5.97308330654925
 30
0.0
 40
6.43193421996049
 50
135.300502971407
 51
136.111687166517
  0
ARC
  8
3
  6
CONTINUOUS
 62
3
 10
7.18379815556221
 20
6.05929456451465
 30
0.0
 40
6.30751409925979
 50
136.11113771746
 51
137.759229757109
  0
ARC
  8
3
  6
CONTINUOUS
 62
3
 10
6.88602454022481
 20
6.32968554019592
 30
0.0
 40
5.90529474900303
 50
137.759229757107
 51
139.51960119044
  0
ARC
  8
3
  6
CONTINUOUS
 62
3
 10
6.75102409795102
 20
6.44490696006721
 30
0.0
 40
5.72780927069206
 50
139.519601190441
 51
141.333489324093
  0
ARC
  8
3
  6
CONTINUOUS
 62
3
 10
6.51714012572172
 20
6.63205901177816
 30
0.0
 40
5.42826360985656
 50
141.333489324095
 51
143.24795427177
  0
ARC
  8
3
  6
CONTINUOUS
 62
3
 10
6.40752803669585
 20
6.71388594703613
 30
0.0
 40
5.29147743809162
 50
143.247690617632
 51
144.231121101427
  0
ARC
  8
3
  6
CONTINUOUS
 62
3
 10
6.27195874714823
 20
6.81154970662885
 30
0.0
 40
5.12439290198421
 50
144.231121101438
 51
145.246739042219
  0
ARC
  8
3
  6
CONTINUOUS
 62
3
 10
6.20758711044417
 20
6.85621132703014
 30
0.0
 40
5.04604516462805
 50
145.246739042259
 51
146.281540687587
  0
ARC
  8
3
  6
CONTINUOUS
 62
3
 10
6.09238570512264
 20
6.93309474838774
 30
0.0
 40
4.9075445355042
 50
146.281540687561
 51
147.345820980159
  0
ARC
  8
3
  6
CONTINUOUS
 62
3
 10
6.04019868145621
 20
6.96652444814975
 30
0.0
 40
4.84556849088499
 50
147.345672966302
 51
147.886075592651
  0
ARC
  8
3
  6
CONTINUOUS
 62
3
 10
5.97899087493161
 20
7.00494076452875
 30
0.0
 40
4.77330363813011
 50
147.886075592751
 51
148.434724137779
  0
ARC
  8
3
  6
CONTINUOUS
 62
3
 10
5.94783031167633
 20
7.02408484828866
 30
0.0
 40
4.7367321103333
 50
148.434724137689
 51
148.989242039058
  0
ARC
  8
3
  6
CONTINUOUS
 62
3
 10
5.89084003941204
 20
7.05834262407776
 30
0.0
 40
4.670237852425
 50
148.989242039076
 51
149.551909418558
  0
ARC
  8
3
  6
CONTINUOUS
 62
3
 10
5.85672419761644
 20
7.07837992156145
 30
0.0
 40
4.63067292175589
 50
149.551729597123
 51
150.118940642015
  0
ARC
  8
3
  6
CONTINUOUS
 62
3
 10
5.80185572052673
 20
7.10990656410649
 30
0.0
 40
4.56739196910576
 50
150.118940641998
 51
150.694040027654
  0
ARC
  8
3
  6
CONTINUOUS
 62
3
 10
5.77206128427826
 20
7.12663049744251
 30
0.0
 40
4.53322475708033
 50
150.69404002771
 51
151.272074211391
  0
ARC
  8
3
  6
CONTINUOUS
 62
3
 10
5.71415458669616
 20
7.15837018136199
 30
0.0
 40
4.4671899695803
 50
151.272074211336
 51
151.858815541156
  0
ARC
  8
3
  6
CONTINUOUS
 62
3
 10
5.71190364331468
 20
7.15956587771735
 30
0.0
 40
4.46464116935274
 50
151.858721893354
 51
152.184036461503
  0
ARC
  8
3
  6
CONTINUOUS
 62
3
 10
5.6777666316675
 20
7.17757643902659
 30
0.0
 40
4.42604433162121
 50
152.184036461574
 51
152.512220704056
  0
ARC
  8
3
  6
CONTINUOUS
 62
3
 10
5.65887366511022
 20
7.18740637375407
 30
0.0
 40
4.40474710640098
 50
152.512220704089
 51
152.841660008584
  0
ARC
  8
3
  6
CONTINUOUS
 62
3
 10
5.62370057640397
 20
7.20545056868286
 30
0.0
 40
4.36521561085925
 50
152.84166000852
 51
153.174082706464
  0
ARC
  8
3
  6
CONTINUOUS
 62
3
 10
2.1744526566
 20
8.94975000000002
 30
0.0
 40
0.500000000000003
 50
153.174096022499
 51
269.999999999999
  0
LINE
  8
3
  6
CONTINUOUS
 62
3
 10
2.1744526566
 20
8.44975000000002
 30
0.0
 11
2.2495368857
 21
8.44975000000002
 31
0.0
  0
ARC
  8
3
  6
CONTINUOUS
 62
3
 10
2.2495368857
 20
8.18750000000002
 30
0.0
 40
0.262250000000001
 50
359.999999999999
 51
89.9999999999996
  0
LINE
  8
3
  6
CONTINUOUS
 62
3
 10
2.5117868857
 20
8.18750000000002
 30
0.0
 11
2.5117868857
 21
6.81250000000002
 31
0.0
  0
ARC
  8
3
  6
CONTINUOUS
 62
3
 10
2.2495368857
 20
6.81250000000002
 30
0.0
 40
0.262250000000001
 50
270
 51
1.53511459547513E-13
  0
LINE
  8
3
  6
CONTINUOUS
 62
3
 10
2.2495368857
 20
6.55025000000002
 30
0.0
 11
2.1744565161
 21
6.55025000000002
 31
0.0
  0
ARC
  8
3
  6
CONTINUOUS
 62
3
 10
2.17445651608689
 20
6.05025000000002
 30
0.0
 40
0.49999999999999
 50
89.9999999984982
 51
206.824181754257
  0
ARC
  8
3
  6
CONTINUOUS
 62
3
 10
5.62247681070091
 20
7.79376667435679
 30
0.0
 40
4.3637668596519
 50
206.823822514825
 51
207.012431714513
  0
ARC
  8
3
  6
CONTINUOUS
 62
3
 10
5.64527910613405
 20
7.80539125782409
 30
0.0
 40
4.38936130470955
 50
207.012431725913
 51
207.19990365907
  0
ARC
  8
3
  6
CONTINUOUS
 62
3
 10
5.65460316718629
 20
7.81018315449438
 30
0.0
 40
4.39984464330966
 50
207.199903659153
 51
207.387140844657
  0
ARC
  8
3
  6
CONTINUOUS
 62
3
 10
5.67535734968016
 20
7.82093519208645
 30
0.0
 40
4.42321861180819
 50
207.387140844735
 51
207.573388599526
  0
LINE
  8
3
  6
CONTINUOUS
 62
3
 10
1.7545338149
 20
5.77349637810002
 30
0.0
 11
1.793258315
 21
5.69859467460002
 31
0.0
  0
ARC
  8
3
  6
CONTINUOUS
 62
3
 10
2.01580174180001
 20
5.81249999999999
 30
0.0
 40
0.249999999999982
 50
207.104917005096
 51
269.999999999996
  0
LINE
  8
3
  6
CONTINUOUS
 62
3
 10
2.0158017418
 20
5.56250000000002
 30
0.0
 11
4.734411661
 21
5.56250000000002
 31
0.0
  0
ARC
  8
3
  6
CONTINUOUS
 62
3
 10
4.73441166100001
 20
6.06250000000002
 30
0.0
 40
0.500000000000001
 50
269.999999999999
 51
329.999999999999
  0
LINE
  8
3
  6
CONTINUOUS
 62
3
 10
5.1674243629
 20
5.81250000000002
 30
0.0
 11
5.6492354973
 21
6.64702136450002
 31
0.0
  0
ARC
  8
3
  6
CONTINUOUS
 62
3
 10
5.3244759709
 20
6.83452136450002
 30
0.0
 40
0.375000000000005
 50
330
 51
15.7012236837002
  0
ARC
  8
3
  6
CONTINUOUS
 62
3
 10
5.9261547002
 20
7.00365949350002
 30
0.0
 40
0.250000000000009
 50
149.999999999999
 51
195.701223683699
  0
LINE
  8
3
  6
CONTINUOUS
 62
3
 10
5.7096483493
 20
7.12865949350002
 30
0.0
 11
5.9309071225
 21
7.51189093030002
 31
0.0
  0
ARC
  8
3
  6
CONTINUOUS
 62
3
 10
6.20240608659999
 20
7.35514093030002
 30
0.0
 40
0.313499999999969
 50
101.7194353952
 51
150
  0
ARC
  8
3
  6
CONTINUOUS
 62
3
 10
6.0879482779
 20
7.90689419040002
 30
0.0
 40
0.250000000000002
 50
281.7194353952
 51
330
  0
LINE
  8
3
  6
CONTINUOUS
 62
3
 10
6.3044546289
 20
7.78189419040002
 30
0.0
 11
8.1963511933
 21
11.0587551627
 31
0.0
  0
ARC
  8
3
  6
CONTINUOUS
 62
3
 10
7.9798448424
 20
11.1837551627
 30
0.0
 40
0.249999999999984
 50
330.000000000001
 51
18.2805646048012
  0
ARC
  8
3
  6
CONTINUOUS
 62
3
 10
8.5149060866
 20
11.3605084228
 30
0.0
 40
0.3135
 50
149.999999999999
 51
198.280564604799
  0
LINE
  8
3
  6
CONTINUOUS
 62
3
 10
8.2434071225
 20
11.5172584228
 30
0.0
 11
8.2695273593
 21
11.5625
 31
0.0
  0
ARC
  8
3
  6
CONTINUOUS
 62
3
 10
8.0530210083
 20
11.6875
 30
0.0
 40
0.25
 50
329.999999999999
 51
89.9999999999996
  0
LINE
  8
3
  6
CONTINUOUS
 62
3
 10
8.0530210083
 20
11.9375
 30
0.0
 11
7.3675541915
 21
11.9375
 31
0.0
  0
ARC
  8
3
  6
CONTINUOUS
 62
3
 10
7.3675541915
 20
11.4375
 30
0.0
 40
0.5
 50
90.0000000000001
 51
170.4627846724
  0
ARC
  8
3
  6
CONTINUOUS
 62
3
 10
6.62355263370535
 20
11.562500000032
 30
0.0
 40
0.254429133858274
 50
341.597088497008
 51
350.462784665108
  0
ARC
  8
3
  6
CONTINUOUS
 62
3
 10
6.62355263370249
 20
11.562499999994
 30
0.0
 40
0.0669291338557801
 50
224.999999994854
 51
5.14447086395488E-9
  0
ARC
  8
3
  6
CONTINUOUS
 62
3
 10
6.6235526337
 20
11.5625
 30
0.0
 40
0.0669291338582698
 50
359.999999999999
 51
180
  0
ARC
  8
3
  6
CONTINUOUS
 62
3
 10
6.62355263369274
 20
11.562499999997
 30
0.0
 40
0.0669291338510144
 50
179.999999997428
 51
225.000000002572
  0
ARC
  8
3
  6
CONTINUOUS
 62
3
 10
6.24953688569274
 20
11.188484252003
 30
0.0
 40
0.0669291338510158
 50
134.999999997428
 51
180.000000002573
  0
ARC
  8
3
  6
CONTINUOUS
 62
3
 10
6.2495368857
 20
11.188484252
 30
0.0
 40
0.0669291338582703
 50
179.999999999999
 51
359.999999999999
  0
ARC
  8
3
  6
CONTINUOUS
 62
3
 10
6.24953688570249
 20
11.188484252006
 30
0.0
 40
0.066929133855781
 50
359.999999994854
 51
135.000000005145
  0
ARC
  8
3
  6
CONTINUOUS
 62
3
 10
5.87552113769875
 20
11.562500000003
 30
0.0
 40
0.0669291338570248
 50
44.9999999974265
 51
180.000000002572
  0
ARC
  8
3
  6
CONTINUOUS
 62
3
 10
5.8755211377
 20
11.5625
 30
0.0
 40
0.0669291338582698
 50
179.999999999999
 51
359.999999999999
  0
ARC
  8
3
  6
CONTINUOUS
 62
3
 10
5.87552113771451
 20
11.562500000006
 30
0.0
 40
0.0669291338437597
 50
359.999999994855
 51
45.0000000051448
  0
ARC
  8
3
  6
CONTINUOUS
 62
3
 10
6.24953688569479
 20
11.936515748003
 30
0.0
 40
0.0669291338530652
 50
119.999999997427
 51
180.000000002572
  0
ARC
  8
3
  6
CONTINUOUS
 62
3
 10
6.2495368857
 20
11.936515748
 30
0.0
 40
0.0669291338582703
 50
179.999999999999
 51
359.999999999999
  0
ARC
  8
3
  6
CONTINUOUS
 62
3
 10
6.24953688570347
 20
11.936515748006
 30
0.0
 40
0.0669291338548001
 50
359.999999994855
 51
120.000000005145
  0
ARC
  8
3
  6
CONTINUOUS
 62
3
 10
5.87118838269873
 20
12.3749999999991
 30
0.0
 40
0.124999999999122
 50
132.155878375947
 51
270.000000000583
  0
LINE
  8
3
  6
CONTINUOUS
 62
3
 10
5.8711883827
 20
12.25
 30
0.0
 11
8.1533714997
 21
12.25
 31
0.0
  0
ARC
  8
3
  6
CONTINUOUS
 62
3
 10
8.1533714997
 20
12.625
 30
0.0
 40
0.375
 50
269.999999999999
 51
359.999999999999
  0
LINE
  8
3
  6
CONTINUOUS
 62
3
 10
8.5283714997
 20
12.625
 30
0.0
 11
8.5283714997
 21
12.8420992254
 31
0.0
  0
ARC
  8
3
  6
CONTINUOUS
 62
3
 10
8.1533714997
 20
12.8420992254167
 30
0.0
 40
0.375000000000004
 50
359.999999997447
 51
103.324385153274
  0
LINE
  8
3
  6
CONTINUOUS
 62
3
 10
8.06694753628149
 20
13.2070045536144
 30
0.0
 11
8.06179665286103
 21
13.2057837631549
 31
0.0
  0
LINE
  8
3
  6
CONTINUOUS
 62
3
 10
8.06179665286103
 20
13.2057837631549
 30
0.0
 11
8.05664719210223
 21
13.2045615626003
 31
0.0
  0
LINE
  8
3
  6
CONTINUOUS
 62
3
 10
8.05664719210223
 20
13.2045615626003
 30
0.0
 11
8.05149852489305
 21
13.2033378030501
 31
0.0
  0
LINE
  8
3
  6
CONTINUOUS
 62
3
 10
8.05149852489305
 20
13.2033378030501
 30
0.0
 11
8.04618269028636
 21
13.2020724757787
 31
0.0
  0
ARC
  8
3
  6
CONTINUOUS
 62
3
 10
11.8214969807419
 20
-2.64758613711731
 30
0.0
 40
16.2930867590235
 50
103.397923534985
 51
104.891470695638
  0
ARC
  8
3
  6
CONTINUOUS
 62
3
 10
11.638102326408
 20
-1.95792520832379
 30
0.0
 40
15.5794581469692
 50
104.89147069564
 51
106.453423573945
  0
ARC
  8
3
  6
CONTINUOUS
 62
3
 10
11.5235724884152
 20
-1.57012158524053
 30
0.0
 40
15.1750960148807
 50
106.453423573945
 51
108.014099858672
  0
ARC
  8
3
  6
CONTINUOUS
 62
3
 10
11.2519772783908
 20
-0.734936870655537
 30
0.0
 40
14.2968605876833
 50
108.014099858671
 51
109.67100783673
  0
ARC
  8
3
  6
CONTINUOUS
 62
3
 10
11.1401801630017
 20
-0.422325648628091
 30
0.0
 40
13.9648600314378
 50
109.670835822003
 51
110.352457821069
  0
ARC
  8
3
  6
CONTINUOUS
 62
3
 10
11.0272312704283
 20
-0.117842150761494
 30
0.0
 40
13.6401021942628
 50
110.352457821065
 51
111.050419683988
  0
ARC
  8
3
  6
CONTINUOUS
 62
3
 10
10.9644945842115
 20
0.0451636139923714
 30
0.0
 40
13.4654403176541
 50
111.050419683988
 51
111.747761481133
  0
ARC
  8
3
  6
CONTINUOUS
 62
3
 10
10.8339962355313
 20
0.372297442620741
 30
0.0
 40
13.1132381586015
 50
111.747761481134
 51
112.463832365141
  0
ARC
  8
3
  6
CONTINUOUS
 62
3
 10
5.87118838266385
 20
12.3750000000609
 30
0.0
 40
0.124999999929965
 50
112.463860998142
 51
132.155878383083
  0
LINE
  8
3
  6
CONTINUOUS
 62
3
 10
5.5255131065
 20
12.70270808555
 30
0.0
 11
5.6853621087
 21
12.7715892459
 31
0.0
  0
LINE
  8
3
  6
CONTINUOUS
 62
3
 10
5.6853621087
 20
12.7715892459
 30
0.0
 11
6.0133228029
 21
12.9027579962
 31
0.0
  0
LINE
  8
3
  6
CONTINUOUS
 62
3
 10
6.0133228029
 20
12.9027579962
 30
0.0
 11
6.349135982
 21
13.0271691136
 31
0.0
  0
LINE
  8
3
  6
CONTINUOUS
 62
3
 10
6.349135982
 20
13.0271691136
 30
0.0
 11
6.6923816195
 21
13.1446669877
 31
0.0
  0
LINE
  8
3
  6
CONTINUOUS
 62
3
 10
6.6923816195
 20
13.1446669877
 30
0.0
 11
7.0426303923
 21
13.2551046552
 31
0.0
  0
LINE
  8
3
  6
CONTINUOUS
 62
3
 10
7.0426303923
 20
13.2551046552
 30
0.0
 11
7.3994442182
 21
13.3583439834
 31
0.0
  0
LINE
  8
3
  6
CONTINUOUS
 62
3
 10
7.3994442182
 20
13.3583439834
 30
0.0
 11
7.7623768034
 21
13.4542558433
 31
0.0
  0
LINE
  8
3
  6
CONTINUOUS
 62
3
 10
7.7623768034
 20
13.4542558433
 30
0.0
 11
8.130974201
 21
13.5427202707
 31
0.0
  0
LINE
  8
3
  6
CONTINUOUS
 62
3
 10
8.130974201
 20
13.5427202707
 30
0.0
 11
8.5047753788
 21
13.6236266165
 31
0.0
  0
LINE
  8
3
  6
CONTINUOUS
 62
3
 10
8.5047753788
 20
13.6236266165
 30
0.0
 11
8.8833127957
 21
13.6968736851
 31
0.0
  0
LINE
  8
3
  6
CONTINUOUS
 62
3
 10
8.8833127957
 20
13.6968736851
 30
0.0
 11
9.2661129867
 21
13.7623698609
 31
0.0
  0
LINE
  8
3
  6
CONTINUOUS
 62
3
 10
9.2661129867
 20
13.7623698609
 30
0.0
 11
9.652697155
 21
13.8200332231
 31
0.0
  0
LINE
  8
3
  6
CONTINUOUS
 62
3
 10
9.652697155
 20
13.8200332231
 30
0.0
 11
10.0425817709
 21
13.8697916476
 31
0.0
  0
LINE
  8
3
  6
CONTINUOUS
 62
3
 10
10.0425817709
 20
13.8697916476
 30
0.0
 11
10.4352791766
 21
13.911582898
 31
0.0
  0
LINE
  8
3
  6
CONTINUOUS
 62
3
 10
10.4352791766
 20
13.911582898
 30
0.0
 11
10.830298196
 21
13.9453547028
 31
0.0
  0
LINE
  8
3
  6
CONTINUOUS
 62
3
 10
10.830298196
 20
13.9453547028
 30
0.0
 11
11.2271447496
 21
13.971064821
 31
0.0
  0
LINE
  8
3
  6
CONTINUOUS
 62
3
 10
11.2271447496
 20
13.971064821
 30
0.0
 11
11.6253224715
 21
13.9886810951
 31
0.0
  0
LINE
  8
3
  6
CONTINUOUS
 62
3
 10
11.6253224715
 20
13.9886810951
 30
0.0
 11
12.0243333312
 21
13.9981814912
 31
0.0
  0
LINE
  8
3
  6
CONTINUOUS
 62
3
 10
12.0243333312
 20
13.9981814912
 30
0.0
 11
12.4236782559
 21
13.9995541263
 31
0.0
  0
LINE
  8
3
  6
CONTINUOUS
 62
3
 10
12.4236782559
 20
13.9995541263
 30
0.0
 11
12.8228577553
 21
13.9927972836
 31
0.0
  0
LINE
  8
3
  6
CONTINUOUS
 62
3
 10
12.8228577553
 20
13.9927972836
 30
0.0
 11
13.2213725456
 21
13.9779194144
 31
0.0
  0
LINE
  8
3
  6
CONTINUOUS
 62
3
 10
13.2213725456
 20
13.9779194144
 30
0.0
 11
13.6187241747
 21
13.9549391276
 31
0.0
  0
LINE
  8
3
  6
CONTINUOUS
 62
3
 10
13.6187241747
 20
13.9549391276
 30
0.0
 11
14.0144156451
 21
13.9238851662
 31
0.0
  0
LINE
  8
3
  6
CONTINUOUS
 62
3
 10
14.0144156451
 20
13.9238851662
 30
0.0
 11
14.4079520361
 21
13.8847963719
 31
0.0
  0
LINE
  8
3
  6
CONTINUOUS
 62
3
 10
14.4079520361
 20
13.8847963719
 30
0.0
 11
14.7988411222
 21
13.8377216359
 31
0.0
  0
LINE
  8
3
  6
CONTINUOUS
 62
3
 10
14.7988411222
 20
13.8377216359
 30
0.0
 11
15.1865939893
 21
13.7827198381
 31
0.0
  0
LINE
  8
3
  6
CONTINUOUS
 62
3
 10
15.1865939893
 20
13.7827198381
 30
0.0
 11
15.5707256459
 21
13.7198597733
 31
0.0
  0
LINE
  8
3
  6
CONTINUOUS
 62
3
 10
15.5707256459
 20
13.7198597733
 30
0.0
 11
15.9507556298
 21
13.6492200654
 31
0.0
  0
LINE
  8
3
  6
CONTINUOUS
 62
3
 10
15.9507556298
 20
13.6492200654
 30
0.0
 11
16.3262086092
 21
13.5708890686
 31
0.0
  0
LINE
  8
3
  6
CONTINUOUS
 62
3
 10
16.3262086092
 20
13.5708890686
 30
0.0
 11
16.696614977
 21
13.4849647574
 31
0.0
  0
LINE
  8
3
  6
CONTINUOUS
 62
3
 10
16.696614977
 20
13.4849647574
 30
0.0
 11
17.0615114382
 21
13.3915546038
 31
0.0
  0
LINE
  8
3
  6
CONTINUOUS
 62
3
 10
17.0615114382
 20
13.3915546038
 30
0.0
 11
17.4204415897
 21
13.2907754428
 31
0.0
  0
LINE
  8
3
  6
CONTINUOUS
 62
3
 10
17.4204415897
 20
13.2907754428
 30
0.0
 11
17.7729564906
 21
13.1827533265
 31
0.0
  0
LINE
  8
3
  6
CONTINUOUS
 62
3
 10
17.7729564906
 20
13.1827533265
 30
0.0
 11
18.1186152243
 21
13.0676233661
 31
0.0
  0
LINE
  8
3
  6
CONTINUOUS
 62
3
 10
18.1186152243
 20
13.0676233661
 30
0.0
 11
18.4569854495
 21
12.9455295633
 31
0.0
  0
LINE
  8
3
  6
CONTINUOUS
 62
3
 10
18.4569854495
 20
12.9455295633
 30
0.0
 11
18.7876439413
 21
12.81662463
 31
0.0
  0
LINE
  8
3
  6
CONTINUOUS
 62
3
 10
18.7876439413
 20
12.81662463
 30
0.0
 11
19.1101771206
 21
12.6810697972
 31
0.0
  0
LINE
  8
3
  6
CONTINUOUS
 62
3
 10
19.1101771206
 20
12.6810697972
 30
0.0
 11
19.4241815708
 21
12.5390346134
 31
0.0
  0
ARC
  8
3
  6
CONTINUOUS
 62
3
 10
18.9995368857
 20
11.633674524
 30
0.0
 40
1
 50
359.999999999999
 51
64.8718247855994
  0
LINE
  8
3
  6
CONTINUOUS
 62
3
 10
19.9995368857
 20
11.633674524
 30
0.0
 11
19.9995368857
 21
3.00000000000002
 31
0.0
  0
ARC
  8
3
  6
CONTINUOUS
 62
3
 10
17.9995368857
 20
3.00000000000003
 30
0.0
 40
2.00000000000002
 50
270
 51
2.04400334450929E-13
  0
LINE
  8
3
  6
CONTINUOUS
 62
3
 10
17.9995368857
 20
1.00000000000002
 30
0.0
 11
16.3068412933
 21
1.00000000000002
 31
0.0
  0
ARC
  8
3
  6
CONTINUOUS
 62
3
 10
16.3068412933
 20
2.00000000000002
 30
0.0
 40
1
 50
232.1663434101
 51
270
  0
LINE
  8
3
  6
CONTINUOUS
 62
3
 10
15.6934701939
 20
1.21020515680002
 30
0.0
 11
12.2369079851
 21
3.89464324890002
 31
0.0
  0
ARC
  8
3
  6
CONTINUOUS
 62
3
 10
11.6235368857
 20
3.10484840560002
 30
0.0
 40
0.999999999999997
 50
52.1663434100998
 51
127.8336565899
  0
LINE
  8
3
  6
CONTINUOUS
 62
3
 10
11.0101657863
 20
3.89464324890002
 30
0.0
 11
7.5536035775
 21
1.21020515680002
 31
0.0
  0
ARC
  8
3
  6
CONTINUOUS
 62
3
 10
6.94023247810001
 20
2.00000000000002
 30
0.0
 40
0.999999999999985
 50
269.999999999999
 51
307.833656589899
  0
LINE
  8
3
  6
CONTINUOUS
 62
3
 10
6.9402324781
 20
1.00000000000002
 30
0.0
 11
3.337147252
 21
1.00000000000002
 31
0.0
  0
ARC
  8
3
  6
CONTINUOUS
 62
3
 10
3.337147252
 20
1.75000000000002
 30
0.0
 40
0.749999999999997
 50
184.0006299616
 51
270
  0
ARC
  8
3
  6
CONTINUOUS
 62
3
 10
-7.38665804270002
 20
1.00000000000015
 30
0.0
 40
10.0000000000001
 50
4.00062996159923
 51
27.5733960435991
  0
LINE
  8
3
  6
CONTINUOUS
 62
3
 10
1.4775280011
 20
5.62884497270002
 30
0.0
 11
1.3693473729
 21
5.85013067730002
 31
0.0
  0
LINE
  8
3
  6
CONTINUOUS
 62
3
 10
1.3693473729
 20
5.85013067730002
 30
0.0
 11
1.2748277965
 21
6.07347999680002
 31
0.0
  0
LINE
  8
3
  6
CONTINUOUS
 62
3
 10
1.2748277965
 20
6.07347999680002
 30
0.0
 11
1.1940874947
 21
6.29861357140002
 31
0.0
  0
LINE
  8
3
  6
CONTINUOUS
 62
3
 10
1.1940874947
 20
6.29861357140002
 30
0.0
 11
1.1272274554
 21
6.52524980970002
 31
0.0
  0
LINE
  8
3
  6
CONTINUOUS
 62
3
 10
1.1272274554
 20
6.52524980970002
 30
0.0
 11
1.0743313054
 21
6.75310524080002
 31
0.0
  0
LINE
  8
3
  6
CONTINUOUS
 62
3
 10
1.0743313054
 20
6.75310524080002
 30
0.0
 11
1.0354652059
 21
6.98189486910002
 31
0.0
  0
LINE
  8
3
  6
CONTINUOUS
 62
3
 10
1.0354652059
 20
6.98189486910002
 30
0.0
 11
1.0106777696
 21
7.21133253010002
 31
0.0
  0
LINE
  8
3
  6
CONTINUOUS
 62
3
 10
1.0106777696
 20
7.21133253010002
 30
0.0
 11
1
 21
7.44113124910002
 31
0.0
  0
LINE
  8
3
  6
CONTINUOUS
 62
3
 10
1
 20
7.44113124910002
 30
0.0
 11
1.0034452526
 21
7.67100359960002
 31
0.0
  0
LINE
  8
3
  6
CONTINUOUS
 62
3
 10
1.0034452526
 20
7.67100359960002
 30
0.0
 11
1.0210092182
 21
7.90066206320002
 31
0.0
  0
LINE
  8
3
  6
CONTINUOUS
 62
3
 10
1.0210092182
 20
7.90066206320002
 30
0.0
 11
1.0526699282
 21
8.12981938880002
 31
0.0
  0
LINE
  8
3
  6
CONTINUOUS
 62
3
 10
1.0526699282
 20
8.12981938880002
 30
0.0
 11
1.0983877822
 21
8.35818895220002
 31
0.0
  0
LINE
  8
3
  6
CONTINUOUS
 62
3
 10
1.0983877822
 20
8.35818895220002
 30
0.0
 11
1.1581055974
 21
8.58548511460002
 31
0.0
  0
LINE
  8
3
  6
CONTINUOUS
 62
3
 10
1.1581055974
 20
8.58548511460002
 30
0.0
 11
1.2317486804
 21
8.81142357970002
 31
0.0
  0
LINE
  8
3
  6
CONTINUOUS
 62
3
 10
1.2317486804
 20
8.81142357970002
 30
0.0
 11
1.3192249201
 21
9.03572174940002
 31
0.0
  0
LINE
  8
3
  6
CONTINUOUS
 62
3
 10
1.3192249201
 20
9.03572174940002
 30
0.0
 11
1.4204249037
 21
9.25809907720002
 31
0.0
  0
LINE
  8
3
  6
CONTINUOUS
 62
3
 10
1.4204249037
 20
9.25809907720002
 30
0.0
 11
1.5352220526
 21
9.47827741920002
 31
0.0
  0
LINE
  8
3
  6
CONTINUOUS
 62
3
 10
1.5352220526
 20
9.47827741920002
 30
0.0
 11
1.6634727814
 21
9.69598138180002
 31
0.0
  0
LINE
  8
3
  6
CONTINUOUS
 62
3
 10
1.6634727814
 20
9.69598138180002
 30
0.0
 11
1.8050166776
 21
9.91093866650002
 31
0.0
  0
LINE
  8
3
  6
CONTINUOUS
 62
3
 10
1.8050166776
 20
9.91093866650002
 30
0.0
 11
1.9596767014
 21
10.1228804101
 31
0.0
  0
LINE
  8
3
  6
CONTINUOUS
 62
3
 10
1.9596767014
 20
10.1228804101
 30
0.0
 11
2.1272594081
 21
10.3315415214
 31
0.0
  0
LINE
  8
3
  6
CONTINUOUS
 62
3
 10
2.1272594081
 20
10.3315415214
 30
0.0
 11
2.3075551895
 21
10.5366610121
 31
0.0
  0
LINE
  8
3
  6
CONTINUOUS
 62
3
 10
2.3075551895
 20
10.5366610121
 30
0.0
 11
2.5003385362
 21
10.7379823241
 31
0.0
  0
LINE
  8
3
  6
CONTINUOUS
 62
3
 10
2.5003385362
 20
10.7379823241
 30
0.0
 11
2.7053683196
 21
10.9352536498
 31
0.0
  0
LINE
  8
3
  6
CONTINUOUS
 62
3
 10
2.7053683196
 20
10.9352536498
 30
0.0
 11
2.9223880936
 21
11.1282282471
 31
0.0
  0
LINE
  8
3
  6
CONTINUOUS
 62
3
 10
2.9223880936
 20
11.1282282471
 30
0.0
 11
3.1511264155
 21
11.3166647484
 31
0.0
  0
LINE
  8
3
  6
CONTINUOUS
 62
3
 10
3.1511264155
 20
11.3166647484
 30
0.0
 11
3.3912971851
 21
11.500327462
 31
0.0
  0
LINE
  8
3
  6
CONTINUOUS
 62
3
 10
3.3912971851
 20
11.500327462
 30
0.0
 11
3.6426000029
 21
11.6789866673
 31
0.0
  0
LINE
  8
3
  6
CONTINUOUS
 62
3
 10
3.6426000029
 20
11.6789866673
 30
0.0
 11
3.9047205457
 21
11.8524189019
 31
0.0
  0
LINE
  8
3
  6
CONTINUOUS
 62
3
 10
3.9047205457
 20
11.8524189019
 30
0.0
 11
4.1773309598
 21
12.020407241
 31
0.0
  0
LINE
  8
3
  6
CONTINUOUS
 62
3
 10
4.1773309598
 20
12.020407241
 30
0.0
 11
4.4600902709
 21
12.1827415691
 31
0.0
  0
LINE
  8
3
  6
CONTINUOUS
 62
3
 10
4.4600902709
 20
12.1827415691
 30
0.0
 11
4.7526448109
 21
12.3392188427
 31
0.0
  0
LINE
  8
3
  6
CONTINUOUS
 62
3
 10
4.7526448109
 20
12.3392188427
 30
0.0
 11
5.0546286599
 21
12.4896433438
 31
0.0
  0
LINE
  8
3
  6
CONTINUOUS
 62
3
 10
5.0546286599
 20
12.4896433438
 30
0.0
 11
5.3656641043
 21
12.6338269252
 31
0.0
  0
LINE
  8
3
  6
CONTINUOUS
 62
3
 10
5.3656641043
 20
12.6338269252
 30
0.0
 11
5.5255131065
 21
12.70270808555
 31
0.0
  0
ENDSEC
  0
EOF
