  0
SECTION
  2
HEADER
  9
$ACADVER
  1
AC1015
  9
$ACADMAINTVER
 70
     6
  9
$DWGCODEPAGE
  3
ANSI_1252
  9
$INSBASE
 10
0.0
 20
0.0
 30
0.0
  9
$EXTMIN
 10
-11.2914198814
 20
-6.5
 30
0.0
  9
$EXTMAX
 10
7.7081170043
 20
6.4995541263
 30
0.0
  9
$LIMMIN
 10
0.0
 20
0.0
  9
$LIMMAX
 10
12.0
 20
9.0
  9
$ORTHOMODE
 70
     0
  9
$REGENMODE
 70
     1
  9
$FILLMODE
 70
     1
  9
$QTEXTMODE
 70
     0
  9
$MIRRTEXT
 70
     1
  9
$LTSCALE
 40
1.0
  9
$ATTMODE
 70
     1
  9
$TEXTSIZE
 40
0.125
  9
$TRACEWID
 40
0.05
  9
$TEXTSTYLE
  7
Standard
  9
$CLAYER
  8
0
  9
$CELTYPE
  6
ByLayer
  9
$CECOLOR
 62
   256
  9
$CELTSCALE
 40
1.0
  9
$DISPSILH
 70
     0
  9
$DIMSCALE
 40
1.0
  9
$DIMASZ
 40
0.13
  9
$DIMEXO
 40
0.05
  9
$DIMDLI
 40
0.38
  9
$DIMRND
 40
0.0
  9
$DIMDLE
 40
0.0
  9
$DIMEXE
 40
0.125
  9
$DIMTP
 40
0.0
  9
$DIMTM
 40
0.0
  9
$DIMTXT
 40
0.125
  9
$DIMCEN
 40
0.09
  9
$DIMTSZ
 40
0.0
  9
$DIMTOL
 70
     0
  9
$DIMLIM
 70
     0
  9
$DIMTIH
 70
     1
  9
$DIMTOH
 70
     1
  9
$DIMSE1
 70
     0
  9
$DIMSE2
 70
     0
  9
$DIMTAD
 70
     0
  9
$DIMZIN
 70
     0
  9
$DIMBLK
  1

  9
$DIMASO
 70
     1
  9
$DIMSHO
 70
     1
  9
$DIMPOST
  1

  9
$DIMAPOST
  1

  9
$DIMALT
 70
     0
  9
$DIMALTD
 70
     2
  9
$DIMALTF
 40
25.4
  9
$DIMLFAC
 40
1.0
  9
$DIMTOFL
 70
     0
  9
$DIMTVP
 40
0.0
  9
$DIMTIX
 70
     0
  9
$DIMSOXD
 70
     0
  9
$DIMSAH
 70
     0
  9
$DIMBLK1
  1

  9
$DIMBLK2
  1

  9
$DIMSTYLE
  2
Standard
  9
$DIMCLRD
 70
     0
  9
$DIMCLRE
 70
     0
  9
$DIMCLRT
 70
     0
  9
$DIMTFAC
 40
1.0
  9
$DIMGAP
 40
0.06
  9
$DIMJUST
 70
     0
  9
$DIMSD1
 70
     0
  9
$DIMSD2
 70
     0
  9
$DIMTOLJ
 70
     1
  9
$DIMTZIN
 70
     0
  9
$DIMALTZ
 70
     0
  9
$DIMALTTZ
 70
     0
  9
$DIMUPT
 70
     0
  9
$DIMDEC
 70
     2
  9
$DIMTDEC
 70
     2
  9
$DIMALTU
 70
     2
  9
$DIMALTTD
 70
     2
  9
$DIMTXSTY
  7
Standard
  9
$DIMAUNIT
 70
     0
  9
$DIMADEC
 70
     2
  9
$DIMALTRND
 40
0.0
  9
$DIMAZIN
 70
     0
  9
$DIMDSEP
 70
    46
  9
$DIMATFIT
 70
     3
  9
$DIMFRAC
 70
     0
  9
$DIMLDRBLK
  1

  9
$DIMLUNIT
 70
     2
  9
$DIMLWD
 70
    -2
  9
$DIMLWE
 70
    -2
  9
$DIMTMOVE
 70
     0
  9
$LUNITS
 70
     2
  9
$LUPREC
 70
     2
  9
$SKETCHINC
 40
0.1
  9
$FILLETRAD
 40
0.5
  9
$AUNITS
 70
     0
  9
$AUPREC
 70
     2
  9
$MENU
  1
.
  9
$ELEVATION
 40
0.0
  9
$PELEVATION
 40
0.0
  9
$THICKNESS
 40
0.0
  9
$LIMCHECK
 70
     0
  9
$CHAMFERA
 40
0.0
  9
$CHAMFERB
 40
0.0
  9
$CHAMFERC
 40
0.0
  9
$CHAMFERD
 40
0.0
  9
$SKPOLY
 70
     0
  9
$TDCREATE
 40
2457445.229971435
  9
$TDUCREATE
 40
2457445.438304768
  9
$TDUPDATE
 40
2457445.230012697
  9
$TDUUPDATE
 40
2457445.43834603
  9
$TDINDWG
 40
0.0000000116
  9
$TDUSRTIMER
 40
0.0000000116
  9
$USRTIMER
 70
     1
  9
$ANGBASE
 50
0.0
  9
$ANGDIR
 70
     0
  9
$PDMODE
 70
     0
  9
$PDSIZE
 40
-1.0
  9
$PLINEWID
 40
0.0
  9
$SPLFRAME
 70
     0
  9
$SPLINETYPE
 70
     6
  9
$SPLINESEGS
 70
     8
  9
$HANDSEED
  5
2AB
  9
$SURFTAB1
 70
     6
  9
$SURFTAB2
 70
     6
  9
$SURFTYPE
 70
     6
  9
$SURFU
 70
     6
  9
$SURFV
 70
     6
  9
$UCSBASE
  2

  9
$UCSNAME
  2

  9
$UCSORG
 10
0.0
 20
0.0
 30
0.0
  9
$UCSXDIR
 10
1.0
 20
0.0
 30
0.0
  9
$UCSYDIR
 10
0.0
 20
1.0
 30
0.0
  9
$UCSORTHOREF
  2

  9
$UCSORTHOVIEW
 70
     0
  9
$UCSORGTOP
 10
0.0
 20
0.0
 30
0.0
  9
$UCSORGBOTTOM
 10
0.0
 20
0.0
 30
0.0
  9
$UCSORGLEFT
 10
0.0
 20
0.0
 30
0.0
  9
$UCSORGRIGHT
 10
0.0
 20
0.0
 30
0.0
  9
$UCSORGFRONT
 10
0.0
 20
0.0
 30
0.0
  9
$UCSORGBACK
 10
0.0
 20
0.0
 30
0.0
  9
$PUCSBASE
  2

  9
$PUCSNAME
  2

  9
$PUCSORG
 10
0.0
 20
0.0
 30
0.0
  9
$PUCSXDIR
 10
1.0
 20
0.0
 30
0.0
  9
$PUCSYDIR
 10
0.0
 20
1.0
 30
0.0
  9
$PUCSORTHOREF
  2

  9
$PUCSORTHOVIEW
 70
     0
  9
$PUCSORGTOP
 10
0.0
 20
0.0
 30
0.0
  9
$PUCSORGBOTTOM
 10
0.0
 20
0.0
 30
0.0
  9
$PUCSORGLEFT
 10
0.0
 20
0.0
 30
0.0
  9
$PUCSORGRIGHT
 10
0.0
 20
0.0
 30
0.0
  9
$PUCSORGFRONT
 10
0.0
 20
0.0
 30
0.0
  9
$PUCSORGBACK
 10
0.0
 20
0.0
 30
0.0
  9
$USERI1
 70
     0
  9
$USERI2
 70
     0
  9
$USERI3
 70
     0
  9
$USERI4
 70
     0
  9
$USERI5
 70
     0
  9
$USERR1
 40
0.0
  9
$USERR2
 40
0.0
  9
$USERR3
 40
0.0
  9
$USERR4
 40
0.0
  9
$USERR5
 40
0.0
  9
$WORLDVIEW
 70
     1
  9
$SHADEDGE
 70
     3
  9
$SHADEDIF
 70
    70
  9
$TILEMODE
 70
     1
  9
$MAXACTVP
 70
    64
  9
$PINSBASE
 10
0.0
 20
0.0
 30
0.0
  9
$PLIMCHECK
 70
     0
  9
$PEXTMIN
 10
1.0000000000E+20
 20
1.0000000000E+20
 30
1.0000000000E+20
  9
$PEXTMAX
 10
-1.0000000000E+20
 20
-1.0000000000E+20
 30
-1.0000000000E+20
  9
$PLIMMIN
 10
0.0
 20
0.0
  9
$PLIMMAX
 10
12.0
 20
9.0
  9
$UNITMODE
 70
     0
  9
$VISRETAIN
 70
     1
  9
$PLINEGEN
 70
     0
  9
$PSLTSCALE
 70
     1
  9
$TREEDEPTH
 70
  3020
  9
$CMLSTYLE
  2
Standard
  9
$CMLJUST
 70
     0
  9
$CMLSCALE
 40
1.0
  9
$PROXYGRAPHICS
 70
     1
  9
$MEASUREMENT
 70
     0
  9
$CELWEIGHT
370
    -1
  9
$ENDCAPS
280
     0
  9
$JOINSTYLE
280
     0
  9
$LWDISPLAY
290
     1
  9
$INSUNITS
 70
     1
  9
$HYPERLINKBASE
  1

  9
$STYLESHEET
  1

  9
$XEDIT
290
     1
  9
$CEPSNTYPE
380
     0
  9
$PSTYLEMODE
290
     1
  9
$FINGERPRINTGUID
  2
{95566121-80E5-4DB4-AB06-A2A18FE97E24}
  9
$VERSIONGUID
  2
{FAEB1C32-E019-11D5-929B-00C0DF256EC4}
  9
$EXTNAMES
290
     1
  9
$PSVPSCALE
 40
0.0
  9
$OLESTARTUP
290
     0
  0
ENDSEC
  0
SECTION
  2
CLASSES
  0
CLASS
  1
ACDBDICTIONARYWDFLT
  2
AcDbDictionaryWithDefault
  3
ObjectDBX Classes
 90
        0
280
     0
281
     0
  0
CLASS
  1
VISUALSTYLE
  2
AcDbVisualStyle
  3
ObjectDBX Classes
 90
     4095
280
     0
281
     0
  0
CLASS
  1
MATERIAL
  2
AcDbMaterial
  3
ObjectDBX Classes
 90
     1153
280
     0
281
     0
  0
CLASS
  1
SCALE
  2
AcDbScale
  3
ObjectDBX Classes
 90
     1153
280
     0
281
     0
  0
CLASS
  1
TABLESTYLE
  2
AcDbTableStyle
  3
ObjectDBX Classes
 90
     4095
280
     0
281
     0
  0
CLASS
  1
MLEADERSTYLE
  2
AcDbMLeaderStyle
  3
ACDB_MLEADERSTYLE_CLASS
 90
     4095
280
     0
281
     0
  0
CLASS
  1
SUN
  2
AcDbSun
  3
SCENEOE
 90
     1153
280
     0
281
     0
  0
CLASS
  1
ACDBPLACEHOLDER
  2
AcDbPlaceHolder
  3
ObjectDBX Classes
 90
        0
280
     0
281
     0
  0
CLASS
  1
LAYOUT
  2
AcDbLayout
  3
ObjectDBX Classes
 90
        0
280
     0
281
     0
  0
ENDSEC
  0
SECTION
  2
TABLES
  0
TABLE
  2
VPORT
  5
8
330
0
100
AcDbSymbolTable
 70
     1
  0
VPORT
  5
29
330
8
100
AcDbSymbolTableRecord
100
AcDbViewportTableRecord
  2
*Active
 70
     0
 10
0.0
 20
0.0
 11
1.0
 21
1.0
 12
-1.7916514385
 22
-0.0002229369
 13
0.0
 23
0.0
 14
0.5
 24
0.5
 15
0.5
 25
0.5
 16
0.0
 26
0.0
 36
1.0
 17
0.0
 27
0.0
 37
0.0
 40
13.2595452088
 41
1.4615529657
 42
50.0
 43
0.0
 44
0.0
 50
0.0
 51
0.0
 71
     0
 72
   100
 73
     1
 74
     3
 75
     0
 76
     0
 77
     0
 78
     0
281
     0
 65
     1
110
0.0
120
0.0
130
0.0
111
1.0
121
0.0
131
0.0
112
0.0
122
1.0
132
0.0
 79
     0
146
0.0
  0
ENDTAB
  0
TABLE
  2
LTYPE
  5
5
330
0
100
AcDbSymbolTable
 70
     6
  0
LTYPE
  5
14
330
5
100
AcDbSymbolTableRecord
100
AcDbLinetypeTableRecord
  2
ByBlock
 70
     0
  3

 72
    65
 73
     0
 40
0.0
  0
LTYPE
  5
15
330
5
100
AcDbSymbolTableRecord
100
AcDbLinetypeTableRecord
  2
ByLayer
 70
     0
  3

 72
    65
 73
     0
 40
0.0
  0
LTYPE
  5
16
330
5
100
AcDbSymbolTableRecord
100
AcDbLinetypeTableRecord
  2
Continuous
 70
     0
  3
Solid line
 72
    65
 73
     0
 40
0.0
  0
LTYPE
  5
6E
330
5
100
AcDbSymbolTableRecord
100
AcDbLinetypeTableRecord
  2
HIDDEN
 70
     0
  3
Hidden __ __ __ __ __ __ __ __ __ __ __ __ __ __
 72
    65
 73
     2
 40
0.075
 49
0.05
 74
     0
 49
-0.025
 74
     0
  0
LTYPE
  5
6F
330
5
100
AcDbSymbolTableRecord
100
AcDbLinetypeTableRecord
  2
PHANTOM
 70
     0
  3
Phantom ______  __  __  ______  __  __  ______
 72
    65
 73
     6
 40
0.5
 49
0.25
 74
     0
 49
-0.05
 74
     0
 49
0.05
 74
     0
 49
-0.05
 74
     0
 49
0.05
 74
     0
 49
-0.05
 74
     0
  0
LTYPE
  5
70
330
5
100
AcDbSymbolTableRecord
100
AcDbLinetypeTableRecord
  2
CENTER
 70
     0
  3
Center ____ _ ____ _ ____ _ ____ _ ____ _ ____
 72
    65
 73
     4
 40
0.4
 49
0.25
 74
     0
 49
-0.05
 74
     0
 49
0.05
 74
     0
 49
-0.05
 74
     0
  0
LTYPE
  5
71
330
5
100
AcDbSymbolTableRecord
100
AcDbLinetypeTableRecord
  2
CENTERX2
 70
     0
  3
Center (2x) ________  __  ________  __  _____
 72
    65
 73
     4
 40
0.8
 49
0.5
 74
     0
 49
-0.1
 74
     0
 49
0.1
 74
     0
 49
-0.1
 74
     0
  0
LTYPE
  5
72
330
5
100
AcDbSymbolTableRecord
100
AcDbLinetypeTableRecord
  2
DOT2
 70
     0
  3
Dot (.5x) ........................................
 72
    65
 73
     2
 40
0.025
 49
0.0
 74
     0
 49
-0.025
 74
     0
  0
ENDTAB
  0
TABLE
  2
LAYER
  5
2
330
0
100
AcDbSymbolTable
 70
     1
  0
LAYER
  5
10
330
2
100
AcDbSymbolTableRecord
100
AcDbLayerTableRecord
  2
0
 70
     0
 62
     7
  6
Continuous
370
    -3
390
F
  0
ENDTAB
  0
TABLE
  2
STYLE
  5
3
330
0
100
AcDbSymbolTable
 70
     2
  0
STYLE
  5
11
330
3
100
AcDbSymbolTableRecord
100
AcDbTextStyleTableRecord
  2
Standard
 70
     0
 40
0.0
 41
1.0
 50
0.0
 71
     0
 42
0.125
  3
txt
  4

  0
STYLE
  5
2A8
330
3
100
AcDbSymbolTableRecord
100
AcDbTextStyleTableRecord
  2
SLDTEXTSTYLE0
 70
     0
 40
0.0
 41
0.7
 50
0.0
 71
     0
 42
0.125
  3
TXT
  4

  0
ENDTAB
  0
TABLE
  2
VIEW
  5
6
330
0
100
AcDbSymbolTable
 70
     0
  0
ENDTAB
  0
TABLE
  2
UCS
  5
7
330
0
100
AcDbSymbolTable
 70
     0
  0
ENDTAB
  0
TABLE
  2
APPID
  5
9
330
0
100
AcDbSymbolTable
 70
     1
  0
APPID
  5
12
330
9
100
AcDbSymbolTableRecord
100
AcDbRegAppTableRecord
  2
ACAD
 70
     0
  0
ENDTAB
  0
TABLE
  2
DIMSTYLE
  5
A
330
0
100
AcDbSymbolTable
 70
     1
100
AcDbDimStyleTable
  0
DIMSTYLE
105
27
330
A
100
AcDbSymbolTableRecord
100
AcDbDimStyleTableRecord
  2
Standard
 70
     0
178
     0
340
11
  0
ENDTAB
  0
TABLE
  2
BLOCK_RECORD
  5
1
330
0
100
AcDbSymbolTable
 70
     1
  0
BLOCK_RECORD
  5
1F
330
1
100
AcDbSymbolTableRecord
100
AcDbBlockTableRecord
  2
*Model_Space
340
22
  0
BLOCK_RECORD
  5
1B
330
1
100
AcDbSymbolTableRecord
100
AcDbBlockTableRecord
  2
*Paper_Space
340
1E
  0
BLOCK_RECORD
  5
23
330
1
100
AcDbSymbolTableRecord
100
AcDbBlockTableRecord
  2
*Paper_Space0
340
26
  0
ENDTAB
  0
ENDSEC
  0
SECTION
  2
BLOCKS
  0
BLOCK
  5
20
330
1F
100
AcDbEntity
  8
0
100
AcDbBlockBegin
  2
*Model_Space
 70
     0
 10
0.0
 20
0.0
 30
0.0
  3
*Model_Space
  1

  0
ENDBLK
  5
21
330
1F
100
AcDbEntity
  8
0
100
AcDbBlockEnd
  0
BLOCK
  5
1C
330
1B
100
AcDbEntity
 67
     1
  8
0
100
AcDbBlockBegin
  2
*Paper_Space
 70
     0
 10
0.0
 20
0.0
 30
0.0
  3
*Paper_Space
  1

  0
ENDBLK
  5
1D
330
1B
100
AcDbEntity
 67
     1
  8
0
100
AcDbBlockEnd
  0
BLOCK
  5
24
330
23
100
AcDbEntity
  8
0
100
AcDbBlockBegin
  2
*Paper_Space0
 70
     0
 10
0.0
 20
0.0
 30
0.0
  3
*Paper_Space0
  1

  0
ENDBLK
  5
25
330
23
100
AcDbEntity
  8
0
100
AcDbBlockEnd
  0
ENDSEC
  0
SECTION
  2
ENTITIES
  0
LWPOLYLINE
  5
8E
330
1F
100
AcDbEntity
  8
0
  6
Continuous
 62
     7
370
    15
100
AcDbPolyline
 90
       73
 70
   128
 43
0.0
 10
7.1327616894
 20
5.0390346134
 10
6.8187572392
 20
5.1810697972
 10
6.4962240599
 20
5.31662463
 10
6.1655655681
 20
5.4455295633
 10
5.8271953429
 20
5.5676233661
 10
5.4815366092
 20
5.6827533265
 10
5.1290217083
 20
5.7907754428
 10
4.7700915568
 20
5.8915546038
 10
4.4051950956
 20
5.9849647574
 10
4.0347887278
 20
6.0708890686
 10
3.6593357484
 20
6.1492200654
 10
3.2793057645
 20
6.2198597733
 10
2.8951741079
 20
6.2827198381
 10
2.5074212408
 20
6.3377216359
 10
2.1165321547
 20
6.3847963719
 10
1.7229957637
 20
6.4238851662
 10
1.3273042933
 20
6.4549391276
 10
0.9299526642
 20
6.4779194144
 10
0.5314378739
 20
6.4927972836
 10
0.1322583745
 20
6.4995541263
 10
-0.2670865502
 20
6.4981814912
 10
-0.6660974099
 20
6.4886810951
 10
-1.0642751318
 20
6.471064821
 10
-1.4611216854
 20
6.4453547028
 10
-1.8561407048
 20
6.411582898
 10
-2.2488381105
 20
6.3697916476
 10
-2.6387227264
 20
6.3200332231
 10
-3.0253068947
 20
6.2623698609
 10
-3.4081070857
 20
6.1968736851
 10
-3.7866445026
 20
6.1236266165
 10
-4.1604456804
 20
6.0427202707
 10
-4.529043078
 20
5.9542558433
 10
-4.8919756632
 20
5.8583439834
 10
-5.2487894891
 20
5.7551046552
 10
-5.5990382619
 20
5.6446669877
 10
-5.9422838994
 20
5.5271691136
 10
-6.2780970785
 20
5.4027579962
 10
-6.6060577727
 20
5.2715892459
 10
-6.9257557771
 20
5.1338269252
 10
-7.2367912215
 20
4.9896433438
 10
-7.5387750705
 20
4.8392188427
 10
-7.8313296105
 20
4.6827415691
 10
-8.1140889216
 20
4.520407241
 10
-8.3866993357
 20
4.3524189019
 10
-8.6488198785
 20
4.1789866673
 10
-8.9001226963
 20
4.000327462
 10
-9.1402934659
 20
3.8166647484
 10
-9.3690317878
 20
3.6282282471
 10
-9.5860515618
 20
3.4352536498
 10
-9.7910813452
 20
3.2379823241
 10
-9.9838646919
 20
3.0366610121
 10
-10.1641604733
 20
2.8315415214
 10
-10.33174318
 20
2.6228804101
 10
-10.4864032038
 20
2.4109386665
 10
-10.6279471
 20
2.1959813818
 10
-10.7561978288
 20
1.9782774192
 10
-10.8709949777
 20
1.7580990772
 10
-10.9721949613
 20
1.5357217494
 10
-11.059671201
 20
1.3114235797
 10
-11.133314284
 20
1.0854851146
 10
-11.1930320992
 20
0.8581889522
 10
-11.2387499532
 20
0.6298193888
 10
-11.2704106632
 20
0.4006620632
 10
-11.2879746288
 20
0.1710035996
 10
-11.2914198814
 20
-0.0588687509
 10
-11.2807421118
 20
-0.2886674699
 10
-11.2559546755
 20
-0.5181051309
 10
-11.217088576
 20
-0.7468947592
 10
-11.164192426
 20
-0.9747501903
 10
-11.0973323867
 20
-1.2013864286
 10
-11.0165920849
 20
-1.4265200032
 10
-10.9220725085
 20
-1.6498693227
 10
-10.8138918803
 20
-1.8711550273
  0
SPLINE
  5
12A
330
1F
100
AcDbEntity
  8
0
  6
Continuous
 62
     7
370
    15
100
AcDbSpline
210
0.0
220
0.0
230
1.0
 70
     8
 71
     3
 72
    14
 73
    10
 74
     0
 42
0.000000001
 43
0.00000001
 40
0.5808739548331785
 40
0.5808739548331785
 40
0.5808739548331785
 40
0.5808739548331785
 40
0.6114892003249818
 40
0.6114892003249818
 40
0.6739892003249818
 40
0.6739892003249818
 40
0.7364892003249818
 40
0.7364892003249818
 40
0.7806152454918033
 40
0.7806152454918033
 40
0.7806152454918033
 40
0.7806152454918033
 10
-10.56815786357274
 20
1.665429755393843
 30
0.0
 10
-10.49009917980268
 20
1.820809956336473
 30
0.0
 10
-10.40094043614234
 20
1.975005030276469
 30
0.0
 10
-10.09617727229134
 20
2.438920129180167
 30
0.0
 10
-9.845563676929677
 20
2.74328740997046
 30
0.0
 10
-9.257019501722496
 20
3.328298008741858
 30
0.0
 10
-8.919115570011753
 20
3.608894797363841
 30
0.0
 10
-8.27544326784743
 20
4.059382271743707
 30
0.0
 10
-7.989445730019158
 20
4.237560345813354
 30
0.0
 10
-7.685814002468152
 20
4.406087367498714
 30
0.0
  0
SPLINE
  5
132
330
1F
100
AcDbEntity
  8
0
  6
Continuous
 62
     7
370
    15
100
AcDbSpline
210
0.0
220
0.0
230
1.0
 70
     8
 71
     3
 72
     8
 73
     4
 74
     0
 42
0.000000001
 43
0.00000001
 40
0.996635984590342
 40
0.996635984590342
 40
0.996635984590342
 40
0.996635984590342
 40
1.0
 40
1.0
 40
1.0
 40
1.0
 10
-10.53688606647394
 20
-1.726503621935915
 30
0.0
 10
-10.54578358732867
 20
-1.709464969604613
 30
0.0
 10
-10.55454671112424
 20
-1.692411780199903
 30
0.0
 10
-10.56317545041743
 20
-1.675344590377691
 30
0.0
  0
SPLINE
  5
142
330
1F
100
AcDbEntity
  8
0
  6
Continuous
 62
     7
370
    15
100
AcDbSpline
210
0.0
220
0.0
230
1.0
 70
     8
 71
     3
 72
    10
 73
     6
 74
     0
 42
0.000000001
 43
0.00000001
 40
0.8608243406253128
 40
0.8608243406253128
 40
0.8608243406253128
 40
0.8608243406253128
 40
0.9015987438640516
 40
0.9015987438640516
 40
0.9157744032387389
 40
0.9157744032387389
 40
0.9157744032387389
 40
0.9157744032387389
 10
-10.95269036755004
 20
-0.4277060535335644
 30
0.0
 10
-10.97911889517283
 20
-0.2163029469233022
 30
0.0
 10
-10.98591332635349
 20
-0.0045107542064799
 30
0.0
 10
-10.96868344470116
 20
0.2806534645700186
 30
0.0
 10
-10.96187004531357
 20
0.3542021799266128
 30
0.0
 10
-10.95268403424786
 20
0.4277051806932459
 30
0.0
  0
SPLINE
  5
14A
330
1F
100
AcDbEntity
  8
0
  6
Continuous
 62
     7
370
    15
100
AcDbSpline
210
0.0
220
0.0
230
1.0
 70
     8
 71
     3
 72
    14
 73
    10
 74
     0
 42
0.000000001
 43
0.00000001
 40
0.2207712928215576
 40
0.2207712928215576
 40
0.2207712928215576
 40
0.2207712928215576
 40
0.2450604626804982
 40
0.2450604626804982
 40
0.3075604626804982
 40
0.3075604626804982
 40
0.3700604626804982
 40
0.3700604626804982
 40
0.3992891698589406
 40
0.3992891698589406
 40
0.3992891698589406
 40
0.3992891698589406
 10
-3.202091782076946
 20
5.916087304448724
 30
0.0
 10
-2.977218755553182
 20
5.955064279507401
 30
0.0
 10
-2.750124373115878
 20
5.989948878060961
 30
0.0
 10
-1.93240808836045
 20
6.099643673231277
 30
0.0
 10
-1.331935280574192
 20
6.150928915241021
 30
0.0
 10
-0.1242714577276433
 20
6.19657866793232
 30
0.0
 10
0.4829052032276958
 20
6.190942997638671
 30
0.0
 10
1.366712272440016
 20
6.141022056861636
 30
0.0
 10
1.647237028199229
 20
6.118908672602357
 30
0.0
 10
1.925828498733
 20
6.090682370039163
 30
0.0
  0
SPLINE
  5
14C
330
1F
100
AcDbEntity
  8
0
  6
Continuous
 62
     7
370
    15
100
AcDbSpline
210
0.0
220
0.0
230
1.0
 70
     8
 71
     3
 72
    12
 73
     8
 74
     0
 42
0.000000001
 43
0.00000001
 40
0.4367308388963891
 40
0.4367308388963891
 40
0.4367308388963891
 40
0.4367308388963891
 40
0.4624193704460085
 40
0.4624193704460085
 40
0.5249193704460084
 40
0.5249193704460084
 40
0.5256885315496194
 40
0.5256885315496194
 40
0.5256885315496194
 40
0.5256885315496194
 10
-6.467994076661441
 20
4.990515090536929
 30
0.0
 10
-6.267519014424874
 20
5.073406475226466
 30
0.0
 10
-6.062015501115567
 20
5.152510409865922
 30
0.0
 10
-5.340851857768423
 20
5.410308379428233
 30
0.0
 10
-4.802750817922734
 20
5.569275972791356
 30
0.0
 10
-4.238206483281767
 20
5.703747150424168
 30
0.0
 10
-4.231340373219289
 20
5.705377954372062
 30
0.0
 10
-4.224471314748743
 20
5.707004797658775
 30
0.0
  0
SPLINE
  5
152
330
1F
100
AcDbEntity
  8
0
  6
Continuous
 62
     7
370
    15
100
AcDbSpline
210
0.0
220
0.0
230
1.0
 70
     8
 71
     3
 72
    12
 73
     8
 74
     0
 42
0.000000001
 43
0.00000001
 40
0.0491432511225516
 40
0.0491432511225516
 40
0.0491432511225516
 40
0.0491432511225516
 40
0.1088488856940866
 40
0.1088488856940866
 40
0.1713488856940866
 40
0.1713488856940866
 40
0.184705634571535
 40
0.184705634571535
 40
0.184705634571535
 40
0.184705634571535
 10
2.946693705492325
 20
5.95845030948237
 30
0.0
 10
3.503417840726982
 20
5.870269289367696
 30
0.0
 10
4.047755535690966
 20
5.757096898981763
 30
0.0
 10
5.122529465311908
 20
5.477407124030585
 30
0.0
 10
5.651107794175592
 20
5.308641681546078
 30
0.0
 10
6.258186334775005
 20
5.075690825130432
 30
0.0
 10
6.363782329446179
 20
5.033615124443082
 30
0.0
 10
6.468017390874857
 20
4.990514149620983
 30
0.0
  0
CIRCLE
  5
17F
330
1F
100
AcDbEntity
  8
0
  6
Continuous
 62
     7
370
    15
100
AcDbCircle
 10
-10.0418829957
 20
0.6875
 30
0.0
 40
0.0747499999999999
  0
CIRCLE
  5
180
330
1F
100
AcDbEntity
  8
0
  6
Continuous
 62
     7
370
    15
100
AcDbCircle
 10
-10.9168829957
 20
0.6875
 30
0.0
 40
0.0747500000000016
  0
CIRCLE
  5
181
330
1F
100
AcDbEntity
  8
0
  6
Continuous
 62
     7
370
    15
100
AcDbCircle
 10
-10.9168829957
 20
-0.6875
 30
0.0
 40
0.0747500000000016
  0
CIRCLE
  5
182
330
1F
100
AcDbEntity
  8
0
  6
Continuous
 62
     7
370
    15
100
AcDbCircle
 10
-10.0418829957
 20
-0.6875
 30
0.0
 40
0.0747499999999999
  0
CIRCLE
  5
183
330
1F
100
AcDbEntity
  8
0
  6
Continuous
 62
     7
370
    15
100
AcDbCircle
 10
7.3331170043
 20
0.6875
 30
0.0
 40
0.0747500000000008
  0
CIRCLE
  5
184
330
1F
100
AcDbEntity
  8
0
  6
Continuous
 62
     7
370
    15
100
AcDbCircle
 10
7.3331170043
 20
-0.6875
 30
0.0
 40
0.0747500000000008
  0
CIRCLE
  5
185
330
1F
100
AcDbEntity
  8
0
  6
Continuous
 62
     7
370
    15
100
AcDbCircle
 10
6.4581170043
 20
-0.6875
 30
0.0
 40
0.0747500000000008
  0
CIRCLE
  5
186
330
1F
100
AcDbEntity
  8
0
  6
Continuous
 62
     7
370
    15
100
AcDbCircle
 10
6.4581170043
 20
0.6875
 30
0.0
 40
0.0747500000000008
  0
CIRCLE
  5
187
330
1F
100
AcDbEntity
  8
0
  6
Continuous
 62
     7
370
    15
100
AcDbCircle
 10
-5.6678672477
 20
4.0625
 30
0.0
 40
0.0669291338582676
  0
CIRCLE
  5
188
330
1F
100
AcDbEntity
  8
0
  6
Continuous
 62
     7
370
    15
100
AcDbCircle
 10
-6.4158987437
 20
4.0625
 30
0.0
 40
0.0669291338582676
  0
CIRCLE
  5
189
330
1F
100
AcDbEntity
  8
0
  6
Continuous
 62
     7
370
    15
100
AcDbCircle
 10
-6.0418829957
 20
3.688484252
 30
0.0
 40
0.0669291338582676
  0
CIRCLE
  5
18A
330
1F
100
AcDbEntity
  8
0
  6
Continuous
 62
     7
370
    15
100
AcDbCircle
 10
-6.0418829957
 20
4.436515748
 30
0.0
 40
0.0669291338582676
  0
CIRCLE
  5
18B
330
1F
100
AcDbEntity
  8
0
  6
Continuous
 62
     7
370
    15
100
AcDbCircle
 10
2.4581170043
 20
4.436515748
 30
0.0
 40
0.0669291338582676
  0
CIRCLE
  5
18C
330
1F
100
AcDbEntity
  8
0
  6
Continuous
 62
     7
370
    15
100
AcDbCircle
 10
2.8321327523
 20
4.0625
 30
0.0
 40
0.0669291338582676
  0
CIRCLE
  5
18D
330
1F
100
AcDbEntity
  8
0
  6
Continuous
 62
     7
370
    15
100
AcDbCircle
 10
2.4581170043
 20
3.688484252
 30
0.0
 40
0.0669291338582676
  0
CIRCLE
  5
18E
330
1F
100
AcDbEntity
  8
0
  6
Continuous
 62
     7
370
    15
100
AcDbCircle
 10
2.0841012563
 20
4.0625
 30
0.0
 40
0.0669291338582667
  0
CIRCLE
  5
18F
330
1F
100
AcDbEntity
  8
0
  6
Continuous
 62
     7
370
    15
100
AcDbCircle
 10
-0.6668829957
 20
-2.5625
 30
0.0
 40
0.0747500000000003
  0
CIRCLE
  5
190
330
1F
100
AcDbEntity
  8
0
  6
Continuous
 62
     7
370
    15
100
AcDbCircle
 10
-0.6668829957
 20
3.875
 30
0.0
 40
0.0747500000000004
  0
CIRCLE
  5
191
330
1F
100
AcDbEntity
  8
0
  6
Continuous
 62
     7
370
    15
100
AcDbCircle
 10
7.0831170043
 20
-2.5625
 30
0.0
 40
0.074749999999999
  0
CIRCLE
  5
192
330
1F
100
AcDbEntity
  8
0
  6
Continuous
 62
     7
370
    15
100
AcDbCircle
 10
7.0831170043
 20
3.875
 30
0.0
 40
0.0747500000000008
  0
CIRCLE
  5
193
330
1F
100
AcDbEntity
  8
0
  6
Continuous
 62
     7
370
    15
100
AcDbCircle
 10
-6.0898798202
 20
-0.1426270189
 30
0.0
 40
0.074749999999999
  0
CIRCLE
  5
194
330
1F
100
AcDbEntity
  8
0
  6
Continuous
 62
     7
370
    15
100
AcDbCircle
 10
-3.7773798202
 20
3.8627404736
 30
0.0
 40
0.0747500000000003
  0
CIRCLE
  5
195
330
1F
100
AcDbEntity
  8
0
  6
Continuous
 62
     7
370
    15
100
AcDbCircle
 10
-6.1780779241
 20
-5.625
 30
0.0
 40
0.0747499999999999
  0
CIRCLE
  5
196
330
1F
100
AcDbEntity
  8
0
  6
Continuous
 62
     7
370
    15
100
AcDbCircle
 10
-9.3030779241
 20
-5.625
 30
0.0
 40
0.0747499999999981
  0
CIRCLE
  5
197
330
1F
100
AcDbEntity
  8
0
  6
Continuous
 62
     7
370
    15
100
AcDbCircle
 10
-6.1780779241
 20
-2.5
 30
0.0
 40
0.074749999999999
  0
CIRCLE
  5
198
330
1F
100
AcDbEntity
  8
0
  6
Continuous
 62
     7
370
    15
100
AcDbCircle
 10
-9.3030779241
 20
-2.5
 30
0.0
 40
0.0747499999999999
  0
CIRCLE
  5
199
330
1F
100
AcDbEntity
  8
0
  6
Continuous
 62
     7
370
    15
100
AcDbCircle
 10
-2.4280779241
 20
-2.25
 30
0.0
 40
0.074749999999999
  0
CIRCLE
  5
19A
330
1F
100
AcDbEntity
  8
0
  6
Continuous
 62
     7
370
    15
100
AcDbCircle
 10
-2.4280779241
 20
-4.75
 30
0.0
 40
0.0747500000000008
  0
CIRCLE
  5
19B
330
1F
100
AcDbEntity
  8
0
  6
Continuous
 62
     7
370
    15
100
AcDbCircle
 10
-5.6780779241
 20
-4.75
 30
0.0
 40
0.0747499999999981
  0
CIRCLE
  5
19C
330
1F
100
AcDbEntity
  8
0
  6
Continuous
 62
     7
370
    15
100
AcDbCircle
 10
-5.6780779241
 20
-2.25
 30
0.0
 40
0.074749999999999
  0
CIRCLE
  5
19D
330
1F
100
AcDbEntity
  8
0
  6
Continuous
 62
     7
370
    15
100
AcDbCircle
 10
5.9581170043
 20
-6.0
 30
0.0
 40
0.1004999999999976
  0
CIRCLE
  5
19E
330
1F
100
AcDbEntity
  8
0
  6
Continuous
 62
     7
370
    15
100
AcDbCircle
 10
-7.7405779241
 20
-6.0
 30
0.0
 40
0.1005000000000011
  0
CIRCLE
  5
19F
330
1F
100
AcDbEntity
  8
0
  6
Continuous
 62
     7
370
    15
100
AcDbCircle
 10
5.8331170043
 20
-2.5625
 30
0.0
 40
0.0884999999999998
  0
CIRCLE
  5
1A0
330
1F
100
AcDbEntity
  8
0
  6
Continuous
 62
     7
370
    15
100
AcDbCircle
 10
0.5831170043
 20
-2.5625
 30
0.0
 40
0.0884999999999998
  0
CIRCLE
  5
1A1
330
1F
100
AcDbEntity
  8
0
  6
Continuous
 62
     7
370
    15
100
AcDbCircle
 10
-1.2322164441
 20
3.0529642611
 30
0.0
 40
0.0747499999999997
  0
CIRCLE
  5
1A2
330
1F
100
AcDbEntity
  8
0
  6
Continuous
 62
     7
370
    15
100
AcDbCircle
 10
1.7081170043
 20
4.4375
 30
0.0
 40
0.0747499999999999
  0
LINE
  5
1A3
330
1F
100
AcDbEntity
  8
0
  6
Continuous
 62
     7
370
    15
100
AcDbLine
 10
-7.2062205999
 20
-6.1875
 30
0.0
 11
-6.7405779241
 21
-6.1875
 31
0.0
  0
LINE
  5
1A4
330
1F
100
AcDbEntity
  8
0
  6
Continuous
 62
     7
370
    15
100
AcDbLine
 10
-6.4905779241
 20
-5.625
 30
0.0
 11
-6.4905779241
 21
-5.9375
 31
0.0
  0
LINE
  5
1A5
330
1F
100
AcDbEntity
  8
0
  6
Continuous
 62
     7
370
    15
100
AcDbLine
 10
-6.3030779241
 20
-2.9192627458
 30
0.0
 11
-6.3030779241
 21
-5.2057372542
 31
0.0
  0
LINE
  5
1A6
330
1F
100
AcDbEntity
  8
0
  6
Continuous
 62
     7
370
    15
100
AcDbLine
 10
-6.4905779241
 20
-2.375
 30
0.0
 11
-6.4905779241
 21
-2.5
 31
0.0
  0
LINE
  5
1A7
330
1F
100
AcDbEntity
  8
0
  6
Continuous
 62
     7
370
    15
100
AcDbLine
 10
-8.7405779241
 20
-2.125
 30
0.0
 11
-6.7405779241
 21
-2.125
 31
0.0
  0
LINE
  5
1A8
330
1F
100
AcDbEntity
  8
0
  6
Continuous
 62
     7
370
    15
100
AcDbLine
 10
-8.9905779241
 20
-2.5
 30
0.0
 11
-8.9905779241
 21
-2.375
 31
0.0
  0
LINE
  5
1A9
330
1F
100
AcDbEntity
  8
0
  6
Continuous
 62
     7
370
    15
100
AcDbLine
 10
-9.6155779241
 20
-2.4375
 30
0.0
 11
-9.6155779241
 21
-2.5
 31
0.0
  0
LINE
  5
1AA
330
1F
100
AcDbEntity
  8
0
  6
Continuous
 62
     7
370
    15
100
AcDbLine
 10
-9.8655779241
 20
-2.1875
 30
0.0
 11
-9.9280779241
 21
-2.1875
 31
0.0
  0
LINE
  5
1AB
330
1F
100
AcDbEntity
  8
0
  6
Continuous
 62
     7
370
    15
100
AcDbLine
 10
-8.9905779241
 20
-5.9375
 30
0.0
 11
-8.9905779241
 21
-5.625
 31
0.0
  0
LINE
  5
1AC
330
1F
100
AcDbEntity
  8
0
  6
Continuous
 62
     7
370
    15
100
AcDbLine
 10
-8.7405779241
 20
-6.1875
 30
0.0
 11
-8.2749352484
 21
-6.1875
 31
0.0
  0
LINE
  5
1AD
330
1F
100
AcDbEntity
  8
0
  6
Continuous
 62
     7
370
    15
100
AcDbLine
 10
7.7081170043
 20
-4.5
 30
0.0
 11
7.7081170043
 21
4.133674524
 31
0.0
  0
LINE
  5
1AE
330
1F
100
AcDbEntity
  8
0
  6
Continuous
 62
     7
370
    15
100
AcDbLine
 10
4.1971561628
 20
-6.5
 30
0.0
 11
5.7081170043
 21
-6.5
 31
0.0
  0
LINE
  5
1AF
330
1F
100
AcDbEntity
  8
0
  6
Continuous
 62
     7
370
    15
100
AcDbLine
 10
3.599931258
 20
-6.3020738203
 30
0.0
 11
-0.0696580909
 21
-3.5696942137
 31
0.0
  0
LINE
  5
1B0
330
1F
100
AcDbEntity
  8
0
  6
Continuous
 62
     7
370
    15
100
AcDbLine
 10
-2.0768666841
 20
-4.174875152
 30
0.0
 11
-1.2641079004
 21
-3.5696942137
 31
0.0
  0
LINE
  5
1B1
330
1F
100
AcDbEntity
  8
0
  6
Continuous
 62
     7
370
    15
100
AcDbLine
 10
-4.9336972494
 20
-6.3020738203
 30
0.0
 11
-3.079741648
 21
-4.9216167732
 31
0.0
  0
LINE
  5
1B2
330
1F
100
AcDbEntity
  8
0
  6
Continuous
 62
     7
370
    15
100
AcDbLine
 10
-8.9542726294
 20
-6.5
 30
0.0
 11
-5.5309221542
 21
-6.5
 31
0.0
  0
LINE
  5
1B3
330
1F
100
AcDbEntity
  8
0
  6
Continuous
 62
     7
370
    15
100
AcDbLine
 10
7.3956170769
 20
-4.4999999863
 30
0.0
 11
7.3956170677
 21
-3.374999998
 31
0.0
  0
LINE
  5
1B4
330
1F
100
AcDbEntity
  8
0
  6
Continuous
 62
     7
370
    15
100
AcDbLine
 10
0.6107235626
 20
-3.125
 30
0.0
 11
7.1456170677
 21
-3.125
 31
0.0
  0
LINE
  5
1B5
330
1F
100
AcDbEntity
  8
0
  6
Continuous
 62
     7
370
    15
100
AcDbLine
 10
0.4614173364
 20
-3.5755184551
 30
0.0
 11
3.7034968171
 21
-5.9895738203
 31
0.0
  0
LINE
  5
1B6
330
1F
100
AcDbEntity
  8
0
  6
Continuous
 62
     7
370
    15
100
AcDbLine
 10
4.3007217219
 20
-6.1875
 30
0.0
 11
5.42375968
 21
-6.1875
 31
0.0
  0
LINE
  5
1B7
330
1F
100
AcDbEntity
  8
0
  6
Continuous
 62
     7
370
    15
100
AcDbLine
 10
6.4458670043
 20
0.4255362621
 30
0.0
 11
6.4458670043
 21
-0.4255362621
 31
0.0
  0
LINE
  5
1B8
330
1F
100
AcDbEntity
  8
0
  6
Continuous
 62
     7
370
    15
100
AcDbLine
 10
6.7200807423
 20
-0.69975
 30
0.0
 11
7.0711532664
 21
-0.69975
 31
0.0
  0
LINE
  5
1B9
330
1F
100
AcDbEntity
  8
0
  6
Continuous
 62
     7
370
    15
100
AcDbLine
 10
7.3956170439
 20
-0.4328064438
 30
0.0
 11
7.3956170368
 21
0.4328064421
 31
0.0
  0
LINE
  5
1BA
330
1F
100
AcDbEntity
  8
0
  6
Continuous
 62
     7
370
    15
100
AcDbLine
 10
6.7200807423
 20
0.69975
 30
0.0
 11
7.0711532664
 21
0.69975
 31
0.0
  0
LINE
  5
1BB
330
1F
100
AcDbEntity
  8
0
  6
Continuous
 62
     7
370
    15
100
AcDbLine
 10
-0.5106329957
 20
3.4859406376
 30
0.0
 11
-0.5106329957
 21
-2.1734406376
 31
0.0
  0
LINE
  5
1BC
330
1F
100
AcDbEntity
  8
0
  6
Continuous
 62
     7
370
    15
100
AcDbLine
 10
0.3071170043
 20
-2.5625
 30
0.0
 11
0.3071170043
 21
-2.6159740919
 31
0.0
  0
LINE
  5
1BD
330
1F
100
AcDbEntity
  8
0
  6
Continuous
 62
     7
370
    15
100
AcDbLine
 10
0.8591170043
 20
-2.5625
 30
0.0
 11
0.8591170043
 21
-2.625
 31
0.0
  0
LINE
  5
1BE
330
1F
100
AcDbEntity
  8
0
  6
Continuous
 62
     7
370
    15
100
AcDbLine
 10
5.3071170043
 20
-2.875
 30
0.0
 11
1.1091170043
 21
-2.875
 31
0.0
  0
LINE
  5
1BF
330
1F
100
AcDbEntity
  8
0
  6
Continuous
 62
     7
370
    15
100
AcDbLine
 10
5.5571170043
 20
-2.5625
 30
0.0
 11
5.5571170043
 21
-2.625
 31
0.0
  0
LINE
  5
1C0
330
1F
100
AcDbEntity
  8
0
  6
Continuous
 62
     7
370
    15
100
AcDbLine
 10
6.1091170043
 20
-2.5625
 30
0.0
 11
6.1091170043
 21
-2.625
 31
0.0
  0
LINE
  5
1C1
330
1F
100
AcDbEntity
  8
0
  6
Continuous
 62
     7
370
    15
100
AcDbLine
 10
6.5206170043
 20
-2.875
 30
0.0
 11
6.3591170043
 21
-2.875
 31
0.0
  0
LINE
  5
1C2
330
1F
100
AcDbEntity
  8
0
  6
Continuous
 62
     7
370
    15
100
AcDbLine
 10
6.7706170043
 20
-2.5625
 30
0.0
 11
6.7706170043
 21
-2.625
 31
0.0
  0
LINE
  5
1C3
330
1F
100
AcDbEntity
  8
0
  6
Continuous
 62
     7
370
    15
100
AcDbLine
 10
7.0831170043
 20
-2.25
 30
0.0
 11
7.1456170566
 21
-2.25
 31
0.0
  0
LINE
  5
1C4
330
1F
100
AcDbEntity
  8
0
  6
Continuous
 62
     7
370
    15
100
AcDbLine
 10
7.3956170566
 20
-1.999999998
 30
0.0
 11
7.3956170521
 21
-1.4497499959
 31
0.0
  0
LINE
  5
1C5
330
1F
100
AcDbEntity
  8
0
  6
Continuous
 62
     7
370
    15
100
AcDbLine
 10
6.4581170043
 20
-0.94975
 30
0.0
 11
6.8956170521
 21
-0.94975
 31
0.0
  0
LINE
  5
1C6
330
1F
100
AcDbEntity
  8
0
  6
Continuous
 62
     7
370
    15
100
AcDbLine
 10
6.1958670043
 20
0.6875
 30
0.0
 11
6.1958670043
 21
-0.6875
 31
0.0
  0
LINE
  5
1C7
330
1F
100
AcDbEntity
  8
0
  6
Continuous
 62
     7
370
    15
100
AcDbLine
 10
6.4581170197
 20
0.94975
 30
0.0
 11
6.8956170286
 21
0.94975
 31
0.0
  0
LINE
  5
1C8
330
1F
100
AcDbEntity
  8
0
  6
Continuous
 62
     7
370
    15
100
AcDbLine
 10
7.3956170286
 20
1.4497500041
 30
0.0
 11
7.3956170134
 21
3.312500002
 31
0.0
  0
LINE
  5
1C9
330
1F
100
AcDbEntity
  8
0
  6
Continuous
 62
     7
370
    15
100
AcDbLine
 10
7.0831170043
 20
3.5625
 30
0.0
 11
7.1456170134
 21
3.5625
 31
0.0
  0
LINE
  5
1CA
330
1F
100
AcDbEntity
  8
0
  6
Continuous
 62
     7
370
    15
100
AcDbLine
 10
6.7706170043
 20
4.1875
 30
0.0
 11
6.7706170043
 21
3.875
 31
0.0
  0
LINE
  5
1CB
330
1F
100
AcDbEntity
  8
0
  6
Continuous
 62
     7
370
    15
100
AcDbLine
 10
3.5761343101
 20
4.4375
 30
0.0
 11
6.5206170043
 21
4.4375
 31
0.0
  0
LINE
  5
1CC
330
1F
100
AcDbEntity
  8
0
  6
Continuous
 62
     7
370
    15
100
AcDbLine
 10
3.0120413182
 20
3.8825914341
 30
0.0
 11
2.6380255702
 21
3.5085756861
 31
0.0
  0
LINE
  5
1CD
330
1F
100
AcDbEntity
  8
0
  6
Continuous
 62
     7
370
    15
100
AcDbLine
 10
2.2782084384
 20
3.5085756861
 30
0.0
 11
1.9056354957
 21
3.8811486288
 31
0.0
  0
LINE
  5
1CE
330
1F
100
AcDbEntity
  8
0
  6
Continuous
 62
     7
370
    15
100
AcDbLine
 10
1.9056354957
 20
3.8811486288
 30
0.0
 11
1.5256762222
 21
4.2491109783
 31
0.0
  0
LINE
  5
1CF
330
1F
100
AcDbEntity
  8
0
  6
Continuous
 62
     7
370
    15
100
AcDbLine
 10
-0.1043829957
 20
4.4375
 30
0.0
 11
1.2610151563
 21
4.4375
 31
0.0
  0
LINE
  5
1D0
330
1F
100
AcDbEntity
  8
0
  6
Continuous
 62
     7
370
    15
100
AcDbLine
 10
-0.3543829957
 20
3.875
 30
0.0
 11
-0.3543829957
 21
4.1875
 31
0.0
  0
LINE
  5
1D1
330
1F
100
AcDbEntity
  8
0
  6
Continuous
 62
     7
370
    15
100
AcDbLine
 10
-5.3291150859
 20
-2.875
 30
0.0
 11
-3.1903279241
 21
-2.875
 31
0.0
  0
LINE
  5
1D2
330
1F
100
AcDbEntity
  8
0
  6
Continuous
 62
     7
370
    15
100
AcDbLine
 10
-2.6903279241
 20
-2.25
 30
0.0
 11
-2.6903279241
 21
-2.375
 31
0.0
  0
LINE
  5
1D3
330
1F
100
AcDbEntity
  8
0
  6
Continuous
 62
     7
370
    15
100
AcDbLine
 10
-2.1658279241
 20
-2.25
 30
0.0
 11
-2.1658279241
 21
-2.375
 31
0.0
  0
LINE
  5
1D4
330
1F
100
AcDbEntity
  8
0
  6
Continuous
 62
     7
370
    15
100
AcDbLine
 10
-1.6658279241
 20
-2.875
 30
0.0
 11
-1.4574524107
 21
-2.875
 31
0.0
  0
LINE
  5
1D5
330
1F
100
AcDbEntity
  8
0
  6
Continuous
 62
     7
370
    15
100
AcDbLine
 10
-0.8231329957
 20
2.5407142611
 30
0.0
 11
-0.8231329957
 21
-2.1734406376
 31
0.0
  0
LINE
  5
1D6
330
1F
100
AcDbEntity
  8
0
  6
Continuous
 62
     7
370
    15
100
AcDbLine
 10
-1.2322164441
 20
2.7907142611
 30
0.0
 11
-1.0731329957
 21
2.7907142611
 31
0.0
  0
LINE
  5
1D7
330
1F
100
AcDbEntity
  8
0
  6
Continuous
 62
     7
370
    15
100
AcDbLine
 10
-1.2322164441
 20
3.3152142611
 30
0.0
 11
-1.0731329957
 21
3.3152142611
 31
0.0
  0
LINE
  5
1D8
330
1F
100
AcDbEntity
  8
0
  6
Continuous
 62
     7
370
    15
100
AcDbLine
 10
-0.9793829957
 20
4.1875
 30
0.0
 11
-0.9793829957
 21
3.875
 31
0.0
  0
LINE
  5
1D9
330
1F
100
AcDbEntity
  8
0
  6
Continuous
 62
     7
370
    15
100
AcDbLine
 10
-2.9403607674
 20
4.4375
 30
0.0
 11
-1.2293829957
 21
4.4375
 31
0.0
  0
LINE
  5
1DA
330
1F
100
AcDbEntity
  8
0
  6
Continuous
 62
     7
370
    15
100
AcDbLine
 10
-3.5067468815
 20
3.7064904736
 30
0.0
 11
-3.1568671183
 21
4.3125
 31
0.0
  0
LINE
  5
1DB
330
1F
100
AcDbEntity
  8
0
  6
Continuous
 62
     7
370
    15
100
AcDbLine
 10
-5.7719952719
 20
0.1579651698
 30
0.0
 11
-3.8787580176
 21
3.4371482849
 31
0.0
  0
LINE
  5
1DC
330
1F
100
AcDbEntity
  8
0
  6
Continuous
 62
     7
370
    15
100
AcDbLine
 10
-6.0397070064
 20
-0.6807251561
 30
0.0
 11
-5.8192468815
 21
-0.2988770189
 31
0.0
  0
LINE
  5
1DD
330
1F
100
AcDbEntity
  8
0
  6
Continuous
 62
     7
370
    15
100
AcDbLine
 10
-6.425256408
 20
-0.9735163086
 30
0.0
 11
-6.6570531253
 21
-1.375
 31
0.0
  0
LINE
  5
1DE
330
1F
100
AcDbEntity
  8
0
  6
Continuous
 62
     7
370
    15
100
AcDbLine
 10
-6.3322935989
 20
-1.9375
 30
0.0
 11
-5.8940930152
 21
-1.9375
 31
0.0
  0
LINE
  5
1DF
330
1F
100
AcDbEntity
  8
0
  6
Continuous
 62
     7
370
    15
100
AcDbLine
 10
-5.8377952538
 20
-1.9439213432
 30
0.0
 11
-5.6190215724
 21
-1.994485989
 31
0.0
  0
LINE
  5
1E0
330
1F
100
AcDbEntity
  8
0
  6
Continuous
 62
     7
370
    15
100
AcDbLine
 10
-1.7951833278
 20
-3.5755184551
 30
0.0
 11
-5.0372628085
 21
-5.9895738203
 31
0.0
  0
LINE
  5
1E1
330
1F
100
AcDbEntity
  8
0
  6
Continuous
 62
     7
370
    15
100
AcDbLine
 10
-1.944489554
 20
-3.125
 30
0.0
 11
-5.8030779241
 21
-3.125
 31
0.0
  0
LINE
  5
1E2
330
1F
100
AcDbEntity
  8
0
  6
Continuous
 62
     7
370
    15
100
AcDbLine
 10
-6.0530779241
 20
-3.375
 30
0.0
 11
-6.0530779241
 21
-4.11275
 31
0.0
  0
LINE
  5
1E3
330
1F
100
AcDbEntity
  8
0
  6
Continuous
 62
     7
370
    15
100
AcDbLine
 10
-5.6780779241
 20
-5.01225
 30
0.0
 11
-5.8655779241
 21
-5.01225
 31
0.0
  0
LINE
  5
1E4
330
1F
100
AcDbEntity
  8
0
  6
Continuous
 62
     7
370
    15
100
AcDbLine
 10
-6.0530779241
 20
-5.19975
 30
0.0
 11
-6.0530779241
 21
-5.2057372542
 31
0.0
  0
LINE
  5
1E5
330
1F
100
AcDbEntity
  8
0
  6
Continuous
 62
     7
370
    15
100
AcDbLine
 10
-5.8655779241
 20
-5.9372615754
 30
0.0
 11
-5.8655779241
 21
-5.625
 31
0.0
  0
LINE
  5
1E6
330
1F
100
AcDbEntity
  8
0
  6
Continuous
 62
     7
370
    15
100
AcDbLine
 10
-5.9885016228
 20
0.2829651698
 30
0.0
 11
-4.0952643686
 21
3.5621482849
 31
0.0
  0
LINE
  5
1E7
330
1F
100
AcDbEntity
  8
0
  6
Continuous
 62
     7
370
    15
100
AcDbLine
 10
-4.0228925221
 20
4.0625
 30
0.0
 11
-4.0480127589
 21
4.0189904736
 31
0.0
  0
LINE
  5
1E8
330
1F
100
AcDbEntity
  8
0
  6
Continuous
 62
     7
370
    15
100
AcDbLine
 10
-4.9238656899
 20
4.4375
 30
0.0
 11
-4.2393988731
 21
4.4375
 31
0.0
  0
LINE
  5
1E9
330
1F
100
AcDbEntity
  8
0
  6
Continuous
 62
     7
370
    15
100
AcDbLine
 10
-5.4879586818
 20
3.8825914341
 30
0.0
 11
-5.8619744298
 21
3.5085756861
 31
0.0
  0
LINE
  5
1EA
330
1F
100
AcDbEntity
  8
0
  6
Continuous
 62
     7
370
    15
100
AcDbLine
 10
-6.2217915616
 20
3.5085756861
 30
0.0
 11
-6.5958073096
 21
3.8825914341
 31
0.0
  0
LINE
  5
1EB
330
1F
100
AcDbEntity
  8
0
  6
Continuous
 62
     7
370
    15
100
AcDbLine
 10
-7.5644897973
 20
4.4375
 30
0.0
 11
-7.1599003015
 21
4.4375
 31
0.0
  0
LINE
  5
1EC
330
1F
100
AcDbEntity
  8
0
  6
Continuous
 62
     7
370
    15
100
AcDbLine
 10
-10.1213690098
 20
0.9409754836
 30
0.0
 11
-10.1091529125
 21
0.9409754836
 31
0.0
  0
LINE
  5
1ED
330
1F
100
AcDbEntity
  8
0
  6
Continuous
 62
     7
370
    15
100
AcDbLine
 10
-9.7796329957
 20
0.6875
 30
0.0
 11
-9.7796329957
 21
-0.6875
 31
0.0
  0
LINE
  5
1EE
330
1F
100
AcDbEntity
  8
0
  6
Continuous
 62
     7
370
    15
100
AcDbLine
 10
-10.0418829957
 20
-0.94975
 30
0.0
 11
-10.1169612857
 21
-0.94975
 31
0.0
  0
LINE
  5
1EF
330
1F
100
AcDbEntity
  8
0
  6
Continuous
 62
     7
370
    15
100
AcDbLine
 10
-10.4981615664
 20
-1.8014053254
 30
0.0
 11
-10.5368860665
 21
-1.7265036219
 31
0.0
  0
LINE
  5
1F0
330
1F
100
AcDbEntity
  8
0
  6
Continuous
 62
     7
370
    15
100
AcDbLine
 10
-7.5591629209
 20
-1.9375
 30
0.0
 11
-10.2756181396
 21
-1.9375
 31
0.0
  0
LINE
  5
1F1
330
1F
100
AcDbEntity
  8
0
  6
Continuous
 62
     7
370
    15
100
AcDbLine
 10
-6.6417627589
 20
-0.8485163086
 30
0.0
 11
-7.126150219
 21
-1.6875
 31
0.0
  0
LINE
  5
1F2
330
1F
100
AcDbEntity
  8
0
  6
Continuous
 62
     7
370
    15
100
AcDbLine
 10
-6.3605127589
 20
0.0136229811
 30
0.0
 11
-6.5809728837
 21
-0.3682251561
 31
0.0
  0
LINE
  5
1F3
330
1F
100
AcDbEntity
  8
0
  6
Continuous
 62
     7
370
    15
100
AcDbLine
 10
-10.6549192577
 20
-0.69975
 30
0.0
 11
-10.3038467336
 21
-0.69975
 31
0.0
  0
LINE
  5
1F4
330
1F
100
AcDbEntity
  8
0
  6
Continuous
 62
     7
370
    15
100
AcDbLine
 10
-10.0296329957
 20
-0.4255362621
 30
0.0
 11
-10.0296329957
 21
0.4255362621
 31
0.0
  0
LINE
  5
1F5
330
1F
100
AcDbEntity
  8
0
  6
Continuous
 62
     7
370
    15
100
AcDbLine
 10
-10.3041099652
 20
0.6909754836
 30
0.0
 11
-10.6546560262
 21
0.6909754836
 31
0.0
  0
LINE
  5
1F6
330
1F
100
AcDbEntity
  8
0
  6
Continuous
 62
     7
370
    15
100
AcDbLine
 10
-3.5130483817
 20
5.5465965158
 30
0.0
 11
-3.5130483817
 21
5.125
 31
0.0
  0
LINE
  5
1F7
330
1F
100
AcDbEntity
  8
0
  6
Continuous
 62
     7
370
    15
100
AcDbLine
 10
-3.1380483817
 20
4.75
 30
0.0
 11
1.888027809
 21
4.75
 31
0.0
  0
LINE
  5
1F8
330
1F
100
AcDbEntity
  8
0
  6
Continuous
 62
     7
370
    15
100
AcDbLine
 10
2.263027809
 20
5.717592424
 30
0.0
 11
2.263027809
 21
5.125
 31
0.0
  0
LINE
  5
1F9
330
1F
100
AcDbEntity
  8
0
  6
Continuous
 62
     7
370
    15
100
AcDbLine
 10
-6.4202314987
 20
4.75
 30
0.0
 11
-4.1380483817
 21
4.75
 31
0.0
  0
LINE
  5
1FA
330
1F
100
AcDbEntity
  8
0
  6
Continuous
 62
     7
370
    15
100
AcDbLine
 10
-3.7630483817
 20
5.125
 30
0.0
 11
-3.7630483817
 21
5.3420992254
 31
0.0
  0
LINE
  5
1FB
330
1F
100
AcDbEntity
  8
0
  6
Continuous
 62
     7
370
    15
100
AcDbLine
 10
2.513027809
 20
5.5880676525
 30
0.0
 11
2.513027809
 21
5.125
 31
0.0
  0
LINE
  5
1FC
330
1F
100
AcDbEntity
  8
0
  6
Continuous
 62
     7
370
    15
100
AcDbLine
 10
2.888027809
 20
4.75
 30
0.0
 11
6.4202525373
 21
4.75
 31
0.0
  0
LINE
  5
1FD
330
1F
100
AcDbEntity
  8
0
  6
Continuous
 62
     7
370
    15
100
AcDbLine
 10
6.9581170043
 20
-2.9375
 30
0.0
 11
7.2081170043
 21
-2.9375
 31
0.0
  0
LINE
  5
1FE
330
1F
100
AcDbEntity
  8
0
  6
Continuous
 62
     7
370
    15
100
AcDbLine
 10
7.2081170043
 20
-2.9375
 30
0.0
 11
7.2081170043
 21
-2.75
 31
0.0
  0
LINE
  5
1FF
330
1F
100
AcDbEntity
  8
0
  6
Continuous
 62
     7
370
    15
100
AcDbLine
 10
7.2081170043
 20
-2.75
 30
0.0
 11
6.9581170043
 21
-2.75
 31
0.0
  0
LINE
  5
200
330
1F
100
AcDbEntity
  8
0
  6
Continuous
 62
     7
370
    15
100
AcDbLine
 10
6.9581170043
 20
-2.75
 30
0.0
 11
6.9581170043
 21
-2.9375
 31
0.0
  0
LINE
  5
201
330
1F
100
AcDbEntity
  8
0
  6
Continuous
 62
     7
370
    15
100
AcDbLine
 10
6.9581170043
 20
4.0625
 30
0.0
 11
7.2081170043
 21
4.0625
 31
0.0
  0
LINE
  5
202
330
1F
100
AcDbEntity
  8
0
  6
Continuous
 62
     7
370
    15
100
AcDbLine
 10
7.2081170043
 20
4.0625
 30
0.0
 11
7.2081170043
 21
4.25
 31
0.0
  0
LINE
  5
203
330
1F
100
AcDbEntity
  8
0
  6
Continuous
 62
     7
370
    15
100
AcDbLine
 10
7.2081170043
 20
4.25
 30
0.0
 11
6.9581170043
 21
4.25
 31
0.0
  0
LINE
  5
204
330
1F
100
AcDbEntity
  8
0
  6
Continuous
 62
     7
370
    15
100
AcDbLine
 10
6.9581170043
 20
4.25
 30
0.0
 11
6.9581170043
 21
4.0625
 31
0.0
  0
LINE
  5
205
330
1F
100
AcDbEntity
  8
0
  6
Continuous
 62
     7
370
    15
100
AcDbLine
 10
-0.7918829957
 20
4.0625
 30
0.0
 11
-0.5418829957
 21
4.0625
 31
0.0
  0
LINE
  5
206
330
1F
100
AcDbEntity
  8
0
  6
Continuous
 62
     7
370
    15
100
AcDbLine
 10
-0.5418829957
 20
4.0625
 30
0.0
 11
-0.5418829957
 21
4.25
 31
0.0
  0
LINE
  5
207
330
1F
100
AcDbEntity
  8
0
  6
Continuous
 62
     7
370
    15
100
AcDbLine
 10
-0.5418829957
 20
4.25
 30
0.0
 11
-0.7918829957
 21
4.25
 31
0.0
  0
LINE
  5
208
330
1F
100
AcDbEntity
  8
0
  6
Continuous
 62
     7
370
    15
100
AcDbLine
 10
-0.7918829957
 20
4.25
 30
0.0
 11
-0.7918829957
 21
4.0625
 31
0.0
  0
LINE
  5
209
330
1F
100
AcDbEntity
  8
0
  6
Continuous
 62
     7
370
    15
100
AcDbLine
 10
-6.1691266448
 20
-0.5298865453
 30
0.0
 11
-6.0753766448
 21
-0.3675067821
 31
0.0
  0
LINE
  5
20A
330
1F
100
AcDbEntity
  8
0
  6
Continuous
 62
     7
370
    15
100
AcDbLine
 10
-6.0753766448
 20
-0.3675067821
 30
0.0
 11
-6.2918829957
 21
-0.2425067821
 31
0.0
  0
LINE
  5
20B
330
1F
100
AcDbEntity
  8
0
  6
Continuous
 62
     7
370
    15
100
AcDbLine
 10
-6.2918829957
 20
-0.2425067821
 30
0.0
 11
-6.3856329957
 21
-0.4048865453
 31
0.0
  0
LINE
  5
20C
330
1F
100
AcDbEntity
  8
0
  6
Continuous
 62
     7
370
    15
100
AcDbLine
 10
-6.3856329957
 20
-0.4048865453
 30
0.0
 11
-6.1691266448
 21
-0.5298865453
 31
0.0
  0
LINE
  5
20D
330
1F
100
AcDbEntity
  8
0
  6
Continuous
 62
     7
370
    15
100
AcDbLine
 10
-0.7918829957
 20
-2.9375
 30
0.0
 11
-0.5418829957
 21
-2.9375
 31
0.0
  0
LINE
  5
20E
330
1F
100
AcDbEntity
  8
0
  6
Continuous
 62
     7
370
    15
100
AcDbLine
 10
-0.5418829957
 20
-2.9375
 30
0.0
 11
-0.5418829957
 21
-2.75
 31
0.0
  0
LINE
  5
20F
330
1F
100
AcDbEntity
  8
0
  6
Continuous
 62
     7
370
    15
100
AcDbLine
 10
-0.5418829957
 20
-2.75
 30
0.0
 11
-0.7918829957
 21
-2.75
 31
0.0
  0
LINE
  5
210
330
1F
100
AcDbEntity
  8
0
  6
Continuous
 62
     7
370
    15
100
AcDbLine
 10
-0.7918829957
 20
-2.75
 30
0.0
 11
-0.7918829957
 21
-2.9375
 31
0.0
  0
LINE
  5
211
330
1F
100
AcDbEntity
  8
0
  6
Continuous
 62
     7
370
    15
100
AcDbLine
 10
-3.7918829957
 20
4.0876202368
 30
0.0
 11
-3.5753766448
 21
3.9626202368
 31
0.0
  0
LINE
  5
212
330
1F
100
AcDbEntity
  8
0
  6
Continuous
 62
     7
370
    15
100
AcDbLine
 10
-3.5753766448
 20
3.9626202368
 30
0.0
 11
-3.4816266448
 21
4.125
 31
0.0
  0
LINE
  5
213
330
1F
100
AcDbEntity
  8
0
  6
Continuous
 62
     7
370
    15
100
AcDbLine
 10
-3.4816266448
 20
4.125
 30
0.0
 11
-3.6981329957
 21
4.25
 31
0.0
  0
LINE
  5
214
330
1F
100
AcDbEntity
  8
0
  6
Continuous
 62
     7
370
    15
100
AcDbLine
 10
-3.6981329957
 20
4.25
 30
0.0
 11
-3.7918829957
 21
4.0876202368
 31
0.0
  0
LINE
  5
215
330
1F
100
AcDbEntity
  8
0
  6
Continuous
 62
     7
370
    15
100
AcDbLine
 10
-9.4280779241
 20
-6.0
 30
0.0
 11
-9.1780779241
 21
-6.0
 31
0.0
  0
LINE
  5
216
330
1F
100
AcDbEntity
  8
0
  6
Continuous
 62
     7
370
    15
100
AcDbLine
 10
-9.1780779241
 20
-6.0
 30
0.0
 11
-9.1780779241
 21
-5.8125
 31
0.0
  0
LINE
  5
217
330
1F
100
AcDbEntity
  8
0
  6
Continuous
 62
     7
370
    15
100
AcDbLine
 10
-9.1780779241
 20
-5.8125
 30
0.0
 11
-9.4280779241
 21
-5.8125
 31
0.0
  0
LINE
  5
218
330
1F
100
AcDbEntity
  8
0
  6
Continuous
 62
     7
370
    15
100
AcDbLine
 10
-9.4280779241
 20
-5.8125
 30
0.0
 11
-9.4280779241
 21
-6.0
 31
0.0
  0
LINE
  5
219
330
1F
100
AcDbEntity
  8
0
  6
Continuous
 62
     7
370
    15
100
AcDbLine
 10
-9.4280779241
 20
-2.3125
 30
0.0
 11
-9.1780779241
 21
-2.3125
 31
0.0
  0
LINE
  5
21A
330
1F
100
AcDbEntity
  8
0
  6
Continuous
 62
     7
370
    15
100
AcDbLine
 10
-9.1780779241
 20
-2.3125
 30
0.0
 11
-9.1780779241
 21
-2.125
 31
0.0
  0
LINE
  5
21B
330
1F
100
AcDbEntity
  8
0
  6
Continuous
 62
     7
370
    15
100
AcDbLine
 10
-9.1780779241
 20
-2.125
 30
0.0
 11
-9.4280779241
 21
-2.125
 31
0.0
  0
LINE
  5
21C
330
1F
100
AcDbEntity
  8
0
  6
Continuous
 62
     7
370
    15
100
AcDbLine
 10
-9.4280779241
 20
-2.125
 30
0.0
 11
-9.4280779241
 21
-2.3125
 31
0.0
  0
LINE
  5
21D
330
1F
100
AcDbEntity
  8
0
  6
Continuous
 62
     7
370
    15
100
AcDbLine
 10
-6.0530779241
 20
-2.3125
 30
0.0
 11
-6.0530779241
 21
-2.125
 31
0.0
  0
LINE
  5
21E
330
1F
100
AcDbEntity
  8
0
  6
Continuous
 62
     7
370
    15
100
AcDbLine
 10
-6.0530779241
 20
-2.125
 30
0.0
 11
-6.3030779241
 21
-2.125
 31
0.0
  0
LINE
  5
21F
330
1F
100
AcDbEntity
  8
0
  6
Continuous
 62
     7
370
    15
100
AcDbLine
 10
-6.3030779241
 20
-2.125
 30
0.0
 11
-6.3030779241
 21
-2.3125
 31
0.0
  0
LINE
  5
220
330
1F
100
AcDbEntity
  8
0
  6
Continuous
 62
     7
370
    15
100
AcDbLine
 10
-6.3030779241
 20
-2.3125
 30
0.0
 11
-6.0530779241
 21
-2.3125
 31
0.0
  0
LINE
  5
221
330
1F
100
AcDbEntity
  8
0
  6
Continuous
 62
     7
370
    15
100
AcDbLine
 10
-6.0530779241
 20
-6.0
 30
0.0
 11
-6.0530779241
 21
-5.8125
 31
0.0
  0
LINE
  5
222
330
1F
100
AcDbEntity
  8
0
  6
Continuous
 62
     7
370
    15
100
AcDbLine
 10
-6.0530779241
 20
-5.8125
 30
0.0
 11
-6.3030779241
 21
-5.8125
 31
0.0
  0
LINE
  5
223
330
1F
100
AcDbEntity
  8
0
  6
Continuous
 62
     7
370
    15
100
AcDbLine
 10
-6.3030779241
 20
-5.8125
 30
0.0
 11
-6.3030779241
 21
-6.0
 31
0.0
  0
LINE
  5
224
330
1F
100
AcDbEntity
  8
0
  6
Continuous
 62
     7
370
    15
100
AcDbLine
 10
-6.3030779241
 20
-6.0
 30
0.0
 11
-6.0530779241
 21
-6.0
 31
0.0
  0
ARC
  5
225
330
1F
100
AcDbEntity
  8
0
  6
Continuous
 62
     7
370
    15
100
AcDbCircle
 10
-8.2749352484
 20
-5.9375
 30
0.0
 40
0.2499999999999982
100
AcDbArc
 50
270.0
 51
353.3288286497
  0
ARC
  5
226
330
1F
100
AcDbEntity
  8
0
  6
Continuous
 62
     7
370
    15
100
AcDbCircle
 10
-7.7405779241
 20
-6.0
 30
0.0
 40
0.2879999999999998
100
AcDbArc
 50
6.6711713503
 51
173.3288286497
  0
ARC
  5
227
330
1F
100
AcDbEntity
  8
0
  6
Continuous
 62
     7
370
    15
100
AcDbCircle
 10
-7.2062205999
 20
-5.9375
 30
0.0
 40
0.2499999999999993
100
AcDbArc
 50
186.6711713503
 51
270.0
  0
ARC
  5
228
330
1F
100
AcDbEntity
  8
0
  6
Continuous
 62
     7
370
    15
100
AcDbCircle
 10
-6.7405779241
 20
-5.9375
 30
0.0
 40
0.2500000000000009
100
AcDbArc
 50
270.0
 51
0.0
  0
ARC
  5
229
330
1F
100
AcDbEntity
  8
0
  6
Continuous
 62
     7
370
    15
100
AcDbCircle
 10
-6.1780779241
 20
-5.625
 30
0.0
 40
0.312499999999993
100
AcDbArc
 50
131.8103148958
 51
180.0
  0
ARC
  5
22A
330
1F
100
AcDbEntity
  8
0
  6
Continuous
 62
     7
370
    15
100
AcDbCircle
 10
-6.5530779241
 20
-5.2057372542
 30
0.0
 40
0.2500000000000088
100
AcDbArc
 50
311.8103148958
 51
0.0
  0
ARC
  5
22B
330
1F
100
AcDbEntity
  8
0
  6
Continuous
 62
     7
370
    15
100
AcDbCircle
 10
-6.5530779241
 20
-2.9192627458
 30
0.0
 40
0.2500000000000027
100
AcDbArc
 50
0.0
 51
48.1896851042
  0
ARC
  5
22C
330
1F
100
AcDbEntity
  8
0
  6
Continuous
 62
     7
370
    15
100
AcDbCircle
 10
-6.1780779241
 20
-2.5
 30
0.0
 40
0.3124999999999929
100
AcDbArc
 50
180.0
 51
228.1896851042
  0
ARC
  5
22D
330
1F
100
AcDbEntity
  8
0
  6
Continuous
 62
     7
370
    15
100
AcDbCircle
 10
-6.7405779241
 20
-2.375
 30
0.0
 40
0.2499999999999996
100
AcDbArc
 50
0.0
 51
90.0
  0
ARC
  5
22E
330
1F
100
AcDbEntity
  8
0
  6
Continuous
 62
     7
370
    15
100
AcDbCircle
 10
-8.7405779241
 20
-2.375
 30
0.0
 40
0.2500000000000018
100
AcDbArc
 50
90.0
 51
180.0
  0
ARC
  5
22F
330
1F
100
AcDbEntity
  8
0
  6
Continuous
 62
     7
370
    15
100
AcDbCircle
 10
-9.3030779241
 20
-2.5
 30
0.0
 40
0.3125
100
AcDbArc
 50
180.0
 51
0.0
  0
ARC
  5
230
330
1F
100
AcDbEntity
  8
0
  6
Continuous
 62
     7
370
    15
100
AcDbCircle
 10
-9.8655779241
 20
-2.4375
 30
0.0
 40
0.2499999999999991
100
AcDbArc
 50
0.0
 51
90.0
  0
ARC
  5
231
330
1F
100
AcDbEntity
  8
0
  6
Continuous
 62
     7
370
    15
100
AcDbCircle
 10
-9.9280779241
 20
-2.4375
 30
0.0
 40
0.2500000000000006
100
AcDbArc
 50
90.0
 51
202.619864948
  0
ARC
  5
232
330
1F
100
AcDbEntity
  8
0
  6
Continuous
 62
     7
370
    15
100
AcDbCircle
 10
-19.6780779241
 20
-6.5
 30
0.0
 40
10.31250000000012
100
AcDbArc
 50
7.7820499796
 51
22.619864948
  0
ARC
  5
233
330
1F
100
AcDbEntity
  8
0
  6
Continuous
 62
     7
370
    15
100
AcDbCircle
 10
-9.2128552772
 20
-5.0697828137
 30
0.0
 40
0.2500000000000085
100
AcDbArc
 50
187.7820499796
 51
260.770128419
  0
ARC
  5
234
330
1F
100
AcDbEntity
  8
0
  6
Continuous
 62
     7
370
    15
100
AcDbCircle
 10
-9.3030779241
 20
-5.625
 30
0.0
 40
0.3125000000000018
100
AcDbArc
 50
0.0
 51
80.770128419
  0
ARC
  5
235
330
1F
100
AcDbEntity
  8
0
  6
Continuous
 62
     7
370
    15
100
AcDbCircle
 10
-8.7405779241
 20
-5.9375
 30
0.0
 40
0.2500000000000018
100
AcDbArc
 50
180.0
 51
270.0
  0
ARC
  5
236
330
1F
100
AcDbEntity
  8
0
  6
Continuous
 62
     7
370
    15
100
AcDbCircle
 10
6.7081170043
 20
4.133674524
 30
0.0
 40
0.9999999999999991
100
AcDbArc
 50
0.0
 51
64.8718247856
  0
ARC
  5
237
330
1F
100
AcDbEntity
  8
0
  6
Continuous
 62
     7
370
    15
100
AcDbCircle
 10
5.7081170043
 20
-4.5
 30
0.0
 40
2.000000000000001
100
AcDbArc
 50
270.0
 51
0.0
  0
ARC
  5
238
330
1F
100
AcDbEntity
  8
0
  6
Continuous
 62
     7
370
    15
100
AcDbCircle
 10
4.1971561628
 20
-5.5
 30
0.0
 40
1.000000000000003
100
AcDbArc
 50
233.3285964366
 51
270.0
  0
ARC
  5
239
330
1F
100
AcDbEntity
  8
0
  6
Continuous
 62
     7
370
    15
100
AcDbCircle
 10
-0.6668829957
 20
-4.371768034
 30
0.0
 40
0.999999999999996
100
AcDbArc
 50
53.3285964366
 51
126.6714035634
  0
ARC
  5
23A
330
1F
100
AcDbEntity
  8
0
  6
Continuous
 62
     7
370
    15
100
AcDbCircle
 10
-1.8529073448
 20
-4.4756528346
 30
0.0
 40
0.3749999999999979
100
AcDbArc
 50
126.6714035634
 51
205.5003953653
  0
ARC
  5
23B
330
1F
100
AcDbEntity
  8
0
  6
Continuous
 62
     7
370
    15
100
AcDbCircle
 10
-2.4280779241
 20
-4.75
 30
0.0
 40
0.2622499999999991
100
AcDbArc
 50
227.8424117615
 51
25.5003953653
  0
ARC
  5
23C
330
1F
100
AcDbEntity
  8
0
  6
Continuous
 62
     7
370
    15
100
AcDbCircle
 10
-2.8557823088
 20
-5.2223944558
 30
0.0
 40
0.3749999999999997
100
AcDbArc
 50
47.8424117615
 51
126.6714035634
  0
ARC
  5
23D
330
1F
100
AcDbEntity
  8
0
  6
Continuous
 62
     7
370
    15
100
AcDbCircle
 10
-5.5309221542
 20
-5.5
 30
0.0
 40
1.000000000000011
100
AcDbArc
 50
270.0
 51
306.6714035634
  0
ARC
  5
23E
330
1F
100
AcDbEntity
  8
0
  6
Continuous
 62
     7
370
    15
100
AcDbCircle
 10
-8.9542726294
 20
-5.75
 30
0.0
 40
0.7500000000000002
100
AcDbArc
 50
184.0006299616
 51
270.0
  0
ARC
  5
23F
330
1F
100
AcDbEntity
  8
0
  6
Continuous
 62
     7
370
    15
100
AcDbCircle
 10
-19.6780779241
 20
-6.5
 30
0.0
 40
10.00000000000008
100
AcDbArc
 50
4.0006299616
 51
27.5733960436
  0
ARC
  5
240
330
1F
100
AcDbEntity
  8
0
  6
Continuous
 62
     7
370
    15
100
AcDbCircle
 10
7.1456170677
 20
-3.375
 30
0.0
 40
0.2499999999999991
100
AcDbArc
 50
0.0000004653
 51
90.0
  0
ARC
  5
241
330
1F
100
AcDbEntity
  8
0
  6
Continuous
 62
     7
370
    15
100
AcDbCircle
 10
0.6107235626
 20
-3.375
 30
0.0
 40
0.2500000000000004
100
AcDbArc
 50
90.0
 51
233.3285964366
  0
ARC
  5
242
330
1F
100
AcDbEntity
  8
0
  6
Continuous
 62
     7
370
    15
100
AcDbCircle
 10
4.3007217219
 20
-5.1875
 30
0.0
 40
1.000000000000004
100
AcDbArc
 50
233.3285964366
 51
270.0
  0
ARC
  5
243
330
1F
100
AcDbEntity
  8
0
  6
Continuous
 62
     7
370
    15
100
AcDbCircle
 10
5.42375968
 20
-5.9375
 30
0.0
 40
0.2500000000000011
100
AcDbArc
 50
270.0
 51
353.3288286497
  0
ARC
  5
244
330
1F
100
AcDbEntity
  8
0
  6
Continuous
 62
     7
370
    15
100
AcDbCircle
 10
5.9581170043
 20
-6.0
 30
0.0
 40
0.2880000000000013
100
AcDbArc
 50
28.5668826005
 51
173.3288286497
  0
ARC
  5
245
330
1F
100
AcDbEntity
  8
0
  6
Continuous
 62
     7
370
    15
100
AcDbCircle
 10
6.4306206241
 20
-5.7427368481
 30
0.0
 40
0.2500000000000004
100
AcDbArc
 50
208.5668826005
 51
300.1729065637
  0
ARC
  5
246
330
1F
100
AcDbEntity
  8
0
  6
Continuous
 62
     7
370
    15
100
AcDbCircle
 10
5.7081168422
 20
-4.4999998648
 30
0.0
 40
1.687500234659599
100
AcDbArc
 50
300.1729090135
 51
359.9999958739
  0
ARC
  5
247
330
1F
100
AcDbEntity
  8
0
  6
Continuous
 62
     7
370
    15
100
AcDbCircle
 10
6.4581170043
 20
0.6875
 30
0.0
 40
0.2622499999999992
100
AcDbArc
 50
267.322673823
 51
2.677326177
  0
ARC
  5
248
330
1F
100
AcDbEntity
  8
0
  6
Continuous
 62
     7
370
    15
100
AcDbCircle
 10
6.4581170043
 20
-0.6875
 30
0.0
 40
0.2622500000000006
100
AcDbArc
 50
357.322673823
 51
92.677326177
  0
ARC
  5
249
330
1F
100
AcDbEntity
  8
0
  6
Continuous
 62
     7
370
    15
100
AcDbCircle
 10
7.3331170043
 20
-0.6875
 30
0.0
 40
0.2622499999999991
100
AcDbArc
 50
76.2124540319
 51
182.677326177
  0
ARC
  5
24A
330
1F
100
AcDbEntity
  8
0
  6
Continuous
 62
     7
370
    15
100
AcDbCircle
 10
7.3331170043
 20
0.6875
 30
0.0
 40
0.2622500000000023
100
AcDbArc
 50
177.322673823
 51
283.7875443867
  0
ARC
  5
24B
330
1F
100
AcDbEntity
  8
0
  6
Continuous
 62
     7
370
    15
100
AcDbCircle
 10
-0.6668829957
 20
3.875
 30
0.0
 40
0.3125000000000022
100
AcDbArc
 50
316.2382573073
 51
0.0
  0
ARC
  5
24C
330
1F
100
AcDbEntity
  8
0
  6
Continuous
 62
     7
370
    15
100
AcDbCircle
 10
-0.2606329957
 20
3.4859406376
 30
0.0
 40
0.2500000000000008
100
AcDbArc
 50
136.2382573073
 51
180.0
  0
ARC
  5
24D
330
1F
100
AcDbEntity
  8
0
  6
Continuous
 62
     7
370
    15
100
AcDbCircle
 10
-0.2606329957
 20
-2.1734406376
 30
0.0
 40
0.2500000000000024
100
AcDbArc
 50
180.0
 51
223.7617426927
  0
ARC
  5
24E
330
1F
100
AcDbEntity
  8
0
  6
Continuous
 62
     7
370
    15
100
AcDbCircle
 10
-0.6668829957
 20
-2.5625
 30
0.0
 40
0.3125000000000045
100
AcDbArc
 50
13.3423637971
 51
43.7617426927
  0
ARC
  5
24F
330
1F
100
AcDbEntity
  8
0
  6
Continuous
 62
     7
370
    15
100
AcDbCircle
 10
0.1236864193
 20
-2.375
 30
0.0
 40
0.4999999999999986
100
AcDbArc
 50
193.3423637971
 51
254.5571146007
  0
ARC
  5
250
330
1F
100
AcDbEntity
  8
0
  6
Continuous
 62
     7
370
    15
100
AcDbCircle
 10
0.0571170043
 20
-2.6159740919
 30
0.0
 40
0.2499999999999991
100
AcDbArc
 50
254.5571146007
 51
0.0
  0
ARC
  5
251
330
1F
100
AcDbEntity
  8
0
  6
Continuous
 62
     7
370
    15
100
AcDbCircle
 10
0.5831170043
 20
-2.5625
 30
0.0
 40
0.276
100
AcDbArc
 50
0.0
 51
180.0
  0
ARC
  5
252
330
1F
100
AcDbEntity
  8
0
  6
Continuous
 62
     7
370
    15
100
AcDbCircle
 10
1.1091170043
 20
-2.625
 30
0.0
 40
0.2500000000000009
100
AcDbArc
 50
180.0
 51
270.0
  0
ARC
  5
253
330
1F
100
AcDbEntity
  8
0
  6
Continuous
 62
     7
370
    15
100
AcDbCircle
 10
5.3071170043
 20
-2.625
 30
0.0
 40
0.2500000000000009
100
AcDbArc
 50
270.0
 51
0.0
  0
ARC
  5
254
330
1F
100
AcDbEntity
  8
0
  6
Continuous
 62
     7
370
    15
100
AcDbCircle
 10
5.8331170043
 20
-2.5625
 30
0.0
 40
0.2760000000000007
100
AcDbArc
 50
0.0
 51
180.0
  0
ARC
  5
255
330
1F
100
AcDbEntity
  8
0
  6
Continuous
 62
     7
370
    15
100
AcDbCircle
 10
6.3591170043
 20
-2.625
 30
0.0
 40
0.2500000000000009
100
AcDbArc
 50
180.0
 51
270.0
  0
ARC
  5
256
330
1F
100
AcDbEntity
  8
0
  6
Continuous
 62
     7
370
    15
100
AcDbCircle
 10
6.5206170043
 20
-2.625
 30
0.0
 40
0.2500000000000009
100
AcDbArc
 50
270.0
 51
0.0
  0
ARC
  5
257
330
1F
100
AcDbEntity
  8
0
  6
Continuous
 62
     7
370
    15
100
AcDbCircle
 10
7.0831170043
 20
-2.5625
 30
0.0
 40
0.3125000000000018
100
AcDbArc
 50
90.0
 51
180.0
  0
ARC
  5
258
330
1F
100
AcDbEntity
  8
0
  6
Continuous
 62
     7
370
    15
100
AcDbCircle
 10
7.1456170566
 20
-2.0
 30
0.0
 40
0.2500000000000002
100
AcDbArc
 50
270.0
 51
0.0000004653
  0
ARC
  5
259
330
1F
100
AcDbEntity
  8
0
  6
Continuous
 62
     7
370
    15
100
AcDbCircle
 10
6.8956170521
 20
-1.44975
 30
0.0
 40
0.4999999999999976
100
AcDbArc
 50
0.0000004653
 51
90.0
  0
ARC
  5
25A
330
1F
100
AcDbEntity
  8
0
  6
Continuous
 62
     7
370
    15
100
AcDbCircle
 10
6.4581170043
 20
-0.6875
 30
0.0
 40
0.2622500000000009
100
AcDbArc
 50
180.0
 51
270.0
  0
ARC
  5
25B
330
1F
100
AcDbEntity
  8
0
  6
Continuous
 62
     7
370
    15
100
AcDbCircle
 10
6.4581170043
 20
0.6875
 30
0.0
 40
0.262249999999999
100
AcDbArc
 50
89.9999966298
 51
180.0
  0
ARC
  5
25C
330
1F
100
AcDbEntity
  8
0
  6
Continuous
 62
     7
370
    15
100
AcDbCircle
 10
6.8956170286
 20
1.44975
 30
0.0
 40
0.5000000000000009
100
AcDbArc
 50
270.0
 51
0.0000004653
  0
ARC
  5
25D
330
1F
100
AcDbEntity
  8
0
  6
Continuous
 62
     7
370
    15
100
AcDbCircle
 10
7.1456170134
 20
3.3125
 30
0.0
 40
0.2500000000000009
100
AcDbArc
 50
0.0000004653
 51
90.0
  0
ARC
  5
25E
330
1F
100
AcDbEntity
  8
0
  6
Continuous
 62
     7
370
    15
100
AcDbCircle
 10
7.0831170043
 20
3.875
 30
0.0
 40
0.3125000000000009
100
AcDbArc
 50
180.0
 51
270.0
  0
ARC
  5
25F
330
1F
100
AcDbEntity
  8
0
  6
Continuous
 62
     7
370
    15
100
AcDbCircle
 10
6.5206170043
 20
4.1875
 30
0.0
 40
0.2500000000000009
100
AcDbArc
 50
0.0
 51
90.0
  0
ARC
  5
260
330
1F
100
AcDbEntity
  8
0
  6
Continuous
 62
     7
370
    15
100
AcDbCircle
 10
3.5761343101
 20
3.9375
 30
0.0
 40
0.5000000000000017
100
AcDbArc
 50
90.0
 51
170.4627846724
  0
ARC
  5
261
330
1F
100
AcDbEntity
  8
0
  6
Continuous
 62
     7
370
    15
100
AcDbCircle
 10
2.8321327523
 20
4.0625
 30
0.0
 40
0.2544291338582721
100
AcDbArc
 50
315.0
 51
350.4627846724
  0
ARC
  5
262
330
1F
100
AcDbEntity
  8
0
  6
Continuous
 62
     7
370
    15
100
AcDbCircle
 10
2.4581170043
 20
3.688484252
 30
0.0
 40
0.2544291338582678
100
AcDbArc
 50
225.0
 51
315.0
  0
ARC
  5
263
330
1F
100
AcDbEntity
  8
0
  6
Continuous
 62
     7
370
    15
100
AcDbCircle
 10
1.7081170043
 20
4.4375
 30
0.0
 40
0.2622499999999625
100
AcDbArc
 50
209.2120311791
 51
225.9189655079
  0
ARC
  5
264
330
1F
100
AcDbEntity
  8
0
  6
Continuous
 62
     7
370
    15
100
AcDbCircle
 10
1.2610151563
 20
4.1875
 30
0.0
 40
0.2499999999999994
100
AcDbArc
 50
29.2120311791
 51
90.0
  0
ARC
  5
265
330
1F
100
AcDbEntity
  8
0
  6
Continuous
 62
     7
370
    15
100
AcDbCircle
 10
-0.1043829957
 20
4.1875
 30
0.0
 40
0.2499999999999991
100
AcDbArc
 50
90.0
 51
180.0
  0
ARC
  5
266
330
1F
100
AcDbEntity
  8
0
  6
Continuous
 62
     7
370
    15
100
AcDbCircle
 10
-5.6780779241
 20
-2.25
 30
0.0
 40
0.2622499999999989
100
AcDbArc
 50
312.9402578538
 51
76.9858874221
  0
ARC
  5
267
330
1F
100
AcDbEntity
  8
0
  6
Continuous
 62
     7
370
    15
100
AcDbCircle
 10
-5.3291150859
 20
-2.625
 30
0.0
 40
0.25
100
AcDbArc
 50
132.9402578538
 51
270.0
  0
ARC
  5
268
330
1F
100
AcDbEntity
  8
0
  6
Continuous
 62
     7
370
    15
100
AcDbCircle
 10
-3.1903279241
 20
-2.375
 30
0.0
 40
0.5000000000000009
100
AcDbArc
 50
270.0
 51
0.0
  0
ARC
  5
269
330
1F
100
AcDbEntity
  8
0
  6
Continuous
 62
     7
370
    15
100
AcDbCircle
 10
-2.4280779241
 20
-2.25
 30
0.0
 40
0.262249999999999
100
AcDbArc
 50
0.0
 51
180.0
  0
ARC
  5
26A
330
1F
100
AcDbEntity
  8
0
  6
Continuous
 62
     7
370
    15
100
AcDbCircle
 10
-1.6658279241
 20
-2.375
 30
0.0
 40
0.5000000000000009
100
AcDbArc
 50
180.0
 51
270.0
  0
ARC
  5
26B
330
1F
100
AcDbEntity
  8
0
  6
Continuous
 62
     7
370
    15
100
AcDbCircle
 10
-1.4574524107
 20
-2.375
 30
0.0
 40
0.5000000000000006
100
AcDbArc
 50
270.0
 51
346.6576362029
  0
ARC
  5
26C
330
1F
100
AcDbEntity
  8
0
  6
Continuous
 62
     7
370
    15
100
AcDbCircle
 10
-0.6668829957
 20
-2.5625
 30
0.0
 40
0.3125000000000043
100
AcDbArc
 50
136.2382573073
 51
166.6576362029
  0
ARC
  5
26D
330
1F
100
AcDbEntity
  8
0
  6
Continuous
 62
     7
370
    15
100
AcDbCircle
 10
-1.0731329957
 20
-2.1734406376
 30
0.0
 40
0.2499999999999994
100
AcDbArc
 50
316.2382573073
 51
0.0
  0
ARC
  5
26E
330
1F
100
AcDbEntity
  8
0
  6
Continuous
 62
     7
370
    15
100
AcDbCircle
 10
-1.0731329957
 20
2.5407142611
 30
0.0
 40
0.250000000000001
100
AcDbArc
 50
0.0
 51
90.0
  0
ARC
  5
26F
330
1F
100
AcDbEntity
  8
0
  6
Continuous
 62
     7
370
    15
100
AcDbCircle
 10
-1.2322164441
 20
3.0529642611
 30
0.0
 40
0.2622500000000003
100
AcDbArc
 50
90.0
 51
270.0
  0
ARC
  5
270
330
1F
100
AcDbEntity
  8
0
  6
Continuous
 62
     7
370
    15
100
AcDbCircle
 10
-1.0731329957
 20
3.5652142611
 30
0.0
 40
0.2500000000000003
100
AcDbArc
 50
270.0
 51
320.6401408544
  0
ARC
  5
271
330
1F
100
AcDbEntity
  8
0
  6
Continuous
 62
     7
370
    15
100
AcDbCircle
 10
-1.0248093663
 20
3.5255774493
 30
0.0
 40
0.1875000000000012
100
AcDbArc
 50
320.6401408544
 51
39.3598591456
  0
ARC
  5
272
330
1F
100
AcDbEntity
  8
0
  6
Continuous
 62
     7
370
    15
100
AcDbCircle
 10
-1.0731329957
 20
3.4859406376
 30
0.0
 40
0.2500000000000828
100
AcDbArc
 50
39.3598591457
 51
43.7617426927
  0
ARC
  5
273
330
1F
100
AcDbEntity
  8
0
  6
Continuous
 62
     7
370
    15
100
AcDbCircle
 10
-0.6668829957
 20
3.875
 30
0.0
 40
0.3125000000000019
100
AcDbArc
 50
180.0
 51
223.7617426927
  0
ARC
  5
274
330
1F
100
AcDbEntity
  8
0
  6
Continuous
 62
     7
370
    15
100
AcDbCircle
 10
-1.2293829957
 20
4.1875
 30
0.0
 40
0.25
100
AcDbArc
 50
0.0
 51
90.0
  0
ARC
  5
275
330
1F
100
AcDbEntity
  8
0
  6
Continuous
 62
     7
370
    15
100
AcDbCircle
 10
-2.9403607674
 20
4.1875
 30
0.0
 40
0.2499999999999985
100
AcDbArc
 50
90.0
 51
150.0
  0
ARC
  5
276
330
1F
100
AcDbEntity
  8
0
  6
Continuous
 62
     7
370
    15
100
AcDbCircle
 10
-3.7773798202
 20
3.8627404736
 30
0.0
 40
0.3124999999999942
100
AcDbArc
 50
281.8103148958
 51
330.0
  0
ARC
  5
277
330
1F
100
AcDbEntity
  8
0
  6
Continuous
 62
     7
370
    15
100
AcDbCircle
 10
-3.6622516667
 20
3.3121482849
 30
0.0
 40
0.2499999999999978
100
AcDbArc
 50
101.8103148958
 51
150.0
  0
ARC
  5
278
330
1F
100
AcDbEntity
  8
0
  6
Continuous
 62
     7
370
    15
100
AcDbCircle
 10
-5.5554889209
 20
0.0329651698
 30
0.0
 40
0.2500000000000003
100
AcDbArc
 50
150.0
 51
198.1896851042
  0
ARC
  5
279
330
1F
100
AcDbEntity
  8
0
  6
Continuous
 62
     7
370
    15
100
AcDbCircle
 10
-6.0898798202
 20
-0.1426270189
 30
0.0
 40
0.3125000000000929
100
AcDbArc
 50
330.0
 51
18.1896851042
  0
ARC
  5
27A
330
1F
100
AcDbEntity
  8
0
  6
Continuous
 62
     7
370
    15
100
AcDbCircle
 10
-6.2562133573
 20
-0.5557251561
 30
0.0
 40
0.2499999999999916
100
AcDbArc
 50
284.4270040008
 51
330.0
  0
ARC
  5
27B
330
1F
100
AcDbEntity
  8
0
  6
Continuous
 62
     7
370
    15
100
AcDbCircle
 10
-6.1004968815
 20
-1.1610163086
 30
0.0
 40
0.3749999999999932
100
AcDbArc
 50
104.4270040008
 51
150.0
  0
ARC
  5
27C
330
1F
100
AcDbEntity
  8
0
  6
Continuous
 62
     7
370
    15
100
AcDbCircle
 10
-6.3322935989
 20
-1.5625
 30
0.0
 40
0.3749999999999996
100
AcDbArc
 50
150.0
 51
270.0
  0
ARC
  5
27D
330
1F
100
AcDbEntity
  8
0
  6
Continuous
 62
     7
370
    15
100
AcDbCircle
 10
-5.8940930152
 20
-2.1875
 30
0.0
 40
0.2500000000000155
100
AcDbArc
 50
76.9858874221
 51
90.0
  0
ARC
  5
27E
330
1F
100
AcDbEntity
  8
0
  6
Continuous
 62
     7
370
    15
100
AcDbCircle
 10
-1.944489554
 20
-3.375
 30
0.0
 40
0.25
100
AcDbArc
 50
306.6714035634
 51
90.0
  0
ARC
  5
27F
330
1F
100
AcDbEntity
  8
0
  6
Continuous
 62
     7
370
    15
100
AcDbCircle
 10
-5.8030779241
 20
-3.375
 30
0.0
 40
0.2500000000000018
100
AcDbArc
 50
90.0
 51
180.0
  0
ARC
  5
280
330
1F
100
AcDbEntity
  8
0
  6
Continuous
 62
     7
370
    15
100
AcDbCircle
 10
-5.6780779241
 20
-4.11275
 30
0.0
 40
0.375
100
AcDbArc
 50
180.0
 51
270.0
  0
ARC
  5
281
330
1F
100
AcDbEntity
  8
0
  6
Continuous
 62
     7
370
    15
100
AcDbCircle
 10
-5.6780779241
 20
-4.75
 30
0.0
 40
0.2622499999999999
100
AcDbArc
 50
270.0
 51
90.0
  0
ARC
  5
282
330
1F
100
AcDbEntity
  8
0
  6
Continuous
 62
     7
370
    15
100
AcDbCircle
 10
-5.8655779241
 20
-5.19975
 30
0.0
 40
0.1874999999999991
100
AcDbArc
 50
90.0
 51
180.0
  0
ARC
  5
283
330
1F
100
AcDbEntity
  8
0
  6
Continuous
 62
     7
370
    15
100
AcDbCircle
 10
-5.8030779241
 20
-5.2057372542
 30
0.0
 40
0.2500000000000129
100
AcDbArc
 50
180.0
 51
228.1896851042
  0
ARC
  5
284
330
1F
100
AcDbEntity
  8
0
  6
Continuous
 62
     7
370
    15
100
AcDbCircle
 10
-6.1780779241
 20
-5.625
 30
0.0
 40
0.3125000000000009
100
AcDbArc
 50
0.0
 51
48.1896851042
  0
ARC
  5
285
330
1F
100
AcDbEntity
  8
0
  6
Continuous
 62
     7
370
    15
100
AcDbCircle
 10
-5.6155779241
 20
-5.9372615754
 30
0.0
 40
0.2500000000000002
100
AcDbArc
 50
180.0
 51
271.4447545763
  0
ARC
  5
286
330
1F
100
AcDbEntity
  8
0
  6
Continuous
 62
     7
370
    15
100
AcDbCircle
 10
-5.6344877133
 20
-5.1875
 30
0.0
 40
1.000000000000001
100
AcDbArc
 50
271.4447545763
 51
306.6714035634
  0
ARC
  5
287
330
1F
100
AcDbEntity
  8
0
  6
Continuous
 62
     7
370
    15
100
AcDbCircle
 10
-6.0898798202
 20
-0.1426270189
 30
0.0
 40
0.3125000000001054
100
AcDbArc
 50
101.8103148958
 51
150.0
  0
ARC
  5
288
330
1F
100
AcDbEntity
  8
0
  6
Continuous
 62
     7
370
    15
100
AcDbCircle
 10
-6.2050079738
 20
0.4079651698
 30
0.0
 40
0.2499999999999934
100
AcDbArc
 50
281.8103148958
 51
330.0
  0
ARC
  5
289
330
1F
100
AcDbEntity
  8
0
  6
Continuous
 62
     7
370
    15
100
AcDbCircle
 10
-4.3117707195
 20
3.6871482849
 30
0.0
 40
0.2500000000000038
100
AcDbArc
 50
330.0
 51
18.1896851042
  0
ARC
  5
28A
330
1F
100
AcDbEntity
  8
0
  6
Continuous
 62
     7
370
    15
100
AcDbCircle
 10
-3.7773798202
 20
3.8627404736
 30
0.0
 40
0.312499999999993
100
AcDbArc
 50
150.0
 51
198.1896851042
  0
ARC
  5
28B
330
1F
100
AcDbEntity
  8
0
  6
Continuous
 62
     7
370
    15
100
AcDbCircle
 10
-4.2393988731
 20
4.1875
 30
0.0
 40
0.2500000000000003
100
AcDbArc
 50
330.0
 51
90.0
  0
ARC
  5
28C
330
1F
100
AcDbEntity
  8
0
  6
Continuous
 62
     7
370
    15
100
AcDbCircle
 10
-4.9238656899
 20
3.9375
 30
0.0
 40
0.5000000000000018
100
AcDbArc
 50
90.0
 51
170.4627846724
  0
ARC
  5
28D
330
1F
100
AcDbEntity
  8
0
  6
Continuous
 62
     7
370
    15
100
AcDbCircle
 10
-5.6678672477
 20
4.0625
 30
0.0
 40
0.2544291338582808
100
AcDbArc
 50
315.0
 51
350.4627846724
  0
ARC
  5
28E
330
1F
100
AcDbEntity
  8
0
  6
Continuous
 62
     7
370
    15
100
AcDbCircle
 10
-6.0418829957
 20
3.688484252
 30
0.0
 40
0.2544291338582665
100
AcDbArc
 50
225.0
 51
315.0
  0
ARC
  5
28F
330
1F
100
AcDbEntity
  8
0
  6
Continuous
 62
     7
370
    15
100
AcDbCircle
 10
-6.4158987437
 20
4.0625
 30
0.0
 40
0.254429133858281
100
AcDbArc
 50
189.5372153276
 51
225.0
  0
ARC
  5
290
330
1F
100
AcDbEntity
  8
0
  6
Continuous
 62
     7
370
    15
100
AcDbCircle
 10
-7.1599003015
 20
3.9375
 30
0.0
 40
0.4999999999999996
100
AcDbArc
 50
9.5372153276
 51
90.0
  0
ARC
  5
291
330
1F
100
AcDbEntity
  8
0
  6
Continuous
 62
     7
370
    15
100
AcDbCircle
 10
-7.5644897973
 20
4.1875
 30
0.0
 40
0.2500000000000027
100
AcDbArc
 50
90.0
 51
119.0319211316
  0
ARC
  5
292
330
1F
100
AcDbEntity
  8
0
  6
Continuous
 62
     7
370
    15
100
AcDbCircle
 10
-10.1213690098
 20
1.4409754836
 30
0.0
 40
0.4999999999999996
100
AcDbArc
 50
153.3263212226
 51
270.0
  0
ARC
  5
293
330
1F
100
AcDbEntity
  8
0
  6
Continuous
 62
     7
370
    15
100
AcDbCircle
 10
-10.0418829957
 20
0.6875
 30
0.0
 40
0.2622500000000037
100
AcDbArc
 50
0.0
 51
104.8631164458
  0
ARC
  5
294
330
1F
100
AcDbEntity
  8
0
  6
Continuous
 62
     7
370
    15
100
AcDbCircle
 10
-10.0418829957
 20
-0.6875
 30
0.0
 40
0.2622500000000015
100
AcDbArc
 50
270.0
 51
0.0
  0
ARC
  5
295
330
1F
100
AcDbEntity
  8
0
  6
Continuous
 62
     7
370
    15
100
AcDbCircle
 10
-10.1169612857
 20
-1.44975
 30
0.0
 40
0.4999999999999991
100
AcDbArc
 50
90.0
 51
206.8200061796
  0
ARC
  5
296
330
1F
100
AcDbEntity
  8
0
  6
Continuous
 62
     7
370
    15
100
AcDbCircle
 10
-10.2756181396
 20
-1.6875
 30
0.0
 40
0.2499999999999989
100
AcDbArc
 50
207.1049170051
 51
270.0
  0
ARC
  5
297
330
1F
100
AcDbEntity
  8
0
  6
Continuous
 62
     7
370
    15
100
AcDbCircle
 10
-7.5591629209
 20
-1.4375
 30
0.0
 40
0.4999999999999984
100
AcDbArc
 50
270.0
 51
330.0
  0
ARC
  5
298
330
1F
100
AcDbEntity
  8
0
  6
Continuous
 62
     7
370
    15
100
AcDbCircle
 10
-6.9665222853
 20
-0.6610163086
 30
0.0
 40
0.3750000000000035
100
AcDbArc
 50
330.0
 51
15.5729959992
  0
ARC
  5
299
330
1F
100
AcDbEntity
  8
0
  6
Continuous
 62
     7
370
    15
100
AcDbCircle
 10
-6.3644665328
 20
-0.4932251561
 30
0.0
 40
0.2499999999999934
100
AcDbArc
 50
150.0
 51
195.5729959992
  0
ARC
  5
29A
330
1F
100
AcDbEntity
  8
0
  6
Continuous
 62
     7
370
    15
100
AcDbCircle
 10
-10.9168829957
 20
-0.6875
 30
0.0
 40
0.2622499999999991
100
AcDbArc
 50
357.322673823
 51
97.8476264373
  0
ARC
  5
29B
330
1F
100
AcDbEntity
  8
0
  6
Continuous
 62
     7
370
    15
100
AcDbCircle
 10
-10.0418829957
 20
-0.6875
 30
0.0
 40
0.2622500000000036
100
AcDbArc
 50
87.322673823
 51
182.677326177
  0
ARC
  5
29C
330
1F
100
AcDbEntity
  8
0
  6
Continuous
 62
     7
370
    15
100
AcDbCircle
 10
-10.0418829957
 20
0.6875
 30
0.0
 40
0.2622500000000062
100
AcDbArc
 50
179.2406620686
 51
272.677326177
  0
ARC
  5
29D
330
1F
100
AcDbEntity
  8
0
  6
Continuous
 62
     7
370
    15
100
AcDbCircle
 10
-10.9168829957
 20
0.6875
 30
0.0
 40
0.2622500000000025
100
AcDbArc
 50
262.1537703269
 51
0.7593379314
  0
ARC
  5
29E
330
1F
100
AcDbEntity
  8
0
  6
Continuous
 62
     7
370
    15
100
AcDbCircle
 10
-3.1380483817
 20
5.5465965158
 30
0.0
 40
0.3749999999999991
100
AcDbArc
 50
99.8333125952
 51
179.9999999999
  0
ARC
  5
29F
330
1F
100
AcDbEntity
  8
0
  6
Continuous
 62
     7
370
    15
100
AcDbCircle
 10
-3.1380483817
 20
5.125
 30
0.0
 40
0.375
100
AcDbArc
 50
179.9999999999
 51
270.0
  0
ARC
  5
2A0
330
1F
100
AcDbEntity
  8
0
  6
Continuous
 62
     7
370
    15
100
AcDbCircle
 10
1.888027809
 20
5.125
 30
0.0
 40
0.375
100
AcDbArc
 50
270.0
 51
0.0
  0
ARC
  5
2A1
330
1F
100
AcDbEntity
  8
0
  6
Continuous
 62
     7
370
    15
100
AcDbCircle
 10
1.888027809
 20
5.717592424
 30
0.0
 40
0.3749999999999998
100
AcDbArc
 50
0.0
 51
84.2146542151
  0
ARC
  5
2A2
330
1F
100
AcDbEntity
  8
0
  6
Continuous
 62
     7
370
    15
100
AcDbCircle
 10
-4.1380483817
 20
5.3420992254
 30
0.0
 40
0.3749999999999991
100
AcDbArc
 50
359.9999999999
 51
103.3242233727
  0
ARC
  5
2A3
330
1F
100
AcDbEntity
  8
0
  6
Continuous
 62
     7
370
    15
100
AcDbCircle
 10
-6.4202314987
 20
4.875
 30
0.0
 40
0.125000000000001
100
AcDbArc
 50
112.4638610028
 51
270.0
  0
ARC
  5
2A4
330
1F
100
AcDbEntity
  8
0
  6
Continuous
 62
     7
370
    15
100
AcDbCircle
 10
-4.1380483817
 20
5.125
 30
0.0
 40
0.375
100
AcDbArc
 50
270.0
 51
359.9999999999
  0
ARC
  5
2A5
330
1F
100
AcDbEntity
  8
0
  6
Continuous
 62
     7
370
    15
100
AcDbCircle
 10
6.4202525373
 20
4.875
 30
0.0
 40
0.1249999999999984
100
AcDbArc
 50
270.0
 51
67.5350102911
  0
ARC
  5
2A6
330
1F
100
AcDbEntity
  8
0
  6
Continuous
 62
     7
370
    15
100
AcDbCircle
 10
2.888027809
 20
5.5880676525
 30
0.0
 40
0.3750000000000004
100
AcDbArc
 50
80.9995402266
 51
180.0
  0
ARC
  5
2A7
330
1F
100
AcDbEntity
  8
0
  6
Continuous
 62
     7
370
    15
100
AcDbCircle
 10
2.888027809
 20
5.125
 30
0.0
 40
0.375
100
AcDbArc
 50
180.0
 51
270.0
  0
MTEXT
  5
2A9
330
1F
100
AcDbEntity
  8
0
  6
Continuous
 62
     7
100
AcDbMText
 10
-11.2914198814
 20
-6.5401404091
 30
0.0
 40
0.1903
 41
0.0
 71
     1
 72
     1
  1
SOLIDWORKS Student Edition.
  7
SLDTEXTSTYLE0
 73
     1
 44
1.0
  0
MTEXT
  5
2AA
330
1F
100
AcDbEntity
  8
0
  6
Continuous
 62
     7
100
AcDbMText
 10
-11.2914198814
 20
-6.8255904091
 30
0.0
 40
0.1903
 41
0.0
 71
     1
 72
     1
  1
For Academic Use Only.
  7
SLDTEXTSTYLE0
 73
     1
 44
1.0
  0
ENDSEC
  0
SECTION
  2
OBJECTS
  0
DICTIONARY
  5
C
330
0
100
AcDbDictionary
281
     1
  3
ACAD_GROUP
350
D
  3
ACAD_LAYOUT
350
1A
  3
ACAD_MLINESTYLE
350
17
  3
ACAD_PLOTSETTINGS
350
19
  3
ACAD_PLOTSTYLENAME
350
E
  3
ACAD_SCALELIST
350
47
  0
DICTIONARY
  5
D
102
{ACAD_REACTORS
330
C
102
}
330
C
100
AcDbDictionary
281
     1
  0
DICTIONARY
  5
1A
102
{ACAD_REACTORS
330
C
102
}
330
C
100
AcDbDictionary
281
     1
  3
Layout1
350
1E
  3
Layout2
350
26
  3
Model
350
22
  0
DICTIONARY
  5
17
102
{ACAD_REACTORS
330
C
102
}
330
C
100
AcDbDictionary
281
     1
  3
Standard
350
18
  0
DICTIONARY
  5
19
102
{ACAD_REACTORS
330
C
102
}
330
C
100
AcDbDictionary
281
     1
  0
ACDBDICTIONARYWDFLT
  5
E
102
{ACAD_REACTORS
330
C
102
}
330
C
100
AcDbDictionary
281
     1
  3
Normal
350
F
100
AcDbDictionaryWithDefault
340
F
  0
DICTIONARY
  5
47
102
{ACAD_REACTORS
330
C
102
}
330
C
100
AcDbDictionary
281
     1
  3
A0
350
48
  3
A1
350
49
  3
A2
350
4A
  3
A3
350
4B
  3
A4
350
4C
  3
A5
350
4D
  3
A6
350
4E
  3
A7
350
4F
  3
A8
350
50
  3
A9
350
51
  3
B0
350
52
  3
B1
350
53
  3
B2
350
54
  3
B3
350
55
  3
B4
350
56
  3
B5
350
57
  3
B6
350
58
  3
B7
350
59
  3
B8
350
5A
  3
B9
350
5B
  3
C0
350
5C
  3
C1
350
5D
  3
C2
350
5E
  3
C3
350
5F
  3
C4
350
60
  3
C5
350
61
  3
C6
350
62
  3
C7
350
63
  3
C8
350
64
  3
C9
350
65
  3
D0
350
66
  3
D1
350
67
  3
D2
350
68
  0
LAYOUT
  5
1E
102
{ACAD_REACTORS
330
1A
102
}
330
1A
100
AcDbPlotSettings
  1

  2
none_device
  4

  6

 40
0.0
 41
0.0
 42
0.0
 43
0.0
 44
0.0
 45
0.0
 46
0.0
 47
0.0
 48
0.0
 49
0.0
140
0.0
141
0.0
142
1.0
143
1.0
 70
   688
 72
     0
 73
     0
 74
     5
  7

 75
    16
147
1.0
148
0.0
149
0.0
100
AcDbLayout
  1
Layout1
 70
     1
 71
     1
 10
0.0
 20
0.0
 11
12.0
 21
9.0
 12
0.0
 22
0.0
 32
0.0
 14
1.0000000000E+20
 24
1.0000000000E+20
 34
1.0000000000E+20
 15
-1.0000000000E+20
 25
-1.0000000000E+20
 35
-1.0000000000E+20
146
0.0
 13
0.0
 23
0.0
 33
0.0
 16
1.0
 26
0.0
 36
0.0
 17
0.0
 27
1.0
 37
0.0
 76
     0
330
1B
  0
LAYOUT
  5
26
102
{ACAD_REACTORS
330
1A
102
}
330
1A
100
AcDbPlotSettings
  1

  2
none_device
  4

  6

 40
0.0
 41
0.0
 42
0.0
 43
0.0
 44
0.0
 45
0.0
 46
0.0
 47
0.0
 48
0.0
 49
0.0
140
0.0
141
0.0
142
1.0
143
1.0
 70
   688
 72
     0
 73
     0
 74
     5
  7

 75
    16
147
1.0
148
0.0
149
0.0
100
AcDbLayout
  1
Layout2
 70
     1
 71
     2
 10
0.0
 20
0.0
 11
0.0
 21
0.0
 12
0.0
 22
0.0
 32
0.0
 14
0.0
 24
0.0
 34
0.0
 15
0.0
 25
0.0
 35
0.0
146
0.0
 13
0.0
 23
0.0
 33
0.0
 16
1.0
 26
0.0
 36
0.0
 17
0.0
 27
1.0
 37
0.0
 76
     0
330
23
  0
LAYOUT
  5
22
102
{ACAD_REACTORS
330
1A
102
}
330
1A
100
AcDbPlotSettings
  1

  2
none_device
  4
ANSI_A_(11.00_x_8.50_Inches)
  6

 40
6.35
 41
19.05
 42
6.35000508
 43
19.05000254
 44
279.4
 45
215.9
 46
159.4338720718
 47
88.9032443709
 48
0.0
 49
0.0
140
0.0
141
0.0
142
0.5731718655
143
1.0
 70
  1696
 72
     0
 73
     0
 74
     0
  7

 75
     0
147
0.5913241897
148
-39.4088153714
149
0.0
100
AcDbLayout
  1
Model
 70
     1
 71
     0
 10
0.0
 20
0.0
 11
12.0
 21
9.0
 12
0.0
 22
0.0
 32
0.0
 14
-11.2914198814
 24
-6.5
 34
0.0
 15
7.7081170043
 25
6.4995541263
 35
0.0
146
0.0
 13
0.0
 23
0.0
 33
0.0
 16
1.0
 26
0.0
 36
0.0
 17
0.0
 27
1.0
 37
0.0
 76
     0
330
1F
331
29
  0
MLINESTYLE
  5
18
102
{ACAD_REACTORS
330
17
102
}
330
17
100
AcDbMlineStyle
  2
Standard
 70
     0
  3

 62
   256
 51
90.0
 52
90.0
 71
     2
 49
0.5
 62
   256
  6
BYLAYER
 49
-0.5
 62
   256
  6
BYLAYER
  0
ACDBPLACEHOLDER
  5
F
102
{ACAD_REACTORS
330
E
102
}
330
E
  0
SCALE
  5
48
102
{ACAD_REACTORS
330
47
102
}
330
47
100
AcDbScale
 70
     0
300
1:1
140
1.0
141
1.0
290
     1
  0
SCALE
  5
49
102
{ACAD_REACTORS
330
47
102
}
330
47
100
AcDbScale
 70
     0
300
1:2
140
1.0
141
2.0
290
     0
  0
SCALE
  5
4A
102
{ACAD_REACTORS
330
47
102
}
330
47
100
AcDbScale
 70
     0
300
1:4
140
1.0
141
4.0
290
     0
  0
SCALE
  5
4B
102
{ACAD_REACTORS
330
47
102
}
330
47
100
AcDbScale
 70
     0
300
1:5
140
1.0
141
5.0
290
     0
  0
SCALE
  5
4C
102
{ACAD_REACTORS
330
47
102
}
330
47
100
AcDbScale
 70
     0
300
1:8
140
1.0
141
8.0
290
     0
  0
SCALE
  5
4D
102
{ACAD_REACTORS
330
47
102
}
330
47
100
AcDbScale
 70
     0
300
1:10
140
1.0
141
10.0
290
     0
  0
SCALE
  5
4E
102
{ACAD_REACTORS
330
47
102
}
330
47
100
AcDbScale
 70
     0
300
1:16
140
1.0
141
16.0
290
     0
  0
SCALE
  5
4F
102
{ACAD_REACTORS
330
47
102
}
330
47
100
AcDbScale
 70
     0
300
1:20
140
1.0
141
20.0
290
     0
  0
SCALE
  5
50
102
{ACAD_REACTORS
330
47
102
}
330
47
100
AcDbScale
 70
     0
300
1:30
140
1.0
141
30.0
290
     0
  0
SCALE
  5
51
102
{ACAD_REACTORS
330
47
102
}
330
47
100
AcDbScale
 70
     0
300
1:40
140
1.0
141
40.0
290
     0
  0
SCALE
  5
52
102
{ACAD_REACTORS
330
47
102
}
330
47
100
AcDbScale
 70
     0
300
1:50
140
1.0
141
50.0
290
     0
  0
SCALE
  5
53
102
{ACAD_REACTORS
330
47
102
}
330
47
100
AcDbScale
 70
     0
300
1:100
140
1.0
141
100.0
290
     0
  0
SCALE
  5
54
102
{ACAD_REACTORS
330
47
102
}
330
47
100
AcDbScale
 70
     0
300
2:1
140
2.0
141
1.0
290
     0
  0
SCALE
  5
55
102
{ACAD_REACTORS
330
47
102
}
330
47
100
AcDbScale
 70
     0
300
4:1
140
4.0
141
1.0
290
     0
  0
SCALE
  5
56
102
{ACAD_REACTORS
330
47
102
}
330
47
100
AcDbScale
 70
     0
300
8:1
140
8.0
141
1.0
290
     0
  0
SCALE
  5
57
102
{ACAD_REACTORS
330
47
102
}
330
47
100
AcDbScale
 70
     0
300
10:1
140
10.0
141
1.0
290
     0
  0
SCALE
  5
58
102
{ACAD_REACTORS
330
47
102
}
330
47
100
AcDbScale
 70
     0
300
100:1
140
100.0
141
1.0
290
     0
  0
SCALE
  5
59
102
{ACAD_REACTORS
330
47
102
}
330
47
100
AcDbScale
 70
     0
300
1/128" = 1'-0"
140
0.0078125
141
12.0
290
     0
  0
SCALE
  5
5A
102
{ACAD_REACTORS
330
47
102
}
330
47
100
AcDbScale
 70
     0
300
1/64" = 1'-0"
140
0.015625
141
12.0
290
     0
  0
SCALE
  5
5B
102
{ACAD_REACTORS
330
47
102
}
330
47
100
AcDbScale
 70
     0
300
1/32" = 1'-0"
140
0.03125
141
12.0
290
     0
  0
SCALE
  5
5C
102
{ACAD_REACTORS
330
47
102
}
330
47
100
AcDbScale
 70
     0
300
1/16" = 1'-0"
140
0.0625
141
12.0
290
     0
  0
SCALE
  5
5D
102
{ACAD_REACTORS
330
47
102
}
330
47
100
AcDbScale
 70
     0
300
3/32" = 1'-0"
140
0.09375
141
12.0
290
     0
  0
SCALE
  5
5E
102
{ACAD_REACTORS
330
47
102
}
330
47
100
AcDbScale
 70
     0
300
1/8" = 1'-0"
140
0.125
141
12.0
290
     0
  0
SCALE
  5
5F
102
{ACAD_REACTORS
330
47
102
}
330
47
100
AcDbScale
 70
     0
300
3/16" = 1'-0"
140
0.1875
141
12.0
290
     0
  0
SCALE
  5
60
102
{ACAD_REACTORS
330
47
102
}
330
47
100
AcDbScale
 70
     0
300
1/4" = 1'-0"
140
0.25
141
12.0
290
     0
  0
SCALE
  5
61
102
{ACAD_REACTORS
330
47
102
}
330
47
100
AcDbScale
 70
     0
300
3/8" = 1'-0"
140
0.375
141
12.0
290
     0
  0
SCALE
  5
62
102
{ACAD_REACTORS
330
47
102
}
330
47
100
AcDbScale
 70
     0
300
1/2" = 1'-0"
140
0.5
141
12.0
290
     0
  0
SCALE
  5
63
102
{ACAD_REACTORS
330
47
102
}
330
47
100
AcDbScale
 70
     0
300
3/4" = 1'-0"
140
0.75
141
12.0
290
     0
  0
SCALE
  5
64
102
{ACAD_REACTORS
330
47
102
}
330
47
100
AcDbScale
 70
     0
300
1" = 1'-0"
140
1.0
141
12.0
290
     0
  0
SCALE
  5
65
102
{ACAD_REACTORS
330
47
102
}
330
47
100
AcDbScale
 70
     0
300
1-1/2" = 1'-0"
140
1.5
141
12.0
290
     0
  0
SCALE
  5
66
102
{ACAD_REACTORS
330
47
102
}
330
47
100
AcDbScale
 70
     0
300
3" = 1'-0"
140
3.0
141
12.0
290
     0
  0
SCALE
  5
67
102
{ACAD_REACTORS
330
47
102
}
330
47
100
AcDbScale
 70
     0
300
6" = 1'-0"
140
6.0
141
12.0
290
     0
  0
SCALE
  5
68
102
{ACAD_REACTORS
330
47
102
}
330
47
100
AcDbScale
 70
     0
300
1'-0" = 1'-0"
140
12.0
141
12.0
290
     0
  0
ENDSEC
  0
EOF
