G75*
%MOIN*%
%OFA0B0*%
%FSLAX25Y25*%
%IPPOS*%
%LPD*%
%AMOC8*
5,1,8,0,0,1.08239X$1,22.5*
%
%ADD10C,0.01000*%
%ADD11C,0.00600*%
%ADD12C,0.00500*%
%ADD13C,0.00800*%
%ADD14C,0.00400*%
%ADD15C,0.00200*%
%ADD16C,0.02200*%
%ADD17C,0.00100*%
%ADD18R,0.03000X0.01800*%
D10*
X0018250Y0023250D02*
X0018250Y0100250D01*
X0118250Y0100250D02*
X0118250Y0023250D01*
D11*
X0111750Y0027250D02*
X0106750Y0027250D01*
X0103250Y0030750D01*
X0103250Y0035750D01*
X0106750Y0039250D01*
X0111750Y0039250D01*
X0115250Y0035750D01*
X0115250Y0030750D01*
X0111750Y0027250D01*
X0121250Y0030750D02*
X0124750Y0027250D01*
X0129750Y0027250D01*
X0133250Y0030750D01*
X0133250Y0035750D01*
X0129750Y0039250D01*
X0124750Y0039250D01*
X0121250Y0035750D01*
X0121250Y0030750D01*
X0124750Y0046250D02*
X0129750Y0046250D01*
X0133250Y0049750D01*
X0133250Y0054750D01*
X0129750Y0058250D01*
X0124750Y0058250D01*
X0121250Y0054750D01*
X0121250Y0049750D01*
X0124750Y0046250D01*
X0115250Y0049750D02*
X0115250Y0054750D01*
X0111750Y0058250D01*
X0106750Y0058250D01*
X0103250Y0054750D01*
X0103250Y0049750D01*
X0106750Y0046250D01*
X0111750Y0046250D01*
X0115250Y0049750D01*
X0111750Y0065250D02*
X0106750Y0065250D01*
X0103250Y0068750D01*
X0103250Y0073750D01*
X0106750Y0077250D01*
X0111750Y0077250D01*
X0115250Y0073750D01*
X0115250Y0068750D01*
X0111750Y0065250D01*
X0121250Y0068750D02*
X0124750Y0065250D01*
X0129750Y0065250D01*
X0133250Y0068750D01*
X0133250Y0073750D01*
X0129750Y0077250D01*
X0124750Y0077250D01*
X0121250Y0073750D01*
X0121250Y0068750D01*
X0124750Y0084250D02*
X0129750Y0084250D01*
X0133250Y0087750D01*
X0133250Y0092750D01*
X0129750Y0096250D01*
X0124750Y0096250D01*
X0121250Y0092750D01*
X0121250Y0087750D01*
X0124750Y0084250D01*
X0115250Y0087750D02*
X0115250Y0092750D01*
X0111750Y0096250D01*
X0106750Y0096250D01*
X0103250Y0092750D01*
X0103250Y0087750D01*
X0106750Y0084250D01*
X0111750Y0084250D01*
X0115250Y0087750D01*
X0046234Y0111550D02*
X0043966Y0111550D01*
X0043966Y0114953D01*
X0046234Y0114953D01*
X0045100Y0113251D02*
X0043966Y0113251D01*
X0042551Y0112117D02*
X0042551Y0114953D01*
X0041868Y0116550D02*
X0039599Y0116550D01*
X0041868Y0118819D01*
X0041868Y0119386D01*
X0041301Y0119953D01*
X0040167Y0119953D01*
X0039599Y0119386D01*
X0037051Y0119953D02*
X0037051Y0116550D01*
X0038185Y0116550D02*
X0035916Y0116550D01*
X0034502Y0117117D02*
X0033935Y0116550D01*
X0032800Y0116550D01*
X0032233Y0117117D01*
X0034502Y0119386D01*
X0034502Y0117117D01*
X0035916Y0118819D02*
X0037051Y0119953D01*
X0034502Y0119386D02*
X0033935Y0119953D01*
X0032800Y0119953D01*
X0032233Y0119386D01*
X0032233Y0117117D01*
X0030819Y0116550D02*
X0028550Y0116550D01*
X0030819Y0118819D01*
X0030819Y0119386D01*
X0030251Y0119953D01*
X0029117Y0119953D01*
X0028550Y0119386D01*
X0029233Y0114953D02*
X0029233Y0112117D01*
X0029800Y0111550D01*
X0030935Y0111550D01*
X0031502Y0112117D01*
X0031502Y0114953D01*
X0032916Y0114953D02*
X0032916Y0111550D01*
X0032916Y0112684D02*
X0034618Y0112684D01*
X0035185Y0113251D01*
X0035185Y0114386D01*
X0034618Y0114953D01*
X0032916Y0114953D01*
X0034051Y0112684D02*
X0035185Y0111550D01*
X0036599Y0111550D02*
X0038301Y0111550D01*
X0038868Y0112117D01*
X0038868Y0114386D01*
X0038301Y0114953D01*
X0036599Y0114953D01*
X0036599Y0111550D01*
X0035689Y0109953D02*
X0035689Y0106550D01*
X0037957Y0106550D01*
X0039372Y0106550D02*
X0041640Y0106550D01*
X0040506Y0108251D02*
X0039372Y0108251D01*
X0039372Y0106550D02*
X0039372Y0109953D01*
X0041640Y0109953D01*
X0041984Y0111550D02*
X0040850Y0111550D01*
X0040283Y0112117D01*
X0040283Y0114953D01*
X0042551Y0112117D02*
X0041984Y0111550D01*
X0037957Y0109953D02*
X0035689Y0109953D01*
X0034274Y0109953D02*
X0032005Y0109953D01*
X0032005Y0106550D01*
X0034274Y0106550D01*
X0034800Y0104953D02*
X0034233Y0104386D01*
X0034233Y0102117D01*
X0034800Y0101550D01*
X0035935Y0101550D01*
X0036502Y0102117D01*
X0036502Y0104386D01*
X0035935Y0104953D01*
X0034800Y0104953D01*
X0032819Y0104386D02*
X0032819Y0103251D01*
X0032251Y0102684D01*
X0030550Y0102684D01*
X0030550Y0101550D02*
X0030550Y0104953D01*
X0032251Y0104953D01*
X0032819Y0104386D01*
X0031684Y0102684D02*
X0032819Y0101550D01*
X0037916Y0102684D02*
X0039051Y0101550D01*
X0040185Y0102684D01*
X0040185Y0104953D01*
X0037916Y0104953D02*
X0037916Y0102684D01*
X0036823Y0108251D02*
X0035689Y0108251D01*
X0033140Y0108251D02*
X0032005Y0108251D01*
X0030684Y0106550D02*
X0029550Y0106550D01*
X0030117Y0106550D02*
X0030117Y0109953D01*
X0029550Y0109953D02*
X0030684Y0109953D01*
X0027819Y0113251D02*
X0027251Y0112684D01*
X0025550Y0112684D01*
X0025550Y0111550D02*
X0025550Y0114953D01*
X0027251Y0114953D01*
X0027819Y0114386D01*
X0027819Y0113251D01*
X0029750Y0096250D02*
X0024750Y0096250D01*
X0021250Y0092750D01*
X0021250Y0087750D01*
X0024750Y0084250D01*
X0029750Y0084250D01*
X0033250Y0087750D01*
X0033250Y0092750D01*
X0029750Y0096250D01*
X0015250Y0092750D02*
X0015250Y0087750D01*
X0011750Y0084250D01*
X0006750Y0084250D01*
X0003250Y0087750D01*
X0003250Y0092750D01*
X0006750Y0096250D01*
X0011750Y0096250D01*
X0015250Y0092750D01*
X0011750Y0077250D02*
X0006750Y0077250D01*
X0003250Y0073750D01*
X0003250Y0068750D01*
X0006750Y0065250D01*
X0011750Y0065250D01*
X0015250Y0068750D01*
X0015250Y0073750D01*
X0011750Y0077250D01*
X0021250Y0073750D02*
X0021250Y0068750D01*
X0024750Y0065250D01*
X0029750Y0065250D01*
X0033250Y0068750D01*
X0033250Y0073750D01*
X0029750Y0077250D01*
X0024750Y0077250D01*
X0021250Y0073750D01*
X0024750Y0058250D02*
X0029750Y0058250D01*
X0033250Y0054750D01*
X0033250Y0049750D01*
X0029750Y0046250D01*
X0024750Y0046250D01*
X0021250Y0049750D01*
X0021250Y0054750D01*
X0024750Y0058250D01*
X0015250Y0054750D02*
X0015250Y0049750D01*
X0011750Y0046250D01*
X0006750Y0046250D01*
X0003250Y0049750D01*
X0003250Y0054750D01*
X0006750Y0058250D01*
X0011750Y0058250D01*
X0015250Y0054750D01*
X0011750Y0039250D02*
X0006750Y0039250D01*
X0003250Y0035750D01*
X0003250Y0030750D01*
X0006750Y0027250D01*
X0011750Y0027250D01*
X0015250Y0030750D01*
X0015250Y0035750D01*
X0011750Y0039250D01*
X0021250Y0035750D02*
X0021250Y0030750D01*
X0024750Y0027250D01*
X0029750Y0027250D01*
X0033250Y0030750D01*
X0033250Y0035750D01*
X0029750Y0039250D01*
X0024750Y0039250D01*
X0021250Y0035750D01*
D12*
X0001250Y0012250D02*
X0001253Y0012520D01*
X0001263Y0012790D01*
X0001280Y0013059D01*
X0001303Y0013328D01*
X0001333Y0013597D01*
X0001369Y0013864D01*
X0001412Y0014131D01*
X0001461Y0014396D01*
X0001517Y0014660D01*
X0001580Y0014923D01*
X0001648Y0015184D01*
X0001724Y0015443D01*
X0001805Y0015700D01*
X0001893Y0015956D01*
X0001987Y0016209D01*
X0002087Y0016460D01*
X0002194Y0016708D01*
X0002306Y0016953D01*
X0002425Y0017196D01*
X0002549Y0017435D01*
X0002679Y0017672D01*
X0002815Y0017905D01*
X0002957Y0018135D01*
X0003104Y0018361D01*
X0003257Y0018584D01*
X0003415Y0018803D01*
X0003578Y0019018D01*
X0003747Y0019228D01*
X0003921Y0019435D01*
X0004100Y0019637D01*
X0004283Y0019835D01*
X0004472Y0020028D01*
X0004665Y0020217D01*
X0004863Y0020400D01*
X0005065Y0020579D01*
X0005272Y0020753D01*
X0005482Y0020922D01*
X0005697Y0021085D01*
X0005916Y0021243D01*
X0006139Y0021396D01*
X0006365Y0021543D01*
X0006595Y0021685D01*
X0006828Y0021821D01*
X0007065Y0021951D01*
X0007304Y0022075D01*
X0007547Y0022194D01*
X0007792Y0022306D01*
X0008040Y0022413D01*
X0008291Y0022513D01*
X0008544Y0022607D01*
X0008800Y0022695D01*
X0009057Y0022776D01*
X0009316Y0022852D01*
X0009577Y0022920D01*
X0009840Y0022983D01*
X0010104Y0023039D01*
X0010369Y0023088D01*
X0010636Y0023131D01*
X0010903Y0023167D01*
X0011172Y0023197D01*
X0011441Y0023220D01*
X0011710Y0023237D01*
X0011980Y0023247D01*
X0012250Y0023250D01*
X0012520Y0023247D01*
X0012790Y0023237D01*
X0013059Y0023220D01*
X0013328Y0023197D01*
X0013597Y0023167D01*
X0013864Y0023131D01*
X0014131Y0023088D01*
X0014396Y0023039D01*
X0014660Y0022983D01*
X0014923Y0022920D01*
X0015184Y0022852D01*
X0015443Y0022776D01*
X0015700Y0022695D01*
X0015956Y0022607D01*
X0016209Y0022513D01*
X0016460Y0022413D01*
X0016708Y0022306D01*
X0016953Y0022194D01*
X0017196Y0022075D01*
X0017435Y0021951D01*
X0017672Y0021821D01*
X0017905Y0021685D01*
X0018135Y0021543D01*
X0018361Y0021396D01*
X0018584Y0021243D01*
X0018803Y0021085D01*
X0019018Y0020922D01*
X0019228Y0020753D01*
X0019435Y0020579D01*
X0019637Y0020400D01*
X0019835Y0020217D01*
X0020028Y0020028D01*
X0020217Y0019835D01*
X0020400Y0019637D01*
X0020579Y0019435D01*
X0020753Y0019228D01*
X0020922Y0019018D01*
X0021085Y0018803D01*
X0021243Y0018584D01*
X0021396Y0018361D01*
X0021543Y0018135D01*
X0021685Y0017905D01*
X0021821Y0017672D01*
X0021951Y0017435D01*
X0022075Y0017196D01*
X0022194Y0016953D01*
X0022306Y0016708D01*
X0022413Y0016460D01*
X0022513Y0016209D01*
X0022607Y0015956D01*
X0022695Y0015700D01*
X0022776Y0015443D01*
X0022852Y0015184D01*
X0022920Y0014923D01*
X0022983Y0014660D01*
X0023039Y0014396D01*
X0023088Y0014131D01*
X0023131Y0013864D01*
X0023167Y0013597D01*
X0023197Y0013328D01*
X0023220Y0013059D01*
X0023237Y0012790D01*
X0023247Y0012520D01*
X0023250Y0012250D01*
X0023247Y0011980D01*
X0023237Y0011710D01*
X0023220Y0011441D01*
X0023197Y0011172D01*
X0023167Y0010903D01*
X0023131Y0010636D01*
X0023088Y0010369D01*
X0023039Y0010104D01*
X0022983Y0009840D01*
X0022920Y0009577D01*
X0022852Y0009316D01*
X0022776Y0009057D01*
X0022695Y0008800D01*
X0022607Y0008544D01*
X0022513Y0008291D01*
X0022413Y0008040D01*
X0022306Y0007792D01*
X0022194Y0007547D01*
X0022075Y0007304D01*
X0021951Y0007065D01*
X0021821Y0006828D01*
X0021685Y0006595D01*
X0021543Y0006365D01*
X0021396Y0006139D01*
X0021243Y0005916D01*
X0021085Y0005697D01*
X0020922Y0005482D01*
X0020753Y0005272D01*
X0020579Y0005065D01*
X0020400Y0004863D01*
X0020217Y0004665D01*
X0020028Y0004472D01*
X0019835Y0004283D01*
X0019637Y0004100D01*
X0019435Y0003921D01*
X0019228Y0003747D01*
X0019018Y0003578D01*
X0018803Y0003415D01*
X0018584Y0003257D01*
X0018361Y0003104D01*
X0018135Y0002957D01*
X0017905Y0002815D01*
X0017672Y0002679D01*
X0017435Y0002549D01*
X0017196Y0002425D01*
X0016953Y0002306D01*
X0016708Y0002194D01*
X0016460Y0002087D01*
X0016209Y0001987D01*
X0015956Y0001893D01*
X0015700Y0001805D01*
X0015443Y0001724D01*
X0015184Y0001648D01*
X0014923Y0001580D01*
X0014660Y0001517D01*
X0014396Y0001461D01*
X0014131Y0001412D01*
X0013864Y0001369D01*
X0013597Y0001333D01*
X0013328Y0001303D01*
X0013059Y0001280D01*
X0012790Y0001263D01*
X0012520Y0001253D01*
X0012250Y0001250D01*
X0011980Y0001253D01*
X0011710Y0001263D01*
X0011441Y0001280D01*
X0011172Y0001303D01*
X0010903Y0001333D01*
X0010636Y0001369D01*
X0010369Y0001412D01*
X0010104Y0001461D01*
X0009840Y0001517D01*
X0009577Y0001580D01*
X0009316Y0001648D01*
X0009057Y0001724D01*
X0008800Y0001805D01*
X0008544Y0001893D01*
X0008291Y0001987D01*
X0008040Y0002087D01*
X0007792Y0002194D01*
X0007547Y0002306D01*
X0007304Y0002425D01*
X0007065Y0002549D01*
X0006828Y0002679D01*
X0006595Y0002815D01*
X0006365Y0002957D01*
X0006139Y0003104D01*
X0005916Y0003257D01*
X0005697Y0003415D01*
X0005482Y0003578D01*
X0005272Y0003747D01*
X0005065Y0003921D01*
X0004863Y0004100D01*
X0004665Y0004283D01*
X0004472Y0004472D01*
X0004283Y0004665D01*
X0004100Y0004863D01*
X0003921Y0005065D01*
X0003747Y0005272D01*
X0003578Y0005482D01*
X0003415Y0005697D01*
X0003257Y0005916D01*
X0003104Y0006139D01*
X0002957Y0006365D01*
X0002815Y0006595D01*
X0002679Y0006828D01*
X0002549Y0007065D01*
X0002425Y0007304D01*
X0002306Y0007547D01*
X0002194Y0007792D01*
X0002087Y0008040D01*
X0001987Y0008291D01*
X0001893Y0008544D01*
X0001805Y0008800D01*
X0001724Y0009057D01*
X0001648Y0009316D01*
X0001580Y0009577D01*
X0001517Y0009840D01*
X0001461Y0010104D01*
X0001412Y0010369D01*
X0001369Y0010636D01*
X0001333Y0010903D01*
X0001303Y0011172D01*
X0001280Y0011441D01*
X0001263Y0011710D01*
X0001253Y0011980D01*
X0001250Y0012250D01*
X0022751Y0040500D02*
X0022000Y0041251D01*
X0022000Y0042001D01*
X0022751Y0042752D01*
X0024252Y0042752D01*
X0025003Y0042001D01*
X0025003Y0041251D01*
X0024252Y0040500D01*
X0022751Y0040500D01*
X0022751Y0042752D02*
X0022000Y0043503D01*
X0022000Y0044253D01*
X0022751Y0045004D01*
X0024252Y0045004D01*
X0025003Y0044253D01*
X0025003Y0043503D01*
X0024252Y0042752D01*
X0022000Y0059500D02*
X0022000Y0060251D01*
X0025003Y0063253D01*
X0025003Y0064004D01*
X0022000Y0064004D01*
X0022751Y0078500D02*
X0024252Y0078500D01*
X0025003Y0079251D01*
X0025003Y0080001D01*
X0024252Y0080752D01*
X0022000Y0080752D01*
X0022000Y0079251D01*
X0022751Y0078500D01*
X0022000Y0080752D02*
X0023501Y0082253D01*
X0025003Y0083004D01*
X0024252Y0097500D02*
X0022751Y0097500D01*
X0022000Y0098251D01*
X0022000Y0099752D02*
X0023501Y0100503D01*
X0024252Y0100503D01*
X0025003Y0099752D01*
X0025003Y0098251D01*
X0024252Y0097500D01*
X0022000Y0099752D02*
X0022000Y0102004D01*
X0025003Y0102004D01*
X0001250Y0112250D02*
X0001253Y0112520D01*
X0001263Y0112790D01*
X0001280Y0113059D01*
X0001303Y0113328D01*
X0001333Y0113597D01*
X0001369Y0113864D01*
X0001412Y0114131D01*
X0001461Y0114396D01*
X0001517Y0114660D01*
X0001580Y0114923D01*
X0001648Y0115184D01*
X0001724Y0115443D01*
X0001805Y0115700D01*
X0001893Y0115956D01*
X0001987Y0116209D01*
X0002087Y0116460D01*
X0002194Y0116708D01*
X0002306Y0116953D01*
X0002425Y0117196D01*
X0002549Y0117435D01*
X0002679Y0117672D01*
X0002815Y0117905D01*
X0002957Y0118135D01*
X0003104Y0118361D01*
X0003257Y0118584D01*
X0003415Y0118803D01*
X0003578Y0119018D01*
X0003747Y0119228D01*
X0003921Y0119435D01*
X0004100Y0119637D01*
X0004283Y0119835D01*
X0004472Y0120028D01*
X0004665Y0120217D01*
X0004863Y0120400D01*
X0005065Y0120579D01*
X0005272Y0120753D01*
X0005482Y0120922D01*
X0005697Y0121085D01*
X0005916Y0121243D01*
X0006139Y0121396D01*
X0006365Y0121543D01*
X0006595Y0121685D01*
X0006828Y0121821D01*
X0007065Y0121951D01*
X0007304Y0122075D01*
X0007547Y0122194D01*
X0007792Y0122306D01*
X0008040Y0122413D01*
X0008291Y0122513D01*
X0008544Y0122607D01*
X0008800Y0122695D01*
X0009057Y0122776D01*
X0009316Y0122852D01*
X0009577Y0122920D01*
X0009840Y0122983D01*
X0010104Y0123039D01*
X0010369Y0123088D01*
X0010636Y0123131D01*
X0010903Y0123167D01*
X0011172Y0123197D01*
X0011441Y0123220D01*
X0011710Y0123237D01*
X0011980Y0123247D01*
X0012250Y0123250D01*
X0012520Y0123247D01*
X0012790Y0123237D01*
X0013059Y0123220D01*
X0013328Y0123197D01*
X0013597Y0123167D01*
X0013864Y0123131D01*
X0014131Y0123088D01*
X0014396Y0123039D01*
X0014660Y0122983D01*
X0014923Y0122920D01*
X0015184Y0122852D01*
X0015443Y0122776D01*
X0015700Y0122695D01*
X0015956Y0122607D01*
X0016209Y0122513D01*
X0016460Y0122413D01*
X0016708Y0122306D01*
X0016953Y0122194D01*
X0017196Y0122075D01*
X0017435Y0121951D01*
X0017672Y0121821D01*
X0017905Y0121685D01*
X0018135Y0121543D01*
X0018361Y0121396D01*
X0018584Y0121243D01*
X0018803Y0121085D01*
X0019018Y0120922D01*
X0019228Y0120753D01*
X0019435Y0120579D01*
X0019637Y0120400D01*
X0019835Y0120217D01*
X0020028Y0120028D01*
X0020217Y0119835D01*
X0020400Y0119637D01*
X0020579Y0119435D01*
X0020753Y0119228D01*
X0020922Y0119018D01*
X0021085Y0118803D01*
X0021243Y0118584D01*
X0021396Y0118361D01*
X0021543Y0118135D01*
X0021685Y0117905D01*
X0021821Y0117672D01*
X0021951Y0117435D01*
X0022075Y0117196D01*
X0022194Y0116953D01*
X0022306Y0116708D01*
X0022413Y0116460D01*
X0022513Y0116209D01*
X0022607Y0115956D01*
X0022695Y0115700D01*
X0022776Y0115443D01*
X0022852Y0115184D01*
X0022920Y0114923D01*
X0022983Y0114660D01*
X0023039Y0114396D01*
X0023088Y0114131D01*
X0023131Y0113864D01*
X0023167Y0113597D01*
X0023197Y0113328D01*
X0023220Y0113059D01*
X0023237Y0112790D01*
X0023247Y0112520D01*
X0023250Y0112250D01*
X0023247Y0111980D01*
X0023237Y0111710D01*
X0023220Y0111441D01*
X0023197Y0111172D01*
X0023167Y0110903D01*
X0023131Y0110636D01*
X0023088Y0110369D01*
X0023039Y0110104D01*
X0022983Y0109840D01*
X0022920Y0109577D01*
X0022852Y0109316D01*
X0022776Y0109057D01*
X0022695Y0108800D01*
X0022607Y0108544D01*
X0022513Y0108291D01*
X0022413Y0108040D01*
X0022306Y0107792D01*
X0022194Y0107547D01*
X0022075Y0107304D01*
X0021951Y0107065D01*
X0021821Y0106828D01*
X0021685Y0106595D01*
X0021543Y0106365D01*
X0021396Y0106139D01*
X0021243Y0105916D01*
X0021085Y0105697D01*
X0020922Y0105482D01*
X0020753Y0105272D01*
X0020579Y0105065D01*
X0020400Y0104863D01*
X0020217Y0104665D01*
X0020028Y0104472D01*
X0019835Y0104283D01*
X0019637Y0104100D01*
X0019435Y0103921D01*
X0019228Y0103747D01*
X0019018Y0103578D01*
X0018803Y0103415D01*
X0018584Y0103257D01*
X0018361Y0103104D01*
X0018135Y0102957D01*
X0017905Y0102815D01*
X0017672Y0102679D01*
X0017435Y0102549D01*
X0017196Y0102425D01*
X0016953Y0102306D01*
X0016708Y0102194D01*
X0016460Y0102087D01*
X0016209Y0101987D01*
X0015956Y0101893D01*
X0015700Y0101805D01*
X0015443Y0101724D01*
X0015184Y0101648D01*
X0014923Y0101580D01*
X0014660Y0101517D01*
X0014396Y0101461D01*
X0014131Y0101412D01*
X0013864Y0101369D01*
X0013597Y0101333D01*
X0013328Y0101303D01*
X0013059Y0101280D01*
X0012790Y0101263D01*
X0012520Y0101253D01*
X0012250Y0101250D01*
X0011980Y0101253D01*
X0011710Y0101263D01*
X0011441Y0101280D01*
X0011172Y0101303D01*
X0010903Y0101333D01*
X0010636Y0101369D01*
X0010369Y0101412D01*
X0010104Y0101461D01*
X0009840Y0101517D01*
X0009577Y0101580D01*
X0009316Y0101648D01*
X0009057Y0101724D01*
X0008800Y0101805D01*
X0008544Y0101893D01*
X0008291Y0101987D01*
X0008040Y0102087D01*
X0007792Y0102194D01*
X0007547Y0102306D01*
X0007304Y0102425D01*
X0007065Y0102549D01*
X0006828Y0102679D01*
X0006595Y0102815D01*
X0006365Y0102957D01*
X0006139Y0103104D01*
X0005916Y0103257D01*
X0005697Y0103415D01*
X0005482Y0103578D01*
X0005272Y0103747D01*
X0005065Y0103921D01*
X0004863Y0104100D01*
X0004665Y0104283D01*
X0004472Y0104472D01*
X0004283Y0104665D01*
X0004100Y0104863D01*
X0003921Y0105065D01*
X0003747Y0105272D01*
X0003578Y0105482D01*
X0003415Y0105697D01*
X0003257Y0105916D01*
X0003104Y0106139D01*
X0002957Y0106365D01*
X0002815Y0106595D01*
X0002679Y0106828D01*
X0002549Y0107065D01*
X0002425Y0107304D01*
X0002306Y0107547D01*
X0002194Y0107792D01*
X0002087Y0108040D01*
X0001987Y0108291D01*
X0001893Y0108544D01*
X0001805Y0108800D01*
X0001724Y0109057D01*
X0001648Y0109316D01*
X0001580Y0109577D01*
X0001517Y0109840D01*
X0001461Y0110104D01*
X0001412Y0110369D01*
X0001369Y0110636D01*
X0001333Y0110903D01*
X0001303Y0111172D01*
X0001280Y0111441D01*
X0001263Y0111710D01*
X0001253Y0111980D01*
X0001250Y0112250D01*
X0090500Y0111500D02*
X0091851Y0111500D01*
X0092302Y0111950D01*
X0092302Y0113752D01*
X0091851Y0114202D01*
X0090500Y0114202D01*
X0090500Y0111500D01*
X0093447Y0111500D02*
X0093447Y0113302D01*
X0094347Y0113302D02*
X0094798Y0113302D01*
X0094347Y0113302D02*
X0093447Y0112401D01*
X0095902Y0113302D02*
X0096352Y0113302D01*
X0096352Y0111500D01*
X0095902Y0111500D02*
X0096803Y0111500D01*
X0098767Y0111500D02*
X0097866Y0113302D01*
X0096352Y0114202D02*
X0096352Y0114653D01*
X0096393Y0116500D02*
X0097294Y0116500D01*
X0096843Y0116500D02*
X0096843Y0119202D01*
X0096393Y0119202D01*
X0095248Y0117851D02*
X0094798Y0118302D01*
X0093897Y0118302D01*
X0093447Y0117851D01*
X0093447Y0116950D01*
X0093897Y0116500D01*
X0094798Y0116500D01*
X0095248Y0116950D01*
X0095248Y0117851D01*
X0092302Y0117401D02*
X0092302Y0116950D01*
X0091851Y0116500D01*
X0090950Y0116500D01*
X0090500Y0116950D01*
X0090950Y0117851D02*
X0091851Y0117851D01*
X0092302Y0117401D01*
X0092302Y0118752D02*
X0091851Y0119202D01*
X0090950Y0119202D01*
X0090500Y0118752D01*
X0090500Y0118302D01*
X0090950Y0117851D01*
X0098357Y0117851D02*
X0098357Y0116950D01*
X0098808Y0116500D01*
X0099709Y0116500D01*
X0100159Y0117401D02*
X0100159Y0117851D01*
X0099709Y0118302D01*
X0098808Y0118302D01*
X0098357Y0117851D01*
X0098357Y0117401D02*
X0100159Y0117401D01*
X0101304Y0116500D02*
X0101304Y0118302D01*
X0102655Y0118302D01*
X0103105Y0117851D01*
X0103105Y0116500D01*
X0104250Y0116950D02*
X0104250Y0117851D01*
X0104701Y0118302D01*
X0105602Y0118302D01*
X0106052Y0117851D01*
X0106052Y0116950D01*
X0105602Y0116500D01*
X0104701Y0116500D01*
X0104250Y0116950D01*
X0107197Y0116500D02*
X0108098Y0116500D01*
X0107647Y0116500D02*
X0107647Y0118302D01*
X0107197Y0118302D01*
X0107647Y0119202D02*
X0107647Y0119653D01*
X0109161Y0117851D02*
X0109612Y0118302D01*
X0110963Y0118302D01*
X0110963Y0119202D02*
X0110963Y0116500D01*
X0109612Y0116500D01*
X0109161Y0116950D01*
X0109161Y0117851D01*
X0105110Y0113302D02*
X0104660Y0113302D01*
X0103759Y0112401D01*
X0103759Y0111500D02*
X0103759Y0113302D01*
X0102614Y0112851D02*
X0102614Y0112401D01*
X0100813Y0112401D01*
X0100813Y0112851D02*
X0100813Y0111950D01*
X0101263Y0111500D01*
X0102164Y0111500D01*
X0102614Y0112851D02*
X0102164Y0113302D01*
X0101263Y0113302D01*
X0100813Y0112851D01*
X0099668Y0113302D02*
X0098767Y0111500D01*
X0106252Y0102004D02*
X0104000Y0099752D01*
X0107003Y0099752D01*
X0106252Y0097500D02*
X0106252Y0102004D01*
X0113750Y0112250D02*
X0113753Y0112520D01*
X0113763Y0112790D01*
X0113780Y0113059D01*
X0113803Y0113328D01*
X0113833Y0113597D01*
X0113869Y0113864D01*
X0113912Y0114131D01*
X0113961Y0114396D01*
X0114017Y0114660D01*
X0114080Y0114923D01*
X0114148Y0115184D01*
X0114224Y0115443D01*
X0114305Y0115700D01*
X0114393Y0115956D01*
X0114487Y0116209D01*
X0114587Y0116460D01*
X0114694Y0116708D01*
X0114806Y0116953D01*
X0114925Y0117196D01*
X0115049Y0117435D01*
X0115179Y0117672D01*
X0115315Y0117905D01*
X0115457Y0118135D01*
X0115604Y0118361D01*
X0115757Y0118584D01*
X0115915Y0118803D01*
X0116078Y0119018D01*
X0116247Y0119228D01*
X0116421Y0119435D01*
X0116600Y0119637D01*
X0116783Y0119835D01*
X0116972Y0120028D01*
X0117165Y0120217D01*
X0117363Y0120400D01*
X0117565Y0120579D01*
X0117772Y0120753D01*
X0117982Y0120922D01*
X0118197Y0121085D01*
X0118416Y0121243D01*
X0118639Y0121396D01*
X0118865Y0121543D01*
X0119095Y0121685D01*
X0119328Y0121821D01*
X0119565Y0121951D01*
X0119804Y0122075D01*
X0120047Y0122194D01*
X0120292Y0122306D01*
X0120540Y0122413D01*
X0120791Y0122513D01*
X0121044Y0122607D01*
X0121300Y0122695D01*
X0121557Y0122776D01*
X0121816Y0122852D01*
X0122077Y0122920D01*
X0122340Y0122983D01*
X0122604Y0123039D01*
X0122869Y0123088D01*
X0123136Y0123131D01*
X0123403Y0123167D01*
X0123672Y0123197D01*
X0123941Y0123220D01*
X0124210Y0123237D01*
X0124480Y0123247D01*
X0124750Y0123250D01*
X0125020Y0123247D01*
X0125290Y0123237D01*
X0125559Y0123220D01*
X0125828Y0123197D01*
X0126097Y0123167D01*
X0126364Y0123131D01*
X0126631Y0123088D01*
X0126896Y0123039D01*
X0127160Y0122983D01*
X0127423Y0122920D01*
X0127684Y0122852D01*
X0127943Y0122776D01*
X0128200Y0122695D01*
X0128456Y0122607D01*
X0128709Y0122513D01*
X0128960Y0122413D01*
X0129208Y0122306D01*
X0129453Y0122194D01*
X0129696Y0122075D01*
X0129935Y0121951D01*
X0130172Y0121821D01*
X0130405Y0121685D01*
X0130635Y0121543D01*
X0130861Y0121396D01*
X0131084Y0121243D01*
X0131303Y0121085D01*
X0131518Y0120922D01*
X0131728Y0120753D01*
X0131935Y0120579D01*
X0132137Y0120400D01*
X0132335Y0120217D01*
X0132528Y0120028D01*
X0132717Y0119835D01*
X0132900Y0119637D01*
X0133079Y0119435D01*
X0133253Y0119228D01*
X0133422Y0119018D01*
X0133585Y0118803D01*
X0133743Y0118584D01*
X0133896Y0118361D01*
X0134043Y0118135D01*
X0134185Y0117905D01*
X0134321Y0117672D01*
X0134451Y0117435D01*
X0134575Y0117196D01*
X0134694Y0116953D01*
X0134806Y0116708D01*
X0134913Y0116460D01*
X0135013Y0116209D01*
X0135107Y0115956D01*
X0135195Y0115700D01*
X0135276Y0115443D01*
X0135352Y0115184D01*
X0135420Y0114923D01*
X0135483Y0114660D01*
X0135539Y0114396D01*
X0135588Y0114131D01*
X0135631Y0113864D01*
X0135667Y0113597D01*
X0135697Y0113328D01*
X0135720Y0113059D01*
X0135737Y0112790D01*
X0135747Y0112520D01*
X0135750Y0112250D01*
X0135747Y0111980D01*
X0135737Y0111710D01*
X0135720Y0111441D01*
X0135697Y0111172D01*
X0135667Y0110903D01*
X0135631Y0110636D01*
X0135588Y0110369D01*
X0135539Y0110104D01*
X0135483Y0109840D01*
X0135420Y0109577D01*
X0135352Y0109316D01*
X0135276Y0109057D01*
X0135195Y0108800D01*
X0135107Y0108544D01*
X0135013Y0108291D01*
X0134913Y0108040D01*
X0134806Y0107792D01*
X0134694Y0107547D01*
X0134575Y0107304D01*
X0134451Y0107065D01*
X0134321Y0106828D01*
X0134185Y0106595D01*
X0134043Y0106365D01*
X0133896Y0106139D01*
X0133743Y0105916D01*
X0133585Y0105697D01*
X0133422Y0105482D01*
X0133253Y0105272D01*
X0133079Y0105065D01*
X0132900Y0104863D01*
X0132717Y0104665D01*
X0132528Y0104472D01*
X0132335Y0104283D01*
X0132137Y0104100D01*
X0131935Y0103921D01*
X0131728Y0103747D01*
X0131518Y0103578D01*
X0131303Y0103415D01*
X0131084Y0103257D01*
X0130861Y0103104D01*
X0130635Y0102957D01*
X0130405Y0102815D01*
X0130172Y0102679D01*
X0129935Y0102549D01*
X0129696Y0102425D01*
X0129453Y0102306D01*
X0129208Y0102194D01*
X0128960Y0102087D01*
X0128709Y0101987D01*
X0128456Y0101893D01*
X0128200Y0101805D01*
X0127943Y0101724D01*
X0127684Y0101648D01*
X0127423Y0101580D01*
X0127160Y0101517D01*
X0126896Y0101461D01*
X0126631Y0101412D01*
X0126364Y0101369D01*
X0126097Y0101333D01*
X0125828Y0101303D01*
X0125559Y0101280D01*
X0125290Y0101263D01*
X0125020Y0101253D01*
X0124750Y0101250D01*
X0124480Y0101253D01*
X0124210Y0101263D01*
X0123941Y0101280D01*
X0123672Y0101303D01*
X0123403Y0101333D01*
X0123136Y0101369D01*
X0122869Y0101412D01*
X0122604Y0101461D01*
X0122340Y0101517D01*
X0122077Y0101580D01*
X0121816Y0101648D01*
X0121557Y0101724D01*
X0121300Y0101805D01*
X0121044Y0101893D01*
X0120791Y0101987D01*
X0120540Y0102087D01*
X0120292Y0102194D01*
X0120047Y0102306D01*
X0119804Y0102425D01*
X0119565Y0102549D01*
X0119328Y0102679D01*
X0119095Y0102815D01*
X0118865Y0102957D01*
X0118639Y0103104D01*
X0118416Y0103257D01*
X0118197Y0103415D01*
X0117982Y0103578D01*
X0117772Y0103747D01*
X0117565Y0103921D01*
X0117363Y0104100D01*
X0117165Y0104283D01*
X0116972Y0104472D01*
X0116783Y0104665D01*
X0116600Y0104863D01*
X0116421Y0105065D01*
X0116247Y0105272D01*
X0116078Y0105482D01*
X0115915Y0105697D01*
X0115757Y0105916D01*
X0115604Y0106139D01*
X0115457Y0106365D01*
X0115315Y0106595D01*
X0115179Y0106828D01*
X0115049Y0107065D01*
X0114925Y0107304D01*
X0114806Y0107547D01*
X0114694Y0107792D01*
X0114587Y0108040D01*
X0114487Y0108291D01*
X0114393Y0108544D01*
X0114305Y0108800D01*
X0114224Y0109057D01*
X0114148Y0109316D01*
X0114080Y0109577D01*
X0114017Y0109840D01*
X0113961Y0110104D01*
X0113912Y0110369D01*
X0113869Y0110636D01*
X0113833Y0110903D01*
X0113803Y0111172D01*
X0113780Y0111441D01*
X0113763Y0111710D01*
X0113753Y0111980D01*
X0113750Y0112250D01*
X0106252Y0083004D02*
X0104751Y0083004D01*
X0104000Y0082253D01*
X0105501Y0080752D02*
X0106252Y0080752D01*
X0107003Y0080001D01*
X0107003Y0079251D01*
X0106252Y0078500D01*
X0104751Y0078500D01*
X0104000Y0079251D01*
X0106252Y0080752D02*
X0107003Y0081503D01*
X0107003Y0082253D01*
X0106252Y0083004D01*
X0106252Y0064004D02*
X0104751Y0064004D01*
X0104000Y0063253D01*
X0106252Y0064004D02*
X0107003Y0063253D01*
X0107003Y0062503D01*
X0104000Y0059500D01*
X0107003Y0059500D01*
X0105501Y0045004D02*
X0105501Y0040500D01*
X0104000Y0040500D02*
X0107003Y0040500D01*
X0104000Y0043503D02*
X0105501Y0045004D01*
X0113750Y0012250D02*
X0113753Y0012520D01*
X0113763Y0012790D01*
X0113780Y0013059D01*
X0113803Y0013328D01*
X0113833Y0013597D01*
X0113869Y0013864D01*
X0113912Y0014131D01*
X0113961Y0014396D01*
X0114017Y0014660D01*
X0114080Y0014923D01*
X0114148Y0015184D01*
X0114224Y0015443D01*
X0114305Y0015700D01*
X0114393Y0015956D01*
X0114487Y0016209D01*
X0114587Y0016460D01*
X0114694Y0016708D01*
X0114806Y0016953D01*
X0114925Y0017196D01*
X0115049Y0017435D01*
X0115179Y0017672D01*
X0115315Y0017905D01*
X0115457Y0018135D01*
X0115604Y0018361D01*
X0115757Y0018584D01*
X0115915Y0018803D01*
X0116078Y0019018D01*
X0116247Y0019228D01*
X0116421Y0019435D01*
X0116600Y0019637D01*
X0116783Y0019835D01*
X0116972Y0020028D01*
X0117165Y0020217D01*
X0117363Y0020400D01*
X0117565Y0020579D01*
X0117772Y0020753D01*
X0117982Y0020922D01*
X0118197Y0021085D01*
X0118416Y0021243D01*
X0118639Y0021396D01*
X0118865Y0021543D01*
X0119095Y0021685D01*
X0119328Y0021821D01*
X0119565Y0021951D01*
X0119804Y0022075D01*
X0120047Y0022194D01*
X0120292Y0022306D01*
X0120540Y0022413D01*
X0120791Y0022513D01*
X0121044Y0022607D01*
X0121300Y0022695D01*
X0121557Y0022776D01*
X0121816Y0022852D01*
X0122077Y0022920D01*
X0122340Y0022983D01*
X0122604Y0023039D01*
X0122869Y0023088D01*
X0123136Y0023131D01*
X0123403Y0023167D01*
X0123672Y0023197D01*
X0123941Y0023220D01*
X0124210Y0023237D01*
X0124480Y0023247D01*
X0124750Y0023250D01*
X0125020Y0023247D01*
X0125290Y0023237D01*
X0125559Y0023220D01*
X0125828Y0023197D01*
X0126097Y0023167D01*
X0126364Y0023131D01*
X0126631Y0023088D01*
X0126896Y0023039D01*
X0127160Y0022983D01*
X0127423Y0022920D01*
X0127684Y0022852D01*
X0127943Y0022776D01*
X0128200Y0022695D01*
X0128456Y0022607D01*
X0128709Y0022513D01*
X0128960Y0022413D01*
X0129208Y0022306D01*
X0129453Y0022194D01*
X0129696Y0022075D01*
X0129935Y0021951D01*
X0130172Y0021821D01*
X0130405Y0021685D01*
X0130635Y0021543D01*
X0130861Y0021396D01*
X0131084Y0021243D01*
X0131303Y0021085D01*
X0131518Y0020922D01*
X0131728Y0020753D01*
X0131935Y0020579D01*
X0132137Y0020400D01*
X0132335Y0020217D01*
X0132528Y0020028D01*
X0132717Y0019835D01*
X0132900Y0019637D01*
X0133079Y0019435D01*
X0133253Y0019228D01*
X0133422Y0019018D01*
X0133585Y0018803D01*
X0133743Y0018584D01*
X0133896Y0018361D01*
X0134043Y0018135D01*
X0134185Y0017905D01*
X0134321Y0017672D01*
X0134451Y0017435D01*
X0134575Y0017196D01*
X0134694Y0016953D01*
X0134806Y0016708D01*
X0134913Y0016460D01*
X0135013Y0016209D01*
X0135107Y0015956D01*
X0135195Y0015700D01*
X0135276Y0015443D01*
X0135352Y0015184D01*
X0135420Y0014923D01*
X0135483Y0014660D01*
X0135539Y0014396D01*
X0135588Y0014131D01*
X0135631Y0013864D01*
X0135667Y0013597D01*
X0135697Y0013328D01*
X0135720Y0013059D01*
X0135737Y0012790D01*
X0135747Y0012520D01*
X0135750Y0012250D01*
X0135747Y0011980D01*
X0135737Y0011710D01*
X0135720Y0011441D01*
X0135697Y0011172D01*
X0135667Y0010903D01*
X0135631Y0010636D01*
X0135588Y0010369D01*
X0135539Y0010104D01*
X0135483Y0009840D01*
X0135420Y0009577D01*
X0135352Y0009316D01*
X0135276Y0009057D01*
X0135195Y0008800D01*
X0135107Y0008544D01*
X0135013Y0008291D01*
X0134913Y0008040D01*
X0134806Y0007792D01*
X0134694Y0007547D01*
X0134575Y0007304D01*
X0134451Y0007065D01*
X0134321Y0006828D01*
X0134185Y0006595D01*
X0134043Y0006365D01*
X0133896Y0006139D01*
X0133743Y0005916D01*
X0133585Y0005697D01*
X0133422Y0005482D01*
X0133253Y0005272D01*
X0133079Y0005065D01*
X0132900Y0004863D01*
X0132717Y0004665D01*
X0132528Y0004472D01*
X0132335Y0004283D01*
X0132137Y0004100D01*
X0131935Y0003921D01*
X0131728Y0003747D01*
X0131518Y0003578D01*
X0131303Y0003415D01*
X0131084Y0003257D01*
X0130861Y0003104D01*
X0130635Y0002957D01*
X0130405Y0002815D01*
X0130172Y0002679D01*
X0129935Y0002549D01*
X0129696Y0002425D01*
X0129453Y0002306D01*
X0129208Y0002194D01*
X0128960Y0002087D01*
X0128709Y0001987D01*
X0128456Y0001893D01*
X0128200Y0001805D01*
X0127943Y0001724D01*
X0127684Y0001648D01*
X0127423Y0001580D01*
X0127160Y0001517D01*
X0126896Y0001461D01*
X0126631Y0001412D01*
X0126364Y0001369D01*
X0126097Y0001333D01*
X0125828Y0001303D01*
X0125559Y0001280D01*
X0125290Y0001263D01*
X0125020Y0001253D01*
X0124750Y0001250D01*
X0124480Y0001253D01*
X0124210Y0001263D01*
X0123941Y0001280D01*
X0123672Y0001303D01*
X0123403Y0001333D01*
X0123136Y0001369D01*
X0122869Y0001412D01*
X0122604Y0001461D01*
X0122340Y0001517D01*
X0122077Y0001580D01*
X0121816Y0001648D01*
X0121557Y0001724D01*
X0121300Y0001805D01*
X0121044Y0001893D01*
X0120791Y0001987D01*
X0120540Y0002087D01*
X0120292Y0002194D01*
X0120047Y0002306D01*
X0119804Y0002425D01*
X0119565Y0002549D01*
X0119328Y0002679D01*
X0119095Y0002815D01*
X0118865Y0002957D01*
X0118639Y0003104D01*
X0118416Y0003257D01*
X0118197Y0003415D01*
X0117982Y0003578D01*
X0117772Y0003747D01*
X0117565Y0003921D01*
X0117363Y0004100D01*
X0117165Y0004283D01*
X0116972Y0004472D01*
X0116783Y0004665D01*
X0116600Y0004863D01*
X0116421Y0005065D01*
X0116247Y0005272D01*
X0116078Y0005482D01*
X0115915Y0005697D01*
X0115757Y0005916D01*
X0115604Y0006139D01*
X0115457Y0006365D01*
X0115315Y0006595D01*
X0115179Y0006828D01*
X0115049Y0007065D01*
X0114925Y0007304D01*
X0114806Y0007547D01*
X0114694Y0007792D01*
X0114587Y0008040D01*
X0114487Y0008291D01*
X0114393Y0008544D01*
X0114305Y0008800D01*
X0114224Y0009057D01*
X0114148Y0009316D01*
X0114080Y0009577D01*
X0114017Y0009840D01*
X0113961Y0010104D01*
X0113912Y0010369D01*
X0113869Y0010636D01*
X0113833Y0010903D01*
X0113803Y0011172D01*
X0113780Y0011441D01*
X0113763Y0011710D01*
X0113753Y0011980D01*
X0113750Y0012250D01*
D13*
X0082407Y0012770D02*
X0082407Y0018675D01*
X0082407Y0018676D02*
X0082334Y0018712D01*
X0082263Y0018753D01*
X0082193Y0018796D01*
X0082126Y0018843D01*
X0082061Y0018893D01*
X0081999Y0018946D01*
X0081939Y0019001D01*
X0081882Y0019060D01*
X0081827Y0019121D01*
X0081776Y0019185D01*
X0081727Y0019251D01*
X0081682Y0019319D01*
X0081640Y0019389D01*
X0081601Y0019461D01*
X0081565Y0019535D01*
X0081534Y0019610D01*
X0081505Y0019687D01*
X0081481Y0019765D01*
X0081460Y0019844D01*
X0081443Y0019924D01*
X0081429Y0020005D01*
X0081420Y0020086D01*
X0081414Y0020168D01*
X0081412Y0020250D01*
X0081414Y0020332D01*
X0081420Y0020414D01*
X0081429Y0020495D01*
X0081443Y0020576D01*
X0081460Y0020656D01*
X0081481Y0020735D01*
X0081505Y0020813D01*
X0081534Y0020890D01*
X0081565Y0020965D01*
X0081601Y0021039D01*
X0081640Y0021111D01*
X0081682Y0021181D01*
X0081727Y0021249D01*
X0081776Y0021315D01*
X0081827Y0021379D01*
X0081882Y0021440D01*
X0081939Y0021499D01*
X0081999Y0021554D01*
X0082061Y0021607D01*
X0082126Y0021657D01*
X0082193Y0021704D01*
X0082263Y0021747D01*
X0082334Y0021788D01*
X0082407Y0021824D01*
X0082407Y0021825D02*
X0082407Y0027730D01*
X0052093Y0027730D01*
X0052093Y0021825D01*
X0052092Y0021824D02*
X0052165Y0021788D01*
X0052236Y0021747D01*
X0052306Y0021704D01*
X0052373Y0021657D01*
X0052438Y0021607D01*
X0052500Y0021554D01*
X0052560Y0021499D01*
X0052617Y0021440D01*
X0052672Y0021379D01*
X0052723Y0021315D01*
X0052772Y0021249D01*
X0052817Y0021181D01*
X0052859Y0021111D01*
X0052898Y0021039D01*
X0052934Y0020965D01*
X0052965Y0020890D01*
X0052994Y0020813D01*
X0053018Y0020735D01*
X0053039Y0020656D01*
X0053056Y0020576D01*
X0053070Y0020495D01*
X0053079Y0020414D01*
X0053085Y0020332D01*
X0053087Y0020250D01*
X0053085Y0020168D01*
X0053079Y0020086D01*
X0053070Y0020005D01*
X0053056Y0019924D01*
X0053039Y0019844D01*
X0053018Y0019765D01*
X0052994Y0019687D01*
X0052965Y0019610D01*
X0052934Y0019535D01*
X0052898Y0019461D01*
X0052859Y0019389D01*
X0052817Y0019319D01*
X0052772Y0019251D01*
X0052723Y0019185D01*
X0052672Y0019121D01*
X0052617Y0019060D01*
X0052560Y0019001D01*
X0052500Y0018946D01*
X0052438Y0018893D01*
X0052373Y0018843D01*
X0052306Y0018796D01*
X0052236Y0018753D01*
X0052165Y0018712D01*
X0052092Y0018676D01*
X0052093Y0018675D02*
X0052093Y0012770D01*
X0082407Y0012770D01*
X0081817Y0040817D02*
X0079848Y0040817D01*
X0079848Y0091683D01*
X0081817Y0091683D01*
X0079848Y0091683D02*
X0052683Y0091683D01*
X0051093Y0102770D02*
X0051093Y0108675D01*
X0051092Y0108676D02*
X0051165Y0108712D01*
X0051236Y0108753D01*
X0051306Y0108796D01*
X0051373Y0108843D01*
X0051438Y0108893D01*
X0051500Y0108946D01*
X0051560Y0109001D01*
X0051617Y0109060D01*
X0051672Y0109121D01*
X0051723Y0109185D01*
X0051772Y0109251D01*
X0051817Y0109319D01*
X0051859Y0109389D01*
X0051898Y0109461D01*
X0051934Y0109535D01*
X0051965Y0109610D01*
X0051994Y0109687D01*
X0052018Y0109765D01*
X0052039Y0109844D01*
X0052056Y0109924D01*
X0052070Y0110005D01*
X0052079Y0110086D01*
X0052085Y0110168D01*
X0052087Y0110250D01*
X0052085Y0110332D01*
X0052079Y0110414D01*
X0052070Y0110495D01*
X0052056Y0110576D01*
X0052039Y0110656D01*
X0052018Y0110735D01*
X0051994Y0110813D01*
X0051965Y0110890D01*
X0051934Y0110965D01*
X0051898Y0111039D01*
X0051859Y0111111D01*
X0051817Y0111181D01*
X0051772Y0111249D01*
X0051723Y0111315D01*
X0051672Y0111379D01*
X0051617Y0111440D01*
X0051560Y0111499D01*
X0051500Y0111554D01*
X0051438Y0111607D01*
X0051373Y0111657D01*
X0051306Y0111704D01*
X0051236Y0111747D01*
X0051165Y0111788D01*
X0051092Y0111824D01*
X0051093Y0111825D02*
X0051093Y0117730D01*
X0081407Y0117730D01*
X0081407Y0111825D01*
X0081407Y0111824D02*
X0081334Y0111788D01*
X0081263Y0111747D01*
X0081193Y0111704D01*
X0081126Y0111657D01*
X0081061Y0111607D01*
X0080999Y0111554D01*
X0080939Y0111499D01*
X0080882Y0111440D01*
X0080827Y0111379D01*
X0080776Y0111315D01*
X0080727Y0111249D01*
X0080682Y0111181D01*
X0080640Y0111111D01*
X0080601Y0111039D01*
X0080565Y0110965D01*
X0080534Y0110890D01*
X0080505Y0110813D01*
X0080481Y0110735D01*
X0080460Y0110656D01*
X0080443Y0110576D01*
X0080429Y0110495D01*
X0080420Y0110414D01*
X0080414Y0110332D01*
X0080412Y0110250D01*
X0080414Y0110168D01*
X0080420Y0110086D01*
X0080429Y0110005D01*
X0080443Y0109924D01*
X0080460Y0109844D01*
X0080481Y0109765D01*
X0080505Y0109687D01*
X0080534Y0109610D01*
X0080565Y0109535D01*
X0080601Y0109461D01*
X0080640Y0109389D01*
X0080682Y0109319D01*
X0080727Y0109251D01*
X0080776Y0109185D01*
X0080827Y0109121D01*
X0080882Y0109060D01*
X0080939Y0109001D01*
X0080999Y0108946D01*
X0081061Y0108893D01*
X0081126Y0108843D01*
X0081193Y0108796D01*
X0081263Y0108753D01*
X0081334Y0108712D01*
X0081407Y0108676D01*
X0081407Y0108675D02*
X0081407Y0102770D01*
X0051093Y0102770D01*
X0052683Y0040817D02*
X0079848Y0040817D01*
X0041061Y0018581D02*
X0039250Y0018581D01*
X0038330Y0019801D01*
X0037439Y0018581D02*
X0039250Y0018581D01*
X0039350Y0018641D02*
X0040110Y0019801D01*
D14*
X0053198Y0010054D02*
X0056267Y0005450D01*
X0057802Y0005450D02*
X0060871Y0008519D01*
X0060871Y0009287D01*
X0060104Y0010054D01*
X0058569Y0010054D01*
X0057802Y0009287D01*
X0056267Y0010054D02*
X0053198Y0005450D01*
X0057802Y0005450D02*
X0060871Y0005450D01*
X0063509Y0093450D02*
X0062742Y0094217D01*
X0062742Y0098054D01*
X0059871Y0095450D02*
X0056802Y0095450D01*
X0058337Y0095450D02*
X0058337Y0100054D01*
X0056802Y0098519D01*
X0055267Y0100054D02*
X0052198Y0095450D01*
X0055267Y0095450D02*
X0052198Y0100054D01*
X0063509Y0093450D02*
X0065044Y0093450D01*
X0065811Y0094217D01*
X0065811Y0098054D01*
X0067346Y0096519D02*
X0068881Y0098054D01*
X0068881Y0093450D01*
X0070415Y0093450D02*
X0067346Y0093450D01*
D15*
X0089451Y0037120D02*
X0089451Y0029380D01*
X0101049Y0029380D01*
X0101049Y0037120D01*
X0089451Y0037120D01*
X0089451Y0029120D02*
X0089451Y0021380D01*
X0101049Y0021380D01*
X0101049Y0029120D01*
X0089451Y0029120D01*
X0043120Y0025451D02*
X0035380Y0025451D01*
X0035380Y0037049D01*
X0043120Y0037049D01*
X0043120Y0025451D01*
D16*
X0095250Y0025370D02*
X0095250Y0025130D01*
X0095250Y0033130D02*
X0095250Y0033370D01*
D17*
X0094274Y0036300D02*
X0093273Y0036300D01*
X0093774Y0036300D02*
X0093774Y0037801D01*
X0093273Y0037301D01*
X0092801Y0037551D02*
X0092551Y0037801D01*
X0092050Y0037801D01*
X0091800Y0037551D01*
X0091800Y0036550D01*
X0092050Y0036300D01*
X0092551Y0036300D01*
X0092801Y0036550D01*
X0092551Y0029801D02*
X0092050Y0029801D01*
X0091800Y0029551D01*
X0091800Y0028550D01*
X0092050Y0028300D01*
X0092551Y0028300D01*
X0092801Y0028550D01*
X0093273Y0028300D02*
X0094274Y0029301D01*
X0094274Y0029551D01*
X0094024Y0029801D01*
X0093523Y0029801D01*
X0093273Y0029551D01*
X0092801Y0029551D02*
X0092551Y0029801D01*
X0093273Y0028300D02*
X0094274Y0028300D01*
X0053664Y0013410D02*
X0052930Y0013410D01*
X0053297Y0013410D02*
X0053297Y0014511D01*
X0052930Y0014144D01*
X0043550Y0016907D02*
X0043550Y0017908D01*
X0043550Y0018380D02*
X0042049Y0018380D01*
X0042049Y0019381D01*
X0042049Y0019853D02*
X0042049Y0020604D01*
X0042299Y0020854D01*
X0043300Y0020854D01*
X0043550Y0020604D01*
X0043550Y0019853D01*
X0042049Y0019853D01*
X0042799Y0018881D02*
X0042799Y0018380D01*
X0043550Y0018380D02*
X0043550Y0019381D01*
X0043550Y0021327D02*
X0043550Y0022328D01*
X0043550Y0021827D02*
X0042049Y0021827D01*
X0042549Y0021327D01*
X0042049Y0016907D02*
X0043550Y0016907D01*
X0043800Y0031853D02*
X0042299Y0031853D01*
X0042299Y0032604D01*
X0042549Y0032854D01*
X0043049Y0032854D01*
X0043300Y0032604D01*
X0043300Y0031853D01*
X0043300Y0032354D02*
X0043800Y0032854D01*
X0043800Y0033327D02*
X0043800Y0034328D01*
X0043800Y0033827D02*
X0042299Y0033827D01*
X0042799Y0033327D01*
X0051930Y0103410D02*
X0052664Y0103410D01*
X0052297Y0103410D02*
X0052297Y0104511D01*
X0051930Y0104144D01*
D18*
X0039250Y0031250D03*
M02*
