G75*
%MOIN*%
%OFA0B0*%
%FSLAX25Y25*%
%IPPOS*%
%LPD*%
%AMOC8*
5,1,8,0,0,1.08239X$1,22.5*
%
%ADD10R,0.04331X0.03937*%
%ADD11C,0.01181*%
%ADD12R,0.05906X0.06299*%
%ADD13R,0.03937X0.04331*%
%ADD14R,0.04724X0.01181*%
%ADD15R,0.01181X0.04724*%
%ADD16R,0.12598X0.07087*%
%ADD17R,0.01772X0.03937*%
%ADD18R,0.05906X0.06102*%
%ADD19R,0.01575X0.05315*%
%ADD20C,0.05150*%
%ADD21C,0.06791*%
%ADD22R,0.02756X0.01772*%
%ADD23R,0.03100X0.03500*%
%ADD24R,0.07087X0.09449*%
%ADD25R,0.06299X0.04724*%
%ADD26R,0.06299X0.12992*%
%ADD27OC8,0.05600*%
%ADD28R,0.02264X0.17717*%
%ADD29C,0.07400*%
%ADD30C,0.04000*%
%ADD31C,0.00800*%
%ADD32C,0.01000*%
%ADD33C,0.01200*%
%ADD34C,0.01600*%
%ADD35C,0.04362*%
%ADD36C,0.02400*%
%ADD37C,0.03000*%
%ADD38C,0.03200*%
D10*
X0038672Y0077640D03*
X0045365Y0077640D03*
X0079546Y0074216D03*
X0086239Y0074216D03*
X0150565Y0043421D03*
X0157258Y0043421D03*
X0210116Y0152542D03*
X0216809Y0152542D03*
X0047673Y0228812D03*
X0040980Y0228812D03*
X0041064Y0236865D03*
X0047757Y0236865D03*
X0047750Y0244903D03*
X0041057Y0244903D03*
X0041026Y0252995D03*
X0047719Y0252995D03*
D11*
X0035182Y0254230D02*
X0035182Y0251474D01*
X0032426Y0251474D01*
X0032426Y0254230D01*
X0035182Y0254230D01*
X0035182Y0252654D02*
X0032426Y0252654D01*
X0032426Y0253834D02*
X0035182Y0253834D01*
X0035112Y0246362D02*
X0035112Y0243606D01*
X0032356Y0243606D01*
X0032356Y0246362D01*
X0035112Y0246362D01*
X0035112Y0244786D02*
X0032356Y0244786D01*
X0032356Y0245966D02*
X0035112Y0245966D01*
X0035185Y0238658D02*
X0035185Y0235902D01*
X0032429Y0235902D01*
X0032429Y0238658D01*
X0035185Y0238658D01*
X0035185Y0237082D02*
X0032429Y0237082D01*
X0032429Y0238262D02*
X0035185Y0238262D01*
X0035012Y0231010D02*
X0035012Y0228254D01*
X0032256Y0228254D01*
X0032256Y0231010D01*
X0035012Y0231010D01*
X0035012Y0229434D02*
X0032256Y0229434D01*
X0032256Y0230614D02*
X0035012Y0230614D01*
X0028106Y0231010D02*
X0028106Y0228254D01*
X0025350Y0228254D01*
X0025350Y0231010D01*
X0028106Y0231010D01*
X0028106Y0229434D02*
X0025350Y0229434D01*
X0025350Y0230614D02*
X0028106Y0230614D01*
X0028279Y0235902D02*
X0028279Y0238658D01*
X0028279Y0235902D02*
X0025523Y0235902D01*
X0025523Y0238658D01*
X0028279Y0238658D01*
X0028279Y0237082D02*
X0025523Y0237082D01*
X0025523Y0238262D02*
X0028279Y0238262D01*
X0028206Y0243606D02*
X0028206Y0246362D01*
X0028206Y0243606D02*
X0025450Y0243606D01*
X0025450Y0246362D01*
X0028206Y0246362D01*
X0028206Y0244786D02*
X0025450Y0244786D01*
X0025450Y0245966D02*
X0028206Y0245966D01*
X0028277Y0251474D02*
X0028277Y0254230D01*
X0028277Y0251474D02*
X0025521Y0251474D01*
X0025521Y0254230D01*
X0028277Y0254230D01*
X0028277Y0252654D02*
X0025521Y0252654D01*
X0025521Y0253834D02*
X0028277Y0253834D01*
D12*
X0209376Y0171733D03*
X0218431Y0171733D03*
X0218431Y0161891D03*
X0209376Y0161891D03*
D13*
X0164629Y0070522D03*
X0164629Y0063829D03*
X0051062Y0155227D03*
X0051062Y0161920D03*
X0050747Y0192536D03*
X0050747Y0199229D03*
D14*
X0103531Y0170558D03*
X0103531Y0168590D03*
X0103531Y0166621D03*
X0103531Y0164653D03*
X0103531Y0162684D03*
X0103531Y0160716D03*
X0103531Y0158747D03*
X0103531Y0156779D03*
X0103531Y0154810D03*
X0103531Y0152842D03*
X0103531Y0150873D03*
X0103531Y0148905D03*
X0103531Y0146936D03*
X0103531Y0144968D03*
X0103531Y0142999D03*
X0103531Y0141031D03*
X0103531Y0139062D03*
X0103531Y0137094D03*
X0103531Y0135125D03*
X0103531Y0133157D03*
X0103531Y0131188D03*
X0103531Y0129220D03*
X0103531Y0127251D03*
X0103531Y0125283D03*
X0103531Y0123314D03*
X0164555Y0123314D03*
X0164555Y0125283D03*
X0164555Y0127251D03*
X0164555Y0129220D03*
X0164555Y0131188D03*
X0164555Y0133157D03*
X0164555Y0135125D03*
X0164555Y0137094D03*
X0164555Y0139062D03*
X0164555Y0141031D03*
X0164555Y0142999D03*
X0164555Y0144968D03*
X0164555Y0146936D03*
X0164555Y0148905D03*
X0164555Y0150873D03*
X0164555Y0152842D03*
X0164555Y0154810D03*
X0164555Y0156779D03*
X0164555Y0158747D03*
X0164555Y0160716D03*
X0164555Y0162684D03*
X0164555Y0164653D03*
X0164555Y0166621D03*
X0164555Y0168590D03*
X0164555Y0170558D03*
D15*
X0157665Y0177448D03*
X0155696Y0177448D03*
X0153728Y0177448D03*
X0151759Y0177448D03*
X0149791Y0177448D03*
X0147822Y0177448D03*
X0145854Y0177448D03*
X0143885Y0177448D03*
X0141917Y0177448D03*
X0139948Y0177448D03*
X0137980Y0177448D03*
X0136011Y0177448D03*
X0134043Y0177448D03*
X0132074Y0177448D03*
X0130106Y0177448D03*
X0128137Y0177448D03*
X0126169Y0177448D03*
X0124200Y0177448D03*
X0122232Y0177448D03*
X0120263Y0177448D03*
X0118295Y0177448D03*
X0116326Y0177448D03*
X0114358Y0177448D03*
X0112389Y0177448D03*
X0110421Y0177448D03*
X0110421Y0116424D03*
X0112389Y0116424D03*
X0114358Y0116424D03*
X0116326Y0116424D03*
X0118295Y0116424D03*
X0120263Y0116424D03*
X0122232Y0116424D03*
X0124200Y0116424D03*
X0126169Y0116424D03*
X0128137Y0116424D03*
X0130106Y0116424D03*
X0132074Y0116424D03*
X0134043Y0116424D03*
X0136011Y0116424D03*
X0137980Y0116424D03*
X0139948Y0116424D03*
X0141917Y0116424D03*
X0143885Y0116424D03*
X0145854Y0116424D03*
X0147822Y0116424D03*
X0149791Y0116424D03*
X0151759Y0116424D03*
X0153728Y0116424D03*
X0155696Y0116424D03*
X0157665Y0116424D03*
D16*
X0035787Y0156099D03*
X0035787Y0178146D03*
X0035787Y0193039D03*
X0035787Y0215087D03*
D17*
X0151666Y0073268D03*
X0154225Y0073268D03*
X0156784Y0073268D03*
X0159343Y0073268D03*
X0159343Y0063622D03*
X0156784Y0063622D03*
X0154225Y0063622D03*
X0151666Y0063622D03*
D18*
X0035594Y0279820D03*
X0027720Y0279820D03*
D19*
X0026539Y0269190D03*
X0029098Y0269190D03*
X0031657Y0269190D03*
X0034216Y0269190D03*
X0036775Y0269190D03*
D20*
X0041499Y0269190D03*
X0021814Y0269190D03*
D21*
X0017493Y0279820D03*
X0045820Y0279820D03*
D22*
X0030860Y0132344D03*
X0030860Y0129195D03*
X0024758Y0129195D03*
X0024758Y0132344D03*
D23*
X0037383Y0109244D03*
X0041183Y0101244D03*
X0033583Y0101244D03*
D24*
X0028911Y0089407D03*
X0044856Y0089407D03*
D25*
X0054329Y0087153D03*
X0054329Y0078098D03*
X0054329Y0096208D03*
D26*
X0079526Y0087153D03*
D27*
X0099043Y0088786D03*
X0109043Y0088786D03*
X0119043Y0088786D03*
X0129043Y0088786D03*
X0139043Y0088786D03*
X0149043Y0088786D03*
X0159043Y0088786D03*
X0169043Y0088786D03*
X0169043Y0098786D03*
X0159043Y0098786D03*
X0149043Y0098786D03*
X0139043Y0098786D03*
X0129043Y0098786D03*
X0119043Y0098786D03*
X0109043Y0098786D03*
X0099043Y0098786D03*
X0085893Y0111936D03*
X0085893Y0121936D03*
X0075893Y0121936D03*
X0075893Y0111936D03*
X0075893Y0131936D03*
X0075893Y0141936D03*
X0075893Y0151936D03*
X0075893Y0161936D03*
X0075893Y0171936D03*
X0075893Y0181936D03*
X0085893Y0181936D03*
X0085893Y0171936D03*
X0085893Y0161936D03*
X0085893Y0151936D03*
X0085893Y0141936D03*
X0085893Y0131936D03*
X0182192Y0131936D03*
X0182192Y0141936D03*
X0182192Y0151936D03*
X0182192Y0161936D03*
X0182192Y0171936D03*
X0182192Y0181936D03*
X0192192Y0181936D03*
X0192192Y0171936D03*
X0192192Y0161936D03*
X0192192Y0151936D03*
X0192192Y0141936D03*
X0192192Y0131936D03*
X0192192Y0121936D03*
X0192192Y0111936D03*
X0182192Y0111936D03*
X0182192Y0121936D03*
D28*
X0183038Y0014449D03*
X0179888Y0014449D03*
X0176739Y0014449D03*
X0173589Y0014449D03*
X0170440Y0014449D03*
X0167290Y0014449D03*
X0164140Y0014449D03*
X0160991Y0014449D03*
X0157841Y0014449D03*
X0154692Y0014449D03*
X0151542Y0014449D03*
X0148392Y0014449D03*
X0145243Y0014449D03*
X0142093Y0014449D03*
X0138944Y0014449D03*
X0135794Y0014449D03*
X0120046Y0014449D03*
X0116896Y0014449D03*
X0113747Y0014449D03*
X0110597Y0014449D03*
X0107447Y0014449D03*
X0104298Y0014449D03*
X0101148Y0014449D03*
X0097999Y0014449D03*
X0094849Y0014449D03*
X0091699Y0014449D03*
X0088550Y0014449D03*
X0085400Y0014449D03*
X0082251Y0014449D03*
X0079101Y0014449D03*
X0075951Y0014449D03*
X0072802Y0014449D03*
X0069652Y0014449D03*
X0066503Y0014449D03*
X0063353Y0014449D03*
X0060203Y0014449D03*
X0057054Y0014449D03*
X0053904Y0014449D03*
X0050755Y0014449D03*
X0047605Y0014449D03*
X0044455Y0014449D03*
X0041306Y0014449D03*
X0038156Y0014449D03*
X0035007Y0014449D03*
X0031857Y0014449D03*
X0028707Y0014449D03*
X0025558Y0014449D03*
X0022408Y0014449D03*
X0186188Y0014449D03*
X0189337Y0014449D03*
X0192487Y0014449D03*
X0195636Y0014449D03*
X0198786Y0014449D03*
X0201936Y0014449D03*
X0205085Y0014449D03*
X0208235Y0014449D03*
X0211384Y0014449D03*
X0214534Y0014449D03*
X0217684Y0014449D03*
X0220833Y0014449D03*
D29*
X0145100Y0203118D03*
X0135100Y0203118D03*
X0125100Y0203118D03*
X0115100Y0203118D03*
X0105100Y0203118D03*
X0095100Y0203118D03*
X0085100Y0203118D03*
D30*
X0114254Y0170956D03*
X0109395Y0158545D03*
X0133675Y0155310D03*
X0153185Y0157689D03*
X0158152Y0161515D03*
X0158180Y0166219D03*
X0153516Y0171478D03*
X0155682Y0188439D03*
X0150335Y0188545D03*
X0158479Y0153699D03*
X0158857Y0148891D03*
X0158241Y0143009D03*
X0155772Y0123775D03*
X0166711Y0116665D03*
X0152570Y0082412D03*
X0156330Y0079078D03*
X0171626Y0069127D03*
X0130185Y0123074D03*
X0109288Y0122333D03*
X0109476Y0127041D03*
X0069732Y0116844D03*
X0065679Y0123118D03*
X0058968Y0109814D03*
X0077991Y0067861D03*
X0110338Y0071563D03*
X0060537Y0154884D03*
D31*
X0075893Y0151936D02*
X0080893Y0146936D01*
X0103531Y0146936D01*
X0103531Y0144968D02*
X0088925Y0144968D01*
X0085893Y0141936D01*
X0083775Y0137097D02*
X0079019Y0141853D01*
X0075976Y0141853D01*
X0075893Y0141936D01*
X0075893Y0131936D02*
X0077581Y0132008D01*
X0081227Y0129082D01*
X0083905Y0126952D01*
X0088035Y0126952D01*
X0090980Y0129897D01*
X0091039Y0129897D01*
X0091102Y0129960D01*
X0091102Y0134279D01*
X0095885Y0139062D01*
X0103531Y0139062D01*
X0103531Y0137094D02*
X0096263Y0137094D01*
X0092747Y0133578D01*
X0092747Y0128790D01*
X0085893Y0121936D01*
X0088055Y0117038D02*
X0080791Y0117038D01*
X0075893Y0121936D01*
X0085893Y0131936D02*
X0094988Y0141031D01*
X0103531Y0141031D01*
X0103531Y0142999D02*
X0093121Y0142999D01*
X0091413Y0141290D01*
X0091413Y0140101D01*
X0088409Y0137097D01*
X0083775Y0137097D01*
X0094729Y0132901D02*
X0094729Y0127809D01*
X0091236Y0124865D01*
X0091236Y0120220D01*
X0088055Y0117038D01*
X0097099Y0118708D02*
X0097099Y0121652D01*
X0100529Y0125082D01*
X0103330Y0125082D01*
X0103531Y0125283D01*
X0099935Y0128204D02*
X0099935Y0130704D01*
X0100580Y0131188D01*
X0103531Y0131188D01*
X0103531Y0133157D02*
X0100238Y0133157D01*
X0097428Y0131705D01*
X0094729Y0132901D02*
X0096954Y0135125D01*
X0103531Y0135125D01*
X0099935Y0128204D02*
X0097697Y0126047D01*
X0102243Y0112798D02*
X0098988Y0109542D01*
X0098988Y0098842D01*
X0099043Y0098786D01*
X0103936Y0093680D02*
X0099043Y0088786D01*
X0097999Y0087742D01*
X0097999Y0014449D01*
X0154225Y0073268D02*
X0154295Y0073338D01*
X0154295Y0075820D01*
X0152555Y0077560D01*
X0152570Y0082412D01*
X0154173Y0086853D02*
X0159564Y0081462D01*
X0159564Y0073489D01*
X0159343Y0073268D01*
X0156784Y0073268D02*
X0156330Y0073723D01*
X0156330Y0079078D01*
X0154173Y0086853D02*
X0154173Y0091043D01*
X0153858Y0093601D02*
X0149043Y0088786D01*
X0153858Y0093601D02*
X0153858Y0101483D01*
X0151334Y0104007D01*
X0146901Y0104007D01*
X0139948Y0110960D01*
X0139948Y0116424D01*
X0141917Y0116424D02*
X0141917Y0111164D01*
X0147555Y0105527D01*
X0152303Y0105527D01*
X0159043Y0098786D01*
X0160680Y0103613D02*
X0156887Y0103613D01*
X0153411Y0107122D01*
X0148294Y0107122D01*
X0143885Y0111499D01*
X0143885Y0116424D01*
X0147822Y0116424D02*
X0147924Y0116322D01*
X0147924Y0109993D01*
X0149133Y0108784D01*
X0153888Y0108784D01*
X0157444Y0105227D01*
X0162602Y0105227D01*
X0169043Y0098786D01*
X0163897Y0100397D02*
X0163897Y0093641D01*
X0159043Y0088786D01*
X0163897Y0100397D02*
X0160680Y0103613D01*
X0157665Y0116424D02*
X0157665Y0121858D01*
X0155772Y0123752D01*
X0155772Y0123775D01*
X0154429Y0125117D01*
X0154406Y0125117D01*
X0154406Y0129791D01*
X0153608Y0130589D01*
X0155037Y0130460D02*
X0119225Y0130460D01*
X0119225Y0129662D02*
X0155056Y0129662D01*
X0155075Y0128863D02*
X0119225Y0128863D01*
X0119320Y0128489D02*
X0119225Y0128442D01*
X0119225Y0132004D01*
X0150667Y0132004D01*
X0150439Y0138830D01*
X0150610Y0138602D01*
X0150534Y0144410D01*
X0154705Y0144258D01*
X0155084Y0128489D01*
X0119320Y0128489D01*
X0119225Y0131259D02*
X0155017Y0131259D01*
X0154998Y0132057D02*
X0150665Y0132057D01*
X0150639Y0132856D02*
X0154979Y0132856D01*
X0154960Y0133654D02*
X0150612Y0133654D01*
X0150585Y0134453D02*
X0154941Y0134453D01*
X0154921Y0135251D02*
X0150559Y0135251D01*
X0150532Y0136050D02*
X0154902Y0136050D01*
X0154883Y0136848D02*
X0150505Y0136848D01*
X0150479Y0137647D02*
X0154864Y0137647D01*
X0154844Y0138445D02*
X0150452Y0138445D01*
X0150602Y0139244D02*
X0154825Y0139244D01*
X0154806Y0140042D02*
X0150591Y0140042D01*
X0150581Y0140841D02*
X0154787Y0140841D01*
X0154768Y0141639D02*
X0150571Y0141639D01*
X0150560Y0142438D02*
X0154748Y0142438D01*
X0154729Y0143236D02*
X0150550Y0143236D01*
X0150539Y0144035D02*
X0154710Y0144035D01*
X0153872Y0143028D02*
X0158222Y0143028D01*
X0158241Y0143009D01*
X0164506Y0143009D01*
X0164525Y0143028D01*
X0164555Y0142999D01*
X0164555Y0144968D02*
X0168141Y0144968D01*
X0171617Y0148443D01*
X0171617Y0173039D01*
X0175620Y0177042D01*
X0187086Y0177042D01*
X0192192Y0171936D01*
X0187072Y0167056D02*
X0179924Y0167056D01*
X0174984Y0162117D01*
X0174984Y0140296D01*
X0171810Y0137094D01*
X0164555Y0137094D01*
X0164555Y0139062D02*
X0170472Y0139062D01*
X0173345Y0141935D01*
X0173345Y0168061D01*
X0177220Y0171936D01*
X0182192Y0171936D01*
X0187072Y0167056D02*
X0192192Y0161936D01*
X0182192Y0161936D02*
X0177533Y0157508D01*
X0177302Y0139638D01*
X0172921Y0135257D01*
X0164555Y0135125D01*
X0164555Y0131188D02*
X0173027Y0131188D01*
X0181037Y0131183D01*
X0182106Y0132023D01*
X0182192Y0131936D01*
X0178106Y0129220D02*
X0180121Y0127204D01*
X0186925Y0127204D01*
X0192192Y0121936D01*
X0190511Y0116897D02*
X0192314Y0115094D01*
X0192314Y0112058D01*
X0192192Y0111936D01*
X0190511Y0116897D02*
X0180503Y0116897D01*
X0177074Y0120326D01*
X0177074Y0123212D01*
X0175003Y0125283D01*
X0164555Y0125283D01*
X0164555Y0127251D02*
X0176877Y0127251D01*
X0182192Y0121936D01*
X0175362Y0119873D02*
X0180141Y0115094D01*
X0180141Y0113987D01*
X0182192Y0111936D01*
X0175362Y0119873D02*
X0175362Y0122578D01*
X0174625Y0123314D01*
X0164555Y0123314D01*
X0164555Y0129220D02*
X0178106Y0129220D01*
X0167744Y0146946D02*
X0164565Y0146946D01*
X0164555Y0146936D01*
X0167744Y0146946D02*
X0169966Y0149169D01*
X0169966Y0176128D01*
X0175775Y0181936D01*
X0182192Y0181936D01*
X0181940Y0182188D01*
X0182078Y0182050D02*
X0182192Y0181936D01*
X0164555Y0160716D02*
X0161858Y0160743D01*
X0159089Y0157974D01*
X0153442Y0157947D01*
X0153185Y0157689D01*
X0158763Y0155493D02*
X0158610Y0154532D01*
X0158479Y0153699D01*
X0158763Y0155493D02*
X0162024Y0158753D01*
X0164555Y0158747D01*
X0151907Y0177596D02*
X0151907Y0186972D01*
X0150335Y0188545D01*
X0103531Y0162684D02*
X0100515Y0162684D01*
X0099740Y0163460D01*
X0099740Y0180180D01*
X0097988Y0181932D01*
X0085897Y0181932D01*
X0085893Y0181936D01*
X0084405Y0176546D02*
X0078956Y0181995D01*
X0075952Y0181995D01*
X0075893Y0181936D01*
X0075893Y0171936D02*
X0077547Y0170283D01*
X0080523Y0170283D01*
X0084090Y0166716D01*
X0093858Y0166716D01*
X0094830Y0165744D01*
X0094670Y0159695D01*
X0099555Y0154810D01*
X0103531Y0154810D01*
X0103531Y0152842D02*
X0099334Y0152842D01*
X0093129Y0159046D01*
X0093129Y0160830D01*
X0092259Y0161700D01*
X0086129Y0161700D01*
X0085893Y0161936D01*
X0084696Y0156483D02*
X0079480Y0161700D01*
X0076129Y0161700D01*
X0075893Y0161936D01*
X0084696Y0156483D02*
X0093389Y0156483D01*
X0098999Y0150873D01*
X0103531Y0150873D01*
X0103531Y0148905D02*
X0098763Y0148905D01*
X0095826Y0151842D01*
X0085988Y0151842D01*
X0085893Y0151936D01*
X0096547Y0161782D02*
X0099172Y0159157D01*
X0099172Y0157991D01*
X0100384Y0156779D01*
X0103531Y0156779D01*
X0103531Y0160716D02*
X0100169Y0160716D01*
X0098138Y0162609D01*
X0098138Y0175381D01*
X0097110Y0176546D01*
X0084405Y0176546D01*
X0085995Y0172038D02*
X0085893Y0171936D01*
X0085995Y0172038D02*
X0095795Y0172038D01*
X0096547Y0171286D01*
X0096547Y0161782D01*
X0114358Y0116424D02*
X0114358Y0113708D01*
X0113448Y0112798D01*
X0102243Y0112798D01*
X0103936Y0109731D02*
X0103936Y0093680D01*
X0109043Y0088786D02*
X0113905Y0093649D01*
X0113905Y0104794D01*
X0120205Y0111094D01*
X0120205Y0113854D01*
X0120263Y0113912D01*
X0120263Y0116424D01*
X0118295Y0116424D02*
X0118295Y0114137D01*
X0118296Y0114135D01*
X0118296Y0113365D01*
X0118299Y0113362D01*
X0118299Y0112274D01*
X0115504Y0109479D01*
X0110192Y0109479D01*
X0109066Y0108353D01*
X0109066Y0098810D01*
X0109043Y0098786D01*
X0103936Y0109731D02*
X0105314Y0111109D01*
X0114386Y0111109D01*
X0116348Y0113071D01*
X0116348Y0113777D01*
X0116326Y0113798D01*
X0116326Y0116424D01*
X0122232Y0116424D02*
X0122232Y0101975D01*
X0119043Y0098786D01*
X0118988Y0098842D01*
X0124200Y0093944D02*
X0119043Y0088786D01*
X0124200Y0093944D02*
X0124200Y0116424D01*
X0126169Y0116424D02*
X0126169Y0101660D01*
X0129043Y0098786D01*
X0134035Y0102094D02*
X0134035Y0093779D01*
X0129043Y0088786D01*
X0139043Y0098786D02*
X0138803Y0099027D01*
X0138803Y0102783D01*
X0138055Y0103531D01*
X0135299Y0103531D01*
X0130106Y0108723D01*
X0130106Y0116424D01*
X0128137Y0116424D02*
X0128137Y0107991D01*
X0134035Y0102094D01*
D32*
X0022215Y0055249D02*
X0021169Y0016478D01*
X0028776Y0016051D01*
X0028877Y0013439D01*
X0029011Y0013213D01*
X0038974Y0013522D01*
X0038974Y0023478D01*
X0038881Y0055439D01*
X0022215Y0055249D01*
X0022215Y0055224D02*
X0038882Y0055224D01*
X0038885Y0054226D02*
X0022188Y0054226D01*
X0022161Y0053227D02*
X0038887Y0053227D01*
X0038890Y0052228D02*
X0022134Y0052228D01*
X0022107Y0051230D02*
X0038893Y0051230D01*
X0038896Y0050231D02*
X0022080Y0050231D01*
X0022053Y0049233D02*
X0038899Y0049233D01*
X0038902Y0048234D02*
X0022026Y0048234D01*
X0021999Y0047236D02*
X0038905Y0047236D01*
X0038908Y0046237D02*
X0021972Y0046237D01*
X0021945Y0045239D02*
X0038911Y0045239D01*
X0038914Y0044240D02*
X0021918Y0044240D01*
X0021891Y0043242D02*
X0038916Y0043242D01*
X0038919Y0042243D02*
X0021864Y0042243D01*
X0021837Y0041245D02*
X0038922Y0041245D01*
X0038925Y0040246D02*
X0021810Y0040246D01*
X0021783Y0039248D02*
X0038928Y0039248D01*
X0038931Y0038249D02*
X0021756Y0038249D01*
X0021729Y0037251D02*
X0038934Y0037251D01*
X0038937Y0036252D02*
X0021702Y0036252D01*
X0021676Y0035254D02*
X0038940Y0035254D01*
X0038943Y0034255D02*
X0021649Y0034255D01*
X0021622Y0033257D02*
X0038945Y0033257D01*
X0038948Y0032258D02*
X0021595Y0032258D01*
X0021568Y0031260D02*
X0038951Y0031260D01*
X0038954Y0030261D02*
X0021541Y0030261D01*
X0021514Y0029263D02*
X0038957Y0029263D01*
X0038960Y0028264D02*
X0021487Y0028264D01*
X0021460Y0027266D02*
X0038963Y0027266D01*
X0038966Y0026267D02*
X0021433Y0026267D01*
X0021406Y0025269D02*
X0038969Y0025269D01*
X0038972Y0024270D02*
X0021379Y0024270D01*
X0021352Y0023272D02*
X0038974Y0023272D01*
X0038974Y0022273D02*
X0021325Y0022273D01*
X0021298Y0021275D02*
X0038974Y0021275D01*
X0038974Y0020276D02*
X0021271Y0020276D01*
X0021244Y0019278D02*
X0038974Y0019278D01*
X0038974Y0018279D02*
X0021217Y0018279D01*
X0021190Y0017281D02*
X0038974Y0017281D01*
X0038974Y0016282D02*
X0024662Y0016282D01*
X0028806Y0015284D02*
X0038974Y0015284D01*
X0038974Y0014285D02*
X0028845Y0014285D01*
X0028967Y0013287D02*
X0031378Y0013287D01*
X0053086Y0014236D02*
X0053086Y0023804D01*
X0052661Y0024230D01*
X0052661Y0038761D01*
X0077761Y0038574D01*
X0077761Y0024507D01*
X0077472Y0024507D01*
X0076769Y0023804D01*
X0076769Y0013941D01*
X0054097Y0014420D01*
X0053086Y0014236D01*
X0053086Y0014285D02*
X0053358Y0014285D01*
X0053086Y0015284D02*
X0076769Y0015284D01*
X0076769Y0016282D02*
X0053086Y0016282D01*
X0053086Y0017281D02*
X0076769Y0017281D01*
X0076769Y0018279D02*
X0053086Y0018279D01*
X0053086Y0019278D02*
X0076769Y0019278D01*
X0076769Y0020276D02*
X0053086Y0020276D01*
X0053086Y0021275D02*
X0076769Y0021275D01*
X0076769Y0022273D02*
X0053086Y0022273D01*
X0053086Y0023272D02*
X0076769Y0023272D01*
X0077235Y0024270D02*
X0052661Y0024270D01*
X0052661Y0025269D02*
X0077761Y0025269D01*
X0077761Y0026267D02*
X0052661Y0026267D01*
X0052661Y0027266D02*
X0077761Y0027266D01*
X0077761Y0028264D02*
X0052661Y0028264D01*
X0052661Y0029263D02*
X0077761Y0029263D01*
X0077761Y0030261D02*
X0052661Y0030261D01*
X0052661Y0031260D02*
X0077761Y0031260D01*
X0077761Y0032258D02*
X0052661Y0032258D01*
X0052661Y0033257D02*
X0077761Y0033257D01*
X0077761Y0034255D02*
X0052661Y0034255D01*
X0052661Y0035254D02*
X0077761Y0035254D01*
X0077761Y0036252D02*
X0052661Y0036252D01*
X0052661Y0037251D02*
X0077761Y0037251D01*
X0077761Y0038249D02*
X0052661Y0038249D01*
X0056482Y0014976D02*
X0056482Y0014423D01*
X0056828Y0014078D01*
X0056796Y0014433D02*
X0057096Y0014433D01*
X0057163Y0014500D01*
X0056863Y0014500D01*
X0056696Y0014666D01*
X0056812Y0014449D02*
X0056796Y0014433D01*
X0057173Y0014285D02*
X0056482Y0014976D01*
X0057272Y0014515D02*
X0057571Y0014515D01*
X0060137Y0014515D01*
X0060137Y0014394D01*
X0057272Y0014515D01*
X0057173Y0014285D02*
X0060074Y0014285D01*
X0060973Y0015183D01*
X0060269Y0014515D02*
X0063287Y0014515D01*
X0063287Y0014383D01*
X0062835Y0014383D01*
X0060394Y0014383D01*
X0060269Y0014388D01*
X0060269Y0014515D01*
X0060466Y0014285D02*
X0076769Y0014285D01*
X0066410Y0014515D02*
X0066278Y0014383D01*
X0063419Y0014383D01*
X0063419Y0014515D01*
X0065985Y0014515D01*
X0066410Y0014515D01*
X0063969Y0014449D02*
X0063528Y0014009D01*
X0063183Y0014009D01*
X0062976Y0014216D01*
X0063107Y0014216D01*
X0063291Y0014400D01*
X0058340Y0014477D02*
X0058312Y0014449D01*
X0077991Y0067861D02*
X0077991Y0072661D01*
X0079546Y0074216D01*
X0054329Y0078098D02*
X0053871Y0077640D01*
X0033583Y0101244D02*
X0032702Y0101244D01*
X0032688Y0101230D01*
X0028898Y0089421D02*
X0028911Y0089407D01*
X0058968Y0109814D02*
X0073771Y0109814D01*
X0075893Y0111936D01*
X0075567Y0111610D01*
X0065010Y0111610D01*
X0061759Y0114860D01*
X0061759Y0132941D01*
X0046394Y0148306D01*
X0027987Y0148306D01*
X0024375Y0151918D01*
X0024375Y0167485D01*
X0024677Y0167183D01*
X0035524Y0167183D01*
X0035787Y0178146D02*
X0026556Y0178146D01*
X0024375Y0175964D01*
X0024375Y0167485D01*
X0035787Y0178146D02*
X0047557Y0178146D01*
X0058753Y0189342D01*
X0058753Y0193973D01*
X0059501Y0193225D01*
X0058753Y0193973D02*
X0058753Y0195930D01*
X0055723Y0198961D01*
X0051016Y0198961D01*
X0050747Y0199229D01*
X0050747Y0193039D02*
X0050747Y0192536D01*
X0050718Y0192507D01*
X0050718Y0186569D01*
X0050747Y0193039D02*
X0035787Y0193039D01*
X0040980Y0228812D02*
X0040972Y0229632D01*
X0033634Y0229632D01*
X0033807Y0237280D02*
X0041062Y0237280D01*
X0041064Y0236865D01*
X0047757Y0236865D02*
X0052931Y0236783D01*
X0052975Y0237322D01*
X0053006Y0244963D02*
X0052929Y0245040D01*
X0047750Y0244903D01*
X0041057Y0244903D02*
X0041029Y0244984D01*
X0033734Y0244984D01*
X0033804Y0252852D02*
X0040993Y0252852D01*
X0041026Y0252995D01*
X0047719Y0252995D02*
X0052425Y0252857D01*
X0052458Y0252823D01*
X0053418Y0229389D02*
X0047923Y0229389D01*
X0047673Y0228812D01*
X0105059Y0203077D02*
X0105059Y0185934D01*
X0109045Y0181948D01*
X0113287Y0181948D01*
X0114335Y0180899D01*
X0114335Y0177470D01*
X0114358Y0177448D01*
X0116326Y0177448D02*
X0116326Y0186148D01*
X0113405Y0189069D01*
X0112389Y0177448D02*
X0112389Y0172821D01*
X0114254Y0170956D01*
X0110340Y0172880D02*
X0110340Y0166007D01*
X0113014Y0163332D01*
X0117003Y0163332D01*
X0117171Y0163500D01*
X0124984Y0165814D02*
X0129279Y0165814D01*
X0129780Y0165313D01*
X0125158Y0165988D02*
X0125158Y0170786D01*
X0125158Y0165988D02*
X0124984Y0165814D01*
X0136147Y0166219D02*
X0158180Y0166219D01*
X0158175Y0161951D01*
X0158152Y0161515D01*
X0160780Y0164653D02*
X0158576Y0166098D01*
X0158411Y0166049D01*
X0158180Y0166219D01*
X0160780Y0164653D02*
X0164555Y0164653D01*
X0164555Y0162684D01*
X0164555Y0148905D02*
X0158870Y0148905D01*
X0158857Y0148891D01*
X0161006Y0141031D02*
X0159587Y0139611D01*
X0159412Y0123667D01*
X0165615Y0117463D01*
X0166577Y0107608D02*
X0157724Y0107608D01*
X0154680Y0110652D01*
X0150641Y0110652D01*
X0149791Y0111502D01*
X0149791Y0116424D01*
X0145854Y0116424D02*
X0145830Y0116424D01*
X0145830Y0121738D01*
X0137980Y0116424D02*
X0137980Y0109849D01*
X0149043Y0098786D01*
X0149043Y0095853D01*
X0144145Y0090956D01*
X0144145Y0029789D01*
X0148296Y0025639D01*
X0148296Y0014546D01*
X0148392Y0014449D01*
X0151542Y0014449D02*
X0151542Y0042444D01*
X0150565Y0043421D01*
X0153874Y0046730D01*
X0153874Y0063271D01*
X0154225Y0063622D01*
X0156784Y0063622D02*
X0156982Y0063425D01*
X0156982Y0053639D01*
X0157258Y0053363D01*
X0157258Y0043421D01*
X0154692Y0040855D01*
X0154692Y0014449D01*
X0160991Y0014449D02*
X0161118Y0014576D01*
X0161118Y0032461D01*
X0176827Y0048170D01*
X0176827Y0070743D01*
X0159043Y0088527D01*
X0159043Y0088786D01*
X0154173Y0091043D02*
X0159043Y0095912D01*
X0159043Y0098786D01*
X0164067Y0090996D02*
X0164067Y0086184D01*
X0178631Y0071619D01*
X0178631Y0046995D01*
X0164283Y0032647D01*
X0164283Y0014592D01*
X0164140Y0014449D01*
X0139043Y0014548D02*
X0138944Y0014449D01*
X0139043Y0014548D02*
X0139043Y0088786D01*
X0143115Y0092858D01*
X0143115Y0101134D01*
X0136011Y0108237D01*
X0136011Y0116424D01*
X0139043Y0098786D02*
X0139043Y0095915D01*
X0134029Y0090901D01*
X0134029Y0032716D01*
X0135669Y0031076D01*
X0135669Y0014574D01*
X0135794Y0014449D01*
X0120046Y0014449D02*
X0119933Y0014562D01*
X0119933Y0039439D01*
X0129043Y0048548D01*
X0129043Y0088786D01*
X0124227Y0091312D02*
X0124227Y0047068D01*
X0117059Y0039900D01*
X0117059Y0014611D01*
X0116896Y0014449D01*
X0159343Y0063622D02*
X0159611Y0063890D01*
X0164629Y0063829D01*
X0159343Y0073268D02*
X0159252Y0073360D01*
X0151666Y0073268D02*
X0149043Y0075892D01*
X0149043Y0088786D01*
X0164067Y0090996D02*
X0169043Y0095972D01*
X0169043Y0098786D01*
X0173273Y0100912D02*
X0173273Y0093017D01*
X0169043Y0088786D01*
X0169043Y0084396D01*
X0172298Y0081141D01*
X0204715Y0081141D01*
X0220273Y0065583D01*
X0220273Y0015009D01*
X0220833Y0014449D01*
X0173273Y0100912D02*
X0166577Y0107608D01*
X0157676Y0110638D02*
X0155827Y0112487D01*
X0155827Y0112567D01*
X0155696Y0112698D01*
X0155696Y0116424D01*
X0164555Y0133157D02*
X0173413Y0133157D01*
X0182192Y0141936D01*
X0192192Y0151936D02*
X0197830Y0151936D01*
X0202283Y0147483D01*
X0215739Y0147554D01*
X0217085Y0148900D01*
X0217085Y0152266D01*
X0216809Y0152542D01*
X0209376Y0171733D02*
X0209102Y0172007D01*
X0192192Y0171936D01*
X0164555Y0141031D02*
X0161006Y0141031D01*
X0153185Y0157689D02*
X0153242Y0157746D01*
X0153516Y0171478D02*
X0153728Y0171572D01*
X0153728Y0177448D01*
X0151907Y0177596D02*
X0151759Y0177448D01*
X0155696Y0177448D02*
X0155648Y0185689D01*
X0155682Y0188439D01*
X0143905Y0177468D02*
X0143885Y0177448D01*
X0141917Y0177448D02*
X0141860Y0177505D01*
X0110421Y0177448D02*
X0110340Y0172880D01*
X0105059Y0203077D02*
X0105100Y0203118D01*
X0051062Y0156099D02*
X0051062Y0155227D01*
X0051363Y0154926D01*
X0051363Y0148516D01*
X0051062Y0156099D02*
X0035787Y0156099D01*
X0065645Y0129342D02*
X0065679Y0123118D01*
X0070684Y0126727D02*
X0069732Y0116844D01*
X0070684Y0126727D02*
X0075893Y0131936D01*
X0072574Y0136271D02*
X0081558Y0136271D01*
X0085893Y0131936D01*
X0072574Y0136271D02*
X0065645Y0129342D01*
X0103531Y0127251D02*
X0108312Y0127251D01*
X0109476Y0127041D01*
X0103531Y0123314D02*
X0103442Y0123314D01*
X0103442Y0121091D01*
X0129043Y0098786D02*
X0129043Y0096128D01*
X0124227Y0091312D01*
D33*
X0182192Y0141936D02*
X0182192Y0151936D01*
X0182192Y0153346D01*
X0185633Y0156786D01*
X0196062Y0156786D01*
X0201062Y0161786D01*
X0209342Y0161857D01*
X0209376Y0161891D01*
X0216809Y0152542D02*
X0216892Y0152459D01*
X0219967Y0152459D01*
X0223251Y0155743D01*
X0223251Y0169054D01*
X0220571Y0171733D01*
X0218431Y0171733D01*
D34*
X0219107Y0171351D02*
X0240989Y0171351D01*
X0240989Y0169753D02*
X0223184Y0169753D01*
X0223184Y0171057D02*
X0219107Y0171057D01*
X0219107Y0172409D01*
X0223184Y0172409D01*
X0223184Y0175120D01*
X0223061Y0175577D01*
X0222824Y0175988D01*
X0222489Y0176323D01*
X0222078Y0176560D01*
X0221621Y0176683D01*
X0219107Y0176683D01*
X0219107Y0172409D01*
X0217754Y0172409D01*
X0217754Y0176683D01*
X0215241Y0176683D01*
X0214783Y0176560D01*
X0214373Y0176323D01*
X0214038Y0175988D01*
X0213801Y0175577D01*
X0213791Y0175541D01*
X0212950Y0176383D01*
X0205802Y0176383D01*
X0204923Y0175504D01*
X0204923Y0173989D01*
X0196256Y0173953D01*
X0193973Y0176236D01*
X0190579Y0176236D01*
X0187873Y0178942D01*
X0185280Y0178942D01*
X0186492Y0180155D01*
X0186492Y0183717D01*
X0183973Y0186236D01*
X0180411Y0186236D01*
X0178011Y0183836D01*
X0174988Y0183836D01*
X0168066Y0176915D01*
X0168066Y0172120D01*
X0167538Y0172649D01*
X0161571Y0172649D01*
X0160692Y0171770D01*
X0160692Y0168657D01*
X0160163Y0169187D01*
X0158876Y0169719D01*
X0157484Y0169719D01*
X0156198Y0169187D01*
X0155230Y0168219D01*
X0154795Y0168219D01*
X0155499Y0168511D01*
X0156483Y0169495D01*
X0157016Y0170782D01*
X0157016Y0172174D01*
X0156553Y0173293D01*
X0156982Y0173408D01*
X0157289Y0173586D01*
X0158877Y0173586D01*
X0159755Y0174464D01*
X0159755Y0180431D01*
X0158877Y0181310D01*
X0157289Y0181310D01*
X0156982Y0181487D01*
X0156524Y0181610D01*
X0155696Y0181610D01*
X0154869Y0181610D01*
X0154411Y0181487D01*
X0154104Y0181310D01*
X0153807Y0181310D01*
X0153807Y0187759D01*
X0153800Y0187766D01*
X0153835Y0187849D01*
X0153835Y0189241D01*
X0153302Y0190527D01*
X0152317Y0191512D01*
X0151031Y0192045D01*
X0149638Y0192045D01*
X0148352Y0191512D01*
X0147367Y0190527D01*
X0146835Y0189241D01*
X0146835Y0187849D01*
X0147367Y0186562D01*
X0148352Y0185578D01*
X0149638Y0185045D01*
X0150007Y0185045D01*
X0150007Y0181310D01*
X0118326Y0181310D01*
X0118326Y0186976D01*
X0117051Y0188251D01*
X0117086Y0188337D01*
X0117086Y0189801D01*
X0116526Y0191154D01*
X0115490Y0192189D01*
X0114138Y0192750D01*
X0112673Y0192750D01*
X0111320Y0192189D01*
X0110285Y0191154D01*
X0109724Y0189801D01*
X0109724Y0188337D01*
X0110285Y0186984D01*
X0111320Y0185948D01*
X0112673Y0185388D01*
X0114138Y0185388D01*
X0114223Y0185423D01*
X0114326Y0185319D01*
X0114326Y0183737D01*
X0114115Y0183948D01*
X0109874Y0183948D01*
X0107059Y0186763D01*
X0107059Y0198301D01*
X0108046Y0198709D01*
X0109508Y0200172D01*
X0110100Y0201601D01*
X0110692Y0200172D01*
X0112154Y0198709D01*
X0114066Y0197918D01*
X0116134Y0197918D01*
X0118046Y0198709D01*
X0119508Y0200172D01*
X0119937Y0201208D01*
X0120003Y0201007D01*
X0120396Y0200235D01*
X0120905Y0199535D01*
X0121517Y0198923D01*
X0122217Y0198414D01*
X0122989Y0198021D01*
X0123812Y0197753D01*
X0124667Y0197618D01*
X0124900Y0197618D01*
X0124900Y0202918D01*
X0125300Y0202918D01*
X0125300Y0197618D01*
X0125533Y0197618D01*
X0126388Y0197753D01*
X0127211Y0198021D01*
X0127983Y0198414D01*
X0128683Y0198923D01*
X0129295Y0199535D01*
X0129804Y0200235D01*
X0130197Y0201007D01*
X0130263Y0201208D01*
X0130692Y0200172D01*
X0132154Y0198709D01*
X0134066Y0197918D01*
X0136134Y0197918D01*
X0138046Y0198709D01*
X0139508Y0200172D01*
X0140100Y0201601D01*
X0140692Y0200172D01*
X0142154Y0198709D01*
X0144066Y0197918D01*
X0146134Y0197918D01*
X0148046Y0198709D01*
X0149508Y0200172D01*
X0150300Y0202083D01*
X0150300Y0204152D01*
X0149508Y0206063D01*
X0148046Y0207526D01*
X0146134Y0208318D01*
X0144066Y0208318D01*
X0142154Y0207526D01*
X0140692Y0206063D01*
X0140100Y0204635D01*
X0139508Y0206063D01*
X0138046Y0207526D01*
X0136134Y0208318D01*
X0134066Y0208318D01*
X0132154Y0207526D01*
X0130692Y0206063D01*
X0130263Y0205027D01*
X0130197Y0205229D01*
X0129804Y0206000D01*
X0129295Y0206701D01*
X0128683Y0207313D01*
X0127983Y0207822D01*
X0127211Y0208215D01*
X0126388Y0208482D01*
X0125533Y0208618D01*
X0125300Y0208618D01*
X0125300Y0203318D01*
X0124900Y0203318D01*
X0124900Y0208618D01*
X0124667Y0208618D01*
X0123812Y0208482D01*
X0122989Y0208215D01*
X0122217Y0207822D01*
X0121517Y0207313D01*
X0120905Y0206701D01*
X0120396Y0206000D01*
X0120003Y0205229D01*
X0119937Y0205027D01*
X0119508Y0206063D01*
X0118046Y0207526D01*
X0116134Y0208318D01*
X0114066Y0208318D01*
X0112154Y0207526D01*
X0110692Y0206063D01*
X0110100Y0204635D01*
X0109508Y0206063D01*
X0108046Y0207526D01*
X0106134Y0208318D01*
X0104066Y0208318D01*
X0102154Y0207526D01*
X0100692Y0206063D01*
X0100100Y0204635D01*
X0099508Y0206063D01*
X0098046Y0207526D01*
X0096134Y0208318D01*
X0094066Y0208318D01*
X0092154Y0207526D01*
X0090692Y0206063D01*
X0090100Y0204635D01*
X0089508Y0206063D01*
X0088046Y0207526D01*
X0086134Y0208318D01*
X0084066Y0208318D01*
X0082154Y0207526D01*
X0080692Y0206063D01*
X0079900Y0204152D01*
X0079900Y0202083D01*
X0080692Y0200172D01*
X0082154Y0198709D01*
X0084066Y0197918D01*
X0086134Y0197918D01*
X0088046Y0198709D01*
X0089508Y0200172D01*
X0090100Y0201601D01*
X0090692Y0200172D01*
X0092154Y0198709D01*
X0094066Y0197918D01*
X0096134Y0197918D01*
X0098046Y0198709D01*
X0099508Y0200172D01*
X0100100Y0201601D01*
X0100692Y0200172D01*
X0102154Y0198709D01*
X0103059Y0198335D01*
X0103059Y0185106D01*
X0107045Y0181119D01*
X0108217Y0179948D01*
X0108330Y0179948D01*
X0108330Y0174464D01*
X0108367Y0174428D01*
X0108354Y0173723D01*
X0108340Y0173708D01*
X0108340Y0172898D01*
X0108325Y0172087D01*
X0108340Y0172072D01*
X0108340Y0165178D01*
X0111014Y0162503D01*
X0112186Y0161332D01*
X0113934Y0161332D01*
X0114370Y0129623D01*
X0112744Y0128296D01*
X0112443Y0129024D01*
X0111458Y0130008D01*
X0110172Y0130541D01*
X0108779Y0130541D01*
X0107493Y0130008D01*
X0107393Y0129909D01*
X0107393Y0155598D01*
X0107413Y0155578D01*
X0108699Y0155045D01*
X0110092Y0155045D01*
X0111378Y0155578D01*
X0112363Y0156563D01*
X0112895Y0157849D01*
X0112895Y0159242D01*
X0112363Y0160528D01*
X0111378Y0161513D01*
X0110092Y0162045D01*
X0108699Y0162045D01*
X0107413Y0161513D01*
X0107393Y0161493D01*
X0107393Y0171770D01*
X0106514Y0172649D01*
X0101640Y0172649D01*
X0101640Y0180967D01*
X0099888Y0182719D01*
X0098775Y0183832D01*
X0090078Y0183832D01*
X0087674Y0186236D01*
X0084112Y0186236D01*
X0081593Y0183717D01*
X0081593Y0182045D01*
X0080856Y0182782D01*
X0080193Y0183445D01*
X0080193Y0183717D01*
X0077674Y0186236D01*
X0074112Y0186236D01*
X0071593Y0183717D01*
X0071593Y0180155D01*
X0074112Y0177636D01*
X0077674Y0177636D01*
X0079151Y0179113D01*
X0083070Y0175194D01*
X0081593Y0173717D01*
X0081593Y0171899D01*
X0081310Y0172183D01*
X0080193Y0172183D01*
X0080193Y0173717D01*
X0077674Y0176236D01*
X0074112Y0176236D01*
X0071593Y0173717D01*
X0071593Y0170155D01*
X0074112Y0167636D01*
X0077674Y0167636D01*
X0078421Y0168383D01*
X0079736Y0168383D01*
X0082997Y0165121D01*
X0081593Y0163717D01*
X0081593Y0162273D01*
X0081380Y0162487D01*
X0080267Y0163600D01*
X0080193Y0163600D01*
X0080193Y0163717D01*
X0077674Y0166236D01*
X0074112Y0166236D01*
X0071593Y0163717D01*
X0071593Y0160155D01*
X0074112Y0157636D01*
X0077674Y0157636D01*
X0079265Y0159227D01*
X0083184Y0155308D01*
X0081593Y0153717D01*
X0081593Y0150155D01*
X0082912Y0148836D01*
X0081680Y0148836D01*
X0080193Y0150323D01*
X0080193Y0153717D01*
X0077674Y0156236D01*
X0074112Y0156236D01*
X0071593Y0153717D01*
X0071593Y0150155D01*
X0074112Y0147636D01*
X0077506Y0147636D01*
X0080106Y0145036D01*
X0082912Y0145036D01*
X0081593Y0143717D01*
X0081593Y0141966D01*
X0080919Y0142640D01*
X0080193Y0143366D01*
X0080193Y0143717D01*
X0077674Y0146236D01*
X0074112Y0146236D01*
X0071593Y0143717D01*
X0071593Y0140155D01*
X0073477Y0138271D01*
X0071746Y0138271D01*
X0070574Y0137099D01*
X0064812Y0131337D01*
X0064806Y0131337D01*
X0064227Y0130752D01*
X0063759Y0130284D01*
X0063759Y0133769D01*
X0062588Y0134941D01*
X0051997Y0145531D01*
X0053062Y0145973D01*
X0053906Y0146817D01*
X0054363Y0147919D01*
X0054363Y0149113D01*
X0053906Y0150215D01*
X0053363Y0150759D01*
X0053363Y0151562D01*
X0053652Y0151562D01*
X0054531Y0152440D01*
X0054531Y0158014D01*
X0054183Y0158361D01*
X0054471Y0158649D01*
X0054708Y0159060D01*
X0054831Y0159518D01*
X0054831Y0161736D01*
X0051247Y0161736D01*
X0051247Y0162104D01*
X0054831Y0162104D01*
X0054831Y0164322D01*
X0054708Y0164780D01*
X0054471Y0165190D01*
X0054136Y0165526D01*
X0053726Y0165763D01*
X0053268Y0165885D01*
X0051247Y0165885D01*
X0051247Y0162104D01*
X0050878Y0162104D01*
X0050878Y0161736D01*
X0047294Y0161736D01*
X0047294Y0159518D01*
X0047417Y0159060D01*
X0047654Y0158649D01*
X0047942Y0158361D01*
X0047679Y0158099D01*
X0043586Y0158099D01*
X0043586Y0160263D01*
X0042707Y0161142D01*
X0028866Y0161142D01*
X0027988Y0160263D01*
X0027988Y0151934D01*
X0028866Y0151055D01*
X0042707Y0151055D01*
X0043586Y0151934D01*
X0043586Y0154099D01*
X0047594Y0154099D01*
X0047594Y0152440D01*
X0048473Y0151562D01*
X0049363Y0151562D01*
X0049363Y0150759D01*
X0048820Y0150215D01*
X0048378Y0149150D01*
X0047222Y0150306D01*
X0028815Y0150306D01*
X0026375Y0152747D01*
X0026375Y0165183D01*
X0032368Y0165183D01*
X0032404Y0165098D01*
X0033439Y0164063D01*
X0034792Y0163502D01*
X0036257Y0163502D01*
X0037609Y0164063D01*
X0038645Y0165098D01*
X0039205Y0166451D01*
X0039205Y0167916D01*
X0038645Y0169268D01*
X0037609Y0170304D01*
X0036257Y0170864D01*
X0034792Y0170864D01*
X0033439Y0170304D01*
X0032404Y0169268D01*
X0032368Y0169183D01*
X0026375Y0169183D01*
X0026375Y0175136D01*
X0027385Y0176146D01*
X0027988Y0176146D01*
X0027988Y0173981D01*
X0028866Y0173103D01*
X0042707Y0173103D01*
X0043586Y0173981D01*
X0043586Y0176146D01*
X0048386Y0176146D01*
X0059582Y0187342D01*
X0060753Y0188514D01*
X0060753Y0191649D01*
X0061501Y0192397D01*
X0061501Y0194054D01*
X0060753Y0194801D01*
X0060753Y0196759D01*
X0057723Y0199789D01*
X0056551Y0200961D01*
X0054216Y0200961D01*
X0054216Y0202016D01*
X0053337Y0202895D01*
X0048158Y0202895D01*
X0047279Y0202016D01*
X0047279Y0196442D01*
X0047839Y0195883D01*
X0047279Y0195323D01*
X0047279Y0195039D01*
X0043586Y0195039D01*
X0043586Y0197204D01*
X0042707Y0198083D01*
X0028866Y0198083D01*
X0027988Y0197204D01*
X0027988Y0188875D01*
X0028866Y0187996D01*
X0042707Y0187996D01*
X0043586Y0188875D01*
X0043586Y0191039D01*
X0047279Y0191039D01*
X0047279Y0189750D01*
X0048158Y0188871D01*
X0048718Y0188871D01*
X0048718Y0188811D01*
X0048174Y0188268D01*
X0047718Y0187166D01*
X0047718Y0185972D01*
X0048174Y0184869D01*
X0049018Y0184026D01*
X0050121Y0183569D01*
X0050152Y0183569D01*
X0046729Y0180146D01*
X0043586Y0180146D01*
X0043586Y0182311D01*
X0042707Y0183189D01*
X0028866Y0183189D01*
X0027988Y0182311D01*
X0027988Y0180146D01*
X0025728Y0180146D01*
X0023546Y0177964D01*
X0022375Y0176793D01*
X0022375Y0151090D01*
X0025987Y0147478D01*
X0027158Y0146306D01*
X0045565Y0146306D01*
X0059759Y0132112D01*
X0059759Y0114032D01*
X0061977Y0111814D01*
X0061918Y0111814D01*
X0060950Y0112781D01*
X0059664Y0113314D01*
X0058272Y0113314D01*
X0056985Y0112781D01*
X0056001Y0111797D01*
X0055468Y0110510D01*
X0055468Y0109118D01*
X0056001Y0107831D01*
X0056985Y0106847D01*
X0058272Y0106314D01*
X0059664Y0106314D01*
X0060950Y0106847D01*
X0061918Y0107814D01*
X0070717Y0107814D01*
X0074346Y0104184D01*
X0074631Y0089853D01*
X0058979Y0089853D01*
X0058979Y0090137D01*
X0058100Y0091016D01*
X0050559Y0091016D01*
X0049899Y0090356D01*
X0049899Y0092581D01*
X0050075Y0092406D01*
X0050485Y0092169D01*
X0050943Y0092046D01*
X0053948Y0092046D01*
X0053948Y0095827D01*
X0049380Y0095827D01*
X0049380Y0095272D01*
X0049021Y0095632D01*
X0048165Y0095632D01*
X0047777Y0096570D01*
X0047017Y0097329D01*
X0044233Y0100114D01*
X0044233Y0103615D01*
X0043354Y0104494D01*
X0039012Y0104494D01*
X0038133Y0103615D01*
X0038133Y0098873D01*
X0038685Y0098321D01*
X0038894Y0097816D01*
X0041078Y0095632D01*
X0040691Y0095632D01*
X0039813Y0094753D01*
X0039813Y0084062D01*
X0040691Y0083183D01*
X0042156Y0083183D01*
X0042156Y0080835D01*
X0041943Y0081049D01*
X0041532Y0081285D01*
X0041074Y0081408D01*
X0038856Y0081408D01*
X0038856Y0077824D01*
X0038488Y0077824D01*
X0038488Y0081408D01*
X0036270Y0081408D01*
X0035812Y0081285D01*
X0035401Y0081049D01*
X0035066Y0080713D01*
X0034829Y0080303D01*
X0034707Y0079845D01*
X0034707Y0077824D01*
X0038488Y0077824D01*
X0038488Y0077455D01*
X0038856Y0077455D01*
X0038856Y0073871D01*
X0041074Y0073871D01*
X0041532Y0073994D01*
X0041943Y0074231D01*
X0042231Y0074519D01*
X0042578Y0074171D01*
X0048152Y0074171D01*
X0049030Y0075050D01*
X0049030Y0075449D01*
X0049680Y0075449D01*
X0049680Y0075115D01*
X0050559Y0074236D01*
X0058100Y0074236D01*
X0058979Y0075115D01*
X0058979Y0081082D01*
X0058100Y0081960D01*
X0050559Y0081960D01*
X0049680Y0081082D01*
X0049680Y0080849D01*
X0048411Y0080849D01*
X0048152Y0081108D01*
X0047556Y0081108D01*
X0047556Y0083183D01*
X0049021Y0083183D01*
X0049844Y0084006D01*
X0050559Y0083291D01*
X0058100Y0083291D01*
X0058979Y0084170D01*
X0058979Y0084453D01*
X0074688Y0084453D01*
X0074688Y0081204D01*
X0074877Y0081015D01*
X0074877Y0080036D01*
X0075755Y0079157D01*
X0076735Y0079157D01*
X0076826Y0079066D01*
X0076826Y0077685D01*
X0076760Y0077685D01*
X0075881Y0076806D01*
X0075881Y0071626D01*
X0075991Y0071516D01*
X0075991Y0070811D01*
X0075024Y0069844D01*
X0074491Y0068557D01*
X0074491Y0067165D01*
X0075024Y0065879D01*
X0076009Y0064894D01*
X0077295Y0064361D01*
X0078688Y0064361D01*
X0079974Y0064894D01*
X0080959Y0065879D01*
X0081491Y0067165D01*
X0081491Y0068557D01*
X0080959Y0069844D01*
X0080055Y0070748D01*
X0082333Y0070748D01*
X0082681Y0071095D01*
X0082969Y0070807D01*
X0083379Y0070570D01*
X0083837Y0070448D01*
X0086055Y0070448D01*
X0086055Y0074032D01*
X0086423Y0074032D01*
X0086423Y0070448D01*
X0088641Y0070448D01*
X0089099Y0070570D01*
X0089510Y0070807D01*
X0089845Y0071142D01*
X0090082Y0071553D01*
X0090204Y0072011D01*
X0090204Y0074032D01*
X0086423Y0074032D01*
X0086423Y0074400D01*
X0090204Y0074400D01*
X0090204Y0076422D01*
X0090082Y0076879D01*
X0089845Y0077290D01*
X0089510Y0077625D01*
X0089099Y0077862D01*
X0088641Y0077985D01*
X0086423Y0077985D01*
X0086423Y0074401D01*
X0086055Y0074401D01*
X0086055Y0077985D01*
X0084094Y0077985D01*
X0084698Y0078589D01*
X0094743Y0088634D01*
X0094743Y0087005D01*
X0096099Y0085649D01*
X0096099Y0024807D01*
X0078085Y0024807D01*
X0077778Y0024984D01*
X0077320Y0025107D01*
X0075951Y0025107D01*
X0074583Y0025107D01*
X0074377Y0025052D01*
X0074171Y0025107D01*
X0072802Y0025107D01*
X0072802Y0014449D01*
X0075951Y0014449D01*
X0075951Y0014449D01*
X0075951Y0025107D01*
X0075951Y0014449D01*
X0075951Y0014449D01*
X0073020Y0014449D01*
X0072802Y0014449D01*
X0072802Y0014449D01*
X0072802Y0014449D01*
X0072802Y0025107D01*
X0071433Y0025107D01*
X0071227Y0025052D01*
X0071021Y0025107D01*
X0069652Y0025107D01*
X0068283Y0025107D01*
X0068077Y0025052D01*
X0067871Y0025107D01*
X0066503Y0025107D01*
X0066503Y0014449D01*
X0069652Y0014449D01*
X0069652Y0025107D01*
X0069652Y0014449D01*
X0069652Y0014449D01*
X0069652Y0014449D01*
X0066720Y0014449D01*
X0066503Y0014449D01*
X0066503Y0014449D01*
X0066503Y0014449D01*
X0066503Y0025107D01*
X0065134Y0025107D01*
X0064928Y0025052D01*
X0064722Y0025107D01*
X0063353Y0025107D01*
X0063353Y0014449D01*
X0063353Y0014449D01*
X0063353Y0025107D01*
X0061984Y0025107D01*
X0061778Y0025052D01*
X0061572Y0025107D01*
X0060203Y0025107D01*
X0058835Y0025107D01*
X0058629Y0025052D01*
X0058423Y0025107D01*
X0057054Y0025107D01*
X0057054Y0014449D01*
X0057271Y0014449D01*
X0060203Y0014449D01*
X0060203Y0014449D01*
X0060203Y0025107D01*
X0060203Y0014449D01*
X0060203Y0014449D01*
X0057054Y0014449D01*
X0057054Y0014449D01*
X0057054Y0014449D01*
X0057054Y0025107D01*
X0055685Y0025107D01*
X0055479Y0025052D01*
X0055273Y0025107D01*
X0053904Y0025107D01*
X0052535Y0025107D01*
X0052077Y0024984D01*
X0051770Y0024807D01*
X0040970Y0024807D01*
X0040883Y0054627D01*
X0040890Y0054634D01*
X0040881Y0055453D01*
X0040879Y0056274D01*
X0040872Y0056281D01*
X0040871Y0056290D01*
X0040285Y0056864D01*
X0039704Y0057442D01*
X0039694Y0057442D01*
X0039687Y0057449D01*
X0038866Y0057439D01*
X0038047Y0057437D01*
X0038040Y0057430D01*
X0033090Y0057373D01*
X0033090Y0083197D01*
X0033954Y0084062D01*
X0033954Y0090632D01*
X0034977Y0091655D01*
X0035388Y0092647D01*
X0035388Y0097994D01*
X0035754Y0097994D01*
X0036633Y0098873D01*
X0036633Y0103615D01*
X0035754Y0104494D01*
X0031412Y0104494D01*
X0030533Y0103615D01*
X0030533Y0102893D01*
X0030399Y0102759D01*
X0029988Y0101767D01*
X0029988Y0095632D01*
X0024746Y0095632D01*
X0023868Y0094753D01*
X0023868Y0084062D01*
X0024746Y0083183D01*
X0026890Y0083183D01*
X0026890Y0057303D01*
X0022231Y0057250D01*
X0021441Y0057271D01*
X0021409Y0057240D01*
X0021364Y0057240D01*
X0020812Y0056675D01*
X0020238Y0056131D01*
X0020237Y0056087D01*
X0020206Y0056055D01*
X0020215Y0055265D01*
X0019499Y0028743D01*
X0004654Y0028743D01*
X0004652Y0031493D01*
X0010265Y0031493D01*
X0010511Y0031739D01*
X0011584Y0032359D01*
X0011584Y0032359D01*
X0012450Y0033859D01*
X0012450Y0062424D01*
X0011249Y0063625D01*
X0009551Y0063625D01*
X0008350Y0062424D01*
X0008350Y0035593D01*
X0004650Y0035593D01*
X0004510Y0283260D01*
X0013581Y0283256D01*
X0013530Y0283205D01*
X0013050Y0282543D01*
X0012678Y0281815D01*
X0012426Y0281037D01*
X0012298Y0280229D01*
X0012298Y0280152D01*
X0017161Y0280152D01*
X0017161Y0279488D01*
X0012298Y0279488D01*
X0012298Y0279411D01*
X0012426Y0278603D01*
X0012678Y0277826D01*
X0013050Y0277097D01*
X0013530Y0276435D01*
X0014109Y0275857D01*
X0014770Y0275376D01*
X0015499Y0275005D01*
X0016277Y0274752D01*
X0017084Y0274624D01*
X0017161Y0274624D01*
X0017161Y0279488D01*
X0017825Y0279488D01*
X0017825Y0274624D01*
X0017902Y0274624D01*
X0018710Y0274752D01*
X0019488Y0275005D01*
X0020216Y0275376D01*
X0020878Y0275857D01*
X0021456Y0276435D01*
X0021937Y0277097D01*
X0022308Y0277826D01*
X0022561Y0278603D01*
X0022689Y0279411D01*
X0022689Y0279488D01*
X0017825Y0279488D01*
X0017825Y0280152D01*
X0022689Y0280152D01*
X0022689Y0280229D01*
X0022561Y0281037D01*
X0022308Y0281815D01*
X0021937Y0282543D01*
X0021456Y0283205D01*
X0021409Y0283252D01*
X0023005Y0283251D01*
X0022967Y0283108D01*
X0022967Y0280496D01*
X0027043Y0280496D01*
X0027043Y0279144D01*
X0022967Y0279144D01*
X0022967Y0276532D01*
X0023090Y0276074D01*
X0023327Y0275664D01*
X0023662Y0275329D01*
X0024072Y0275092D01*
X0024530Y0274969D01*
X0027043Y0274969D01*
X0027043Y0279144D01*
X0028396Y0279144D01*
X0028396Y0280496D01*
X0032472Y0280496D01*
X0034917Y0280496D01*
X0034917Y0279144D01*
X0028396Y0279144D01*
X0028396Y0274969D01*
X0030909Y0274969D01*
X0031367Y0275092D01*
X0031657Y0275259D01*
X0031946Y0275092D01*
X0032404Y0274969D01*
X0034917Y0274969D01*
X0034917Y0279144D01*
X0036270Y0279144D01*
X0036270Y0280496D01*
X0040346Y0280496D01*
X0040346Y0283108D01*
X0040310Y0283243D01*
X0041895Y0283242D01*
X0041857Y0283205D01*
X0041376Y0282543D01*
X0041005Y0281815D01*
X0040752Y0281037D01*
X0040624Y0280229D01*
X0040624Y0280152D01*
X0045488Y0280152D01*
X0045488Y0279488D01*
X0046152Y0279488D01*
X0046152Y0274624D01*
X0046229Y0274624D01*
X0047037Y0274752D01*
X0047814Y0275005D01*
X0048543Y0275376D01*
X0049205Y0275857D01*
X0049783Y0276435D01*
X0050264Y0277097D01*
X0050635Y0277826D01*
X0050888Y0278603D01*
X0051016Y0279411D01*
X0051016Y0279488D01*
X0046152Y0279488D01*
X0046152Y0280152D01*
X0051016Y0280152D01*
X0051016Y0280229D01*
X0050888Y0281037D01*
X0050635Y0281815D01*
X0050264Y0282543D01*
X0049783Y0283205D01*
X0049749Y0283239D01*
X0240964Y0283147D01*
X0241019Y0035396D01*
X0236860Y0035396D01*
X0236860Y0062030D01*
X0235659Y0063231D01*
X0233961Y0063231D01*
X0232760Y0062030D01*
X0232760Y0033560D01*
X0232898Y0033422D01*
X0233625Y0032162D01*
X0233625Y0032162D01*
X0233625Y0032162D01*
X0235125Y0031296D01*
X0241020Y0031296D01*
X0241021Y0028743D01*
X0224905Y0028743D01*
X0223705Y0027542D01*
X0223705Y0007050D01*
X0223465Y0007050D01*
X0223465Y0023928D01*
X0222587Y0024807D01*
X0222273Y0024807D01*
X0222273Y0066411D01*
X0221102Y0067583D01*
X0205544Y0083141D01*
X0173126Y0083141D01*
X0171302Y0084965D01*
X0173343Y0087005D01*
X0173343Y0090258D01*
X0175273Y0092188D01*
X0175273Y0101741D01*
X0174102Y0102912D01*
X0167406Y0109608D01*
X0158552Y0109608D01*
X0155898Y0112262D01*
X0156524Y0112262D01*
X0156982Y0112385D01*
X0157289Y0112562D01*
X0158877Y0112562D01*
X0159755Y0113441D01*
X0159755Y0119408D01*
X0159565Y0119598D01*
X0159565Y0122645D01*
X0159231Y0122980D01*
X0159271Y0123079D01*
X0159271Y0124471D01*
X0158739Y0125757D01*
X0157754Y0126742D01*
X0156530Y0127249D01*
X0156984Y0127702D01*
X0156984Y0127729D01*
X0157002Y0127748D01*
X0156984Y0128512D01*
X0156984Y0129276D01*
X0156965Y0129295D01*
X0156711Y0139854D01*
X0157545Y0139509D01*
X0158937Y0139509D01*
X0160224Y0140042D01*
X0160392Y0140210D01*
X0160392Y0140203D01*
X0160515Y0139745D01*
X0160692Y0139438D01*
X0160692Y0122102D01*
X0161571Y0121223D01*
X0167538Y0121223D01*
X0167729Y0121414D01*
X0173462Y0121414D01*
X0173462Y0119086D01*
X0178241Y0114307D01*
X0178241Y0114066D01*
X0177892Y0113717D01*
X0177892Y0110155D01*
X0180411Y0107636D01*
X0183973Y0107636D01*
X0186492Y0110155D01*
X0186492Y0113717D01*
X0185213Y0114997D01*
X0189172Y0114997D01*
X0187892Y0113717D01*
X0187892Y0110155D01*
X0190411Y0107636D01*
X0193973Y0107636D01*
X0196492Y0110155D01*
X0196492Y0113717D01*
X0193973Y0116236D01*
X0193859Y0116236D01*
X0193101Y0116994D01*
X0192459Y0117636D01*
X0193973Y0117636D01*
X0196492Y0120155D01*
X0196492Y0123717D01*
X0193973Y0126236D01*
X0190579Y0126236D01*
X0187712Y0129104D01*
X0185441Y0129104D01*
X0186492Y0130155D01*
X0186492Y0133717D01*
X0183973Y0136236D01*
X0180411Y0136236D01*
X0177892Y0133717D01*
X0177892Y0133085D01*
X0176171Y0133086D01*
X0180721Y0137636D01*
X0183973Y0137636D01*
X0186492Y0140155D01*
X0186492Y0143717D01*
X0184292Y0145917D01*
X0184292Y0147955D01*
X0186492Y0150155D01*
X0186492Y0153717D01*
X0186013Y0154196D01*
X0186503Y0154686D01*
X0188437Y0154686D01*
X0187592Y0153841D01*
X0187592Y0152036D01*
X0192092Y0152036D01*
X0192092Y0151836D01*
X0187592Y0151836D01*
X0187592Y0150031D01*
X0190287Y0147336D01*
X0192092Y0147336D01*
X0192092Y0151836D01*
X0192292Y0151836D01*
X0192292Y0147336D01*
X0194098Y0147336D01*
X0196792Y0150031D01*
X0196792Y0151836D01*
X0192292Y0151836D01*
X0192292Y0152036D01*
X0196792Y0152036D01*
X0196792Y0153841D01*
X0195947Y0154686D01*
X0196932Y0154686D01*
X0201940Y0159694D01*
X0204923Y0159719D01*
X0204923Y0158120D01*
X0205802Y0157241D01*
X0207076Y0157241D01*
X0207076Y0155756D01*
X0206451Y0155132D01*
X0206451Y0149952D01*
X0207330Y0149073D01*
X0212903Y0149073D01*
X0213251Y0149421D01*
X0213539Y0149133D01*
X0213949Y0148896D01*
X0214407Y0148773D01*
X0216625Y0148773D01*
X0216625Y0152357D01*
X0216993Y0152357D01*
X0216993Y0148773D01*
X0219211Y0148773D01*
X0219669Y0148896D01*
X0220080Y0149133D01*
X0220415Y0149468D01*
X0220652Y0149878D01*
X0220774Y0150336D01*
X0220774Y0152357D01*
X0216993Y0152357D01*
X0216993Y0152726D01*
X0216625Y0152726D01*
X0216625Y0156310D01*
X0214407Y0156310D01*
X0213949Y0156188D01*
X0213539Y0155951D01*
X0213251Y0155663D01*
X0212903Y0156010D01*
X0211676Y0156010D01*
X0211676Y0157241D01*
X0212950Y0157241D01*
X0213828Y0158120D01*
X0213828Y0165661D01*
X0212950Y0166540D01*
X0205802Y0166540D01*
X0204923Y0165661D01*
X0204923Y0163919D01*
X0201053Y0163886D01*
X0200193Y0163886D01*
X0200185Y0163879D01*
X0200175Y0163879D01*
X0199571Y0163265D01*
X0196492Y0160186D01*
X0196492Y0163717D01*
X0193973Y0166236D01*
X0190579Y0166236D01*
X0188972Y0167843D01*
X0187859Y0168956D01*
X0185294Y0168956D01*
X0186492Y0170155D01*
X0186492Y0173717D01*
X0185067Y0175142D01*
X0186299Y0175142D01*
X0187892Y0173549D01*
X0187892Y0170155D01*
X0190411Y0167636D01*
X0193973Y0167636D01*
X0196290Y0169953D01*
X0204923Y0169989D01*
X0204923Y0167962D01*
X0205802Y0167083D01*
X0212950Y0167083D01*
X0213791Y0167925D01*
X0213801Y0167889D01*
X0214038Y0167478D01*
X0214373Y0167143D01*
X0214783Y0166906D01*
X0215241Y0166783D01*
X0217754Y0166783D01*
X0217754Y0171057D01*
X0219107Y0171057D01*
X0219107Y0166783D01*
X0221621Y0166783D01*
X0222078Y0166906D01*
X0222489Y0167143D01*
X0222824Y0167478D01*
X0223061Y0167889D01*
X0223184Y0168346D01*
X0223184Y0171057D01*
X0223184Y0172950D02*
X0240989Y0172950D01*
X0240988Y0174548D02*
X0223184Y0174548D01*
X0222665Y0176147D02*
X0240988Y0176147D01*
X0240988Y0177745D02*
X0194507Y0177745D01*
X0194098Y0177336D02*
X0196792Y0180031D01*
X0196792Y0181836D01*
X0192292Y0181836D01*
X0192292Y0177336D01*
X0194098Y0177336D01*
X0194063Y0176147D02*
X0205566Y0176147D01*
X0204923Y0174548D02*
X0195661Y0174548D01*
X0192092Y0177336D02*
X0192092Y0181836D01*
X0187592Y0181836D01*
X0187592Y0180031D01*
X0190287Y0177336D01*
X0192092Y0177336D01*
X0192092Y0177745D02*
X0192292Y0177745D01*
X0192292Y0179344D02*
X0192092Y0179344D01*
X0192092Y0180942D02*
X0192292Y0180942D01*
X0192292Y0181836D02*
X0192092Y0181836D01*
X0192092Y0182036D01*
X0187592Y0182036D01*
X0187592Y0183841D01*
X0190287Y0186536D01*
X0192092Y0186536D01*
X0192092Y0182036D01*
X0192292Y0182036D01*
X0192292Y0186536D01*
X0194098Y0186536D01*
X0196792Y0183841D01*
X0196792Y0182036D01*
X0192292Y0182036D01*
X0192292Y0181836D01*
X0192292Y0182541D02*
X0192092Y0182541D01*
X0192092Y0184139D02*
X0192292Y0184139D01*
X0192292Y0185738D02*
X0192092Y0185738D01*
X0189489Y0185738D02*
X0184472Y0185738D01*
X0186070Y0184139D02*
X0187890Y0184139D01*
X0187592Y0182541D02*
X0186492Y0182541D01*
X0186492Y0180942D02*
X0187592Y0180942D01*
X0188279Y0179344D02*
X0185681Y0179344D01*
X0185661Y0174548D02*
X0186893Y0174548D01*
X0186492Y0172950D02*
X0187892Y0172950D01*
X0187892Y0171351D02*
X0186492Y0171351D01*
X0186090Y0169753D02*
X0188295Y0169753D01*
X0188661Y0168154D02*
X0189893Y0168154D01*
X0190260Y0166556D02*
X0240990Y0166556D01*
X0240990Y0168154D02*
X0223132Y0168154D01*
X0222005Y0166540D02*
X0222884Y0165661D01*
X0222884Y0158120D01*
X0222005Y0157241D01*
X0214857Y0157241D01*
X0213978Y0158120D01*
X0213978Y0165661D01*
X0214857Y0166540D01*
X0222005Y0166540D01*
X0222884Y0164957D02*
X0240990Y0164957D01*
X0240991Y0163359D02*
X0222884Y0163359D01*
X0222884Y0161760D02*
X0240991Y0161760D01*
X0240992Y0160161D02*
X0222884Y0160161D01*
X0222884Y0158563D02*
X0240992Y0158563D01*
X0240992Y0156964D02*
X0211676Y0156964D01*
X0213828Y0158563D02*
X0213978Y0158563D01*
X0213978Y0160161D02*
X0213828Y0160161D01*
X0213828Y0161760D02*
X0213978Y0161760D01*
X0213978Y0163359D02*
X0213828Y0163359D01*
X0213828Y0164957D02*
X0213978Y0164957D01*
X0217754Y0168154D02*
X0219107Y0168154D01*
X0219107Y0169753D02*
X0217754Y0169753D01*
X0217754Y0172950D02*
X0219107Y0172950D01*
X0219107Y0174548D02*
X0217754Y0174548D01*
X0217754Y0176147D02*
X0219107Y0176147D01*
X0214196Y0176147D02*
X0213186Y0176147D01*
X0204923Y0169753D02*
X0196090Y0169753D01*
X0194491Y0168154D02*
X0204923Y0168154D01*
X0204923Y0164957D02*
X0195252Y0164957D01*
X0196492Y0163359D02*
X0199663Y0163359D01*
X0198066Y0161760D02*
X0196492Y0161760D01*
X0200809Y0158563D02*
X0204923Y0158563D01*
X0207076Y0156964D02*
X0199210Y0156964D01*
X0197612Y0155366D02*
X0206685Y0155366D01*
X0206451Y0153767D02*
X0196792Y0153767D01*
X0196792Y0152169D02*
X0206451Y0152169D01*
X0206451Y0150570D02*
X0196792Y0150570D01*
X0195734Y0148972D02*
X0213817Y0148972D01*
X0216625Y0148972D02*
X0216993Y0148972D01*
X0216993Y0150570D02*
X0216625Y0150570D01*
X0216625Y0152169D02*
X0216993Y0152169D01*
X0216993Y0152726D02*
X0220774Y0152726D01*
X0220774Y0154747D01*
X0220652Y0155205D01*
X0220415Y0155615D01*
X0220080Y0155951D01*
X0219669Y0156188D01*
X0219211Y0156310D01*
X0216993Y0156310D01*
X0216993Y0152726D01*
X0216993Y0153767D02*
X0216625Y0153767D01*
X0216625Y0155366D02*
X0216993Y0155366D01*
X0220559Y0155366D02*
X0240993Y0155366D01*
X0240993Y0153767D02*
X0220774Y0153767D01*
X0220774Y0152169D02*
X0240993Y0152169D01*
X0240994Y0150570D02*
X0220774Y0150570D01*
X0219801Y0148972D02*
X0240994Y0148972D01*
X0240994Y0147373D02*
X0194135Y0147373D01*
X0194098Y0146536D02*
X0192292Y0146536D01*
X0192292Y0142036D01*
X0192092Y0142036D01*
X0192092Y0141836D01*
X0187592Y0141836D01*
X0187592Y0140031D01*
X0190287Y0137336D01*
X0192092Y0137336D01*
X0192092Y0141836D01*
X0192292Y0141836D01*
X0192292Y0137336D01*
X0194098Y0137336D01*
X0196792Y0140031D01*
X0196792Y0141836D01*
X0192292Y0141836D01*
X0192292Y0142036D01*
X0196792Y0142036D01*
X0196792Y0143841D01*
X0194098Y0146536D01*
X0194859Y0145775D02*
X0240995Y0145775D01*
X0240995Y0144176D02*
X0196457Y0144176D01*
X0196792Y0142578D02*
X0240995Y0142578D01*
X0240996Y0140979D02*
X0196792Y0140979D01*
X0196142Y0139381D02*
X0240996Y0139381D01*
X0240997Y0137782D02*
X0194544Y0137782D01*
X0194098Y0136536D02*
X0192292Y0136536D01*
X0192292Y0132036D01*
X0192092Y0132036D01*
X0192092Y0131836D01*
X0187592Y0131836D01*
X0187592Y0130031D01*
X0190287Y0127336D01*
X0192092Y0127336D01*
X0192092Y0131836D01*
X0192292Y0131836D01*
X0192292Y0127336D01*
X0194098Y0127336D01*
X0196792Y0130031D01*
X0196792Y0131836D01*
X0192292Y0131836D01*
X0192292Y0132036D01*
X0196792Y0132036D01*
X0196792Y0133841D01*
X0194098Y0136536D01*
X0194450Y0136184D02*
X0240997Y0136184D01*
X0240997Y0134585D02*
X0196048Y0134585D01*
X0196792Y0132987D02*
X0240998Y0132987D01*
X0240998Y0131388D02*
X0196792Y0131388D01*
X0196551Y0129790D02*
X0240998Y0129790D01*
X0240999Y0128191D02*
X0194953Y0128191D01*
X0192292Y0128191D02*
X0192092Y0128191D01*
X0192092Y0129790D02*
X0192292Y0129790D01*
X0192292Y0131388D02*
X0192092Y0131388D01*
X0192092Y0132036D02*
X0187592Y0132036D01*
X0187592Y0133841D01*
X0190287Y0136536D01*
X0192092Y0136536D01*
X0192092Y0132036D01*
X0192092Y0132987D02*
X0192292Y0132987D01*
X0192292Y0134585D02*
X0192092Y0134585D01*
X0192092Y0136184D02*
X0192292Y0136184D01*
X0192292Y0137782D02*
X0192092Y0137782D01*
X0192092Y0139381D02*
X0192292Y0139381D01*
X0192292Y0140979D02*
X0192092Y0140979D01*
X0192092Y0142036D02*
X0187592Y0142036D01*
X0187592Y0143841D01*
X0190287Y0146536D01*
X0192092Y0146536D01*
X0192092Y0142036D01*
X0192092Y0142578D02*
X0192292Y0142578D01*
X0192292Y0144176D02*
X0192092Y0144176D01*
X0192092Y0145775D02*
X0192292Y0145775D01*
X0192292Y0147373D02*
X0192092Y0147373D01*
X0192092Y0148972D02*
X0192292Y0148972D01*
X0192292Y0150570D02*
X0192092Y0150570D01*
X0190250Y0147373D02*
X0184292Y0147373D01*
X0184435Y0145775D02*
X0189526Y0145775D01*
X0187927Y0144176D02*
X0186033Y0144176D01*
X0186492Y0142578D02*
X0187592Y0142578D01*
X0187592Y0140979D02*
X0186492Y0140979D01*
X0185718Y0139381D02*
X0188242Y0139381D01*
X0189841Y0137782D02*
X0184120Y0137782D01*
X0184026Y0136184D02*
X0189935Y0136184D01*
X0188336Y0134585D02*
X0185624Y0134585D01*
X0186492Y0132987D02*
X0187592Y0132987D01*
X0187592Y0131388D02*
X0186492Y0131388D01*
X0186127Y0129790D02*
X0187833Y0129790D01*
X0188624Y0128191D02*
X0189432Y0128191D01*
X0190223Y0126593D02*
X0240999Y0126593D01*
X0240999Y0124994D02*
X0195215Y0124994D01*
X0196492Y0123396D02*
X0241000Y0123396D01*
X0241000Y0121797D02*
X0196492Y0121797D01*
X0196492Y0120199D02*
X0241000Y0120199D01*
X0241001Y0118600D02*
X0194938Y0118600D01*
X0193093Y0117002D02*
X0241001Y0117002D01*
X0241002Y0115403D02*
X0194806Y0115403D01*
X0196405Y0113805D02*
X0241002Y0113805D01*
X0241002Y0112206D02*
X0196492Y0112206D01*
X0196492Y0110608D02*
X0241003Y0110608D01*
X0241003Y0109009D02*
X0195346Y0109009D01*
X0189038Y0109009D02*
X0185346Y0109009D01*
X0186492Y0110608D02*
X0187892Y0110608D01*
X0187892Y0112206D02*
X0186492Y0112206D01*
X0186405Y0113805D02*
X0187980Y0113805D01*
X0177980Y0113805D02*
X0159755Y0113805D01*
X0159755Y0115403D02*
X0177144Y0115403D01*
X0175546Y0117002D02*
X0159755Y0117002D01*
X0159755Y0118600D02*
X0173947Y0118600D01*
X0173462Y0120199D02*
X0159565Y0120199D01*
X0159565Y0121797D02*
X0160997Y0121797D01*
X0160692Y0123396D02*
X0159271Y0123396D01*
X0159055Y0124994D02*
X0160692Y0124994D01*
X0160692Y0126593D02*
X0157903Y0126593D01*
X0156992Y0128191D02*
X0160692Y0128191D01*
X0160692Y0129790D02*
X0156953Y0129790D01*
X0156915Y0131388D02*
X0160692Y0131388D01*
X0160692Y0132987D02*
X0156876Y0132987D01*
X0156838Y0134585D02*
X0160692Y0134585D01*
X0160692Y0136184D02*
X0156799Y0136184D01*
X0156761Y0137782D02*
X0160692Y0137782D01*
X0160692Y0139381D02*
X0156722Y0139381D01*
X0155970Y0145687D02*
X0155560Y0146128D01*
X0155494Y0146131D01*
X0155446Y0146176D01*
X0154716Y0146159D01*
X0151335Y0146282D01*
X0151296Y0146320D01*
X0150556Y0146310D01*
X0149817Y0146337D01*
X0149777Y0146300D01*
X0149722Y0146299D01*
X0149206Y0145769D01*
X0148664Y0145265D01*
X0148662Y0145211D01*
X0148624Y0145172D01*
X0148634Y0144432D01*
X0148607Y0143692D01*
X0148644Y0143653D01*
X0148693Y0139895D01*
X0148669Y0139877D01*
X0148643Y0139691D01*
X0148514Y0139553D01*
X0148535Y0138933D01*
X0148447Y0138319D01*
X0148560Y0138168D01*
X0148703Y0133904D01*
X0122260Y0133904D01*
X0122126Y0160693D01*
X0125614Y0160794D01*
X0140350Y0160779D01*
X0140351Y0160777D01*
X0141304Y0160778D01*
X0142253Y0160777D01*
X0142254Y0160778D01*
X0142256Y0160778D01*
X0142925Y0161447D01*
X0143602Y0162123D01*
X0143602Y0162124D01*
X0143603Y0162125D01*
X0143603Y0163073D01*
X0143604Y0164028D01*
X0143603Y0164029D01*
X0143603Y0164219D01*
X0155230Y0164219D01*
X0155568Y0163882D01*
X0155184Y0163498D01*
X0154652Y0162211D01*
X0154652Y0160819D01*
X0155184Y0159532D01*
X0156169Y0158548D01*
X0157455Y0158015D01*
X0158599Y0158015D01*
X0157782Y0157198D01*
X0156497Y0156666D01*
X0155512Y0155681D01*
X0154979Y0154395D01*
X0154979Y0153002D01*
X0155512Y0151716D01*
X0156122Y0151106D01*
X0155890Y0150874D01*
X0155357Y0149587D01*
X0155357Y0148195D01*
X0155890Y0146909D01*
X0156657Y0146141D01*
X0156259Y0145976D01*
X0155970Y0145687D01*
X0155889Y0145775D02*
X0156057Y0145775D01*
X0155698Y0147373D02*
X0122193Y0147373D01*
X0122201Y0145775D02*
X0149212Y0145775D01*
X0148625Y0144176D02*
X0122209Y0144176D01*
X0122217Y0142578D02*
X0148658Y0142578D01*
X0148679Y0140979D02*
X0122225Y0140979D01*
X0122233Y0139381D02*
X0148520Y0139381D01*
X0148573Y0137782D02*
X0122241Y0137782D01*
X0122249Y0136184D02*
X0148627Y0136184D01*
X0148680Y0134585D02*
X0122257Y0134585D01*
X0119957Y0134585D02*
X0116602Y0134585D01*
X0116624Y0132987D02*
X0119965Y0132987D01*
X0119973Y0131388D02*
X0116646Y0131388D01*
X0116668Y0129790D02*
X0119981Y0129790D01*
X0119989Y0128191D02*
X0116254Y0128191D01*
X0116686Y0128544D02*
X0116165Y0166383D01*
X0141302Y0166558D01*
X0141303Y0163078D01*
X0125582Y0163094D01*
X0121141Y0162965D01*
X0119815Y0163070D01*
X0119997Y0126510D01*
X0110503Y0120286D01*
X0109209Y0120286D01*
X0108330Y0119408D01*
X0108330Y0118649D01*
X0107191Y0117510D01*
X0104940Y0117510D01*
X0102129Y0114698D01*
X0101456Y0114698D01*
X0098201Y0111442D01*
X0097088Y0110329D01*
X0097088Y0109657D01*
X0095471Y0108040D01*
X0095471Y0102989D01*
X0093127Y0100645D01*
X0093127Y0090270D01*
X0082398Y0079541D01*
X0079603Y0079541D01*
X0076988Y0082157D01*
X0076988Y0087027D01*
X0076627Y0105156D01*
X0071669Y0110115D01*
X0071669Y0112821D01*
X0074193Y0115345D01*
X0076717Y0115345D01*
X0079152Y0112910D01*
X0079152Y0109843D01*
X0082578Y0106417D01*
X0087986Y0106417D01*
X0091684Y0110115D01*
X0091684Y0117782D01*
X0093472Y0119570D01*
X0093418Y0119440D01*
X0093418Y0117976D01*
X0093979Y0116623D01*
X0095014Y0115587D01*
X0096367Y0115027D01*
X0097832Y0115027D01*
X0099185Y0115587D01*
X0100220Y0116623D01*
X0100780Y0117976D01*
X0100780Y0119440D01*
X0100220Y0120793D01*
X0099574Y0121439D01*
X0100478Y0122344D01*
X0106600Y0122285D01*
X0110494Y0123490D01*
X0110953Y0123865D01*
X0111458Y0124074D01*
X0112443Y0125059D01*
X0112456Y0125092D01*
X0116686Y0128544D01*
X0114368Y0129790D02*
X0111677Y0129790D01*
X0114346Y0131388D02*
X0107393Y0131388D01*
X0107393Y0132987D02*
X0114324Y0132987D01*
X0114302Y0134585D02*
X0107393Y0134585D01*
X0107393Y0136184D02*
X0114280Y0136184D01*
X0114258Y0137782D02*
X0107393Y0137782D01*
X0107393Y0139381D02*
X0114236Y0139381D01*
X0114214Y0140979D02*
X0107393Y0140979D01*
X0107393Y0142578D02*
X0114192Y0142578D01*
X0114170Y0144176D02*
X0107393Y0144176D01*
X0107393Y0145775D02*
X0114148Y0145775D01*
X0114126Y0147373D02*
X0107393Y0147373D01*
X0107393Y0148972D02*
X0114104Y0148972D01*
X0114082Y0150570D02*
X0107393Y0150570D01*
X0107393Y0152169D02*
X0114060Y0152169D01*
X0114038Y0153767D02*
X0107393Y0153767D01*
X0107393Y0155366D02*
X0107925Y0155366D01*
X0110866Y0155366D02*
X0114016Y0155366D01*
X0113994Y0156964D02*
X0112529Y0156964D01*
X0112895Y0158563D02*
X0113972Y0158563D01*
X0113950Y0160161D02*
X0112514Y0160161D01*
X0111758Y0161760D02*
X0110781Y0161760D01*
X0110159Y0163359D02*
X0107393Y0163359D01*
X0107393Y0164957D02*
X0108561Y0164957D01*
X0108340Y0166556D02*
X0107393Y0166556D01*
X0107393Y0168154D02*
X0108340Y0168154D01*
X0108340Y0169753D02*
X0107393Y0169753D01*
X0107393Y0171351D02*
X0108340Y0171351D01*
X0108340Y0172950D02*
X0101640Y0172950D01*
X0101640Y0174548D02*
X0108330Y0174548D01*
X0108330Y0176147D02*
X0101640Y0176147D01*
X0101640Y0177745D02*
X0108330Y0177745D01*
X0108330Y0179344D02*
X0101640Y0179344D01*
X0101640Y0180942D02*
X0107223Y0180942D01*
X0105624Y0182541D02*
X0100066Y0182541D01*
X0103059Y0185738D02*
X0088173Y0185738D01*
X0089771Y0184139D02*
X0104025Y0184139D01*
X0103059Y0187336D02*
X0059576Y0187336D01*
X0060753Y0188935D02*
X0103059Y0188935D01*
X0103059Y0190533D02*
X0060753Y0190533D01*
X0061236Y0192132D02*
X0103059Y0192132D01*
X0103059Y0193730D02*
X0061501Y0193730D01*
X0060753Y0195329D02*
X0103059Y0195329D01*
X0103059Y0196927D02*
X0060585Y0196927D01*
X0058986Y0198526D02*
X0082598Y0198526D01*
X0080740Y0200124D02*
X0057388Y0200124D01*
X0054216Y0201723D02*
X0080049Y0201723D01*
X0079900Y0203321D02*
X0022256Y0203321D01*
X0022256Y0201723D02*
X0047279Y0201723D01*
X0047279Y0200124D02*
X0022256Y0200124D01*
X0022256Y0198526D02*
X0047279Y0198526D01*
X0047279Y0196927D02*
X0043586Y0196927D01*
X0043586Y0195329D02*
X0047285Y0195329D01*
X0047279Y0190533D02*
X0043586Y0190533D01*
X0043586Y0188935D02*
X0048094Y0188935D01*
X0047788Y0187336D02*
X0022256Y0187336D01*
X0022256Y0185738D02*
X0047815Y0185738D01*
X0048905Y0184139D02*
X0022256Y0184139D01*
X0022256Y0182541D02*
X0028218Y0182541D01*
X0027988Y0180942D02*
X0022256Y0180942D01*
X0022256Y0179344D02*
X0024926Y0179344D01*
X0023327Y0177745D02*
X0022256Y0177745D01*
X0022256Y0176147D02*
X0022375Y0176147D01*
X0022375Y0174548D02*
X0022256Y0174548D01*
X0022256Y0172950D02*
X0022375Y0172950D01*
X0022375Y0171351D02*
X0022256Y0171351D01*
X0022256Y0169753D02*
X0022375Y0169753D01*
X0022375Y0168154D02*
X0022256Y0168154D01*
X0022256Y0166556D02*
X0022375Y0166556D01*
X0022375Y0164957D02*
X0022256Y0164957D01*
X0022256Y0163359D02*
X0022375Y0163359D01*
X0022375Y0161760D02*
X0022256Y0161760D01*
X0022256Y0160161D02*
X0022375Y0160161D01*
X0022375Y0158563D02*
X0022256Y0158563D01*
X0022256Y0156964D02*
X0022375Y0156964D01*
X0022375Y0155366D02*
X0022256Y0155366D01*
X0022256Y0153767D02*
X0022375Y0153767D01*
X0022375Y0152169D02*
X0022256Y0152169D01*
X0022256Y0150570D02*
X0022894Y0150570D01*
X0022256Y0148972D02*
X0024493Y0148972D01*
X0026091Y0147373D02*
X0022256Y0147373D01*
X0022256Y0145775D02*
X0046096Y0145775D01*
X0047695Y0144176D02*
X0022256Y0144176D01*
X0022256Y0142578D02*
X0026844Y0142578D01*
X0026735Y0142469D02*
X0026175Y0141117D01*
X0026175Y0139652D01*
X0026735Y0138299D01*
X0027771Y0137264D01*
X0029124Y0136703D01*
X0030588Y0136703D01*
X0031941Y0137264D01*
X0032006Y0137329D01*
X0034011Y0135324D01*
X0033317Y0135037D01*
X0032935Y0134655D01*
X0032859Y0134730D01*
X0028861Y0134730D01*
X0027982Y0133851D01*
X0027982Y0130837D01*
X0028050Y0130769D01*
X0027982Y0130702D01*
X0027982Y0127687D01*
X0028861Y0126809D01*
X0032859Y0126809D01*
X0032915Y0126864D01*
X0033627Y0126153D01*
X0034730Y0125696D01*
X0035923Y0125696D01*
X0036193Y0125808D01*
X0036193Y0117514D01*
X0035048Y0116369D01*
X0035048Y0112331D01*
X0034333Y0111615D01*
X0034333Y0106873D01*
X0035212Y0105994D01*
X0039554Y0105994D01*
X0040433Y0106873D01*
X0040433Y0111615D01*
X0039667Y0112381D01*
X0039667Y0113284D01*
X0039648Y0113303D01*
X0039648Y0114464D01*
X0040793Y0115609D01*
X0040793Y0135048D01*
X0034503Y0141337D01*
X0033156Y0142684D01*
X0032762Y0142684D01*
X0031941Y0143505D01*
X0030588Y0144065D01*
X0029124Y0144065D01*
X0027771Y0143505D01*
X0026735Y0142469D01*
X0026175Y0140979D02*
X0022256Y0140979D01*
X0022256Y0139381D02*
X0026287Y0139381D01*
X0027252Y0137782D02*
X0022256Y0137782D01*
X0022256Y0136218D02*
X0022256Y0251606D01*
X0023130Y0252480D01*
X0023130Y0251238D01*
X0023222Y0250777D01*
X0023402Y0250341D01*
X0023664Y0249950D01*
X0023997Y0249617D01*
X0024389Y0249355D01*
X0024824Y0249175D01*
X0025285Y0249083D01*
X0026715Y0249083D01*
X0026715Y0252667D01*
X0027083Y0252667D01*
X0027083Y0249083D01*
X0028512Y0249083D01*
X0028974Y0249175D01*
X0029409Y0249355D01*
X0029801Y0249617D01*
X0030134Y0249950D01*
X0030395Y0250341D01*
X0030456Y0250488D01*
X0031560Y0249383D01*
X0036048Y0249383D01*
X0037273Y0250608D01*
X0037273Y0250852D01*
X0037360Y0250852D01*
X0037360Y0250405D01*
X0038239Y0249526D01*
X0043812Y0249526D01*
X0044372Y0250086D01*
X0044932Y0249526D01*
X0050505Y0249526D01*
X0051113Y0250134D01*
X0051861Y0249823D01*
X0053055Y0249823D01*
X0054158Y0250280D01*
X0055001Y0251124D01*
X0055458Y0252227D01*
X0055458Y0253420D01*
X0055001Y0254523D01*
X0054158Y0255367D01*
X0053055Y0255823D01*
X0051861Y0255823D01*
X0051355Y0255614D01*
X0050505Y0256463D01*
X0044932Y0256463D01*
X0044372Y0255903D01*
X0043812Y0256463D01*
X0040083Y0256463D01*
X0040462Y0257376D01*
X0040462Y0258841D01*
X0039901Y0260194D01*
X0039081Y0261014D01*
X0039081Y0265540D01*
X0039206Y0265448D01*
X0039820Y0265136D01*
X0040475Y0264923D01*
X0041155Y0264815D01*
X0041499Y0264815D01*
X0041499Y0269190D01*
X0041499Y0269190D01*
X0041499Y0264815D01*
X0041843Y0264815D01*
X0042524Y0264923D01*
X0043179Y0265136D01*
X0043792Y0265448D01*
X0044349Y0265853D01*
X0044836Y0266340D01*
X0045241Y0266897D01*
X0045553Y0267511D01*
X0045766Y0268166D01*
X0045874Y0268846D01*
X0045874Y0269190D01*
X0041499Y0269190D01*
X0041499Y0273565D01*
X0041155Y0273565D01*
X0040475Y0273457D01*
X0039820Y0273244D01*
X0039206Y0272932D01*
X0038855Y0272676D01*
X0038184Y0273348D01*
X0030887Y0273348D01*
X0030580Y0273525D01*
X0030122Y0273648D01*
X0029098Y0273648D01*
X0029098Y0272190D01*
X0029098Y0272191D01*
X0029098Y0273648D01*
X0028073Y0273648D01*
X0027818Y0273579D01*
X0027563Y0273648D01*
X0026539Y0273648D01*
X0026539Y0272191D01*
X0026538Y0272190D01*
X0026538Y0273648D01*
X0025514Y0273648D01*
X0025056Y0273525D01*
X0024646Y0273288D01*
X0024311Y0272953D01*
X0024242Y0272834D01*
X0024107Y0272932D01*
X0023493Y0273244D01*
X0022839Y0273457D01*
X0022158Y0273565D01*
X0021814Y0273565D01*
X0021470Y0273565D01*
X0020790Y0273457D01*
X0020135Y0273244D01*
X0019521Y0272932D01*
X0018964Y0272527D01*
X0018477Y0272040D01*
X0018072Y0271483D01*
X0017760Y0270869D01*
X0017547Y0270215D01*
X0017439Y0269534D01*
X0017439Y0269190D01*
X0017439Y0268846D01*
X0017547Y0268166D01*
X0017760Y0267511D01*
X0018072Y0266897D01*
X0018477Y0266340D01*
X0018964Y0265853D01*
X0019521Y0265448D01*
X0020135Y0265136D01*
X0020790Y0264923D01*
X0021470Y0264815D01*
X0021814Y0264815D01*
X0021814Y0269190D01*
X0021814Y0269190D01*
X0017439Y0269190D01*
X0021814Y0269190D01*
X0021814Y0269190D01*
X0021814Y0264815D01*
X0022158Y0264815D01*
X0022839Y0264923D01*
X0023493Y0265136D01*
X0024107Y0265448D01*
X0024242Y0265547D01*
X0024311Y0265427D01*
X0024646Y0265092D01*
X0025056Y0264855D01*
X0025514Y0264733D01*
X0026538Y0264733D01*
X0026538Y0266190D01*
X0026539Y0266190D01*
X0026539Y0264733D01*
X0027563Y0264733D01*
X0027818Y0264801D01*
X0028073Y0264733D01*
X0028153Y0264733D01*
X0027291Y0263871D01*
X0021184Y0263871D01*
X0013961Y0256648D01*
X0012613Y0255300D01*
X0012613Y0133546D01*
X0013961Y0132198D01*
X0019187Y0126972D01*
X0022595Y0126972D01*
X0022758Y0126809D01*
X0026757Y0126809D01*
X0027636Y0127687D01*
X0027636Y0130702D01*
X0027568Y0130769D01*
X0027636Y0130837D01*
X0027636Y0133851D01*
X0026757Y0134730D01*
X0023744Y0134730D01*
X0022256Y0136218D01*
X0022291Y0136184D02*
X0033151Y0136184D01*
X0035016Y0132494D02*
X0035016Y0132344D01*
X0030860Y0132344D01*
X0027982Y0132987D02*
X0027636Y0132987D01*
X0027636Y0131388D02*
X0027982Y0131388D01*
X0027982Y0129790D02*
X0027636Y0129790D01*
X0027636Y0128191D02*
X0027982Y0128191D01*
X0030860Y0129195D02*
X0035326Y0129195D01*
X0035326Y0128696D01*
X0033187Y0126593D02*
X0004598Y0126593D01*
X0004598Y0128191D02*
X0017968Y0128191D01*
X0016369Y0129790D02*
X0004597Y0129790D01*
X0004596Y0131388D02*
X0014771Y0131388D01*
X0013961Y0132198D02*
X0013961Y0132198D01*
X0013172Y0132987D02*
X0004595Y0132987D01*
X0004594Y0134585D02*
X0012613Y0134585D01*
X0012613Y0136184D02*
X0004593Y0136184D01*
X0004592Y0137782D02*
X0012613Y0137782D01*
X0012613Y0139381D02*
X0004591Y0139381D01*
X0004590Y0140979D02*
X0012613Y0140979D01*
X0012613Y0142578D02*
X0004589Y0142578D01*
X0004589Y0144176D02*
X0012613Y0144176D01*
X0012613Y0145775D02*
X0004588Y0145775D01*
X0004587Y0147373D02*
X0012613Y0147373D01*
X0012613Y0148972D02*
X0004586Y0148972D01*
X0004585Y0150570D02*
X0012613Y0150570D01*
X0012613Y0152169D02*
X0004584Y0152169D01*
X0004583Y0153767D02*
X0012613Y0153767D01*
X0012613Y0155366D02*
X0004582Y0155366D01*
X0004581Y0156964D02*
X0012613Y0156964D01*
X0012613Y0158563D02*
X0004580Y0158563D01*
X0004579Y0160161D02*
X0012613Y0160161D01*
X0012613Y0161760D02*
X0004579Y0161760D01*
X0004578Y0163359D02*
X0012613Y0163359D01*
X0012613Y0164957D02*
X0004577Y0164957D01*
X0004576Y0166556D02*
X0012613Y0166556D01*
X0012613Y0168154D02*
X0004575Y0168154D01*
X0004574Y0169753D02*
X0012613Y0169753D01*
X0012613Y0171351D02*
X0004573Y0171351D01*
X0004572Y0172950D02*
X0012613Y0172950D01*
X0012613Y0174548D02*
X0004571Y0174548D01*
X0004570Y0176147D02*
X0012613Y0176147D01*
X0012613Y0177745D02*
X0004570Y0177745D01*
X0004569Y0179344D02*
X0012613Y0179344D01*
X0012613Y0180942D02*
X0004568Y0180942D01*
X0004567Y0182541D02*
X0012613Y0182541D01*
X0012613Y0184139D02*
X0004566Y0184139D01*
X0004565Y0185738D02*
X0012613Y0185738D01*
X0012613Y0187336D02*
X0004564Y0187336D01*
X0004563Y0188935D02*
X0012613Y0188935D01*
X0012613Y0190533D02*
X0004562Y0190533D01*
X0004561Y0192132D02*
X0012613Y0192132D01*
X0012613Y0193730D02*
X0004561Y0193730D01*
X0004560Y0195329D02*
X0012613Y0195329D01*
X0012613Y0196927D02*
X0004559Y0196927D01*
X0004558Y0198526D02*
X0012613Y0198526D01*
X0012613Y0200124D02*
X0004557Y0200124D01*
X0004556Y0201723D02*
X0012613Y0201723D01*
X0012613Y0203321D02*
X0004555Y0203321D01*
X0004554Y0204920D02*
X0012613Y0204920D01*
X0012613Y0206518D02*
X0004553Y0206518D01*
X0004552Y0208117D02*
X0012613Y0208117D01*
X0012613Y0209715D02*
X0004551Y0209715D01*
X0004551Y0211314D02*
X0012613Y0211314D01*
X0012613Y0212912D02*
X0004550Y0212912D01*
X0004549Y0214511D02*
X0012613Y0214511D01*
X0012613Y0216109D02*
X0004548Y0216109D01*
X0004547Y0217708D02*
X0012613Y0217708D01*
X0012613Y0219306D02*
X0004546Y0219306D01*
X0004545Y0220905D02*
X0012613Y0220905D01*
X0012613Y0222503D02*
X0004544Y0222503D01*
X0004543Y0224102D02*
X0012613Y0224102D01*
X0012613Y0225700D02*
X0004542Y0225700D01*
X0004542Y0227299D02*
X0012613Y0227299D01*
X0012613Y0228897D02*
X0004541Y0228897D01*
X0004540Y0230496D02*
X0012613Y0230496D01*
X0012613Y0232095D02*
X0004539Y0232095D01*
X0004538Y0233693D02*
X0012613Y0233693D01*
X0012613Y0235292D02*
X0004537Y0235292D01*
X0004536Y0236890D02*
X0012613Y0236890D01*
X0012613Y0238489D02*
X0004535Y0238489D01*
X0004534Y0240087D02*
X0012613Y0240087D01*
X0012613Y0241686D02*
X0004533Y0241686D01*
X0004533Y0243284D02*
X0012613Y0243284D01*
X0012613Y0244883D02*
X0004532Y0244883D01*
X0004531Y0246481D02*
X0012613Y0246481D01*
X0012613Y0248080D02*
X0004530Y0248080D01*
X0004529Y0249678D02*
X0012613Y0249678D01*
X0012613Y0251277D02*
X0004528Y0251277D01*
X0004527Y0252875D02*
X0012613Y0252875D01*
X0012613Y0254474D02*
X0004526Y0254474D01*
X0004525Y0256072D02*
X0013385Y0256072D01*
X0014984Y0257671D02*
X0004524Y0257671D01*
X0004523Y0259269D02*
X0016582Y0259269D01*
X0018181Y0260868D02*
X0004523Y0260868D01*
X0004522Y0262466D02*
X0019779Y0262466D01*
X0022137Y0261571D02*
X0014913Y0254348D01*
X0014913Y0134498D01*
X0020139Y0129272D01*
X0024680Y0129272D01*
X0024758Y0129195D01*
X0024758Y0132344D02*
X0022878Y0132344D01*
X0019956Y0135266D01*
X0019956Y0252558D01*
X0026498Y0259100D01*
X0029625Y0259100D01*
X0034276Y0263752D01*
X0034276Y0269130D01*
X0034216Y0269190D01*
X0036775Y0269190D02*
X0036781Y0269184D01*
X0036781Y0258109D01*
X0039227Y0260868D02*
X0240969Y0260868D01*
X0240969Y0262466D02*
X0039081Y0262466D01*
X0039081Y0264065D02*
X0240968Y0264065D01*
X0240968Y0265663D02*
X0044088Y0265663D01*
X0045427Y0267262D02*
X0240968Y0267262D01*
X0240967Y0268860D02*
X0045874Y0268860D01*
X0045874Y0269190D02*
X0045874Y0269534D01*
X0045766Y0270215D01*
X0045553Y0270869D01*
X0045241Y0271483D01*
X0044836Y0272040D01*
X0044349Y0272527D01*
X0043792Y0272932D01*
X0043179Y0273244D01*
X0042524Y0273457D01*
X0041843Y0273565D01*
X0041499Y0273565D01*
X0041499Y0269190D01*
X0041499Y0269190D01*
X0041499Y0269190D01*
X0045874Y0269190D01*
X0045687Y0270459D02*
X0240967Y0270459D01*
X0240966Y0272057D02*
X0044819Y0272057D01*
X0045411Y0274624D02*
X0045488Y0274624D01*
X0045488Y0279488D01*
X0040624Y0279488D01*
X0040624Y0279411D01*
X0040752Y0278603D01*
X0041005Y0277826D01*
X0041376Y0277097D01*
X0041857Y0276435D01*
X0042435Y0275857D01*
X0043097Y0275376D01*
X0043826Y0275005D01*
X0044603Y0274752D01*
X0045411Y0274624D01*
X0045488Y0275254D02*
X0046152Y0275254D01*
X0046152Y0276853D02*
X0045488Y0276853D01*
X0045488Y0278451D02*
X0046152Y0278451D01*
X0046152Y0280050D02*
X0240965Y0280050D01*
X0240964Y0281648D02*
X0050689Y0281648D01*
X0050838Y0278451D02*
X0240965Y0278451D01*
X0240965Y0276853D02*
X0050086Y0276853D01*
X0048304Y0275254D02*
X0240966Y0275254D01*
X0240966Y0273656D02*
X0004515Y0273656D01*
X0004514Y0275254D02*
X0015010Y0275254D01*
X0017161Y0275254D02*
X0017825Y0275254D01*
X0017825Y0276853D02*
X0017161Y0276853D01*
X0017161Y0278451D02*
X0017825Y0278451D01*
X0017825Y0280050D02*
X0027043Y0280050D01*
X0028396Y0280050D02*
X0034917Y0280050D01*
X0036270Y0280050D02*
X0045488Y0280050D01*
X0040951Y0281648D02*
X0040346Y0281648D01*
X0040346Y0279144D02*
X0036270Y0279144D01*
X0036270Y0274969D01*
X0038783Y0274969D01*
X0039241Y0275092D01*
X0039652Y0275329D01*
X0039987Y0275664D01*
X0040224Y0276074D01*
X0040346Y0276532D01*
X0040346Y0279144D01*
X0040346Y0278451D02*
X0040802Y0278451D01*
X0040346Y0276853D02*
X0041554Y0276853D01*
X0043336Y0275254D02*
X0039523Y0275254D01*
X0041499Y0272057D02*
X0041499Y0272057D01*
X0041499Y0270459D02*
X0041499Y0270459D01*
X0041499Y0268860D02*
X0041499Y0268860D01*
X0041499Y0267262D02*
X0041499Y0267262D01*
X0041499Y0265663D02*
X0041499Y0265663D01*
X0040284Y0259269D02*
X0240969Y0259269D01*
X0240970Y0257671D02*
X0040462Y0257671D01*
X0044203Y0256072D02*
X0044541Y0256072D01*
X0050896Y0256072D02*
X0240970Y0256072D01*
X0240970Y0254474D02*
X0055022Y0254474D01*
X0055458Y0252875D02*
X0240971Y0252875D01*
X0240971Y0251277D02*
X0055065Y0251277D01*
X0053603Y0247963D02*
X0052409Y0247963D01*
X0051374Y0247534D01*
X0050537Y0248371D01*
X0044964Y0248371D01*
X0044404Y0247812D01*
X0043844Y0248371D01*
X0038271Y0248371D01*
X0037392Y0247493D01*
X0037392Y0246984D01*
X0037202Y0246984D01*
X0037202Y0247228D01*
X0035978Y0248453D01*
X0031490Y0248453D01*
X0030385Y0247348D01*
X0030325Y0247495D01*
X0030063Y0247886D01*
X0029730Y0248219D01*
X0029339Y0248481D01*
X0028904Y0248661D01*
X0028442Y0248753D01*
X0027013Y0248753D01*
X0027013Y0245169D01*
X0026644Y0245169D01*
X0026644Y0248753D01*
X0025215Y0248753D01*
X0024753Y0248661D01*
X0024318Y0248481D01*
X0023927Y0248219D01*
X0023594Y0247886D01*
X0023332Y0247495D01*
X0023152Y0247059D01*
X0023060Y0246598D01*
X0023060Y0245168D01*
X0026644Y0245168D01*
X0026644Y0244800D01*
X0023060Y0244800D01*
X0023060Y0243371D01*
X0023152Y0242909D01*
X0023332Y0242474D01*
X0023594Y0242082D01*
X0023927Y0241749D01*
X0024318Y0241488D01*
X0024753Y0241308D01*
X0025215Y0241216D01*
X0026644Y0241216D01*
X0026644Y0244800D01*
X0027013Y0244800D01*
X0027013Y0241216D01*
X0028442Y0241216D01*
X0028904Y0241308D01*
X0029339Y0241488D01*
X0029730Y0241749D01*
X0030063Y0242082D01*
X0030325Y0242474D01*
X0030385Y0242620D01*
X0031490Y0241516D01*
X0035978Y0241516D01*
X0037202Y0242740D01*
X0037202Y0242984D01*
X0037392Y0242984D01*
X0037392Y0242313D01*
X0038271Y0241434D01*
X0043844Y0241434D01*
X0044404Y0241994D01*
X0044964Y0241434D01*
X0050537Y0241434D01*
X0051416Y0242313D01*
X0051416Y0242375D01*
X0052409Y0241963D01*
X0053603Y0241963D01*
X0054705Y0242420D01*
X0055549Y0243264D01*
X0056006Y0244366D01*
X0056006Y0245560D01*
X0055549Y0246663D01*
X0054705Y0247506D01*
X0053603Y0247963D01*
X0055625Y0246481D02*
X0240972Y0246481D01*
X0240973Y0244883D02*
X0056006Y0244883D01*
X0055558Y0243284D02*
X0240973Y0243284D01*
X0240973Y0241686D02*
X0050788Y0241686D01*
X0050543Y0240334D02*
X0044970Y0240334D01*
X0044410Y0239774D01*
X0043850Y0240334D01*
X0038277Y0240334D01*
X0037398Y0239455D01*
X0037398Y0239280D01*
X0037275Y0239280D01*
X0037275Y0239523D01*
X0036051Y0240748D01*
X0031563Y0240748D01*
X0030458Y0239644D01*
X0030398Y0239790D01*
X0030136Y0240181D01*
X0029803Y0240514D01*
X0029411Y0240776D01*
X0028976Y0240956D01*
X0028515Y0241048D01*
X0027085Y0241048D01*
X0027085Y0237464D01*
X0026717Y0237464D01*
X0026717Y0241048D01*
X0025288Y0241048D01*
X0024826Y0240956D01*
X0024391Y0240776D01*
X0023999Y0240514D01*
X0023666Y0240181D01*
X0023405Y0239790D01*
X0023224Y0239355D01*
X0023133Y0238893D01*
X0023133Y0237464D01*
X0026717Y0237464D01*
X0026717Y0237095D01*
X0027085Y0237095D01*
X0027085Y0233511D01*
X0028515Y0233511D01*
X0028976Y0233603D01*
X0029411Y0233783D01*
X0029803Y0234045D01*
X0030136Y0234378D01*
X0030398Y0234769D01*
X0030458Y0234916D01*
X0031563Y0233811D01*
X0036051Y0233811D01*
X0037275Y0235036D01*
X0037275Y0235280D01*
X0037398Y0235280D01*
X0037398Y0234275D01*
X0038277Y0233397D01*
X0043850Y0233397D01*
X0044410Y0233957D01*
X0044970Y0233397D01*
X0050543Y0233397D01*
X0051422Y0234275D01*
X0051422Y0234718D01*
X0052379Y0234322D01*
X0053572Y0234322D01*
X0054675Y0234778D01*
X0055519Y0235622D01*
X0055975Y0236725D01*
X0055975Y0237918D01*
X0055519Y0239021D01*
X0054675Y0239865D01*
X0053572Y0240322D01*
X0052379Y0240322D01*
X0051276Y0239865D01*
X0051144Y0239733D01*
X0050543Y0240334D01*
X0050790Y0240087D02*
X0051812Y0240087D01*
X0054138Y0240087D02*
X0240974Y0240087D01*
X0240974Y0238489D02*
X0055739Y0238489D01*
X0055975Y0236890D02*
X0240974Y0236890D01*
X0240975Y0235292D02*
X0055188Y0235292D01*
X0054015Y0232389D02*
X0052821Y0232389D01*
X0051719Y0231932D01*
X0051263Y0231477D01*
X0050459Y0232281D01*
X0044886Y0232281D01*
X0044326Y0231721D01*
X0043766Y0232281D01*
X0038193Y0232281D01*
X0037544Y0231632D01*
X0037102Y0231632D01*
X0037102Y0231876D01*
X0035877Y0233100D01*
X0031390Y0233100D01*
X0030285Y0231996D01*
X0030224Y0232142D01*
X0029963Y0232534D01*
X0029630Y0232867D01*
X0029238Y0233128D01*
X0028803Y0233308D01*
X0028341Y0233400D01*
X0026912Y0233400D01*
X0026912Y0229816D01*
X0026544Y0229816D01*
X0026544Y0233400D01*
X0025115Y0233400D01*
X0024653Y0233308D01*
X0024218Y0233128D01*
X0023826Y0232867D01*
X0023493Y0232534D01*
X0023232Y0232142D01*
X0023051Y0231707D01*
X0022960Y0231245D01*
X0022960Y0229816D01*
X0026544Y0229816D01*
X0026544Y0229447D01*
X0026912Y0229447D01*
X0026912Y0225863D01*
X0028341Y0225863D01*
X0028803Y0225955D01*
X0029238Y0226135D01*
X0029630Y0226397D01*
X0029963Y0226730D01*
X0030224Y0227121D01*
X0030285Y0227268D01*
X0031390Y0226163D01*
X0035877Y0226163D01*
X0037102Y0227388D01*
X0037102Y0227632D01*
X0037314Y0227632D01*
X0037314Y0226222D01*
X0038193Y0225344D01*
X0043766Y0225344D01*
X0044326Y0225904D01*
X0044886Y0225344D01*
X0050459Y0225344D01*
X0051338Y0226222D01*
X0051338Y0227226D01*
X0051719Y0226846D01*
X0052821Y0226389D01*
X0054015Y0226389D01*
X0055117Y0226846D01*
X0055961Y0227690D01*
X0056418Y0228792D01*
X0056418Y0229986D01*
X0055961Y0231089D01*
X0055117Y0231932D01*
X0054015Y0232389D01*
X0054726Y0232095D02*
X0240975Y0232095D01*
X0240975Y0233693D02*
X0050840Y0233693D01*
X0050646Y0232095D02*
X0052110Y0232095D01*
X0056207Y0230496D02*
X0240976Y0230496D01*
X0240976Y0228897D02*
X0056418Y0228897D01*
X0055570Y0227299D02*
X0240976Y0227299D01*
X0240977Y0225700D02*
X0050816Y0225700D01*
X0044529Y0225700D02*
X0044123Y0225700D01*
X0042781Y0220307D02*
X0042323Y0220430D01*
X0036587Y0220430D01*
X0036587Y0215887D01*
X0034987Y0215887D01*
X0034987Y0220430D01*
X0029251Y0220430D01*
X0028793Y0220307D01*
X0028382Y0220070D01*
X0028047Y0219735D01*
X0027810Y0219325D01*
X0027688Y0218867D01*
X0027688Y0215887D01*
X0034987Y0215887D01*
X0034987Y0214287D01*
X0036587Y0214287D01*
X0036587Y0215887D01*
X0043886Y0215887D01*
X0043886Y0218867D01*
X0043763Y0219325D01*
X0043526Y0219735D01*
X0043191Y0220070D01*
X0042781Y0220307D01*
X0043768Y0219306D02*
X0240978Y0219306D01*
X0240979Y0217708D02*
X0043886Y0217708D01*
X0043886Y0216109D02*
X0240979Y0216109D01*
X0240979Y0214511D02*
X0036587Y0214511D01*
X0036587Y0214287D02*
X0043886Y0214287D01*
X0043886Y0211306D01*
X0043763Y0210849D01*
X0043526Y0210438D01*
X0043191Y0210103D01*
X0042781Y0209866D01*
X0042323Y0209743D01*
X0036587Y0209743D01*
X0036587Y0214287D01*
X0036587Y0212912D02*
X0034987Y0212912D01*
X0034987Y0214287D02*
X0034987Y0209743D01*
X0029251Y0209743D01*
X0028793Y0209866D01*
X0028382Y0210103D01*
X0028047Y0210438D01*
X0027810Y0210849D01*
X0027688Y0211306D01*
X0027688Y0214287D01*
X0034987Y0214287D01*
X0034987Y0214511D02*
X0022256Y0214511D01*
X0022256Y0216109D02*
X0027688Y0216109D01*
X0027688Y0217708D02*
X0022256Y0217708D01*
X0022256Y0219306D02*
X0027805Y0219306D01*
X0022256Y0220905D02*
X0240978Y0220905D01*
X0240978Y0222503D02*
X0022256Y0222503D01*
X0022256Y0224102D02*
X0240977Y0224102D01*
X0240980Y0212912D02*
X0043886Y0212912D01*
X0043886Y0211314D02*
X0240980Y0211314D01*
X0240980Y0209715D02*
X0022256Y0209715D01*
X0022256Y0208117D02*
X0083580Y0208117D01*
X0081147Y0206518D02*
X0022256Y0206518D01*
X0022256Y0204920D02*
X0080218Y0204920D01*
X0086620Y0208117D02*
X0093580Y0208117D01*
X0091147Y0206518D02*
X0089053Y0206518D01*
X0089982Y0204920D02*
X0090218Y0204920D01*
X0090740Y0200124D02*
X0089460Y0200124D01*
X0087602Y0198526D02*
X0092598Y0198526D01*
X0095100Y0203118D02*
X0095400Y0203118D01*
X0097602Y0198526D02*
X0102598Y0198526D01*
X0100740Y0200124D02*
X0099460Y0200124D01*
X0099982Y0204920D02*
X0100218Y0204920D01*
X0101147Y0206518D02*
X0099053Y0206518D01*
X0096620Y0208117D02*
X0103580Y0208117D01*
X0106620Y0208117D02*
X0113580Y0208117D01*
X0111147Y0206518D02*
X0109053Y0206518D01*
X0109982Y0204920D02*
X0110218Y0204920D01*
X0110740Y0200124D02*
X0109460Y0200124D01*
X0107602Y0198526D02*
X0112598Y0198526D01*
X0117602Y0198526D02*
X0122063Y0198526D01*
X0120477Y0200124D02*
X0119460Y0200124D01*
X0124900Y0200124D02*
X0125300Y0200124D01*
X0125300Y0198526D02*
X0124900Y0198526D01*
X0124900Y0201723D02*
X0125300Y0201723D01*
X0125300Y0203321D02*
X0124900Y0203321D01*
X0124900Y0204920D02*
X0125300Y0204920D01*
X0125300Y0206518D02*
X0124900Y0206518D01*
X0124900Y0208117D02*
X0125300Y0208117D01*
X0127404Y0208117D02*
X0133580Y0208117D01*
X0131147Y0206518D02*
X0129428Y0206518D01*
X0122796Y0208117D02*
X0116620Y0208117D01*
X0119053Y0206518D02*
X0120772Y0206518D01*
X0128137Y0198526D02*
X0132598Y0198526D01*
X0130740Y0200124D02*
X0129723Y0200124D01*
X0136620Y0208117D02*
X0143580Y0208117D01*
X0141147Y0206518D02*
X0139053Y0206518D01*
X0139982Y0204920D02*
X0140218Y0204920D01*
X0140740Y0200124D02*
X0139460Y0200124D01*
X0137602Y0198526D02*
X0142598Y0198526D01*
X0147602Y0198526D02*
X0240983Y0198526D01*
X0240983Y0200124D02*
X0149460Y0200124D01*
X0150151Y0201723D02*
X0240982Y0201723D01*
X0240982Y0203321D02*
X0150300Y0203321D01*
X0149982Y0204920D02*
X0240981Y0204920D01*
X0240981Y0206518D02*
X0149053Y0206518D01*
X0146620Y0208117D02*
X0240981Y0208117D01*
X0240983Y0196927D02*
X0107059Y0196927D01*
X0107059Y0195329D02*
X0240984Y0195329D01*
X0240984Y0193730D02*
X0107059Y0193730D01*
X0107059Y0192132D02*
X0111262Y0192132D01*
X0110028Y0190533D02*
X0107059Y0190533D01*
X0107059Y0188935D02*
X0109724Y0188935D01*
X0110139Y0187336D02*
X0107059Y0187336D01*
X0108084Y0185738D02*
X0111828Y0185738D01*
X0109682Y0184139D02*
X0114326Y0184139D01*
X0118326Y0184139D02*
X0150007Y0184139D01*
X0150007Y0182541D02*
X0118326Y0182541D01*
X0118326Y0185738D02*
X0148192Y0185738D01*
X0147047Y0187336D02*
X0117966Y0187336D01*
X0117086Y0188935D02*
X0146835Y0188935D01*
X0147373Y0190533D02*
X0116783Y0190533D01*
X0115548Y0192132D02*
X0240984Y0192132D01*
X0240985Y0190533D02*
X0153296Y0190533D01*
X0153835Y0188935D02*
X0240985Y0188935D01*
X0240985Y0187336D02*
X0153807Y0187336D01*
X0153807Y0185738D02*
X0179913Y0185738D01*
X0178314Y0184139D02*
X0153807Y0184139D01*
X0153807Y0182541D02*
X0173692Y0182541D01*
X0172094Y0180942D02*
X0159245Y0180942D01*
X0159755Y0179344D02*
X0170495Y0179344D01*
X0168897Y0177745D02*
X0159755Y0177745D01*
X0159755Y0176147D02*
X0168066Y0176147D01*
X0168066Y0174548D02*
X0159755Y0174548D01*
X0160692Y0171351D02*
X0157016Y0171351D01*
X0156695Y0172950D02*
X0168066Y0172950D01*
X0160692Y0169753D02*
X0156590Y0169753D01*
X0155127Y0163359D02*
X0143603Y0163359D01*
X0143239Y0161760D02*
X0154652Y0161760D01*
X0154924Y0160161D02*
X0122129Y0160161D01*
X0122137Y0158563D02*
X0132384Y0158563D01*
X0132979Y0158810D02*
X0131693Y0158277D01*
X0130708Y0157292D01*
X0130175Y0156006D01*
X0130175Y0154613D01*
X0130708Y0153327D01*
X0131693Y0152342D01*
X0132979Y0151810D01*
X0134371Y0151810D01*
X0135658Y0152342D01*
X0136642Y0153327D01*
X0137175Y0154613D01*
X0137175Y0156006D01*
X0136642Y0157292D01*
X0135658Y0158277D01*
X0134371Y0158810D01*
X0132979Y0158810D01*
X0134967Y0158563D02*
X0156154Y0158563D01*
X0157218Y0156964D02*
X0136778Y0156964D01*
X0137175Y0155366D02*
X0155382Y0155366D01*
X0154979Y0153767D02*
X0136825Y0153767D01*
X0135239Y0152169D02*
X0155325Y0152169D01*
X0155764Y0150570D02*
X0122177Y0150570D01*
X0122185Y0148972D02*
X0155357Y0148972D01*
X0141303Y0163359D02*
X0116206Y0163359D01*
X0116184Y0164957D02*
X0141303Y0164957D01*
X0141302Y0166556D02*
X0140991Y0166556D01*
X0130572Y0156964D02*
X0122145Y0156964D01*
X0122153Y0155366D02*
X0130175Y0155366D01*
X0130526Y0153767D02*
X0122161Y0153767D01*
X0122169Y0152169D02*
X0132112Y0152169D01*
X0119869Y0152169D02*
X0116360Y0152169D01*
X0116338Y0153767D02*
X0119861Y0153767D01*
X0119853Y0155366D02*
X0116316Y0155366D01*
X0116294Y0156964D02*
X0119845Y0156964D01*
X0119837Y0158563D02*
X0116272Y0158563D01*
X0116250Y0160161D02*
X0119829Y0160161D01*
X0119821Y0161760D02*
X0116228Y0161760D01*
X0108010Y0161760D02*
X0107393Y0161760D01*
X0116382Y0150570D02*
X0119877Y0150570D01*
X0119885Y0148972D02*
X0116404Y0148972D01*
X0116426Y0147373D02*
X0119893Y0147373D01*
X0119901Y0145775D02*
X0116448Y0145775D01*
X0116470Y0144176D02*
X0119909Y0144176D01*
X0119917Y0142578D02*
X0116492Y0142578D01*
X0116514Y0140979D02*
X0119925Y0140979D01*
X0119933Y0139381D02*
X0116536Y0139381D01*
X0116558Y0137782D02*
X0119941Y0137782D01*
X0119949Y0136184D02*
X0116580Y0136184D01*
X0114295Y0126593D02*
X0119997Y0126593D01*
X0117685Y0124994D02*
X0112378Y0124994D01*
X0110188Y0123396D02*
X0115246Y0123396D01*
X0112807Y0121797D02*
X0099932Y0121797D01*
X0100466Y0120199D02*
X0109121Y0120199D01*
X0108282Y0118600D02*
X0100780Y0118600D01*
X0100377Y0117002D02*
X0104432Y0117002D01*
X0102833Y0115403D02*
X0098740Y0115403D01*
X0100563Y0113805D02*
X0091684Y0113805D01*
X0091684Y0115403D02*
X0095459Y0115403D01*
X0093822Y0117002D02*
X0091684Y0117002D01*
X0092502Y0118600D02*
X0093418Y0118600D01*
X0091684Y0112206D02*
X0098964Y0112206D01*
X0097366Y0110608D02*
X0091684Y0110608D01*
X0090578Y0109009D02*
X0096439Y0109009D01*
X0095471Y0107411D02*
X0088980Y0107411D01*
X0095471Y0105812D02*
X0075971Y0105812D01*
X0076646Y0104214D02*
X0095471Y0104214D01*
X0095097Y0102615D02*
X0076678Y0102615D01*
X0076710Y0101017D02*
X0093498Y0101017D01*
X0093127Y0099418D02*
X0076742Y0099418D01*
X0076773Y0097820D02*
X0093127Y0097820D01*
X0093127Y0096221D02*
X0076805Y0096221D01*
X0076837Y0094623D02*
X0093127Y0094623D01*
X0093127Y0093024D02*
X0076869Y0093024D01*
X0076901Y0091426D02*
X0093127Y0091426D01*
X0092683Y0089827D02*
X0076932Y0089827D01*
X0076964Y0088228D02*
X0091085Y0088228D01*
X0089486Y0086630D02*
X0076988Y0086630D01*
X0076988Y0085031D02*
X0087888Y0085031D01*
X0086289Y0083433D02*
X0076988Y0083433D01*
X0077310Y0081834D02*
X0084691Y0081834D01*
X0083092Y0080236D02*
X0078909Y0080236D01*
X0076826Y0078637D02*
X0058979Y0078637D01*
X0058979Y0077039D02*
X0076114Y0077039D01*
X0075881Y0075440D02*
X0058979Y0075440D01*
X0058979Y0080236D02*
X0074877Y0080236D01*
X0074688Y0081834D02*
X0058226Y0081834D01*
X0058242Y0083433D02*
X0074688Y0083433D01*
X0074600Y0091426D02*
X0049899Y0091426D01*
X0053948Y0093024D02*
X0054711Y0093024D01*
X0054711Y0092046D02*
X0054711Y0095827D01*
X0054711Y0096590D01*
X0053948Y0096590D01*
X0053948Y0100371D01*
X0050943Y0100371D01*
X0050485Y0100248D01*
X0050075Y0100011D01*
X0049740Y0099676D01*
X0049503Y0099265D01*
X0049380Y0098808D01*
X0049380Y0096590D01*
X0053948Y0096590D01*
X0053948Y0095827D01*
X0054711Y0095827D01*
X0059279Y0095827D01*
X0059279Y0093609D01*
X0059156Y0093151D01*
X0058919Y0092741D01*
X0058584Y0092406D01*
X0058174Y0092169D01*
X0057716Y0092046D01*
X0054711Y0092046D01*
X0054711Y0094623D02*
X0053948Y0094623D01*
X0053948Y0096221D02*
X0047921Y0096221D01*
X0047017Y0097329D02*
X0047017Y0097329D01*
X0046527Y0097820D02*
X0049380Y0097820D01*
X0049591Y0099418D02*
X0044928Y0099418D01*
X0044233Y0101017D02*
X0074409Y0101017D01*
X0074377Y0102615D02*
X0044233Y0102615D01*
X0043635Y0104214D02*
X0074317Y0104214D01*
X0072718Y0105812D02*
X0004610Y0105812D01*
X0004611Y0104214D02*
X0031131Y0104214D01*
X0030339Y0102615D02*
X0004612Y0102615D01*
X0004613Y0101017D02*
X0029988Y0101017D01*
X0029988Y0099418D02*
X0004614Y0099418D01*
X0004615Y0097820D02*
X0029988Y0097820D01*
X0029988Y0096221D02*
X0004616Y0096221D01*
X0004617Y0094623D02*
X0023868Y0094623D01*
X0023868Y0093024D02*
X0004617Y0093024D01*
X0004618Y0091426D02*
X0023868Y0091426D01*
X0023868Y0089827D02*
X0004619Y0089827D01*
X0004620Y0088228D02*
X0023868Y0088228D01*
X0023868Y0086630D02*
X0004621Y0086630D01*
X0004622Y0085031D02*
X0023868Y0085031D01*
X0024496Y0083433D02*
X0004623Y0083433D01*
X0004624Y0081834D02*
X0026890Y0081834D01*
X0026890Y0080236D02*
X0004625Y0080236D01*
X0004626Y0078637D02*
X0026890Y0078637D01*
X0026890Y0077039D02*
X0004626Y0077039D01*
X0004627Y0075440D02*
X0026890Y0075440D01*
X0026890Y0073842D02*
X0004628Y0073842D01*
X0004629Y0072243D02*
X0026890Y0072243D01*
X0026890Y0070645D02*
X0004630Y0070645D01*
X0004631Y0069046D02*
X0026890Y0069046D01*
X0026890Y0067448D02*
X0004632Y0067448D01*
X0004633Y0065849D02*
X0026890Y0065849D01*
X0026890Y0064251D02*
X0004634Y0064251D01*
X0004635Y0062652D02*
X0008579Y0062652D01*
X0008350Y0061054D02*
X0004636Y0061054D01*
X0004636Y0059455D02*
X0008350Y0059455D01*
X0008350Y0057857D02*
X0004637Y0057857D01*
X0004638Y0056258D02*
X0008350Y0056258D01*
X0008350Y0054660D02*
X0004639Y0054660D01*
X0004640Y0053061D02*
X0008350Y0053061D01*
X0008350Y0051463D02*
X0004641Y0051463D01*
X0004642Y0049864D02*
X0008350Y0049864D01*
X0008350Y0048266D02*
X0004643Y0048266D01*
X0004644Y0046667D02*
X0008350Y0046667D01*
X0008350Y0045069D02*
X0004645Y0045069D01*
X0004645Y0043470D02*
X0008350Y0043470D01*
X0008350Y0041872D02*
X0004646Y0041872D01*
X0004647Y0040273D02*
X0008350Y0040273D01*
X0008350Y0038675D02*
X0004648Y0038675D01*
X0004649Y0037076D02*
X0008350Y0037076D01*
X0011448Y0032281D02*
X0019595Y0032281D01*
X0019638Y0033879D02*
X0012450Y0033879D01*
X0012450Y0035478D02*
X0019681Y0035478D01*
X0019724Y0037076D02*
X0012450Y0037076D01*
X0012450Y0038675D02*
X0019767Y0038675D01*
X0019810Y0040273D02*
X0012450Y0040273D01*
X0012450Y0041872D02*
X0019853Y0041872D01*
X0019897Y0043470D02*
X0012450Y0043470D01*
X0012450Y0045069D02*
X0019940Y0045069D01*
X0019983Y0046667D02*
X0012450Y0046667D01*
X0012450Y0048266D02*
X0020026Y0048266D01*
X0020069Y0049864D02*
X0012450Y0049864D01*
X0012450Y0051463D02*
X0020112Y0051463D01*
X0020155Y0053061D02*
X0012450Y0053061D01*
X0012450Y0054660D02*
X0020199Y0054660D01*
X0020372Y0056258D02*
X0012450Y0056258D01*
X0012450Y0057857D02*
X0026890Y0057857D01*
X0026890Y0059455D02*
X0012450Y0059455D01*
X0012450Y0061054D02*
X0026890Y0061054D01*
X0026890Y0062652D02*
X0012222Y0062652D01*
X0033090Y0062652D02*
X0096099Y0062652D01*
X0096099Y0061054D02*
X0033090Y0061054D01*
X0033090Y0059455D02*
X0096099Y0059455D01*
X0096099Y0057857D02*
X0033090Y0057857D01*
X0033090Y0064251D02*
X0096099Y0064251D01*
X0096099Y0065849D02*
X0080929Y0065849D01*
X0081491Y0067448D02*
X0096099Y0067448D01*
X0096099Y0069046D02*
X0081289Y0069046D01*
X0080158Y0070645D02*
X0083250Y0070645D01*
X0086055Y0070645D02*
X0086423Y0070645D01*
X0086423Y0072243D02*
X0086055Y0072243D01*
X0086055Y0073842D02*
X0086423Y0073842D01*
X0086423Y0075440D02*
X0086055Y0075440D01*
X0086055Y0077039D02*
X0086423Y0077039D01*
X0084746Y0078637D02*
X0096099Y0078637D01*
X0096099Y0077039D02*
X0089990Y0077039D01*
X0090204Y0075440D02*
X0096099Y0075440D01*
X0096099Y0073842D02*
X0090204Y0073842D01*
X0090204Y0072243D02*
X0096099Y0072243D01*
X0096099Y0070645D02*
X0089228Y0070645D01*
X0086345Y0080236D02*
X0096099Y0080236D01*
X0096099Y0081834D02*
X0087944Y0081834D01*
X0089542Y0083433D02*
X0096099Y0083433D01*
X0096099Y0085031D02*
X0091141Y0085031D01*
X0092739Y0086630D02*
X0095118Y0086630D01*
X0094743Y0088228D02*
X0094338Y0088228D01*
X0099899Y0084486D02*
X0100824Y0084486D01*
X0103343Y0087005D01*
X0103343Y0090399D01*
X0105836Y0092893D01*
X0105836Y0095912D01*
X0107262Y0094486D01*
X0110824Y0094486D01*
X0112005Y0095668D01*
X0112005Y0094436D01*
X0110656Y0093086D01*
X0107262Y0093086D01*
X0104743Y0090568D01*
X0104743Y0087005D01*
X0107262Y0084486D01*
X0110824Y0084486D01*
X0113343Y0087005D01*
X0113343Y0090399D01*
X0114692Y0091749D01*
X0115805Y0092862D01*
X0115805Y0095943D01*
X0117262Y0094486D01*
X0120824Y0094486D01*
X0122300Y0095963D01*
X0122300Y0094731D01*
X0120656Y0093086D01*
X0117262Y0093086D01*
X0114743Y0090568D01*
X0114743Y0087005D01*
X0117262Y0084486D01*
X0120824Y0084486D01*
X0122227Y0085889D01*
X0122227Y0047896D01*
X0116230Y0041900D01*
X0115059Y0040728D01*
X0115059Y0024807D01*
X0111993Y0024807D01*
X0099899Y0024807D01*
X0099899Y0084486D01*
X0099899Y0083433D02*
X0122227Y0083433D01*
X0122227Y0085031D02*
X0121369Y0085031D01*
X0122227Y0081834D02*
X0099899Y0081834D01*
X0099899Y0080236D02*
X0122227Y0080236D01*
X0122227Y0078637D02*
X0099899Y0078637D01*
X0099899Y0077039D02*
X0122227Y0077039D01*
X0122227Y0075440D02*
X0099899Y0075440D01*
X0099899Y0073842D02*
X0122227Y0073842D01*
X0122227Y0072243D02*
X0099899Y0072243D01*
X0099899Y0070645D02*
X0122227Y0070645D01*
X0122227Y0069046D02*
X0099899Y0069046D01*
X0099899Y0067448D02*
X0122227Y0067448D01*
X0122227Y0065849D02*
X0099899Y0065849D01*
X0099899Y0064251D02*
X0122227Y0064251D01*
X0122227Y0062652D02*
X0099899Y0062652D01*
X0099899Y0061054D02*
X0122227Y0061054D01*
X0122227Y0059455D02*
X0099899Y0059455D01*
X0099899Y0057857D02*
X0122227Y0057857D01*
X0122227Y0056258D02*
X0099899Y0056258D01*
X0099899Y0054660D02*
X0122227Y0054660D01*
X0122227Y0053061D02*
X0099899Y0053061D01*
X0099899Y0051463D02*
X0122227Y0051463D01*
X0122227Y0049864D02*
X0099899Y0049864D01*
X0099899Y0048266D02*
X0122227Y0048266D01*
X0120998Y0046667D02*
X0099899Y0046667D01*
X0099899Y0045069D02*
X0119399Y0045069D01*
X0117801Y0043470D02*
X0099899Y0043470D01*
X0099899Y0041872D02*
X0116202Y0041872D01*
X0115059Y0040273D02*
X0099899Y0040273D01*
X0099899Y0038675D02*
X0115059Y0038675D01*
X0115059Y0037076D02*
X0099899Y0037076D01*
X0099899Y0035478D02*
X0115059Y0035478D01*
X0115059Y0033879D02*
X0099899Y0033879D01*
X0099899Y0032281D02*
X0115059Y0032281D01*
X0115059Y0030682D02*
X0099899Y0030682D01*
X0099899Y0029084D02*
X0115059Y0029084D01*
X0115059Y0027485D02*
X0099899Y0027485D01*
X0099899Y0025887D02*
X0115059Y0025887D01*
X0096099Y0025887D02*
X0040967Y0025887D01*
X0040962Y0027485D02*
X0096099Y0027485D01*
X0096099Y0029084D02*
X0040958Y0029084D01*
X0040953Y0030682D02*
X0096099Y0030682D01*
X0096099Y0032281D02*
X0040948Y0032281D01*
X0040944Y0033879D02*
X0096099Y0033879D01*
X0096099Y0035478D02*
X0040939Y0035478D01*
X0040934Y0037076D02*
X0096099Y0037076D01*
X0096099Y0038675D02*
X0040930Y0038675D01*
X0040925Y0040273D02*
X0096099Y0040273D01*
X0096099Y0041872D02*
X0040920Y0041872D01*
X0040916Y0043470D02*
X0096099Y0043470D01*
X0096099Y0045069D02*
X0040911Y0045069D01*
X0040906Y0046667D02*
X0096099Y0046667D01*
X0096099Y0048266D02*
X0040902Y0048266D01*
X0040897Y0049864D02*
X0096099Y0049864D01*
X0096099Y0051463D02*
X0040893Y0051463D01*
X0040888Y0053061D02*
X0096099Y0053061D01*
X0096099Y0054660D02*
X0040890Y0054660D01*
X0040879Y0056258D02*
X0096099Y0056258D01*
X0075054Y0065849D02*
X0033090Y0065849D01*
X0033090Y0067448D02*
X0074491Y0067448D01*
X0074694Y0069046D02*
X0033090Y0069046D01*
X0033090Y0070645D02*
X0075825Y0070645D01*
X0075881Y0072243D02*
X0033090Y0072243D01*
X0033090Y0073842D02*
X0075881Y0073842D01*
X0074568Y0093024D02*
X0059083Y0093024D01*
X0059279Y0094623D02*
X0074536Y0094623D01*
X0074505Y0096221D02*
X0054711Y0096221D01*
X0054711Y0096590D02*
X0059279Y0096590D01*
X0059279Y0098808D01*
X0059156Y0099265D01*
X0058919Y0099676D01*
X0058584Y0100011D01*
X0058174Y0100248D01*
X0057716Y0100371D01*
X0054711Y0100371D01*
X0054711Y0096590D01*
X0054711Y0097820D02*
X0053948Y0097820D01*
X0053948Y0099418D02*
X0054711Y0099418D01*
X0059068Y0099418D02*
X0074441Y0099418D01*
X0074473Y0097820D02*
X0059279Y0097820D01*
X0061514Y0107411D02*
X0071120Y0107411D01*
X0072774Y0109009D02*
X0079986Y0109009D01*
X0079152Y0110608D02*
X0071669Y0110608D01*
X0071669Y0112206D02*
X0079152Y0112206D01*
X0078258Y0113805D02*
X0072652Y0113805D01*
X0074373Y0107411D02*
X0081584Y0107411D01*
X0061585Y0112206D02*
X0061525Y0112206D01*
X0059986Y0113805D02*
X0039648Y0113805D01*
X0039842Y0112206D02*
X0056410Y0112206D01*
X0055508Y0110608D02*
X0040433Y0110608D01*
X0040433Y0109009D02*
X0055513Y0109009D01*
X0056422Y0107411D02*
X0040433Y0107411D01*
X0037383Y0109244D02*
X0037367Y0109260D01*
X0037367Y0112332D01*
X0037348Y0112351D01*
X0037348Y0115417D01*
X0038493Y0116561D01*
X0038493Y0134095D01*
X0032203Y0140384D01*
X0029856Y0140384D01*
X0033262Y0142578D02*
X0049294Y0142578D01*
X0050892Y0140979D02*
X0034861Y0140979D01*
X0036459Y0139381D02*
X0052491Y0139381D01*
X0054089Y0137782D02*
X0038058Y0137782D01*
X0039656Y0136184D02*
X0055688Y0136184D01*
X0057286Y0134585D02*
X0040793Y0134585D01*
X0040793Y0132987D02*
X0058885Y0132987D01*
X0059759Y0131388D02*
X0040793Y0131388D01*
X0040793Y0129790D02*
X0059759Y0129790D01*
X0059759Y0128191D02*
X0040793Y0128191D01*
X0040793Y0126593D02*
X0059759Y0126593D01*
X0059759Y0124994D02*
X0040793Y0124994D01*
X0040793Y0123396D02*
X0059759Y0123396D01*
X0059759Y0121797D02*
X0040793Y0121797D01*
X0040793Y0120199D02*
X0059759Y0120199D01*
X0059759Y0118600D02*
X0040793Y0118600D01*
X0040793Y0117002D02*
X0059759Y0117002D01*
X0059759Y0115403D02*
X0040587Y0115403D01*
X0035680Y0117002D02*
X0004604Y0117002D01*
X0004603Y0118600D02*
X0036193Y0118600D01*
X0036193Y0120199D02*
X0004602Y0120199D01*
X0004601Y0121797D02*
X0036193Y0121797D01*
X0036193Y0123396D02*
X0004600Y0123396D01*
X0004599Y0124994D02*
X0036193Y0124994D01*
X0028716Y0134585D02*
X0026902Y0134585D01*
X0028551Y0150570D02*
X0049175Y0150570D01*
X0047865Y0152169D02*
X0043586Y0152169D01*
X0043586Y0153767D02*
X0047594Y0153767D01*
X0047740Y0158563D02*
X0043586Y0158563D01*
X0043586Y0160161D02*
X0047294Y0160161D01*
X0047294Y0162104D02*
X0050878Y0162104D01*
X0050878Y0165885D01*
X0048857Y0165885D01*
X0048399Y0165763D01*
X0047989Y0165526D01*
X0047654Y0165190D01*
X0047417Y0164780D01*
X0047294Y0164322D01*
X0047294Y0162104D01*
X0047294Y0163359D02*
X0026375Y0163359D01*
X0026375Y0164957D02*
X0032545Y0164957D01*
X0032888Y0169753D02*
X0026375Y0169753D01*
X0026375Y0171351D02*
X0071593Y0171351D01*
X0071593Y0172950D02*
X0026375Y0172950D01*
X0026375Y0174548D02*
X0027988Y0174548D01*
X0038161Y0169753D02*
X0071995Y0169753D01*
X0073594Y0168154D02*
X0039107Y0168154D01*
X0039205Y0166556D02*
X0081563Y0166556D01*
X0082833Y0164957D02*
X0078953Y0164957D01*
X0080508Y0163359D02*
X0081593Y0163359D01*
X0079964Y0168154D02*
X0078192Y0168154D01*
X0080193Y0172950D02*
X0081593Y0172950D01*
X0082424Y0174548D02*
X0079362Y0174548D01*
X0077764Y0176147D02*
X0082118Y0176147D01*
X0080519Y0177745D02*
X0077783Y0177745D01*
X0074003Y0177745D02*
X0049985Y0177745D01*
X0048386Y0176147D02*
X0074023Y0176147D01*
X0072424Y0174548D02*
X0043586Y0174548D01*
X0043586Y0180942D02*
X0047525Y0180942D01*
X0049124Y0182541D02*
X0043356Y0182541D01*
X0051583Y0179344D02*
X0072404Y0179344D01*
X0071593Y0180942D02*
X0053182Y0180942D01*
X0054780Y0182541D02*
X0071593Y0182541D01*
X0072015Y0184139D02*
X0056379Y0184139D01*
X0057977Y0185738D02*
X0073614Y0185738D01*
X0078173Y0185738D02*
X0083614Y0185738D01*
X0082015Y0184139D02*
X0079771Y0184139D01*
X0081098Y0182541D02*
X0081593Y0182541D01*
X0072833Y0164957D02*
X0054606Y0164957D01*
X0054831Y0163359D02*
X0071593Y0163359D01*
X0071593Y0161760D02*
X0051247Y0161760D01*
X0050878Y0161760D02*
X0026375Y0161760D01*
X0026375Y0160161D02*
X0027988Y0160161D01*
X0027988Y0158563D02*
X0026375Y0158563D01*
X0026375Y0156964D02*
X0027988Y0156964D01*
X0027988Y0155366D02*
X0026375Y0155366D01*
X0026375Y0153767D02*
X0027988Y0153767D01*
X0027988Y0152169D02*
X0026953Y0152169D01*
X0038504Y0164957D02*
X0047519Y0164957D01*
X0050878Y0164957D02*
X0051247Y0164957D01*
X0051247Y0163359D02*
X0050878Y0163359D01*
X0054831Y0160161D02*
X0071593Y0160161D01*
X0073185Y0158563D02*
X0054385Y0158563D01*
X0054531Y0156964D02*
X0081528Y0156964D01*
X0083127Y0155366D02*
X0078544Y0155366D01*
X0080143Y0153767D02*
X0081643Y0153767D01*
X0081593Y0152169D02*
X0080193Y0152169D01*
X0080193Y0150570D02*
X0081593Y0150570D01*
X0081544Y0148972D02*
X0082776Y0148972D01*
X0079367Y0145775D02*
X0078135Y0145775D01*
X0077769Y0147373D02*
X0054137Y0147373D01*
X0054363Y0148972D02*
X0072776Y0148972D01*
X0071593Y0150570D02*
X0053551Y0150570D01*
X0054260Y0152169D02*
X0071593Y0152169D01*
X0071643Y0153767D02*
X0054531Y0153767D01*
X0054531Y0155366D02*
X0073242Y0155366D01*
X0078601Y0158563D02*
X0079930Y0158563D01*
X0073651Y0145775D02*
X0052584Y0145775D01*
X0053352Y0144176D02*
X0072052Y0144176D01*
X0071593Y0142578D02*
X0054950Y0142578D01*
X0056549Y0140979D02*
X0071593Y0140979D01*
X0072367Y0139381D02*
X0058147Y0139381D01*
X0059746Y0137782D02*
X0071257Y0137782D01*
X0069659Y0136184D02*
X0061344Y0136184D01*
X0062943Y0134585D02*
X0068060Y0134585D01*
X0066462Y0132987D02*
X0063759Y0132987D01*
X0063759Y0131388D02*
X0064863Y0131388D01*
X0079734Y0144176D02*
X0082052Y0144176D01*
X0081593Y0142578D02*
X0080982Y0142578D01*
X0040489Y0096221D02*
X0035388Y0096221D01*
X0035388Y0094623D02*
X0039813Y0094623D01*
X0039813Y0093024D02*
X0035388Y0093024D01*
X0034748Y0091426D02*
X0039813Y0091426D01*
X0039813Y0089827D02*
X0033954Y0089827D01*
X0033954Y0088228D02*
X0039813Y0088228D01*
X0039813Y0086630D02*
X0033954Y0086630D01*
X0033954Y0085031D02*
X0039813Y0085031D01*
X0040441Y0083433D02*
X0033326Y0083433D01*
X0033090Y0081834D02*
X0042156Y0081834D01*
X0038856Y0080236D02*
X0038488Y0080236D01*
X0038488Y0078637D02*
X0038856Y0078637D01*
X0038488Y0077455D02*
X0034707Y0077455D01*
X0034707Y0075434D01*
X0034829Y0074976D01*
X0035066Y0074566D01*
X0035401Y0074231D01*
X0035812Y0073994D01*
X0036270Y0073871D01*
X0038488Y0073871D01*
X0038488Y0077455D01*
X0038488Y0077039D02*
X0038856Y0077039D01*
X0038856Y0075440D02*
X0038488Y0075440D01*
X0034707Y0075440D02*
X0033090Y0075440D01*
X0033090Y0077039D02*
X0034707Y0077039D01*
X0034707Y0078637D02*
X0033090Y0078637D01*
X0033090Y0080236D02*
X0034811Y0080236D01*
X0047556Y0081834D02*
X0050433Y0081834D01*
X0050417Y0083433D02*
X0049271Y0083433D01*
X0049030Y0075440D02*
X0049680Y0075440D01*
X0038892Y0097820D02*
X0035388Y0097820D01*
X0036633Y0099418D02*
X0038133Y0099418D01*
X0038133Y0101017D02*
X0036633Y0101017D01*
X0036633Y0102615D02*
X0038133Y0102615D01*
X0038731Y0104214D02*
X0036035Y0104214D01*
X0034333Y0107411D02*
X0004609Y0107411D01*
X0004608Y0109009D02*
X0034333Y0109009D01*
X0034333Y0110608D02*
X0004607Y0110608D01*
X0004607Y0112206D02*
X0034924Y0112206D01*
X0035048Y0113805D02*
X0004606Y0113805D01*
X0004605Y0115403D02*
X0035048Y0115403D01*
X0027988Y0188935D02*
X0022256Y0188935D01*
X0022256Y0190533D02*
X0027988Y0190533D01*
X0027988Y0192132D02*
X0022256Y0192132D01*
X0022256Y0193730D02*
X0027988Y0193730D01*
X0027988Y0195329D02*
X0022256Y0195329D01*
X0022256Y0196927D02*
X0027988Y0196927D01*
X0027688Y0211314D02*
X0022256Y0211314D01*
X0022256Y0212912D02*
X0027688Y0212912D01*
X0034987Y0211314D02*
X0036587Y0211314D01*
X0036587Y0216109D02*
X0034987Y0216109D01*
X0034987Y0217708D02*
X0036587Y0217708D01*
X0036587Y0219306D02*
X0034987Y0219306D01*
X0037836Y0225700D02*
X0022256Y0225700D01*
X0022256Y0227299D02*
X0023158Y0227299D01*
X0023232Y0227121D02*
X0023493Y0226730D01*
X0023826Y0226397D01*
X0024218Y0226135D01*
X0024653Y0225955D01*
X0025115Y0225863D01*
X0026544Y0225863D01*
X0026544Y0229447D01*
X0022960Y0229447D01*
X0022960Y0228018D01*
X0023051Y0227556D01*
X0023232Y0227121D01*
X0022960Y0228897D02*
X0022256Y0228897D01*
X0022256Y0230496D02*
X0022960Y0230496D01*
X0023212Y0232095D02*
X0022256Y0232095D01*
X0022256Y0233693D02*
X0024609Y0233693D01*
X0024826Y0233603D02*
X0025288Y0233511D01*
X0026717Y0233511D01*
X0026717Y0237095D01*
X0023133Y0237095D01*
X0023133Y0235666D01*
X0023224Y0235204D01*
X0023405Y0234769D01*
X0023666Y0234378D01*
X0023999Y0234045D01*
X0024391Y0233783D01*
X0024826Y0233603D01*
X0026717Y0233693D02*
X0027085Y0233693D01*
X0027085Y0235292D02*
X0026717Y0235292D01*
X0026717Y0236890D02*
X0027085Y0236890D01*
X0027085Y0238489D02*
X0026717Y0238489D01*
X0026717Y0240087D02*
X0027085Y0240087D01*
X0027013Y0241686D02*
X0026644Y0241686D01*
X0026644Y0243284D02*
X0027013Y0243284D01*
X0026644Y0244883D02*
X0022256Y0244883D01*
X0022256Y0246481D02*
X0023060Y0246481D01*
X0023787Y0248080D02*
X0022256Y0248080D01*
X0022256Y0249678D02*
X0023936Y0249678D01*
X0023130Y0251277D02*
X0022256Y0251277D01*
X0026715Y0251277D02*
X0027083Y0251277D01*
X0027083Y0249678D02*
X0026715Y0249678D01*
X0026644Y0248080D02*
X0027013Y0248080D01*
X0027013Y0246481D02*
X0026644Y0246481D01*
X0023077Y0243284D02*
X0022256Y0243284D01*
X0022256Y0241686D02*
X0024022Y0241686D01*
X0023603Y0240087D02*
X0022256Y0240087D01*
X0022256Y0238489D02*
X0023133Y0238489D01*
X0023133Y0236890D02*
X0022256Y0236890D01*
X0022256Y0235292D02*
X0023207Y0235292D01*
X0026544Y0232095D02*
X0026912Y0232095D01*
X0026912Y0230496D02*
X0026544Y0230496D01*
X0026544Y0228897D02*
X0026912Y0228897D01*
X0026912Y0227299D02*
X0026544Y0227299D01*
X0030244Y0232095D02*
X0030384Y0232095D01*
X0029194Y0233693D02*
X0037981Y0233693D01*
X0038007Y0232095D02*
X0036883Y0232095D01*
X0037013Y0227299D02*
X0037314Y0227299D01*
X0043953Y0232095D02*
X0044700Y0232095D01*
X0044674Y0233693D02*
X0044147Y0233693D01*
X0044097Y0240087D02*
X0044723Y0240087D01*
X0044712Y0241686D02*
X0044095Y0241686D01*
X0038020Y0241686D02*
X0036148Y0241686D01*
X0036712Y0240087D02*
X0038030Y0240087D01*
X0031320Y0241686D02*
X0029635Y0241686D01*
X0030199Y0240087D02*
X0030902Y0240087D01*
X0031117Y0248080D02*
X0029870Y0248080D01*
X0029862Y0249678D02*
X0031266Y0249678D01*
X0036343Y0249678D02*
X0038087Y0249678D01*
X0037979Y0248080D02*
X0036351Y0248080D01*
X0043964Y0249678D02*
X0044780Y0249678D01*
X0044672Y0248080D02*
X0044136Y0248080D01*
X0050829Y0248080D02*
X0240972Y0248080D01*
X0240971Y0249678D02*
X0050657Y0249678D01*
X0031805Y0265132D02*
X0028244Y0261571D01*
X0022137Y0261571D01*
X0021814Y0265663D02*
X0021814Y0265663D01*
X0021814Y0267262D02*
X0021814Y0267262D01*
X0021814Y0268860D02*
X0021814Y0268860D01*
X0021814Y0269190D02*
X0021814Y0269190D01*
X0021814Y0273565D01*
X0021814Y0269190D01*
X0021814Y0269190D01*
X0026538Y0269190D01*
X0026538Y0269190D01*
X0026189Y0269190D01*
X0021814Y0269190D01*
X0021814Y0270459D02*
X0021814Y0270459D01*
X0021814Y0272057D02*
X0021814Y0272057D01*
X0018494Y0272057D02*
X0004516Y0272057D01*
X0004517Y0270459D02*
X0017626Y0270459D01*
X0017439Y0268860D02*
X0004518Y0268860D01*
X0004519Y0267262D02*
X0017887Y0267262D01*
X0019226Y0265663D02*
X0004520Y0265663D01*
X0004521Y0264065D02*
X0027485Y0264065D01*
X0026538Y0265663D02*
X0026539Y0265663D01*
X0026539Y0269190D02*
X0026539Y0269190D01*
X0029097Y0269190D01*
X0029097Y0269190D01*
X0026539Y0269190D01*
X0031657Y0269190D02*
X0031657Y0265280D01*
X0031805Y0265132D01*
X0031664Y0275254D02*
X0031649Y0275254D01*
X0028396Y0275254D02*
X0027043Y0275254D01*
X0027043Y0276853D02*
X0028396Y0276853D01*
X0028396Y0278451D02*
X0027043Y0278451D01*
X0022967Y0278451D02*
X0022512Y0278451D01*
X0022967Y0276853D02*
X0021760Y0276853D01*
X0019977Y0275254D02*
X0023790Y0275254D01*
X0022967Y0281648D02*
X0022362Y0281648D01*
X0023004Y0283247D02*
X0021414Y0283247D01*
X0017161Y0280050D02*
X0004512Y0280050D01*
X0004511Y0281648D02*
X0012624Y0281648D01*
X0013572Y0283247D02*
X0004510Y0283247D01*
X0004513Y0278451D02*
X0012475Y0278451D01*
X0013227Y0276853D02*
X0004514Y0276853D01*
X0034917Y0276853D02*
X0036270Y0276853D01*
X0036270Y0278451D02*
X0034917Y0278451D01*
X0034917Y0275254D02*
X0036270Y0275254D01*
X0155696Y0181610D02*
X0155696Y0180554D01*
X0155696Y0180553D01*
X0155696Y0180554D01*
X0155696Y0181610D01*
X0155696Y0180942D02*
X0155696Y0180942D01*
X0186442Y0153767D02*
X0187592Y0153767D01*
X0187592Y0152169D02*
X0186492Y0152169D01*
X0186492Y0150570D02*
X0187592Y0150570D01*
X0188651Y0148972D02*
X0185309Y0148972D01*
X0180359Y0136184D02*
X0179268Y0136184D01*
X0178760Y0134585D02*
X0177670Y0134585D01*
X0177892Y0112206D02*
X0155954Y0112206D01*
X0155696Y0112464D02*
X0155696Y0112464D01*
X0155696Y0113319D01*
X0155696Y0113319D01*
X0155696Y0113319D01*
X0155696Y0112464D01*
X0157553Y0110608D02*
X0177892Y0110608D01*
X0179038Y0109009D02*
X0168005Y0109009D01*
X0169603Y0107411D02*
X0241003Y0107411D01*
X0241004Y0105812D02*
X0171202Y0105812D01*
X0172800Y0104214D02*
X0241004Y0104214D01*
X0241004Y0102615D02*
X0174399Y0102615D01*
X0175273Y0101017D02*
X0241005Y0101017D01*
X0241005Y0099418D02*
X0175273Y0099418D01*
X0175273Y0097820D02*
X0241005Y0097820D01*
X0241006Y0096221D02*
X0175273Y0096221D01*
X0175273Y0094623D02*
X0241006Y0094623D01*
X0241007Y0093024D02*
X0175273Y0093024D01*
X0174510Y0091426D02*
X0241007Y0091426D01*
X0241007Y0089827D02*
X0173343Y0089827D01*
X0173343Y0088228D02*
X0241008Y0088228D01*
X0241008Y0086630D02*
X0172967Y0086630D01*
X0171369Y0085031D02*
X0241008Y0085031D01*
X0241009Y0083433D02*
X0172834Y0083433D01*
X0167703Y0077039D02*
X0161464Y0077039D01*
X0161464Y0076123D02*
X0161464Y0082249D01*
X0160351Y0083362D01*
X0159227Y0084486D01*
X0160255Y0084486D01*
X0174827Y0069914D01*
X0174827Y0048998D01*
X0160290Y0034461D01*
X0159118Y0033290D01*
X0159118Y0024807D01*
X0156692Y0024807D01*
X0156692Y0039952D01*
X0160044Y0039952D01*
X0160923Y0040831D01*
X0160923Y0046011D01*
X0160044Y0046889D01*
X0159258Y0046889D01*
X0159258Y0054192D01*
X0158982Y0054467D01*
X0158982Y0060154D01*
X0160850Y0060154D01*
X0161449Y0060753D01*
X0162039Y0060163D01*
X0167218Y0060163D01*
X0168097Y0061042D01*
X0168097Y0066615D01*
X0167749Y0066963D01*
X0168037Y0067251D01*
X0168274Y0067662D01*
X0168397Y0068119D01*
X0168397Y0070337D01*
X0164813Y0070337D01*
X0164813Y0070706D01*
X0168397Y0070706D01*
X0168397Y0072924D01*
X0168274Y0073382D01*
X0168037Y0073792D01*
X0167702Y0074127D01*
X0167292Y0074364D01*
X0166834Y0074487D01*
X0164813Y0074487D01*
X0164813Y0070706D01*
X0164444Y0070706D01*
X0164444Y0074487D01*
X0162423Y0074487D01*
X0161965Y0074364D01*
X0161729Y0074228D01*
X0161729Y0075858D01*
X0161464Y0076123D01*
X0161729Y0075440D02*
X0169301Y0075440D01*
X0167988Y0073842D02*
X0170900Y0073842D01*
X0172498Y0072243D02*
X0168397Y0072243D01*
X0168397Y0069046D02*
X0174827Y0069046D01*
X0174827Y0067448D02*
X0168151Y0067448D01*
X0168097Y0065849D02*
X0174827Y0065849D01*
X0174827Y0064251D02*
X0168097Y0064251D01*
X0168097Y0062652D02*
X0174827Y0062652D01*
X0174827Y0061054D02*
X0168097Y0061054D01*
X0174827Y0059455D02*
X0158982Y0059455D01*
X0158982Y0057857D02*
X0174827Y0057857D01*
X0174827Y0056258D02*
X0158982Y0056258D01*
X0158982Y0054660D02*
X0174827Y0054660D01*
X0174827Y0053061D02*
X0159258Y0053061D01*
X0159258Y0051463D02*
X0174827Y0051463D01*
X0174827Y0049864D02*
X0159258Y0049864D01*
X0159258Y0048266D02*
X0174095Y0048266D01*
X0172496Y0046667D02*
X0160267Y0046667D01*
X0160923Y0045069D02*
X0170898Y0045069D01*
X0169299Y0043470D02*
X0160923Y0043470D01*
X0160923Y0041872D02*
X0167701Y0041872D01*
X0166102Y0040273D02*
X0160365Y0040273D01*
X0162905Y0037076D02*
X0156692Y0037076D01*
X0156692Y0035478D02*
X0161306Y0035478D01*
X0159708Y0033879D02*
X0156692Y0033879D01*
X0156692Y0032281D02*
X0159118Y0032281D01*
X0159118Y0030682D02*
X0156692Y0030682D01*
X0156692Y0029084D02*
X0159118Y0029084D01*
X0159118Y0027485D02*
X0156692Y0027485D01*
X0156692Y0025887D02*
X0159118Y0025887D01*
X0149542Y0027221D02*
X0149124Y0027639D01*
X0146145Y0030617D01*
X0146145Y0085603D01*
X0147043Y0084705D01*
X0147043Y0075063D01*
X0149280Y0072826D01*
X0149280Y0070678D01*
X0150159Y0069800D01*
X0154896Y0069800D01*
X0155204Y0069622D01*
X0155661Y0069500D01*
X0156784Y0069500D01*
X0156784Y0073268D01*
X0156784Y0073268D01*
X0156784Y0069500D01*
X0157907Y0069500D01*
X0158365Y0069622D01*
X0158672Y0069800D01*
X0160850Y0069800D01*
X0160860Y0069809D01*
X0160860Y0068119D01*
X0160983Y0067662D01*
X0161220Y0067251D01*
X0161508Y0066963D01*
X0161243Y0066698D01*
X0160850Y0067091D01*
X0150159Y0067091D01*
X0149280Y0066212D01*
X0149280Y0061033D01*
X0150159Y0060154D01*
X0151874Y0060154D01*
X0151874Y0047558D01*
X0151205Y0046889D01*
X0147778Y0046889D01*
X0146899Y0046011D01*
X0146899Y0040831D01*
X0147778Y0039952D01*
X0149542Y0039952D01*
X0149542Y0027221D01*
X0149542Y0027485D02*
X0149278Y0027485D01*
X0149542Y0029084D02*
X0147679Y0029084D01*
X0146145Y0030682D02*
X0149542Y0030682D01*
X0149542Y0032281D02*
X0146145Y0032281D01*
X0146145Y0033879D02*
X0149542Y0033879D01*
X0149542Y0035478D02*
X0146145Y0035478D01*
X0146145Y0037076D02*
X0149542Y0037076D01*
X0149542Y0038675D02*
X0146145Y0038675D01*
X0146145Y0040273D02*
X0147457Y0040273D01*
X0146899Y0041872D02*
X0146145Y0041872D01*
X0146145Y0043470D02*
X0146899Y0043470D01*
X0146899Y0045069D02*
X0146145Y0045069D01*
X0146145Y0046667D02*
X0147556Y0046667D01*
X0146145Y0048266D02*
X0151874Y0048266D01*
X0151874Y0049864D02*
X0146145Y0049864D01*
X0146145Y0051463D02*
X0151874Y0051463D01*
X0151874Y0053061D02*
X0146145Y0053061D01*
X0146145Y0054660D02*
X0151874Y0054660D01*
X0151874Y0056258D02*
X0146145Y0056258D01*
X0146145Y0057857D02*
X0151874Y0057857D01*
X0151874Y0059455D02*
X0146145Y0059455D01*
X0146145Y0061054D02*
X0149280Y0061054D01*
X0149280Y0062652D02*
X0146145Y0062652D01*
X0146145Y0064251D02*
X0149280Y0064251D01*
X0149280Y0065849D02*
X0146145Y0065849D01*
X0146145Y0067448D02*
X0161106Y0067448D01*
X0160860Y0069046D02*
X0146145Y0069046D01*
X0146145Y0070645D02*
X0149314Y0070645D01*
X0149280Y0072243D02*
X0146145Y0072243D01*
X0146145Y0073842D02*
X0148264Y0073842D01*
X0147043Y0075440D02*
X0146145Y0075440D01*
X0146145Y0077039D02*
X0147043Y0077039D01*
X0147043Y0078637D02*
X0146145Y0078637D01*
X0146145Y0080236D02*
X0147043Y0080236D01*
X0147043Y0081834D02*
X0146145Y0081834D01*
X0146145Y0083433D02*
X0147043Y0083433D01*
X0146717Y0085031D02*
X0146145Y0085031D01*
X0154461Y0079406D02*
X0154457Y0078345D01*
X0155082Y0077720D01*
X0155765Y0077037D01*
X0156784Y0077037D01*
X0156784Y0073268D01*
X0156784Y0073268D01*
X0156784Y0077037D01*
X0157664Y0077037D01*
X0157664Y0080675D01*
X0156070Y0082269D01*
X0156070Y0081716D01*
X0155538Y0080429D01*
X0154553Y0079445D01*
X0154461Y0079406D01*
X0154458Y0078637D02*
X0157664Y0078637D01*
X0157664Y0077039D02*
X0155763Y0077039D01*
X0156784Y0075440D02*
X0156784Y0075440D01*
X0156784Y0073842D02*
X0156784Y0073842D01*
X0156784Y0072243D02*
X0156784Y0072243D01*
X0156784Y0070645D02*
X0156784Y0070645D01*
X0164444Y0072243D02*
X0164813Y0072243D01*
X0164813Y0070645D02*
X0174097Y0070645D01*
X0164813Y0073842D02*
X0164444Y0073842D01*
X0166104Y0078637D02*
X0161464Y0078637D01*
X0161464Y0080236D02*
X0164506Y0080236D01*
X0162907Y0081834D02*
X0161464Y0081834D01*
X0161309Y0083433D02*
X0160280Y0083433D01*
X0157664Y0080236D02*
X0155344Y0080236D01*
X0156070Y0081834D02*
X0156505Y0081834D01*
X0122192Y0094623D02*
X0120960Y0094623D01*
X0117126Y0094623D02*
X0115805Y0094623D01*
X0115805Y0093024D02*
X0117199Y0093024D01*
X0115601Y0091426D02*
X0114369Y0091426D01*
X0114743Y0089827D02*
X0113343Y0089827D01*
X0113343Y0088228D02*
X0114743Y0088228D01*
X0115118Y0086630D02*
X0112967Y0086630D01*
X0111369Y0085031D02*
X0116717Y0085031D01*
X0112005Y0094623D02*
X0110960Y0094623D01*
X0107126Y0094623D02*
X0105836Y0094623D01*
X0105836Y0093024D02*
X0107199Y0093024D01*
X0105601Y0091426D02*
X0104369Y0091426D01*
X0104743Y0089827D02*
X0103343Y0089827D01*
X0103343Y0088228D02*
X0104743Y0088228D01*
X0105118Y0086630D02*
X0102967Y0086630D01*
X0101369Y0085031D02*
X0106717Y0085031D01*
X0156692Y0038675D02*
X0164504Y0038675D01*
X0206850Y0081834D02*
X0241009Y0081834D01*
X0241009Y0080236D02*
X0208449Y0080236D01*
X0210047Y0078637D02*
X0241010Y0078637D01*
X0241010Y0077039D02*
X0211646Y0077039D01*
X0213244Y0075440D02*
X0241010Y0075440D01*
X0241011Y0073842D02*
X0214843Y0073842D01*
X0216441Y0072243D02*
X0241011Y0072243D01*
X0241012Y0070645D02*
X0218040Y0070645D01*
X0219638Y0069046D02*
X0241012Y0069046D01*
X0241012Y0067448D02*
X0221237Y0067448D01*
X0222273Y0065849D02*
X0241013Y0065849D01*
X0241013Y0064251D02*
X0222273Y0064251D01*
X0222273Y0062652D02*
X0233382Y0062652D01*
X0232760Y0061054D02*
X0222273Y0061054D01*
X0222273Y0059455D02*
X0232760Y0059455D01*
X0232760Y0057857D02*
X0222273Y0057857D01*
X0222273Y0056258D02*
X0232760Y0056258D01*
X0232760Y0054660D02*
X0222273Y0054660D01*
X0222273Y0053061D02*
X0232760Y0053061D01*
X0232760Y0051463D02*
X0222273Y0051463D01*
X0222273Y0049864D02*
X0232760Y0049864D01*
X0232760Y0048266D02*
X0222273Y0048266D01*
X0222273Y0046667D02*
X0232760Y0046667D01*
X0232760Y0045069D02*
X0222273Y0045069D01*
X0222273Y0043470D02*
X0232760Y0043470D01*
X0232760Y0041872D02*
X0222273Y0041872D01*
X0222273Y0040273D02*
X0232760Y0040273D01*
X0232760Y0038675D02*
X0222273Y0038675D01*
X0222273Y0037076D02*
X0232760Y0037076D01*
X0232760Y0035478D02*
X0222273Y0035478D01*
X0222273Y0033879D02*
X0232760Y0033879D01*
X0233557Y0032281D02*
X0222273Y0032281D01*
X0222273Y0030682D02*
X0241020Y0030682D01*
X0241021Y0029084D02*
X0222273Y0029084D01*
X0222273Y0027485D02*
X0223705Y0027485D01*
X0223705Y0025887D02*
X0222273Y0025887D01*
X0223106Y0024288D02*
X0223705Y0024288D01*
X0223705Y0022690D02*
X0223465Y0022690D01*
X0223465Y0021091D02*
X0223705Y0021091D01*
X0223705Y0019492D02*
X0223465Y0019492D01*
X0223465Y0017894D02*
X0223705Y0017894D01*
X0223705Y0016295D02*
X0223465Y0016295D01*
X0223465Y0014697D02*
X0223705Y0014697D01*
X0223705Y0013098D02*
X0223465Y0013098D01*
X0223465Y0011500D02*
X0223705Y0011500D01*
X0223705Y0009901D02*
X0223465Y0009901D01*
X0223465Y0008303D02*
X0223705Y0008303D01*
X0236860Y0035478D02*
X0241019Y0035478D01*
X0241019Y0037076D02*
X0236860Y0037076D01*
X0236860Y0038675D02*
X0241019Y0038675D01*
X0241018Y0040273D02*
X0236860Y0040273D01*
X0236860Y0041872D02*
X0241018Y0041872D01*
X0241018Y0043470D02*
X0236860Y0043470D01*
X0236860Y0045069D02*
X0241017Y0045069D01*
X0241017Y0046667D02*
X0236860Y0046667D01*
X0236860Y0048266D02*
X0241017Y0048266D01*
X0241016Y0049864D02*
X0236860Y0049864D01*
X0236860Y0051463D02*
X0241016Y0051463D01*
X0241015Y0053061D02*
X0236860Y0053061D01*
X0236860Y0054660D02*
X0241015Y0054660D01*
X0241015Y0056258D02*
X0236860Y0056258D01*
X0236860Y0057857D02*
X0241014Y0057857D01*
X0241014Y0059455D02*
X0236860Y0059455D01*
X0236860Y0061054D02*
X0241014Y0061054D01*
X0241013Y0062652D02*
X0236238Y0062652D01*
X0210116Y0152542D02*
X0209376Y0153282D01*
X0209376Y0161891D01*
X0196105Y0179344D02*
X0240987Y0179344D01*
X0240987Y0180942D02*
X0196792Y0180942D01*
X0196792Y0182541D02*
X0240987Y0182541D01*
X0240986Y0184139D02*
X0196495Y0184139D01*
X0194896Y0185738D02*
X0240986Y0185738D01*
X0189878Y0177745D02*
X0189070Y0177745D01*
X0075951Y0024288D02*
X0075951Y0024288D01*
X0075951Y0022690D02*
X0075951Y0022690D01*
X0075951Y0021091D02*
X0075951Y0021091D01*
X0075951Y0019492D02*
X0075951Y0019492D01*
X0075951Y0017894D02*
X0075951Y0017894D01*
X0075951Y0016295D02*
X0075951Y0016295D01*
X0075951Y0014697D02*
X0075951Y0014697D01*
X0072802Y0014697D02*
X0072802Y0014697D01*
X0072802Y0014449D02*
X0072802Y0014449D01*
X0072584Y0014449D01*
X0069652Y0014449D01*
X0069652Y0014449D01*
X0072802Y0014449D01*
X0072802Y0016295D02*
X0072802Y0016295D01*
X0072802Y0017894D02*
X0072802Y0017894D01*
X0072802Y0019492D02*
X0072802Y0019492D01*
X0072802Y0021091D02*
X0072802Y0021091D01*
X0072802Y0022690D02*
X0072802Y0022690D01*
X0072802Y0024288D02*
X0072802Y0024288D01*
X0069652Y0024288D02*
X0069652Y0024288D01*
X0069652Y0022690D02*
X0069652Y0022690D01*
X0069652Y0021091D02*
X0069652Y0021091D01*
X0069652Y0019492D02*
X0069652Y0019492D01*
X0069652Y0017894D02*
X0069652Y0017894D01*
X0069652Y0016295D02*
X0069652Y0016295D01*
X0069652Y0014697D02*
X0069652Y0014697D01*
X0066503Y0014697D02*
X0066503Y0014697D01*
X0066502Y0014449D02*
X0066502Y0014449D01*
X0066285Y0014449D01*
X0063353Y0014449D01*
X0063353Y0014449D01*
X0063353Y0014449D01*
X0060204Y0014449D01*
X0060204Y0014449D01*
X0063135Y0014449D01*
X0063353Y0014449D01*
X0066502Y0014449D01*
X0066503Y0016295D02*
X0066503Y0016295D01*
X0066503Y0017894D02*
X0066503Y0017894D01*
X0066503Y0019492D02*
X0066503Y0019492D01*
X0066503Y0021091D02*
X0066503Y0021091D01*
X0066503Y0022690D02*
X0066503Y0022690D01*
X0066503Y0024288D02*
X0066503Y0024288D01*
X0063353Y0024288D02*
X0063353Y0024288D01*
X0063353Y0022690D02*
X0063353Y0022690D01*
X0063353Y0021091D02*
X0063353Y0021091D01*
X0063353Y0019492D02*
X0063353Y0019492D01*
X0063353Y0017894D02*
X0063353Y0017894D01*
X0063353Y0016295D02*
X0063353Y0016295D01*
X0063353Y0014697D02*
X0063353Y0014697D01*
X0060203Y0014697D02*
X0060203Y0014697D01*
X0060203Y0016295D02*
X0060203Y0016295D01*
X0060203Y0017894D02*
X0060203Y0017894D01*
X0060203Y0019492D02*
X0060203Y0019492D01*
X0060203Y0021091D02*
X0060203Y0021091D01*
X0060203Y0022690D02*
X0060203Y0022690D01*
X0060203Y0024288D02*
X0060203Y0024288D01*
X0057054Y0024288D02*
X0057054Y0024288D01*
X0057054Y0022690D02*
X0057054Y0022690D01*
X0057054Y0021091D02*
X0057054Y0021091D01*
X0057054Y0019492D02*
X0057054Y0019492D01*
X0057054Y0017894D02*
X0057054Y0017894D01*
X0057054Y0016295D02*
X0057054Y0016295D01*
X0057054Y0014697D02*
X0057054Y0014697D01*
X0057054Y0014449D02*
X0057054Y0014449D01*
X0053904Y0014449D01*
X0053904Y0025107D01*
X0053904Y0014449D01*
X0053904Y0014449D01*
X0053904Y0014449D01*
X0056836Y0014449D01*
X0057054Y0014449D01*
X0053904Y0014697D02*
X0053904Y0014697D01*
X0053904Y0016295D02*
X0053904Y0016295D01*
X0053904Y0017894D02*
X0053904Y0017894D01*
X0053904Y0019492D02*
X0053904Y0019492D01*
X0053904Y0021091D02*
X0053904Y0021091D01*
X0053904Y0022690D02*
X0053904Y0022690D01*
X0053904Y0024288D02*
X0053904Y0024288D01*
X0019508Y0029084D02*
X0004654Y0029084D01*
X0004653Y0030682D02*
X0019551Y0030682D01*
X0011584Y0032359D02*
X0011584Y0032359D01*
D35*
X0097099Y0118708D03*
X0125158Y0170786D03*
X0113405Y0189069D03*
X0035524Y0167183D03*
X0029856Y0140384D03*
X0036781Y0258109D03*
D36*
X0129780Y0165313D02*
X0135945Y0171478D01*
X0153516Y0171478D01*
X0079526Y0087153D02*
X0079526Y0074236D01*
X0079546Y0074216D01*
X0079526Y0087153D02*
X0054329Y0087153D01*
X0054279Y0078149D02*
X0054329Y0078098D01*
X0054279Y0078149D02*
X0044856Y0078149D01*
X0045365Y0077640D01*
X0044856Y0078149D02*
X0044856Y0089407D01*
X0045488Y0090039D01*
X0045488Y0095041D01*
X0041183Y0099345D01*
X0041183Y0101244D01*
X0032688Y0101230D02*
X0032688Y0093184D01*
X0028911Y0089407D01*
D37*
X0035326Y0128696D03*
X0035016Y0132494D03*
X0051363Y0148516D03*
X0050718Y0186569D03*
X0053418Y0229389D03*
X0052975Y0237322D03*
X0053006Y0244963D03*
X0052458Y0252823D03*
X0097428Y0131705D03*
X0097697Y0126047D03*
X0145830Y0121738D03*
D38*
X0029990Y0089407D02*
X0029990Y0046167D01*
X0029990Y0089407D02*
X0028911Y0089407D01*
M02*
