G75*
%MOIN*%
%OFA0B0*%
%FSLAX25Y25*%
%IPPOS*%
%LPD*%
%AMOC8*
5,1,8,0,0,1.08239X$1,22.5*
%
%ADD10C,0.00700*%
%ADD11C,0.00200*%
%ADD12C,0.00400*%
%ADD13C,0.00800*%
%ADD14R,0.02657X0.09646*%
%ADD15C,0.00600*%
%ADD16C,0.00500*%
%ADD17C,0.01200*%
%ADD18C,0.01600*%
%ADD19C,0.00984*%
%ADD20C,0.00100*%
%ADD21C,0.01000*%
D10*
X0052409Y0061550D02*
X0052409Y0066821D01*
X0055045Y0069457D01*
X0057680Y0066821D01*
X0057680Y0061550D01*
X0060328Y0061550D02*
X0064281Y0061550D01*
X0065599Y0062868D01*
X0065599Y0065503D01*
X0064281Y0066821D01*
X0060328Y0066821D01*
X0060328Y0058914D01*
X0057680Y0065503D02*
X0052409Y0065503D01*
X0068247Y0066821D02*
X0068247Y0058914D01*
X0068247Y0061550D02*
X0072200Y0061550D01*
X0073518Y0062868D01*
X0073518Y0065503D01*
X0072200Y0066821D01*
X0068247Y0066821D01*
X0076165Y0069457D02*
X0077483Y0069457D01*
X0077483Y0061550D01*
X0076165Y0061550D02*
X0078801Y0061550D01*
X0081445Y0061550D02*
X0084080Y0061550D01*
X0082762Y0061550D02*
X0082762Y0066821D01*
X0081445Y0066821D01*
X0082762Y0069457D02*
X0082762Y0070775D01*
X0086724Y0065503D02*
X0086724Y0062868D01*
X0088042Y0061550D01*
X0091995Y0061550D01*
X0094642Y0062868D02*
X0095960Y0064186D01*
X0099914Y0064186D01*
X0099914Y0065503D02*
X0099914Y0061550D01*
X0095960Y0061550D01*
X0094642Y0062868D01*
X0095960Y0066821D02*
X0098596Y0066821D01*
X0099914Y0065503D01*
X0102561Y0066821D02*
X0105197Y0066821D01*
X0103879Y0068139D02*
X0103879Y0062868D01*
X0105197Y0061550D01*
X0107840Y0061550D02*
X0110476Y0061550D01*
X0109158Y0061550D02*
X0109158Y0066821D01*
X0107840Y0066821D01*
X0109158Y0069457D02*
X0109158Y0070775D01*
X0113120Y0065503D02*
X0113120Y0062868D01*
X0114437Y0061550D01*
X0117073Y0061550D01*
X0118391Y0062868D01*
X0118391Y0065503D01*
X0117073Y0066821D01*
X0114437Y0066821D01*
X0113120Y0065503D01*
X0121038Y0066821D02*
X0121038Y0061550D01*
X0121038Y0066821D02*
X0124992Y0066821D01*
X0126310Y0065503D01*
X0126310Y0061550D01*
X0136876Y0061550D02*
X0140829Y0061550D01*
X0142147Y0062868D01*
X0142147Y0064186D01*
X0140829Y0065503D01*
X0136876Y0065503D01*
X0136876Y0061550D02*
X0136876Y0069457D01*
X0140829Y0069457D01*
X0142147Y0068139D01*
X0142147Y0066821D01*
X0140829Y0065503D01*
X0144795Y0065503D02*
X0144795Y0062868D01*
X0146112Y0061550D01*
X0148748Y0061550D01*
X0150066Y0062868D01*
X0150066Y0065503D01*
X0148748Y0066821D01*
X0146112Y0066821D01*
X0144795Y0065503D01*
X0152713Y0062868D02*
X0154031Y0064186D01*
X0157985Y0064186D01*
X0157985Y0065503D02*
X0157985Y0061550D01*
X0154031Y0061550D01*
X0152713Y0062868D01*
X0154031Y0066821D02*
X0156667Y0066821D01*
X0157985Y0065503D01*
X0160632Y0064186D02*
X0163268Y0066821D01*
X0164586Y0066821D01*
X0167231Y0065503D02*
X0168549Y0066821D01*
X0172502Y0066821D01*
X0172502Y0069457D02*
X0172502Y0061550D01*
X0168549Y0061550D01*
X0167231Y0062868D01*
X0167231Y0065503D01*
X0160632Y0066821D02*
X0160632Y0061550D01*
X0091995Y0066821D02*
X0088042Y0066821D01*
X0086724Y0065503D01*
D11*
X0056267Y0044900D02*
X0055900Y0045267D01*
X0055900Y0046735D01*
X0056267Y0047102D01*
X0057001Y0047102D01*
X0057368Y0046735D01*
X0058110Y0046368D02*
X0058844Y0047102D01*
X0059578Y0046368D01*
X0059578Y0044900D01*
X0060320Y0044900D02*
X0060320Y0047102D01*
X0061054Y0046368D01*
X0061788Y0047102D01*
X0061788Y0044900D01*
X0062530Y0044533D02*
X0063998Y0044533D01*
X0064740Y0044900D02*
X0066207Y0044900D01*
X0066949Y0044900D02*
X0068417Y0044900D01*
X0069159Y0044900D02*
X0069159Y0047102D01*
X0070260Y0047102D01*
X0070627Y0046735D01*
X0070627Y0045267D01*
X0070260Y0044900D01*
X0069159Y0044900D01*
X0067683Y0046001D02*
X0066949Y0046001D01*
X0066949Y0047102D02*
X0066949Y0044900D01*
X0066949Y0047102D02*
X0068417Y0047102D01*
X0064740Y0047102D02*
X0064740Y0044900D01*
X0059578Y0046001D02*
X0058110Y0046001D01*
X0058110Y0046368D02*
X0058110Y0044900D01*
X0057368Y0045267D02*
X0057001Y0044900D01*
X0056267Y0044900D01*
X0071369Y0045634D02*
X0072103Y0044900D01*
X0072837Y0045634D01*
X0072837Y0047102D01*
X0071369Y0047102D02*
X0071369Y0045634D01*
X0078900Y0047001D02*
X0080368Y0047001D01*
X0081110Y0047001D02*
X0081844Y0047368D01*
X0082211Y0047368D01*
X0082578Y0047001D01*
X0082578Y0046267D01*
X0082211Y0045900D01*
X0081477Y0045900D01*
X0081110Y0046267D01*
X0081110Y0047001D02*
X0081110Y0048102D01*
X0082578Y0048102D01*
X0083320Y0048102D02*
X0083320Y0046634D01*
X0084054Y0045900D01*
X0084788Y0046634D01*
X0084788Y0048102D01*
X0079634Y0047735D02*
X0079634Y0046267D01*
X0099900Y0047001D02*
X0101368Y0047001D01*
X0102110Y0047368D02*
X0102844Y0048102D01*
X0102844Y0045900D01*
X0102110Y0045900D02*
X0103578Y0045900D01*
X0104320Y0045900D02*
X0105788Y0047368D01*
X0105788Y0047735D01*
X0105421Y0048102D01*
X0104687Y0048102D01*
X0104320Y0047735D01*
X0104320Y0045900D02*
X0105788Y0045900D01*
X0106530Y0046634D02*
X0107264Y0045900D01*
X0107998Y0046634D01*
X0107998Y0048102D01*
X0106530Y0048102D02*
X0106530Y0046634D01*
X0100634Y0046267D02*
X0100634Y0047735D01*
X0109961Y0102280D02*
X0109961Y0104482D01*
X0108860Y0103381D01*
X0110328Y0103381D01*
X0111070Y0102647D02*
X0111070Y0102280D01*
X0111070Y0102647D02*
X0112538Y0104115D01*
X0112538Y0104482D01*
X0111070Y0104482D01*
X0111060Y0105533D02*
X0112528Y0105533D01*
X0113270Y0106267D02*
X0113637Y0105900D01*
X0114371Y0105900D01*
X0114738Y0106267D01*
X0114738Y0107735D01*
X0114371Y0108102D01*
X0113637Y0108102D01*
X0113270Y0107735D01*
X0113270Y0106267D01*
X0113647Y0104482D02*
X0114381Y0104482D01*
X0114748Y0104115D01*
X0113280Y0102647D01*
X0113647Y0102280D01*
X0114381Y0102280D01*
X0114748Y0102647D01*
X0114748Y0104115D01*
X0115490Y0103748D02*
X0116591Y0103748D01*
X0116958Y0103381D01*
X0116958Y0102647D01*
X0116591Y0102280D01*
X0115490Y0102280D01*
X0115490Y0101546D02*
X0115490Y0103748D01*
X0113647Y0104482D02*
X0113280Y0104115D01*
X0113280Y0102647D01*
X0115480Y0105900D02*
X0115480Y0108102D01*
X0116948Y0108102D01*
X0117690Y0108102D02*
X0117690Y0105900D01*
X0117690Y0107001D02*
X0118423Y0107001D01*
X0117690Y0108102D02*
X0119157Y0108102D01*
X0118550Y0108541D02*
X0110810Y0108541D01*
X0110810Y0120139D01*
X0118550Y0120139D01*
X0118550Y0108541D01*
X0116214Y0107001D02*
X0115480Y0107001D01*
X0117700Y0104482D02*
X0119167Y0104482D01*
X0118433Y0103381D02*
X0117700Y0103381D01*
X0117700Y0102280D02*
X0117700Y0104482D01*
X0110318Y0106267D02*
X0109951Y0105900D01*
X0109217Y0105900D01*
X0108850Y0106267D01*
X0108850Y0107735D01*
X0109217Y0108102D01*
X0109951Y0108102D01*
X0110318Y0107735D01*
X0122836Y0119540D02*
X0124303Y0121008D01*
X0124303Y0121375D01*
X0123936Y0121742D01*
X0123202Y0121742D01*
X0122836Y0121375D01*
X0122381Y0120470D02*
X0122381Y0128210D01*
X0133979Y0128210D01*
X0133979Y0120470D01*
X0122381Y0120470D01*
X0122836Y0119540D02*
X0124303Y0119540D01*
X0125045Y0119540D02*
X0126513Y0121008D01*
X0126513Y0121375D01*
X0126146Y0121742D01*
X0125412Y0121742D01*
X0125045Y0121375D01*
X0125045Y0119540D02*
X0126513Y0119540D01*
X0127255Y0119540D02*
X0127622Y0119540D01*
X0127622Y0119907D01*
X0127255Y0119907D01*
X0127255Y0119540D01*
X0128360Y0119907D02*
X0128727Y0119540D01*
X0129461Y0119540D01*
X0129828Y0119907D01*
X0129828Y0120274D01*
X0129461Y0120641D01*
X0128360Y0120641D01*
X0128360Y0119907D01*
X0128360Y0120641D02*
X0129094Y0121375D01*
X0129828Y0121742D01*
X0130570Y0121742D02*
X0130570Y0119540D01*
X0130570Y0120274D02*
X0132038Y0121742D01*
X0130937Y0120641D02*
X0132038Y0119540D01*
X0135278Y0121362D02*
X0135645Y0120996D01*
X0135278Y0121362D02*
X0135278Y0122096D01*
X0135645Y0122463D01*
X0136012Y0122463D01*
X0137480Y0120996D01*
X0137480Y0122463D01*
X0137480Y0123205D02*
X0137480Y0123572D01*
X0137113Y0123572D01*
X0137113Y0123205D01*
X0137480Y0123205D01*
X0137480Y0124310D02*
X0136012Y0125778D01*
X0135645Y0125778D01*
X0135278Y0125411D01*
X0135278Y0124677D01*
X0135645Y0124310D01*
X0135810Y0122541D02*
X0135810Y0134139D01*
X0143550Y0134139D01*
X0143550Y0122541D01*
X0135810Y0122541D01*
X0137480Y0124310D02*
X0137480Y0125778D01*
X0137113Y0126520D02*
X0137480Y0126887D01*
X0137480Y0127988D01*
X0136012Y0127988D01*
X0136379Y0128730D02*
X0136379Y0129464D01*
X0135278Y0128730D02*
X0135278Y0130198D01*
X0135278Y0128730D02*
X0137480Y0128730D01*
X0137113Y0126520D02*
X0136012Y0126520D01*
X0133979Y0128470D02*
X0122381Y0128470D01*
X0122381Y0136210D01*
X0133979Y0136210D01*
X0133979Y0128470D01*
X0133167Y0127280D02*
X0131700Y0127280D01*
X0132433Y0127280D02*
X0132433Y0129482D01*
X0131700Y0128748D01*
X0130958Y0128014D02*
X0130958Y0129482D01*
X0130958Y0128014D02*
X0130224Y0127280D01*
X0129490Y0128014D01*
X0129490Y0129482D01*
X0128748Y0129482D02*
X0128748Y0127647D01*
X0128381Y0127280D01*
X0127647Y0127280D01*
X0127280Y0127647D01*
X0127280Y0129482D01*
X0126538Y0126913D02*
X0125070Y0126913D01*
X0124328Y0127280D02*
X0123594Y0128014D01*
X0123961Y0128014D02*
X0122860Y0128014D01*
X0122860Y0127280D02*
X0122860Y0129482D01*
X0123961Y0129482D01*
X0124328Y0129115D01*
X0124328Y0128381D01*
X0123961Y0128014D01*
X0119979Y0127970D02*
X0108381Y0127970D01*
X0108381Y0135710D01*
X0119979Y0135710D01*
X0119979Y0127970D01*
X0113668Y0127642D02*
X0112200Y0126174D01*
X0112567Y0126541D02*
X0113668Y0125440D01*
X0112200Y0125440D02*
X0112200Y0127642D01*
X0111458Y0127275D02*
X0109990Y0125807D01*
X0110357Y0125440D01*
X0111091Y0125440D01*
X0111458Y0125807D01*
X0111458Y0127275D01*
X0111091Y0127642D01*
X0110357Y0127642D01*
X0109990Y0127275D01*
X0109990Y0125807D01*
X0109248Y0125440D02*
X0107780Y0125440D01*
X0108514Y0125440D02*
X0108514Y0127642D01*
X0107780Y0126908D01*
X0105479Y0127970D02*
X0093881Y0127970D01*
X0093881Y0135710D01*
X0105479Y0135710D01*
X0105479Y0127970D01*
X0103482Y0127642D02*
X0102015Y0126174D01*
X0102382Y0126541D02*
X0103482Y0125440D01*
X0102015Y0125440D02*
X0102015Y0127642D01*
X0101273Y0127642D02*
X0101273Y0127275D01*
X0099805Y0125807D01*
X0099805Y0125440D01*
X0099063Y0125807D02*
X0098696Y0125440D01*
X0097962Y0125440D01*
X0097595Y0125807D01*
X0097595Y0126174D01*
X0097962Y0126541D01*
X0098696Y0126541D01*
X0099063Y0126174D01*
X0099063Y0125807D01*
X0098696Y0126541D02*
X0099063Y0126908D01*
X0099063Y0127275D01*
X0098696Y0127642D01*
X0097962Y0127642D01*
X0097595Y0127275D01*
X0097595Y0126908D01*
X0097962Y0126541D01*
X0096857Y0125807D02*
X0096857Y0125440D01*
X0096490Y0125440D01*
X0096490Y0125807D01*
X0096857Y0125807D01*
X0095748Y0127275D02*
X0094280Y0125807D01*
X0094280Y0125440D01*
X0094280Y0127642D02*
X0095748Y0127642D01*
X0095748Y0127275D01*
X0099805Y0127642D02*
X0101273Y0127642D01*
X0100410Y0136440D02*
X0100410Y0138642D01*
X0101878Y0138642D01*
X0102620Y0138642D02*
X0104087Y0138642D01*
X0103353Y0137541D02*
X0102620Y0137541D01*
X0102620Y0136440D02*
X0102620Y0138642D01*
X0101144Y0137541D02*
X0100410Y0137541D01*
X0099668Y0136807D02*
X0099668Y0138275D01*
X0099301Y0138642D01*
X0098567Y0138642D01*
X0098200Y0138275D01*
X0098200Y0136807D01*
X0098567Y0136440D01*
X0099301Y0136440D01*
X0099668Y0136807D01*
X0097458Y0136073D02*
X0095990Y0136073D01*
X0095248Y0136440D02*
X0094514Y0137174D01*
X0094881Y0137174D02*
X0093780Y0137174D01*
X0093780Y0136440D02*
X0093780Y0138642D01*
X0094881Y0138642D01*
X0095248Y0138275D01*
X0095248Y0137541D01*
X0094881Y0137174D01*
X0107780Y0137174D02*
X0108881Y0137174D01*
X0109248Y0137541D01*
X0109248Y0138275D01*
X0108881Y0138642D01*
X0107780Y0138642D01*
X0107780Y0136440D01*
X0108514Y0137174D02*
X0109248Y0136440D01*
X0109990Y0136073D02*
X0111458Y0136073D01*
X0112200Y0136440D02*
X0112200Y0138642D01*
X0113301Y0138642D01*
X0113668Y0138275D01*
X0113668Y0137541D01*
X0113301Y0137174D01*
X0112200Y0137174D01*
X0114410Y0136440D02*
X0115511Y0136440D01*
X0115878Y0136807D01*
X0115878Y0138275D01*
X0115511Y0138642D01*
X0114410Y0138642D01*
X0114410Y0136440D01*
X0123280Y0138440D02*
X0123280Y0140642D01*
X0124381Y0140642D01*
X0124748Y0140275D01*
X0124748Y0139541D01*
X0124381Y0139174D01*
X0123280Y0139174D01*
X0124014Y0139174D02*
X0124748Y0138440D01*
X0125490Y0138073D02*
X0126958Y0138073D01*
X0127001Y0137542D02*
X0127368Y0137175D01*
X0127368Y0136808D01*
X0127001Y0136441D01*
X0127368Y0136074D01*
X0127368Y0135707D01*
X0127001Y0135340D01*
X0126267Y0135340D01*
X0125900Y0135707D01*
X0125158Y0135340D02*
X0123690Y0135340D01*
X0124424Y0135340D02*
X0124424Y0137542D01*
X0123690Y0136808D01*
X0125900Y0137175D02*
X0126267Y0137542D01*
X0127001Y0137542D01*
X0127001Y0136441D02*
X0126634Y0136441D01*
X0128110Y0135707D02*
X0128477Y0135707D01*
X0128477Y0135340D01*
X0128110Y0135340D01*
X0128110Y0135707D01*
X0129215Y0135707D02*
X0129215Y0135340D01*
X0129215Y0135707D02*
X0130683Y0137175D01*
X0130683Y0137542D01*
X0129215Y0137542D01*
X0128801Y0138440D02*
X0129168Y0138807D01*
X0129168Y0140642D01*
X0129910Y0140642D02*
X0129910Y0139174D01*
X0130644Y0138440D01*
X0131378Y0139174D01*
X0131378Y0140642D01*
X0132120Y0140275D02*
X0132486Y0140642D01*
X0133220Y0140642D01*
X0133587Y0140275D01*
X0133587Y0139908D01*
X0132120Y0138440D01*
X0133587Y0138440D01*
X0132892Y0137542D02*
X0131425Y0136074D01*
X0131792Y0136441D02*
X0132892Y0135340D01*
X0131425Y0135340D02*
X0131425Y0137542D01*
X0128801Y0138440D02*
X0128067Y0138440D01*
X0127700Y0138807D01*
X0127700Y0140642D01*
X0134780Y0136775D02*
X0134780Y0135307D01*
X0135147Y0134940D01*
X0135881Y0134940D01*
X0136248Y0135307D01*
X0136990Y0134573D02*
X0138458Y0134573D01*
X0139200Y0134940D02*
X0139934Y0134940D01*
X0139567Y0134940D02*
X0139567Y0137142D01*
X0139200Y0137142D02*
X0139934Y0137142D01*
X0140673Y0137142D02*
X0142141Y0134940D01*
X0142141Y0137142D01*
X0142883Y0136775D02*
X0143250Y0137142D01*
X0143984Y0137142D01*
X0144351Y0136775D01*
X0144351Y0136408D01*
X0142883Y0134940D01*
X0144351Y0134940D01*
X0144900Y0135267D02*
X0145267Y0134900D01*
X0146001Y0134900D01*
X0146368Y0135267D01*
X0147110Y0134533D02*
X0148578Y0134533D01*
X0149320Y0134900D02*
X0150054Y0134900D01*
X0149687Y0134900D02*
X0149687Y0137102D01*
X0149320Y0137102D02*
X0150054Y0137102D01*
X0150793Y0137102D02*
X0152261Y0134900D01*
X0152261Y0137102D01*
X0153003Y0136368D02*
X0153737Y0137102D01*
X0153737Y0134900D01*
X0153003Y0134900D02*
X0154471Y0134900D01*
X0152050Y0134139D02*
X0144310Y0134139D01*
X0144310Y0122541D01*
X0152050Y0122541D01*
X0152050Y0134139D01*
X0150793Y0134900D02*
X0150793Y0137102D01*
X0146368Y0136735D02*
X0146001Y0137102D01*
X0145267Y0137102D01*
X0144900Y0136735D01*
X0144900Y0135267D01*
X0140673Y0134940D02*
X0140673Y0137142D01*
X0136248Y0136775D02*
X0135881Y0137142D01*
X0135147Y0137142D01*
X0134780Y0136775D01*
X0143778Y0130198D02*
X0143778Y0128730D01*
X0145980Y0128730D01*
X0145980Y0127988D02*
X0144512Y0127988D01*
X0144879Y0128730D02*
X0144879Y0129464D01*
X0145980Y0127988D02*
X0145980Y0126887D01*
X0145613Y0126520D01*
X0144512Y0126520D01*
X0144512Y0125778D02*
X0144145Y0125778D01*
X0143778Y0125411D01*
X0143778Y0124677D01*
X0144145Y0124310D01*
X0144512Y0125778D02*
X0145980Y0124310D01*
X0145980Y0125778D01*
X0145980Y0123572D02*
X0145980Y0123205D01*
X0145613Y0123205D01*
X0145613Y0123572D01*
X0145980Y0123572D01*
X0145980Y0122463D02*
X0145980Y0120996D01*
X0144512Y0122463D01*
X0144145Y0122463D01*
X0143778Y0122096D01*
X0143778Y0121362D01*
X0144145Y0120996D01*
X0156310Y0126739D02*
X0156310Y0115141D01*
X0164050Y0115141D01*
X0164050Y0126739D01*
X0156310Y0126739D01*
X0157307Y0114742D02*
X0156940Y0114375D01*
X0156940Y0112907D01*
X0157307Y0112540D01*
X0158041Y0112540D01*
X0158408Y0112907D01*
X0159150Y0112173D02*
X0160618Y0112173D01*
X0160672Y0111552D02*
X0160305Y0111185D01*
X0160305Y0109717D01*
X0161773Y0111185D01*
X0161773Y0109717D01*
X0161406Y0109350D01*
X0160672Y0109350D01*
X0160305Y0109717D01*
X0159567Y0109717D02*
X0159567Y0109350D01*
X0159200Y0109350D01*
X0159200Y0109717D01*
X0159567Y0109717D01*
X0158458Y0109350D02*
X0156990Y0109350D01*
X0157724Y0109350D02*
X0157724Y0111552D01*
X0156990Y0110818D01*
X0158408Y0114375D02*
X0158041Y0114742D01*
X0157307Y0114742D01*
X0161360Y0114742D02*
X0162828Y0114742D01*
X0162094Y0113641D02*
X0161360Y0113641D01*
X0161360Y0112540D02*
X0161360Y0114742D01*
X0161406Y0111552D02*
X0161773Y0111185D01*
X0161406Y0111552D02*
X0160672Y0111552D01*
X0162515Y0110818D02*
X0162515Y0109717D01*
X0162882Y0109350D01*
X0163983Y0109350D01*
X0163983Y0110818D01*
X0164725Y0110451D02*
X0165459Y0110451D01*
X0166192Y0111552D02*
X0164725Y0111552D01*
X0164725Y0109350D01*
X0173038Y0106533D02*
X0173038Y0122147D01*
X0204322Y0122147D01*
X0204322Y0106533D01*
X0173038Y0106533D01*
X0175780Y0105775D02*
X0176147Y0106142D01*
X0176881Y0106142D01*
X0177248Y0105775D01*
X0175780Y0104307D01*
X0176147Y0103940D01*
X0176881Y0103940D01*
X0177248Y0104307D01*
X0177248Y0105775D01*
X0175780Y0105775D02*
X0175780Y0104307D01*
X0177990Y0104307D02*
X0178357Y0104307D01*
X0178357Y0103940D01*
X0177990Y0103940D01*
X0177990Y0104307D01*
X0179095Y0104307D02*
X0179462Y0103940D01*
X0180196Y0103940D01*
X0180563Y0104307D01*
X0180563Y0104674D01*
X0180196Y0105041D01*
X0179829Y0105041D01*
X0180196Y0105041D02*
X0180563Y0105408D01*
X0180563Y0105775D01*
X0180196Y0106142D01*
X0179462Y0106142D01*
X0179095Y0105775D01*
X0181305Y0105041D02*
X0182406Y0105041D01*
X0182773Y0104674D01*
X0182773Y0104307D01*
X0182406Y0103940D01*
X0181672Y0103940D01*
X0181305Y0104307D01*
X0181305Y0105041D01*
X0182039Y0105775D01*
X0182773Y0106142D01*
X0183515Y0106142D02*
X0183515Y0105041D01*
X0184249Y0105408D01*
X0184616Y0105408D01*
X0184982Y0105041D01*
X0184982Y0104307D01*
X0184616Y0103940D01*
X0183882Y0103940D01*
X0183515Y0104307D01*
X0183515Y0106142D02*
X0184982Y0106142D01*
X0185220Y0122440D02*
X0184486Y0122440D01*
X0184120Y0122807D01*
X0184486Y0123541D02*
X0185220Y0123541D01*
X0185587Y0123174D01*
X0185587Y0122807D01*
X0185220Y0122440D01*
X0184486Y0123541D02*
X0184120Y0123908D01*
X0184120Y0124275D01*
X0184486Y0124642D01*
X0185220Y0124642D01*
X0185587Y0124275D01*
X0183378Y0124642D02*
X0183378Y0122440D01*
X0181910Y0124642D01*
X0181910Y0122440D01*
X0181168Y0122807D02*
X0180801Y0122440D01*
X0180067Y0122440D01*
X0179700Y0122807D01*
X0180067Y0123541D02*
X0180801Y0123541D01*
X0181168Y0123174D01*
X0181168Y0122807D01*
X0180067Y0123541D02*
X0179700Y0123908D01*
X0179700Y0124275D01*
X0180067Y0124642D01*
X0180801Y0124642D01*
X0181168Y0124275D01*
X0178958Y0122073D02*
X0177490Y0122073D01*
X0176748Y0122440D02*
X0176014Y0123174D01*
X0176381Y0123174D02*
X0175280Y0123174D01*
X0175280Y0122440D02*
X0175280Y0124642D01*
X0176381Y0124642D01*
X0176748Y0124275D01*
X0176748Y0123541D01*
X0176381Y0123174D01*
X0176881Y0132970D02*
X0176881Y0140710D01*
X0188479Y0140710D01*
X0188479Y0132970D01*
X0176881Y0132970D01*
X0175538Y0134407D02*
X0175538Y0135875D01*
X0174070Y0134407D01*
X0174437Y0134040D01*
X0175171Y0134040D01*
X0175538Y0134407D01*
X0175538Y0135875D02*
X0175171Y0136242D01*
X0174437Y0136242D01*
X0174070Y0135875D01*
X0174070Y0134407D01*
X0173328Y0134040D02*
X0171860Y0134040D01*
X0173328Y0135508D01*
X0173328Y0135875D01*
X0172961Y0136242D01*
X0172227Y0136242D01*
X0171860Y0135875D01*
X0171860Y0137040D02*
X0173328Y0137040D01*
X0172594Y0137040D02*
X0172594Y0139242D01*
X0171860Y0138508D01*
X0171118Y0138875D02*
X0171118Y0138141D01*
X0170751Y0137774D01*
X0169650Y0137774D01*
X0169650Y0137040D02*
X0169650Y0139242D01*
X0170751Y0139242D01*
X0171118Y0138875D01*
X0170384Y0137774D02*
X0171118Y0137040D01*
X0170384Y0136242D02*
X0170384Y0134040D01*
X0169650Y0134040D02*
X0171118Y0134040D01*
X0169650Y0135508D02*
X0170384Y0136242D01*
X0174070Y0137407D02*
X0174437Y0137040D01*
X0175171Y0137040D01*
X0175538Y0137407D01*
X0175538Y0137774D01*
X0175171Y0138141D01*
X0174804Y0138141D01*
X0175171Y0138141D02*
X0175538Y0138508D01*
X0175538Y0138875D01*
X0175171Y0139242D01*
X0174437Y0139242D01*
X0174070Y0138875D01*
X0189810Y0144639D02*
X0189810Y0133041D01*
X0197550Y0133041D01*
X0197550Y0144639D01*
X0189810Y0144639D01*
X0189727Y0153280D02*
X0190461Y0153280D01*
X0190828Y0153647D01*
X0190828Y0155482D01*
X0191570Y0155115D02*
X0191937Y0155482D01*
X0192671Y0155482D01*
X0193038Y0155115D01*
X0193038Y0154748D01*
X0191570Y0153280D01*
X0193038Y0153280D01*
X0189727Y0153280D02*
X0189360Y0153647D01*
X0189360Y0155482D01*
X0188068Y0157646D02*
X0188435Y0158013D01*
X0188435Y0159848D01*
X0187334Y0159848D01*
X0186967Y0159481D01*
X0186967Y0158747D01*
X0187334Y0158380D01*
X0188435Y0158380D01*
X0189177Y0158380D02*
X0189177Y0160582D01*
X0189544Y0159848D02*
X0190278Y0159848D01*
X0190645Y0159481D01*
X0190645Y0158380D01*
X0191754Y0158747D02*
X0192121Y0158380D01*
X0191754Y0158747D02*
X0191754Y0160215D01*
X0191387Y0159848D02*
X0192121Y0159848D01*
X0189544Y0159848D02*
X0189177Y0159481D01*
X0188068Y0157646D02*
X0187701Y0157646D01*
X0186228Y0158380D02*
X0185494Y0158380D01*
X0185861Y0158380D02*
X0185861Y0159848D01*
X0185494Y0159848D01*
X0185861Y0160582D02*
X0185861Y0160949D01*
X0184752Y0160215D02*
X0184752Y0159481D01*
X0184385Y0159114D01*
X0183284Y0159114D01*
X0184018Y0159114D02*
X0184752Y0158380D01*
X0183284Y0158380D02*
X0183284Y0160582D01*
X0184385Y0160582D01*
X0184752Y0160215D01*
X0175118Y0159481D02*
X0173650Y0159481D01*
X0174751Y0160582D01*
X0174751Y0158380D01*
X0172908Y0159114D02*
X0172908Y0160582D01*
X0171440Y0160582D02*
X0171440Y0159114D01*
X0172174Y0158380D01*
X0172908Y0159114D01*
X0170698Y0159114D02*
X0170698Y0158747D01*
X0170331Y0158380D01*
X0169597Y0158380D01*
X0169230Y0158747D01*
X0169597Y0159481D02*
X0170331Y0159481D01*
X0170698Y0159114D01*
X0170698Y0160215D02*
X0170331Y0160582D01*
X0169597Y0160582D01*
X0169230Y0160215D01*
X0169230Y0159848D01*
X0169597Y0159481D01*
X0162824Y0163440D02*
X0162824Y0164541D01*
X0162457Y0164908D01*
X0162090Y0164541D01*
X0162090Y0163440D01*
X0161356Y0163440D02*
X0161356Y0164908D01*
X0161723Y0164908D01*
X0162090Y0164541D01*
X0160614Y0164541D02*
X0160247Y0164908D01*
X0159513Y0164908D01*
X0159146Y0164541D01*
X0159146Y0163807D01*
X0159513Y0163440D01*
X0160247Y0163440D01*
X0160614Y0163807D01*
X0160614Y0164541D01*
X0158407Y0164908D02*
X0157673Y0164908D01*
X0158040Y0165275D02*
X0158040Y0163807D01*
X0158407Y0163440D01*
X0156934Y0163440D02*
X0156567Y0163807D01*
X0156567Y0165275D01*
X0156200Y0164908D02*
X0156934Y0164908D01*
X0155458Y0164541D02*
X0155091Y0164908D01*
X0154357Y0164908D01*
X0153990Y0164541D01*
X0153990Y0163807D01*
X0154357Y0163440D01*
X0155091Y0163440D01*
X0155458Y0163807D01*
X0155458Y0164541D01*
X0153248Y0164908D02*
X0152881Y0164541D01*
X0151780Y0164541D01*
X0151780Y0165642D02*
X0152881Y0165642D01*
X0153248Y0165275D01*
X0153248Y0164908D01*
X0152881Y0164541D02*
X0153248Y0164174D01*
X0153248Y0163807D01*
X0152881Y0163440D01*
X0151780Y0163440D01*
X0151780Y0165642D01*
X0149668Y0165275D02*
X0149668Y0164908D01*
X0149301Y0164541D01*
X0149668Y0164174D01*
X0149668Y0163807D01*
X0149301Y0163440D01*
X0148567Y0163440D01*
X0148200Y0163807D01*
X0147458Y0164174D02*
X0147458Y0165642D01*
X0148200Y0165275D02*
X0148567Y0165642D01*
X0149301Y0165642D01*
X0149668Y0165275D01*
X0149301Y0164541D02*
X0148934Y0164541D01*
X0147458Y0164174D02*
X0146724Y0163440D01*
X0145990Y0164174D01*
X0145990Y0165642D01*
X0145248Y0165275D02*
X0144881Y0165642D01*
X0144147Y0165642D01*
X0143780Y0165275D01*
X0143780Y0164908D01*
X0144147Y0164541D01*
X0144881Y0164541D01*
X0145248Y0164174D01*
X0145248Y0163807D01*
X0144881Y0163440D01*
X0144147Y0163440D01*
X0143780Y0163807D01*
X0125510Y0175212D02*
X0125143Y0174846D01*
X0124409Y0174846D01*
X0124042Y0175212D01*
X0124042Y0175946D02*
X0124776Y0176313D01*
X0125143Y0176313D01*
X0125510Y0175946D01*
X0125510Y0175212D01*
X0124042Y0175946D02*
X0124042Y0177047D01*
X0125510Y0177047D01*
X0123300Y0176680D02*
X0123300Y0175212D01*
X0122933Y0174846D01*
X0122199Y0174846D01*
X0121832Y0175212D01*
X0123300Y0176680D01*
X0122933Y0177047D01*
X0122199Y0177047D01*
X0121832Y0176680D01*
X0121832Y0175212D01*
X0121090Y0175946D02*
X0119622Y0175946D01*
X0120723Y0177047D01*
X0120723Y0174846D01*
X0118146Y0175946D02*
X0117412Y0175946D01*
X0116670Y0176313D02*
X0115202Y0174846D01*
X0116670Y0174846D01*
X0117412Y0174846D02*
X0117412Y0177047D01*
X0118880Y0177047D01*
X0116670Y0176680D02*
X0116303Y0177047D01*
X0115569Y0177047D01*
X0115202Y0176680D01*
X0114460Y0176680D02*
X0114460Y0176313D01*
X0114093Y0175946D01*
X0114460Y0175579D01*
X0114460Y0175212D01*
X0114093Y0174846D01*
X0113359Y0174846D01*
X0112992Y0175212D01*
X0112250Y0174846D02*
X0112250Y0177047D01*
X0111516Y0176313D01*
X0110782Y0177047D01*
X0110782Y0174846D01*
X0109307Y0174846D02*
X0109307Y0177047D01*
X0110040Y0177047D02*
X0108573Y0177047D01*
X0107831Y0176680D02*
X0107464Y0177047D01*
X0106730Y0177047D01*
X0106363Y0176680D01*
X0106363Y0176313D01*
X0106730Y0175946D01*
X0107464Y0175946D01*
X0107831Y0175579D01*
X0107831Y0175212D01*
X0107464Y0174846D01*
X0106730Y0174846D01*
X0106363Y0175212D01*
X0112992Y0176680D02*
X0113359Y0177047D01*
X0114093Y0177047D01*
X0114460Y0176680D01*
X0114093Y0175946D02*
X0113726Y0175946D01*
X0116670Y0176313D02*
X0116670Y0176680D01*
X0120031Y0203266D02*
X0120031Y0206202D01*
X0120398Y0205835D02*
X0120765Y0205468D01*
X0120398Y0205835D02*
X0119664Y0205835D01*
X0119297Y0205468D01*
X0119297Y0205101D01*
X0119664Y0204734D01*
X0120398Y0204734D01*
X0120765Y0204367D01*
X0120765Y0204000D01*
X0120398Y0203633D01*
X0119664Y0203633D01*
X0119297Y0204000D01*
X0118555Y0204000D02*
X0118555Y0205835D01*
X0117087Y0205835D02*
X0117087Y0204000D01*
X0117454Y0203633D01*
X0118188Y0203633D01*
X0118555Y0204000D01*
X0121507Y0203633D02*
X0122975Y0203633D01*
X0122241Y0203633D02*
X0122241Y0205835D01*
X0121507Y0205101D01*
X0088487Y0242780D02*
X0088120Y0243147D01*
X0088120Y0244615D01*
X0087753Y0244248D02*
X0088487Y0244248D01*
X0087014Y0243881D02*
X0086280Y0243881D01*
X0085538Y0243881D02*
X0085538Y0243514D01*
X0084070Y0243514D01*
X0084070Y0243881D02*
X0084437Y0244248D01*
X0085171Y0244248D01*
X0085538Y0243881D01*
X0085171Y0242780D02*
X0084437Y0242780D01*
X0084070Y0243147D01*
X0084070Y0243881D01*
X0083328Y0242780D02*
X0081860Y0242780D01*
X0081860Y0244982D01*
X0079014Y0244982D02*
X0079014Y0242780D01*
X0078280Y0242780D02*
X0079748Y0242780D01*
X0078280Y0244248D02*
X0079014Y0244982D01*
X0077538Y0244982D02*
X0077538Y0243514D01*
X0076804Y0242780D01*
X0076070Y0243514D01*
X0076070Y0244982D01*
X0075328Y0244615D02*
X0074961Y0244982D01*
X0074227Y0244982D01*
X0073860Y0244615D01*
X0073860Y0244248D01*
X0074227Y0243881D01*
X0074961Y0243881D01*
X0075328Y0243514D01*
X0075328Y0243147D01*
X0074961Y0242780D01*
X0074227Y0242780D01*
X0073860Y0243147D01*
X0068580Y0237772D02*
X0068580Y0236304D01*
X0068213Y0236304D01*
X0066745Y0237772D01*
X0066378Y0237772D01*
X0066378Y0236304D01*
X0066378Y0235562D02*
X0068580Y0235562D01*
X0067479Y0235562D02*
X0067479Y0234094D01*
X0068580Y0234094D02*
X0066378Y0234094D01*
X0066378Y0233352D02*
X0068580Y0233352D01*
X0068580Y0231884D02*
X0066378Y0231884D01*
X0067112Y0232618D01*
X0066378Y0233352D01*
X0066745Y0231142D02*
X0068213Y0229675D01*
X0068580Y0230042D01*
X0068580Y0230776D01*
X0068213Y0231142D01*
X0066745Y0231142D01*
X0066378Y0230776D01*
X0066378Y0230042D01*
X0066745Y0229675D01*
X0068213Y0229675D01*
X0068213Y0228933D02*
X0068580Y0228566D01*
X0068580Y0227832D01*
X0068213Y0227465D01*
X0066745Y0228933D01*
X0068213Y0228933D01*
X0066745Y0228933D02*
X0066378Y0228566D01*
X0066378Y0227832D01*
X0066745Y0227465D01*
X0068213Y0227465D01*
X0068213Y0226723D02*
X0068580Y0226356D01*
X0068580Y0225622D01*
X0068213Y0225255D01*
X0066745Y0226723D01*
X0068213Y0226723D01*
X0066745Y0226723D02*
X0066378Y0226356D01*
X0066378Y0225622D01*
X0066745Y0225255D01*
X0068213Y0225255D01*
X0068213Y0224517D02*
X0068580Y0224517D01*
X0068580Y0224150D01*
X0068213Y0224150D01*
X0068213Y0224517D01*
X0068213Y0223408D02*
X0068580Y0223041D01*
X0068580Y0222307D01*
X0068213Y0221940D01*
X0067846Y0221940D01*
X0067479Y0222307D01*
X0067479Y0223041D01*
X0067846Y0223408D01*
X0068213Y0223408D01*
X0067479Y0223041D02*
X0067112Y0223408D01*
X0066745Y0223408D01*
X0066378Y0223041D01*
X0066378Y0222307D01*
X0066745Y0221940D01*
X0067112Y0221940D01*
X0067479Y0222307D01*
X0058117Y0221387D02*
X0058117Y0213647D01*
X0046519Y0213647D01*
X0046519Y0221387D01*
X0058117Y0221387D01*
X0058479Y0212710D02*
X0058479Y0204970D01*
X0046881Y0204970D01*
X0046881Y0212710D01*
X0058479Y0212710D01*
X0062487Y0202482D02*
X0046873Y0202482D01*
X0046873Y0171198D01*
X0062487Y0171198D01*
X0062487Y0202482D01*
X0047015Y0207319D02*
X0045547Y0207319D01*
X0045547Y0205117D01*
X0044805Y0205117D02*
X0044805Y0206218D01*
X0044438Y0206585D01*
X0043338Y0206585D01*
X0043338Y0205117D01*
X0042596Y0205484D02*
X0042229Y0205117D01*
X0041495Y0205117D01*
X0041128Y0205484D01*
X0042596Y0206952D01*
X0042596Y0205484D01*
X0042596Y0206952D02*
X0042229Y0207319D01*
X0041495Y0207319D01*
X0041128Y0206952D01*
X0041128Y0205484D01*
X0040386Y0205117D02*
X0038918Y0205117D01*
X0039652Y0205117D02*
X0039652Y0207319D01*
X0038918Y0206585D01*
X0041860Y0208040D02*
X0041860Y0210242D01*
X0042961Y0210242D01*
X0043328Y0209875D01*
X0043328Y0209141D01*
X0042961Y0208774D01*
X0041860Y0208774D01*
X0042594Y0208774D02*
X0043328Y0208040D01*
X0044070Y0208040D02*
X0045538Y0209508D01*
X0045538Y0209875D01*
X0045171Y0210242D01*
X0044437Y0210242D01*
X0044070Y0209875D01*
X0044070Y0208040D02*
X0045538Y0208040D01*
X0045547Y0206218D02*
X0046281Y0206218D01*
X0045171Y0201482D02*
X0044437Y0201482D01*
X0044070Y0201115D01*
X0043328Y0201115D02*
X0042961Y0201482D01*
X0042227Y0201482D01*
X0041860Y0201115D01*
X0041860Y0200748D01*
X0042227Y0200381D01*
X0042961Y0200381D01*
X0043328Y0200014D01*
X0043328Y0199647D01*
X0042961Y0199280D01*
X0042227Y0199280D01*
X0041860Y0199647D01*
X0044070Y0199280D02*
X0045538Y0200748D01*
X0045538Y0201115D01*
X0045171Y0201482D01*
X0045538Y0199280D02*
X0044070Y0199280D01*
X0044167Y0191482D02*
X0042700Y0191482D01*
X0043433Y0191482D02*
X0043433Y0189280D01*
X0041958Y0189280D02*
X0040490Y0189280D01*
X0040490Y0191482D01*
X0041958Y0191482D01*
X0041224Y0190381D02*
X0040490Y0190381D01*
X0039748Y0190014D02*
X0039748Y0189647D01*
X0039381Y0189280D01*
X0038647Y0189280D01*
X0038280Y0189647D01*
X0038647Y0190381D02*
X0039381Y0190381D01*
X0039748Y0190014D01*
X0039748Y0191115D02*
X0039381Y0191482D01*
X0038647Y0191482D01*
X0038280Y0191115D01*
X0038280Y0190748D01*
X0038647Y0190381D01*
X0037538Y0191482D02*
X0036070Y0191482D01*
X0036070Y0189280D01*
X0037538Y0189280D01*
X0036804Y0190381D02*
X0036070Y0190381D01*
X0035328Y0190381D02*
X0034961Y0190014D01*
X0033860Y0190014D01*
X0034594Y0190014D02*
X0035328Y0189280D01*
X0035328Y0190381D02*
X0035328Y0191115D01*
X0034961Y0191482D01*
X0033860Y0191482D01*
X0033860Y0189280D01*
X0038650Y0214040D02*
X0040118Y0214040D01*
X0039384Y0214040D02*
X0039384Y0216242D01*
X0038650Y0215508D01*
X0040860Y0215875D02*
X0041227Y0216242D01*
X0041961Y0216242D01*
X0042328Y0215875D01*
X0040860Y0214407D01*
X0041227Y0214040D01*
X0041961Y0214040D01*
X0042328Y0214407D01*
X0042328Y0215875D01*
X0043070Y0216242D02*
X0043070Y0214040D01*
X0043070Y0214774D02*
X0044538Y0216242D01*
X0044128Y0217117D02*
X0044128Y0217484D01*
X0045596Y0218952D01*
X0045596Y0219319D01*
X0044128Y0219319D01*
X0043386Y0218952D02*
X0043019Y0219319D01*
X0042285Y0219319D01*
X0041918Y0218952D01*
X0041918Y0217484D01*
X0042285Y0217117D01*
X0043019Y0217117D01*
X0043386Y0217484D01*
X0043437Y0215141D02*
X0044538Y0214040D01*
X0040860Y0214407D02*
X0040860Y0215875D01*
X0051174Y0242380D02*
X0051174Y0243481D01*
X0051908Y0244215D01*
X0051908Y0244582D01*
X0052650Y0243848D02*
X0053384Y0244582D01*
X0053384Y0242380D01*
X0052650Y0242380D02*
X0054118Y0242380D01*
X0051174Y0243481D02*
X0050440Y0244215D01*
X0050440Y0244582D01*
X0054038Y0247033D02*
X0054038Y0262647D01*
X0085322Y0262647D01*
X0085322Y0247033D01*
X0054038Y0247033D01*
X0053727Y0263040D02*
X0053360Y0263407D01*
X0053727Y0263040D02*
X0054461Y0263040D01*
X0054828Y0263407D01*
X0054828Y0263774D01*
X0054461Y0264141D01*
X0053727Y0264141D01*
X0053360Y0264508D01*
X0053360Y0264875D01*
X0053727Y0265242D01*
X0054461Y0265242D01*
X0054828Y0264875D01*
X0055570Y0264508D02*
X0056304Y0265242D01*
X0056304Y0263040D01*
X0055570Y0263040D02*
X0057038Y0263040D01*
X0063940Y0263040D02*
X0065041Y0263040D01*
X0065408Y0263407D01*
X0065408Y0263774D01*
X0065041Y0264141D01*
X0063940Y0264141D01*
X0063940Y0263040D02*
X0063940Y0265242D01*
X0065041Y0265242D01*
X0065408Y0264875D01*
X0065408Y0264508D01*
X0065041Y0264141D01*
X0066150Y0264875D02*
X0066150Y0263407D01*
X0066517Y0263040D01*
X0067251Y0263040D01*
X0067618Y0263407D01*
X0067618Y0264875D01*
X0067251Y0265242D01*
X0066517Y0265242D01*
X0066150Y0264875D01*
X0068360Y0264875D02*
X0068360Y0263407D01*
X0068727Y0263040D01*
X0069461Y0263040D01*
X0069828Y0263407D01*
X0069828Y0264875D01*
X0069461Y0265242D01*
X0068727Y0265242D01*
X0068360Y0264875D01*
X0070570Y0265242D02*
X0072038Y0265242D01*
X0071304Y0265242D02*
X0071304Y0263040D01*
X0087014Y0244982D02*
X0086647Y0244615D01*
X0086647Y0242780D01*
X0154150Y0267907D02*
X0154517Y0267540D01*
X0155251Y0267540D01*
X0155618Y0267907D01*
X0155618Y0268274D01*
X0155251Y0268641D01*
X0154517Y0268641D01*
X0154150Y0269008D01*
X0154150Y0269375D01*
X0154517Y0269742D01*
X0155251Y0269742D01*
X0155618Y0269375D01*
X0156360Y0269742D02*
X0156360Y0268274D01*
X0157094Y0267540D01*
X0157828Y0268274D01*
X0157828Y0269742D01*
X0158570Y0269375D02*
X0158937Y0269742D01*
X0159671Y0269742D01*
X0160038Y0269375D01*
X0160038Y0269008D01*
X0158570Y0267540D01*
X0160038Y0267540D01*
X0161884Y0267540D02*
X0161884Y0269742D01*
X0161150Y0269742D02*
X0162618Y0269742D01*
X0163360Y0268641D02*
X0163360Y0267907D01*
X0163727Y0267540D01*
X0164461Y0267540D01*
X0164828Y0267907D01*
X0164828Y0268641D01*
X0164461Y0269008D01*
X0163727Y0269008D01*
X0163360Y0268641D01*
X0165570Y0269008D02*
X0165570Y0266806D01*
X0165570Y0267540D02*
X0166671Y0267540D01*
X0167038Y0267907D01*
X0167038Y0268641D01*
X0166671Y0269008D01*
X0165570Y0269008D01*
X0185283Y0271747D02*
X0185650Y0271380D01*
X0186384Y0271380D01*
X0186751Y0271747D01*
X0186751Y0273582D01*
X0187493Y0273215D02*
X0187860Y0273582D01*
X0188594Y0273582D01*
X0188961Y0273215D01*
X0188961Y0272848D01*
X0188594Y0272481D01*
X0188961Y0272114D01*
X0188961Y0271747D01*
X0188594Y0271380D01*
X0187860Y0271380D01*
X0187493Y0271747D01*
X0188227Y0272481D02*
X0188594Y0272481D01*
X0185283Y0271747D02*
X0185283Y0273582D01*
X0204881Y0262710D02*
X0204881Y0254970D01*
X0216479Y0254970D01*
X0216479Y0262710D01*
X0204881Y0262710D01*
X0206647Y0264440D02*
X0206280Y0264807D01*
X0207748Y0266275D01*
X0207748Y0264807D01*
X0207381Y0264440D01*
X0206647Y0264440D01*
X0206280Y0264807D02*
X0206280Y0266275D01*
X0206647Y0266642D01*
X0207381Y0266642D01*
X0207748Y0266275D01*
X0207381Y0267440D02*
X0207748Y0267807D01*
X0207381Y0267440D02*
X0206647Y0267440D01*
X0206280Y0267807D01*
X0206280Y0269275D01*
X0206647Y0269642D01*
X0207381Y0269642D01*
X0207748Y0269275D01*
X0208490Y0268908D02*
X0209224Y0269642D01*
X0209224Y0267440D01*
X0208490Y0267440D02*
X0209958Y0267440D01*
X0209962Y0266642D02*
X0209595Y0266275D01*
X0209962Y0266642D02*
X0210696Y0266642D01*
X0211063Y0266275D01*
X0211063Y0265908D01*
X0209595Y0264440D01*
X0211063Y0264440D01*
X0211805Y0264440D02*
X0213273Y0265908D01*
X0213273Y0266275D01*
X0212906Y0266642D01*
X0212172Y0266642D01*
X0211805Y0266275D01*
X0211801Y0267440D02*
X0211801Y0269642D01*
X0210700Y0268541D01*
X0212168Y0268541D01*
X0214015Y0265908D02*
X0214015Y0264807D01*
X0214382Y0264440D01*
X0215482Y0264440D01*
X0215482Y0265908D01*
X0216224Y0265541D02*
X0216958Y0265541D01*
X0216224Y0266642D02*
X0217692Y0266642D01*
X0216224Y0266642D02*
X0216224Y0264440D01*
X0213273Y0264440D02*
X0211805Y0264440D01*
X0208857Y0264440D02*
X0208857Y0264807D01*
X0208490Y0264807D01*
X0208490Y0264440D01*
X0208857Y0264440D01*
X0208816Y0245582D02*
X0210284Y0243380D01*
X0210284Y0245582D01*
X0211026Y0244848D02*
X0211760Y0245582D01*
X0211760Y0243380D01*
X0211026Y0243380D02*
X0212494Y0243380D01*
X0208816Y0243380D02*
X0208816Y0245582D01*
X0208074Y0245215D02*
X0208074Y0244481D01*
X0207707Y0244114D01*
X0206606Y0244114D01*
X0206606Y0243380D02*
X0206606Y0245582D01*
X0207707Y0245582D01*
X0208074Y0245215D01*
X0207340Y0244114D02*
X0208074Y0243380D01*
X0207604Y0231942D02*
X0207604Y0229740D01*
X0206870Y0229740D02*
X0208338Y0229740D01*
X0206870Y0231208D02*
X0207604Y0231942D01*
X0206128Y0231942D02*
X0204660Y0231942D01*
X0205394Y0231942D02*
X0205394Y0229740D01*
X0206027Y0220942D02*
X0206761Y0220942D01*
X0207128Y0220575D01*
X0205660Y0219107D01*
X0206027Y0218740D01*
X0206761Y0218740D01*
X0207128Y0219107D01*
X0207128Y0220575D01*
X0207870Y0220942D02*
X0208971Y0220942D01*
X0209338Y0220575D01*
X0209338Y0219841D01*
X0208971Y0219474D01*
X0207870Y0219474D01*
X0207870Y0218740D02*
X0207870Y0220942D01*
X0206027Y0220942D02*
X0205660Y0220575D01*
X0205660Y0219107D01*
X0204918Y0219841D02*
X0203450Y0219841D01*
X0204551Y0220942D01*
X0204551Y0218740D01*
X0202708Y0219107D02*
X0202341Y0218740D01*
X0201607Y0218740D01*
X0201240Y0219107D01*
X0200498Y0218740D02*
X0200498Y0220942D01*
X0201240Y0220575D02*
X0201607Y0220942D01*
X0202341Y0220942D01*
X0202708Y0220575D01*
X0202708Y0220208D01*
X0202341Y0219841D01*
X0202708Y0219474D01*
X0202708Y0219107D01*
X0202341Y0219841D02*
X0201974Y0219841D01*
X0200498Y0218740D02*
X0199031Y0220942D01*
X0199031Y0218740D01*
X0198289Y0219107D02*
X0198289Y0220575D01*
X0197922Y0220942D01*
X0196821Y0220942D01*
X0196821Y0218740D01*
X0197922Y0218740D01*
X0198289Y0219107D01*
X0196079Y0220942D02*
X0194611Y0220942D01*
X0194611Y0218740D01*
X0194611Y0219841D02*
X0195345Y0219841D01*
X0208360Y0213242D02*
X0208360Y0211040D01*
X0209461Y0211040D01*
X0209828Y0211407D01*
X0209828Y0212875D01*
X0209461Y0213242D01*
X0208360Y0213242D01*
X0210570Y0212508D02*
X0211304Y0213242D01*
X0211304Y0211040D01*
X0210570Y0211040D02*
X0212038Y0211040D01*
X0213881Y0212970D02*
X0213881Y0220710D01*
X0225479Y0220710D01*
X0225479Y0212970D01*
X0213881Y0212970D01*
X0224126Y0215407D02*
X0225594Y0216875D01*
X0225594Y0215407D01*
X0225227Y0215040D01*
X0224493Y0215040D01*
X0224126Y0215407D01*
X0224126Y0216875D01*
X0224493Y0217242D01*
X0225227Y0217242D01*
X0225594Y0216875D01*
X0226017Y0218040D02*
X0226751Y0218040D01*
X0227118Y0218407D01*
X0227860Y0218040D02*
X0229328Y0218040D01*
X0228594Y0218040D02*
X0228594Y0220242D01*
X0227860Y0219508D01*
X0227118Y0219875D02*
X0226751Y0220242D01*
X0226017Y0220242D01*
X0225650Y0219875D01*
X0225650Y0218407D01*
X0226017Y0218040D01*
X0227440Y0216875D02*
X0227807Y0217242D01*
X0228541Y0217242D01*
X0228908Y0216875D01*
X0228908Y0216508D01*
X0227440Y0215040D01*
X0228908Y0215040D01*
X0229650Y0215040D02*
X0231118Y0216508D01*
X0231118Y0216875D01*
X0230751Y0217242D01*
X0230017Y0217242D01*
X0229650Y0216875D01*
X0230070Y0218040D02*
X0231538Y0219508D01*
X0231538Y0219875D01*
X0231171Y0220242D01*
X0230437Y0220242D01*
X0230070Y0219875D01*
X0230070Y0218040D02*
X0231538Y0218040D01*
X0231860Y0216508D02*
X0231860Y0215407D01*
X0232227Y0215040D01*
X0233328Y0215040D01*
X0233328Y0216508D01*
X0234070Y0216141D02*
X0234804Y0216141D01*
X0234070Y0217242D02*
X0235538Y0217242D01*
X0234070Y0217242D02*
X0234070Y0215040D01*
X0231118Y0215040D02*
X0229650Y0215040D01*
X0226702Y0215040D02*
X0226335Y0215040D01*
X0226335Y0215407D01*
X0226702Y0215407D01*
X0226702Y0215040D01*
X0216479Y0198710D02*
X0216479Y0190970D01*
X0204881Y0190970D01*
X0204881Y0198710D01*
X0216479Y0198710D01*
X0218780Y0191892D02*
X0218780Y0191525D01*
X0219514Y0190791D01*
X0219514Y0189690D01*
X0219514Y0190791D02*
X0220248Y0191525D01*
X0220248Y0191892D01*
X0220990Y0190791D02*
X0221357Y0191158D01*
X0222091Y0191158D01*
X0222458Y0190791D01*
X0222458Y0190424D01*
X0220990Y0190424D01*
X0220990Y0190057D02*
X0220990Y0190791D01*
X0220990Y0190057D02*
X0221357Y0189690D01*
X0222091Y0189690D01*
X0223200Y0189690D02*
X0223934Y0189690D01*
X0223567Y0189690D02*
X0223567Y0191892D01*
X0223200Y0191892D01*
X0224673Y0191892D02*
X0225040Y0191892D01*
X0225040Y0189690D01*
X0224673Y0189690D02*
X0225407Y0189690D01*
X0226146Y0190057D02*
X0226513Y0189690D01*
X0227247Y0189690D01*
X0227614Y0190057D01*
X0227614Y0190791D01*
X0227247Y0191158D01*
X0226513Y0191158D01*
X0226146Y0190791D01*
X0226146Y0190057D01*
X0228356Y0190057D02*
X0228723Y0189690D01*
X0229090Y0190057D01*
X0229457Y0189690D01*
X0229824Y0190057D01*
X0229824Y0191158D01*
X0228356Y0191158D02*
X0228356Y0190057D01*
X0229280Y0193690D02*
X0230381Y0193690D01*
X0230748Y0194057D01*
X0230748Y0195525D01*
X0230381Y0195892D01*
X0229280Y0195892D01*
X0229280Y0193690D01*
X0231490Y0193690D02*
X0232958Y0195158D01*
X0232958Y0195525D01*
X0232591Y0195892D01*
X0231857Y0195892D01*
X0231490Y0195525D01*
X0231490Y0193690D02*
X0232958Y0193690D01*
X0232591Y0186892D02*
X0232958Y0186525D01*
X0232958Y0186158D01*
X0232591Y0185791D01*
X0232958Y0185424D01*
X0232958Y0185057D01*
X0232591Y0184690D01*
X0231857Y0184690D01*
X0231490Y0185057D01*
X0230748Y0185057D02*
X0230748Y0186525D01*
X0230381Y0186892D01*
X0229280Y0186892D01*
X0229280Y0184690D01*
X0230381Y0184690D01*
X0230748Y0185057D01*
X0231490Y0186525D02*
X0231857Y0186892D01*
X0232591Y0186892D01*
X0232591Y0185791D02*
X0232224Y0185791D01*
X0232591Y0177892D02*
X0231490Y0176791D01*
X0232958Y0176791D01*
X0232591Y0175690D02*
X0232591Y0177892D01*
X0230748Y0177525D02*
X0230381Y0177892D01*
X0229280Y0177892D01*
X0229280Y0175690D01*
X0230381Y0175690D01*
X0230748Y0176057D01*
X0230748Y0177525D01*
X0226878Y0173892D02*
X0225410Y0173892D01*
X0225410Y0171690D01*
X0226878Y0171690D01*
X0226144Y0172791D02*
X0225410Y0172791D01*
X0224668Y0172057D02*
X0224668Y0173892D01*
X0223200Y0173892D02*
X0223200Y0172057D01*
X0223567Y0171690D01*
X0224301Y0171690D01*
X0224668Y0172057D01*
X0222458Y0171690D02*
X0220990Y0171690D01*
X0220990Y0173892D01*
X0220248Y0173525D02*
X0220248Y0173158D01*
X0219881Y0172791D01*
X0218780Y0172791D01*
X0218780Y0173892D02*
X0219881Y0173892D01*
X0220248Y0173525D01*
X0219881Y0172791D02*
X0220248Y0172424D01*
X0220248Y0172057D01*
X0219881Y0171690D01*
X0218780Y0171690D01*
X0218780Y0173892D01*
X0216479Y0172970D02*
X0216479Y0180710D01*
X0204881Y0180710D01*
X0204881Y0172970D01*
X0216479Y0172970D01*
X0216479Y0171710D02*
X0216479Y0163970D01*
X0204881Y0163970D01*
X0204881Y0171710D01*
X0216479Y0171710D01*
X0219147Y0164892D02*
X0218780Y0164525D01*
X0218780Y0163057D01*
X0219147Y0162690D01*
X0219881Y0162690D01*
X0220248Y0163057D01*
X0220248Y0163791D01*
X0219514Y0163791D01*
X0220248Y0164525D02*
X0219881Y0164892D01*
X0219147Y0164892D01*
X0220990Y0164892D02*
X0222091Y0164892D01*
X0222458Y0164525D01*
X0222458Y0163791D01*
X0222091Y0163424D01*
X0220990Y0163424D01*
X0221724Y0163424D02*
X0222458Y0162690D01*
X0223200Y0162690D02*
X0224668Y0162690D01*
X0225410Y0162690D02*
X0226878Y0162690D01*
X0227620Y0162690D02*
X0227620Y0164892D01*
X0229087Y0162690D01*
X0229087Y0164892D01*
X0229280Y0166690D02*
X0229280Y0168892D01*
X0230381Y0168892D01*
X0230748Y0168525D01*
X0230748Y0167057D01*
X0230381Y0166690D01*
X0229280Y0166690D01*
X0231490Y0167057D02*
X0231857Y0166690D01*
X0232591Y0166690D01*
X0232958Y0167057D01*
X0232958Y0167791D01*
X0232591Y0168158D01*
X0232224Y0168158D01*
X0231490Y0167791D01*
X0231490Y0168892D01*
X0232958Y0168892D01*
X0226878Y0164892D02*
X0225410Y0164892D01*
X0225410Y0162690D01*
X0225410Y0163791D02*
X0226144Y0163791D01*
X0224668Y0164892D02*
X0223200Y0164892D01*
X0223200Y0162690D01*
X0223200Y0163791D02*
X0223934Y0163791D01*
X0220990Y0162690D02*
X0220990Y0164892D01*
X0220990Y0180690D02*
X0222458Y0180690D01*
X0223200Y0180690D02*
X0224301Y0180690D01*
X0224668Y0181057D01*
X0224668Y0182525D01*
X0224301Y0182892D01*
X0223200Y0182892D01*
X0223200Y0180690D01*
X0221724Y0181791D02*
X0220990Y0181791D01*
X0220248Y0181791D02*
X0219881Y0181424D01*
X0218780Y0181424D01*
X0219514Y0181424D02*
X0220248Y0180690D01*
X0220990Y0180690D02*
X0220990Y0182892D01*
X0222458Y0182892D01*
X0220248Y0182525D02*
X0220248Y0181791D01*
X0220248Y0182525D02*
X0219881Y0182892D01*
X0218780Y0182892D01*
X0218780Y0180690D01*
X0216479Y0181970D02*
X0216479Y0189710D01*
X0204881Y0189710D01*
X0204881Y0181970D01*
X0216479Y0181970D01*
X0203538Y0182040D02*
X0202070Y0182040D01*
X0203538Y0183508D01*
X0203538Y0183875D01*
X0203171Y0184242D01*
X0202437Y0184242D01*
X0202070Y0183875D01*
X0201328Y0183875D02*
X0201328Y0183508D01*
X0200961Y0183141D01*
X0200227Y0183141D01*
X0199860Y0183508D01*
X0199860Y0183875D01*
X0200227Y0184242D01*
X0200961Y0184242D01*
X0201328Y0183875D01*
X0200961Y0183141D02*
X0201328Y0182774D01*
X0201328Y0182407D01*
X0200961Y0182040D01*
X0200227Y0182040D01*
X0199860Y0182407D01*
X0199860Y0182774D01*
X0200227Y0183141D01*
X0199860Y0185040D02*
X0199860Y0187242D01*
X0200961Y0187242D01*
X0201328Y0186875D01*
X0201328Y0186141D01*
X0200961Y0185774D01*
X0199860Y0185774D01*
X0200594Y0185774D02*
X0201328Y0185040D01*
X0202070Y0186141D02*
X0203538Y0186141D01*
X0203171Y0187242D02*
X0202070Y0186141D01*
X0203171Y0185040D02*
X0203171Y0187242D01*
X0203538Y0192040D02*
X0202070Y0192040D01*
X0203538Y0193508D01*
X0203538Y0193875D01*
X0203171Y0194242D01*
X0202437Y0194242D01*
X0202070Y0193875D01*
X0201328Y0193875D02*
X0201328Y0193508D01*
X0200961Y0193141D01*
X0200227Y0193141D01*
X0199860Y0193508D01*
X0199860Y0193875D01*
X0200227Y0194242D01*
X0200961Y0194242D01*
X0201328Y0193875D01*
X0200961Y0193141D02*
X0201328Y0192774D01*
X0201328Y0192407D01*
X0200961Y0192040D01*
X0200227Y0192040D01*
X0199860Y0192407D01*
X0199860Y0192774D01*
X0200227Y0193141D01*
X0199860Y0195040D02*
X0199860Y0197242D01*
X0200961Y0197242D01*
X0201328Y0196875D01*
X0201328Y0196141D01*
X0200961Y0195774D01*
X0199860Y0195774D01*
X0200594Y0195774D02*
X0201328Y0195040D01*
X0202070Y0195407D02*
X0202437Y0195040D01*
X0203171Y0195040D01*
X0203538Y0195407D01*
X0203538Y0195774D01*
X0203171Y0196141D01*
X0202804Y0196141D01*
X0203171Y0196141D02*
X0203538Y0196508D01*
X0203538Y0196875D01*
X0203171Y0197242D01*
X0202437Y0197242D01*
X0202070Y0196875D01*
X0202070Y0179242D02*
X0202070Y0178141D01*
X0202804Y0178508D01*
X0203171Y0178508D01*
X0203538Y0178141D01*
X0203538Y0177407D01*
X0203171Y0177040D01*
X0202437Y0177040D01*
X0202070Y0177407D01*
X0201328Y0177040D02*
X0200594Y0177774D01*
X0200961Y0177774D02*
X0199860Y0177774D01*
X0199860Y0177040D02*
X0199860Y0179242D01*
X0200961Y0179242D01*
X0201328Y0178875D01*
X0201328Y0178141D01*
X0200961Y0177774D01*
X0200594Y0176242D02*
X0200594Y0174040D01*
X0199860Y0174040D02*
X0201328Y0174040D01*
X0202070Y0174407D02*
X0203538Y0175875D01*
X0203538Y0174407D01*
X0203171Y0174040D01*
X0202437Y0174040D01*
X0202070Y0174407D01*
X0202070Y0175875D01*
X0202437Y0176242D01*
X0203171Y0176242D01*
X0203538Y0175875D01*
X0200594Y0176242D02*
X0199860Y0175508D01*
X0202070Y0179242D02*
X0203538Y0179242D01*
X0203538Y0171242D02*
X0202804Y0170875D01*
X0202070Y0170141D01*
X0203171Y0170141D01*
X0203538Y0169774D01*
X0203538Y0169407D01*
X0203171Y0169040D01*
X0202437Y0169040D01*
X0202070Y0169407D01*
X0202070Y0170141D01*
X0201328Y0170141D02*
X0200961Y0169774D01*
X0199860Y0169774D01*
X0199860Y0169040D02*
X0199860Y0171242D01*
X0200961Y0171242D01*
X0201328Y0170875D01*
X0201328Y0170141D01*
X0200594Y0169774D02*
X0201328Y0169040D01*
X0200961Y0168242D02*
X0201328Y0167875D01*
X0201328Y0167508D01*
X0200961Y0167141D01*
X0200227Y0167141D01*
X0199860Y0167508D01*
X0199860Y0167875D01*
X0200227Y0168242D01*
X0200961Y0168242D01*
X0200961Y0167141D02*
X0201328Y0166774D01*
X0201328Y0166407D01*
X0200961Y0166040D01*
X0200227Y0166040D01*
X0199860Y0166407D01*
X0199860Y0166774D01*
X0200227Y0167141D01*
X0202070Y0167875D02*
X0202437Y0168242D01*
X0203171Y0168242D01*
X0203538Y0167875D01*
X0203538Y0167508D01*
X0202070Y0166040D01*
X0203538Y0166040D01*
X0203881Y0142482D02*
X0202780Y0141381D01*
X0204248Y0141381D01*
X0203881Y0140280D02*
X0203881Y0142482D01*
X0201304Y0142482D02*
X0201304Y0140280D01*
X0200570Y0140280D02*
X0202038Y0140280D01*
X0201671Y0139482D02*
X0202038Y0139115D01*
X0200570Y0137647D01*
X0200937Y0137280D01*
X0201671Y0137280D01*
X0202038Y0137647D01*
X0202038Y0139115D01*
X0201671Y0139482D02*
X0200937Y0139482D01*
X0200570Y0139115D01*
X0200570Y0137647D01*
X0199828Y0137280D02*
X0198360Y0137280D01*
X0199094Y0137280D02*
X0199094Y0139482D01*
X0198360Y0138748D01*
X0198360Y0140280D02*
X0198360Y0142482D01*
X0199461Y0142482D01*
X0199828Y0142115D01*
X0199828Y0141381D01*
X0199461Y0141014D01*
X0198360Y0141014D01*
X0199094Y0141014D02*
X0199828Y0140280D01*
X0200570Y0141748D02*
X0201304Y0142482D01*
X0203147Y0139482D02*
X0203881Y0139482D01*
X0204248Y0139115D01*
X0202780Y0137647D01*
X0203147Y0137280D01*
X0203881Y0137280D01*
X0204248Y0137647D01*
X0204248Y0139115D01*
X0204990Y0139482D02*
X0204990Y0137280D01*
X0204990Y0138014D02*
X0206458Y0139482D01*
X0205357Y0138381D02*
X0206458Y0137280D01*
X0202780Y0137647D02*
X0202780Y0139115D01*
X0203147Y0139482D01*
X0138304Y0106982D02*
X0138304Y0104780D01*
X0137570Y0104780D02*
X0139038Y0104780D01*
X0137570Y0106248D02*
X0138304Y0106982D01*
X0136828Y0106982D02*
X0136828Y0105147D01*
X0136461Y0104780D01*
X0135727Y0104780D01*
X0135360Y0105147D01*
X0135360Y0106982D01*
X0083537Y0112779D02*
X0082069Y0112779D01*
X0082803Y0112779D02*
X0082803Y0114980D01*
X0082069Y0114246D01*
X0081327Y0114613D02*
X0081327Y0113146D01*
X0080960Y0112779D01*
X0080226Y0112779D01*
X0079859Y0113146D01*
X0079859Y0114613D01*
X0080226Y0114980D01*
X0080960Y0114980D01*
X0081327Y0114613D01*
X0080593Y0113513D02*
X0081327Y0112779D01*
X0059958Y0120807D02*
X0059591Y0120440D01*
X0058857Y0120440D01*
X0058490Y0120807D01*
X0058490Y0121541D01*
X0059591Y0121541D01*
X0059958Y0121174D01*
X0059958Y0120807D01*
X0059224Y0122275D02*
X0058490Y0121541D01*
X0059224Y0122275D02*
X0059958Y0122642D01*
X0057748Y0122275D02*
X0057381Y0122642D01*
X0056280Y0122642D01*
X0056280Y0120440D01*
X0057381Y0120440D01*
X0057748Y0120807D01*
X0057748Y0122275D01*
X0049786Y0138662D02*
X0049786Y0140130D01*
X0048318Y0140130D02*
X0048318Y0139029D01*
X0048685Y0138662D01*
X0049786Y0138662D01*
X0047576Y0139029D02*
X0047209Y0138662D01*
X0046475Y0138662D01*
X0046108Y0139029D01*
X0046108Y0139763D02*
X0046842Y0140130D01*
X0047209Y0140130D01*
X0047576Y0139763D01*
X0047576Y0139029D01*
X0046108Y0139763D02*
X0046108Y0140864D01*
X0047576Y0140864D01*
X0047874Y0143318D02*
X0046406Y0143318D01*
X0046406Y0145520D01*
X0048616Y0144786D02*
X0049350Y0145520D01*
X0049350Y0143318D01*
X0048616Y0143318D02*
X0050084Y0143318D01*
X0044632Y0140864D02*
X0044632Y0138662D01*
X0043898Y0138662D02*
X0045366Y0138662D01*
X0043898Y0140130D02*
X0044632Y0140864D01*
D12*
X0176971Y0145592D02*
X0176971Y0152088D01*
X0188389Y0152088D02*
X0188389Y0145592D01*
X0208364Y0126356D02*
X0209048Y0127040D01*
X0211100Y0127040D01*
X0211100Y0124988D01*
X0210416Y0124305D01*
X0209732Y0124988D01*
X0209732Y0127040D01*
X0208364Y0126356D02*
X0208364Y0124988D01*
X0208364Y0122897D02*
X0211100Y0121529D01*
X0208364Y0120161D01*
X0208364Y0118083D02*
X0211100Y0118083D01*
X0211100Y0117399D02*
X0211100Y0118767D01*
X0208364Y0118083D02*
X0208364Y0117399D01*
X0206996Y0118083D02*
X0206313Y0118083D01*
X0209048Y0115991D02*
X0208364Y0115307D01*
X0208364Y0113939D01*
X0209048Y0113255D01*
X0210416Y0113255D01*
X0211100Y0113939D01*
X0211100Y0115307D01*
X0209732Y0115991D02*
X0209732Y0113255D01*
X0211100Y0111847D02*
X0211100Y0109112D01*
X0206996Y0109112D01*
X0210416Y0103580D02*
X0211100Y0103580D01*
X0211100Y0102896D01*
X0210416Y0102896D01*
X0210416Y0103580D01*
X0211100Y0101488D02*
X0211100Y0098753D01*
X0206996Y0098753D01*
X0206996Y0101488D01*
X0209048Y0100121D02*
X0209048Y0098753D01*
X0213746Y0097345D02*
X0213746Y0095977D01*
X0213746Y0096661D02*
X0217166Y0096661D01*
X0217850Y0095977D01*
X0217850Y0095293D01*
X0217166Y0094609D01*
X0217850Y0093215D02*
X0216482Y0091847D01*
X0215114Y0091847D01*
X0213746Y0093215D01*
X0211100Y0092517D02*
X0211100Y0091150D01*
X0210416Y0090466D01*
X0209048Y0090466D01*
X0208364Y0091150D01*
X0208364Y0092517D01*
X0209048Y0093201D01*
X0210416Y0093201D01*
X0211100Y0092517D01*
X0209048Y0089071D02*
X0209048Y0087703D01*
X0207680Y0088387D02*
X0211100Y0088387D01*
X0211100Y0086309D02*
X0211100Y0084941D01*
X0211100Y0085625D02*
X0206996Y0085625D01*
X0206996Y0084941D01*
X0209048Y0083533D02*
X0208364Y0082849D01*
X0208364Y0081481D01*
X0209048Y0080797D01*
X0210416Y0080797D01*
X0211100Y0081481D01*
X0211100Y0082849D01*
X0210416Y0083533D01*
X0209048Y0083533D01*
X0207680Y0088387D02*
X0206996Y0089071D01*
X0215114Y0085612D02*
X0215798Y0086295D01*
X0216482Y0086295D01*
X0216482Y0083560D01*
X0217166Y0083560D02*
X0215798Y0083560D01*
X0215114Y0084244D01*
X0215114Y0085612D01*
X0217850Y0085612D02*
X0217850Y0084244D01*
X0217166Y0083560D01*
X0217850Y0082152D02*
X0215114Y0082152D01*
X0215114Y0079416D02*
X0217166Y0079416D01*
X0217850Y0080100D01*
X0217850Y0082152D01*
X0219813Y0084244D02*
X0220496Y0084244D01*
X0221864Y0084244D02*
X0224600Y0084244D01*
X0224600Y0083560D02*
X0224600Y0084928D01*
X0227246Y0085625D02*
X0227246Y0086993D01*
X0227930Y0087677D01*
X0229298Y0086993D02*
X0229298Y0085625D01*
X0228614Y0084941D01*
X0227930Y0084941D01*
X0227246Y0085625D01*
X0229298Y0086993D02*
X0229982Y0087677D01*
X0230666Y0087677D01*
X0231350Y0086993D01*
X0231350Y0085625D01*
X0230666Y0084941D01*
X0231350Y0089085D02*
X0227246Y0089085D01*
X0228614Y0089768D02*
X0228614Y0091136D01*
X0229298Y0091820D01*
X0231350Y0091820D01*
X0230666Y0093228D02*
X0229298Y0093228D01*
X0228614Y0093912D01*
X0228614Y0095280D01*
X0229298Y0095964D01*
X0229982Y0095964D01*
X0229982Y0093228D01*
X0230666Y0093228D02*
X0231350Y0093912D01*
X0231350Y0095280D01*
X0231350Y0097372D02*
X0228614Y0097372D01*
X0228614Y0099423D01*
X0229298Y0100107D01*
X0231350Y0100107D01*
X0229982Y0105659D02*
X0228614Y0105659D01*
X0227246Y0107027D01*
X0227246Y0108421D02*
X0229982Y0108421D01*
X0231350Y0109789D01*
X0229982Y0111157D01*
X0227246Y0111157D01*
X0228614Y0112565D02*
X0228614Y0113248D01*
X0231350Y0113248D01*
X0231350Y0112565D02*
X0231350Y0113932D01*
X0231350Y0115327D02*
X0228614Y0115327D01*
X0228614Y0117379D01*
X0229298Y0118063D01*
X0231350Y0118063D01*
X0230666Y0119470D02*
X0231350Y0120154D01*
X0231350Y0122206D01*
X0230666Y0123614D02*
X0229298Y0123614D01*
X0228614Y0124298D01*
X0228614Y0125666D01*
X0229298Y0126350D01*
X0229982Y0126350D01*
X0229982Y0123614D01*
X0230666Y0123614D02*
X0231350Y0124298D01*
X0231350Y0125666D01*
X0231350Y0127758D02*
X0228614Y0127758D01*
X0228614Y0129809D01*
X0229298Y0130493D01*
X0231350Y0130493D01*
X0230666Y0132585D02*
X0227930Y0132585D01*
X0228614Y0131901D02*
X0228614Y0133269D01*
X0227246Y0134663D02*
X0228614Y0136031D01*
X0229982Y0136031D01*
X0231350Y0134663D01*
X0231350Y0133269D02*
X0230666Y0132585D01*
X0225968Y0131881D02*
X0225284Y0132565D01*
X0221864Y0132565D01*
X0221864Y0130513D01*
X0222548Y0129829D01*
X0223916Y0129829D01*
X0224600Y0130513D01*
X0224600Y0132565D01*
X0225968Y0131881D02*
X0225968Y0131197D01*
X0225968Y0133973D02*
X0224600Y0135341D01*
X0224600Y0134657D01*
X0223916Y0134657D01*
X0223916Y0135341D01*
X0224600Y0135341D01*
X0227246Y0141569D02*
X0228614Y0142937D01*
X0227246Y0144305D01*
X0231350Y0144305D01*
X0230666Y0145713D02*
X0231350Y0146397D01*
X0231350Y0147765D01*
X0230666Y0148449D01*
X0229298Y0148449D01*
X0228614Y0147765D01*
X0228614Y0146397D01*
X0229298Y0145713D01*
X0230666Y0145713D01*
X0231350Y0141569D02*
X0227246Y0141569D01*
X0228614Y0149856D02*
X0230666Y0149856D01*
X0231350Y0150540D01*
X0230666Y0151224D01*
X0231350Y0151908D01*
X0230666Y0152592D01*
X0228614Y0152592D01*
X0219218Y0150547D02*
X0217850Y0151915D01*
X0217850Y0151231D01*
X0217166Y0151231D01*
X0217166Y0151915D01*
X0217850Y0151915D01*
X0217850Y0149139D02*
X0217850Y0147087D01*
X0217166Y0146403D01*
X0215798Y0146403D01*
X0215114Y0147087D01*
X0215114Y0149139D01*
X0218534Y0149139D01*
X0219218Y0148455D01*
X0219218Y0147771D01*
X0217850Y0144996D02*
X0215798Y0144996D01*
X0215114Y0144312D01*
X0215114Y0142260D01*
X0217850Y0142260D01*
X0217850Y0140852D02*
X0215798Y0140852D01*
X0215114Y0140168D01*
X0215114Y0138800D01*
X0216482Y0138800D02*
X0216482Y0140852D01*
X0217850Y0140852D02*
X0217850Y0138800D01*
X0217166Y0138116D01*
X0216482Y0138800D01*
X0217850Y0136722D02*
X0217850Y0135354D01*
X0217850Y0136038D02*
X0215114Y0136038D01*
X0215114Y0135354D01*
X0213746Y0136038D02*
X0213063Y0136038D01*
X0213746Y0131210D02*
X0217850Y0131210D01*
X0217850Y0133946D01*
X0222548Y0128421D02*
X0224600Y0128421D01*
X0222548Y0128421D02*
X0221864Y0127737D01*
X0221864Y0125686D01*
X0224600Y0125686D01*
X0224600Y0124278D02*
X0224600Y0122226D01*
X0223916Y0121542D01*
X0223232Y0122226D01*
X0223232Y0124278D01*
X0222548Y0124278D02*
X0224600Y0124278D01*
X0222548Y0124278D02*
X0221864Y0123594D01*
X0221864Y0122226D01*
X0221864Y0119464D02*
X0224600Y0119464D01*
X0224600Y0118780D02*
X0224600Y0120148D01*
X0221864Y0119464D02*
X0221864Y0118780D01*
X0220496Y0119464D02*
X0219813Y0119464D01*
X0217850Y0118760D02*
X0217850Y0117392D01*
X0217166Y0116708D01*
X0215798Y0116708D01*
X0215114Y0117392D01*
X0215114Y0118760D01*
X0215798Y0119444D01*
X0216482Y0119444D01*
X0216482Y0116708D01*
X0215798Y0115314D02*
X0215798Y0113946D01*
X0214430Y0114630D02*
X0213746Y0115314D01*
X0214430Y0114630D02*
X0217850Y0114630D01*
X0217850Y0112551D02*
X0217850Y0111183D01*
X0217850Y0111867D02*
X0215114Y0111867D01*
X0215114Y0111183D01*
X0213746Y0111867D02*
X0213063Y0111867D01*
X0215798Y0109776D02*
X0215114Y0109092D01*
X0215114Y0107040D01*
X0217850Y0107040D01*
X0217850Y0105632D02*
X0215798Y0105632D01*
X0215114Y0104948D01*
X0215114Y0102896D01*
X0217850Y0102896D01*
X0216482Y0101488D02*
X0216482Y0098753D01*
X0217166Y0098753D02*
X0215798Y0098753D01*
X0215114Y0099437D01*
X0215114Y0100805D01*
X0215798Y0101488D01*
X0216482Y0101488D01*
X0217850Y0100805D02*
X0217850Y0099437D01*
X0217166Y0098753D01*
X0219813Y0101508D02*
X0220496Y0101508D01*
X0221864Y0101508D02*
X0224600Y0101508D01*
X0224600Y0100825D02*
X0224600Y0102192D01*
X0224600Y0103587D02*
X0221864Y0103587D01*
X0221864Y0105639D01*
X0222548Y0106323D01*
X0224600Y0106323D01*
X0224600Y0107730D02*
X0223232Y0109098D01*
X0221864Y0109098D01*
X0220496Y0107730D01*
X0217850Y0109776D02*
X0215798Y0109776D01*
X0220496Y0116004D02*
X0220496Y0117372D01*
X0220496Y0116688D02*
X0223916Y0116688D01*
X0224600Y0116004D01*
X0224600Y0115320D01*
X0223916Y0114636D01*
X0226563Y0113248D02*
X0227246Y0113248D01*
X0229298Y0119470D02*
X0228614Y0120154D01*
X0228614Y0122206D01*
X0229298Y0119470D02*
X0230666Y0119470D01*
X0231350Y0107027D02*
X0229982Y0105659D01*
X0221864Y0101508D02*
X0221864Y0100825D01*
X0221864Y0099423D02*
X0221864Y0098739D01*
X0223232Y0097372D01*
X0224600Y0097372D02*
X0221864Y0097372D01*
X0220496Y0095964D02*
X0220496Y0093228D01*
X0224600Y0093228D01*
X0224600Y0095964D01*
X0222548Y0094596D02*
X0222548Y0093228D01*
X0220496Y0091834D02*
X0221864Y0090466D01*
X0223232Y0090466D01*
X0224600Y0091834D01*
X0228614Y0089768D02*
X0229298Y0089085D01*
X0225284Y0082152D02*
X0225968Y0081468D01*
X0225968Y0080784D01*
X0224600Y0080100D02*
X0224600Y0082152D01*
X0225284Y0082152D02*
X0221864Y0082152D01*
X0221864Y0083560D02*
X0221864Y0084244D01*
X0221864Y0079416D02*
X0223916Y0079416D01*
X0224600Y0080100D01*
X0224600Y0078008D02*
X0222548Y0078008D01*
X0221864Y0077324D01*
X0221864Y0075273D01*
X0224600Y0075273D01*
X0224600Y0073878D02*
X0224600Y0072510D01*
X0224600Y0073194D02*
X0221864Y0073194D01*
X0221864Y0072510D01*
X0220496Y0073194D02*
X0219813Y0073194D01*
X0217850Y0073194D02*
X0215114Y0073194D01*
X0215114Y0072510D01*
X0213746Y0073194D02*
X0213063Y0073194D01*
X0211100Y0073194D02*
X0210416Y0072510D01*
X0209048Y0072510D01*
X0208364Y0073194D01*
X0208364Y0074562D01*
X0209048Y0075246D01*
X0210416Y0075246D01*
X0211100Y0074562D01*
X0211100Y0073194D01*
X0211100Y0071102D02*
X0209732Y0069735D01*
X0209732Y0070419D02*
X0209732Y0068367D01*
X0211100Y0068367D02*
X0206996Y0068367D01*
X0206996Y0070419D01*
X0207680Y0071102D01*
X0209048Y0071102D01*
X0209732Y0070419D01*
X0213746Y0070419D02*
X0214430Y0071102D01*
X0217166Y0071102D01*
X0217850Y0070419D01*
X0217850Y0069051D01*
X0217166Y0068367D01*
X0214430Y0068367D01*
X0213746Y0069051D01*
X0213746Y0070419D01*
X0216482Y0069735D02*
X0217850Y0071102D01*
X0217850Y0072510D02*
X0217850Y0073878D01*
X0217166Y0075273D02*
X0215114Y0075273D01*
X0217166Y0075273D02*
X0217850Y0075957D01*
X0217850Y0078008D01*
X0218534Y0078008D02*
X0219218Y0077324D01*
X0219218Y0076641D01*
X0218534Y0078008D02*
X0215114Y0078008D01*
X0211100Y0077338D02*
X0210416Y0076654D01*
X0209048Y0076654D01*
X0208364Y0077338D01*
X0208364Y0079390D01*
X0206996Y0079390D02*
X0211100Y0079390D01*
X0211100Y0077338D01*
X0220496Y0071102D02*
X0224600Y0068367D01*
X0227246Y0068367D02*
X0231350Y0068367D01*
X0229982Y0069735D01*
X0231350Y0071102D01*
X0227246Y0071102D01*
X0229298Y0072510D02*
X0228614Y0073194D01*
X0228614Y0074562D01*
X0229298Y0075246D01*
X0229982Y0075246D01*
X0229982Y0072510D01*
X0230666Y0072510D02*
X0229298Y0072510D01*
X0230666Y0072510D02*
X0231350Y0073194D01*
X0231350Y0074562D01*
X0231350Y0076654D02*
X0228614Y0076654D01*
X0228614Y0078706D01*
X0229298Y0079390D01*
X0231350Y0079390D01*
X0224600Y0071102D02*
X0220496Y0068367D01*
X0209732Y0115991D02*
X0209048Y0115991D01*
X0215114Y0120852D02*
X0217850Y0120852D01*
X0216482Y0120852D02*
X0215114Y0122219D01*
X0215114Y0122903D01*
X0213746Y0124305D02*
X0215114Y0125672D01*
X0216482Y0125672D01*
X0217850Y0124305D01*
X0212468Y0128448D02*
X0211100Y0129816D01*
X0211100Y0129132D01*
X0210416Y0129132D01*
X0210416Y0129816D01*
X0211100Y0129816D01*
X0208633Y0236761D02*
X0202727Y0236761D01*
X0202727Y0242667D02*
X0208633Y0242667D01*
D13*
X0213645Y0209958D02*
X0221755Y0209958D01*
X0221755Y0199722D02*
X0213645Y0199722D01*
X0222129Y0195700D02*
X0223289Y0194940D01*
X0223349Y0194840D02*
X0222129Y0193920D01*
X0223349Y0193029D02*
X0223349Y0194840D01*
X0223349Y0196651D01*
X0223349Y0187651D02*
X0223349Y0185840D01*
X0222129Y0184920D01*
X0223349Y0184029D02*
X0223349Y0185840D01*
X0223289Y0185940D02*
X0222129Y0186700D01*
X0223349Y0178651D02*
X0223349Y0176840D01*
X0222129Y0175920D01*
X0223349Y0175029D02*
X0223349Y0176840D01*
X0223289Y0176940D02*
X0222129Y0177700D01*
X0223349Y0169651D02*
X0223349Y0167840D01*
X0222129Y0166920D01*
X0223349Y0166029D02*
X0223349Y0167840D01*
X0223289Y0167940D02*
X0222129Y0168700D01*
X0206179Y0085408D02*
X0206179Y0079269D01*
X0203110Y0076200D01*
X0200041Y0079269D01*
X0200041Y0085408D01*
X0196971Y0083873D02*
X0195437Y0085408D01*
X0192368Y0085408D01*
X0190833Y0083873D01*
X0190833Y0077735D01*
X0192368Y0076200D01*
X0195437Y0076200D01*
X0196971Y0077735D01*
X0196971Y0083873D01*
X0187764Y0083873D02*
X0187764Y0080804D01*
X0186229Y0079269D01*
X0181625Y0079269D01*
X0181625Y0076200D02*
X0181625Y0085408D01*
X0186229Y0085408D01*
X0187764Y0083873D01*
X0184694Y0079269D02*
X0187764Y0076200D01*
X0169348Y0076200D02*
X0163209Y0076200D01*
X0163209Y0085408D01*
X0169348Y0085408D01*
X0166279Y0080804D02*
X0163209Y0080804D01*
X0160140Y0085408D02*
X0154001Y0085408D01*
X0154001Y0076200D01*
X0160140Y0076200D01*
X0157071Y0080804D02*
X0154001Y0080804D01*
X0150932Y0085408D02*
X0144794Y0085408D01*
X0144794Y0076200D01*
X0150932Y0076200D01*
X0147863Y0080804D02*
X0144794Y0080804D01*
X0141724Y0085408D02*
X0138655Y0085408D01*
X0140190Y0085408D02*
X0140190Y0076200D01*
X0141724Y0076200D02*
X0138655Y0076200D01*
X0126378Y0076200D02*
X0120239Y0076200D01*
X0120239Y0085408D01*
X0126378Y0085408D01*
X0123309Y0080804D02*
X0120239Y0080804D01*
X0117170Y0077735D02*
X0117170Y0085408D01*
X0117170Y0077735D02*
X0115635Y0076200D01*
X0112566Y0076200D01*
X0111031Y0077735D01*
X0111031Y0085408D01*
X0107962Y0083873D02*
X0106428Y0085408D01*
X0101824Y0085408D01*
X0101824Y0076200D01*
X0106428Y0076200D01*
X0107962Y0077735D01*
X0107962Y0083873D01*
X0098754Y0083873D02*
X0098754Y0080804D01*
X0097220Y0079269D01*
X0092616Y0079269D01*
X0092616Y0076200D02*
X0092616Y0085408D01*
X0097220Y0085408D01*
X0098754Y0083873D01*
X0095685Y0079269D02*
X0098754Y0076200D01*
X0089546Y0077735D02*
X0089546Y0085408D01*
X0089546Y0077735D02*
X0088012Y0076200D01*
X0084942Y0076200D01*
X0083408Y0077735D01*
X0083408Y0085408D01*
X0080339Y0083873D02*
X0080339Y0080804D01*
X0078804Y0079269D01*
X0074200Y0079269D01*
X0074200Y0076200D02*
X0074200Y0085408D01*
X0078804Y0085408D01*
X0080339Y0083873D01*
X0073030Y0108090D02*
X0073030Y0118590D01*
X0056330Y0118590D01*
X0056330Y0108090D01*
X0073030Y0108090D01*
X0085474Y0110090D02*
X0085474Y0116390D01*
X0097286Y0116390D01*
X0097286Y0110090D01*
X0085474Y0110090D01*
X0083928Y0136903D02*
X0083928Y0144777D01*
X0052432Y0144777D02*
X0052432Y0136903D01*
X0048562Y0222391D02*
X0058798Y0222391D01*
X0058799Y0222391D02*
X0058801Y0222445D01*
X0058806Y0222498D01*
X0058815Y0222551D01*
X0058828Y0222603D01*
X0058844Y0222655D01*
X0058864Y0222705D01*
X0058887Y0222753D01*
X0058914Y0222800D01*
X0058943Y0222845D01*
X0058976Y0222888D01*
X0059011Y0222928D01*
X0059049Y0222966D01*
X0059089Y0223001D01*
X0059132Y0223034D01*
X0059177Y0223063D01*
X0059224Y0223090D01*
X0059272Y0223113D01*
X0059322Y0223133D01*
X0059374Y0223149D01*
X0059426Y0223162D01*
X0059479Y0223171D01*
X0059532Y0223176D01*
X0059586Y0223178D01*
X0048561Y0222391D02*
X0048559Y0222445D01*
X0048554Y0222498D01*
X0048545Y0222551D01*
X0048532Y0222603D01*
X0048516Y0222655D01*
X0048496Y0222705D01*
X0048473Y0222753D01*
X0048446Y0222800D01*
X0048417Y0222845D01*
X0048384Y0222888D01*
X0048349Y0222928D01*
X0048311Y0222966D01*
X0048271Y0223001D01*
X0048228Y0223034D01*
X0048183Y0223063D01*
X0048136Y0223090D01*
X0048088Y0223113D01*
X0048038Y0223133D01*
X0047986Y0223149D01*
X0047934Y0223162D01*
X0047881Y0223171D01*
X0047828Y0223176D01*
X0047774Y0223178D01*
X0047774Y0240502D02*
X0047828Y0240504D01*
X0047881Y0240509D01*
X0047934Y0240518D01*
X0047986Y0240531D01*
X0048038Y0240547D01*
X0048088Y0240567D01*
X0048136Y0240590D01*
X0048183Y0240617D01*
X0048228Y0240646D01*
X0048271Y0240679D01*
X0048311Y0240714D01*
X0048349Y0240752D01*
X0048384Y0240792D01*
X0048417Y0240835D01*
X0048446Y0240880D01*
X0048473Y0240927D01*
X0048496Y0240975D01*
X0048516Y0241025D01*
X0048532Y0241077D01*
X0048545Y0241129D01*
X0048554Y0241182D01*
X0048559Y0241235D01*
X0048561Y0241289D01*
X0048562Y0241289D02*
X0058798Y0241289D01*
X0058799Y0241289D02*
X0058801Y0241235D01*
X0058806Y0241182D01*
X0058815Y0241129D01*
X0058828Y0241077D01*
X0058844Y0241025D01*
X0058864Y0240975D01*
X0058887Y0240927D01*
X0058914Y0240880D01*
X0058943Y0240835D01*
X0058976Y0240792D01*
X0059011Y0240752D01*
X0059049Y0240714D01*
X0059089Y0240679D01*
X0059132Y0240646D01*
X0059177Y0240617D01*
X0059224Y0240590D01*
X0059272Y0240567D01*
X0059322Y0240547D01*
X0059374Y0240531D01*
X0059426Y0240518D01*
X0059479Y0240509D01*
X0059532Y0240504D01*
X0059586Y0240502D01*
D14*
X0220544Y0204840D03*
D15*
X0208080Y0225540D02*
X0208080Y0228540D01*
X0196680Y0228540D01*
X0196680Y0225540D01*
X0208080Y0225540D01*
X0193180Y0239340D02*
X0193180Y0164340D01*
X0193178Y0164242D01*
X0193172Y0164144D01*
X0193163Y0164046D01*
X0193149Y0163949D01*
X0193132Y0163852D01*
X0193111Y0163756D01*
X0193086Y0163661D01*
X0193058Y0163567D01*
X0193025Y0163475D01*
X0192990Y0163383D01*
X0192950Y0163293D01*
X0192908Y0163205D01*
X0192861Y0163118D01*
X0192812Y0163034D01*
X0192759Y0162951D01*
X0192703Y0162871D01*
X0192643Y0162792D01*
X0192581Y0162716D01*
X0192516Y0162643D01*
X0192448Y0162572D01*
X0192377Y0162504D01*
X0192304Y0162439D01*
X0192228Y0162377D01*
X0192149Y0162317D01*
X0192069Y0162261D01*
X0191986Y0162208D01*
X0191902Y0162159D01*
X0191815Y0162112D01*
X0191727Y0162070D01*
X0191637Y0162030D01*
X0191545Y0161995D01*
X0191453Y0161962D01*
X0191359Y0161934D01*
X0191264Y0161909D01*
X0191168Y0161888D01*
X0191071Y0161871D01*
X0190974Y0161857D01*
X0190876Y0161848D01*
X0190778Y0161842D01*
X0190680Y0161840D01*
X0171680Y0161840D01*
X0171582Y0161842D01*
X0171484Y0161848D01*
X0171386Y0161857D01*
X0171289Y0161871D01*
X0171192Y0161888D01*
X0171096Y0161909D01*
X0171001Y0161934D01*
X0170907Y0161962D01*
X0170815Y0161995D01*
X0170723Y0162030D01*
X0170633Y0162070D01*
X0170545Y0162112D01*
X0170458Y0162159D01*
X0170374Y0162208D01*
X0170291Y0162261D01*
X0170211Y0162317D01*
X0170132Y0162377D01*
X0170056Y0162439D01*
X0169983Y0162504D01*
X0169912Y0162572D01*
X0169844Y0162643D01*
X0169779Y0162716D01*
X0169717Y0162792D01*
X0169657Y0162871D01*
X0169601Y0162951D01*
X0169548Y0163034D01*
X0169499Y0163118D01*
X0169452Y0163205D01*
X0169410Y0163293D01*
X0169370Y0163383D01*
X0169335Y0163475D01*
X0169302Y0163567D01*
X0169274Y0163661D01*
X0169249Y0163756D01*
X0169228Y0163852D01*
X0169211Y0163949D01*
X0169197Y0164046D01*
X0169188Y0164144D01*
X0169182Y0164242D01*
X0169180Y0164340D01*
X0169180Y0239340D01*
X0169182Y0239438D01*
X0169188Y0239536D01*
X0169197Y0239634D01*
X0169211Y0239731D01*
X0169228Y0239828D01*
X0169249Y0239924D01*
X0169274Y0240019D01*
X0169302Y0240113D01*
X0169335Y0240205D01*
X0169370Y0240297D01*
X0169410Y0240387D01*
X0169452Y0240475D01*
X0169499Y0240562D01*
X0169548Y0240646D01*
X0169601Y0240729D01*
X0169657Y0240809D01*
X0169717Y0240888D01*
X0169779Y0240964D01*
X0169844Y0241037D01*
X0169912Y0241108D01*
X0169983Y0241176D01*
X0170056Y0241241D01*
X0170132Y0241303D01*
X0170211Y0241363D01*
X0170291Y0241419D01*
X0170374Y0241472D01*
X0170458Y0241521D01*
X0170545Y0241568D01*
X0170633Y0241610D01*
X0170723Y0241650D01*
X0170815Y0241685D01*
X0170907Y0241718D01*
X0171001Y0241746D01*
X0171096Y0241771D01*
X0171192Y0241792D01*
X0171289Y0241809D01*
X0171386Y0241823D01*
X0171484Y0241832D01*
X0171582Y0241838D01*
X0171680Y0241840D01*
X0190680Y0241840D01*
X0190778Y0241838D01*
X0190876Y0241832D01*
X0190974Y0241823D01*
X0191071Y0241809D01*
X0191168Y0241792D01*
X0191264Y0241771D01*
X0191359Y0241746D01*
X0191453Y0241718D01*
X0191545Y0241685D01*
X0191637Y0241650D01*
X0191727Y0241610D01*
X0191815Y0241568D01*
X0191902Y0241521D01*
X0191986Y0241472D01*
X0192069Y0241419D01*
X0192149Y0241363D01*
X0192228Y0241303D01*
X0192304Y0241241D01*
X0192377Y0241176D01*
X0192448Y0241108D01*
X0192516Y0241037D01*
X0192581Y0240964D01*
X0192643Y0240888D01*
X0192703Y0240809D01*
X0192759Y0240729D01*
X0192812Y0240646D01*
X0192861Y0240562D01*
X0192908Y0240475D01*
X0192950Y0240387D01*
X0192990Y0240297D01*
X0193025Y0240205D01*
X0193058Y0240113D01*
X0193086Y0240019D01*
X0193111Y0239924D01*
X0193132Y0239828D01*
X0193149Y0239731D01*
X0193163Y0239634D01*
X0193172Y0239536D01*
X0193178Y0239438D01*
X0193180Y0239340D01*
X0168680Y0244840D02*
X0168680Y0263840D01*
X0168678Y0263938D01*
X0168672Y0264036D01*
X0168663Y0264134D01*
X0168649Y0264231D01*
X0168632Y0264328D01*
X0168611Y0264424D01*
X0168586Y0264519D01*
X0168558Y0264613D01*
X0168525Y0264705D01*
X0168490Y0264797D01*
X0168450Y0264887D01*
X0168408Y0264975D01*
X0168361Y0265062D01*
X0168312Y0265146D01*
X0168259Y0265229D01*
X0168203Y0265309D01*
X0168143Y0265388D01*
X0168081Y0265464D01*
X0168016Y0265537D01*
X0167948Y0265608D01*
X0167877Y0265676D01*
X0167804Y0265741D01*
X0167728Y0265803D01*
X0167649Y0265863D01*
X0167569Y0265919D01*
X0167486Y0265972D01*
X0167402Y0266021D01*
X0167315Y0266068D01*
X0167227Y0266110D01*
X0167137Y0266150D01*
X0167045Y0266185D01*
X0166953Y0266218D01*
X0166859Y0266246D01*
X0166764Y0266271D01*
X0166668Y0266292D01*
X0166571Y0266309D01*
X0166474Y0266323D01*
X0166376Y0266332D01*
X0166278Y0266338D01*
X0166180Y0266340D01*
X0091180Y0266340D01*
X0091082Y0266338D01*
X0090984Y0266332D01*
X0090886Y0266323D01*
X0090789Y0266309D01*
X0090692Y0266292D01*
X0090596Y0266271D01*
X0090501Y0266246D01*
X0090407Y0266218D01*
X0090315Y0266185D01*
X0090223Y0266150D01*
X0090133Y0266110D01*
X0090045Y0266068D01*
X0089958Y0266021D01*
X0089874Y0265972D01*
X0089791Y0265919D01*
X0089711Y0265863D01*
X0089632Y0265803D01*
X0089556Y0265741D01*
X0089483Y0265676D01*
X0089412Y0265608D01*
X0089344Y0265537D01*
X0089279Y0265464D01*
X0089217Y0265388D01*
X0089157Y0265309D01*
X0089101Y0265229D01*
X0089048Y0265146D01*
X0088999Y0265062D01*
X0088952Y0264975D01*
X0088910Y0264887D01*
X0088870Y0264797D01*
X0088835Y0264705D01*
X0088802Y0264613D01*
X0088774Y0264519D01*
X0088749Y0264424D01*
X0088728Y0264328D01*
X0088711Y0264231D01*
X0088697Y0264134D01*
X0088688Y0264036D01*
X0088682Y0263938D01*
X0088680Y0263840D01*
X0088680Y0244840D01*
X0088682Y0244742D01*
X0088688Y0244644D01*
X0088697Y0244546D01*
X0088711Y0244449D01*
X0088728Y0244352D01*
X0088749Y0244256D01*
X0088774Y0244161D01*
X0088802Y0244067D01*
X0088835Y0243975D01*
X0088870Y0243883D01*
X0088910Y0243793D01*
X0088952Y0243705D01*
X0088999Y0243618D01*
X0089048Y0243534D01*
X0089101Y0243451D01*
X0089157Y0243371D01*
X0089217Y0243292D01*
X0089279Y0243216D01*
X0089344Y0243143D01*
X0089412Y0243072D01*
X0089483Y0243004D01*
X0089556Y0242939D01*
X0089632Y0242877D01*
X0089711Y0242817D01*
X0089791Y0242761D01*
X0089874Y0242708D01*
X0089958Y0242659D01*
X0090045Y0242612D01*
X0090133Y0242570D01*
X0090223Y0242530D01*
X0090315Y0242495D01*
X0090407Y0242462D01*
X0090501Y0242434D01*
X0090596Y0242409D01*
X0090692Y0242388D01*
X0090789Y0242371D01*
X0090886Y0242357D01*
X0090984Y0242348D01*
X0091082Y0242342D01*
X0091180Y0242340D01*
X0166180Y0242340D01*
X0166278Y0242342D01*
X0166376Y0242348D01*
X0166474Y0242357D01*
X0166571Y0242371D01*
X0166668Y0242388D01*
X0166764Y0242409D01*
X0166859Y0242434D01*
X0166953Y0242462D01*
X0167045Y0242495D01*
X0167137Y0242530D01*
X0167227Y0242570D01*
X0167315Y0242612D01*
X0167402Y0242659D01*
X0167486Y0242708D01*
X0167569Y0242761D01*
X0167649Y0242817D01*
X0167728Y0242877D01*
X0167804Y0242939D01*
X0167877Y0243004D01*
X0167948Y0243072D01*
X0168016Y0243143D01*
X0168081Y0243216D01*
X0168143Y0243292D01*
X0168203Y0243371D01*
X0168259Y0243451D01*
X0168312Y0243534D01*
X0168361Y0243618D01*
X0168408Y0243705D01*
X0168450Y0243793D01*
X0168490Y0243883D01*
X0168525Y0243975D01*
X0168558Y0244067D01*
X0168586Y0244161D01*
X0168611Y0244256D01*
X0168632Y0244352D01*
X0168649Y0244449D01*
X0168663Y0244546D01*
X0168672Y0244644D01*
X0168678Y0244742D01*
X0168680Y0244840D01*
X0166180Y0161840D02*
X0091180Y0161840D01*
X0091082Y0161838D01*
X0090984Y0161832D01*
X0090886Y0161823D01*
X0090789Y0161809D01*
X0090692Y0161792D01*
X0090596Y0161771D01*
X0090501Y0161746D01*
X0090407Y0161718D01*
X0090315Y0161685D01*
X0090223Y0161650D01*
X0090133Y0161610D01*
X0090045Y0161568D01*
X0089958Y0161521D01*
X0089874Y0161472D01*
X0089791Y0161419D01*
X0089711Y0161363D01*
X0089632Y0161303D01*
X0089556Y0161241D01*
X0089483Y0161176D01*
X0089412Y0161108D01*
X0089344Y0161037D01*
X0089279Y0160964D01*
X0089217Y0160888D01*
X0089157Y0160809D01*
X0089101Y0160729D01*
X0089048Y0160646D01*
X0088999Y0160562D01*
X0088952Y0160475D01*
X0088910Y0160387D01*
X0088870Y0160297D01*
X0088835Y0160205D01*
X0088802Y0160113D01*
X0088774Y0160019D01*
X0088749Y0159924D01*
X0088728Y0159828D01*
X0088711Y0159731D01*
X0088697Y0159634D01*
X0088688Y0159536D01*
X0088682Y0159438D01*
X0088680Y0159340D01*
X0088680Y0140340D01*
X0088682Y0140242D01*
X0088688Y0140144D01*
X0088697Y0140046D01*
X0088711Y0139949D01*
X0088728Y0139852D01*
X0088749Y0139756D01*
X0088774Y0139661D01*
X0088802Y0139567D01*
X0088835Y0139475D01*
X0088870Y0139383D01*
X0088910Y0139293D01*
X0088952Y0139205D01*
X0088999Y0139118D01*
X0089048Y0139034D01*
X0089101Y0138951D01*
X0089157Y0138871D01*
X0089217Y0138792D01*
X0089279Y0138716D01*
X0089344Y0138643D01*
X0089412Y0138572D01*
X0089483Y0138504D01*
X0089556Y0138439D01*
X0089632Y0138377D01*
X0089711Y0138317D01*
X0089791Y0138261D01*
X0089874Y0138208D01*
X0089958Y0138159D01*
X0090045Y0138112D01*
X0090133Y0138070D01*
X0090223Y0138030D01*
X0090315Y0137995D01*
X0090407Y0137962D01*
X0090501Y0137934D01*
X0090596Y0137909D01*
X0090692Y0137888D01*
X0090789Y0137871D01*
X0090886Y0137857D01*
X0090984Y0137848D01*
X0091082Y0137842D01*
X0091180Y0137840D01*
X0166180Y0137840D01*
X0166278Y0137842D01*
X0166376Y0137848D01*
X0166474Y0137857D01*
X0166571Y0137871D01*
X0166668Y0137888D01*
X0166764Y0137909D01*
X0166859Y0137934D01*
X0166953Y0137962D01*
X0167045Y0137995D01*
X0167137Y0138030D01*
X0167227Y0138070D01*
X0167315Y0138112D01*
X0167402Y0138159D01*
X0167486Y0138208D01*
X0167569Y0138261D01*
X0167649Y0138317D01*
X0167728Y0138377D01*
X0167804Y0138439D01*
X0167877Y0138504D01*
X0167948Y0138572D01*
X0168016Y0138643D01*
X0168081Y0138716D01*
X0168143Y0138792D01*
X0168203Y0138871D01*
X0168259Y0138951D01*
X0168312Y0139034D01*
X0168361Y0139118D01*
X0168408Y0139205D01*
X0168450Y0139293D01*
X0168490Y0139383D01*
X0168525Y0139475D01*
X0168558Y0139567D01*
X0168586Y0139661D01*
X0168611Y0139756D01*
X0168632Y0139852D01*
X0168649Y0139949D01*
X0168663Y0140046D01*
X0168672Y0140144D01*
X0168678Y0140242D01*
X0168680Y0140340D01*
X0168680Y0159340D01*
X0168678Y0159438D01*
X0168672Y0159536D01*
X0168663Y0159634D01*
X0168649Y0159731D01*
X0168632Y0159828D01*
X0168611Y0159924D01*
X0168586Y0160019D01*
X0168558Y0160113D01*
X0168525Y0160205D01*
X0168490Y0160297D01*
X0168450Y0160387D01*
X0168408Y0160475D01*
X0168361Y0160562D01*
X0168312Y0160646D01*
X0168259Y0160729D01*
X0168203Y0160809D01*
X0168143Y0160888D01*
X0168081Y0160964D01*
X0168016Y0161037D01*
X0167948Y0161108D01*
X0167877Y0161176D01*
X0167804Y0161241D01*
X0167728Y0161303D01*
X0167649Y0161363D01*
X0167569Y0161419D01*
X0167486Y0161472D01*
X0167402Y0161521D01*
X0167315Y0161568D01*
X0167227Y0161610D01*
X0167137Y0161650D01*
X0167045Y0161685D01*
X0166953Y0161718D01*
X0166859Y0161746D01*
X0166764Y0161771D01*
X0166668Y0161792D01*
X0166571Y0161809D01*
X0166474Y0161823D01*
X0166376Y0161832D01*
X0166278Y0161838D01*
X0166180Y0161840D01*
X0088180Y0164340D02*
X0088180Y0239340D01*
X0088178Y0239438D01*
X0088172Y0239536D01*
X0088163Y0239634D01*
X0088149Y0239731D01*
X0088132Y0239828D01*
X0088111Y0239924D01*
X0088086Y0240019D01*
X0088058Y0240113D01*
X0088025Y0240205D01*
X0087990Y0240297D01*
X0087950Y0240387D01*
X0087908Y0240475D01*
X0087861Y0240562D01*
X0087812Y0240646D01*
X0087759Y0240729D01*
X0087703Y0240809D01*
X0087643Y0240888D01*
X0087581Y0240964D01*
X0087516Y0241037D01*
X0087448Y0241108D01*
X0087377Y0241176D01*
X0087304Y0241241D01*
X0087228Y0241303D01*
X0087149Y0241363D01*
X0087069Y0241419D01*
X0086986Y0241472D01*
X0086902Y0241521D01*
X0086815Y0241568D01*
X0086727Y0241610D01*
X0086637Y0241650D01*
X0086545Y0241685D01*
X0086453Y0241718D01*
X0086359Y0241746D01*
X0086264Y0241771D01*
X0086168Y0241792D01*
X0086071Y0241809D01*
X0085974Y0241823D01*
X0085876Y0241832D01*
X0085778Y0241838D01*
X0085680Y0241840D01*
X0066680Y0241840D01*
X0066582Y0241838D01*
X0066484Y0241832D01*
X0066386Y0241823D01*
X0066289Y0241809D01*
X0066192Y0241792D01*
X0066096Y0241771D01*
X0066001Y0241746D01*
X0065907Y0241718D01*
X0065815Y0241685D01*
X0065723Y0241650D01*
X0065633Y0241610D01*
X0065545Y0241568D01*
X0065458Y0241521D01*
X0065374Y0241472D01*
X0065291Y0241419D01*
X0065211Y0241363D01*
X0065132Y0241303D01*
X0065056Y0241241D01*
X0064983Y0241176D01*
X0064912Y0241108D01*
X0064844Y0241037D01*
X0064779Y0240964D01*
X0064717Y0240888D01*
X0064657Y0240809D01*
X0064601Y0240729D01*
X0064548Y0240646D01*
X0064499Y0240562D01*
X0064452Y0240475D01*
X0064410Y0240387D01*
X0064370Y0240297D01*
X0064335Y0240205D01*
X0064302Y0240113D01*
X0064274Y0240019D01*
X0064249Y0239924D01*
X0064228Y0239828D01*
X0064211Y0239731D01*
X0064197Y0239634D01*
X0064188Y0239536D01*
X0064182Y0239438D01*
X0064180Y0239340D01*
X0064180Y0164340D01*
X0064182Y0164242D01*
X0064188Y0164144D01*
X0064197Y0164046D01*
X0064211Y0163949D01*
X0064228Y0163852D01*
X0064249Y0163756D01*
X0064274Y0163661D01*
X0064302Y0163567D01*
X0064335Y0163475D01*
X0064370Y0163383D01*
X0064410Y0163293D01*
X0064452Y0163205D01*
X0064499Y0163118D01*
X0064548Y0163034D01*
X0064601Y0162951D01*
X0064657Y0162871D01*
X0064717Y0162792D01*
X0064779Y0162716D01*
X0064844Y0162643D01*
X0064912Y0162572D01*
X0064983Y0162504D01*
X0065056Y0162439D01*
X0065132Y0162377D01*
X0065211Y0162317D01*
X0065291Y0162261D01*
X0065374Y0162208D01*
X0065458Y0162159D01*
X0065545Y0162112D01*
X0065633Y0162070D01*
X0065723Y0162030D01*
X0065815Y0161995D01*
X0065907Y0161962D01*
X0066001Y0161934D01*
X0066096Y0161909D01*
X0066192Y0161888D01*
X0066289Y0161871D01*
X0066386Y0161857D01*
X0066484Y0161848D01*
X0066582Y0161842D01*
X0066680Y0161840D01*
X0085680Y0161840D01*
X0085778Y0161842D01*
X0085876Y0161848D01*
X0085974Y0161857D01*
X0086071Y0161871D01*
X0086168Y0161888D01*
X0086264Y0161909D01*
X0086359Y0161934D01*
X0086453Y0161962D01*
X0086545Y0161995D01*
X0086637Y0162030D01*
X0086727Y0162070D01*
X0086815Y0162112D01*
X0086902Y0162159D01*
X0086986Y0162208D01*
X0087069Y0162261D01*
X0087149Y0162317D01*
X0087228Y0162377D01*
X0087304Y0162439D01*
X0087377Y0162504D01*
X0087448Y0162572D01*
X0087516Y0162643D01*
X0087581Y0162716D01*
X0087643Y0162792D01*
X0087703Y0162871D01*
X0087759Y0162951D01*
X0087812Y0163034D01*
X0087861Y0163118D01*
X0087908Y0163205D01*
X0087950Y0163293D01*
X0087990Y0163383D01*
X0088025Y0163475D01*
X0088058Y0163567D01*
X0088086Y0163661D01*
X0088111Y0163756D01*
X0088132Y0163852D01*
X0088149Y0163949D01*
X0088163Y0164046D01*
X0088172Y0164144D01*
X0088178Y0164242D01*
X0088180Y0164340D01*
D16*
X0092430Y0163590D02*
X0095433Y0163590D01*
X0093931Y0163590D02*
X0093931Y0168094D01*
X0092430Y0166593D01*
X0062430Y0166737D02*
X0062430Y0168238D01*
X0061679Y0168989D01*
X0060929Y0168989D01*
X0060178Y0168238D01*
X0060178Y0165986D01*
X0061679Y0165986D01*
X0062430Y0166737D01*
X0062430Y0164385D02*
X0062430Y0161382D01*
X0062430Y0162883D02*
X0057926Y0162883D01*
X0059427Y0161382D01*
X0060178Y0165986D02*
X0058677Y0167487D01*
X0057926Y0168989D01*
X0091427Y0233986D02*
X0089926Y0235487D01*
X0094430Y0235487D01*
X0094430Y0233986D02*
X0094430Y0236989D01*
X0095078Y0268090D02*
X0093577Y0268090D01*
X0092826Y0268841D01*
X0092826Y0270342D01*
X0095078Y0270342D01*
X0095829Y0269591D01*
X0095829Y0268841D01*
X0095078Y0268090D01*
X0092826Y0270342D02*
X0094327Y0271843D01*
X0095829Y0272594D01*
X0089723Y0272594D02*
X0089723Y0268090D01*
X0088222Y0268090D02*
X0091225Y0268090D01*
X0088222Y0271093D02*
X0089723Y0272594D01*
X0160826Y0239093D02*
X0162327Y0240594D01*
X0162327Y0236090D01*
X0160826Y0236090D02*
X0163829Y0236090D01*
X0194926Y0235091D02*
X0199430Y0235091D01*
X0199430Y0233590D02*
X0199430Y0236593D01*
X0198679Y0238194D02*
X0199430Y0238945D01*
X0199430Y0240446D01*
X0198679Y0241196D01*
X0197929Y0241196D01*
X0197178Y0240446D01*
X0197178Y0238194D01*
X0198679Y0238194D01*
X0197178Y0238194D02*
X0195677Y0239695D01*
X0194926Y0241196D01*
X0194926Y0235091D02*
X0196427Y0233590D01*
X0216015Y0229179D02*
X0216015Y0252801D01*
X0235700Y0252801D01*
X0235700Y0229179D02*
X0216015Y0229179D01*
X0167430Y0168593D02*
X0167430Y0165590D01*
X0167430Y0167091D02*
X0162926Y0167091D01*
X0164427Y0165590D01*
X0161931Y0136094D02*
X0161931Y0131590D01*
X0160430Y0131590D02*
X0163433Y0131590D01*
X0165034Y0132341D02*
X0165785Y0131590D01*
X0167286Y0131590D01*
X0168036Y0132341D01*
X0168036Y0133091D01*
X0167286Y0133842D01*
X0165034Y0133842D01*
X0165034Y0132341D01*
X0165034Y0133842D02*
X0166535Y0135343D01*
X0168036Y0136094D01*
X0161931Y0136094D02*
X0160430Y0134593D01*
X0201397Y0090580D02*
X0201397Y0068533D01*
X0201397Y0068415D02*
X0210255Y0068415D01*
X0201397Y0090580D02*
X0058680Y0090580D01*
X0058680Y0068533D01*
X0058680Y0068415D02*
X0049822Y0068415D01*
D17*
X0108995Y0182155D02*
X0108995Y0221525D01*
X0148365Y0221525D01*
X0148365Y0182155D01*
X0108995Y0182155D01*
X0111830Y0216446D02*
X0111832Y0216543D01*
X0111838Y0216640D01*
X0111848Y0216736D01*
X0111862Y0216832D01*
X0111880Y0216928D01*
X0111901Y0217022D01*
X0111927Y0217116D01*
X0111956Y0217208D01*
X0111990Y0217299D01*
X0112026Y0217389D01*
X0112067Y0217477D01*
X0112111Y0217563D01*
X0112159Y0217648D01*
X0112210Y0217730D01*
X0112264Y0217811D01*
X0112322Y0217889D01*
X0112383Y0217964D01*
X0112446Y0218037D01*
X0112513Y0218108D01*
X0112583Y0218175D01*
X0112655Y0218240D01*
X0112730Y0218301D01*
X0112808Y0218360D01*
X0112887Y0218415D01*
X0112969Y0218467D01*
X0113053Y0218515D01*
X0113139Y0218560D01*
X0113227Y0218602D01*
X0113316Y0218640D01*
X0113407Y0218674D01*
X0113499Y0218704D01*
X0113592Y0218731D01*
X0113687Y0218753D01*
X0113782Y0218772D01*
X0113878Y0218787D01*
X0113974Y0218798D01*
X0114071Y0218805D01*
X0114168Y0218808D01*
X0114265Y0218807D01*
X0114362Y0218802D01*
X0114458Y0218793D01*
X0114554Y0218780D01*
X0114650Y0218763D01*
X0114745Y0218742D01*
X0114838Y0218718D01*
X0114931Y0218689D01*
X0115023Y0218657D01*
X0115113Y0218621D01*
X0115201Y0218582D01*
X0115288Y0218538D01*
X0115373Y0218492D01*
X0115456Y0218441D01*
X0115537Y0218388D01*
X0115615Y0218331D01*
X0115692Y0218271D01*
X0115765Y0218208D01*
X0115836Y0218142D01*
X0115904Y0218073D01*
X0115970Y0218001D01*
X0116032Y0217927D01*
X0116091Y0217850D01*
X0116147Y0217771D01*
X0116200Y0217689D01*
X0116250Y0217606D01*
X0116295Y0217520D01*
X0116338Y0217433D01*
X0116377Y0217344D01*
X0116412Y0217254D01*
X0116443Y0217162D01*
X0116470Y0217069D01*
X0116494Y0216975D01*
X0116514Y0216880D01*
X0116530Y0216784D01*
X0116542Y0216688D01*
X0116550Y0216591D01*
X0116554Y0216494D01*
X0116554Y0216398D01*
X0116550Y0216301D01*
X0116542Y0216204D01*
X0116530Y0216108D01*
X0116514Y0216012D01*
X0116494Y0215917D01*
X0116470Y0215823D01*
X0116443Y0215730D01*
X0116412Y0215638D01*
X0116377Y0215548D01*
X0116338Y0215459D01*
X0116295Y0215372D01*
X0116250Y0215286D01*
X0116200Y0215203D01*
X0116147Y0215121D01*
X0116091Y0215042D01*
X0116032Y0214965D01*
X0115970Y0214891D01*
X0115904Y0214819D01*
X0115836Y0214750D01*
X0115765Y0214684D01*
X0115692Y0214621D01*
X0115615Y0214561D01*
X0115537Y0214504D01*
X0115456Y0214451D01*
X0115373Y0214400D01*
X0115288Y0214354D01*
X0115201Y0214310D01*
X0115113Y0214271D01*
X0115023Y0214235D01*
X0114931Y0214203D01*
X0114838Y0214174D01*
X0114745Y0214150D01*
X0114650Y0214129D01*
X0114554Y0214112D01*
X0114458Y0214099D01*
X0114362Y0214090D01*
X0114265Y0214085D01*
X0114168Y0214084D01*
X0114071Y0214087D01*
X0113974Y0214094D01*
X0113878Y0214105D01*
X0113782Y0214120D01*
X0113687Y0214139D01*
X0113592Y0214161D01*
X0113499Y0214188D01*
X0113407Y0214218D01*
X0113316Y0214252D01*
X0113227Y0214290D01*
X0113139Y0214332D01*
X0113053Y0214377D01*
X0112969Y0214425D01*
X0112887Y0214477D01*
X0112808Y0214532D01*
X0112730Y0214591D01*
X0112655Y0214652D01*
X0112583Y0214717D01*
X0112513Y0214784D01*
X0112446Y0214855D01*
X0112383Y0214928D01*
X0112322Y0215003D01*
X0112264Y0215081D01*
X0112210Y0215162D01*
X0112159Y0215244D01*
X0112111Y0215329D01*
X0112067Y0215415D01*
X0112026Y0215503D01*
X0111990Y0215593D01*
X0111956Y0215684D01*
X0111927Y0215776D01*
X0111901Y0215870D01*
X0111880Y0215964D01*
X0111862Y0216060D01*
X0111848Y0216156D01*
X0111838Y0216252D01*
X0111832Y0216349D01*
X0111830Y0216446D01*
D18*
X0235700Y0221305D02*
X0235700Y0229179D01*
X0235700Y0252801D01*
X0235700Y0260675D01*
D19*
X0187208Y0150907D03*
D20*
X0075283Y0108058D02*
X0075049Y0108291D01*
X0074582Y0108291D01*
X0074349Y0108058D01*
X0074349Y0107124D01*
X0074582Y0106890D01*
X0075049Y0106890D01*
X0075283Y0107124D01*
X0054283Y0106890D02*
X0054283Y0107824D01*
X0053816Y0108291D01*
X0053349Y0107824D01*
X0053349Y0106890D01*
X0053349Y0107591D02*
X0054283Y0107591D01*
D21*
X0135780Y0107940D02*
X0147580Y0107940D01*
X0147580Y0119740D01*
X0135780Y0119740D01*
X0135780Y0119640D02*
X0135780Y0107940D01*
M02*
