%
M48
M72
T01C0.02000
T02C0.02362
T03C0.03150
T04C0.03600
T05C0.04528
%
T01
X73194Y56020
X104194Y59020
X122194Y39020
X150194Y52020
X170194Y52020
X192194Y45020
X219194Y74020
X186194Y105020
X170194Y97020
X162194Y95020
X172194Y131020
X171194Y149020
X192194Y150020
X191194Y130020
X223194Y144020
X196194Y213020
X209194Y216020
X216194Y226020
X208194Y250020
X220194Y261020
X225194Y273020
X187194Y263020
X188194Y247020
X158804Y232300
X122490Y242829
X68880Y268067
X38194Y273020
X35194Y232020
X38194Y181020
X89194Y126020
X95194Y95020
X40194Y84020
X99194Y174020
X158554Y173462
T02
X165800Y163800
X181400Y158790
X179360Y130610
X185580Y130690
X189680Y99840
X153470Y123290
X149800Y138800
X121800Y110800
X110800Y122800
X102800Y118800
X118800Y139800
X89800Y163800
X113800Y192800
X112680Y204840
X121800Y217800
X125240Y203350
X137800Y207800
X145520Y210700
X141800Y218800
X169800Y244800
X150800Y270800
X123800Y272800
X101800Y270800
X92680Y239840
X100800Y224800
X128060Y184780
X138370Y185040
X143460Y185160
X199680Y204840
X126680Y71840
X78800Y119800
X59800Y104800
X62800Y217800
X62800Y243800
T03
X219361Y250833
X219361Y231147
T04
X186180Y226840
X186180Y216840
X186180Y206840
X186180Y196840
X186180Y186840
X186180Y176840
X186180Y166840
X176180Y166840
X176180Y176840
X176180Y186840
X176180Y196840
X176180Y206840
X176180Y216840
X176180Y226840
X176180Y236840
X186180Y236840
X163680Y249340
X163680Y259340
X153680Y259340
X153680Y249340
X143680Y249340
X143680Y259340
X133680Y259340
X133680Y249340
X123680Y249340
X123680Y259340
X113680Y259340
X113680Y249340
X103680Y249340
X103680Y259340
X93680Y259340
X93680Y249340
X81180Y236840
X81180Y226840
X81180Y216840
X81180Y206840
X81180Y196840
X81180Y186840
X81180Y176840
X81180Y166840
X71180Y166840
X71180Y176840
X71180Y186840
X71180Y196840
X71180Y206840
X71180Y216840
X71180Y226840
X71180Y236840
X93680Y154840
X93680Y144840
X103680Y144840
X103680Y154840
X113680Y154840
X113680Y144840
X123680Y144840
X123680Y154840
X133680Y154840
X133680Y144840
X143680Y144840
X143680Y154840
X153680Y154840
X153680Y144840
X163680Y144840
X163680Y154840
T05
X229991Y226827
X229991Y255153
M30
