%
M48
M72
T01C0.02362
T02C0.05000
T03C0.12598
T04C0.16000
%
T01
X90800Y99800
X145800Y151800
X141800Y155800
X150800Y147800
X169800Y145800
X163800Y173800
X145800Y188800
X143800Y173800
X125800Y160800
X162800Y203800
X179800Y203800
X198800Y204800
X207800Y204800
X216800Y204800
X226800Y204800
X236800Y204800
X253800Y190800
X253800Y159800
X248800Y155800
X242800Y159800
X231800Y153800
X196800Y185800
X186800Y173800
X176800Y223800
X159800Y223800
X159800Y241800
X159800Y251800
X159800Y261800
X176800Y261800
X176800Y252800
X176800Y242800
X198800Y242800
X198800Y251800
X207800Y251800
X207800Y242800
X216800Y242800
X216800Y251800
X216800Y261800
X226800Y261800
X226800Y251800
X226800Y242800
X237800Y242800
X237800Y251800
X237800Y261800
X225800Y223800
X210800Y223800
X199800Y223800
X284800Y143800
X285800Y151800
X292800Y153800
X293800Y159800
X288800Y205800
X289800Y242800
X290800Y256800
X296800Y307800
X296800Y338800
X335800Y372800
X294800Y392800
X344800Y326800
X383800Y320800
X381800Y278800
X353800Y255800
X387800Y200800
X404800Y144800
X367800Y96800
X276800Y49800
X177800Y55800
X59800Y184800
X101800Y233800
X55800Y274800
X115800Y328800
X80800Y338800
X135800Y372800
X156800Y389800
X153800Y336800
T02
X145178Y217894
X114682Y167894
X143178Y112894
X290422Y118800
X324918Y173800
X292422Y223800
T03
X401800Y226800
X226800Y401800
X51800Y226800
X226800Y51800
T04
X98800Y296800
X355300Y296800
M30
