G75*
%MOIN*%
%OFA0B0*%
%FSLAX25Y25*%
%IPPOS*%
%LPD*%
%AMOC8*
5,1,8,0,0,1.08239X$1,22.5*
%
%ADD10C,0.00300*%
%ADD11C,0.02200*%
%ADD12R,0.01800X0.03000*%
D10*
X0080215Y0097387D02*
X0082683Y0097387D01*
X0083898Y0097387D02*
X0086367Y0097387D01*
X0085132Y0097387D02*
X0085132Y0101090D01*
X0086367Y0099856D01*
X0087581Y0100473D02*
X0088198Y0101090D01*
X0089433Y0101090D01*
X0090050Y0100473D01*
X0090050Y0098004D01*
X0089433Y0097387D01*
X0088198Y0097387D01*
X0087581Y0098004D01*
X0091264Y0099238D02*
X0091881Y0098621D01*
X0093733Y0098621D01*
X0093733Y0097387D02*
X0093733Y0101090D01*
X0091881Y0101090D01*
X0091264Y0100473D01*
X0091264Y0099238D01*
X0091637Y0102770D02*
X0090403Y0102770D01*
X0089786Y0103387D01*
X0089786Y0104621D01*
X0091020Y0104621D01*
X0092254Y0105856D02*
X0092254Y0103387D01*
X0091637Y0102770D01*
X0088571Y0102770D02*
X0088571Y0106473D01*
X0086102Y0102770D01*
X0086102Y0106473D01*
X0084888Y0106473D02*
X0084888Y0102770D01*
X0083036Y0102770D01*
X0082419Y0103387D01*
X0082419Y0105856D01*
X0083036Y0106473D01*
X0084888Y0106473D01*
X0089786Y0105856D02*
X0090403Y0106473D01*
X0091637Y0106473D01*
X0092254Y0105856D01*
X0093678Y0111470D02*
X0093061Y0112087D01*
X0093061Y0114556D01*
X0093678Y0115173D01*
X0094913Y0115173D01*
X0095530Y0114556D01*
X0095530Y0113938D01*
X0094913Y0113321D01*
X0093061Y0113321D01*
X0093678Y0111470D02*
X0094913Y0111470D01*
X0095530Y0112087D01*
X0096744Y0111470D02*
X0096744Y0113938D01*
X0097979Y0115173D01*
X0099213Y0113938D01*
X0099213Y0111470D01*
X0099213Y0113321D02*
X0096744Y0113321D01*
X0100427Y0113321D02*
X0101045Y0112704D01*
X0102896Y0112704D01*
X0102896Y0111470D02*
X0102896Y0115173D01*
X0101045Y0115173D01*
X0100427Y0114556D01*
X0100427Y0113321D01*
X0108273Y0113620D02*
X0108273Y0116089D01*
X0108273Y0117304D02*
X0110742Y0119772D01*
X0111359Y0119772D01*
X0111976Y0119155D01*
X0111976Y0117921D01*
X0111359Y0117304D01*
X0111976Y0114855D02*
X0108273Y0114855D01*
X0108273Y0117304D02*
X0108273Y0119772D01*
X0111976Y0114855D02*
X0110742Y0113620D01*
X0111359Y0112406D02*
X0111976Y0111789D01*
X0111976Y0110555D01*
X0111359Y0109937D01*
X0108890Y0109937D01*
X0108273Y0110555D01*
X0108273Y0111789D01*
X0108890Y0112406D01*
X0110124Y0108723D02*
X0109507Y0108106D01*
X0109507Y0106254D01*
X0108273Y0106254D02*
X0111976Y0106254D01*
X0111976Y0108106D01*
X0111359Y0108723D01*
X0110124Y0108723D01*
X0118306Y0110132D02*
X0118306Y0111983D01*
X0118923Y0112600D01*
X0121392Y0112600D01*
X0122009Y0111983D01*
X0122009Y0110132D01*
X0118306Y0110132D01*
X0119540Y0108300D02*
X0119540Y0106448D01*
X0118306Y0106448D02*
X0122009Y0106448D01*
X0122009Y0108300D01*
X0121392Y0108917D01*
X0120157Y0108917D01*
X0119540Y0108300D01*
X0118306Y0113815D02*
X0118306Y0116283D01*
X0118306Y0115049D02*
X0122009Y0115049D01*
X0120774Y0113815D01*
X0127432Y0114104D02*
X0130518Y0114104D01*
X0131135Y0114721D01*
X0129901Y0115942D02*
X0129901Y0117177D01*
X0130518Y0116560D02*
X0128049Y0116560D01*
X0127432Y0117177D01*
X0127432Y0118398D02*
X0127432Y0120867D01*
X0127432Y0122081D02*
X0129901Y0122081D01*
X0129901Y0123932D01*
X0129284Y0124550D01*
X0127432Y0124550D01*
X0129284Y0119632D02*
X0129284Y0118398D01*
X0131135Y0118398D02*
X0131135Y0120867D01*
X0131135Y0118398D02*
X0127432Y0118398D01*
X0129284Y0114721D02*
X0129284Y0113487D01*
X0129901Y0111649D02*
X0127432Y0111649D01*
X0127432Y0112266D02*
X0127432Y0111031D01*
X0127432Y0109817D02*
X0129284Y0109817D01*
X0129901Y0109200D01*
X0129901Y0107966D01*
X0129284Y0107348D01*
X0128667Y0106134D02*
X0128049Y0106134D01*
X0127432Y0105517D01*
X0127432Y0104282D01*
X0128049Y0103665D01*
X0129284Y0104282D02*
X0129284Y0105517D01*
X0128667Y0106134D01*
X0127432Y0107348D02*
X0131135Y0107348D01*
X0130518Y0106134D02*
X0131135Y0105517D01*
X0131135Y0104282D01*
X0130518Y0103665D01*
X0129901Y0103665D01*
X0129284Y0104282D01*
X0129901Y0111031D02*
X0129901Y0111649D01*
X0131135Y0111649D02*
X0131753Y0111649D01*
X0137659Y0112212D02*
X0139511Y0112212D01*
X0140128Y0111595D01*
X0140128Y0110360D01*
X0139511Y0109743D01*
X0138893Y0108529D02*
X0138276Y0108529D01*
X0137659Y0107912D01*
X0137659Y0106677D01*
X0138276Y0106060D01*
X0139511Y0106677D02*
X0139511Y0107912D01*
X0138893Y0108529D01*
X0137659Y0109743D02*
X0141362Y0109743D01*
X0140745Y0108529D02*
X0141362Y0107912D01*
X0141362Y0106677D01*
X0140745Y0106060D01*
X0140128Y0106060D01*
X0139511Y0106677D01*
X0140128Y0113426D02*
X0140128Y0114043D01*
X0137659Y0114043D01*
X0137659Y0113426D02*
X0137659Y0114661D01*
X0137659Y0116499D02*
X0140745Y0116499D01*
X0141362Y0117116D01*
X0140128Y0118337D02*
X0140128Y0119572D01*
X0140745Y0118954D02*
X0138276Y0118954D01*
X0137659Y0119572D01*
X0137659Y0120793D02*
X0137659Y0122644D01*
X0138276Y0123261D01*
X0140745Y0123261D01*
X0141362Y0122644D01*
X0141362Y0120793D01*
X0137659Y0120793D01*
X0138276Y0124476D02*
X0138893Y0125093D01*
X0138893Y0126944D01*
X0139511Y0126944D02*
X0137659Y0126944D01*
X0137659Y0125093D01*
X0138276Y0124476D01*
X0140128Y0125093D02*
X0140128Y0126327D01*
X0139511Y0126944D01*
X0140128Y0128159D02*
X0140128Y0129393D01*
X0140745Y0128776D02*
X0138276Y0128776D01*
X0137659Y0129393D01*
X0139511Y0117116D02*
X0139511Y0115882D01*
X0141362Y0114043D02*
X0141979Y0114043D01*
X0146880Y0114715D02*
X0146880Y0117183D01*
X0147498Y0118398D02*
X0151201Y0118398D01*
X0149966Y0119632D01*
X0151201Y0120867D01*
X0147498Y0120867D01*
X0147498Y0113500D02*
X0149349Y0113500D01*
X0149966Y0112883D01*
X0149349Y0112266D01*
X0147498Y0112266D01*
X0147498Y0111031D02*
X0149966Y0111031D01*
X0149966Y0111649D01*
X0149349Y0112266D01*
X0149349Y0109817D02*
X0147498Y0109817D01*
X0147498Y0107966D01*
X0148115Y0107348D01*
X0148732Y0107966D01*
X0148732Y0109817D01*
X0149349Y0109817D02*
X0149966Y0109200D01*
X0149966Y0107966D01*
X0150584Y0106134D02*
X0151201Y0105517D01*
X0151201Y0104282D01*
X0150584Y0103665D01*
X0148115Y0103665D01*
X0147498Y0104282D01*
X0147498Y0105517D01*
X0148115Y0106134D01*
X0154064Y0104547D02*
X0156533Y0108250D01*
X0157747Y0108250D02*
X0160216Y0108250D01*
X0158982Y0108250D02*
X0158982Y0104547D01*
X0156533Y0104547D02*
X0154064Y0108250D01*
X0161430Y0103930D02*
X0163899Y0103930D01*
X0165113Y0104547D02*
X0165113Y0108250D01*
X0167582Y0108250D02*
X0165113Y0104547D01*
X0167582Y0104547D02*
X0167582Y0108250D01*
X0168797Y0107015D02*
X0168797Y0104547D01*
X0168797Y0106398D02*
X0171265Y0106398D01*
X0171265Y0107015D02*
X0170031Y0108250D01*
X0168797Y0107015D01*
X0171265Y0107015D02*
X0171265Y0104547D01*
X0172480Y0105164D02*
X0173097Y0104547D01*
X0174331Y0104547D01*
X0174948Y0105164D01*
X0174948Y0107633D01*
X0174331Y0108250D01*
X0173097Y0108250D01*
X0172480Y0107633D01*
X0176279Y0106608D02*
X0176896Y0107225D01*
X0178130Y0107225D01*
X0178747Y0106608D01*
X0179962Y0107225D02*
X0182430Y0107225D01*
X0182430Y0103522D01*
X0179962Y0103522D01*
X0178747Y0103522D02*
X0176279Y0105991D01*
X0176279Y0106608D01*
X0176279Y0103522D02*
X0178747Y0103522D01*
X0181196Y0105373D02*
X0182430Y0105373D01*
X0183645Y0105373D02*
X0184262Y0104756D01*
X0186114Y0104756D01*
X0186114Y0103522D02*
X0186114Y0107225D01*
X0184262Y0107225D01*
X0183645Y0106608D01*
X0183645Y0105373D01*
X0187731Y0100702D02*
X0187731Y0096998D01*
X0186497Y0096998D02*
X0188966Y0096998D01*
X0190180Y0096998D02*
X0192649Y0096998D01*
X0192649Y0100702D01*
X0193863Y0100084D02*
X0194480Y0100702D01*
X0195715Y0100702D01*
X0196332Y0100084D01*
X0196332Y0097616D01*
X0195715Y0096998D01*
X0194480Y0096998D01*
X0193863Y0097616D01*
X0197546Y0097616D02*
X0198164Y0096998D01*
X0199398Y0096998D01*
X0200015Y0097616D01*
X0199398Y0098850D02*
X0198164Y0098850D01*
X0197546Y0098233D01*
X0197546Y0097616D01*
X0199398Y0098850D02*
X0200015Y0099467D01*
X0200015Y0100084D01*
X0199398Y0100702D01*
X0198164Y0100702D01*
X0197546Y0100084D01*
X0197298Y0092352D02*
X0196064Y0091118D01*
X0196064Y0088649D01*
X0194850Y0088649D02*
X0194850Y0092352D01*
X0193615Y0091118D01*
X0192381Y0092352D01*
X0192381Y0088649D01*
X0191166Y0088649D02*
X0188698Y0091118D01*
X0188698Y0091735D01*
X0189315Y0092352D01*
X0190549Y0092352D01*
X0191166Y0091735D01*
X0191166Y0088649D02*
X0188698Y0088649D01*
X0196064Y0090501D02*
X0198533Y0090501D01*
X0198533Y0091118D02*
X0197298Y0092352D01*
X0198533Y0091118D02*
X0198533Y0088649D01*
X0199747Y0089266D02*
X0200364Y0088649D01*
X0201599Y0088649D01*
X0202216Y0089266D01*
X0202216Y0091735D01*
X0201599Y0092352D01*
X0200364Y0092352D01*
X0199747Y0091735D01*
X0188966Y0099467D02*
X0187731Y0100702D01*
X0200837Y0108052D02*
X0204540Y0108052D01*
X0204540Y0109903D01*
X0203923Y0110521D01*
X0202688Y0110521D01*
X0202071Y0109903D01*
X0202071Y0108052D01*
X0202688Y0111735D02*
X0202688Y0112969D01*
X0200837Y0111735D02*
X0200837Y0114204D01*
X0201454Y0115418D02*
X0200837Y0116035D01*
X0200837Y0117270D01*
X0201454Y0117887D01*
X0202071Y0117887D01*
X0202688Y0117270D01*
X0202688Y0116653D01*
X0202688Y0117270D02*
X0203306Y0117887D01*
X0203923Y0117887D01*
X0204540Y0117270D01*
X0204540Y0116035D01*
X0203923Y0115418D01*
X0204540Y0114204D02*
X0204540Y0111735D01*
X0200837Y0111735D01*
X0200992Y0118538D02*
X0204695Y0118538D01*
X0204695Y0120390D01*
X0204078Y0121007D01*
X0202844Y0121007D01*
X0202227Y0120390D01*
X0202227Y0118538D01*
X0202844Y0122221D02*
X0202844Y0123456D01*
X0204695Y0124690D02*
X0204695Y0122221D01*
X0200992Y0122221D01*
X0200992Y0124690D01*
X0201609Y0125905D02*
X0200992Y0126522D01*
X0200992Y0127756D01*
X0201609Y0128373D01*
X0202844Y0128373D01*
X0203461Y0127756D01*
X0203461Y0127139D01*
X0202844Y0125905D01*
X0204695Y0125905D01*
X0204695Y0128373D01*
X0204813Y0129919D02*
X0204813Y0133622D01*
X0203599Y0133622D02*
X0203599Y0129919D01*
X0201747Y0129919D01*
X0201130Y0130536D01*
X0201130Y0133004D01*
X0201747Y0133622D01*
X0203599Y0133622D01*
X0207282Y0133622D02*
X0204813Y0129919D01*
X0207282Y0129919D02*
X0207282Y0133622D01*
X0208496Y0133004D02*
X0209113Y0133622D01*
X0210348Y0133622D01*
X0210965Y0133004D01*
X0210965Y0130536D01*
X0210348Y0129919D01*
X0209113Y0129919D01*
X0208496Y0130536D01*
X0208496Y0131770D01*
X0209730Y0131770D01*
X0210123Y0139007D02*
X0209506Y0139624D01*
X0209506Y0140858D01*
X0210740Y0140858D01*
X0211975Y0139624D02*
X0211357Y0139007D01*
X0210123Y0139007D01*
X0208291Y0139007D02*
X0208291Y0142710D01*
X0205823Y0139007D01*
X0205823Y0142710D01*
X0204608Y0142710D02*
X0202757Y0142710D01*
X0202140Y0142093D01*
X0202140Y0139624D01*
X0202757Y0139007D01*
X0204608Y0139007D01*
X0204608Y0142710D01*
X0209506Y0142093D02*
X0210123Y0142710D01*
X0211357Y0142710D01*
X0211975Y0142093D01*
X0211975Y0139624D01*
X0210098Y0149990D02*
X0208863Y0149990D01*
X0208246Y0150607D01*
X0208246Y0151842D01*
X0209481Y0151842D01*
X0210715Y0153076D02*
X0210715Y0150607D01*
X0210098Y0149990D01*
X0207032Y0149990D02*
X0207032Y0153693D01*
X0204563Y0149990D01*
X0204563Y0153693D01*
X0203349Y0153693D02*
X0203349Y0149990D01*
X0201497Y0149990D01*
X0200880Y0150607D01*
X0200880Y0153076D01*
X0201497Y0153693D01*
X0203349Y0153693D01*
X0208246Y0153076D02*
X0208863Y0153693D01*
X0210098Y0153693D01*
X0210715Y0153076D01*
X0211465Y0160209D02*
X0211465Y0163912D01*
X0209613Y0163912D01*
X0208996Y0163295D01*
X0208996Y0162060D01*
X0209613Y0161443D01*
X0211465Y0161443D01*
X0207781Y0160826D02*
X0207164Y0160209D01*
X0205930Y0160209D01*
X0205313Y0160826D01*
X0204098Y0160209D02*
X0201629Y0160209D01*
X0202864Y0160209D02*
X0202864Y0163912D01*
X0204098Y0162677D01*
X0205313Y0163295D02*
X0205930Y0163912D01*
X0207164Y0163912D01*
X0207781Y0163295D01*
X0207781Y0160826D01*
X0200415Y0162060D02*
X0197946Y0162060D01*
X0198563Y0160209D02*
X0198563Y0163912D01*
X0200415Y0162060D01*
X0200866Y0169639D02*
X0200866Y0173342D01*
X0203335Y0173342D02*
X0200866Y0169639D01*
X0203335Y0169639D02*
X0203335Y0173342D01*
X0204556Y0173342D02*
X0205791Y0173342D01*
X0205173Y0173342D02*
X0205173Y0169639D01*
X0204556Y0169639D02*
X0205791Y0169639D01*
X0207005Y0169022D02*
X0209474Y0169022D01*
X0210688Y0170256D02*
X0211305Y0169639D01*
X0212540Y0169639D01*
X0213157Y0170256D01*
X0213157Y0172725D01*
X0212540Y0173342D01*
X0211305Y0173342D01*
X0210688Y0172725D01*
X0214371Y0172725D02*
X0214989Y0173342D01*
X0216223Y0173342D01*
X0216840Y0172725D01*
X0216840Y0172107D01*
X0216223Y0171490D01*
X0214989Y0171490D01*
X0214371Y0170873D01*
X0214371Y0170256D01*
X0214989Y0169639D01*
X0216223Y0169639D01*
X0216840Y0170256D01*
X0218054Y0170256D02*
X0218054Y0172725D01*
X0218672Y0173342D01*
X0219906Y0173342D01*
X0220523Y0172725D01*
X0220523Y0170256D01*
X0219906Y0169639D01*
X0218672Y0169639D01*
X0218054Y0170256D01*
X0210335Y0179900D02*
X0209101Y0179900D01*
X0208484Y0180518D01*
X0208484Y0181752D01*
X0209718Y0181752D01*
X0210952Y0182986D02*
X0210952Y0180518D01*
X0210335Y0179900D01*
X0207269Y0179900D02*
X0207269Y0183604D01*
X0204800Y0179900D01*
X0204800Y0183604D01*
X0203586Y0183604D02*
X0201734Y0183604D01*
X0201117Y0182986D01*
X0201117Y0180518D01*
X0201734Y0179900D01*
X0203586Y0179900D01*
X0203586Y0183604D01*
X0208484Y0182986D02*
X0209101Y0183604D01*
X0210335Y0183604D01*
X0210952Y0182986D01*
X0177406Y0178753D02*
X0177406Y0176284D01*
X0175554Y0176284D01*
X0176171Y0177518D01*
X0176171Y0178136D01*
X0175554Y0178753D01*
X0174320Y0178753D01*
X0173703Y0178136D01*
X0173703Y0176901D01*
X0174320Y0176284D01*
X0173703Y0175070D02*
X0173703Y0172601D01*
X0173703Y0173835D02*
X0177406Y0173835D01*
X0176171Y0172601D01*
X0176789Y0171387D02*
X0177406Y0170769D01*
X0177406Y0169535D01*
X0176789Y0168918D01*
X0174320Y0168918D01*
X0173703Y0169535D01*
X0173703Y0170769D01*
X0174320Y0171387D01*
X0175554Y0167703D02*
X0174937Y0167086D01*
X0174937Y0165235D01*
X0175190Y0165869D02*
X0175808Y0165252D01*
X0175808Y0164635D01*
X0175808Y0165252D02*
X0176425Y0165869D01*
X0177042Y0165869D01*
X0177659Y0165252D01*
X0177659Y0164018D01*
X0177042Y0163400D01*
X0177406Y0165235D02*
X0177406Y0167086D01*
X0176789Y0167703D01*
X0175554Y0167703D01*
X0175190Y0165869D02*
X0174573Y0165869D01*
X0173956Y0165252D01*
X0173956Y0164018D01*
X0174573Y0163400D01*
X0173956Y0162186D02*
X0173956Y0159717D01*
X0173956Y0160952D02*
X0177659Y0160952D01*
X0176425Y0159717D01*
X0177042Y0158503D02*
X0177659Y0157886D01*
X0177659Y0156651D01*
X0177042Y0156034D01*
X0174573Y0156034D01*
X0173956Y0156651D01*
X0173956Y0157886D01*
X0174573Y0158503D01*
X0175808Y0154820D02*
X0175190Y0154203D01*
X0175190Y0152351D01*
X0173956Y0152351D02*
X0177659Y0152351D01*
X0177659Y0154203D01*
X0177042Y0154820D01*
X0175808Y0154820D01*
X0175280Y0150098D02*
X0174663Y0150098D01*
X0174046Y0149481D01*
X0174046Y0148247D01*
X0174663Y0147630D01*
X0175280Y0146415D02*
X0177749Y0146415D01*
X0177132Y0147630D02*
X0177749Y0148247D01*
X0177749Y0149481D01*
X0177132Y0150098D01*
X0176515Y0150098D01*
X0175898Y0149481D01*
X0175280Y0150098D01*
X0175898Y0149481D02*
X0175898Y0148864D01*
X0175280Y0146415D02*
X0174046Y0145181D01*
X0175280Y0143947D01*
X0177749Y0143947D01*
X0177132Y0142732D02*
X0176515Y0142732D01*
X0175898Y0142115D01*
X0175280Y0142732D01*
X0174663Y0142732D01*
X0174046Y0142115D01*
X0174046Y0140881D01*
X0174663Y0140263D01*
X0175898Y0139049D02*
X0175898Y0136580D01*
X0177132Y0137815D02*
X0174663Y0137815D01*
X0174711Y0134770D02*
X0174094Y0134770D01*
X0173477Y0134153D01*
X0173477Y0132918D01*
X0174094Y0132301D01*
X0175328Y0132301D01*
X0175328Y0134153D01*
X0174711Y0134770D01*
X0176563Y0133536D02*
X0175328Y0132301D01*
X0176563Y0133536D02*
X0177180Y0134770D01*
X0177180Y0131087D02*
X0177180Y0128618D01*
X0173477Y0128618D01*
X0173477Y0131087D01*
X0175328Y0129852D02*
X0175328Y0128618D01*
X0175328Y0127404D02*
X0174711Y0126787D01*
X0174711Y0124935D01*
X0174558Y0124378D02*
X0172707Y0122526D01*
X0172707Y0124995D01*
X0173477Y0124935D02*
X0177180Y0124935D01*
X0177180Y0126787D01*
X0176563Y0127404D01*
X0175328Y0127404D01*
X0174558Y0124378D02*
X0170855Y0124378D01*
X0170855Y0121312D02*
X0170855Y0118843D01*
X0174558Y0118843D01*
X0174558Y0121312D01*
X0172707Y0120077D02*
X0172707Y0118843D01*
X0172707Y0117629D02*
X0172089Y0117012D01*
X0172089Y0115160D01*
X0170855Y0115160D02*
X0174558Y0115160D01*
X0174558Y0117012D01*
X0173941Y0117629D01*
X0172707Y0117629D01*
X0177132Y0140263D02*
X0177749Y0140881D01*
X0177749Y0142115D01*
X0177132Y0142732D01*
X0175898Y0142115D02*
X0175898Y0141498D01*
X0177406Y0165235D02*
X0173703Y0165235D01*
X0172942Y0177107D02*
X0172942Y0178959D01*
X0173559Y0179576D01*
X0174794Y0179576D01*
X0175411Y0178959D01*
X0175411Y0177107D01*
X0171708Y0177107D01*
X0171708Y0180790D02*
X0175411Y0180790D01*
X0173559Y0180790D02*
X0173559Y0183259D01*
X0174176Y0184473D02*
X0175411Y0185708D01*
X0171708Y0185708D01*
X0171708Y0186942D02*
X0171708Y0184473D01*
X0171708Y0183259D02*
X0175411Y0183259D01*
X0106081Y0162401D02*
X0106081Y0158698D01*
X0106081Y0159932D02*
X0104229Y0159932D01*
X0103612Y0160549D01*
X0103612Y0161784D01*
X0104229Y0162401D01*
X0106081Y0162401D01*
X0102398Y0162401D02*
X0102398Y0158698D01*
X0100546Y0158698D01*
X0099929Y0159315D01*
X0099929Y0161784D01*
X0100546Y0162401D01*
X0102398Y0162401D01*
X0098715Y0161166D02*
X0097480Y0162401D01*
X0097480Y0158698D01*
X0096246Y0158698D02*
X0098715Y0158698D01*
X0095031Y0159315D02*
X0094414Y0158698D01*
X0093180Y0158698D01*
X0092563Y0159315D01*
X0092563Y0159932D01*
X0093180Y0160549D01*
X0093797Y0160549D01*
X0093180Y0160549D02*
X0092563Y0161166D01*
X0092563Y0161784D01*
X0093180Y0162401D01*
X0094414Y0162401D01*
X0095031Y0161784D01*
X0094876Y0153079D02*
X0092407Y0153079D01*
X0093024Y0151845D02*
X0092407Y0151228D01*
X0092407Y0149993D01*
X0093024Y0149376D01*
X0094259Y0149376D01*
X0094876Y0149993D01*
X0094876Y0151228D02*
X0093642Y0151845D01*
X0093024Y0151845D01*
X0094876Y0151228D02*
X0094876Y0153079D01*
X0097325Y0153079D02*
X0097325Y0149376D01*
X0098559Y0149376D02*
X0096090Y0149376D01*
X0098559Y0151845D02*
X0097325Y0153079D01*
X0099774Y0152462D02*
X0099774Y0149993D01*
X0100391Y0149376D01*
X0102242Y0149376D01*
X0102242Y0153079D01*
X0100391Y0153079D01*
X0099774Y0152462D01*
X0103457Y0152462D02*
X0103457Y0151228D01*
X0104074Y0150611D01*
X0105926Y0150611D01*
X0105926Y0149376D02*
X0105926Y0153079D01*
X0104074Y0153079D01*
X0103457Y0152462D01*
X0102275Y0143292D02*
X0100423Y0143292D01*
X0099806Y0142675D01*
X0099806Y0141440D01*
X0100423Y0140823D01*
X0102275Y0140823D01*
X0102275Y0139589D02*
X0102275Y0143292D01*
X0098592Y0142675D02*
X0098592Y0140206D01*
X0097974Y0139589D01*
X0096740Y0139589D01*
X0096123Y0140206D01*
X0094908Y0140206D02*
X0094908Y0139589D01*
X0094908Y0140206D02*
X0092440Y0142675D01*
X0092440Y0143292D01*
X0094908Y0143292D01*
X0096123Y0142675D02*
X0096740Y0143292D01*
X0097974Y0143292D01*
X0098592Y0142675D01*
X0098293Y0137699D02*
X0097676Y0137082D01*
X0097676Y0134613D01*
X0098293Y0133996D01*
X0100145Y0133996D01*
X0100145Y0137699D01*
X0098293Y0137699D01*
X0096462Y0136465D02*
X0095228Y0137699D01*
X0093993Y0136465D01*
X0093993Y0133996D01*
X0092779Y0133996D02*
X0090310Y0136465D01*
X0090310Y0137082D01*
X0090927Y0137699D01*
X0092162Y0137699D01*
X0092779Y0137082D01*
X0093993Y0135848D02*
X0096462Y0135848D01*
X0096462Y0136465D02*
X0096462Y0133996D01*
X0092779Y0133996D02*
X0090310Y0133996D01*
X0101359Y0134613D02*
X0101977Y0133996D01*
X0103211Y0133996D01*
X0103828Y0134613D01*
X0103211Y0135848D02*
X0101977Y0135848D01*
X0101359Y0135230D01*
X0101359Y0134613D01*
X0103211Y0135848D02*
X0103828Y0136465D01*
X0103828Y0137082D01*
X0103211Y0137699D01*
X0101977Y0137699D01*
X0101359Y0137082D01*
X0101621Y0170582D02*
X0099769Y0170582D01*
X0099152Y0171199D01*
X0099152Y0173668D01*
X0099769Y0174285D01*
X0101621Y0174285D01*
X0101621Y0170582D01*
X0103453Y0171817D02*
X0102835Y0172434D01*
X0102835Y0173668D01*
X0103453Y0174285D01*
X0105304Y0174285D01*
X0105304Y0170582D01*
X0105304Y0171817D02*
X0103453Y0171817D01*
X0102974Y0178816D02*
X0102974Y0182519D01*
X0101122Y0182519D01*
X0100505Y0181902D01*
X0100505Y0180668D01*
X0101122Y0180050D01*
X0102974Y0180050D01*
X0099291Y0178816D02*
X0099291Y0182519D01*
X0097439Y0182519D01*
X0096822Y0181902D01*
X0096822Y0179433D01*
X0097439Y0178816D01*
X0099291Y0178816D01*
X0095608Y0179433D02*
X0095608Y0180050D01*
X0094990Y0180668D01*
X0093756Y0180668D01*
X0093139Y0180050D01*
X0093139Y0179433D01*
X0093756Y0178816D01*
X0094990Y0178816D01*
X0095608Y0179433D01*
X0094990Y0180668D02*
X0095608Y0181285D01*
X0095608Y0181902D01*
X0094990Y0182519D01*
X0093756Y0182519D01*
X0093139Y0181902D01*
X0093139Y0181285D01*
X0093756Y0180668D01*
X0093020Y0174285D02*
X0093020Y0170582D01*
X0091786Y0170582D02*
X0094255Y0170582D01*
X0095469Y0170582D02*
X0097938Y0170582D01*
X0096703Y0170582D02*
X0096703Y0174285D01*
X0097938Y0173051D01*
X0094255Y0173051D02*
X0093020Y0174285D01*
X0068252Y0172809D02*
X0068252Y0169106D01*
X0068252Y0170341D02*
X0066400Y0170341D01*
X0065783Y0170958D01*
X0065783Y0172192D01*
X0066400Y0172809D01*
X0068252Y0172809D01*
X0064569Y0172809D02*
X0064569Y0169106D01*
X0062717Y0169106D01*
X0062100Y0169723D01*
X0062100Y0172192D01*
X0062717Y0172809D01*
X0064569Y0172809D01*
X0060886Y0171575D02*
X0059651Y0172809D01*
X0059651Y0169106D01*
X0058417Y0169106D02*
X0060886Y0169106D01*
X0057203Y0169106D02*
X0054734Y0171575D01*
X0054734Y0172192D01*
X0055351Y0172809D01*
X0056585Y0172809D01*
X0057203Y0172192D01*
X0057203Y0169106D02*
X0054734Y0169106D01*
X0055653Y0164650D02*
X0057505Y0162798D01*
X0055036Y0162798D01*
X0055653Y0160947D02*
X0055653Y0164650D01*
X0058719Y0160947D02*
X0061188Y0160947D01*
X0059953Y0160947D02*
X0059953Y0164650D01*
X0061188Y0163415D01*
X0062402Y0164033D02*
X0062402Y0161564D01*
X0063019Y0160947D01*
X0064871Y0160947D01*
X0064871Y0164650D01*
X0063019Y0164650D01*
X0062402Y0164033D01*
X0066085Y0164033D02*
X0066085Y0162798D01*
X0066702Y0162181D01*
X0068554Y0162181D01*
X0068554Y0160947D02*
X0068554Y0164650D01*
X0066702Y0164650D01*
X0066085Y0164033D01*
X0066871Y0151899D02*
X0065020Y0151899D01*
X0064402Y0151282D01*
X0064402Y0150047D01*
X0065020Y0149430D01*
X0066871Y0149430D01*
X0066871Y0148196D02*
X0066871Y0151899D01*
X0063188Y0151282D02*
X0063188Y0148813D01*
X0062571Y0148196D01*
X0061336Y0148196D01*
X0060719Y0148813D01*
X0059505Y0148813D02*
X0058888Y0148196D01*
X0057653Y0148196D01*
X0057036Y0148813D01*
X0057036Y0149430D01*
X0057653Y0150047D01*
X0059505Y0150047D01*
X0059505Y0148813D01*
X0059505Y0150047D02*
X0058270Y0151282D01*
X0057036Y0151899D01*
X0060719Y0151282D02*
X0061336Y0151899D01*
X0062571Y0151899D01*
X0063188Y0151282D01*
X0063412Y0143420D02*
X0064029Y0142803D01*
X0064029Y0140334D01*
X0063412Y0139717D01*
X0062178Y0139717D01*
X0061561Y0140334D01*
X0060346Y0140334D02*
X0060346Y0140951D01*
X0059729Y0141569D01*
X0058495Y0141569D01*
X0057877Y0140951D01*
X0057877Y0140334D01*
X0058495Y0139717D01*
X0059729Y0139717D01*
X0060346Y0140334D01*
X0059729Y0141569D02*
X0060346Y0142186D01*
X0060346Y0142803D01*
X0059729Y0143420D01*
X0058495Y0143420D01*
X0057877Y0142803D01*
X0057877Y0142186D01*
X0058495Y0141569D01*
X0061561Y0142803D02*
X0062178Y0143420D01*
X0063412Y0143420D01*
X0065244Y0142803D02*
X0065244Y0141569D01*
X0065861Y0140951D01*
X0067713Y0140951D01*
X0067713Y0139717D02*
X0067713Y0143420D01*
X0065861Y0143420D01*
X0065244Y0142803D01*
X0066120Y0133711D02*
X0067354Y0133711D01*
X0067971Y0133094D01*
X0067971Y0132477D01*
X0067354Y0131860D01*
X0066120Y0131860D01*
X0065503Y0131243D01*
X0065503Y0130625D01*
X0066120Y0130008D01*
X0067354Y0130008D01*
X0067971Y0130625D01*
X0065503Y0133094D02*
X0066120Y0133711D01*
X0064288Y0133094D02*
X0064288Y0130625D01*
X0063671Y0130008D01*
X0062437Y0130008D01*
X0061819Y0130625D01*
X0060605Y0130008D02*
X0058136Y0130008D01*
X0056922Y0130008D02*
X0054453Y0132477D01*
X0054453Y0133094D01*
X0055070Y0133711D01*
X0056305Y0133711D01*
X0056922Y0133094D01*
X0056922Y0130008D02*
X0054453Y0130008D01*
X0052971Y0124649D02*
X0052971Y0120946D01*
X0054205Y0120946D02*
X0051737Y0120946D01*
X0050522Y0120946D02*
X0048053Y0120946D01*
X0049288Y0120946D02*
X0049288Y0124649D01*
X0050522Y0123415D01*
X0052971Y0124649D02*
X0054205Y0123415D01*
X0055420Y0123415D02*
X0055420Y0120946D01*
X0055420Y0122798D02*
X0057888Y0122798D01*
X0057888Y0123415D02*
X0056654Y0124649D01*
X0055420Y0123415D01*
X0057888Y0123415D02*
X0057888Y0120946D01*
X0059720Y0122181D02*
X0061572Y0122181D01*
X0061572Y0120946D02*
X0061572Y0124649D01*
X0059720Y0124649D01*
X0059103Y0124032D01*
X0059103Y0122798D01*
X0059720Y0122181D01*
X0060605Y0130008D02*
X0060605Y0133711D01*
X0061819Y0133094D02*
X0062437Y0133711D01*
X0063671Y0133711D01*
X0064288Y0133094D01*
X0066614Y0106240D02*
X0065997Y0105623D01*
X0065997Y0105006D01*
X0066614Y0104388D01*
X0065997Y0103771D01*
X0065997Y0103154D01*
X0066614Y0102537D01*
X0067848Y0102537D01*
X0068466Y0103154D01*
X0069680Y0103771D02*
X0069680Y0106240D01*
X0068466Y0105623D02*
X0067848Y0106240D01*
X0066614Y0106240D01*
X0066614Y0104388D02*
X0067231Y0104388D01*
X0069680Y0103771D02*
X0070914Y0102537D01*
X0072149Y0103771D01*
X0072149Y0106240D01*
X0073363Y0105623D02*
X0073363Y0105006D01*
X0073980Y0104388D01*
X0073363Y0103771D01*
X0073363Y0103154D01*
X0073980Y0102537D01*
X0075215Y0102537D01*
X0075832Y0103154D01*
X0077046Y0104388D02*
X0079515Y0104388D01*
X0078281Y0105623D02*
X0078281Y0103154D01*
X0075832Y0105623D02*
X0075215Y0106240D01*
X0073980Y0106240D01*
X0073363Y0105623D01*
X0073980Y0104388D02*
X0074598Y0104388D01*
X0081449Y0101090D02*
X0081449Y0097387D01*
X0082683Y0099856D02*
X0081449Y0101090D01*
X0090473Y0092359D02*
X0090473Y0090508D01*
X0090473Y0089293D02*
X0092324Y0089293D01*
X0092942Y0088676D01*
X0092324Y0088059D01*
X0090473Y0088059D01*
X0090473Y0086824D02*
X0092942Y0086824D01*
X0092942Y0087442D01*
X0092324Y0088059D01*
X0092324Y0085610D02*
X0091707Y0085610D01*
X0091707Y0083141D01*
X0091090Y0083141D02*
X0092324Y0083141D01*
X0092942Y0083758D01*
X0092942Y0084993D01*
X0092324Y0085610D01*
X0090473Y0084993D02*
X0090473Y0083758D01*
X0091090Y0083141D01*
X0090473Y0080692D02*
X0094176Y0080692D01*
X0094176Y0079458D02*
X0094176Y0081927D01*
X0092942Y0090508D02*
X0089239Y0090508D01*
X0090473Y0092359D02*
X0091090Y0092976D01*
X0092324Y0092976D01*
X0092942Y0092359D01*
X0092942Y0090508D01*
X0104721Y0080097D02*
X0104721Y0077629D01*
X0105338Y0077012D01*
X0106573Y0077012D01*
X0107190Y0077629D01*
X0104721Y0080097D01*
X0105338Y0080715D01*
X0106573Y0080715D01*
X0107190Y0080097D01*
X0107190Y0077629D01*
X0108404Y0077629D02*
X0108404Y0080097D01*
X0109021Y0080715D01*
X0110873Y0080715D01*
X0110873Y0077012D01*
X0109021Y0077012D01*
X0108404Y0077629D01*
X0112087Y0078863D02*
X0112705Y0078246D01*
X0114556Y0078246D01*
X0114556Y0077012D02*
X0114556Y0080715D01*
X0112705Y0080715D01*
X0112087Y0080097D01*
X0112087Y0078863D01*
X0116571Y0078623D02*
X0119040Y0081092D01*
X0119657Y0081092D01*
X0120274Y0080474D01*
X0120274Y0079240D01*
X0119657Y0078623D01*
X0119657Y0077408D02*
X0117188Y0077408D01*
X0116571Y0076791D01*
X0116571Y0074940D01*
X0120274Y0074940D01*
X0120274Y0076791D01*
X0119657Y0077408D01*
X0116571Y0078623D02*
X0116571Y0081092D01*
X0118423Y0073725D02*
X0117805Y0073108D01*
X0117805Y0071257D01*
X0116571Y0071257D02*
X0120274Y0071257D01*
X0120274Y0073108D01*
X0119657Y0073725D01*
X0118423Y0073725D01*
X0127380Y0074363D02*
X0127380Y0075597D01*
X0127998Y0076214D01*
X0127380Y0077428D02*
X0127380Y0078663D01*
X0127380Y0078046D02*
X0131084Y0078046D01*
X0131084Y0077428D01*
X0130466Y0076214D02*
X0131084Y0075597D01*
X0131084Y0074363D01*
X0130466Y0073745D01*
X0127998Y0073745D01*
X0127380Y0074363D01*
X0127380Y0072524D02*
X0127998Y0071907D01*
X0130466Y0071907D01*
X0129849Y0071290D02*
X0129849Y0072524D01*
X0129232Y0070069D02*
X0129232Y0068834D01*
X0130466Y0069452D02*
X0131084Y0070069D01*
X0130466Y0069452D02*
X0127380Y0069452D01*
X0127380Y0067613D02*
X0127380Y0066379D01*
X0127380Y0066996D02*
X0129849Y0066996D01*
X0129849Y0066379D01*
X0129232Y0065165D02*
X0127380Y0065165D01*
X0129232Y0065165D02*
X0129849Y0064547D01*
X0129849Y0063313D01*
X0129232Y0062696D01*
X0128615Y0061482D02*
X0127998Y0061482D01*
X0127380Y0060864D01*
X0127380Y0059630D01*
X0127998Y0059013D01*
X0129232Y0059630D02*
X0129232Y0060864D01*
X0128615Y0061482D01*
X0127380Y0062696D02*
X0131084Y0062696D01*
X0130466Y0061482D02*
X0131084Y0060864D01*
X0131084Y0059630D01*
X0130466Y0059013D01*
X0129849Y0059013D01*
X0129232Y0059630D01*
X0131084Y0066996D02*
X0131701Y0066996D01*
X0136543Y0068240D02*
X0136543Y0070709D01*
X0137160Y0071923D02*
X0140863Y0071923D01*
X0140863Y0073775D01*
X0140246Y0074392D01*
X0139011Y0074392D01*
X0138394Y0073775D01*
X0138394Y0071923D01*
X0139628Y0067022D02*
X0139628Y0066405D01*
X0138394Y0065171D01*
X0138394Y0063956D02*
X0138394Y0062105D01*
X0137777Y0061487D01*
X0137160Y0062105D01*
X0137160Y0063956D01*
X0139011Y0063956D01*
X0139628Y0063339D01*
X0139628Y0062105D01*
X0139011Y0060273D02*
X0137160Y0060273D01*
X0139011Y0060273D02*
X0139628Y0059656D01*
X0139628Y0057804D01*
X0137160Y0057804D01*
X0137777Y0056590D02*
X0137160Y0055973D01*
X0137160Y0054738D01*
X0137777Y0054121D01*
X0139011Y0054121D01*
X0139628Y0054738D01*
X0139628Y0055973D01*
X0139011Y0056590D01*
X0137777Y0056590D01*
X0137777Y0052907D02*
X0137160Y0052290D01*
X0137160Y0051055D01*
X0137777Y0050438D01*
X0139011Y0051055D02*
X0139011Y0052290D01*
X0138394Y0052907D01*
X0137777Y0052907D01*
X0139011Y0051055D02*
X0139628Y0050438D01*
X0140246Y0050438D01*
X0140863Y0051055D01*
X0140863Y0052290D01*
X0140246Y0052907D01*
X0146461Y0061683D02*
X0145844Y0062300D01*
X0145844Y0063534D01*
X0146461Y0064151D01*
X0145844Y0065366D02*
X0148312Y0065366D01*
X0149547Y0066600D01*
X0148312Y0067834D01*
X0145844Y0067834D01*
X0145844Y0069049D02*
X0149547Y0069049D01*
X0145844Y0071518D01*
X0149547Y0071518D01*
X0147695Y0067834D02*
X0147695Y0065366D01*
X0148930Y0064151D02*
X0149547Y0063534D01*
X0149547Y0062300D01*
X0148930Y0061683D01*
X0146461Y0061683D01*
X0139628Y0065171D02*
X0137160Y0065171D01*
X0137160Y0075606D02*
X0138394Y0076840D01*
X0137160Y0078075D01*
X0140863Y0078075D01*
X0140863Y0079289D02*
X0139628Y0080524D01*
X0140863Y0081758D01*
X0137160Y0081758D01*
X0137160Y0079289D02*
X0140863Y0079289D01*
X0140863Y0075606D02*
X0137160Y0075606D01*
X0131084Y0079884D02*
X0127380Y0079884D01*
X0128615Y0079884D02*
X0127380Y0081735D01*
X0128615Y0079884D02*
X0129849Y0081735D01*
X0145844Y0082567D02*
X0149547Y0080098D01*
X0148930Y0078884D02*
X0147695Y0078884D01*
X0147078Y0078267D01*
X0147078Y0076415D01*
X0145844Y0076415D02*
X0149547Y0076415D01*
X0149547Y0078267D01*
X0148930Y0078884D01*
X0147078Y0077649D02*
X0145844Y0078884D01*
X0145844Y0080098D02*
X0149547Y0082567D01*
X0145227Y0075201D02*
X0145227Y0072732D01*
X0159328Y0073487D02*
X0159328Y0075339D01*
X0159945Y0075956D01*
X0162414Y0075956D01*
X0163031Y0075339D01*
X0163031Y0073487D01*
X0159328Y0073487D01*
X0159945Y0072273D02*
X0159328Y0071655D01*
X0159328Y0070421D01*
X0159945Y0069804D01*
X0161180Y0070421D02*
X0161180Y0071655D01*
X0160563Y0072273D01*
X0159945Y0072273D01*
X0161180Y0070421D02*
X0161797Y0069804D01*
X0162414Y0069804D01*
X0163031Y0070421D01*
X0163031Y0071655D01*
X0162414Y0072273D01*
X0161797Y0077170D02*
X0159328Y0077170D01*
X0161180Y0077170D02*
X0161180Y0079639D01*
X0161797Y0079639D02*
X0159328Y0079639D01*
X0159328Y0080853D02*
X0159328Y0083322D01*
X0159328Y0082088D02*
X0163031Y0082088D01*
X0161797Y0080853D01*
X0161797Y0079639D02*
X0163031Y0078405D01*
X0161797Y0077170D01*
X0067713Y0179782D02*
X0067713Y0183485D01*
X0065861Y0183485D01*
X0065244Y0182868D01*
X0065244Y0181633D01*
X0065861Y0181016D01*
X0067713Y0181016D01*
X0064029Y0179782D02*
X0062178Y0179782D01*
X0061561Y0180399D01*
X0061561Y0182868D01*
X0062178Y0183485D01*
X0064029Y0183485D01*
X0064029Y0179782D01*
X0060346Y0180399D02*
X0059729Y0179782D01*
X0058495Y0179782D01*
X0057877Y0180399D01*
X0057877Y0182868D01*
X0058495Y0183485D01*
X0059729Y0183485D01*
X0060346Y0182868D01*
X0060346Y0182250D01*
X0059729Y0181633D01*
X0057877Y0181633D01*
D11*
X0103622Y0124034D02*
X0103862Y0124034D01*
X0117756Y0123687D02*
X0117756Y0123447D01*
X0157556Y0113984D02*
X0157796Y0113984D01*
X0166400Y0131477D02*
X0166400Y0131717D01*
X0164597Y0141648D02*
X0164357Y0141648D01*
X0166947Y0151656D02*
X0166947Y0151896D01*
X0166913Y0159709D02*
X0166913Y0159949D01*
X0166937Y0167758D02*
X0166937Y0167998D01*
X0161281Y0179996D02*
X0161041Y0179996D01*
X0152830Y0180008D02*
X0152590Y0180008D01*
X0112538Y0180436D02*
X0112298Y0180436D01*
D12*
X0043856Y0064192D03*
X0073052Y0060426D03*
X0181726Y0090662D03*
X0181765Y0098942D03*
M02*
