G75*
%MOIN*%
%OFA0B0*%
%FSLAX25Y25*%
%IPPOS*%
%LPD*%
%AMOC8*
5,1,8,0,0,1.08239X$1,22.5*
%
%ADD10C,0.00200*%
%ADD11C,0.01600*%
%ADD12C,0.00600*%
%ADD13C,0.00300*%
%ADD14R,0.20300X0.00100*%
%ADD15R,0.00200X0.00100*%
%ADD16R,0.01100X0.00100*%
%ADD17R,0.15000X0.00100*%
%ADD18R,0.20200X0.00100*%
%ADD19R,0.00100X0.00100*%
%ADD20R,0.00700X0.00100*%
%ADD21R,0.14900X0.00100*%
%ADD22R,0.00900X0.00100*%
%ADD23R,0.14800X0.00100*%
%ADD24R,0.01200X0.00100*%
%ADD25R,0.20100X0.00100*%
%ADD26R,0.14700X0.00100*%
%ADD27R,0.00300X0.00100*%
%ADD28R,0.00400X0.00100*%
%ADD29R,0.20000X0.00100*%
%ADD30R,0.00500X0.00100*%
%ADD31R,0.01300X0.00100*%
%ADD32R,0.14300X0.00100*%
%ADD33R,0.00600X0.00100*%
%ADD34R,0.14200X0.00100*%
%ADD35R,0.19900X0.00100*%
%ADD36R,0.19800X0.00100*%
%ADD37R,0.19700X0.00100*%
%ADD38R,0.00800X0.00100*%
%ADD39R,0.14100X0.00100*%
%ADD40R,0.19600X0.00100*%
%ADD41R,0.14000X0.00100*%
%ADD42R,0.19500X0.00100*%
%ADD43R,0.01500X0.00100*%
%ADD44R,0.13800X0.00100*%
%ADD45R,0.19400X0.00100*%
%ADD46R,0.02500X0.00100*%
%ADD47R,0.18800X0.00100*%
%ADD48R,0.01400X0.00100*%
%ADD49R,0.02400X0.00100*%
%ADD50R,0.13700X0.00100*%
%ADD51R,0.18700X0.00100*%
%ADD52R,0.01900X0.00100*%
%ADD53R,0.02300X0.00100*%
%ADD54R,0.13400X0.00100*%
%ADD55R,0.18600X0.00100*%
%ADD56R,0.13300X0.00100*%
%ADD57R,0.18400X0.00100*%
%ADD58R,0.02100X0.00100*%
%ADD59R,0.13200X0.00100*%
%ADD60R,0.18300X0.00100*%
%ADD61R,0.02600X0.00100*%
%ADD62R,0.13100X0.00100*%
%ADD63R,0.18100X0.00100*%
%ADD64R,0.13000X0.00100*%
%ADD65R,0.18000X0.00100*%
%ADD66R,0.12900X0.00100*%
%ADD67R,0.17700X0.00100*%
%ADD68R,0.01000X0.00100*%
%ADD69R,0.12700X0.00100*%
%ADD70R,0.17600X0.00100*%
%ADD71R,0.01800X0.00100*%
%ADD72R,0.12600X0.00100*%
%ADD73R,0.17500X0.00100*%
%ADD74R,0.01700X0.00100*%
%ADD75R,0.12400X0.00100*%
%ADD76R,0.17300X0.00100*%
%ADD77R,0.12300X0.00100*%
%ADD78R,0.17100X0.00100*%
%ADD79R,0.01600X0.00100*%
%ADD80R,0.12100X0.00100*%
%ADD81R,0.16900X0.00100*%
%ADD82R,0.16800X0.00100*%
%ADD83R,0.11900X0.00100*%
%ADD84R,0.16600X0.00100*%
%ADD85R,0.11700X0.00100*%
%ADD86R,0.16500X0.00100*%
%ADD87R,0.11600X0.00100*%
%ADD88R,0.16300X0.00100*%
%ADD89R,0.11400X0.00100*%
%ADD90R,0.16100X0.00100*%
%ADD91R,0.11300X0.00100*%
%ADD92R,0.15800X0.00100*%
%ADD93R,0.11200X0.00100*%
%ADD94R,0.15500X0.00100*%
%ADD95R,0.11000X0.00100*%
%ADD96R,0.15200X0.00100*%
%ADD97R,0.10800X0.00100*%
%ADD98R,0.15100X0.00100*%
%ADD99R,0.10600X0.00100*%
%ADD100R,0.10400X0.00100*%
%ADD101R,0.14600X0.00100*%
%ADD102R,0.10200X0.00100*%
%ADD103R,0.14400X0.00100*%
%ADD104R,0.10000X0.00100*%
%ADD105R,0.09800X0.00100*%
%ADD106R,0.13900X0.00100*%
%ADD107R,0.09700X0.00100*%
%ADD108R,0.13600X0.00100*%
%ADD109R,0.09500X0.00100*%
%ADD110R,0.13500X0.00100*%
%ADD111R,0.09300X0.00100*%
%ADD112R,0.09200X0.00100*%
%ADD113R,0.09000X0.00100*%
%ADD114R,0.08700X0.00100*%
%ADD115R,0.12500X0.00100*%
%ADD116R,0.08500X0.00100*%
%ADD117R,0.11800X0.00100*%
%ADD118R,0.08300X0.00100*%
%ADD119R,0.08100X0.00100*%
%ADD120R,0.07900X0.00100*%
%ADD121R,0.11100X0.00100*%
%ADD122R,0.07800X0.00100*%
%ADD123R,0.10900X0.00100*%
%ADD124R,0.07400X0.00100*%
%ADD125R,0.10500X0.00100*%
%ADD126R,0.07200X0.00100*%
%ADD127R,0.07000X0.00100*%
%ADD128R,0.10100X0.00100*%
%ADD129R,0.06800X0.00100*%
%ADD130R,0.06600X0.00100*%
%ADD131R,0.06300X0.00100*%
%ADD132R,0.09400X0.00100*%
%ADD133R,0.05800X0.00100*%
%ADD134R,0.05700X0.00100*%
%ADD135R,0.05400X0.00100*%
%ADD136R,0.08800X0.00100*%
%ADD137R,0.05300X0.00100*%
%ADD138R,0.04900X0.00100*%
%ADD139R,0.08400X0.00100*%
%ADD140R,0.02800X0.00100*%
%ADD141R,0.04700X0.00100*%
%ADD142R,0.03000X0.00100*%
%ADD143R,0.04600X0.00100*%
%ADD144R,0.03300X0.00100*%
%ADD145R,0.07700X0.00100*%
%ADD146R,0.03500X0.00100*%
%ADD147R,0.04200X0.00100*%
%ADD148R,0.07600X0.00100*%
%ADD149R,0.03600X0.00100*%
%ADD150R,0.04100X0.00100*%
%ADD151R,0.07300X0.00100*%
%ADD152R,0.03900X0.00100*%
%ADD153R,0.07100X0.00100*%
%ADD154R,0.03800X0.00100*%
%ADD155R,0.03200X0.00100*%
%ADD156R,0.06700X0.00100*%
%ADD157R,0.02900X0.00100*%
%ADD158R,0.03400X0.00100*%
%ADD159R,0.06400X0.00100*%
%ADD160R,0.03100X0.00100*%
%ADD161R,0.06100X0.00100*%
%ADD162R,0.05500X0.00100*%
%ADD163R,0.02200X0.00100*%
%ADD164R,0.02000X0.00100*%
%ADD165R,0.04300X0.00100*%
%ADD166R,0.03700X0.00100*%
%ADD167R,0.05000X0.00100*%
%ADD168R,0.05600X0.00100*%
%ADD169R,0.04000X0.00100*%
%ADD170R,0.02700X0.00100*%
%ADD171R,0.05900X0.00100*%
%ADD172R,0.06200X0.00100*%
%ADD173R,0.04400X0.00100*%
%ADD174R,0.04800X0.00100*%
%ADD175R,0.06000X0.00100*%
%ADD176R,0.05100X0.00100*%
%ADD177C,0.02200*%
%ADD178C,0.00800*%
%ADD179R,0.03000X0.01800*%
%ADD180R,0.01800X0.03000*%
%ADD181C,0.00500*%
%ADD182C,0.00400*%
%ADD183C,0.00984*%
%ADD184R,0.02657X0.09646*%
D10*
X0070769Y0103979D02*
X0070769Y0105447D01*
X0070035Y0104713D02*
X0071503Y0104713D01*
X0072245Y0105447D02*
X0072612Y0105814D01*
X0073346Y0105814D01*
X0073713Y0105447D01*
X0073713Y0105080D01*
X0073346Y0104713D01*
X0073713Y0104346D01*
X0073713Y0103979D01*
X0073346Y0103612D01*
X0072612Y0103612D01*
X0072245Y0103979D01*
X0072979Y0104713D02*
X0073346Y0104713D01*
X0074455Y0104346D02*
X0075189Y0103612D01*
X0075923Y0104346D01*
X0075923Y0105814D01*
X0076665Y0105447D02*
X0077032Y0105814D01*
X0077766Y0105814D01*
X0078133Y0105447D01*
X0078133Y0105080D01*
X0077766Y0104713D01*
X0078133Y0104346D01*
X0078133Y0103979D01*
X0077766Y0103612D01*
X0077032Y0103612D01*
X0076665Y0103979D01*
X0077399Y0104713D02*
X0077766Y0104713D01*
X0074455Y0104346D02*
X0074455Y0105814D01*
X0082436Y0105388D02*
X0082436Y0103920D01*
X0082803Y0103553D01*
X0083537Y0103553D01*
X0083904Y0103920D01*
X0083904Y0104654D01*
X0083170Y0104654D01*
X0083904Y0105388D02*
X0083537Y0105755D01*
X0082803Y0105755D01*
X0082436Y0105388D01*
X0084645Y0105755D02*
X0084645Y0103553D01*
X0086113Y0103553D02*
X0084645Y0105755D01*
X0086113Y0105755D02*
X0086113Y0103553D01*
X0086855Y0103553D02*
X0087956Y0103553D01*
X0088323Y0103920D01*
X0088323Y0105388D01*
X0087956Y0105755D01*
X0086855Y0105755D01*
X0086855Y0103553D01*
X0091118Y0102625D02*
X0093320Y0102625D01*
X0093320Y0101891D02*
X0093320Y0103359D01*
X0091852Y0101891D02*
X0091118Y0102625D01*
X0091118Y0100415D02*
X0093320Y0100415D01*
X0093320Y0099681D02*
X0093320Y0101149D01*
X0091852Y0099681D02*
X0091118Y0100415D01*
X0091485Y0098939D02*
X0091118Y0098572D01*
X0091118Y0097838D01*
X0091485Y0097471D01*
X0092953Y0097471D01*
X0093320Y0097838D01*
X0093320Y0098572D01*
X0092953Y0098939D01*
X0092219Y0096729D02*
X0092586Y0096362D01*
X0092586Y0095261D01*
X0093320Y0095261D02*
X0091118Y0095261D01*
X0091118Y0096362D01*
X0091485Y0096729D01*
X0092219Y0096729D01*
X0092511Y0092516D02*
X0092878Y0092149D01*
X0092878Y0091048D01*
X0093612Y0091048D02*
X0091410Y0091048D01*
X0091410Y0092149D01*
X0091777Y0092516D01*
X0092511Y0092516D01*
X0092878Y0090306D02*
X0091777Y0090306D01*
X0091410Y0089939D01*
X0091777Y0089572D01*
X0092878Y0089572D01*
X0092878Y0088838D02*
X0091410Y0088838D01*
X0091410Y0089205D01*
X0091777Y0089572D01*
X0091777Y0088096D02*
X0092144Y0088096D01*
X0092144Y0086628D01*
X0091777Y0086628D02*
X0091410Y0086995D01*
X0091410Y0087729D01*
X0091777Y0088096D01*
X0092878Y0087729D02*
X0092878Y0086995D01*
X0092511Y0086628D01*
X0091777Y0086628D01*
X0090676Y0085886D02*
X0090676Y0084418D01*
X0090676Y0085152D02*
X0092878Y0085152D01*
X0105708Y0080565D02*
X0105708Y0078363D01*
X0105708Y0079097D02*
X0106809Y0079097D01*
X0107176Y0079464D01*
X0107176Y0080198D01*
X0106809Y0080565D01*
X0105708Y0080565D01*
X0107917Y0080565D02*
X0109018Y0080565D01*
X0109385Y0080198D01*
X0109385Y0078730D01*
X0109018Y0078363D01*
X0107917Y0078363D01*
X0107917Y0080565D01*
X0110127Y0080198D02*
X0110494Y0080565D01*
X0111228Y0080565D01*
X0111595Y0080198D01*
X0110127Y0078730D01*
X0110494Y0078363D01*
X0111228Y0078363D01*
X0111595Y0078730D01*
X0111595Y0080198D01*
X0110127Y0080198D02*
X0110127Y0078730D01*
X0115524Y0078898D02*
X0116625Y0078898D01*
X0116992Y0079265D01*
X0116992Y0079999D01*
X0116625Y0080366D01*
X0115524Y0080366D01*
X0115524Y0078164D01*
X0117733Y0078164D02*
X0118834Y0078164D01*
X0119201Y0078531D01*
X0119201Y0079999D01*
X0118834Y0080366D01*
X0117733Y0080366D01*
X0117733Y0078164D01*
X0119943Y0078164D02*
X0121411Y0079632D01*
X0121411Y0079999D01*
X0121044Y0080366D01*
X0120310Y0080366D01*
X0119943Y0079999D01*
X0119943Y0078164D02*
X0121411Y0078164D01*
X0123250Y0078550D02*
X0123617Y0078183D01*
X0124351Y0078183D01*
X0124718Y0078550D01*
X0124718Y0078917D01*
X0124351Y0079284D01*
X0123617Y0079284D01*
X0123250Y0079651D01*
X0123250Y0080018D01*
X0123617Y0080385D01*
X0124351Y0080385D01*
X0124718Y0080018D01*
X0125460Y0080385D02*
X0125460Y0078183D01*
X0125460Y0079284D02*
X0125827Y0079651D01*
X0126561Y0079651D01*
X0126928Y0079284D01*
X0126928Y0078183D01*
X0127670Y0078183D02*
X0128404Y0078183D01*
X0128037Y0078183D02*
X0128037Y0079651D01*
X0127670Y0079651D01*
X0128037Y0080385D02*
X0128037Y0080752D01*
X0129510Y0080018D02*
X0129877Y0080385D01*
X0129510Y0080018D02*
X0129510Y0078183D01*
X0129143Y0079284D02*
X0129877Y0079284D01*
X0130616Y0079651D02*
X0131350Y0079651D01*
X0130983Y0080018D02*
X0130983Y0078550D01*
X0131350Y0078183D01*
X0132089Y0078550D02*
X0132456Y0078183D01*
X0133190Y0078183D01*
X0133557Y0078550D01*
X0134299Y0078183D02*
X0135033Y0078183D01*
X0134666Y0078183D02*
X0134666Y0080385D01*
X0134299Y0080385D01*
X0133557Y0080018D02*
X0133190Y0080385D01*
X0132456Y0080385D01*
X0132089Y0080018D01*
X0132089Y0078550D01*
X0135772Y0078183D02*
X0135772Y0080385D01*
X0136873Y0079651D02*
X0135772Y0078917D01*
X0136873Y0078183D01*
X0138353Y0077974D02*
X0139454Y0077974D01*
X0139821Y0077607D01*
X0139454Y0077240D01*
X0139821Y0076873D01*
X0139454Y0076506D01*
X0138353Y0076506D01*
X0137987Y0075765D02*
X0138720Y0075765D01*
X0139087Y0075398D01*
X0139087Y0074297D01*
X0139821Y0074297D02*
X0137620Y0074297D01*
X0137620Y0075398D01*
X0137987Y0075765D01*
X0138353Y0073556D02*
X0138353Y0073189D01*
X0139087Y0072455D01*
X0139821Y0072455D02*
X0138353Y0072455D01*
X0138720Y0071713D02*
X0139821Y0071713D01*
X0139821Y0070612D01*
X0139454Y0070245D01*
X0139087Y0070612D01*
X0139087Y0071713D01*
X0138720Y0071713D02*
X0138353Y0071346D01*
X0138353Y0070612D01*
X0138720Y0069503D02*
X0139821Y0069503D01*
X0138720Y0069503D02*
X0138353Y0069136D01*
X0138353Y0068035D01*
X0139821Y0068035D01*
X0139454Y0067293D02*
X0138720Y0067293D01*
X0138353Y0066926D01*
X0138353Y0066192D01*
X0138720Y0065825D01*
X0139454Y0065825D01*
X0139821Y0066192D01*
X0139821Y0066926D01*
X0139454Y0067293D01*
X0139454Y0065083D02*
X0139821Y0064716D01*
X0139821Y0063982D01*
X0139454Y0063616D01*
X0138720Y0063982D02*
X0138353Y0063616D01*
X0137987Y0063616D01*
X0137620Y0063982D01*
X0137620Y0064716D01*
X0137987Y0065083D01*
X0138720Y0064716D02*
X0139087Y0065083D01*
X0139454Y0065083D01*
X0138720Y0064716D02*
X0138720Y0063982D01*
X0145635Y0068056D02*
X0146002Y0067689D01*
X0147470Y0067689D01*
X0147837Y0068056D01*
X0147837Y0068790D01*
X0147470Y0069157D01*
X0147837Y0069899D02*
X0146369Y0069899D01*
X0145635Y0070633D01*
X0146369Y0071367D01*
X0147837Y0071367D01*
X0147837Y0072109D02*
X0145635Y0072109D01*
X0147837Y0073577D01*
X0145635Y0073577D01*
X0146736Y0071367D02*
X0146736Y0069899D01*
X0146002Y0069157D02*
X0145635Y0068790D01*
X0145635Y0068056D01*
X0148204Y0074319D02*
X0148204Y0075786D01*
X0147837Y0076528D02*
X0145635Y0076528D01*
X0145635Y0077629D01*
X0146002Y0077996D01*
X0146736Y0077996D01*
X0147103Y0077629D01*
X0147103Y0076528D01*
X0147103Y0077262D02*
X0147837Y0077996D01*
X0147837Y0078738D02*
X0145635Y0080206D01*
X0145635Y0078738D02*
X0147837Y0080206D01*
X0139821Y0080184D02*
X0138720Y0080184D01*
X0138353Y0079817D01*
X0138720Y0079450D01*
X0139821Y0079450D01*
X0139821Y0078716D02*
X0138353Y0078716D01*
X0138353Y0079083D01*
X0138720Y0079450D01*
X0161659Y0078946D02*
X0162392Y0079679D01*
X0163860Y0079679D01*
X0163860Y0080421D02*
X0163860Y0081889D01*
X0163860Y0081155D02*
X0161659Y0081155D01*
X0162392Y0080421D01*
X0162759Y0079679D02*
X0162759Y0078212D01*
X0162392Y0078212D02*
X0161659Y0078946D01*
X0162392Y0078212D02*
X0163860Y0078212D01*
X0163493Y0077470D02*
X0162026Y0077470D01*
X0161659Y0077103D01*
X0161659Y0076002D01*
X0163860Y0076002D01*
X0163860Y0077103D01*
X0163493Y0077470D01*
X0163493Y0075260D02*
X0163860Y0074893D01*
X0163860Y0074159D01*
X0163493Y0073792D01*
X0162759Y0074159D02*
X0162759Y0074893D01*
X0163126Y0075260D01*
X0163493Y0075260D01*
X0162759Y0074159D02*
X0162392Y0073792D01*
X0162026Y0073792D01*
X0161659Y0074159D01*
X0161659Y0074893D01*
X0162026Y0075260D01*
X0175940Y0089462D02*
X0175940Y0090930D01*
X0176307Y0091297D01*
X0177041Y0091297D01*
X0177408Y0090930D01*
X0178150Y0090563D02*
X0178884Y0091297D01*
X0179618Y0090563D01*
X0179618Y0089095D01*
X0180360Y0089095D02*
X0180360Y0091297D01*
X0181094Y0090563D01*
X0181828Y0091297D01*
X0181828Y0089095D01*
X0182570Y0088728D02*
X0184037Y0088728D01*
X0184779Y0089095D02*
X0186247Y0090563D01*
X0186247Y0090930D01*
X0185880Y0091297D01*
X0185146Y0091297D01*
X0184779Y0090930D01*
X0184779Y0089095D02*
X0186247Y0089095D01*
X0179618Y0090196D02*
X0178150Y0090196D01*
X0178150Y0090563D02*
X0178150Y0089095D01*
X0177408Y0089462D02*
X0177041Y0089095D01*
X0176307Y0089095D01*
X0175940Y0089462D01*
X0176021Y0095887D02*
X0176388Y0095887D01*
X0176755Y0096254D01*
X0176755Y0096988D01*
X0177122Y0097355D01*
X0177489Y0097355D01*
X0177855Y0096988D01*
X0177855Y0096254D01*
X0177489Y0095887D01*
X0176021Y0095887D02*
X0175654Y0096254D01*
X0175654Y0096988D01*
X0176021Y0097355D01*
X0176021Y0098096D02*
X0177489Y0098096D01*
X0177855Y0098463D01*
X0177855Y0099197D01*
X0177489Y0099564D01*
X0177855Y0100306D02*
X0177855Y0101774D01*
X0177855Y0102516D02*
X0177855Y0103984D01*
X0178588Y0103978D02*
X0178588Y0106180D01*
X0179689Y0106180D01*
X0180056Y0105813D01*
X0180056Y0105079D01*
X0179689Y0104712D01*
X0178588Y0104712D01*
X0177855Y0103250D02*
X0175654Y0103250D01*
X0176388Y0102516D01*
X0175654Y0100306D02*
X0177855Y0100306D01*
X0176021Y0099564D02*
X0175654Y0099197D01*
X0175654Y0098463D01*
X0176021Y0098096D01*
X0180798Y0103978D02*
X0182266Y0103978D01*
X0183008Y0103978D02*
X0184476Y0105446D01*
X0184476Y0105813D01*
X0184109Y0106180D01*
X0183375Y0106180D01*
X0183008Y0105813D01*
X0182266Y0106180D02*
X0180798Y0106180D01*
X0180798Y0103978D01*
X0180798Y0105079D02*
X0181532Y0105079D01*
X0183008Y0103978D02*
X0184476Y0103978D01*
X0200905Y0109287D02*
X0200905Y0110388D01*
X0201272Y0110755D01*
X0202006Y0110755D01*
X0202373Y0110388D01*
X0202373Y0109287D01*
X0203107Y0109287D02*
X0200905Y0109287D01*
X0200905Y0111497D02*
X0203107Y0111497D01*
X0203107Y0112965D01*
X0202740Y0113707D02*
X0203107Y0114074D01*
X0203107Y0114808D01*
X0202740Y0115175D01*
X0202373Y0115175D01*
X0202006Y0114808D01*
X0202006Y0114441D01*
X0202006Y0114808D02*
X0201639Y0115175D01*
X0201272Y0115175D01*
X0200905Y0114808D01*
X0200905Y0114074D01*
X0201272Y0113707D01*
X0200905Y0112965D02*
X0200905Y0111497D01*
X0202006Y0111497D02*
X0202006Y0112231D01*
X0202585Y0118814D02*
X0202585Y0119915D01*
X0202218Y0120282D01*
X0201484Y0120282D01*
X0201117Y0119915D01*
X0201117Y0118814D01*
X0203319Y0118814D01*
X0203319Y0121023D02*
X0201117Y0121023D01*
X0201117Y0122491D01*
X0201117Y0123233D02*
X0202218Y0123233D01*
X0201851Y0123967D01*
X0201851Y0124334D01*
X0202218Y0124701D01*
X0202952Y0124701D01*
X0203319Y0124334D01*
X0203319Y0123600D01*
X0202952Y0123233D01*
X0203319Y0122491D02*
X0203319Y0121023D01*
X0202218Y0121023D02*
X0202218Y0121757D01*
X0201117Y0123233D02*
X0201117Y0124701D01*
X0201552Y0129389D02*
X0201185Y0129756D01*
X0201185Y0130490D01*
X0201552Y0130857D01*
X0202286Y0130857D02*
X0202286Y0130123D01*
X0202286Y0130857D02*
X0203020Y0130857D01*
X0203387Y0130490D01*
X0203387Y0129756D01*
X0203020Y0129389D01*
X0201552Y0129389D01*
X0201185Y0131598D02*
X0203387Y0133066D01*
X0201185Y0133066D01*
X0201185Y0133808D02*
X0201185Y0134909D01*
X0201552Y0135276D01*
X0203020Y0135276D01*
X0203387Y0134909D01*
X0203387Y0133808D01*
X0201185Y0133808D01*
X0201185Y0131598D02*
X0203387Y0131598D01*
X0202740Y0138525D02*
X0201272Y0138525D01*
X0200905Y0138892D01*
X0200905Y0139626D01*
X0201272Y0139993D01*
X0202006Y0139993D02*
X0202006Y0139259D01*
X0202006Y0139993D02*
X0202740Y0139993D01*
X0203107Y0139626D01*
X0203107Y0138892D01*
X0202740Y0138525D01*
X0203107Y0140735D02*
X0200905Y0140735D01*
X0203107Y0142203D01*
X0200905Y0142203D01*
X0200905Y0142945D02*
X0200905Y0144046D01*
X0201272Y0144413D01*
X0202740Y0144413D01*
X0203107Y0144046D01*
X0203107Y0142945D01*
X0200905Y0142945D01*
X0201272Y0148221D02*
X0202740Y0148221D01*
X0203107Y0148588D01*
X0203107Y0149322D01*
X0202740Y0149689D01*
X0202006Y0149689D01*
X0202006Y0148955D01*
X0201272Y0149689D02*
X0200905Y0149322D01*
X0200905Y0148588D01*
X0201272Y0148221D01*
X0200905Y0150430D02*
X0203107Y0151898D01*
X0200905Y0151898D01*
X0200905Y0152640D02*
X0200905Y0153741D01*
X0201272Y0154108D01*
X0202740Y0154108D01*
X0203107Y0153741D01*
X0203107Y0152640D01*
X0200905Y0152640D01*
X0200905Y0150430D02*
X0203107Y0150430D01*
X0202833Y0157563D02*
X0200631Y0157563D01*
X0200631Y0158664D01*
X0200998Y0159031D01*
X0201732Y0159031D01*
X0202099Y0158664D01*
X0202099Y0157563D01*
X0202466Y0159773D02*
X0202833Y0160140D01*
X0202833Y0160874D01*
X0202466Y0161241D01*
X0202833Y0161983D02*
X0202833Y0163451D01*
X0202833Y0162717D02*
X0200631Y0162717D01*
X0201365Y0161983D01*
X0200998Y0161241D02*
X0200631Y0160874D01*
X0200631Y0160140D01*
X0200998Y0159773D01*
X0202466Y0159773D01*
X0201732Y0164193D02*
X0200631Y0165294D01*
X0202833Y0165294D01*
X0201732Y0165661D02*
X0201732Y0164193D01*
X0202035Y0167640D02*
X0200567Y0167640D01*
X0200200Y0168007D01*
X0200200Y0168741D01*
X0200567Y0169108D01*
X0202035Y0169108D01*
X0202402Y0168741D01*
X0202402Y0168007D01*
X0202035Y0167640D01*
X0202035Y0169850D02*
X0202402Y0170217D01*
X0202402Y0170951D01*
X0202035Y0171318D01*
X0201668Y0171318D01*
X0201301Y0170951D01*
X0201301Y0170217D01*
X0200934Y0169850D01*
X0200567Y0169850D01*
X0200200Y0170217D01*
X0200200Y0170951D01*
X0200567Y0171318D01*
X0200567Y0172060D02*
X0202035Y0172060D01*
X0202402Y0172427D01*
X0202402Y0173161D01*
X0202035Y0173528D01*
X0202769Y0174270D02*
X0202769Y0175738D01*
X0202402Y0176480D02*
X0202402Y0177213D01*
X0202402Y0176847D02*
X0200200Y0176847D01*
X0200200Y0177213D02*
X0200200Y0176480D01*
X0200934Y0177953D02*
X0200934Y0179054D01*
X0201301Y0179421D01*
X0202402Y0179421D01*
X0202402Y0177953D02*
X0200934Y0177953D01*
X0200567Y0173528D02*
X0200200Y0173161D01*
X0200200Y0172427D01*
X0200567Y0172060D01*
X0174298Y0171867D02*
X0174298Y0173335D01*
X0174298Y0172601D02*
X0172096Y0172601D01*
X0172830Y0171867D01*
X0172463Y0171125D02*
X0172096Y0170758D01*
X0172096Y0170024D01*
X0172463Y0169657D01*
X0173931Y0169657D01*
X0174298Y0170024D01*
X0174298Y0170758D01*
X0173931Y0171125D01*
X0173197Y0168915D02*
X0173564Y0168548D01*
X0173564Y0167447D01*
X0174298Y0167447D02*
X0172096Y0167447D01*
X0172096Y0168548D01*
X0172463Y0168915D01*
X0173197Y0168915D01*
X0173360Y0165778D02*
X0173727Y0165778D01*
X0174094Y0165411D01*
X0174094Y0164677D01*
X0173727Y0164310D01*
X0174094Y0163568D02*
X0174094Y0162100D01*
X0174094Y0162834D02*
X0171893Y0162834D01*
X0172626Y0162100D01*
X0172260Y0161358D02*
X0171893Y0160991D01*
X0171893Y0160257D01*
X0172260Y0159890D01*
X0173727Y0159890D01*
X0174094Y0160257D01*
X0174094Y0160991D01*
X0173727Y0161358D01*
X0172993Y0159149D02*
X0173360Y0158782D01*
X0173360Y0157681D01*
X0174094Y0157681D02*
X0171893Y0157681D01*
X0171893Y0158782D01*
X0172260Y0159149D01*
X0172993Y0159149D01*
X0173252Y0155980D02*
X0173619Y0155980D01*
X0173986Y0155613D01*
X0173986Y0154879D01*
X0173619Y0154512D01*
X0173252Y0153770D02*
X0171784Y0153770D01*
X0172151Y0154512D02*
X0171784Y0154879D01*
X0171784Y0155613D01*
X0172151Y0155980D01*
X0172518Y0155980D01*
X0172885Y0155613D01*
X0173252Y0155980D01*
X0172885Y0155613D02*
X0172885Y0155246D01*
X0173252Y0153770D02*
X0173986Y0153036D01*
X0173252Y0152302D01*
X0171784Y0152302D01*
X0172151Y0151560D02*
X0171784Y0151193D01*
X0171784Y0150459D01*
X0172151Y0150092D01*
X0172885Y0150826D02*
X0172885Y0151193D01*
X0173252Y0151560D01*
X0173619Y0151560D01*
X0173986Y0151193D01*
X0173986Y0150459D01*
X0173619Y0150092D01*
X0172885Y0149350D02*
X0172885Y0147883D01*
X0172151Y0148616D02*
X0173619Y0148616D01*
X0172885Y0151193D02*
X0172518Y0151560D01*
X0172151Y0151560D01*
X0172001Y0145456D02*
X0172368Y0145456D01*
X0172735Y0145089D01*
X0173102Y0145456D01*
X0173469Y0145456D01*
X0173836Y0145089D01*
X0173836Y0144355D01*
X0173469Y0143988D01*
X0173102Y0143246D02*
X0171634Y0143246D01*
X0172001Y0143988D02*
X0171634Y0144355D01*
X0171634Y0145089D01*
X0172001Y0145456D01*
X0172735Y0145089D02*
X0172735Y0144722D01*
X0173102Y0143246D02*
X0173836Y0142512D01*
X0173102Y0141778D01*
X0171634Y0141778D01*
X0172001Y0141036D02*
X0171634Y0140669D01*
X0171634Y0139935D01*
X0172001Y0139568D01*
X0172735Y0140302D02*
X0172735Y0140669D01*
X0173102Y0141036D01*
X0173469Y0141036D01*
X0173836Y0140669D01*
X0173836Y0139935D01*
X0173469Y0139568D01*
X0172735Y0138826D02*
X0172735Y0137358D01*
X0172001Y0138092D02*
X0173469Y0138092D01*
X0172735Y0140669D02*
X0172368Y0141036D01*
X0172001Y0141036D01*
X0171775Y0134771D02*
X0172142Y0134037D01*
X0172876Y0133303D01*
X0172876Y0134404D01*
X0173243Y0134771D01*
X0173610Y0134771D01*
X0173977Y0134404D01*
X0173977Y0133670D01*
X0173610Y0133303D01*
X0172876Y0133303D01*
X0173977Y0132561D02*
X0173977Y0131093D01*
X0171775Y0131093D01*
X0171775Y0132561D01*
X0172876Y0131827D02*
X0172876Y0131093D01*
X0172876Y0130351D02*
X0173243Y0129984D01*
X0173243Y0128883D01*
X0173977Y0128883D02*
X0171775Y0128883D01*
X0171775Y0129984D01*
X0172142Y0130351D01*
X0172876Y0130351D01*
X0172553Y0125328D02*
X0172553Y0123860D01*
X0171452Y0124961D01*
X0173654Y0124961D01*
X0173654Y0123118D02*
X0173654Y0121650D01*
X0171452Y0121650D01*
X0171452Y0123118D01*
X0172553Y0122384D02*
X0172553Y0121650D01*
X0172553Y0120909D02*
X0172920Y0120542D01*
X0172920Y0119441D01*
X0173654Y0119441D02*
X0171452Y0119441D01*
X0171452Y0120542D01*
X0171819Y0120909D01*
X0172553Y0120909D01*
X0164302Y0112220D02*
X0162834Y0110018D01*
X0164302Y0110018D02*
X0162834Y0112220D01*
X0162093Y0112220D02*
X0160625Y0112220D01*
X0161359Y0112220D02*
X0161359Y0110018D01*
X0159883Y0109651D02*
X0158415Y0109651D01*
X0157673Y0110018D02*
X0157673Y0112220D01*
X0156205Y0112220D02*
X0156205Y0110018D01*
X0155463Y0110018D02*
X0155463Y0111486D01*
X0154729Y0112220D01*
X0153995Y0111486D01*
X0153995Y0110018D01*
X0153253Y0110385D02*
X0152886Y0110018D01*
X0152152Y0110018D01*
X0151785Y0110385D01*
X0151785Y0111853D01*
X0152152Y0112220D01*
X0152886Y0112220D01*
X0153253Y0111853D01*
X0153995Y0111119D02*
X0155463Y0111119D01*
X0156205Y0112220D02*
X0157673Y0110018D01*
X0153395Y0109105D02*
X0153395Y0106903D01*
X0151927Y0106903D02*
X0151927Y0109105D01*
X0152661Y0108371D01*
X0153395Y0109105D01*
X0151185Y0106536D02*
X0149717Y0106536D01*
X0148975Y0106903D02*
X0148975Y0108004D01*
X0148608Y0108371D01*
X0148241Y0108004D01*
X0148241Y0106903D01*
X0147507Y0106903D02*
X0147507Y0108371D01*
X0147874Y0108371D01*
X0148241Y0108004D01*
X0146765Y0108004D02*
X0146765Y0106903D01*
X0145664Y0106903D01*
X0145297Y0107270D01*
X0145664Y0107637D01*
X0146765Y0107637D01*
X0146765Y0108004D02*
X0146398Y0108371D01*
X0145664Y0108371D01*
X0144555Y0108738D02*
X0144188Y0109105D01*
X0143454Y0109105D01*
X0143087Y0108738D01*
X0143087Y0107270D01*
X0143454Y0106903D01*
X0144188Y0106903D01*
X0144555Y0107270D01*
X0144188Y0110205D02*
X0143821Y0110571D01*
X0144188Y0110938D01*
X0145289Y0110938D01*
X0145289Y0111305D02*
X0145289Y0110205D01*
X0144188Y0110205D01*
X0143079Y0110571D02*
X0142712Y0110205D01*
X0141612Y0110205D01*
X0141612Y0112406D01*
X0142712Y0112406D01*
X0143079Y0112039D01*
X0143079Y0110571D01*
X0144188Y0111672D02*
X0144922Y0111672D01*
X0145289Y0111305D01*
X0146031Y0111672D02*
X0146765Y0111672D01*
X0146398Y0112039D02*
X0146398Y0110571D01*
X0146765Y0110205D01*
X0140872Y0110205D02*
X0140505Y0110571D01*
X0140505Y0112039D01*
X0140138Y0111672D02*
X0140872Y0111672D01*
X0139399Y0111305D02*
X0138665Y0111305D01*
X0139032Y0112039D02*
X0139399Y0112406D01*
X0139032Y0112039D02*
X0139032Y0110205D01*
X0137926Y0110205D02*
X0137192Y0110205D01*
X0137559Y0110205D02*
X0137559Y0111672D01*
X0137192Y0111672D01*
X0137559Y0112406D02*
X0137559Y0112773D01*
X0136450Y0111305D02*
X0136450Y0110205D01*
X0136450Y0111305D02*
X0136083Y0111672D01*
X0135349Y0111672D01*
X0134982Y0111305D01*
X0134240Y0110938D02*
X0134240Y0110571D01*
X0133873Y0110205D01*
X0133139Y0110205D01*
X0132772Y0110571D01*
X0133139Y0111305D02*
X0133873Y0111305D01*
X0134240Y0110938D01*
X0134982Y0110205D02*
X0134982Y0112406D01*
X0134240Y0112039D02*
X0133873Y0112406D01*
X0133139Y0112406D01*
X0132772Y0112039D01*
X0132772Y0111672D01*
X0133139Y0111305D01*
X0133014Y0108811D02*
X0133014Y0106609D01*
X0134482Y0106609D01*
X0135224Y0106609D02*
X0135224Y0108077D01*
X0136325Y0108077D01*
X0136692Y0107710D01*
X0136692Y0106609D01*
X0134482Y0108811D02*
X0133014Y0108811D01*
X0132275Y0108077D02*
X0131541Y0108077D01*
X0131908Y0108444D02*
X0131908Y0106976D01*
X0132275Y0106609D01*
X0133014Y0107710D02*
X0133748Y0107710D01*
X0130802Y0107710D02*
X0130068Y0107710D01*
X0130435Y0108444D02*
X0130435Y0106609D01*
X0129328Y0106609D02*
X0128594Y0106609D01*
X0128961Y0106609D02*
X0128961Y0108077D01*
X0128594Y0108077D01*
X0128961Y0108811D02*
X0128961Y0109178D01*
X0130435Y0108444D02*
X0130802Y0108811D01*
X0127852Y0107710D02*
X0127852Y0106609D01*
X0127852Y0107710D02*
X0127486Y0108077D01*
X0126752Y0108077D01*
X0126385Y0107710D01*
X0125643Y0107343D02*
X0125276Y0107710D01*
X0124542Y0107710D01*
X0124175Y0108077D01*
X0124175Y0108444D01*
X0124542Y0108811D01*
X0125276Y0108811D01*
X0125643Y0108444D01*
X0126385Y0108811D02*
X0126385Y0106609D01*
X0125643Y0106976D02*
X0125276Y0106609D01*
X0124542Y0106609D01*
X0124175Y0106976D01*
X0125643Y0106976D02*
X0125643Y0107343D01*
X0122469Y0106609D02*
X0121001Y0106609D01*
X0121735Y0106609D02*
X0121735Y0108811D01*
X0121001Y0108077D01*
X0120259Y0108444D02*
X0120259Y0106976D01*
X0119892Y0106609D01*
X0118791Y0106609D01*
X0118791Y0108811D01*
X0119892Y0108811D01*
X0120259Y0108444D01*
X0118049Y0108444D02*
X0118049Y0107710D01*
X0117682Y0107343D01*
X0116581Y0107343D01*
X0116581Y0106609D02*
X0116581Y0108811D01*
X0117682Y0108811D01*
X0118049Y0108444D01*
X0114155Y0108507D02*
X0113788Y0108874D01*
X0113054Y0108874D01*
X0112687Y0108507D01*
X0114155Y0108507D02*
X0114155Y0108140D01*
X0112687Y0106672D01*
X0114155Y0106672D01*
X0111945Y0106672D02*
X0110477Y0106672D01*
X0111211Y0106672D02*
X0111211Y0108874D01*
X0110477Y0108140D01*
X0109735Y0108507D02*
X0109368Y0108874D01*
X0108634Y0108874D01*
X0108267Y0108507D01*
X0108267Y0107039D01*
X0108634Y0106672D01*
X0109368Y0106672D01*
X0109735Y0107039D01*
X0107525Y0107773D02*
X0107158Y0107406D01*
X0106057Y0107406D01*
X0106057Y0106672D02*
X0106057Y0108874D01*
X0107158Y0108874D01*
X0107525Y0108507D01*
X0107525Y0107773D01*
X0099897Y0113503D02*
X0099530Y0113136D01*
X0098796Y0113136D01*
X0098429Y0113503D01*
X0098796Y0114237D02*
X0099897Y0114237D01*
X0099897Y0113503D02*
X0099897Y0114971D01*
X0099530Y0115338D01*
X0098796Y0115338D01*
X0098429Y0114971D01*
X0098429Y0114604D01*
X0098796Y0114237D01*
X0097687Y0114237D02*
X0096219Y0114237D01*
X0096219Y0114604D02*
X0096953Y0115338D01*
X0097687Y0114604D01*
X0097687Y0113136D01*
X0096219Y0113136D02*
X0096219Y0114604D01*
X0095478Y0114237D02*
X0095111Y0113870D01*
X0094010Y0113870D01*
X0094010Y0113136D02*
X0094010Y0115338D01*
X0095111Y0115338D01*
X0095478Y0114971D01*
X0095478Y0114237D01*
X0095298Y0132428D02*
X0095665Y0132795D01*
X0095665Y0133529D01*
X0095298Y0133896D01*
X0094931Y0133896D01*
X0094564Y0133529D01*
X0094564Y0132795D01*
X0094197Y0132428D01*
X0093830Y0132428D01*
X0093463Y0132795D01*
X0093463Y0133529D01*
X0093830Y0133896D01*
X0093463Y0134638D02*
X0093463Y0135739D01*
X0093830Y0136105D01*
X0095298Y0136105D01*
X0095665Y0135739D01*
X0095665Y0134638D01*
X0093463Y0134638D01*
X0094197Y0136847D02*
X0093463Y0137581D01*
X0094197Y0138315D01*
X0095665Y0138315D01*
X0095665Y0139057D02*
X0094197Y0140525D01*
X0093830Y0140525D01*
X0093463Y0140158D01*
X0093463Y0139424D01*
X0093830Y0139057D01*
X0094564Y0138315D02*
X0094564Y0136847D01*
X0094197Y0136847D02*
X0095665Y0136847D01*
X0095665Y0139057D02*
X0095665Y0140525D01*
X0096560Y0141415D02*
X0096560Y0142883D01*
X0096927Y0143250D01*
X0097661Y0143250D01*
X0098028Y0142883D01*
X0098770Y0143250D02*
X0100237Y0143250D01*
X0100237Y0142883D01*
X0098770Y0141415D01*
X0098770Y0141048D01*
X0098028Y0141415D02*
X0097661Y0141048D01*
X0096927Y0141048D01*
X0096560Y0141415D01*
X0095818Y0142149D02*
X0095451Y0141782D01*
X0094350Y0141782D01*
X0094350Y0141048D02*
X0094350Y0143250D01*
X0095451Y0143250D01*
X0095818Y0142883D01*
X0095818Y0142149D01*
X0095737Y0148226D02*
X0095737Y0149327D01*
X0095370Y0149694D01*
X0094636Y0149694D01*
X0094269Y0149327D01*
X0094269Y0148226D01*
X0096471Y0148226D01*
X0096471Y0150436D02*
X0096471Y0151537D01*
X0096104Y0151904D01*
X0094636Y0151904D01*
X0094269Y0151537D01*
X0094269Y0150436D01*
X0096471Y0150436D01*
X0096471Y0152646D02*
X0096471Y0154114D01*
X0096471Y0153380D02*
X0094269Y0153380D01*
X0095003Y0152646D01*
X0095370Y0154856D02*
X0095003Y0155590D01*
X0095003Y0155957D01*
X0095370Y0156324D01*
X0096104Y0156324D01*
X0096471Y0155957D01*
X0096471Y0155223D01*
X0096104Y0154856D01*
X0095370Y0154856D02*
X0094269Y0154856D01*
X0094269Y0156324D01*
X0094113Y0157955D02*
X0094113Y0159056D01*
X0094480Y0159423D01*
X0095214Y0159423D01*
X0095581Y0159056D01*
X0095581Y0157955D01*
X0096315Y0157955D02*
X0094113Y0157955D01*
X0094113Y0160165D02*
X0094113Y0161266D01*
X0094480Y0161633D01*
X0095948Y0161633D01*
X0096315Y0161266D01*
X0096315Y0160165D01*
X0094113Y0160165D01*
X0094847Y0162375D02*
X0094113Y0163109D01*
X0096315Y0163109D01*
X0096315Y0162375D02*
X0096315Y0163843D01*
X0095948Y0164585D02*
X0096315Y0164952D01*
X0096315Y0165686D01*
X0095948Y0166053D01*
X0095581Y0166053D01*
X0095214Y0165686D01*
X0095214Y0165319D01*
X0095214Y0165686D02*
X0094847Y0166053D01*
X0094480Y0166053D01*
X0094113Y0165686D01*
X0094113Y0164952D01*
X0094480Y0164585D01*
X0093424Y0172025D02*
X0093424Y0174227D01*
X0094525Y0174227D01*
X0094892Y0173860D01*
X0094892Y0173126D01*
X0094525Y0172759D01*
X0093424Y0172759D01*
X0095634Y0172025D02*
X0096735Y0172025D01*
X0097102Y0172392D01*
X0097102Y0173860D01*
X0096735Y0174227D01*
X0095634Y0174227D01*
X0095634Y0172025D01*
X0097844Y0172025D02*
X0099312Y0172025D01*
X0098578Y0172025D02*
X0098578Y0174227D01*
X0097844Y0173493D01*
X0100054Y0173493D02*
X0100788Y0174227D01*
X0100788Y0172025D01*
X0100054Y0172025D02*
X0101522Y0172025D01*
X0099237Y0182909D02*
X0098503Y0182909D01*
X0098136Y0183276D01*
X0098136Y0183643D01*
X0098503Y0184010D01*
X0099237Y0184010D01*
X0099604Y0183643D01*
X0099604Y0183276D01*
X0099237Y0182909D01*
X0099237Y0184010D02*
X0099604Y0184377D01*
X0099604Y0184744D01*
X0099237Y0185111D01*
X0098503Y0185111D01*
X0098136Y0184744D01*
X0098136Y0184377D01*
X0098503Y0184010D01*
X0097394Y0183276D02*
X0097028Y0182909D01*
X0095927Y0182909D01*
X0095927Y0185111D01*
X0097028Y0185111D01*
X0097394Y0184744D01*
X0097394Y0183276D01*
X0095185Y0184010D02*
X0094818Y0183643D01*
X0093717Y0183643D01*
X0093717Y0182909D02*
X0093717Y0185111D01*
X0094818Y0185111D01*
X0095185Y0184744D01*
X0095185Y0184010D01*
X0067780Y0183346D02*
X0067780Y0182245D01*
X0065578Y0182245D01*
X0065578Y0183346D01*
X0065945Y0183713D01*
X0067413Y0183713D01*
X0067780Y0183346D01*
X0067413Y0184455D02*
X0067780Y0184822D01*
X0067780Y0185556D01*
X0067413Y0185923D01*
X0065945Y0185923D01*
X0065578Y0185556D01*
X0065578Y0184822D01*
X0065945Y0184455D01*
X0066312Y0184455D01*
X0066679Y0184822D01*
X0066679Y0185923D01*
X0066679Y0181503D02*
X0065945Y0181503D01*
X0065578Y0181136D01*
X0065578Y0180035D01*
X0067780Y0180035D01*
X0067046Y0180035D02*
X0067046Y0181136D01*
X0066679Y0181503D01*
X0066263Y0176729D02*
X0065896Y0176729D01*
X0065529Y0176362D01*
X0065529Y0175629D01*
X0065896Y0175262D01*
X0066263Y0176729D02*
X0067731Y0175262D01*
X0067731Y0176729D01*
X0067731Y0174520D02*
X0067731Y0173052D01*
X0067731Y0173786D02*
X0065529Y0173786D01*
X0066263Y0173052D01*
X0065896Y0172310D02*
X0065529Y0171943D01*
X0065529Y0170842D01*
X0067731Y0170842D01*
X0067731Y0171943D01*
X0067364Y0172310D01*
X0065896Y0172310D01*
X0065896Y0170100D02*
X0066630Y0170100D01*
X0066997Y0169733D01*
X0066997Y0168632D01*
X0067731Y0168632D02*
X0065529Y0168632D01*
X0065529Y0169733D01*
X0065896Y0170100D01*
X0066824Y0166136D02*
X0066824Y0164668D01*
X0065724Y0165769D01*
X0067925Y0165769D01*
X0067925Y0163926D02*
X0067925Y0162458D01*
X0067925Y0163192D02*
X0065724Y0163192D01*
X0066457Y0162458D01*
X0066091Y0161716D02*
X0067558Y0161716D01*
X0067925Y0161349D01*
X0067925Y0160248D01*
X0065724Y0160248D01*
X0065724Y0161349D01*
X0066091Y0161716D01*
X0066091Y0159506D02*
X0066824Y0159506D01*
X0067191Y0159139D01*
X0067191Y0158038D01*
X0067925Y0158038D02*
X0065724Y0158038D01*
X0065724Y0159139D01*
X0066091Y0159506D01*
X0065456Y0155379D02*
X0065823Y0154645D01*
X0066557Y0153911D01*
X0066557Y0155012D01*
X0066924Y0155379D01*
X0067291Y0155379D01*
X0067658Y0155012D01*
X0067658Y0154278D01*
X0067291Y0153911D01*
X0066557Y0153911D01*
X0065823Y0153169D02*
X0065456Y0152802D01*
X0065456Y0152068D01*
X0065823Y0151701D01*
X0067291Y0151701D01*
X0067658Y0152068D01*
X0067658Y0152802D01*
X0067291Y0153169D01*
X0066557Y0150959D02*
X0065823Y0150959D01*
X0065456Y0150592D01*
X0065456Y0149491D01*
X0067658Y0149491D01*
X0066924Y0149491D02*
X0066924Y0150592D01*
X0066557Y0150959D01*
X0066531Y0145115D02*
X0066164Y0144748D01*
X0066164Y0144014D01*
X0065797Y0143647D01*
X0065430Y0143647D01*
X0065063Y0144014D01*
X0065063Y0144748D01*
X0065430Y0145115D01*
X0065797Y0145115D01*
X0066164Y0144748D01*
X0066531Y0145115D02*
X0066898Y0145115D01*
X0067265Y0144748D01*
X0067265Y0144014D01*
X0066898Y0143647D01*
X0066531Y0143647D01*
X0066164Y0144014D01*
X0066898Y0142905D02*
X0067265Y0142538D01*
X0067265Y0141804D01*
X0066898Y0141437D01*
X0065430Y0141437D01*
X0065063Y0141804D01*
X0065063Y0142538D01*
X0065430Y0142905D01*
X0065430Y0140695D02*
X0066164Y0140695D01*
X0066531Y0140328D01*
X0066531Y0139227D01*
X0067265Y0139227D02*
X0065063Y0139227D01*
X0065063Y0140328D01*
X0065430Y0140695D01*
X0065620Y0136559D02*
X0065253Y0136192D01*
X0065253Y0135458D01*
X0065620Y0135091D01*
X0065620Y0136559D02*
X0065987Y0136559D01*
X0067455Y0135091D01*
X0067455Y0136559D01*
X0067455Y0134349D02*
X0067455Y0132882D01*
X0065253Y0132882D01*
X0065620Y0132140D02*
X0065253Y0131773D01*
X0065253Y0131039D01*
X0065620Y0130672D01*
X0067088Y0130672D01*
X0067455Y0131039D01*
X0067455Y0131773D01*
X0067088Y0132140D01*
X0067088Y0129930D02*
X0067455Y0129563D01*
X0067455Y0128829D01*
X0067088Y0128462D01*
X0066354Y0128829D02*
X0066354Y0129563D01*
X0066721Y0129930D01*
X0067088Y0129930D01*
X0066354Y0128829D02*
X0065987Y0128462D01*
X0065620Y0128462D01*
X0065253Y0128829D01*
X0065253Y0129563D01*
X0065620Y0129930D01*
X0060703Y0127258D02*
X0060703Y0125790D01*
X0060703Y0126524D02*
X0058501Y0126524D01*
X0059235Y0125790D01*
X0060703Y0125048D02*
X0060703Y0123580D01*
X0060703Y0124314D02*
X0058501Y0124314D01*
X0059235Y0123580D01*
X0059235Y0122838D02*
X0060703Y0122838D01*
X0059602Y0122838D02*
X0059602Y0121370D01*
X0059235Y0121370D02*
X0058501Y0122104D01*
X0059235Y0122838D01*
X0059235Y0121370D02*
X0060703Y0121370D01*
X0059602Y0120628D02*
X0059969Y0120261D01*
X0059969Y0119160D01*
X0060703Y0119160D02*
X0058501Y0119160D01*
X0058501Y0120261D01*
X0058868Y0120628D01*
X0059602Y0120628D01*
X0171893Y0164677D02*
X0171893Y0165411D01*
X0172260Y0165778D01*
X0172626Y0165778D01*
X0172993Y0165411D01*
X0173360Y0165778D01*
X0172993Y0165411D02*
X0172993Y0165044D01*
X0172260Y0164310D02*
X0171893Y0164677D01*
X0172096Y0174077D02*
X0173197Y0174077D01*
X0172830Y0174811D01*
X0172830Y0175178D01*
X0173197Y0175545D01*
X0173931Y0175545D01*
X0174298Y0175178D01*
X0174298Y0174444D01*
X0173931Y0174077D01*
X0172096Y0174077D02*
X0172096Y0175545D01*
X0172096Y0178873D02*
X0172096Y0179974D01*
X0172463Y0180341D01*
X0173197Y0180341D01*
X0173564Y0179974D01*
X0173564Y0178873D01*
X0174298Y0178873D02*
X0172096Y0178873D01*
X0172096Y0181083D02*
X0174298Y0181083D01*
X0173197Y0181083D02*
X0173197Y0182551D01*
X0172830Y0183293D02*
X0172096Y0184027D01*
X0174298Y0184027D01*
X0174298Y0183293D02*
X0174298Y0184761D01*
X0174298Y0182551D02*
X0172096Y0182551D01*
D11*
X0158502Y0108155D02*
X0158502Y0105627D01*
X0158444Y0105627D01*
X0139020Y0106507D02*
X0139020Y0109258D01*
X0051342Y0285529D02*
X0043468Y0285529D01*
X0019846Y0285529D01*
X0011972Y0285529D01*
D12*
X0019532Y0216040D02*
X0025937Y0216040D01*
X0019532Y0211769D01*
X0025937Y0211769D01*
X0025937Y0209594D02*
X0025937Y0206391D01*
X0024870Y0205324D01*
X0022735Y0205324D01*
X0021667Y0206391D01*
X0021667Y0209594D01*
X0019532Y0209594D02*
X0025937Y0209594D01*
X0021667Y0207459D02*
X0019532Y0205324D01*
X0020600Y0203149D02*
X0019532Y0202081D01*
X0019532Y0199946D01*
X0020600Y0198878D01*
X0021667Y0198878D01*
X0022735Y0199946D01*
X0022735Y0202081D01*
X0023802Y0203149D01*
X0024870Y0203149D01*
X0025937Y0202081D01*
X0025937Y0199946D01*
X0024870Y0198878D01*
X0025937Y0196703D02*
X0025937Y0192433D01*
X0025937Y0194568D02*
X0019532Y0194568D01*
X0019551Y0177634D02*
X0019551Y0174431D01*
X0020618Y0173363D01*
X0021686Y0173363D01*
X0022754Y0174431D01*
X0022754Y0177634D01*
X0025956Y0177634D02*
X0025956Y0174431D01*
X0024889Y0173363D01*
X0023821Y0173363D01*
X0022754Y0174431D01*
X0019551Y0177634D02*
X0025956Y0177634D01*
X0024889Y0171188D02*
X0020618Y0171188D01*
X0019551Y0170121D01*
X0019551Y0167985D01*
X0020618Y0166918D01*
X0024889Y0166918D01*
X0025956Y0167985D01*
X0025956Y0170121D01*
X0024889Y0171188D01*
X0024889Y0164743D02*
X0020618Y0164743D01*
X0019551Y0163675D01*
X0019551Y0161540D01*
X0020618Y0160472D01*
X0024889Y0160472D01*
X0025956Y0161540D01*
X0025956Y0163675D01*
X0024889Y0164743D01*
X0025956Y0158297D02*
X0025956Y0154027D01*
X0025956Y0156162D02*
X0019551Y0156162D01*
X0031683Y0106744D02*
X0043083Y0106744D01*
X0043083Y0103744D01*
X0031683Y0103744D01*
X0031683Y0106744D01*
X0068893Y0109436D02*
X0068893Y0184436D01*
X0068895Y0184534D01*
X0068901Y0184632D01*
X0068910Y0184730D01*
X0068924Y0184827D01*
X0068941Y0184924D01*
X0068962Y0185020D01*
X0068987Y0185115D01*
X0069015Y0185209D01*
X0069048Y0185301D01*
X0069083Y0185393D01*
X0069123Y0185483D01*
X0069165Y0185571D01*
X0069212Y0185658D01*
X0069261Y0185742D01*
X0069314Y0185825D01*
X0069370Y0185905D01*
X0069430Y0185984D01*
X0069492Y0186060D01*
X0069557Y0186133D01*
X0069625Y0186204D01*
X0069696Y0186272D01*
X0069769Y0186337D01*
X0069845Y0186399D01*
X0069924Y0186459D01*
X0070004Y0186515D01*
X0070087Y0186568D01*
X0070171Y0186617D01*
X0070258Y0186664D01*
X0070346Y0186706D01*
X0070436Y0186746D01*
X0070528Y0186781D01*
X0070620Y0186814D01*
X0070714Y0186842D01*
X0070809Y0186867D01*
X0070905Y0186888D01*
X0071002Y0186905D01*
X0071099Y0186919D01*
X0071197Y0186928D01*
X0071295Y0186934D01*
X0071393Y0186936D01*
X0090393Y0186936D01*
X0090491Y0186934D01*
X0090589Y0186928D01*
X0090687Y0186919D01*
X0090784Y0186905D01*
X0090881Y0186888D01*
X0090977Y0186867D01*
X0091072Y0186842D01*
X0091166Y0186814D01*
X0091258Y0186781D01*
X0091350Y0186746D01*
X0091440Y0186706D01*
X0091528Y0186664D01*
X0091615Y0186617D01*
X0091699Y0186568D01*
X0091782Y0186515D01*
X0091862Y0186459D01*
X0091941Y0186399D01*
X0092017Y0186337D01*
X0092090Y0186272D01*
X0092161Y0186204D01*
X0092229Y0186133D01*
X0092294Y0186060D01*
X0092356Y0185984D01*
X0092416Y0185905D01*
X0092472Y0185825D01*
X0092525Y0185742D01*
X0092574Y0185658D01*
X0092621Y0185571D01*
X0092663Y0185483D01*
X0092703Y0185393D01*
X0092738Y0185301D01*
X0092771Y0185209D01*
X0092799Y0185115D01*
X0092824Y0185020D01*
X0092845Y0184924D01*
X0092862Y0184827D01*
X0092876Y0184730D01*
X0092885Y0184632D01*
X0092891Y0184534D01*
X0092893Y0184436D01*
X0092893Y0109436D01*
X0092891Y0109338D01*
X0092885Y0109240D01*
X0092876Y0109142D01*
X0092862Y0109045D01*
X0092845Y0108948D01*
X0092824Y0108852D01*
X0092799Y0108757D01*
X0092771Y0108663D01*
X0092738Y0108571D01*
X0092703Y0108479D01*
X0092663Y0108389D01*
X0092621Y0108301D01*
X0092574Y0108214D01*
X0092525Y0108130D01*
X0092472Y0108047D01*
X0092416Y0107967D01*
X0092356Y0107888D01*
X0092294Y0107812D01*
X0092229Y0107739D01*
X0092161Y0107668D01*
X0092090Y0107600D01*
X0092017Y0107535D01*
X0091941Y0107473D01*
X0091862Y0107413D01*
X0091782Y0107357D01*
X0091699Y0107304D01*
X0091615Y0107255D01*
X0091528Y0107208D01*
X0091440Y0107166D01*
X0091350Y0107126D01*
X0091258Y0107091D01*
X0091166Y0107058D01*
X0091072Y0107030D01*
X0090977Y0107005D01*
X0090881Y0106984D01*
X0090784Y0106967D01*
X0090687Y0106953D01*
X0090589Y0106944D01*
X0090491Y0106938D01*
X0090393Y0106936D01*
X0071393Y0106936D01*
X0071295Y0106938D01*
X0071197Y0106944D01*
X0071099Y0106953D01*
X0071002Y0106967D01*
X0070905Y0106984D01*
X0070809Y0107005D01*
X0070714Y0107030D01*
X0070620Y0107058D01*
X0070528Y0107091D01*
X0070436Y0107126D01*
X0070346Y0107166D01*
X0070258Y0107208D01*
X0070171Y0107255D01*
X0070087Y0107304D01*
X0070004Y0107357D01*
X0069924Y0107413D01*
X0069845Y0107473D01*
X0069769Y0107535D01*
X0069696Y0107600D01*
X0069625Y0107668D01*
X0069557Y0107739D01*
X0069492Y0107812D01*
X0069430Y0107888D01*
X0069370Y0107967D01*
X0069314Y0108047D01*
X0069261Y0108130D01*
X0069212Y0108214D01*
X0069165Y0108301D01*
X0069123Y0108389D01*
X0069083Y0108479D01*
X0069048Y0108571D01*
X0069015Y0108663D01*
X0068987Y0108757D01*
X0068962Y0108852D01*
X0068941Y0108948D01*
X0068924Y0109045D01*
X0068910Y0109142D01*
X0068901Y0109240D01*
X0068895Y0109338D01*
X0068893Y0109436D01*
X0094043Y0103286D02*
X0094043Y0084286D01*
X0094045Y0084188D01*
X0094051Y0084090D01*
X0094060Y0083992D01*
X0094074Y0083895D01*
X0094091Y0083798D01*
X0094112Y0083702D01*
X0094137Y0083607D01*
X0094165Y0083513D01*
X0094198Y0083421D01*
X0094233Y0083329D01*
X0094273Y0083239D01*
X0094315Y0083151D01*
X0094362Y0083064D01*
X0094411Y0082980D01*
X0094464Y0082897D01*
X0094520Y0082817D01*
X0094580Y0082738D01*
X0094642Y0082662D01*
X0094707Y0082589D01*
X0094775Y0082518D01*
X0094846Y0082450D01*
X0094919Y0082385D01*
X0094995Y0082323D01*
X0095074Y0082263D01*
X0095154Y0082207D01*
X0095237Y0082154D01*
X0095321Y0082105D01*
X0095408Y0082058D01*
X0095496Y0082016D01*
X0095586Y0081976D01*
X0095678Y0081941D01*
X0095770Y0081908D01*
X0095864Y0081880D01*
X0095959Y0081855D01*
X0096055Y0081834D01*
X0096152Y0081817D01*
X0096249Y0081803D01*
X0096347Y0081794D01*
X0096445Y0081788D01*
X0096543Y0081786D01*
X0171543Y0081786D01*
X0171641Y0081788D01*
X0171739Y0081794D01*
X0171837Y0081803D01*
X0171934Y0081817D01*
X0172031Y0081834D01*
X0172127Y0081855D01*
X0172222Y0081880D01*
X0172316Y0081908D01*
X0172408Y0081941D01*
X0172500Y0081976D01*
X0172590Y0082016D01*
X0172678Y0082058D01*
X0172765Y0082105D01*
X0172849Y0082154D01*
X0172932Y0082207D01*
X0173012Y0082263D01*
X0173091Y0082323D01*
X0173167Y0082385D01*
X0173240Y0082450D01*
X0173311Y0082518D01*
X0173379Y0082589D01*
X0173444Y0082662D01*
X0173506Y0082738D01*
X0173566Y0082817D01*
X0173622Y0082897D01*
X0173675Y0082980D01*
X0173724Y0083064D01*
X0173771Y0083151D01*
X0173813Y0083239D01*
X0173853Y0083329D01*
X0173888Y0083421D01*
X0173921Y0083513D01*
X0173949Y0083607D01*
X0173974Y0083702D01*
X0173995Y0083798D01*
X0174012Y0083895D01*
X0174026Y0083992D01*
X0174035Y0084090D01*
X0174041Y0084188D01*
X0174043Y0084286D01*
X0174043Y0103286D01*
X0174041Y0103384D01*
X0174035Y0103482D01*
X0174026Y0103580D01*
X0174012Y0103677D01*
X0173995Y0103774D01*
X0173974Y0103870D01*
X0173949Y0103965D01*
X0173921Y0104059D01*
X0173888Y0104151D01*
X0173853Y0104243D01*
X0173813Y0104333D01*
X0173771Y0104421D01*
X0173724Y0104508D01*
X0173675Y0104592D01*
X0173622Y0104675D01*
X0173566Y0104755D01*
X0173506Y0104834D01*
X0173444Y0104910D01*
X0173379Y0104983D01*
X0173311Y0105054D01*
X0173240Y0105122D01*
X0173167Y0105187D01*
X0173091Y0105249D01*
X0173012Y0105309D01*
X0172932Y0105365D01*
X0172849Y0105418D01*
X0172765Y0105467D01*
X0172678Y0105514D01*
X0172590Y0105556D01*
X0172500Y0105596D01*
X0172408Y0105631D01*
X0172316Y0105664D01*
X0172222Y0105692D01*
X0172127Y0105717D01*
X0172031Y0105738D01*
X0171934Y0105755D01*
X0171837Y0105769D01*
X0171739Y0105778D01*
X0171641Y0105784D01*
X0171543Y0105786D01*
X0096543Y0105786D01*
X0096445Y0105784D01*
X0096347Y0105778D01*
X0096249Y0105769D01*
X0096152Y0105755D01*
X0096055Y0105738D01*
X0095959Y0105717D01*
X0095864Y0105692D01*
X0095770Y0105664D01*
X0095678Y0105631D01*
X0095586Y0105596D01*
X0095496Y0105556D01*
X0095408Y0105514D01*
X0095321Y0105467D01*
X0095237Y0105418D01*
X0095154Y0105365D01*
X0095074Y0105309D01*
X0094995Y0105249D01*
X0094919Y0105187D01*
X0094846Y0105122D01*
X0094775Y0105054D01*
X0094707Y0104983D01*
X0094642Y0104910D01*
X0094580Y0104834D01*
X0094520Y0104755D01*
X0094464Y0104675D01*
X0094411Y0104592D01*
X0094362Y0104508D01*
X0094315Y0104421D01*
X0094273Y0104333D01*
X0094233Y0104243D01*
X0094198Y0104151D01*
X0094165Y0104059D01*
X0094137Y0103965D01*
X0094112Y0103870D01*
X0094091Y0103774D01*
X0094074Y0103677D01*
X0094060Y0103580D01*
X0094051Y0103482D01*
X0094045Y0103384D01*
X0094043Y0103286D01*
X0175192Y0109436D02*
X0175192Y0184436D01*
X0175194Y0184534D01*
X0175200Y0184632D01*
X0175209Y0184730D01*
X0175223Y0184827D01*
X0175240Y0184924D01*
X0175261Y0185020D01*
X0175286Y0185115D01*
X0175314Y0185209D01*
X0175347Y0185301D01*
X0175382Y0185393D01*
X0175422Y0185483D01*
X0175464Y0185571D01*
X0175511Y0185658D01*
X0175560Y0185742D01*
X0175613Y0185825D01*
X0175669Y0185905D01*
X0175729Y0185984D01*
X0175791Y0186060D01*
X0175856Y0186133D01*
X0175924Y0186204D01*
X0175995Y0186272D01*
X0176068Y0186337D01*
X0176144Y0186399D01*
X0176223Y0186459D01*
X0176303Y0186515D01*
X0176386Y0186568D01*
X0176470Y0186617D01*
X0176557Y0186664D01*
X0176645Y0186706D01*
X0176735Y0186746D01*
X0176827Y0186781D01*
X0176919Y0186814D01*
X0177013Y0186842D01*
X0177108Y0186867D01*
X0177204Y0186888D01*
X0177301Y0186905D01*
X0177398Y0186919D01*
X0177496Y0186928D01*
X0177594Y0186934D01*
X0177692Y0186936D01*
X0196692Y0186936D01*
X0196790Y0186934D01*
X0196888Y0186928D01*
X0196986Y0186919D01*
X0197083Y0186905D01*
X0197180Y0186888D01*
X0197276Y0186867D01*
X0197371Y0186842D01*
X0197465Y0186814D01*
X0197557Y0186781D01*
X0197649Y0186746D01*
X0197739Y0186706D01*
X0197827Y0186664D01*
X0197914Y0186617D01*
X0197998Y0186568D01*
X0198081Y0186515D01*
X0198161Y0186459D01*
X0198240Y0186399D01*
X0198316Y0186337D01*
X0198389Y0186272D01*
X0198460Y0186204D01*
X0198528Y0186133D01*
X0198593Y0186060D01*
X0198655Y0185984D01*
X0198715Y0185905D01*
X0198771Y0185825D01*
X0198824Y0185742D01*
X0198873Y0185658D01*
X0198920Y0185571D01*
X0198962Y0185483D01*
X0199002Y0185393D01*
X0199037Y0185301D01*
X0199070Y0185209D01*
X0199098Y0185115D01*
X0199123Y0185020D01*
X0199144Y0184924D01*
X0199161Y0184827D01*
X0199175Y0184730D01*
X0199184Y0184632D01*
X0199190Y0184534D01*
X0199192Y0184436D01*
X0199192Y0109436D01*
X0199190Y0109338D01*
X0199184Y0109240D01*
X0199175Y0109142D01*
X0199161Y0109045D01*
X0199144Y0108948D01*
X0199123Y0108852D01*
X0199098Y0108757D01*
X0199070Y0108663D01*
X0199037Y0108571D01*
X0199002Y0108479D01*
X0198962Y0108389D01*
X0198920Y0108301D01*
X0198873Y0108214D01*
X0198824Y0108130D01*
X0198771Y0108047D01*
X0198715Y0107967D01*
X0198655Y0107888D01*
X0198593Y0107812D01*
X0198528Y0107739D01*
X0198460Y0107668D01*
X0198389Y0107600D01*
X0198316Y0107535D01*
X0198240Y0107473D01*
X0198161Y0107413D01*
X0198081Y0107357D01*
X0197998Y0107304D01*
X0197914Y0107255D01*
X0197827Y0107208D01*
X0197739Y0107166D01*
X0197649Y0107126D01*
X0197557Y0107091D01*
X0197465Y0107058D01*
X0197371Y0107030D01*
X0197276Y0107005D01*
X0197180Y0106984D01*
X0197083Y0106967D01*
X0196986Y0106953D01*
X0196888Y0106944D01*
X0196790Y0106938D01*
X0196692Y0106936D01*
X0177692Y0106936D01*
X0177594Y0106938D01*
X0177496Y0106944D01*
X0177398Y0106953D01*
X0177301Y0106967D01*
X0177204Y0106984D01*
X0177108Y0107005D01*
X0177013Y0107030D01*
X0176919Y0107058D01*
X0176827Y0107091D01*
X0176735Y0107126D01*
X0176645Y0107166D01*
X0176557Y0107208D01*
X0176470Y0107255D01*
X0176386Y0107304D01*
X0176303Y0107357D01*
X0176223Y0107413D01*
X0176144Y0107473D01*
X0176068Y0107535D01*
X0175995Y0107600D01*
X0175924Y0107668D01*
X0175856Y0107739D01*
X0175791Y0107812D01*
X0175729Y0107888D01*
X0175669Y0107967D01*
X0175613Y0108047D01*
X0175560Y0108130D01*
X0175511Y0108214D01*
X0175464Y0108301D01*
X0175422Y0108389D01*
X0175382Y0108479D01*
X0175347Y0108571D01*
X0175314Y0108663D01*
X0175286Y0108757D01*
X0175261Y0108852D01*
X0175240Y0108948D01*
X0175223Y0109045D01*
X0175209Y0109142D01*
X0175200Y0109240D01*
X0175194Y0109338D01*
X0175192Y0109436D01*
D13*
X0173985Y0236726D02*
X0176454Y0236726D01*
X0177668Y0237343D02*
X0177668Y0239194D01*
X0177668Y0237343D02*
X0178285Y0236726D01*
X0180137Y0236726D01*
X0180137Y0239194D01*
X0181351Y0237960D02*
X0183203Y0239194D01*
X0184421Y0238577D02*
X0184421Y0237343D01*
X0185038Y0236726D01*
X0186272Y0236726D01*
X0186889Y0237960D02*
X0184421Y0237960D01*
X0184421Y0238577D02*
X0185038Y0239194D01*
X0186272Y0239194D01*
X0186889Y0238577D01*
X0186889Y0237960D01*
X0183203Y0236726D02*
X0181351Y0237960D01*
X0181351Y0236726D02*
X0181351Y0240429D01*
X0182586Y0241491D02*
X0183203Y0241491D01*
X0183820Y0242108D01*
X0183820Y0245194D01*
X0183820Y0242726D02*
X0181968Y0242726D01*
X0181351Y0243343D01*
X0181351Y0245194D01*
X0180137Y0244577D02*
X0179520Y0245194D01*
X0177668Y0245194D01*
X0177668Y0246429D02*
X0177668Y0242726D01*
X0179520Y0242726D01*
X0180137Y0243343D01*
X0180137Y0244577D01*
X0178906Y0248726D02*
X0177671Y0248726D01*
X0177054Y0249343D01*
X0177054Y0250577D01*
X0177671Y0251194D01*
X0178906Y0251194D01*
X0179523Y0250577D01*
X0179523Y0249960D01*
X0177054Y0249960D01*
X0175840Y0248726D02*
X0175840Y0251194D01*
X0175840Y0248726D02*
X0173988Y0248726D01*
X0173371Y0249343D01*
X0173371Y0251194D01*
X0172157Y0251194D02*
X0170305Y0251194D01*
X0169688Y0250577D01*
X0169688Y0249343D01*
X0170305Y0248726D01*
X0172157Y0248726D01*
X0172157Y0252429D01*
X0168470Y0251194D02*
X0167853Y0251194D01*
X0166619Y0249960D01*
X0166619Y0248726D02*
X0166619Y0251194D01*
X0165404Y0251194D02*
X0165404Y0248726D01*
X0163553Y0248726D01*
X0162936Y0249343D01*
X0162936Y0251194D01*
X0161721Y0250577D02*
X0161104Y0249960D01*
X0159252Y0249960D01*
X0159252Y0248726D02*
X0159252Y0252429D01*
X0161104Y0252429D01*
X0161721Y0251812D01*
X0161721Y0250577D01*
X0161721Y0246429D02*
X0161721Y0242726D01*
X0162936Y0243343D02*
X0163553Y0243960D01*
X0165404Y0243960D01*
X0165404Y0244577D02*
X0165404Y0242726D01*
X0163553Y0242726D01*
X0162936Y0243343D01*
X0163553Y0245194D02*
X0164787Y0245194D01*
X0165404Y0244577D01*
X0166619Y0244577D02*
X0167236Y0245194D01*
X0169087Y0245194D01*
X0169087Y0246429D02*
X0169087Y0242726D01*
X0167236Y0242726D01*
X0166619Y0243343D01*
X0166619Y0244577D01*
X0170302Y0244577D02*
X0170302Y0243343D01*
X0170919Y0242726D01*
X0172153Y0242726D01*
X0172771Y0243960D02*
X0170302Y0243960D01*
X0170302Y0244577D02*
X0170919Y0245194D01*
X0172153Y0245194D01*
X0172771Y0244577D01*
X0172771Y0243960D01*
X0173985Y0240429D02*
X0173985Y0236726D01*
X0169087Y0236726D02*
X0167236Y0236726D01*
X0166619Y0237343D01*
X0166619Y0238577D01*
X0167236Y0239194D01*
X0169087Y0239194D01*
X0169087Y0240429D02*
X0169087Y0236726D01*
X0165404Y0236726D02*
X0165404Y0238577D01*
X0164787Y0239194D01*
X0162936Y0239194D01*
X0162936Y0236726D01*
X0161721Y0236726D02*
X0161721Y0238577D01*
X0161104Y0239194D01*
X0159870Y0239194D01*
X0159870Y0237960D02*
X0159252Y0237343D01*
X0159870Y0236726D01*
X0161721Y0236726D01*
X0161721Y0237960D02*
X0159870Y0237960D01*
X0159252Y0242726D02*
X0159252Y0246429D01*
X0160487Y0245194D01*
X0161721Y0246429D01*
X0184421Y0248726D02*
X0184421Y0252429D01*
X0186272Y0252429D01*
X0186889Y0251812D01*
X0186889Y0250577D01*
X0186272Y0249960D01*
X0184421Y0249960D01*
X0185655Y0249960D02*
X0186889Y0248726D01*
X0188104Y0249343D02*
X0188721Y0248726D01*
X0189955Y0248726D01*
X0190572Y0249343D01*
X0190572Y0251812D01*
X0189955Y0252429D01*
X0188721Y0252429D01*
X0188104Y0251812D01*
X0188104Y0249343D01*
X0189335Y0246429D02*
X0188718Y0245812D01*
X0188718Y0245194D01*
X0189335Y0244577D01*
X0190569Y0244577D01*
X0191186Y0243960D01*
X0191186Y0243343D01*
X0190569Y0242726D01*
X0189335Y0242726D01*
X0188718Y0243343D01*
X0189335Y0246429D02*
X0190569Y0246429D01*
X0191186Y0245812D01*
X0193018Y0245194D02*
X0194252Y0245194D01*
X0194869Y0244577D01*
X0194869Y0242726D01*
X0193018Y0242726D01*
X0192401Y0243343D01*
X0193018Y0243960D01*
X0194869Y0243960D01*
X0196084Y0242726D02*
X0196084Y0245194D01*
X0196701Y0245194D01*
X0197318Y0244577D01*
X0197935Y0245194D01*
X0198553Y0244577D01*
X0198553Y0242726D01*
X0197318Y0242726D02*
X0197318Y0244577D01*
X0199153Y0248726D02*
X0201622Y0251194D01*
X0201622Y0251812D01*
X0201005Y0252429D01*
X0199770Y0252429D01*
X0199153Y0251812D01*
X0199153Y0248726D02*
X0201622Y0248726D01*
X0202836Y0249343D02*
X0205305Y0251812D01*
X0205305Y0249343D01*
X0204688Y0248726D01*
X0203453Y0248726D01*
X0202836Y0249343D01*
X0202836Y0251812D01*
X0203453Y0252429D01*
X0204688Y0252429D01*
X0205305Y0251812D01*
X0206519Y0251194D02*
X0207754Y0252429D01*
X0207754Y0248726D01*
X0208988Y0248726D02*
X0206519Y0248726D01*
X0205302Y0246429D02*
X0203450Y0246429D01*
X0203450Y0242726D01*
X0205302Y0242726D01*
X0205919Y0243343D01*
X0205919Y0245812D01*
X0205302Y0246429D01*
X0207133Y0244577D02*
X0207133Y0243343D01*
X0207750Y0242726D01*
X0208985Y0242726D01*
X0209602Y0243960D02*
X0207133Y0243960D01*
X0207133Y0244577D02*
X0207750Y0245194D01*
X0208985Y0245194D01*
X0209602Y0244577D01*
X0209602Y0243960D01*
X0210816Y0243343D02*
X0211434Y0242726D01*
X0213285Y0242726D01*
X0213285Y0242108D02*
X0213285Y0245194D01*
X0211434Y0245194D01*
X0210816Y0244577D01*
X0210816Y0243343D01*
X0212051Y0241491D02*
X0212668Y0241491D01*
X0213285Y0242108D01*
X0214500Y0242726D02*
X0214500Y0246429D01*
X0215117Y0245194D02*
X0216351Y0245194D01*
X0216968Y0244577D01*
X0216968Y0242726D01*
X0218183Y0243343D02*
X0218800Y0242726D01*
X0220652Y0242726D01*
X0220652Y0245194D01*
X0221866Y0244577D02*
X0221866Y0243343D01*
X0222483Y0242726D01*
X0223717Y0242726D01*
X0224335Y0243960D02*
X0221866Y0243960D01*
X0221866Y0244577D02*
X0222483Y0245194D01*
X0223717Y0245194D01*
X0224335Y0244577D01*
X0224335Y0243960D01*
X0225549Y0243960D02*
X0228018Y0243960D01*
X0228018Y0244577D01*
X0227401Y0245194D01*
X0226166Y0245194D01*
X0225549Y0244577D01*
X0225549Y0243343D01*
X0226166Y0242726D01*
X0227401Y0242726D01*
X0223104Y0248726D02*
X0223721Y0249343D01*
X0223721Y0249960D01*
X0223104Y0250577D01*
X0221252Y0250577D01*
X0221252Y0249343D01*
X0221869Y0248726D01*
X0223104Y0248726D01*
X0221252Y0250577D02*
X0222486Y0251812D01*
X0223721Y0252429D01*
X0218803Y0252429D02*
X0218803Y0248726D01*
X0217569Y0248726D02*
X0220038Y0248726D01*
X0217569Y0251194D02*
X0218803Y0252429D01*
X0216354Y0252429D02*
X0213886Y0248726D01*
X0212671Y0249343D02*
X0212671Y0250577D01*
X0212054Y0251194D01*
X0211437Y0251194D01*
X0210203Y0250577D01*
X0210203Y0252429D01*
X0212671Y0252429D01*
X0212671Y0249343D02*
X0212054Y0248726D01*
X0210820Y0248726D01*
X0210203Y0249343D01*
X0214500Y0244577D02*
X0215117Y0245194D01*
X0218183Y0245194D02*
X0218183Y0243343D01*
X0208988Y0238577D02*
X0208988Y0237960D01*
X0206519Y0237960D01*
X0206519Y0237343D02*
X0206519Y0238577D01*
X0207137Y0239194D01*
X0208371Y0239194D01*
X0208988Y0238577D01*
X0208371Y0236726D02*
X0207137Y0236726D01*
X0206519Y0237343D01*
X0205305Y0237960D02*
X0205305Y0238577D01*
X0204688Y0239194D01*
X0203453Y0239194D01*
X0202836Y0238577D01*
X0202836Y0237343D01*
X0203453Y0236726D01*
X0204688Y0236726D01*
X0205305Y0237960D02*
X0202836Y0237960D01*
X0201622Y0237960D02*
X0201622Y0237343D01*
X0201005Y0236726D01*
X0199153Y0236726D01*
X0199153Y0240429D01*
X0201005Y0240429D01*
X0201622Y0239812D01*
X0201622Y0239194D01*
X0201005Y0238577D01*
X0199153Y0238577D01*
X0197939Y0239194D02*
X0196087Y0239194D01*
X0195470Y0238577D01*
X0195470Y0237343D01*
X0196087Y0236726D01*
X0197939Y0236726D01*
X0201005Y0238577D02*
X0201622Y0237960D01*
X0194256Y0236726D02*
X0194256Y0240429D01*
X0193021Y0239194D01*
X0191787Y0240429D01*
X0191787Y0236726D01*
X0193021Y0248726D02*
X0194256Y0249960D01*
X0194256Y0252429D01*
X0191787Y0252429D02*
X0191787Y0249960D01*
X0193021Y0248726D01*
D14*
X0170477Y0196317D03*
D15*
X0174227Y0205417D03*
X0176627Y0208117D03*
X0179127Y0207517D03*
X0179327Y0207617D03*
X0179327Y0207717D03*
X0179427Y0207417D03*
X0179727Y0207417D03*
X0179827Y0207217D03*
X0179727Y0206517D03*
X0179327Y0206517D03*
X0179027Y0206317D03*
X0178927Y0206417D03*
X0178827Y0206717D03*
X0179127Y0207017D03*
X0178627Y0206317D03*
X0179027Y0206017D03*
X0179227Y0205717D03*
X0179527Y0205517D03*
X0179727Y0205717D03*
X0180127Y0205717D03*
X0180327Y0205817D03*
X0180527Y0205417D03*
X0180227Y0205217D03*
X0180127Y0205017D03*
X0180027Y0205117D03*
X0179927Y0205217D03*
X0180627Y0204717D03*
X0181027Y0204417D03*
X0181227Y0204217D03*
X0181127Y0205317D03*
X0180427Y0206417D03*
X0180027Y0206217D03*
X0179527Y0206117D03*
X0180627Y0206917D03*
X0181527Y0207817D03*
X0181527Y0207917D03*
X0181227Y0208117D03*
X0181027Y0208517D03*
X0180827Y0208717D03*
X0180727Y0208817D03*
X0180827Y0209017D03*
X0180727Y0209317D03*
X0180427Y0208917D03*
X0180027Y0209117D03*
X0179927Y0209317D03*
X0178927Y0210117D03*
X0180227Y0211917D03*
X0180327Y0212517D03*
X0180327Y0212617D03*
X0180427Y0212717D03*
X0180927Y0212117D03*
X0181227Y0212217D03*
X0181527Y0212117D03*
X0181627Y0211817D03*
X0181927Y0212317D03*
X0182227Y0212317D03*
X0182227Y0212417D03*
X0182027Y0212817D03*
X0183327Y0214517D03*
X0182527Y0214917D03*
X0185127Y0213517D03*
X0186327Y0214017D03*
X0187327Y0213817D03*
X0187727Y0213717D03*
X0188027Y0213117D03*
X0187727Y0213017D03*
X0187627Y0212717D03*
X0188227Y0212717D03*
X0188227Y0212817D03*
X0188527Y0212617D03*
X0188927Y0212617D03*
X0188927Y0212517D03*
X0189027Y0212417D03*
X0189127Y0211817D03*
X0189127Y0211717D03*
X0189527Y0211717D03*
X0189527Y0211617D03*
X0189527Y0211517D03*
X0189527Y0211317D03*
X0189227Y0211117D03*
X0189427Y0210917D03*
X0189427Y0210817D03*
X0189427Y0210717D03*
X0189427Y0210617D03*
X0189227Y0210217D03*
X0189027Y0210017D03*
X0188627Y0209617D03*
X0188527Y0209517D03*
X0188727Y0209417D03*
X0188327Y0209417D03*
X0188027Y0209417D03*
X0187927Y0209817D03*
X0187127Y0209817D03*
X0187127Y0209717D03*
X0187127Y0209617D03*
X0186827Y0209417D03*
X0186927Y0208917D03*
X0186827Y0208717D03*
X0186827Y0208417D03*
X0187327Y0208617D03*
X0187427Y0208517D03*
X0187527Y0208417D03*
X0187227Y0208817D03*
X0187227Y0208917D03*
X0187627Y0207917D03*
X0187527Y0207717D03*
X0187227Y0207717D03*
X0187227Y0207617D03*
X0187227Y0207817D03*
X0187727Y0207417D03*
X0187927Y0206317D03*
X0187927Y0206217D03*
X0188227Y0208417D03*
X0186927Y0210317D03*
X0185727Y0210217D03*
X0184827Y0210217D03*
X0185527Y0211717D03*
X0185627Y0207917D03*
X0185227Y0207717D03*
X0184927Y0207817D03*
X0183827Y0207217D03*
X0183327Y0207217D03*
X0185627Y0205517D03*
X0182827Y0204017D03*
X0183927Y0202317D03*
X0183827Y0201917D03*
X0183827Y0201817D03*
X0183427Y0201517D03*
X0183027Y0201117D03*
X0182627Y0200617D03*
X0182827Y0200017D03*
X0183327Y0199817D03*
X0183727Y0200217D03*
X0183727Y0200317D03*
X0184127Y0200717D03*
X0184527Y0201017D03*
X0184527Y0201117D03*
X0184927Y0201317D03*
X0185227Y0201517D03*
X0185427Y0201617D03*
X0185827Y0201217D03*
X0185927Y0201117D03*
X0185627Y0201017D03*
X0186127Y0200817D03*
X0186127Y0200717D03*
X0186227Y0200517D03*
X0185027Y0200717D03*
X0184727Y0200417D03*
X0184827Y0199817D03*
X0184827Y0199717D03*
X0184927Y0199217D03*
X0184927Y0199117D03*
X0184627Y0198517D03*
X0184327Y0198017D03*
X0184727Y0197617D03*
X0185027Y0198017D03*
X0185327Y0197517D03*
X0185627Y0196417D03*
X0186627Y0196717D03*
X0187327Y0197417D03*
X0187427Y0197317D03*
X0188127Y0197217D03*
X0188127Y0197117D03*
X0188227Y0197017D03*
X0183127Y0197617D03*
X0182827Y0197017D03*
X0181727Y0196817D03*
X0181727Y0196717D03*
X0181727Y0196617D03*
X0181727Y0196517D03*
X0181827Y0196417D03*
X0181827Y0196317D03*
X0183227Y0198617D03*
X0183527Y0199117D03*
X0183027Y0199317D03*
X0182527Y0199517D03*
X0182427Y0199017D03*
X0181827Y0200717D03*
X0181827Y0200817D03*
X0181927Y0201017D03*
X0184027Y0201317D03*
X0184427Y0201617D03*
X0184727Y0201817D03*
X0184427Y0202017D03*
X0184427Y0202417D03*
X0189527Y0211817D03*
X0189827Y0212617D03*
X0189827Y0212717D03*
X0189827Y0212817D03*
X0189527Y0212817D03*
X0189827Y0213417D03*
X0187027Y0215117D03*
X0186927Y0215017D03*
X0187327Y0216717D03*
X0187727Y0216817D03*
X0188727Y0216617D03*
X0188627Y0217617D03*
X0189027Y0217917D03*
X0190027Y0217717D03*
X0189927Y0217417D03*
X0191127Y0217417D03*
X0191127Y0217317D03*
X0191127Y0217217D03*
X0191127Y0217517D03*
X0191127Y0217617D03*
X0191127Y0217717D03*
X0190427Y0218917D03*
X0190327Y0219217D03*
X0190427Y0219517D03*
X0190027Y0220417D03*
X0191027Y0220517D03*
X0191027Y0220617D03*
X0191127Y0221117D03*
X0191127Y0221517D03*
X0191127Y0221617D03*
X0191127Y0221717D03*
X0191127Y0221817D03*
X0191127Y0222317D03*
X0191027Y0222717D03*
X0191027Y0222817D03*
X0191027Y0222917D03*
X0191027Y0223017D03*
X0190927Y0223117D03*
X0188727Y0228017D03*
X0188327Y0228317D03*
X0188227Y0228417D03*
X0188127Y0228517D03*
X0186027Y0228817D03*
X0185227Y0228617D03*
X0184927Y0228617D03*
X0184327Y0229317D03*
X0182327Y0230017D03*
X0181327Y0230117D03*
X0181227Y0229617D03*
X0180827Y0229217D03*
X0180527Y0229017D03*
X0180627Y0228817D03*
X0180827Y0228717D03*
X0181127Y0228717D03*
X0181727Y0228717D03*
X0180527Y0228517D03*
X0180427Y0228717D03*
X0180227Y0228617D03*
X0180327Y0228417D03*
X0180427Y0228017D03*
X0179827Y0228717D03*
X0179927Y0228817D03*
X0179627Y0228517D03*
X0179327Y0228617D03*
X0179427Y0228917D03*
X0179027Y0228717D03*
X0178927Y0228617D03*
X0178927Y0228417D03*
X0178927Y0228017D03*
X0178627Y0228717D03*
X0178427Y0228817D03*
X0178527Y0229217D03*
X0178827Y0229417D03*
X0178927Y0229517D03*
X0179327Y0229917D03*
X0179927Y0230017D03*
X0179927Y0230217D03*
X0180227Y0230217D03*
X0179827Y0229517D03*
X0177927Y0228617D03*
X0177627Y0228317D03*
X0177427Y0227917D03*
X0178227Y0227217D03*
X0178327Y0227317D03*
X0178427Y0227417D03*
X0177327Y0226817D03*
X0177127Y0226517D03*
X0177027Y0226417D03*
X0176427Y0226617D03*
X0176527Y0226817D03*
X0176227Y0226317D03*
X0176127Y0226217D03*
X0176327Y0226117D03*
X0176627Y0225917D03*
X0176527Y0225817D03*
X0176427Y0225717D03*
X0176327Y0225617D03*
X0176327Y0225517D03*
X0176527Y0225417D03*
X0176427Y0225217D03*
X0176527Y0224717D03*
X0176327Y0224317D03*
X0176127Y0224217D03*
X0176127Y0224117D03*
X0176027Y0224017D03*
X0175927Y0223917D03*
X0175827Y0223817D03*
X0175827Y0224217D03*
X0175827Y0224317D03*
X0175627Y0224517D03*
X0175527Y0224317D03*
X0175527Y0224217D03*
X0175727Y0224817D03*
X0175727Y0224917D03*
X0175827Y0225017D03*
X0175927Y0225417D03*
X0175927Y0225717D03*
X0176427Y0223917D03*
X0176327Y0223717D03*
X0176527Y0223017D03*
X0176227Y0222917D03*
X0175927Y0222817D03*
X0175827Y0222617D03*
X0175727Y0222417D03*
X0176227Y0222217D03*
X0176527Y0222217D03*
X0176527Y0222117D03*
X0176427Y0221917D03*
X0176827Y0222317D03*
X0176727Y0221417D03*
X0176727Y0221317D03*
X0176427Y0221217D03*
X0176327Y0221017D03*
X0176027Y0220617D03*
X0176227Y0220517D03*
X0176427Y0220317D03*
X0176427Y0220217D03*
X0176727Y0220217D03*
X0176727Y0220117D03*
X0176727Y0220317D03*
X0176827Y0220417D03*
X0176827Y0220517D03*
X0176927Y0220617D03*
X0176527Y0220517D03*
X0176227Y0219817D03*
X0176127Y0219517D03*
X0176027Y0219317D03*
X0176027Y0219217D03*
X0176527Y0219417D03*
X0176727Y0218517D03*
X0177127Y0218517D03*
X0176627Y0218117D03*
X0176527Y0217817D03*
X0176027Y0217517D03*
X0175627Y0218117D03*
X0174527Y0217417D03*
X0174527Y0217317D03*
X0174527Y0217217D03*
X0174727Y0219817D03*
X0175027Y0220017D03*
X0174827Y0220317D03*
X0174927Y0220617D03*
X0175327Y0221017D03*
X0175827Y0221017D03*
X0175827Y0220917D03*
X0175927Y0221317D03*
X0175727Y0220517D03*
X0175627Y0220317D03*
X0174827Y0221417D03*
X0174827Y0221617D03*
X0174927Y0221717D03*
X0176127Y0213417D03*
X0176427Y0213317D03*
X0177227Y0213317D03*
X0182927Y0217917D03*
X0183327Y0218017D03*
X0183827Y0220317D03*
X0184527Y0220317D03*
X0184827Y0220217D03*
X0203227Y0196817D03*
D16*
X0188577Y0204717D03*
X0183777Y0202517D03*
X0181977Y0203917D03*
X0181877Y0204017D03*
X0180777Y0204917D03*
X0175777Y0206617D03*
X0181277Y0212617D03*
X0181177Y0212717D03*
X0181877Y0213417D03*
X0184377Y0213817D03*
X0185877Y0213717D03*
X0187177Y0213517D03*
X0186577Y0212117D03*
X0186577Y0212017D03*
X0188377Y0211717D03*
X0188977Y0213117D03*
X0188377Y0214517D03*
X0188377Y0214617D03*
X0187577Y0217017D03*
X0187577Y0217117D03*
X0182377Y0218417D03*
X0175677Y0216917D03*
X0175677Y0221617D03*
X0175677Y0222017D03*
X0175777Y0222317D03*
X0179177Y0227917D03*
X0181477Y0228817D03*
X0181677Y0228917D03*
X0181577Y0199617D03*
X0181477Y0199417D03*
X0186177Y0196317D03*
D17*
X0195727Y0196317D03*
X0195727Y0196617D03*
D18*
X0170427Y0196617D03*
X0170427Y0196517D03*
X0170427Y0196417D03*
D19*
X0178977Y0205917D03*
X0178777Y0206117D03*
X0178677Y0206217D03*
X0178677Y0206617D03*
X0178977Y0206617D03*
X0178977Y0206917D03*
X0179177Y0206917D03*
X0178977Y0207117D03*
X0179177Y0207317D03*
X0179477Y0207317D03*
X0179477Y0207017D03*
X0179577Y0206917D03*
X0179877Y0207117D03*
X0179877Y0207317D03*
X0180377Y0207217D03*
X0180577Y0207117D03*
X0180577Y0207517D03*
X0180277Y0207917D03*
X0179977Y0208117D03*
X0179777Y0207917D03*
X0179477Y0208017D03*
X0179177Y0207817D03*
X0178777Y0207317D03*
X0179377Y0206617D03*
X0179477Y0206417D03*
X0179277Y0206417D03*
X0179777Y0206317D03*
X0179777Y0206117D03*
X0180077Y0206117D03*
X0180277Y0206317D03*
X0180477Y0206317D03*
X0180277Y0206617D03*
X0180177Y0206517D03*
X0180377Y0205917D03*
X0180377Y0205717D03*
X0180077Y0205617D03*
X0180077Y0205817D03*
X0179777Y0205617D03*
X0180777Y0205617D03*
X0180977Y0205517D03*
X0180877Y0205417D03*
X0180877Y0205317D03*
X0181177Y0205417D03*
X0181377Y0205017D03*
X0181577Y0204517D03*
X0182977Y0202417D03*
X0182877Y0202317D03*
X0182977Y0202117D03*
X0182777Y0202117D03*
X0182677Y0202017D03*
X0182577Y0201917D03*
X0182477Y0201817D03*
X0182377Y0201717D03*
X0182277Y0201517D03*
X0182177Y0201417D03*
X0182077Y0201317D03*
X0182077Y0201217D03*
X0181977Y0201117D03*
X0181877Y0200917D03*
X0182077Y0200817D03*
X0182077Y0200717D03*
X0182277Y0200117D03*
X0182777Y0199917D03*
X0183177Y0200417D03*
X0183177Y0200517D03*
X0183577Y0200917D03*
X0183977Y0201217D03*
X0184177Y0200617D03*
X0184677Y0200517D03*
X0185077Y0200817D03*
X0185377Y0200917D03*
X0185577Y0201117D03*
X0185777Y0201317D03*
X0185677Y0201417D03*
X0185577Y0201517D03*
X0185477Y0201717D03*
X0185277Y0201417D03*
X0184677Y0201917D03*
X0183877Y0202217D03*
X0183477Y0201917D03*
X0182877Y0201717D03*
X0182477Y0201217D03*
X0182477Y0199117D03*
X0182777Y0198817D03*
X0182977Y0198217D03*
X0182877Y0198017D03*
X0182777Y0197617D03*
X0183077Y0197517D03*
X0183377Y0197317D03*
X0183377Y0197217D03*
X0183677Y0197017D03*
X0183677Y0196917D03*
X0183977Y0196617D03*
X0183977Y0196517D03*
X0183377Y0196417D03*
X0183077Y0196717D03*
X0183077Y0196817D03*
X0182877Y0197117D03*
X0182677Y0196717D03*
X0181477Y0196817D03*
X0183477Y0198117D03*
X0183677Y0198517D03*
X0183977Y0198317D03*
X0183977Y0198917D03*
X0184477Y0198817D03*
X0184477Y0198717D03*
X0184677Y0198417D03*
X0185077Y0198117D03*
X0185377Y0198717D03*
X0185377Y0198817D03*
X0185277Y0199417D03*
X0185477Y0199617D03*
X0185677Y0199717D03*
X0185477Y0200217D03*
X0185377Y0200317D03*
X0185177Y0200117D03*
X0185177Y0200017D03*
X0185677Y0200417D03*
X0185877Y0200517D03*
X0185877Y0200617D03*
X0186077Y0200917D03*
X0185977Y0201017D03*
X0184277Y0200117D03*
X0184277Y0200017D03*
X0183877Y0199617D03*
X0184377Y0199417D03*
X0184677Y0197517D03*
X0184377Y0197117D03*
X0183977Y0197417D03*
X0183977Y0197517D03*
X0184777Y0196717D03*
X0184777Y0196617D03*
X0185077Y0197117D03*
X0185377Y0196717D03*
X0185377Y0196617D03*
X0187377Y0197217D03*
X0187477Y0197117D03*
X0187477Y0197017D03*
X0184977Y0204317D03*
X0183677Y0207317D03*
X0184577Y0207617D03*
X0184677Y0207817D03*
X0185477Y0208017D03*
X0185577Y0207817D03*
X0185877Y0207817D03*
X0186377Y0208117D03*
X0186677Y0208117D03*
X0186877Y0208117D03*
X0186877Y0208317D03*
X0187177Y0208317D03*
X0187477Y0208217D03*
X0187777Y0208217D03*
X0187777Y0208117D03*
X0187977Y0208017D03*
X0187977Y0207817D03*
X0187877Y0207717D03*
X0187777Y0207517D03*
X0187577Y0207817D03*
X0188077Y0208217D03*
X0188277Y0208017D03*
X0188377Y0208117D03*
X0188477Y0208217D03*
X0188577Y0208317D03*
X0188677Y0208417D03*
X0188477Y0208417D03*
X0188277Y0208517D03*
X0188277Y0208717D03*
X0188177Y0209117D03*
X0187877Y0209217D03*
X0187777Y0209317D03*
X0187777Y0209417D03*
X0187677Y0209817D03*
X0187677Y0209917D03*
X0187577Y0210117D03*
X0187577Y0210517D03*
X0187577Y0210617D03*
X0187577Y0210717D03*
X0187377Y0210717D03*
X0186677Y0210417D03*
X0186477Y0210317D03*
X0185977Y0210217D03*
X0185577Y0210717D03*
X0185877Y0211717D03*
X0184677Y0211817D03*
X0184477Y0211817D03*
X0184877Y0212517D03*
X0184877Y0212817D03*
X0184777Y0213017D03*
X0184577Y0212817D03*
X0184477Y0213017D03*
X0184277Y0213617D03*
X0182777Y0213617D03*
X0182377Y0213217D03*
X0182077Y0213017D03*
X0181877Y0213017D03*
X0182177Y0212617D03*
X0182377Y0212517D03*
X0181877Y0212417D03*
X0181577Y0212317D03*
X0181577Y0212217D03*
X0181377Y0212017D03*
X0181377Y0211917D03*
X0180977Y0211917D03*
X0180977Y0212017D03*
X0180277Y0212317D03*
X0180277Y0212417D03*
X0180877Y0213417D03*
X0181077Y0213417D03*
X0181077Y0213817D03*
X0181377Y0214017D03*
X0182577Y0215017D03*
X0182777Y0214917D03*
X0183077Y0214817D03*
X0182877Y0212017D03*
X0184177Y0209417D03*
X0184577Y0209317D03*
X0185777Y0208817D03*
X0185777Y0208717D03*
X0185777Y0208617D03*
X0187477Y0208817D03*
X0187477Y0208917D03*
X0187677Y0208917D03*
X0187677Y0208517D03*
X0187877Y0208417D03*
X0188777Y0208817D03*
X0188777Y0208917D03*
X0188777Y0209017D03*
X0188977Y0208817D03*
X0189077Y0208917D03*
X0189177Y0209117D03*
X0189277Y0209317D03*
X0188977Y0209417D03*
X0189077Y0209617D03*
X0189077Y0209717D03*
X0188777Y0209817D03*
X0188777Y0210117D03*
X0189377Y0210317D03*
X0189377Y0210417D03*
X0189377Y0210517D03*
X0189477Y0211017D03*
X0189477Y0211417D03*
X0189177Y0211517D03*
X0189577Y0211917D03*
X0189577Y0212017D03*
X0189577Y0212117D03*
X0189577Y0212217D03*
X0189577Y0212317D03*
X0189577Y0212417D03*
X0189577Y0212517D03*
X0189777Y0212917D03*
X0189777Y0213017D03*
X0189777Y0213117D03*
X0189077Y0212317D03*
X0188577Y0212317D03*
X0188577Y0212217D03*
X0188277Y0212617D03*
X0188477Y0212717D03*
X0188277Y0213117D03*
X0187977Y0213017D03*
X0187777Y0213817D03*
X0186977Y0213817D03*
X0187677Y0214717D03*
X0187677Y0214817D03*
X0187477Y0214917D03*
X0187277Y0215017D03*
X0186977Y0215317D03*
X0186977Y0215417D03*
X0187277Y0216317D03*
X0187377Y0216517D03*
X0187377Y0216617D03*
X0187577Y0216617D03*
X0187777Y0216717D03*
X0187977Y0216617D03*
X0188077Y0216517D03*
X0188077Y0216717D03*
X0188077Y0216817D03*
X0188377Y0216817D03*
X0188377Y0216617D03*
X0187477Y0216817D03*
X0187077Y0216917D03*
X0186877Y0216617D03*
X0186677Y0217017D03*
X0186677Y0217117D03*
X0186577Y0217417D03*
X0186877Y0218917D03*
X0186977Y0219517D03*
X0187077Y0219717D03*
X0187077Y0219817D03*
X0186477Y0219817D03*
X0185377Y0219817D03*
X0185077Y0220117D03*
X0184277Y0220317D03*
X0183677Y0219317D03*
X0181477Y0219917D03*
X0177577Y0219917D03*
X0177577Y0219817D03*
X0177377Y0220117D03*
X0177377Y0220217D03*
X0177377Y0220317D03*
X0177177Y0220517D03*
X0177477Y0220717D03*
X0176877Y0220817D03*
X0176377Y0220917D03*
X0176177Y0220917D03*
X0176077Y0220817D03*
X0176077Y0220717D03*
X0176277Y0220717D03*
X0176177Y0220417D03*
X0176077Y0220117D03*
X0176077Y0220017D03*
X0175877Y0220017D03*
X0175877Y0219817D03*
X0175877Y0219717D03*
X0175977Y0219617D03*
X0175877Y0219517D03*
X0175777Y0219317D03*
X0175777Y0219217D03*
X0175477Y0219217D03*
X0175477Y0219317D03*
X0175377Y0219417D03*
X0175377Y0219517D03*
X0175377Y0219717D03*
X0175577Y0219717D03*
X0175577Y0219617D03*
X0175577Y0219817D03*
X0175677Y0219917D03*
X0175477Y0220117D03*
X0175377Y0219917D03*
X0175177Y0220217D03*
X0175077Y0220117D03*
X0174777Y0220117D03*
X0174777Y0220017D03*
X0174777Y0220217D03*
X0174677Y0220617D03*
X0175177Y0220717D03*
X0175277Y0220817D03*
X0175477Y0220917D03*
X0175577Y0221017D03*
X0175777Y0220817D03*
X0175777Y0220717D03*
X0175777Y0220617D03*
X0175877Y0220317D03*
X0175377Y0220317D03*
X0175177Y0220417D03*
X0174777Y0219717D03*
X0174677Y0219617D03*
X0174477Y0219517D03*
X0174077Y0218917D03*
X0174077Y0217617D03*
X0174077Y0217517D03*
X0174077Y0217417D03*
X0174177Y0217017D03*
X0174177Y0216917D03*
X0174577Y0216917D03*
X0174577Y0217017D03*
X0174577Y0217117D03*
X0174277Y0216417D03*
X0174377Y0216017D03*
X0174477Y0215717D03*
X0174577Y0215517D03*
X0174677Y0215317D03*
X0174777Y0215117D03*
X0174877Y0214917D03*
X0174977Y0214717D03*
X0175077Y0214517D03*
X0175177Y0214417D03*
X0175377Y0214117D03*
X0175477Y0214017D03*
X0175877Y0213617D03*
X0175977Y0213517D03*
X0176877Y0213217D03*
X0176977Y0213117D03*
X0176977Y0213017D03*
X0176977Y0212917D03*
X0176977Y0212817D03*
X0177277Y0213017D03*
X0177377Y0212917D03*
X0177377Y0212817D03*
X0177177Y0213217D03*
X0177077Y0212417D03*
X0177077Y0212317D03*
X0177077Y0212217D03*
X0177177Y0211417D03*
X0177177Y0211317D03*
X0177177Y0211217D03*
X0177177Y0211117D03*
X0177177Y0211017D03*
X0177177Y0210917D03*
X0177177Y0210817D03*
X0177177Y0210517D03*
X0177177Y0210417D03*
X0177177Y0210317D03*
X0177177Y0210217D03*
X0177177Y0210117D03*
X0177077Y0209417D03*
X0177077Y0209317D03*
X0176677Y0208217D03*
X0178577Y0210017D03*
X0178577Y0210117D03*
X0178477Y0210217D03*
X0178677Y0210317D03*
X0178777Y0210517D03*
X0178977Y0210017D03*
X0179177Y0209917D03*
X0179377Y0210017D03*
X0179577Y0209817D03*
X0179477Y0209717D03*
X0179477Y0209617D03*
X0179877Y0209617D03*
X0179977Y0209417D03*
X0180277Y0209217D03*
X0180477Y0208817D03*
X0180877Y0208617D03*
X0180877Y0209117D03*
X0181277Y0209117D03*
X0181277Y0209017D03*
X0181577Y0208217D03*
X0182577Y0207417D03*
X0182577Y0207317D03*
X0187777Y0206917D03*
X0187777Y0206817D03*
X0187777Y0206717D03*
X0187877Y0206417D03*
X0188777Y0209317D03*
X0188177Y0209717D03*
X0187977Y0209917D03*
X0189477Y0209617D03*
X0189677Y0209917D03*
X0190277Y0211217D03*
X0190277Y0211317D03*
X0190277Y0211417D03*
X0189777Y0211917D03*
X0189777Y0212017D03*
X0189577Y0214317D03*
X0189277Y0214417D03*
X0189277Y0214517D03*
X0188677Y0214817D03*
X0188677Y0214917D03*
X0188677Y0215017D03*
X0188277Y0215017D03*
X0185877Y0214117D03*
X0188877Y0217517D03*
X0188677Y0217817D03*
X0188977Y0219417D03*
X0190077Y0219217D03*
X0190277Y0219117D03*
X0190177Y0219417D03*
X0190477Y0218817D03*
X0190477Y0218717D03*
X0190677Y0218317D03*
X0191077Y0217117D03*
X0191077Y0217017D03*
X0190377Y0216717D03*
X0189877Y0220517D03*
X0189677Y0220617D03*
X0188677Y0220617D03*
X0187977Y0220317D03*
X0191077Y0221917D03*
X0191077Y0222017D03*
X0191077Y0222117D03*
X0191277Y0222117D03*
X0191377Y0222317D03*
X0191377Y0222717D03*
X0191377Y0222817D03*
X0191277Y0223017D03*
X0191077Y0223317D03*
X0191077Y0223417D03*
X0191077Y0223517D03*
X0190877Y0223517D03*
X0190877Y0223417D03*
X0190877Y0223317D03*
X0190777Y0223717D03*
X0190777Y0223817D03*
X0190877Y0224017D03*
X0190677Y0224117D03*
X0190677Y0224217D03*
X0190677Y0224317D03*
X0190677Y0224417D03*
X0190577Y0224717D03*
X0190377Y0225417D03*
X0190377Y0225717D03*
X0190177Y0225917D03*
X0189977Y0225217D03*
X0189577Y0225217D03*
X0189077Y0225017D03*
X0189177Y0227517D03*
X0188977Y0227717D03*
X0188777Y0227917D03*
X0188577Y0228117D03*
X0188477Y0228217D03*
X0187677Y0228517D03*
X0187577Y0228617D03*
X0187477Y0228717D03*
X0184677Y0228617D03*
X0184477Y0228817D03*
X0184277Y0228817D03*
X0184577Y0229317D03*
X0182777Y0230117D03*
X0181477Y0229617D03*
X0180877Y0230017D03*
X0180377Y0229517D03*
X0180077Y0229517D03*
X0180077Y0229817D03*
X0179777Y0229917D03*
X0179777Y0230117D03*
X0179577Y0230017D03*
X0179577Y0229917D03*
X0179477Y0229817D03*
X0179277Y0229517D03*
X0178877Y0229217D03*
X0178777Y0229317D03*
X0178577Y0229317D03*
X0178477Y0229117D03*
X0178377Y0229017D03*
X0178177Y0228817D03*
X0178277Y0228717D03*
X0178077Y0228717D03*
X0178477Y0228417D03*
X0178677Y0228417D03*
X0178777Y0228517D03*
X0178777Y0228217D03*
X0179077Y0227717D03*
X0178577Y0227317D03*
X0178077Y0227117D03*
X0177477Y0226917D03*
X0177277Y0226717D03*
X0177177Y0226917D03*
X0176877Y0226117D03*
X0176777Y0226017D03*
X0176377Y0226017D03*
X0176377Y0226217D03*
X0176177Y0226017D03*
X0175977Y0226017D03*
X0176277Y0225817D03*
X0176177Y0225717D03*
X0176177Y0225417D03*
X0176477Y0225317D03*
X0176577Y0225517D03*
X0176677Y0225617D03*
X0176377Y0225117D03*
X0176277Y0225017D03*
X0176177Y0224917D03*
X0176077Y0224817D03*
X0175977Y0224717D03*
X0175977Y0224417D03*
X0176477Y0224517D03*
X0176577Y0224817D03*
X0176677Y0223917D03*
X0176577Y0223817D03*
X0176577Y0223717D03*
X0176477Y0223517D03*
X0176477Y0223417D03*
X0176377Y0223317D03*
X0176377Y0223217D03*
X0176177Y0223217D03*
X0176177Y0223317D03*
X0176277Y0223017D03*
X0176077Y0223017D03*
X0175977Y0222917D03*
X0175877Y0222717D03*
X0176177Y0222717D03*
X0176377Y0222717D03*
X0176477Y0222917D03*
X0176577Y0223117D03*
X0176677Y0222717D03*
X0176777Y0222417D03*
X0176777Y0222217D03*
X0176777Y0222117D03*
X0176777Y0222017D03*
X0176777Y0221917D03*
X0176477Y0222017D03*
X0176977Y0221417D03*
X0176077Y0221117D03*
X0175877Y0221117D03*
X0175077Y0221517D03*
X0174777Y0221517D03*
X0174977Y0222017D03*
X0175777Y0223017D03*
X0175877Y0223117D03*
X0175977Y0223617D03*
X0175777Y0223717D03*
X0175677Y0223617D03*
X0176277Y0223617D03*
X0176377Y0223817D03*
X0176377Y0226517D03*
X0177377Y0228117D03*
X0177477Y0228217D03*
X0179677Y0228617D03*
X0179977Y0228917D03*
X0179977Y0229217D03*
X0180577Y0229217D03*
X0180677Y0229117D03*
X0180777Y0228917D03*
X0181077Y0228517D03*
X0181077Y0228317D03*
X0180877Y0228417D03*
X0181277Y0228617D03*
X0181377Y0228717D03*
X0182077Y0228717D03*
X0176977Y0220217D03*
X0176977Y0220117D03*
X0177077Y0220017D03*
X0177077Y0219817D03*
X0177177Y0219717D03*
X0177077Y0219317D03*
X0176977Y0219017D03*
X0177077Y0218817D03*
X0177077Y0218617D03*
X0177077Y0218417D03*
X0176677Y0218317D03*
X0176677Y0218217D03*
X0176777Y0219417D03*
X0176777Y0219817D03*
X0176377Y0219717D03*
X0176377Y0219617D03*
X0176377Y0219517D03*
X0176277Y0219417D03*
X0176177Y0219617D03*
X0176177Y0219717D03*
X0176377Y0215217D03*
D20*
X0175477Y0216517D03*
X0176377Y0218017D03*
X0176377Y0218717D03*
X0176177Y0219917D03*
X0176177Y0221517D03*
X0175177Y0222217D03*
X0175177Y0222617D03*
X0175277Y0222717D03*
X0174577Y0218517D03*
X0183777Y0217817D03*
X0183877Y0217917D03*
X0183877Y0218217D03*
X0187777Y0216917D03*
X0188177Y0214817D03*
X0187277Y0213417D03*
X0188777Y0212817D03*
X0186477Y0211917D03*
X0184777Y0213617D03*
X0188277Y0210117D03*
X0188177Y0205617D03*
X0188177Y0205517D03*
X0188277Y0205417D03*
X0188277Y0205317D03*
X0181077Y0204517D03*
X0180777Y0207917D03*
X0180677Y0208317D03*
X0179777Y0208917D03*
X0178977Y0209817D03*
X0176177Y0207517D03*
X0176077Y0207317D03*
X0175977Y0207117D03*
X0181377Y0197617D03*
X0181377Y0197517D03*
X0186177Y0196417D03*
X0189877Y0218217D03*
X0189877Y0218317D03*
X0189677Y0218617D03*
X0186577Y0228917D03*
X0183777Y0228617D03*
X0183577Y0228817D03*
X0182477Y0228817D03*
X0179677Y0228017D03*
X0178877Y0227817D03*
X0177977Y0227917D03*
X0177277Y0227517D03*
X0179477Y0229217D03*
X0179177Y0229717D03*
D21*
X0171577Y0200117D03*
X0195677Y0196417D03*
D22*
X0188477Y0204817D03*
X0188477Y0204917D03*
X0188377Y0205017D03*
X0186477Y0207817D03*
X0186977Y0209217D03*
X0186577Y0211717D03*
X0186477Y0211817D03*
X0185177Y0211917D03*
X0185877Y0213817D03*
X0186077Y0213917D03*
X0184177Y0214017D03*
X0182677Y0214617D03*
X0179577Y0209217D03*
X0179777Y0209017D03*
X0180577Y0208117D03*
X0180877Y0207817D03*
X0175777Y0206817D03*
X0175477Y0216617D03*
X0176477Y0218417D03*
X0176477Y0219117D03*
X0181177Y0218417D03*
X0188677Y0213017D03*
X0188377Y0211817D03*
X0189177Y0218017D03*
X0189077Y0220517D03*
X0181677Y0229017D03*
X0182477Y0229917D03*
X0179877Y0228117D03*
X0178677Y0228917D03*
X0186177Y0199917D03*
X0186277Y0199817D03*
X0186277Y0199717D03*
X0186377Y0197617D03*
X0185977Y0196717D03*
X0185977Y0196517D03*
D23*
X0195627Y0196517D03*
D24*
X0186127Y0196617D03*
X0186127Y0196817D03*
X0186127Y0196917D03*
X0186127Y0197117D03*
X0186127Y0197417D03*
X0186327Y0199417D03*
X0186327Y0199517D03*
X0180827Y0208017D03*
X0180427Y0208217D03*
X0175727Y0206517D03*
X0175727Y0206417D03*
X0182227Y0214217D03*
X0182327Y0214317D03*
X0185927Y0213617D03*
X0185327Y0212117D03*
X0188227Y0210217D03*
X0189827Y0219617D03*
X0182627Y0218217D03*
X0175727Y0217017D03*
X0177727Y0227817D03*
X0187527Y0229017D03*
X0187627Y0228917D03*
D25*
X0170377Y0196917D03*
X0170377Y0196817D03*
X0170377Y0196717D03*
D26*
X0195477Y0196917D03*
X0195577Y0196817D03*
X0195577Y0196717D03*
D27*
X0188077Y0197317D03*
X0187977Y0197417D03*
X0185277Y0198517D03*
X0184177Y0198517D03*
X0186277Y0200317D03*
X0186277Y0200417D03*
X0186177Y0200617D03*
X0181777Y0200617D03*
X0181677Y0200517D03*
X0181677Y0200417D03*
X0180177Y0197917D03*
X0180977Y0204717D03*
X0181077Y0205017D03*
X0181277Y0205117D03*
X0181177Y0205217D03*
X0180577Y0205217D03*
X0179977Y0205517D03*
X0179977Y0205917D03*
X0179777Y0206017D03*
X0179477Y0205917D03*
X0179377Y0206017D03*
X0179477Y0206217D03*
X0179177Y0206117D03*
X0179077Y0206217D03*
X0178877Y0206517D03*
X0178577Y0206817D03*
X0179477Y0206817D03*
X0179677Y0206617D03*
X0180277Y0206017D03*
X0179477Y0205617D03*
X0179177Y0205817D03*
X0180777Y0207017D03*
X0180077Y0208317D03*
X0178777Y0209917D03*
X0180877Y0212217D03*
X0181977Y0212717D03*
X0182177Y0212117D03*
X0184877Y0212717D03*
X0185877Y0214017D03*
X0187177Y0214817D03*
X0187177Y0216817D03*
X0188477Y0216917D03*
X0188477Y0217017D03*
X0190077Y0217817D03*
X0190077Y0217917D03*
X0191177Y0217917D03*
X0191177Y0217817D03*
X0190377Y0219017D03*
X0189877Y0219417D03*
X0190977Y0220317D03*
X0190977Y0220417D03*
X0191077Y0220717D03*
X0191077Y0220817D03*
X0191077Y0220917D03*
X0191077Y0221017D03*
X0191077Y0221217D03*
X0191177Y0221317D03*
X0191177Y0221417D03*
X0191177Y0222217D03*
X0191077Y0222417D03*
X0191077Y0222517D03*
X0191077Y0222617D03*
X0190977Y0223217D03*
X0185977Y0228917D03*
X0185677Y0228817D03*
X0185177Y0228717D03*
X0184577Y0228717D03*
X0184377Y0228917D03*
X0182177Y0229517D03*
X0181777Y0228617D03*
X0181577Y0228517D03*
X0181377Y0228317D03*
X0180577Y0228117D03*
X0180877Y0229017D03*
X0180977Y0229317D03*
X0180777Y0229917D03*
X0180477Y0230017D03*
X0180377Y0229917D03*
X0180077Y0230117D03*
X0179177Y0229817D03*
X0179077Y0229617D03*
X0179477Y0229317D03*
X0179577Y0229017D03*
X0179777Y0229117D03*
X0179477Y0228717D03*
X0179177Y0228517D03*
X0179177Y0229117D03*
X0177977Y0228217D03*
X0177177Y0227217D03*
X0176877Y0226817D03*
X0176477Y0226717D03*
X0176277Y0226417D03*
X0175977Y0225817D03*
X0175977Y0225617D03*
X0175977Y0225517D03*
X0175877Y0225217D03*
X0175677Y0224717D03*
X0175677Y0224617D03*
X0175577Y0224417D03*
X0175477Y0223817D03*
X0175777Y0222517D03*
X0175877Y0222217D03*
X0176277Y0222617D03*
X0176777Y0221517D03*
X0176777Y0221217D03*
X0176477Y0220417D03*
X0176377Y0220117D03*
X0175777Y0220417D03*
X0174777Y0220417D03*
X0174877Y0219917D03*
X0174877Y0221017D03*
X0174777Y0221117D03*
X0174877Y0221217D03*
X0174977Y0222317D03*
X0175977Y0219417D03*
X0176877Y0219217D03*
X0176477Y0217917D03*
X0175577Y0218217D03*
X0175377Y0218417D03*
X0175177Y0218517D03*
X0174477Y0217617D03*
X0174477Y0217517D03*
X0175377Y0216017D03*
X0175477Y0215917D03*
X0175577Y0215817D03*
X0175577Y0215717D03*
X0175677Y0215617D03*
X0176877Y0213317D03*
X0177177Y0213417D03*
X0180477Y0217917D03*
X0183077Y0217417D03*
X0184477Y0218317D03*
X0187877Y0212917D03*
X0187877Y0212817D03*
X0187477Y0212117D03*
X0187377Y0212017D03*
X0188977Y0212217D03*
X0189477Y0212917D03*
X0189477Y0213017D03*
X0189577Y0211217D03*
X0189577Y0211117D03*
X0189177Y0210117D03*
X0188477Y0209717D03*
X0188177Y0209217D03*
X0187577Y0209017D03*
X0187177Y0209417D03*
X0187477Y0208317D03*
X0186877Y0207617D03*
X0187677Y0207317D03*
X0187977Y0206117D03*
X0187077Y0205217D03*
X0185277Y0207817D03*
X0186177Y0208717D03*
X0185177Y0210217D03*
X0184677Y0210017D03*
X0184177Y0209917D03*
X0176677Y0227217D03*
X0181177Y0230017D03*
X0181077Y0230217D03*
X0203177Y0196717D03*
D28*
X0188027Y0206017D03*
X0187327Y0205917D03*
X0186227Y0207917D03*
X0186327Y0208017D03*
X0187427Y0208717D03*
X0187227Y0209317D03*
X0186727Y0209317D03*
X0188127Y0209317D03*
X0188227Y0209617D03*
X0188627Y0210017D03*
X0189027Y0212117D03*
X0188427Y0212417D03*
X0188427Y0212517D03*
X0188227Y0212317D03*
X0188227Y0212217D03*
X0187527Y0212517D03*
X0186627Y0213417D03*
X0184927Y0213417D03*
X0184727Y0213517D03*
X0184727Y0212917D03*
X0182627Y0214817D03*
X0183327Y0217517D03*
X0180627Y0218117D03*
X0180527Y0218017D03*
X0176727Y0219517D03*
X0176727Y0219617D03*
X0176427Y0219217D03*
X0176227Y0218117D03*
X0175427Y0218317D03*
X0174727Y0218817D03*
X0174827Y0220517D03*
X0174827Y0220717D03*
X0174927Y0220817D03*
X0176027Y0221217D03*
X0176327Y0221317D03*
X0176727Y0221017D03*
X0176727Y0220917D03*
X0176527Y0220817D03*
X0176227Y0222417D03*
X0176227Y0222517D03*
X0176327Y0222817D03*
X0176227Y0223117D03*
X0175327Y0222917D03*
X0175227Y0222817D03*
X0175327Y0223617D03*
X0175427Y0223717D03*
X0175527Y0223917D03*
X0175527Y0224017D03*
X0175827Y0225117D03*
X0175927Y0225317D03*
X0176827Y0227317D03*
X0178127Y0228417D03*
X0178227Y0228317D03*
X0178427Y0228217D03*
X0178727Y0228317D03*
X0179027Y0228117D03*
X0179227Y0228217D03*
X0179327Y0228317D03*
X0179527Y0228417D03*
X0180127Y0228317D03*
X0180727Y0228317D03*
X0181027Y0229417D03*
X0180627Y0229817D03*
X0180327Y0229717D03*
X0179927Y0229317D03*
X0178927Y0229017D03*
X0178727Y0227717D03*
X0181827Y0229317D03*
X0182027Y0229417D03*
X0182427Y0229017D03*
X0182927Y0228617D03*
X0184927Y0229317D03*
X0185527Y0228917D03*
X0185927Y0228717D03*
X0188027Y0228617D03*
X0191027Y0220217D03*
X0191027Y0220117D03*
X0191027Y0220017D03*
X0191027Y0219817D03*
X0190127Y0219317D03*
X0190027Y0218017D03*
X0191127Y0218017D03*
X0191127Y0218117D03*
X0191127Y0218217D03*
X0188527Y0217717D03*
X0184827Y0207717D03*
X0182827Y0203917D03*
X0180827Y0204617D03*
X0180527Y0205017D03*
X0180527Y0205317D03*
X0180427Y0205517D03*
X0180427Y0205617D03*
X0179727Y0205817D03*
X0179627Y0206717D03*
X0179227Y0207217D03*
X0179827Y0208517D03*
X0179827Y0208617D03*
X0179727Y0208717D03*
X0180327Y0208717D03*
X0180427Y0208517D03*
X0179027Y0209617D03*
X0176527Y0208017D03*
X0176527Y0207917D03*
X0175327Y0216117D03*
X0180427Y0198217D03*
X0180327Y0198117D03*
X0180227Y0198017D03*
X0181627Y0196917D03*
X0183027Y0198117D03*
X0183427Y0198217D03*
X0183627Y0198317D03*
X0185627Y0197617D03*
D29*
X0170327Y0197217D03*
X0170327Y0197117D03*
X0170327Y0197017D03*
D30*
X0181477Y0197217D03*
X0181577Y0197017D03*
X0182677Y0197817D03*
X0182677Y0197917D03*
X0183877Y0198417D03*
X0181577Y0200117D03*
X0181677Y0200317D03*
X0186277Y0200217D03*
X0186077Y0203717D03*
X0186177Y0203817D03*
X0188077Y0205817D03*
X0188077Y0205917D03*
X0186877Y0207917D03*
X0186877Y0208017D03*
X0185177Y0207917D03*
X0186577Y0210217D03*
X0186677Y0210517D03*
X0188077Y0210017D03*
X0188377Y0209817D03*
X0188077Y0209517D03*
X0187177Y0211917D03*
X0188177Y0212117D03*
X0188977Y0212717D03*
X0188177Y0214917D03*
X0187077Y0214917D03*
X0184877Y0213317D03*
X0182077Y0212217D03*
X0179777Y0209517D03*
X0179277Y0209417D03*
X0179177Y0209517D03*
X0180377Y0208617D03*
X0179877Y0205317D03*
X0176377Y0207817D03*
X0175877Y0217417D03*
X0176277Y0218217D03*
X0176277Y0218317D03*
X0176277Y0218517D03*
X0176477Y0219317D03*
X0176777Y0219717D03*
X0176477Y0220617D03*
X0176777Y0220717D03*
X0176577Y0221817D03*
X0175477Y0221517D03*
X0175377Y0223017D03*
X0175377Y0223117D03*
X0175577Y0224117D03*
X0176177Y0225917D03*
X0177477Y0227017D03*
X0177477Y0228017D03*
X0178477Y0227617D03*
X0178377Y0228617D03*
X0179777Y0229417D03*
X0180177Y0229617D03*
X0180777Y0230117D03*
X0181877Y0230017D03*
X0181577Y0229217D03*
X0180777Y0228617D03*
X0183177Y0228717D03*
X0183777Y0228717D03*
X0180777Y0218217D03*
X0183477Y0217617D03*
X0190977Y0219117D03*
X0190977Y0219217D03*
X0190977Y0219317D03*
X0190977Y0219417D03*
X0190977Y0219517D03*
X0190977Y0219617D03*
X0190977Y0219717D03*
X0190977Y0219917D03*
X0191077Y0218917D03*
X0191077Y0218817D03*
X0191077Y0218717D03*
X0191077Y0218617D03*
X0191177Y0218317D03*
X0174477Y0218217D03*
X0174477Y0218117D03*
X0174477Y0218017D03*
X0174477Y0217917D03*
X0174477Y0217817D03*
X0174477Y0217717D03*
D31*
X0181377Y0213117D03*
X0181777Y0213317D03*
X0182177Y0214017D03*
X0182377Y0214417D03*
X0186377Y0210617D03*
X0185777Y0209317D03*
X0185777Y0209217D03*
X0184877Y0207317D03*
X0186177Y0205217D03*
X0188677Y0204617D03*
X0188377Y0210517D03*
X0188377Y0210617D03*
X0188477Y0210717D03*
X0188477Y0214317D03*
X0188477Y0214417D03*
X0184577Y0219317D03*
X0177177Y0227117D03*
X0177777Y0227717D03*
X0181377Y0207517D03*
X0182377Y0204517D03*
X0181477Y0199317D03*
X0186177Y0197517D03*
X0186177Y0197317D03*
X0186177Y0197217D03*
X0186077Y0197017D03*
X0175677Y0206317D03*
D32*
X0195577Y0197117D03*
X0195577Y0197017D03*
D33*
X0188127Y0205717D03*
X0188427Y0209917D03*
X0184727Y0209917D03*
X0185027Y0213217D03*
X0182727Y0214717D03*
X0181027Y0212317D03*
X0179027Y0209717D03*
X0179327Y0209317D03*
X0179527Y0209117D03*
X0179727Y0208817D03*
X0176327Y0207717D03*
X0176227Y0207617D03*
X0176127Y0207417D03*
X0175327Y0216217D03*
X0175327Y0216317D03*
X0175427Y0216417D03*
X0174527Y0218317D03*
X0174527Y0218417D03*
X0174927Y0220917D03*
X0175327Y0221117D03*
X0175427Y0221217D03*
X0175427Y0221417D03*
X0176127Y0221417D03*
X0176627Y0221617D03*
X0176527Y0220017D03*
X0175227Y0222417D03*
X0175127Y0222517D03*
X0175427Y0223217D03*
X0175527Y0223317D03*
X0175427Y0223517D03*
X0176727Y0226917D03*
X0176827Y0227017D03*
X0177727Y0227217D03*
X0177827Y0227317D03*
X0178227Y0228017D03*
X0178327Y0228517D03*
X0179027Y0228817D03*
X0180827Y0228217D03*
X0181927Y0228417D03*
X0181427Y0229817D03*
X0181627Y0229917D03*
X0184927Y0228917D03*
X0185027Y0228817D03*
X0187927Y0228717D03*
X0191027Y0219017D03*
X0191127Y0218517D03*
X0191127Y0218417D03*
X0189827Y0218417D03*
X0183827Y0218017D03*
X0183627Y0218117D03*
X0183727Y0217717D03*
X0180927Y0218317D03*
X0181627Y0200217D03*
X0181527Y0200017D03*
X0181527Y0199917D03*
X0181427Y0197417D03*
X0181427Y0197317D03*
X0181527Y0197117D03*
X0186227Y0200117D03*
D34*
X0195427Y0197417D03*
X0195527Y0197317D03*
X0195527Y0197217D03*
D35*
X0170377Y0197317D03*
D36*
X0170327Y0197417D03*
D37*
X0170377Y0197517D03*
D38*
X0175927Y0206917D03*
X0175927Y0207017D03*
X0176027Y0207217D03*
X0179927Y0205417D03*
X0180627Y0205117D03*
X0181527Y0199817D03*
X0181327Y0197817D03*
X0181327Y0197717D03*
X0186227Y0200017D03*
X0187527Y0197717D03*
X0187627Y0197617D03*
X0187627Y0197517D03*
X0188327Y0205117D03*
X0188327Y0205217D03*
X0186227Y0210117D03*
X0185227Y0211817D03*
X0187127Y0213717D03*
X0188727Y0212917D03*
X0188627Y0217117D03*
X0189727Y0218517D03*
X0182227Y0212017D03*
X0181127Y0212417D03*
X0175827Y0217217D03*
X0175827Y0217317D03*
X0176427Y0218617D03*
X0176427Y0218817D03*
X0176427Y0218917D03*
X0176427Y0219017D03*
X0174727Y0218717D03*
X0176627Y0221117D03*
X0175527Y0223417D03*
X0178227Y0227517D03*
X0180027Y0228217D03*
X0182227Y0230117D03*
X0183327Y0229517D03*
D39*
X0171777Y0200417D03*
X0195377Y0197517D03*
D40*
X0170427Y0197617D03*
D41*
X0195327Y0197617D03*
D42*
X0170477Y0197717D03*
D43*
X0181477Y0199117D03*
X0186177Y0197717D03*
X0185977Y0204417D03*
X0186177Y0204617D03*
X0186277Y0204817D03*
X0186277Y0204917D03*
X0186577Y0205517D03*
X0188777Y0204517D03*
X0185677Y0209117D03*
X0185877Y0209917D03*
X0186477Y0210717D03*
X0188277Y0210317D03*
X0188577Y0211617D03*
X0188777Y0213217D03*
X0188577Y0214217D03*
X0187477Y0217617D03*
X0183977Y0218517D03*
X0183877Y0218717D03*
X0182077Y0214117D03*
X0182077Y0213817D03*
X0181877Y0213717D03*
X0181477Y0212917D03*
X0180477Y0208417D03*
X0181277Y0207617D03*
X0175977Y0221717D03*
X0181677Y0229117D03*
D44*
X0195227Y0197817D03*
X0195327Y0197717D03*
D45*
X0170527Y0197817D03*
D46*
X0181577Y0198417D03*
X0184577Y0203817D03*
X0186677Y0197817D03*
X0186177Y0210817D03*
X0186177Y0213017D03*
X0186677Y0213217D03*
X0187877Y0218417D03*
X0187977Y0218617D03*
X0188977Y0220217D03*
X0184077Y0219517D03*
X0183777Y0220017D03*
D47*
X0170427Y0197917D03*
D48*
X0175627Y0206217D03*
X0181027Y0207717D03*
X0182227Y0203817D03*
X0182327Y0203717D03*
X0182527Y0203617D03*
X0186127Y0204517D03*
X0186227Y0204717D03*
X0186227Y0207717D03*
X0185927Y0208917D03*
X0188527Y0211917D03*
X0188527Y0212017D03*
X0182027Y0213917D03*
X0181527Y0213217D03*
X0181127Y0212817D03*
X0183927Y0220217D03*
X0175527Y0221817D03*
X0175527Y0221917D03*
X0177527Y0227417D03*
X0181527Y0199217D03*
X0181527Y0197917D03*
X0186327Y0199217D03*
X0186327Y0199317D03*
D49*
X0186527Y0198117D03*
X0186627Y0197917D03*
X0184527Y0203717D03*
X0187827Y0218217D03*
X0187827Y0218317D03*
X0187927Y0218517D03*
X0183927Y0219617D03*
X0186527Y0229317D03*
D50*
X0195177Y0197917D03*
D51*
X0170477Y0198017D03*
D52*
X0175477Y0205817D03*
X0181577Y0198917D03*
X0181477Y0198817D03*
X0181477Y0198717D03*
X0181777Y0198117D03*
X0181777Y0198017D03*
X0186477Y0198517D03*
X0186477Y0198617D03*
X0186177Y0205017D03*
X0185677Y0207617D03*
X0188677Y0213917D03*
X0187477Y0217517D03*
X0187577Y0217917D03*
X0188177Y0219617D03*
X0184277Y0219417D03*
D53*
X0183077Y0218317D03*
X0186477Y0213317D03*
X0186277Y0212917D03*
X0186277Y0212717D03*
X0189177Y0204017D03*
X0184177Y0202617D03*
X0186377Y0198417D03*
X0186377Y0198317D03*
X0186477Y0198217D03*
X0186577Y0198017D03*
X0181477Y0198517D03*
X0175477Y0205517D03*
X0182377Y0229717D03*
D54*
X0195027Y0198017D03*
D55*
X0170527Y0198117D03*
D56*
X0194977Y0198117D03*
D57*
X0170527Y0198217D03*
D58*
X0175477Y0205717D03*
X0181477Y0198617D03*
X0181777Y0198217D03*
X0182277Y0204117D03*
X0181877Y0207117D03*
X0185577Y0209417D03*
X0189077Y0204217D03*
X0187877Y0219117D03*
X0189177Y0220317D03*
X0183977Y0219217D03*
X0183777Y0220117D03*
X0186777Y0229217D03*
D59*
X0172027Y0200817D03*
X0194927Y0198217D03*
D60*
X0170577Y0198317D03*
D61*
X0181527Y0198317D03*
X0184227Y0202717D03*
X0189327Y0203917D03*
X0186327Y0212817D03*
X0188327Y0218917D03*
X0188127Y0219017D03*
X0183527Y0219117D03*
X0183227Y0219017D03*
D62*
X0172077Y0200917D03*
X0194877Y0198317D03*
D63*
X0170577Y0198417D03*
D64*
X0194827Y0198417D03*
D65*
X0170627Y0198517D03*
D66*
X0172077Y0201017D03*
X0194777Y0198517D03*
D67*
X0170677Y0198617D03*
D68*
X0175827Y0206717D03*
X0181227Y0212517D03*
X0181227Y0213017D03*
X0182527Y0214517D03*
X0184327Y0213917D03*
X0184527Y0213717D03*
X0185827Y0213517D03*
X0185827Y0213417D03*
X0185227Y0212017D03*
X0185227Y0210117D03*
X0186427Y0208817D03*
X0187027Y0209117D03*
X0188327Y0214717D03*
X0182427Y0203517D03*
X0181627Y0199717D03*
X0181527Y0199517D03*
X0184827Y0198617D03*
X0186327Y0199617D03*
X0175527Y0216717D03*
X0175627Y0216817D03*
X0175827Y0217117D03*
X0174727Y0218617D03*
X0175227Y0221317D03*
X0177527Y0227617D03*
X0178127Y0228117D03*
X0182827Y0229417D03*
D69*
X0194677Y0198617D03*
D70*
X0170727Y0198717D03*
D71*
X0182127Y0204417D03*
X0188927Y0204317D03*
X0186427Y0198717D03*
X0188727Y0213417D03*
X0188827Y0213717D03*
X0187627Y0217417D03*
X0187527Y0217817D03*
X0187627Y0219217D03*
X0187727Y0219317D03*
X0182127Y0218717D03*
X0183227Y0228917D03*
X0183227Y0229317D03*
X0187427Y0228817D03*
D72*
X0194627Y0198717D03*
D73*
X0170777Y0198817D03*
D74*
X0175577Y0205917D03*
X0175577Y0206017D03*
X0181277Y0207417D03*
X0181477Y0207317D03*
X0182277Y0204217D03*
X0183977Y0204317D03*
X0186377Y0198917D03*
X0186377Y0198817D03*
X0188277Y0210417D03*
X0188577Y0213317D03*
X0188777Y0213817D03*
X0182877Y0211817D03*
X0182677Y0211917D03*
X0181677Y0213517D03*
X0181777Y0213617D03*
X0183877Y0218417D03*
D75*
X0194527Y0198817D03*
D76*
X0170777Y0198917D03*
D77*
X0194477Y0198917D03*
D78*
X0170877Y0199017D03*
D79*
X0175627Y0206117D03*
X0181427Y0199017D03*
X0186327Y0199017D03*
X0186327Y0199117D03*
X0185927Y0204317D03*
X0188827Y0204417D03*
X0186427Y0207317D03*
X0185827Y0210017D03*
X0188327Y0210817D03*
X0188527Y0214017D03*
X0188527Y0214117D03*
X0187427Y0217717D03*
X0187427Y0218017D03*
X0188927Y0220417D03*
X0183927Y0218617D03*
X0175527Y0222117D03*
D80*
X0172477Y0201217D03*
X0194277Y0199117D03*
X0194377Y0199017D03*
D81*
X0170877Y0199117D03*
D82*
X0170927Y0199217D03*
D83*
X0194177Y0199217D03*
D84*
X0171027Y0199317D03*
D85*
X0194077Y0199317D03*
D86*
X0170977Y0199417D03*
D87*
X0172627Y0201417D03*
X0194027Y0199417D03*
D88*
X0171077Y0199517D03*
D89*
X0193927Y0199517D03*
D90*
X0171077Y0199617D03*
D91*
X0172677Y0201517D03*
X0193777Y0199617D03*
D92*
X0171227Y0199717D03*
D93*
X0193727Y0199717D03*
D94*
X0171277Y0199817D03*
D95*
X0193627Y0199817D03*
D96*
X0171427Y0199917D03*
D97*
X0193527Y0199917D03*
D98*
X0171477Y0200017D03*
D99*
X0193427Y0200017D03*
D100*
X0193327Y0200117D03*
X0173027Y0201917D03*
D101*
X0171627Y0200217D03*
D102*
X0193227Y0200217D03*
D103*
X0171727Y0200317D03*
D104*
X0173127Y0202117D03*
X0193127Y0200317D03*
D105*
X0193027Y0200417D03*
X0173227Y0202217D03*
D106*
X0171877Y0200517D03*
D107*
X0192977Y0200517D03*
D108*
X0171927Y0200617D03*
D109*
X0192877Y0200617D03*
D110*
X0171977Y0200717D03*
D111*
X0192777Y0200717D03*
D112*
X0192627Y0200817D03*
X0173327Y0202417D03*
D113*
X0173427Y0202517D03*
X0192527Y0200917D03*
D114*
X0192477Y0201017D03*
X0192377Y0201117D03*
D115*
X0172277Y0201117D03*
D116*
X0173577Y0202717D03*
X0192277Y0201217D03*
D117*
X0172527Y0201317D03*
D118*
X0173577Y0202917D03*
X0192177Y0201317D03*
D119*
X0192077Y0201417D03*
X0173677Y0203017D03*
D120*
X0191977Y0201517D03*
D121*
X0172777Y0201617D03*
D122*
X0191927Y0201617D03*
D123*
X0172777Y0201717D03*
D124*
X0191827Y0201717D03*
D125*
X0172977Y0201817D03*
D126*
X0191727Y0201817D03*
D127*
X0191627Y0201917D03*
X0184127Y0206617D03*
X0184127Y0206717D03*
D128*
X0173077Y0202017D03*
D129*
X0174027Y0203517D03*
X0184127Y0206217D03*
X0184127Y0206417D03*
X0184127Y0206517D03*
X0191527Y0202017D03*
D130*
X0191427Y0202117D03*
X0184227Y0206017D03*
D131*
X0191277Y0202217D03*
D132*
X0173327Y0202317D03*
D133*
X0174427Y0203917D03*
X0191027Y0202317D03*
D134*
X0190977Y0202417D03*
X0186277Y0211317D03*
X0186077Y0211417D03*
X0184477Y0229617D03*
D135*
X0190827Y0202517D03*
D136*
X0173527Y0202617D03*
D137*
X0174577Y0204117D03*
X0186377Y0211217D03*
X0190777Y0202617D03*
X0185377Y0229117D03*
D138*
X0174677Y0204217D03*
X0190577Y0202717D03*
D139*
X0173627Y0202817D03*
D140*
X0175327Y0205217D03*
X0183927Y0211717D03*
X0185527Y0209617D03*
X0184227Y0202817D03*
X0183727Y0219817D03*
X0188527Y0219517D03*
D141*
X0190477Y0202817D03*
D142*
X0184227Y0202917D03*
X0185427Y0209817D03*
X0186227Y0212417D03*
X0188227Y0218817D03*
X0188727Y0220117D03*
X0175227Y0205117D03*
D143*
X0174827Y0204317D03*
X0185427Y0207117D03*
X0186827Y0211017D03*
X0190427Y0203017D03*
X0190427Y0202917D03*
D144*
X0184177Y0203017D03*
X0188877Y0219717D03*
X0188877Y0219817D03*
X0188777Y0219917D03*
D145*
X0173777Y0203117D03*
D146*
X0175077Y0204817D03*
X0183377Y0205017D03*
X0184177Y0203117D03*
D147*
X0190227Y0203117D03*
X0184927Y0211617D03*
X0185627Y0229417D03*
D148*
X0173827Y0203217D03*
D149*
X0183327Y0204917D03*
X0184127Y0203217D03*
X0185927Y0207217D03*
X0189727Y0203517D03*
X0185427Y0229717D03*
X0184827Y0230117D03*
D150*
X0184677Y0230017D03*
X0184777Y0229017D03*
X0183277Y0204717D03*
X0183177Y0204617D03*
X0184077Y0203417D03*
X0190077Y0203217D03*
X0174977Y0204517D03*
D151*
X0173877Y0203317D03*
D152*
X0184077Y0203317D03*
X0189977Y0203317D03*
X0184977Y0229917D03*
D153*
X0184077Y0206817D03*
X0173977Y0203417D03*
D154*
X0175027Y0204617D03*
X0188427Y0218117D03*
X0185727Y0229517D03*
X0189827Y0203417D03*
D155*
X0184827Y0203917D03*
X0184627Y0203517D03*
X0186527Y0212617D03*
X0183027Y0218817D03*
X0175227Y0205017D03*
D156*
X0174077Y0203617D03*
X0184077Y0205717D03*
X0184177Y0206117D03*
X0184177Y0206317D03*
X0184277Y0206917D03*
D157*
X0185777Y0207417D03*
X0185777Y0207517D03*
X0185477Y0209717D03*
X0186277Y0212217D03*
X0186277Y0212317D03*
X0183177Y0218917D03*
X0184777Y0203617D03*
X0189477Y0203817D03*
D158*
X0189627Y0203617D03*
X0184927Y0204217D03*
X0184727Y0204017D03*
X0175127Y0204917D03*
X0183727Y0229217D03*
D159*
X0184227Y0205817D03*
X0174227Y0203717D03*
D160*
X0184977Y0204117D03*
X0189577Y0203717D03*
X0186277Y0213117D03*
X0188177Y0213617D03*
X0188377Y0218717D03*
X0188777Y0220017D03*
D161*
X0174277Y0203817D03*
D162*
X0174477Y0204017D03*
D163*
X0175527Y0205417D03*
X0175427Y0205617D03*
X0181827Y0207217D03*
X0182127Y0207017D03*
X0184227Y0204517D03*
X0186227Y0209017D03*
X0186127Y0212517D03*
X0187827Y0217217D03*
X0189127Y0204117D03*
D164*
X0184127Y0204417D03*
X0182027Y0204317D03*
X0188827Y0213517D03*
X0187727Y0217317D03*
X0187827Y0219417D03*
X0182027Y0218617D03*
X0181927Y0218517D03*
D165*
X0184177Y0230217D03*
X0174877Y0204417D03*
D166*
X0175077Y0204717D03*
D167*
X0182827Y0204817D03*
D168*
X0184427Y0205117D03*
D169*
X0183427Y0205217D03*
X0183427Y0205517D03*
D170*
X0185877Y0209517D03*
X0183777Y0219717D03*
X0183777Y0219917D03*
X0175277Y0205317D03*
D171*
X0184077Y0205917D03*
X0184377Y0205417D03*
X0184377Y0205317D03*
D172*
X0184327Y0205617D03*
D173*
X0185527Y0207017D03*
X0186927Y0210917D03*
D174*
X0186627Y0211117D03*
D175*
X0186027Y0211517D03*
D176*
X0184477Y0229817D03*
D177*
X0213463Y0152662D02*
X0213463Y0152422D01*
D178*
X0208785Y0157363D02*
X0219021Y0157363D01*
X0219022Y0157363D02*
X0219024Y0157417D01*
X0219029Y0157470D01*
X0219038Y0157523D01*
X0219051Y0157575D01*
X0219067Y0157627D01*
X0219087Y0157677D01*
X0219110Y0157725D01*
X0219137Y0157772D01*
X0219166Y0157817D01*
X0219199Y0157860D01*
X0219234Y0157900D01*
X0219272Y0157938D01*
X0219312Y0157973D01*
X0219355Y0158006D01*
X0219400Y0158035D01*
X0219447Y0158062D01*
X0219495Y0158085D01*
X0219545Y0158105D01*
X0219597Y0158121D01*
X0219649Y0158134D01*
X0219702Y0158143D01*
X0219755Y0158148D01*
X0219809Y0158150D01*
X0208785Y0157363D02*
X0208783Y0157417D01*
X0208778Y0157470D01*
X0208769Y0157523D01*
X0208756Y0157575D01*
X0208740Y0157627D01*
X0208720Y0157677D01*
X0208697Y0157725D01*
X0208670Y0157772D01*
X0208641Y0157817D01*
X0208608Y0157860D01*
X0208573Y0157900D01*
X0208535Y0157938D01*
X0208495Y0157973D01*
X0208452Y0158006D01*
X0208407Y0158035D01*
X0208360Y0158062D01*
X0208312Y0158085D01*
X0208262Y0158105D01*
X0208210Y0158121D01*
X0208158Y0158134D01*
X0208105Y0158143D01*
X0208052Y0158148D01*
X0207998Y0158150D01*
X0207998Y0175474D02*
X0208052Y0175476D01*
X0208105Y0175481D01*
X0208158Y0175490D01*
X0208210Y0175503D01*
X0208262Y0175519D01*
X0208312Y0175539D01*
X0208360Y0175562D01*
X0208407Y0175589D01*
X0208452Y0175618D01*
X0208495Y0175651D01*
X0208535Y0175686D01*
X0208573Y0175724D01*
X0208608Y0175764D01*
X0208641Y0175807D01*
X0208670Y0175852D01*
X0208697Y0175899D01*
X0208720Y0175947D01*
X0208740Y0175997D01*
X0208756Y0176049D01*
X0208769Y0176101D01*
X0208778Y0176154D01*
X0208783Y0176207D01*
X0208785Y0176261D01*
X0219021Y0176261D01*
X0219022Y0176261D02*
X0219024Y0176207D01*
X0219029Y0176154D01*
X0219038Y0176101D01*
X0219051Y0176049D01*
X0219067Y0175997D01*
X0219087Y0175947D01*
X0219110Y0175899D01*
X0219137Y0175852D01*
X0219166Y0175807D01*
X0219199Y0175764D01*
X0219234Y0175724D01*
X0219272Y0175686D01*
X0219312Y0175651D01*
X0219355Y0175618D01*
X0219400Y0175589D01*
X0219447Y0175562D01*
X0219495Y0175539D01*
X0219545Y0175519D01*
X0219597Y0175503D01*
X0219649Y0175490D01*
X0219702Y0175481D01*
X0219755Y0175476D01*
X0219809Y0175474D01*
X0150100Y0200618D02*
X0150100Y0205618D01*
X0147600Y0208118D01*
X0142600Y0208118D01*
X0140100Y0205618D01*
X0137600Y0208118D01*
X0132600Y0208118D01*
X0130100Y0205618D01*
X0127600Y0208118D01*
X0122600Y0208118D01*
X0120100Y0205618D01*
X0117600Y0208118D01*
X0112600Y0208118D01*
X0110100Y0205618D01*
X0107600Y0208118D01*
X0102600Y0208118D01*
X0100100Y0205618D01*
X0097600Y0208118D01*
X0092600Y0208118D01*
X0090100Y0205618D01*
X0087600Y0208118D01*
X0082600Y0208118D01*
X0080100Y0205618D01*
X0080100Y0200618D01*
X0082600Y0198118D01*
X0087600Y0198118D01*
X0090100Y0200618D01*
X0092600Y0198118D01*
X0097600Y0198118D01*
X0100100Y0200618D01*
X0102600Y0198118D01*
X0107600Y0198118D01*
X0110100Y0200618D01*
X0112600Y0198118D01*
X0117600Y0198118D01*
X0120100Y0200618D01*
X0122600Y0198118D01*
X0127600Y0198118D01*
X0130100Y0200618D01*
X0132600Y0198118D01*
X0137600Y0198118D01*
X0140100Y0200618D01*
X0142600Y0198118D01*
X0147600Y0198118D01*
X0150100Y0200618D01*
X0040958Y0094525D02*
X0032848Y0094525D01*
X0032848Y0084289D02*
X0040958Y0084289D01*
X0029511Y0227821D02*
X0029511Y0229632D01*
X0030732Y0230552D01*
X0029511Y0231443D02*
X0029511Y0229632D01*
X0029572Y0229532D02*
X0030732Y0228772D01*
X0029685Y0235469D02*
X0029685Y0237280D01*
X0030905Y0238200D01*
X0029685Y0239091D02*
X0029685Y0237280D01*
X0029745Y0237180D02*
X0030905Y0236420D01*
X0029612Y0243173D02*
X0029612Y0244984D01*
X0030832Y0245905D01*
X0029612Y0246795D02*
X0029612Y0244984D01*
X0029673Y0244884D02*
X0030832Y0244124D01*
X0029682Y0251041D02*
X0029682Y0252852D01*
X0030903Y0253772D01*
X0029682Y0254663D02*
X0029682Y0252852D01*
X0029743Y0252752D02*
X0030903Y0251992D01*
D179*
X0050747Y0195883D03*
X0051062Y0158573D03*
X0164629Y0067175D03*
D180*
X0153911Y0043421D03*
X0044326Y0228812D03*
X0044410Y0236865D03*
X0044404Y0244903D03*
X0044372Y0252995D03*
D181*
X0019259Y0026654D02*
X0019259Y0005000D01*
X0019259Y0061575D02*
X0010400Y0061575D01*
X0019259Y0061693D02*
X0019259Y0083740D01*
X0225951Y0083740D01*
X0225951Y0061102D01*
X0225951Y0061181D02*
X0234810Y0061181D01*
X0225755Y0026654D02*
X0225755Y0005000D01*
X0172649Y0075536D02*
X0171147Y0075536D01*
X0170397Y0076287D01*
X0170397Y0077788D01*
X0172649Y0077788D01*
X0173399Y0077038D01*
X0173399Y0076287D01*
X0172649Y0075536D01*
X0170397Y0077788D02*
X0171898Y0079290D01*
X0173399Y0080040D01*
X0167294Y0080040D02*
X0167294Y0075536D01*
X0165793Y0075536D02*
X0168795Y0075536D01*
X0165793Y0078539D02*
X0167294Y0080040D01*
X0169693Y0107580D02*
X0168942Y0108330D01*
X0168942Y0109832D01*
X0169693Y0110582D01*
X0171194Y0110582D01*
X0171194Y0108330D01*
X0170444Y0107580D01*
X0169693Y0107580D01*
X0172695Y0109081D02*
X0171194Y0110582D01*
X0172695Y0109081D02*
X0173446Y0107580D01*
X0173446Y0113685D02*
X0168942Y0113685D01*
X0168942Y0115186D02*
X0168942Y0112184D01*
X0171945Y0115186D02*
X0173446Y0113685D01*
X0161602Y0119377D02*
X0106484Y0119377D01*
X0106484Y0174495D01*
X0161602Y0174495D01*
X0161602Y0119377D01*
X0155696Y0123314D02*
X0155698Y0123402D01*
X0155704Y0123490D01*
X0155714Y0123578D01*
X0155728Y0123666D01*
X0155745Y0123752D01*
X0155767Y0123838D01*
X0155792Y0123922D01*
X0155822Y0124006D01*
X0155854Y0124088D01*
X0155891Y0124168D01*
X0155931Y0124247D01*
X0155975Y0124324D01*
X0156022Y0124399D01*
X0156072Y0124471D01*
X0156126Y0124542D01*
X0156182Y0124609D01*
X0156242Y0124675D01*
X0156304Y0124737D01*
X0156370Y0124797D01*
X0156437Y0124853D01*
X0156508Y0124907D01*
X0156580Y0124957D01*
X0156655Y0125004D01*
X0156732Y0125048D01*
X0156811Y0125088D01*
X0156891Y0125125D01*
X0156973Y0125157D01*
X0157057Y0125187D01*
X0157141Y0125212D01*
X0157227Y0125234D01*
X0157313Y0125251D01*
X0157401Y0125265D01*
X0157489Y0125275D01*
X0157577Y0125281D01*
X0157665Y0125283D01*
X0157753Y0125281D01*
X0157841Y0125275D01*
X0157929Y0125265D01*
X0158017Y0125251D01*
X0158103Y0125234D01*
X0158189Y0125212D01*
X0158273Y0125187D01*
X0158357Y0125157D01*
X0158439Y0125125D01*
X0158519Y0125088D01*
X0158598Y0125048D01*
X0158675Y0125004D01*
X0158750Y0124957D01*
X0158822Y0124907D01*
X0158893Y0124853D01*
X0158960Y0124797D01*
X0159026Y0124737D01*
X0159088Y0124675D01*
X0159148Y0124609D01*
X0159204Y0124542D01*
X0159258Y0124471D01*
X0159308Y0124399D01*
X0159355Y0124324D01*
X0159399Y0124247D01*
X0159439Y0124168D01*
X0159476Y0124088D01*
X0159508Y0124006D01*
X0159538Y0123922D01*
X0159563Y0123838D01*
X0159585Y0123752D01*
X0159602Y0123666D01*
X0159616Y0123578D01*
X0159626Y0123490D01*
X0159632Y0123402D01*
X0159634Y0123314D01*
X0159632Y0123226D01*
X0159626Y0123138D01*
X0159616Y0123050D01*
X0159602Y0122962D01*
X0159585Y0122876D01*
X0159563Y0122790D01*
X0159538Y0122706D01*
X0159508Y0122622D01*
X0159476Y0122540D01*
X0159439Y0122460D01*
X0159399Y0122381D01*
X0159355Y0122304D01*
X0159308Y0122229D01*
X0159258Y0122157D01*
X0159204Y0122086D01*
X0159148Y0122019D01*
X0159088Y0121953D01*
X0159026Y0121891D01*
X0158960Y0121831D01*
X0158893Y0121775D01*
X0158822Y0121721D01*
X0158750Y0121671D01*
X0158675Y0121624D01*
X0158598Y0121580D01*
X0158519Y0121540D01*
X0158439Y0121503D01*
X0158357Y0121471D01*
X0158273Y0121441D01*
X0158189Y0121416D01*
X0158103Y0121394D01*
X0158017Y0121377D01*
X0157929Y0121363D01*
X0157841Y0121353D01*
X0157753Y0121347D01*
X0157665Y0121345D01*
X0157577Y0121347D01*
X0157489Y0121353D01*
X0157401Y0121363D01*
X0157313Y0121377D01*
X0157227Y0121394D01*
X0157141Y0121416D01*
X0157057Y0121441D01*
X0156973Y0121471D01*
X0156891Y0121503D01*
X0156811Y0121540D01*
X0156732Y0121580D01*
X0156655Y0121624D01*
X0156580Y0121671D01*
X0156508Y0121721D01*
X0156437Y0121775D01*
X0156370Y0121831D01*
X0156304Y0121891D01*
X0156242Y0121953D01*
X0156182Y0122019D01*
X0156126Y0122086D01*
X0156072Y0122157D01*
X0156022Y0122229D01*
X0155975Y0122304D01*
X0155931Y0122381D01*
X0155891Y0122460D01*
X0155854Y0122540D01*
X0155822Y0122622D01*
X0155792Y0122706D01*
X0155767Y0122790D01*
X0155745Y0122876D01*
X0155728Y0122962D01*
X0155714Y0123050D01*
X0155704Y0123138D01*
X0155698Y0123226D01*
X0155696Y0123314D01*
X0200942Y0180184D02*
X0200942Y0183186D01*
X0200942Y0181685D02*
X0205446Y0181685D01*
X0203945Y0183186D01*
X0100795Y0107536D02*
X0097793Y0107536D01*
X0099294Y0107536D02*
X0099294Y0112040D01*
X0097793Y0110539D01*
X0067143Y0109481D02*
X0067143Y0106478D01*
X0067143Y0107979D02*
X0062639Y0107979D01*
X0064141Y0106478D01*
X0064891Y0111082D02*
X0063390Y0112583D01*
X0062639Y0114085D01*
X0064891Y0113334D02*
X0064891Y0111082D01*
X0066392Y0111082D01*
X0067143Y0111833D01*
X0067143Y0113334D01*
X0066392Y0114085D01*
X0065642Y0114085D01*
X0064891Y0113334D01*
X0096141Y0179082D02*
X0094639Y0180583D01*
X0099143Y0180583D01*
X0099143Y0179082D02*
X0099143Y0182085D01*
X0043468Y0265844D02*
X0019846Y0265844D01*
X0019846Y0285529D01*
X0043468Y0285529D02*
X0043468Y0265844D01*
D182*
X0141444Y0164638D02*
X0143746Y0162336D01*
X0143746Y0165405D01*
X0146048Y0164638D02*
X0141444Y0164638D01*
X0141444Y0160801D02*
X0141444Y0157732D01*
X0146048Y0157732D01*
X0146048Y0156197D02*
X0146048Y0153128D01*
X0142978Y0156197D01*
X0142211Y0156197D01*
X0141444Y0155430D01*
X0141444Y0153895D01*
X0142211Y0153128D01*
X0142211Y0151593D02*
X0142978Y0151593D01*
X0143746Y0150826D01*
X0144513Y0151593D01*
X0145280Y0151593D01*
X0146048Y0150826D01*
X0146048Y0149291D01*
X0145280Y0148524D01*
X0146048Y0146989D02*
X0141444Y0146989D01*
X0142978Y0145455D01*
X0141444Y0143920D01*
X0146048Y0143920D01*
X0146048Y0140851D02*
X0141444Y0140851D01*
X0141444Y0142385D02*
X0141444Y0139316D01*
X0142211Y0137781D02*
X0141444Y0137014D01*
X0141444Y0135479D01*
X0142211Y0134712D01*
X0142978Y0134712D01*
X0143746Y0135479D01*
X0143746Y0137014D01*
X0144513Y0137781D01*
X0145280Y0137781D01*
X0146048Y0137014D01*
X0146048Y0135479D01*
X0145280Y0134712D01*
X0142211Y0148524D02*
X0141444Y0149291D01*
X0141444Y0150826D01*
X0142211Y0151593D01*
X0143746Y0150826D02*
X0143746Y0150059D01*
X0143746Y0157732D02*
X0143746Y0159266D01*
X0096244Y0131854D02*
X0096244Y0128785D01*
X0096244Y0130320D02*
X0091640Y0130320D01*
X0093175Y0128785D01*
X0092408Y0127250D02*
X0091640Y0126483D01*
X0091640Y0124948D01*
X0092408Y0124181D01*
X0093175Y0124181D01*
X0093942Y0124948D01*
X0093942Y0126483D01*
X0094710Y0127250D01*
X0095477Y0127250D01*
X0096244Y0126483D01*
X0096244Y0124948D01*
X0095477Y0124181D01*
X0095477Y0122646D02*
X0091640Y0122646D01*
X0091640Y0119577D02*
X0095477Y0119577D01*
X0096244Y0120344D01*
X0096244Y0121879D01*
X0095477Y0122646D01*
X0097012Y0125716D02*
X0090873Y0125716D01*
X0149796Y0071693D02*
X0149796Y0065197D01*
X0161213Y0065197D02*
X0161213Y0071693D01*
X0030762Y0127817D02*
X0024856Y0127817D01*
X0024856Y0133722D02*
X0030762Y0133722D01*
D183*
X0160032Y0070512D03*
D184*
X0039748Y0089407D03*
M02*
