G75*
%MOIN*%
%OFA0B0*%
%FSLAX25Y25*%
%IPPOS*%
%LPD*%
%AMOC8*
5,1,8,0,0,1.08239X$1,22.5*
%
%ADD10R,0.04331X0.03937*%
%ADD11R,0.03937X0.04331*%
%ADD12C,0.05150*%
%ADD13C,0.06791*%
%ADD14OC8,0.05600*%
%ADD15R,0.02264X0.17717*%
%ADD16R,0.02362X0.17717*%
%ADD17C,0.07400*%
%ADD18C,0.04000*%
%ADD19C,0.01600*%
%ADD20C,0.01000*%
%ADD21C,0.04362*%
%ADD22C,0.00800*%
%ADD23C,0.03000*%
D10*
X0040509Y0064192D03*
X0047202Y0064192D03*
X0069705Y0060426D03*
X0076398Y0060426D03*
X0114410Y0123567D03*
X0121103Y0123567D03*
X0163053Y0131597D03*
X0169746Y0131597D03*
X0170294Y0151776D03*
X0163601Y0151776D03*
X0163567Y0159829D03*
X0163591Y0167878D03*
X0170283Y0167878D03*
X0170260Y0159829D03*
X0178419Y0098942D03*
X0185112Y0098942D03*
X0185072Y0090662D03*
X0178379Y0090662D03*
D11*
X0157676Y0110638D03*
X0157676Y0117331D03*
X0164477Y0138302D03*
X0164477Y0144995D03*
X0161161Y0176649D03*
X0161161Y0183342D03*
X0152710Y0183355D03*
X0152710Y0176662D03*
X0112418Y0177090D03*
X0112418Y0183783D03*
X0103742Y0127381D03*
X0103742Y0120688D03*
D12*
X0041499Y0269190D03*
X0021814Y0269190D03*
D13*
X0017493Y0279820D03*
X0045820Y0279820D03*
D14*
X0075893Y0181936D03*
X0075893Y0171936D03*
X0075893Y0161936D03*
X0075893Y0151936D03*
X0075893Y0141936D03*
X0075893Y0131936D03*
X0075893Y0121936D03*
X0075893Y0111936D03*
X0085893Y0111936D03*
X0085893Y0121936D03*
X0085893Y0131936D03*
X0085893Y0141936D03*
X0085893Y0151936D03*
X0085893Y0161936D03*
X0085893Y0171936D03*
X0085893Y0181936D03*
X0099043Y0098786D03*
X0099043Y0088786D03*
X0109043Y0088786D03*
X0119043Y0088786D03*
X0129043Y0088786D03*
X0139043Y0088786D03*
X0149043Y0088786D03*
X0159043Y0088786D03*
X0169043Y0088786D03*
X0169043Y0098786D03*
X0159043Y0098786D03*
X0149043Y0098786D03*
X0139043Y0098786D03*
X0129043Y0098786D03*
X0119043Y0098786D03*
X0109043Y0098786D03*
X0182192Y0111936D03*
X0182192Y0121936D03*
X0182192Y0131936D03*
X0182192Y0141936D03*
X0182192Y0151936D03*
X0182192Y0161936D03*
X0182192Y0171936D03*
X0182192Y0181936D03*
X0192192Y0181936D03*
X0192192Y0171936D03*
X0192192Y0161936D03*
X0192192Y0151936D03*
X0192192Y0141936D03*
X0192192Y0131936D03*
X0192192Y0121936D03*
X0192192Y0111936D03*
D15*
X0192487Y0014449D03*
X0195636Y0014449D03*
X0198786Y0014449D03*
X0201936Y0014449D03*
X0205085Y0014449D03*
X0208235Y0014449D03*
X0211384Y0014449D03*
X0214534Y0014449D03*
X0217684Y0014449D03*
X0220833Y0014449D03*
X0189337Y0014449D03*
X0186188Y0014449D03*
X0183038Y0014449D03*
X0179888Y0014449D03*
X0176739Y0014449D03*
X0173589Y0014449D03*
X0170440Y0014449D03*
X0167290Y0014449D03*
X0164140Y0014449D03*
X0160991Y0014449D03*
X0157841Y0014449D03*
X0154692Y0014449D03*
X0151542Y0014449D03*
X0148392Y0014449D03*
X0145243Y0014449D03*
X0142093Y0014449D03*
X0138944Y0014449D03*
X0135794Y0014449D03*
X0120046Y0014449D03*
X0116896Y0014449D03*
X0113747Y0014449D03*
X0110597Y0014449D03*
X0107447Y0014449D03*
X0104298Y0014449D03*
X0097999Y0014449D03*
X0094849Y0014449D03*
X0091699Y0014449D03*
X0088550Y0014449D03*
X0085400Y0014449D03*
X0082251Y0014449D03*
X0079101Y0014449D03*
X0075951Y0014449D03*
X0072802Y0014449D03*
X0069652Y0014449D03*
X0066503Y0014449D03*
X0063353Y0014449D03*
X0060203Y0014449D03*
X0057054Y0014449D03*
X0053904Y0014449D03*
X0050755Y0014449D03*
X0047605Y0014449D03*
X0044455Y0014449D03*
X0041306Y0014449D03*
X0038156Y0014449D03*
X0035007Y0014449D03*
X0031857Y0014449D03*
X0028707Y0014449D03*
X0025558Y0014449D03*
X0022408Y0014449D03*
D16*
X0101148Y0014449D03*
D17*
X0105100Y0203118D03*
X0095100Y0203118D03*
X0085100Y0203118D03*
X0115100Y0203118D03*
X0125100Y0203118D03*
X0135100Y0203118D03*
X0145100Y0203118D03*
D18*
X0150335Y0188545D03*
X0155682Y0188439D03*
X0153516Y0171478D03*
X0158180Y0166219D03*
X0158152Y0161515D03*
X0153185Y0157689D03*
X0158479Y0153699D03*
X0158857Y0148891D03*
X0158241Y0143009D03*
X0155772Y0123775D03*
X0166711Y0116665D03*
X0152570Y0082412D03*
X0156330Y0079078D03*
X0171626Y0069127D03*
X0130185Y0123074D03*
X0109288Y0122333D03*
X0109476Y0127041D03*
X0133675Y0155310D03*
X0114254Y0170956D03*
X0109395Y0158545D03*
X0069732Y0116844D03*
X0065679Y0123118D03*
X0058968Y0109814D03*
X0077991Y0067861D03*
X0110338Y0071563D03*
X0060537Y0154884D03*
D19*
X0021308Y0027542D02*
X0021308Y0024807D01*
X0121736Y0024807D01*
X0121736Y0030259D01*
X0122937Y0031459D01*
X0133887Y0031459D01*
X0135088Y0030259D01*
X0135088Y0024807D01*
X0140093Y0024807D01*
X0140093Y0031871D01*
X0124023Y0047941D01*
X0068202Y0047941D01*
X0068039Y0047778D01*
X0066382Y0047778D01*
X0065210Y0048950D01*
X0065210Y0048950D01*
X0060494Y0053666D01*
X0043847Y0053666D01*
X0042675Y0054838D01*
X0042675Y0054838D01*
X0039681Y0057832D01*
X0039681Y0057832D01*
X0038509Y0059004D01*
X0038509Y0060723D01*
X0037723Y0060723D01*
X0036844Y0061602D01*
X0036844Y0066781D01*
X0037723Y0067660D01*
X0038501Y0067660D01*
X0038424Y0100787D01*
X0038364Y0100857D01*
X0038422Y0101603D01*
X0038421Y0102351D01*
X0038486Y0102417D01*
X0038493Y0102509D01*
X0039062Y0102995D01*
X0039590Y0103525D01*
X0039682Y0103525D01*
X0062179Y0122757D01*
X0062179Y0123814D01*
X0062712Y0125100D01*
X0063696Y0126085D01*
X0064983Y0126618D01*
X0066375Y0126618D01*
X0067661Y0126085D01*
X0068646Y0125100D01*
X0069179Y0123814D01*
X0069179Y0122422D01*
X0068646Y0121135D01*
X0067661Y0120151D01*
X0066375Y0119618D01*
X0064983Y0119618D01*
X0064767Y0119707D01*
X0042425Y0100608D01*
X0042501Y0067660D01*
X0043296Y0067660D01*
X0043856Y0067100D01*
X0044416Y0067660D01*
X0045202Y0067660D01*
X0045202Y0098877D01*
X0055468Y0109142D01*
X0055468Y0110510D01*
X0056001Y0111797D01*
X0056985Y0112781D01*
X0058272Y0113314D01*
X0059664Y0113314D01*
X0060950Y0112781D01*
X0061935Y0111797D01*
X0062468Y0110510D01*
X0062468Y0109118D01*
X0061935Y0107831D01*
X0060950Y0106847D01*
X0059664Y0106314D01*
X0058296Y0106314D01*
X0049202Y0097220D01*
X0049202Y0067660D01*
X0049989Y0067660D01*
X0050868Y0066781D01*
X0050868Y0061602D01*
X0049989Y0060723D01*
X0044416Y0060723D01*
X0043856Y0061283D01*
X0043296Y0060723D01*
X0042509Y0060723D01*
X0042509Y0060660D01*
X0045504Y0057666D01*
X0062151Y0057666D01*
X0067876Y0051941D01*
X0125680Y0051941D01*
X0126852Y0050769D01*
X0143215Y0034406D01*
X0143215Y0036188D01*
X0125866Y0053538D01*
X0071807Y0053538D01*
X0070636Y0054709D01*
X0068387Y0056958D01*
X0066918Y0056958D01*
X0066040Y0057837D01*
X0066040Y0063016D01*
X0066918Y0063895D01*
X0067705Y0063895D01*
X0067705Y0113921D01*
X0066765Y0114862D01*
X0066232Y0116148D01*
X0066232Y0117540D01*
X0066765Y0118827D01*
X0067749Y0119811D01*
X0069036Y0120344D01*
X0070428Y0120344D01*
X0071715Y0119811D01*
X0072699Y0118827D01*
X0073232Y0117540D01*
X0073232Y0116148D01*
X0072699Y0114862D01*
X0071715Y0113877D01*
X0071705Y0113873D01*
X0071705Y0113829D01*
X0074112Y0116236D01*
X0077674Y0116236D01*
X0080193Y0113717D01*
X0080193Y0110155D01*
X0077674Y0107636D01*
X0074112Y0107636D01*
X0071705Y0110043D01*
X0071705Y0063895D01*
X0072492Y0063895D01*
X0073052Y0063335D01*
X0073611Y0063895D01*
X0074398Y0063895D01*
X0074398Y0067096D01*
X0074491Y0067190D01*
X0074491Y0068557D01*
X0075024Y0069844D01*
X0076009Y0070828D01*
X0077295Y0071361D01*
X0078688Y0071361D01*
X0078709Y0071352D01*
X0091526Y0083835D01*
X0092103Y0084412D01*
X0092118Y0084412D01*
X0092129Y0084423D01*
X0092944Y0084412D01*
X0149621Y0084412D01*
X0149695Y0084486D01*
X0147262Y0084486D01*
X0144743Y0087005D01*
X0144743Y0090568D01*
X0147262Y0093086D01*
X0150824Y0093086D01*
X0153343Y0090568D01*
X0153343Y0087005D01*
X0152249Y0085912D01*
X0153267Y0085912D01*
X0154553Y0085379D01*
X0155481Y0084451D01*
X0158123Y0084486D01*
X0157262Y0084486D01*
X0154743Y0087005D01*
X0154743Y0090568D01*
X0157262Y0093086D01*
X0160514Y0093086D01*
X0163192Y0095764D01*
X0165984Y0095764D01*
X0164743Y0097005D01*
X0164743Y0100568D01*
X0167262Y0103086D01*
X0170824Y0103086D01*
X0173124Y0100786D01*
X0174754Y0100786D01*
X0174754Y0101531D01*
X0175632Y0102410D01*
X0181206Y0102410D01*
X0181765Y0101850D01*
X0182325Y0102410D01*
X0185066Y0102410D01*
X0185066Y0108729D01*
X0183973Y0107636D01*
X0180411Y0107636D01*
X0177892Y0110155D01*
X0177892Y0113717D01*
X0180411Y0116236D01*
X0183973Y0116236D01*
X0185066Y0115144D01*
X0185066Y0118729D01*
X0183973Y0117636D01*
X0180411Y0117636D01*
X0177892Y0120155D01*
X0177892Y0123717D01*
X0180411Y0126236D01*
X0183973Y0126236D01*
X0185066Y0125144D01*
X0185066Y0128729D01*
X0183973Y0127636D01*
X0180411Y0127636D01*
X0177892Y0130155D01*
X0177892Y0133717D01*
X0180411Y0136236D01*
X0183973Y0136236D01*
X0185066Y0135144D01*
X0185066Y0136234D01*
X0183664Y0137636D01*
X0180721Y0137636D01*
X0175114Y0132029D01*
X0174956Y0131639D01*
X0174551Y0131467D01*
X0174240Y0131155D01*
X0173819Y0131155D01*
X0173411Y0130982D01*
X0173411Y0129007D01*
X0172533Y0128128D01*
X0166959Y0128128D01*
X0166612Y0128476D01*
X0166324Y0128188D01*
X0165913Y0127951D01*
X0165455Y0127828D01*
X0163237Y0127828D01*
X0163237Y0131412D01*
X0162869Y0131412D01*
X0162869Y0127828D01*
X0160651Y0127828D01*
X0160193Y0127951D01*
X0159783Y0128188D01*
X0159447Y0128523D01*
X0159210Y0128933D01*
X0159088Y0129391D01*
X0159088Y0131412D01*
X0162869Y0131412D01*
X0162869Y0131781D01*
X0159088Y0131781D01*
X0159088Y0133802D01*
X0159210Y0134260D01*
X0159447Y0134670D01*
X0159783Y0135006D01*
X0160193Y0135243D01*
X0160651Y0135365D01*
X0160875Y0135365D01*
X0160831Y0135442D01*
X0160708Y0135900D01*
X0160708Y0138118D01*
X0164293Y0138118D01*
X0164293Y0138486D01*
X0160708Y0138486D01*
X0160708Y0140526D01*
X0160224Y0140042D01*
X0158937Y0139509D01*
X0157545Y0139509D01*
X0156259Y0140042D01*
X0155274Y0141026D01*
X0154741Y0142313D01*
X0154741Y0143705D01*
X0155274Y0144991D01*
X0156259Y0145976D01*
X0156657Y0146141D01*
X0155907Y0146891D01*
X0154383Y0146891D01*
X0154283Y0146991D01*
X0096092Y0146991D01*
X0094979Y0148104D01*
X0092995Y0150088D01*
X0092853Y0150088D01*
X0090193Y0152748D01*
X0090193Y0150155D01*
X0088712Y0148674D01*
X0090812Y0148674D01*
X0096320Y0143166D01*
X0134543Y0143166D01*
X0146957Y0130752D01*
X0146957Y0130752D01*
X0147730Y0129979D01*
X0147730Y0124080D01*
X0148373Y0123437D01*
X0148830Y0122334D01*
X0148830Y0121141D01*
X0148373Y0120038D01*
X0147529Y0119194D01*
X0146426Y0118738D01*
X0145233Y0118738D01*
X0144130Y0119194D01*
X0143286Y0120038D01*
X0142830Y0121141D01*
X0142830Y0122334D01*
X0143286Y0123437D01*
X0143930Y0124080D01*
X0143930Y0128405D01*
X0132969Y0139366D01*
X0094746Y0139366D01*
X0093633Y0140479D01*
X0089238Y0144874D01*
X0089036Y0144874D01*
X0090193Y0143717D01*
X0090193Y0140155D01*
X0088371Y0138333D01*
X0091821Y0138333D01*
X0091837Y0138349D01*
X0092604Y0138333D01*
X0093372Y0138333D01*
X0093388Y0138316D01*
X0093411Y0138316D01*
X0093942Y0137762D01*
X0094485Y0137220D01*
X0094485Y0137197D01*
X0096875Y0134704D01*
X0098025Y0134704D01*
X0099127Y0134248D01*
X0099971Y0133404D01*
X0100428Y0132301D01*
X0100428Y0131108D01*
X0099971Y0130005D01*
X0099127Y0129161D01*
X0098573Y0128931D01*
X0099396Y0128590D01*
X0100240Y0127746D01*
X0100273Y0127666D01*
X0100273Y0130168D01*
X0101152Y0131046D01*
X0106331Y0131046D01*
X0107210Y0130168D01*
X0107210Y0129726D01*
X0107493Y0130008D01*
X0108779Y0130541D01*
X0110172Y0130541D01*
X0111458Y0130008D01*
X0112443Y0129024D01*
X0112975Y0127737D01*
X0112975Y0127035D01*
X0117196Y0127035D01*
X0117544Y0126688D01*
X0117832Y0126976D01*
X0118243Y0127213D01*
X0118700Y0127335D01*
X0120918Y0127335D01*
X0120918Y0123751D01*
X0121287Y0123751D01*
X0125068Y0123751D01*
X0125068Y0125772D01*
X0124945Y0126230D01*
X0124708Y0126641D01*
X0124373Y0126976D01*
X0123963Y0127213D01*
X0123505Y0127335D01*
X0121287Y0127335D01*
X0121287Y0123751D01*
X0121287Y0123383D01*
X0125068Y0123383D01*
X0125068Y0121362D01*
X0124945Y0120904D01*
X0124708Y0120493D01*
X0124373Y0120158D01*
X0123963Y0119921D01*
X0123505Y0119798D01*
X0121287Y0119798D01*
X0121287Y0123383D01*
X0120918Y0123383D01*
X0120918Y0119798D01*
X0118700Y0119798D01*
X0118243Y0119921D01*
X0117832Y0120158D01*
X0117544Y0120446D01*
X0117196Y0120098D01*
X0112004Y0120098D01*
X0111271Y0119366D01*
X0109985Y0118833D01*
X0108592Y0118833D01*
X0107510Y0119281D01*
X0107510Y0118286D01*
X0107387Y0117828D01*
X0107150Y0117417D01*
X0106815Y0117082D01*
X0106405Y0116845D01*
X0105947Y0116723D01*
X0103926Y0116723D01*
X0103926Y0120504D01*
X0103557Y0120504D01*
X0099973Y0120504D01*
X0099973Y0118286D01*
X0100096Y0117828D01*
X0100333Y0117417D01*
X0100668Y0117082D01*
X0101078Y0116845D01*
X0101536Y0116723D01*
X0103557Y0116723D01*
X0103557Y0120504D01*
X0103557Y0120872D01*
X0099973Y0120872D01*
X0099973Y0123090D01*
X0100096Y0123548D01*
X0100333Y0123959D01*
X0100621Y0124247D01*
X0100322Y0124545D01*
X0100240Y0124348D01*
X0099396Y0123504D01*
X0098293Y0123047D01*
X0097100Y0123047D01*
X0095997Y0123504D01*
X0095153Y0124348D01*
X0094821Y0125151D01*
X0088760Y0125151D01*
X0090193Y0123717D01*
X0090193Y0120155D01*
X0087674Y0117636D01*
X0084112Y0117636D01*
X0081593Y0120155D01*
X0081593Y0123717D01*
X0083027Y0125151D01*
X0078760Y0125151D01*
X0080193Y0123717D01*
X0080193Y0120155D01*
X0077674Y0117636D01*
X0074112Y0117636D01*
X0071593Y0120155D01*
X0071593Y0123717D01*
X0073060Y0125184D01*
X0071448Y0126796D01*
X0037669Y0126796D01*
X0037026Y0126153D01*
X0035923Y0125696D01*
X0034730Y0125696D01*
X0033627Y0126153D01*
X0032783Y0126996D01*
X0032326Y0128099D01*
X0032326Y0129293D01*
X0032783Y0130395D01*
X0032827Y0130440D01*
X0032473Y0130794D01*
X0032016Y0131897D01*
X0032016Y0133090D01*
X0032473Y0134193D01*
X0033317Y0135037D01*
X0034419Y0135494D01*
X0035613Y0135494D01*
X0036716Y0135037D01*
X0037359Y0134394D01*
X0062157Y0134394D01*
X0062247Y0134466D01*
X0062929Y0134394D01*
X0063615Y0134394D01*
X0063628Y0134381D01*
X0067761Y0134381D01*
X0071190Y0137779D01*
X0071743Y0138333D01*
X0071748Y0138333D01*
X0071752Y0138336D01*
X0072533Y0138333D01*
X0073415Y0138333D01*
X0071593Y0140155D01*
X0071593Y0143717D01*
X0072750Y0144874D01*
X0052318Y0144874D01*
X0051676Y0145516D01*
X0050766Y0145516D01*
X0049664Y0145973D01*
X0048820Y0146817D01*
X0048363Y0147919D01*
X0048363Y0149113D01*
X0048820Y0150215D01*
X0049664Y0151059D01*
X0050766Y0151516D01*
X0051960Y0151516D01*
X0053062Y0151059D01*
X0053906Y0150215D01*
X0054363Y0149113D01*
X0054363Y0148674D01*
X0073074Y0148674D01*
X0071593Y0150155D01*
X0071593Y0153717D01*
X0072492Y0154616D01*
X0066072Y0154616D01*
X0065259Y0154604D01*
X0065246Y0154616D01*
X0065229Y0154616D01*
X0064654Y0155191D01*
X0057525Y0162106D01*
X0057508Y0162106D01*
X0056933Y0162681D01*
X0056349Y0163248D01*
X0056349Y0163265D01*
X0056336Y0163278D01*
X0056336Y0164091D01*
X0056324Y0164904D01*
X0056336Y0164917D01*
X0056336Y0177909D01*
X0050842Y0183569D01*
X0050121Y0183569D01*
X0049018Y0184026D01*
X0048174Y0184869D01*
X0047718Y0185972D01*
X0047718Y0187166D01*
X0048174Y0188268D01*
X0049018Y0189112D01*
X0050121Y0189569D01*
X0051314Y0189569D01*
X0051418Y0189526D01*
X0051418Y0227147D01*
X0050875Y0227690D01*
X0050418Y0228792D01*
X0050418Y0229986D01*
X0050875Y0231089D01*
X0051719Y0231932D01*
X0052821Y0232389D01*
X0054015Y0232389D01*
X0054420Y0232221D01*
X0054420Y0234673D01*
X0053572Y0234322D01*
X0052379Y0234322D01*
X0051276Y0234778D01*
X0050432Y0235622D01*
X0049975Y0236725D01*
X0049975Y0237918D01*
X0050432Y0239021D01*
X0051276Y0239865D01*
X0052379Y0240322D01*
X0053572Y0240322D01*
X0054675Y0239865D01*
X0055218Y0239322D01*
X0055458Y0239322D01*
X0056814Y0237966D01*
X0056835Y0237966D01*
X0057067Y0237735D01*
X0057067Y0238280D01*
X0053384Y0241963D01*
X0052409Y0241963D01*
X0051307Y0242420D01*
X0050463Y0243264D01*
X0050006Y0244366D01*
X0050006Y0245560D01*
X0050463Y0246663D01*
X0051307Y0247506D01*
X0052409Y0247963D01*
X0053603Y0247963D01*
X0054705Y0247506D01*
X0055549Y0246663D01*
X0056006Y0245560D01*
X0056006Y0244998D01*
X0059818Y0241185D01*
X0059818Y0243068D01*
X0053060Y0249826D01*
X0053055Y0249823D01*
X0051861Y0249823D01*
X0050759Y0250280D01*
X0049915Y0251124D01*
X0049458Y0252227D01*
X0049458Y0253420D01*
X0049915Y0254523D01*
X0050759Y0255367D01*
X0051861Y0255823D01*
X0053055Y0255823D01*
X0054158Y0255367D01*
X0055001Y0254523D01*
X0055458Y0253420D01*
X0055458Y0253085D01*
X0062647Y0245896D01*
X0063818Y0244724D01*
X0063818Y0187311D01*
X0067944Y0183186D01*
X0069115Y0182014D01*
X0069115Y0178675D01*
X0069322Y0178468D01*
X0073280Y0178468D01*
X0071593Y0180155D01*
X0071593Y0183717D01*
X0074112Y0186236D01*
X0077674Y0186236D01*
X0080193Y0183717D01*
X0080193Y0180155D01*
X0078506Y0178468D01*
X0082190Y0178468D01*
X0084421Y0176236D01*
X0087674Y0176236D01*
X0090193Y0173717D01*
X0090193Y0170155D01*
X0087674Y0167636D01*
X0084112Y0167636D01*
X0081593Y0170155D01*
X0081593Y0173408D01*
X0080533Y0174468D01*
X0079442Y0174468D01*
X0080193Y0173717D01*
X0080193Y0170155D01*
X0078844Y0168806D01*
X0080317Y0168806D01*
X0081488Y0167634D01*
X0083499Y0165623D01*
X0084112Y0166236D01*
X0087674Y0166236D01*
X0090193Y0163717D01*
X0090193Y0160155D01*
X0088654Y0158616D01*
X0089982Y0158616D01*
X0091154Y0157444D01*
X0095682Y0152916D01*
X0095682Y0152775D01*
X0097666Y0150791D01*
X0154256Y0150791D01*
X0154370Y0150905D01*
X0155921Y0150905D01*
X0156122Y0151106D01*
X0155512Y0151716D01*
X0154979Y0153002D01*
X0154979Y0154395D01*
X0155512Y0155681D01*
X0156497Y0156666D01*
X0157783Y0157199D01*
X0158108Y0157199D01*
X0158978Y0158069D01*
X0158848Y0158015D01*
X0157455Y0158015D01*
X0156169Y0158548D01*
X0155184Y0159532D01*
X0154652Y0160819D01*
X0154652Y0162211D01*
X0155184Y0163498D01*
X0155568Y0163882D01*
X0155213Y0164237D01*
X0154680Y0165523D01*
X0154680Y0165823D01*
X0154647Y0165823D01*
X0154608Y0165788D01*
X0153826Y0165823D01*
X0153042Y0165823D01*
X0153026Y0165839D01*
X0151930Y0165839D01*
X0151892Y0165804D01*
X0151109Y0165839D01*
X0150325Y0165839D01*
X0150288Y0165875D01*
X0149322Y0165918D01*
X0148538Y0165918D01*
X0148501Y0165954D01*
X0148450Y0165957D01*
X0147920Y0166535D01*
X0146674Y0167781D01*
X0146674Y0186504D01*
X0146603Y0186591D01*
X0146674Y0187318D01*
X0146674Y0188049D01*
X0146754Y0188128D01*
X0146765Y0188240D01*
X0146835Y0188298D01*
X0146835Y0189241D01*
X0147367Y0190527D01*
X0148352Y0191512D01*
X0149638Y0192045D01*
X0151031Y0192045D01*
X0152317Y0191512D01*
X0153302Y0190527D01*
X0153835Y0189241D01*
X0153835Y0187849D01*
X0153616Y0187320D01*
X0154915Y0187320D01*
X0155373Y0187197D01*
X0155784Y0186960D01*
X0156119Y0186625D01*
X0156356Y0186215D01*
X0156478Y0185757D01*
X0156478Y0183539D01*
X0152894Y0183539D01*
X0152894Y0183170D01*
X0156478Y0183170D01*
X0156478Y0180952D01*
X0156356Y0180495D01*
X0156119Y0180084D01*
X0155831Y0179796D01*
X0156178Y0179449D01*
X0156178Y0178646D01*
X0157692Y0178638D01*
X0157692Y0179436D01*
X0158040Y0179784D01*
X0157752Y0180072D01*
X0157515Y0180482D01*
X0157392Y0180940D01*
X0157392Y0183158D01*
X0160977Y0183158D01*
X0160977Y0183526D01*
X0157392Y0183526D01*
X0157392Y0185744D01*
X0157515Y0186202D01*
X0157752Y0186613D01*
X0158087Y0186948D01*
X0158498Y0187185D01*
X0158955Y0187308D01*
X0160977Y0187308D01*
X0160977Y0183526D01*
X0161345Y0183526D01*
X0164929Y0183526D01*
X0164929Y0185744D01*
X0164807Y0186202D01*
X0164570Y0186613D01*
X0164235Y0186948D01*
X0163824Y0187185D01*
X0163366Y0187308D01*
X0161345Y0187308D01*
X0161345Y0183526D01*
X0161345Y0183158D01*
X0164929Y0183158D01*
X0164929Y0180940D01*
X0164807Y0180482D01*
X0164570Y0180072D01*
X0164282Y0179784D01*
X0164629Y0179436D01*
X0164629Y0174773D01*
X0175741Y0174734D01*
X0176568Y0174734D01*
X0176571Y0174732D01*
X0176575Y0174732D01*
X0177156Y0174147D01*
X0177892Y0173410D01*
X0177892Y0173717D01*
X0180411Y0176236D01*
X0183973Y0176236D01*
X0186492Y0173717D01*
X0186492Y0170155D01*
X0183973Y0167636D01*
X0180411Y0167636D01*
X0179622Y0168426D01*
X0179622Y0165447D01*
X0180411Y0166236D01*
X0183973Y0166236D01*
X0186492Y0163717D01*
X0186492Y0160155D01*
X0183973Y0157636D01*
X0180411Y0157636D01*
X0179622Y0158426D01*
X0179622Y0155447D01*
X0180411Y0156236D01*
X0183973Y0156236D01*
X0186492Y0153717D01*
X0186492Y0150155D01*
X0185455Y0149117D01*
X0188506Y0149117D01*
X0187592Y0150031D01*
X0187592Y0151836D01*
X0192092Y0151836D01*
X0192092Y0152036D01*
X0187592Y0152036D01*
X0187592Y0153841D01*
X0190287Y0156536D01*
X0192092Y0156536D01*
X0192092Y0152036D01*
X0192292Y0152036D01*
X0192292Y0156536D01*
X0194098Y0156536D01*
X0196792Y0153841D01*
X0196792Y0152036D01*
X0192292Y0152036D01*
X0192292Y0151836D01*
X0196792Y0151836D01*
X0196792Y0150031D01*
X0195848Y0149087D01*
X0200149Y0144786D01*
X0201320Y0143614D01*
X0201320Y0064891D01*
X0178739Y0042309D01*
X0178739Y0024807D01*
X0222587Y0024807D01*
X0223465Y0023928D01*
X0223465Y0007050D01*
X0223705Y0007050D01*
X0223705Y0027542D01*
X0224905Y0028743D01*
X0241021Y0028743D01*
X0241020Y0031296D01*
X0235125Y0031296D01*
X0233625Y0032162D01*
X0233625Y0032162D01*
X0233625Y0032162D01*
X0232898Y0033422D01*
X0232760Y0033560D01*
X0232760Y0062030D01*
X0233961Y0063231D01*
X0235659Y0063231D01*
X0236860Y0062030D01*
X0236860Y0035396D01*
X0241019Y0035396D01*
X0240964Y0283147D01*
X0049749Y0283239D01*
X0049783Y0283205D01*
X0050264Y0282543D01*
X0050635Y0281815D01*
X0050888Y0281037D01*
X0051016Y0280229D01*
X0051016Y0280152D01*
X0046152Y0280152D01*
X0046152Y0279488D01*
X0046152Y0274624D01*
X0046229Y0274624D01*
X0047037Y0274752D01*
X0047814Y0275005D01*
X0048543Y0275376D01*
X0049205Y0275857D01*
X0049783Y0276435D01*
X0050264Y0277097D01*
X0050635Y0277826D01*
X0050888Y0278603D01*
X0051016Y0279411D01*
X0051016Y0279488D01*
X0046152Y0279488D01*
X0045488Y0279488D01*
X0045488Y0274624D01*
X0045411Y0274624D01*
X0044603Y0274752D01*
X0043826Y0275005D01*
X0043097Y0275376D01*
X0042435Y0275857D01*
X0041857Y0276435D01*
X0041376Y0277097D01*
X0041005Y0277826D01*
X0040752Y0278603D01*
X0040624Y0279411D01*
X0040624Y0279488D01*
X0045488Y0279488D01*
X0045488Y0280152D01*
X0040624Y0280152D01*
X0040624Y0280229D01*
X0040752Y0281037D01*
X0041005Y0281815D01*
X0041376Y0282543D01*
X0041857Y0283205D01*
X0041895Y0283242D01*
X0021409Y0283252D01*
X0021456Y0283205D01*
X0021937Y0282543D01*
X0022308Y0281815D01*
X0022561Y0281037D01*
X0022689Y0280229D01*
X0022689Y0280152D01*
X0017825Y0280152D01*
X0017825Y0279488D01*
X0017825Y0274624D01*
X0017902Y0274624D01*
X0018710Y0274752D01*
X0019488Y0275005D01*
X0020216Y0275376D01*
X0020878Y0275857D01*
X0021456Y0276435D01*
X0021937Y0277097D01*
X0022308Y0277826D01*
X0022561Y0278603D01*
X0022689Y0279411D01*
X0022689Y0279488D01*
X0017825Y0279488D01*
X0017161Y0279488D01*
X0012298Y0279488D01*
X0012298Y0279411D01*
X0012426Y0278603D01*
X0012678Y0277826D01*
X0013050Y0277097D01*
X0013530Y0276435D01*
X0014109Y0275857D01*
X0014770Y0275376D01*
X0015499Y0275005D01*
X0016277Y0274752D01*
X0017084Y0274624D01*
X0017161Y0274624D01*
X0017161Y0279488D01*
X0017161Y0280152D01*
X0012298Y0280152D01*
X0012298Y0280229D01*
X0012426Y0281037D01*
X0012678Y0281815D01*
X0013050Y0282543D01*
X0013530Y0283205D01*
X0013581Y0283256D01*
X0004510Y0283260D01*
X0004650Y0035593D01*
X0008350Y0035593D01*
X0008350Y0062424D01*
X0009551Y0063625D01*
X0011249Y0063625D01*
X0012450Y0062424D01*
X0012450Y0033859D01*
X0011584Y0032359D01*
X0011584Y0032359D01*
X0010511Y0031740D01*
X0010265Y0031493D01*
X0004652Y0031493D01*
X0004654Y0028743D01*
X0020108Y0028743D01*
X0021308Y0027542D01*
X0021308Y0027485D02*
X0121736Y0027485D01*
X0121736Y0025887D02*
X0021308Y0025887D01*
X0012450Y0033879D02*
X0138085Y0033879D01*
X0136487Y0035478D02*
X0012450Y0035478D01*
X0012450Y0037076D02*
X0134888Y0037076D01*
X0133290Y0038675D02*
X0012450Y0038675D01*
X0012450Y0040273D02*
X0131691Y0040273D01*
X0130093Y0041872D02*
X0012450Y0041872D01*
X0012450Y0043470D02*
X0128494Y0043470D01*
X0126896Y0045069D02*
X0012450Y0045069D01*
X0012450Y0046667D02*
X0125297Y0046667D01*
X0127757Y0049864D02*
X0129539Y0049864D01*
X0129356Y0048266D02*
X0131138Y0048266D01*
X0130954Y0046667D02*
X0132736Y0046667D01*
X0132553Y0045069D02*
X0134335Y0045069D01*
X0134151Y0043470D02*
X0135934Y0043470D01*
X0135750Y0041872D02*
X0137532Y0041872D01*
X0137348Y0040273D02*
X0139131Y0040273D01*
X0138947Y0038675D02*
X0140729Y0038675D01*
X0140545Y0037076D02*
X0142328Y0037076D01*
X0142144Y0035478D02*
X0143215Y0035478D01*
X0147215Y0035478D02*
X0174739Y0035478D01*
X0174739Y0037076D02*
X0147215Y0037076D01*
X0147215Y0037845D02*
X0146044Y0039017D01*
X0127523Y0057538D01*
X0079764Y0057538D01*
X0080063Y0057837D01*
X0080063Y0063016D01*
X0079185Y0063895D01*
X0078398Y0063895D01*
X0078398Y0064361D01*
X0078688Y0064361D01*
X0079974Y0064894D01*
X0080959Y0065879D01*
X0081491Y0067165D01*
X0081491Y0068478D01*
X0093744Y0080412D01*
X0149621Y0080412D01*
X0150588Y0079445D01*
X0151874Y0078912D01*
X0153267Y0078912D01*
X0154553Y0079445D01*
X0155538Y0080429D01*
X0155547Y0080452D01*
X0180447Y0080785D01*
X0181262Y0080785D01*
X0181273Y0080796D01*
X0181289Y0080797D01*
X0181857Y0081381D01*
X0185940Y0085464D01*
X0187112Y0086635D01*
X0187112Y0087193D01*
X0187859Y0087193D01*
X0188737Y0088072D01*
X0188737Y0093252D01*
X0187859Y0094130D01*
X0187072Y0094130D01*
X0187072Y0095473D01*
X0187899Y0095473D01*
X0188777Y0096352D01*
X0188777Y0099779D01*
X0189066Y0100067D01*
X0189066Y0108981D01*
X0190411Y0107636D01*
X0193973Y0107636D01*
X0196492Y0110155D01*
X0196492Y0113717D01*
X0193973Y0116236D01*
X0190411Y0116236D01*
X0189066Y0114891D01*
X0189066Y0118981D01*
X0190411Y0117636D01*
X0193973Y0117636D01*
X0196492Y0120155D01*
X0196492Y0123717D01*
X0193973Y0126236D01*
X0190411Y0126236D01*
X0189066Y0124891D01*
X0189066Y0128557D01*
X0190287Y0127336D01*
X0192092Y0127336D01*
X0192092Y0131836D01*
X0192292Y0131836D01*
X0192292Y0127336D01*
X0194098Y0127336D01*
X0196792Y0130031D01*
X0196792Y0131836D01*
X0192292Y0131836D01*
X0192292Y0132036D01*
X0192092Y0132036D01*
X0192092Y0136536D01*
X0190287Y0136536D01*
X0189066Y0135315D01*
X0189066Y0137891D01*
X0186492Y0140464D01*
X0186492Y0143717D01*
X0185092Y0145117D01*
X0188868Y0145117D01*
X0187592Y0143841D01*
X0187592Y0142036D01*
X0192092Y0142036D01*
X0192092Y0141836D01*
X0187592Y0141836D01*
X0187592Y0140031D01*
X0190287Y0137336D01*
X0192092Y0137336D01*
X0192092Y0141836D01*
X0192292Y0141836D01*
X0192292Y0137336D01*
X0194098Y0137336D01*
X0196792Y0140031D01*
X0196792Y0141836D01*
X0192292Y0141836D01*
X0192292Y0142036D01*
X0196792Y0142036D01*
X0196792Y0142485D01*
X0197320Y0141957D01*
X0197320Y0066547D01*
X0175910Y0045137D01*
X0174739Y0043966D01*
X0174739Y0024807D01*
X0147215Y0024807D01*
X0147215Y0037845D01*
X0146386Y0038675D02*
X0174739Y0038675D01*
X0174739Y0040273D02*
X0144787Y0040273D01*
X0143189Y0041872D02*
X0174739Y0041872D01*
X0174739Y0043470D02*
X0141590Y0043470D01*
X0139992Y0045069D02*
X0175842Y0045069D01*
X0177440Y0046667D02*
X0138393Y0046667D01*
X0136795Y0048266D02*
X0179039Y0048266D01*
X0180637Y0049864D02*
X0135196Y0049864D01*
X0133598Y0051463D02*
X0182236Y0051463D01*
X0183834Y0053061D02*
X0131999Y0053061D01*
X0130401Y0054660D02*
X0185433Y0054660D01*
X0187031Y0056258D02*
X0128802Y0056258D01*
X0126342Y0053061D02*
X0066755Y0053061D01*
X0065157Y0054660D02*
X0070685Y0054660D01*
X0069087Y0056258D02*
X0063558Y0056258D01*
X0066040Y0057857D02*
X0045313Y0057857D01*
X0043714Y0059455D02*
X0066040Y0059455D01*
X0066040Y0061054D02*
X0050320Y0061054D01*
X0050868Y0062652D02*
X0066040Y0062652D01*
X0067705Y0064251D02*
X0050868Y0064251D01*
X0050868Y0065849D02*
X0067705Y0065849D01*
X0067705Y0067448D02*
X0050201Y0067448D01*
X0049202Y0069046D02*
X0067705Y0069046D01*
X0067705Y0070645D02*
X0049202Y0070645D01*
X0049202Y0072243D02*
X0067705Y0072243D01*
X0067705Y0073842D02*
X0049202Y0073842D01*
X0049202Y0075440D02*
X0067705Y0075440D01*
X0067705Y0077039D02*
X0049202Y0077039D01*
X0049202Y0078637D02*
X0067705Y0078637D01*
X0067705Y0080236D02*
X0049202Y0080236D01*
X0049202Y0081834D02*
X0067705Y0081834D01*
X0067705Y0083433D02*
X0049202Y0083433D01*
X0049202Y0085031D02*
X0067705Y0085031D01*
X0067705Y0086630D02*
X0049202Y0086630D01*
X0049202Y0088228D02*
X0067705Y0088228D01*
X0067705Y0089827D02*
X0049202Y0089827D01*
X0049202Y0091426D02*
X0067705Y0091426D01*
X0067705Y0093024D02*
X0049202Y0093024D01*
X0049202Y0094623D02*
X0067705Y0094623D01*
X0067705Y0096221D02*
X0049202Y0096221D01*
X0049802Y0097820D02*
X0067705Y0097820D01*
X0067705Y0099418D02*
X0051400Y0099418D01*
X0052999Y0101017D02*
X0067705Y0101017D01*
X0067705Y0102615D02*
X0054597Y0102615D01*
X0056196Y0104214D02*
X0067705Y0104214D01*
X0067705Y0105812D02*
X0057794Y0105812D01*
X0055335Y0109009D02*
X0052253Y0109009D01*
X0053736Y0107411D02*
X0050383Y0107411D01*
X0052138Y0105812D02*
X0048513Y0105812D01*
X0046643Y0104214D02*
X0050539Y0104214D01*
X0048941Y0102615D02*
X0044773Y0102615D01*
X0042903Y0101017D02*
X0047342Y0101017D01*
X0045744Y0099418D02*
X0042428Y0099418D01*
X0042431Y0097820D02*
X0045202Y0097820D01*
X0045202Y0096221D02*
X0042435Y0096221D01*
X0042439Y0094623D02*
X0045202Y0094623D01*
X0045202Y0093024D02*
X0042442Y0093024D01*
X0042446Y0091426D02*
X0045202Y0091426D01*
X0045202Y0089827D02*
X0042450Y0089827D01*
X0042454Y0088228D02*
X0045202Y0088228D01*
X0045202Y0086630D02*
X0042457Y0086630D01*
X0042461Y0085031D02*
X0045202Y0085031D01*
X0045202Y0083433D02*
X0042465Y0083433D01*
X0042468Y0081834D02*
X0045202Y0081834D01*
X0045202Y0080236D02*
X0042472Y0080236D01*
X0042476Y0078637D02*
X0045202Y0078637D01*
X0045202Y0077039D02*
X0042480Y0077039D01*
X0042483Y0075440D02*
X0045202Y0075440D01*
X0045202Y0073842D02*
X0042487Y0073842D01*
X0042491Y0072243D02*
X0045202Y0072243D01*
X0045202Y0070645D02*
X0042494Y0070645D01*
X0042498Y0069046D02*
X0045202Y0069046D01*
X0044203Y0067448D02*
X0043508Y0067448D01*
X0038498Y0069046D02*
X0004631Y0069046D01*
X0004632Y0067448D02*
X0037510Y0067448D01*
X0036844Y0065849D02*
X0004633Y0065849D01*
X0004634Y0064251D02*
X0036844Y0064251D01*
X0036844Y0062652D02*
X0012222Y0062652D01*
X0012450Y0061054D02*
X0037392Y0061054D01*
X0038509Y0059455D02*
X0012450Y0059455D01*
X0012450Y0057857D02*
X0039656Y0057857D01*
X0041255Y0056258D02*
X0012450Y0056258D01*
X0012450Y0054660D02*
X0042853Y0054660D01*
X0043627Y0061054D02*
X0044085Y0061054D01*
X0038494Y0070645D02*
X0004630Y0070645D01*
X0004629Y0072243D02*
X0038491Y0072243D01*
X0038487Y0073842D02*
X0004628Y0073842D01*
X0004627Y0075440D02*
X0038483Y0075440D01*
X0038480Y0077039D02*
X0004626Y0077039D01*
X0004626Y0078637D02*
X0038476Y0078637D01*
X0038472Y0080236D02*
X0004625Y0080236D01*
X0004624Y0081834D02*
X0038468Y0081834D01*
X0038465Y0083433D02*
X0004623Y0083433D01*
X0004622Y0085031D02*
X0038461Y0085031D01*
X0038457Y0086630D02*
X0004621Y0086630D01*
X0004620Y0088228D02*
X0038454Y0088228D01*
X0038450Y0089827D02*
X0004619Y0089827D01*
X0004618Y0091426D02*
X0038446Y0091426D01*
X0038442Y0093024D02*
X0004617Y0093024D01*
X0004617Y0094623D02*
X0038439Y0094623D01*
X0038435Y0096221D02*
X0004616Y0096221D01*
X0004615Y0097820D02*
X0038431Y0097820D01*
X0038428Y0099418D02*
X0004614Y0099418D01*
X0004613Y0101017D02*
X0038377Y0101017D01*
X0038617Y0102615D02*
X0004612Y0102615D01*
X0004611Y0104214D02*
X0040487Y0104214D01*
X0042357Y0105812D02*
X0004610Y0105812D01*
X0004609Y0107411D02*
X0044227Y0107411D01*
X0046097Y0109009D02*
X0004608Y0109009D01*
X0004607Y0110608D02*
X0047967Y0110608D01*
X0049837Y0112206D02*
X0004607Y0112206D01*
X0004606Y0113805D02*
X0051707Y0113805D01*
X0053577Y0115403D02*
X0004605Y0115403D01*
X0004604Y0117002D02*
X0055447Y0117002D01*
X0057316Y0118600D02*
X0004603Y0118600D01*
X0004602Y0120199D02*
X0059186Y0120199D01*
X0061056Y0121797D02*
X0004601Y0121797D01*
X0004600Y0123396D02*
X0062179Y0123396D01*
X0062668Y0124994D02*
X0004599Y0124994D01*
X0004598Y0126593D02*
X0033187Y0126593D01*
X0032326Y0128191D02*
X0004598Y0128191D01*
X0004597Y0129790D02*
X0032532Y0129790D01*
X0032227Y0131388D02*
X0004596Y0131388D01*
X0004595Y0132987D02*
X0032016Y0132987D01*
X0032865Y0134585D02*
X0004594Y0134585D01*
X0004593Y0136184D02*
X0069580Y0136184D01*
X0071193Y0137782D02*
X0032460Y0137782D01*
X0032977Y0138299D02*
X0033537Y0139652D01*
X0033537Y0141117D01*
X0032977Y0142469D01*
X0032156Y0143290D01*
X0032156Y0165696D01*
X0032404Y0165098D01*
X0033439Y0164063D01*
X0034792Y0163502D01*
X0036257Y0163502D01*
X0037609Y0164063D01*
X0038645Y0165098D01*
X0039205Y0166451D01*
X0039205Y0167916D01*
X0039170Y0168001D01*
X0040697Y0169528D01*
X0040697Y0171185D01*
X0039526Y0172356D01*
X0037869Y0172356D01*
X0036342Y0170829D01*
X0036257Y0170864D01*
X0034792Y0170864D01*
X0033439Y0170304D01*
X0032404Y0169268D01*
X0032156Y0168670D01*
X0032156Y0250231D01*
X0036352Y0254427D01*
X0037513Y0254427D01*
X0038866Y0254988D01*
X0039901Y0256023D01*
X0040462Y0257376D01*
X0040462Y0258841D01*
X0039901Y0260194D01*
X0038866Y0261229D01*
X0037513Y0261790D01*
X0036048Y0261790D01*
X0034695Y0261229D01*
X0033660Y0260194D01*
X0033099Y0258841D01*
X0033099Y0257680D01*
X0028903Y0253484D01*
X0027556Y0252137D01*
X0027556Y0143290D01*
X0026735Y0142469D01*
X0026175Y0141117D01*
X0026175Y0139652D01*
X0026735Y0138299D01*
X0027771Y0137264D01*
X0029124Y0136703D01*
X0030588Y0136703D01*
X0031941Y0137264D01*
X0032977Y0138299D01*
X0033425Y0139381D02*
X0072367Y0139381D01*
X0071593Y0140979D02*
X0033537Y0140979D01*
X0032868Y0142578D02*
X0071593Y0142578D01*
X0072052Y0144176D02*
X0032156Y0144176D01*
X0032156Y0145775D02*
X0050141Y0145775D01*
X0048589Y0147373D02*
X0032156Y0147373D01*
X0032156Y0148972D02*
X0048363Y0148972D01*
X0049175Y0150570D02*
X0032156Y0150570D01*
X0032156Y0152169D02*
X0071593Y0152169D01*
X0071593Y0150570D02*
X0053551Y0150570D01*
X0054363Y0148972D02*
X0072776Y0148972D01*
X0071643Y0153767D02*
X0032156Y0153767D01*
X0032156Y0155366D02*
X0064473Y0155366D01*
X0062825Y0156964D02*
X0032156Y0156964D01*
X0032156Y0158563D02*
X0061178Y0158563D01*
X0059530Y0160161D02*
X0032156Y0160161D01*
X0032156Y0161760D02*
X0057882Y0161760D01*
X0056336Y0163359D02*
X0032156Y0163359D01*
X0032156Y0164957D02*
X0032545Y0164957D01*
X0032888Y0169753D02*
X0032156Y0169753D01*
X0032156Y0171351D02*
X0036864Y0171351D01*
X0040531Y0171351D02*
X0056336Y0171351D01*
X0056336Y0169753D02*
X0040697Y0169753D01*
X0039323Y0168154D02*
X0056336Y0168154D01*
X0056336Y0166556D02*
X0039205Y0166556D01*
X0038504Y0164957D02*
X0056336Y0164957D01*
X0056336Y0172950D02*
X0032156Y0172950D01*
X0032156Y0174548D02*
X0056336Y0174548D01*
X0056336Y0176147D02*
X0032156Y0176147D01*
X0032156Y0177745D02*
X0056336Y0177745D01*
X0054943Y0179344D02*
X0032156Y0179344D01*
X0032156Y0180942D02*
X0053392Y0180942D01*
X0051840Y0182541D02*
X0032156Y0182541D01*
X0032156Y0184139D02*
X0048905Y0184139D01*
X0047815Y0185738D02*
X0032156Y0185738D01*
X0032156Y0187336D02*
X0047788Y0187336D01*
X0048841Y0188935D02*
X0032156Y0188935D01*
X0032156Y0190533D02*
X0051418Y0190533D01*
X0051418Y0192132D02*
X0032156Y0192132D01*
X0032156Y0193730D02*
X0051418Y0193730D01*
X0051418Y0195329D02*
X0032156Y0195329D01*
X0032156Y0196927D02*
X0051418Y0196927D01*
X0051418Y0198526D02*
X0032156Y0198526D01*
X0032156Y0200124D02*
X0051418Y0200124D01*
X0051418Y0201723D02*
X0032156Y0201723D01*
X0032156Y0203321D02*
X0051418Y0203321D01*
X0051418Y0204920D02*
X0032156Y0204920D01*
X0032156Y0206518D02*
X0051418Y0206518D01*
X0051418Y0208117D02*
X0032156Y0208117D01*
X0032156Y0209715D02*
X0051418Y0209715D01*
X0051418Y0211314D02*
X0032156Y0211314D01*
X0032156Y0212912D02*
X0051418Y0212912D01*
X0051418Y0214511D02*
X0032156Y0214511D01*
X0032156Y0216109D02*
X0051418Y0216109D01*
X0051418Y0217708D02*
X0032156Y0217708D01*
X0032156Y0219306D02*
X0051418Y0219306D01*
X0051418Y0220905D02*
X0032156Y0220905D01*
X0032156Y0222503D02*
X0051418Y0222503D01*
X0051418Y0224102D02*
X0032156Y0224102D01*
X0032156Y0225700D02*
X0051418Y0225700D01*
X0051265Y0227299D02*
X0032156Y0227299D01*
X0032156Y0228897D02*
X0050418Y0228897D01*
X0050629Y0230496D02*
X0032156Y0230496D01*
X0032156Y0232095D02*
X0052110Y0232095D01*
X0054420Y0233693D02*
X0032156Y0233693D01*
X0032156Y0235292D02*
X0050763Y0235292D01*
X0049975Y0236890D02*
X0032156Y0236890D01*
X0032156Y0238489D02*
X0050211Y0238489D01*
X0051812Y0240087D02*
X0032156Y0240087D01*
X0032156Y0241686D02*
X0053661Y0241686D01*
X0054138Y0240087D02*
X0055260Y0240087D01*
X0056292Y0238489D02*
X0056858Y0238489D01*
X0059318Y0241686D02*
X0059818Y0241686D01*
X0059602Y0243284D02*
X0057720Y0243284D01*
X0058003Y0244883D02*
X0056121Y0244883D01*
X0056405Y0246481D02*
X0055625Y0246481D01*
X0054806Y0248080D02*
X0032156Y0248080D01*
X0032156Y0249678D02*
X0053208Y0249678D01*
X0049852Y0251277D02*
X0033201Y0251277D01*
X0034800Y0252875D02*
X0049458Y0252875D01*
X0049895Y0254474D02*
X0037624Y0254474D01*
X0039921Y0256072D02*
X0240970Y0256072D01*
X0240970Y0254474D02*
X0055022Y0254474D01*
X0055668Y0252875D02*
X0240971Y0252875D01*
X0240971Y0251277D02*
X0057266Y0251277D01*
X0058865Y0249678D02*
X0240971Y0249678D01*
X0240972Y0248080D02*
X0060463Y0248080D01*
X0062062Y0246481D02*
X0240972Y0246481D01*
X0240973Y0244883D02*
X0063660Y0244883D01*
X0063818Y0243284D02*
X0240973Y0243284D01*
X0240973Y0241686D02*
X0063818Y0241686D01*
X0063818Y0240087D02*
X0240974Y0240087D01*
X0240974Y0238489D02*
X0063818Y0238489D01*
X0063818Y0236890D02*
X0240974Y0236890D01*
X0240975Y0235292D02*
X0063818Y0235292D01*
X0063818Y0233693D02*
X0240975Y0233693D01*
X0240975Y0232095D02*
X0063818Y0232095D01*
X0063818Y0230496D02*
X0240976Y0230496D01*
X0240976Y0228897D02*
X0063818Y0228897D01*
X0063818Y0227299D02*
X0240976Y0227299D01*
X0240977Y0225700D02*
X0063818Y0225700D01*
X0063818Y0224102D02*
X0240977Y0224102D01*
X0240978Y0222503D02*
X0063818Y0222503D01*
X0063818Y0220905D02*
X0240978Y0220905D01*
X0240978Y0219306D02*
X0063818Y0219306D01*
X0063818Y0217708D02*
X0240979Y0217708D01*
X0240979Y0216109D02*
X0063818Y0216109D01*
X0063818Y0214511D02*
X0240979Y0214511D01*
X0240980Y0212912D02*
X0063818Y0212912D01*
X0063818Y0211314D02*
X0240980Y0211314D01*
X0240980Y0209715D02*
X0063818Y0209715D01*
X0063818Y0208117D02*
X0083580Y0208117D01*
X0084066Y0208318D02*
X0082154Y0207526D01*
X0080692Y0206063D01*
X0079900Y0204152D01*
X0079900Y0202083D01*
X0080692Y0200172D01*
X0082154Y0198709D01*
X0084066Y0197918D01*
X0086134Y0197918D01*
X0088046Y0198709D01*
X0089508Y0200172D01*
X0090100Y0201601D01*
X0090692Y0200172D01*
X0092154Y0198709D01*
X0093155Y0198295D01*
X0093155Y0197560D01*
X0094327Y0196388D01*
X0103646Y0187069D01*
X0109025Y0187069D01*
X0109010Y0187053D01*
X0108773Y0186643D01*
X0108650Y0186185D01*
X0108650Y0183967D01*
X0112234Y0183967D01*
X0112234Y0183598D01*
X0108650Y0183598D01*
X0108650Y0181380D01*
X0108773Y0180923D01*
X0109010Y0180512D01*
X0109298Y0180224D01*
X0108950Y0179876D01*
X0108950Y0174303D01*
X0109829Y0173424D01*
X0110418Y0173424D01*
X0110418Y0171963D01*
X0110754Y0171628D01*
X0110754Y0170260D01*
X0111287Y0168974D01*
X0112272Y0167989D01*
X0113558Y0167456D01*
X0114950Y0167456D01*
X0116237Y0167989D01*
X0117221Y0168974D01*
X0117754Y0170260D01*
X0117754Y0171652D01*
X0117221Y0172939D01*
X0116237Y0173923D01*
X0115721Y0174137D01*
X0115887Y0174303D01*
X0115887Y0179876D01*
X0115539Y0180224D01*
X0115827Y0180512D01*
X0116064Y0180923D01*
X0116187Y0181380D01*
X0116187Y0183598D01*
X0112603Y0183598D01*
X0112603Y0183967D01*
X0116187Y0183967D01*
X0116187Y0186185D01*
X0116090Y0186547D01*
X0116526Y0186984D01*
X0117086Y0188337D01*
X0117086Y0189801D01*
X0116526Y0191154D01*
X0115490Y0192189D01*
X0114138Y0192750D01*
X0112673Y0192750D01*
X0111320Y0192189D01*
X0110285Y0191154D01*
X0110249Y0191069D01*
X0105303Y0191069D01*
X0097774Y0198597D01*
X0098046Y0198709D01*
X0099508Y0200172D01*
X0100100Y0201601D01*
X0100692Y0200172D01*
X0102154Y0198709D01*
X0104066Y0197918D01*
X0106134Y0197918D01*
X0108046Y0198709D01*
X0109508Y0200172D01*
X0110100Y0201601D01*
X0110692Y0200172D01*
X0112154Y0198709D01*
X0114066Y0197918D01*
X0116134Y0197918D01*
X0118046Y0198709D01*
X0119508Y0200172D01*
X0119937Y0201208D01*
X0120003Y0201007D01*
X0120396Y0200235D01*
X0120905Y0199535D01*
X0121517Y0198923D01*
X0122217Y0198414D01*
X0122989Y0198021D01*
X0123812Y0197753D01*
X0124667Y0197618D01*
X0124900Y0197618D01*
X0124900Y0202918D01*
X0125300Y0202918D01*
X0125300Y0197618D01*
X0125533Y0197618D01*
X0126388Y0197753D01*
X0127211Y0198021D01*
X0127983Y0198414D01*
X0128683Y0198923D01*
X0129295Y0199535D01*
X0129804Y0200235D01*
X0130197Y0201007D01*
X0130263Y0201208D01*
X0130692Y0200172D01*
X0132154Y0198709D01*
X0133100Y0198318D01*
X0133100Y0181556D01*
X0125976Y0174432D01*
X0125891Y0174467D01*
X0124426Y0174467D01*
X0123073Y0173907D01*
X0122038Y0172871D01*
X0121477Y0171518D01*
X0121477Y0170054D01*
X0122038Y0168701D01*
X0123073Y0167665D01*
X0124426Y0167105D01*
X0125891Y0167105D01*
X0127244Y0167665D01*
X0128279Y0168701D01*
X0128839Y0170054D01*
X0128839Y0171518D01*
X0128804Y0171603D01*
X0135928Y0178728D01*
X0135928Y0178728D01*
X0137100Y0179899D01*
X0137100Y0198318D01*
X0138046Y0198709D01*
X0139508Y0200172D01*
X0140100Y0201601D01*
X0140692Y0200172D01*
X0142154Y0198709D01*
X0144066Y0197918D01*
X0146134Y0197918D01*
X0148046Y0198709D01*
X0149508Y0200172D01*
X0150300Y0202083D01*
X0150300Y0204152D01*
X0149508Y0206063D01*
X0148046Y0207526D01*
X0146134Y0208318D01*
X0144066Y0208318D01*
X0142154Y0207526D01*
X0140692Y0206063D01*
X0140100Y0204635D01*
X0139508Y0206063D01*
X0138046Y0207526D01*
X0136134Y0208318D01*
X0134066Y0208318D01*
X0132154Y0207526D01*
X0130692Y0206063D01*
X0130263Y0205027D01*
X0130197Y0205229D01*
X0129804Y0206000D01*
X0129295Y0206701D01*
X0128683Y0207313D01*
X0127983Y0207822D01*
X0127211Y0208215D01*
X0126388Y0208482D01*
X0125533Y0208618D01*
X0125300Y0208618D01*
X0125300Y0203318D01*
X0124900Y0203318D01*
X0124900Y0208618D01*
X0124667Y0208618D01*
X0123812Y0208482D01*
X0122989Y0208215D01*
X0122217Y0207822D01*
X0121517Y0207313D01*
X0120905Y0206701D01*
X0120396Y0206000D01*
X0120003Y0205229D01*
X0119937Y0205027D01*
X0119508Y0206063D01*
X0118046Y0207526D01*
X0116134Y0208318D01*
X0114066Y0208318D01*
X0112154Y0207526D01*
X0110692Y0206063D01*
X0110100Y0204635D01*
X0109508Y0206063D01*
X0108046Y0207526D01*
X0106134Y0208318D01*
X0104066Y0208318D01*
X0102154Y0207526D01*
X0100692Y0206063D01*
X0100100Y0204635D01*
X0099508Y0206063D01*
X0098046Y0207526D01*
X0096134Y0208318D01*
X0094066Y0208318D01*
X0092154Y0207526D01*
X0090692Y0206063D01*
X0090100Y0204635D01*
X0089508Y0206063D01*
X0088046Y0207526D01*
X0086134Y0208318D01*
X0084066Y0208318D01*
X0086620Y0208117D02*
X0093580Y0208117D01*
X0091147Y0206518D02*
X0089053Y0206518D01*
X0089982Y0204920D02*
X0090218Y0204920D01*
X0090740Y0200124D02*
X0089460Y0200124D01*
X0087602Y0198526D02*
X0092598Y0198526D01*
X0093788Y0196927D02*
X0063818Y0196927D01*
X0063818Y0195329D02*
X0095386Y0195329D01*
X0096985Y0193730D02*
X0063818Y0193730D01*
X0063818Y0192132D02*
X0098583Y0192132D01*
X0100182Y0190533D02*
X0063818Y0190533D01*
X0063818Y0188935D02*
X0101780Y0188935D01*
X0103379Y0187336D02*
X0063818Y0187336D01*
X0065392Y0185738D02*
X0073614Y0185738D01*
X0072015Y0184139D02*
X0066990Y0184139D01*
X0068589Y0182541D02*
X0071593Y0182541D01*
X0071593Y0180942D02*
X0069115Y0180942D01*
X0069115Y0179344D02*
X0072404Y0179344D01*
X0078173Y0185738D02*
X0083614Y0185738D01*
X0084112Y0186236D02*
X0081593Y0183717D01*
X0081593Y0180155D01*
X0084112Y0177636D01*
X0087674Y0177636D01*
X0090193Y0180155D01*
X0090193Y0183717D01*
X0087674Y0186236D01*
X0084112Y0186236D01*
X0082015Y0184139D02*
X0079771Y0184139D01*
X0080193Y0182541D02*
X0081593Y0182541D01*
X0081593Y0180942D02*
X0080193Y0180942D01*
X0079382Y0179344D02*
X0082404Y0179344D01*
X0082912Y0177745D02*
X0084003Y0177745D01*
X0087783Y0177745D02*
X0108950Y0177745D01*
X0108950Y0176147D02*
X0087764Y0176147D01*
X0089362Y0174548D02*
X0108950Y0174548D01*
X0110418Y0172950D02*
X0090193Y0172950D01*
X0090193Y0171351D02*
X0110754Y0171351D01*
X0110964Y0169753D02*
X0089791Y0169753D01*
X0088192Y0168154D02*
X0112106Y0168154D01*
X0116402Y0168154D02*
X0122584Y0168154D01*
X0121602Y0169753D02*
X0117544Y0169753D01*
X0117754Y0171351D02*
X0121477Y0171351D01*
X0122116Y0172950D02*
X0117210Y0172950D01*
X0115887Y0174548D02*
X0126092Y0174548D01*
X0127691Y0176147D02*
X0115887Y0176147D01*
X0115887Y0177745D02*
X0129289Y0177745D01*
X0130888Y0179344D02*
X0115887Y0179344D01*
X0116069Y0180942D02*
X0132486Y0180942D01*
X0133100Y0182541D02*
X0116187Y0182541D01*
X0116187Y0184139D02*
X0133100Y0184139D01*
X0133100Y0185738D02*
X0116187Y0185738D01*
X0116672Y0187336D02*
X0133100Y0187336D01*
X0133100Y0188935D02*
X0117086Y0188935D01*
X0116783Y0190533D02*
X0133100Y0190533D01*
X0133100Y0192132D02*
X0115548Y0192132D01*
X0111262Y0192132D02*
X0104240Y0192132D01*
X0102641Y0193730D02*
X0133100Y0193730D01*
X0133100Y0195329D02*
X0101043Y0195329D01*
X0099444Y0196927D02*
X0133100Y0196927D01*
X0132598Y0198526D02*
X0128137Y0198526D01*
X0129723Y0200124D02*
X0130740Y0200124D01*
X0125300Y0200124D02*
X0124900Y0200124D01*
X0124900Y0198526D02*
X0125300Y0198526D01*
X0125300Y0201723D02*
X0124900Y0201723D01*
X0124900Y0203321D02*
X0125300Y0203321D01*
X0125300Y0204920D02*
X0124900Y0204920D01*
X0124900Y0206518D02*
X0125300Y0206518D01*
X0125300Y0208117D02*
X0124900Y0208117D01*
X0122796Y0208117D02*
X0116620Y0208117D01*
X0119053Y0206518D02*
X0120772Y0206518D01*
X0127404Y0208117D02*
X0133580Y0208117D01*
X0131147Y0206518D02*
X0129428Y0206518D01*
X0136620Y0208117D02*
X0143580Y0208117D01*
X0141147Y0206518D02*
X0139053Y0206518D01*
X0139982Y0204920D02*
X0140218Y0204920D01*
X0140740Y0200124D02*
X0139460Y0200124D01*
X0137602Y0198526D02*
X0142598Y0198526D01*
X0147602Y0198526D02*
X0240983Y0198526D01*
X0240983Y0200124D02*
X0149460Y0200124D01*
X0150151Y0201723D02*
X0240982Y0201723D01*
X0240982Y0203321D02*
X0150300Y0203321D01*
X0149982Y0204920D02*
X0240981Y0204920D01*
X0240981Y0206518D02*
X0149053Y0206518D01*
X0146620Y0208117D02*
X0240981Y0208117D01*
X0240983Y0196927D02*
X0137100Y0196927D01*
X0137100Y0195329D02*
X0240984Y0195329D01*
X0240984Y0193730D02*
X0137100Y0193730D01*
X0137100Y0192132D02*
X0240984Y0192132D01*
X0240985Y0190533D02*
X0153296Y0190533D01*
X0153835Y0188935D02*
X0240985Y0188935D01*
X0240985Y0187336D02*
X0153622Y0187336D01*
X0156478Y0185738D02*
X0157392Y0185738D01*
X0157392Y0184139D02*
X0156478Y0184139D01*
X0156478Y0182541D02*
X0157392Y0182541D01*
X0157392Y0180942D02*
X0156476Y0180942D01*
X0156178Y0179344D02*
X0157692Y0179344D01*
X0160977Y0184139D02*
X0161345Y0184139D01*
X0161345Y0185738D02*
X0160977Y0185738D01*
X0164929Y0185738D02*
X0179913Y0185738D01*
X0180411Y0186236D02*
X0177892Y0183717D01*
X0177892Y0180155D01*
X0180411Y0177636D01*
X0183973Y0177636D01*
X0186492Y0180155D01*
X0186492Y0183717D01*
X0183973Y0186236D01*
X0180411Y0186236D01*
X0178314Y0184139D02*
X0164929Y0184139D01*
X0164929Y0182541D02*
X0177892Y0182541D01*
X0177892Y0180942D02*
X0164929Y0180942D01*
X0164629Y0179344D02*
X0178704Y0179344D01*
X0180302Y0177745D02*
X0164629Y0177745D01*
X0164629Y0176147D02*
X0180322Y0176147D01*
X0178723Y0174548D02*
X0176757Y0174548D01*
X0174908Y0170737D02*
X0174011Y0170740D01*
X0174126Y0170541D01*
X0174249Y0170084D01*
X0174249Y0168062D01*
X0170468Y0168062D01*
X0170468Y0167694D01*
X0174249Y0167694D01*
X0174249Y0165673D01*
X0174126Y0165215D01*
X0173889Y0164804D01*
X0173554Y0164469D01*
X0173144Y0164232D01*
X0172686Y0164110D01*
X0170468Y0164110D01*
X0170468Y0167694D01*
X0170099Y0167694D01*
X0170099Y0164110D01*
X0167881Y0164110D01*
X0167423Y0164232D01*
X0167013Y0164469D01*
X0166725Y0164757D01*
X0166377Y0164410D01*
X0161219Y0164410D01*
X0161147Y0164237D01*
X0160763Y0163853D01*
X0161119Y0163498D01*
X0161201Y0163298D01*
X0166353Y0163298D01*
X0166701Y0162950D01*
X0166989Y0163238D01*
X0167399Y0163475D01*
X0167857Y0163598D01*
X0170075Y0163598D01*
X0170075Y0160014D01*
X0170444Y0160014D01*
X0170444Y0163598D01*
X0172662Y0163598D01*
X0173120Y0163475D01*
X0173530Y0163238D01*
X0173865Y0162903D01*
X0174102Y0162493D01*
X0174225Y0162035D01*
X0174225Y0160014D01*
X0170444Y0160014D01*
X0170444Y0159645D01*
X0174225Y0159645D01*
X0174225Y0157624D01*
X0174102Y0157166D01*
X0173865Y0156756D01*
X0173530Y0156420D01*
X0173120Y0156183D01*
X0172662Y0156061D01*
X0170444Y0156061D01*
X0170444Y0159645D01*
X0170075Y0159645D01*
X0170075Y0156061D01*
X0167857Y0156061D01*
X0167399Y0156183D01*
X0166989Y0156420D01*
X0166701Y0156708D01*
X0166353Y0156361D01*
X0162927Y0156361D01*
X0161810Y0155244D01*
X0166387Y0155244D01*
X0166735Y0154897D01*
X0167023Y0155185D01*
X0167434Y0155422D01*
X0167891Y0155544D01*
X0170109Y0155544D01*
X0170109Y0151960D01*
X0170478Y0151960D01*
X0174259Y0151960D01*
X0174259Y0153981D01*
X0174136Y0154439D01*
X0173899Y0154850D01*
X0173564Y0155185D01*
X0173154Y0155422D01*
X0172696Y0155544D01*
X0170478Y0155544D01*
X0170478Y0151960D01*
X0170478Y0151592D01*
X0174259Y0151592D01*
X0174259Y0149570D01*
X0174136Y0149113D01*
X0173899Y0148702D01*
X0173564Y0148367D01*
X0173154Y0148130D01*
X0172696Y0148007D01*
X0170478Y0148007D01*
X0170478Y0151592D01*
X0170109Y0151592D01*
X0170109Y0148007D01*
X0167891Y0148007D01*
X0167657Y0148070D01*
X0167945Y0147782D01*
X0167945Y0142208D01*
X0167598Y0141861D01*
X0167886Y0141573D01*
X0168123Y0141162D01*
X0168245Y0140704D01*
X0168245Y0138486D01*
X0164661Y0138486D01*
X0164661Y0138118D01*
X0168245Y0138118D01*
X0168245Y0135900D01*
X0168123Y0135442D01*
X0167905Y0135065D01*
X0172493Y0135065D01*
X0177892Y0140464D01*
X0177892Y0143717D01*
X0179293Y0145117D01*
X0178144Y0145117D01*
X0176972Y0146289D01*
X0175622Y0147639D01*
X0175622Y0170024D01*
X0174908Y0170737D01*
X0174249Y0169753D02*
X0175622Y0169753D01*
X0175622Y0168154D02*
X0174249Y0168154D01*
X0174249Y0166556D02*
X0175622Y0166556D01*
X0175622Y0164957D02*
X0173977Y0164957D01*
X0173322Y0163359D02*
X0175622Y0163359D01*
X0175622Y0161760D02*
X0174225Y0161760D01*
X0174225Y0160161D02*
X0175622Y0160161D01*
X0175622Y0158563D02*
X0174225Y0158563D01*
X0173986Y0156964D02*
X0175622Y0156964D01*
X0175622Y0155366D02*
X0173250Y0155366D01*
X0174259Y0153767D02*
X0175622Y0153767D01*
X0175622Y0152169D02*
X0174259Y0152169D01*
X0174259Y0150570D02*
X0175622Y0150570D01*
X0175622Y0148972D02*
X0174055Y0148972D01*
X0175888Y0147373D02*
X0167945Y0147373D01*
X0167945Y0145775D02*
X0177486Y0145775D01*
X0178352Y0144176D02*
X0167945Y0144176D01*
X0167945Y0142578D02*
X0177892Y0142578D01*
X0177892Y0140979D02*
X0168172Y0140979D01*
X0168245Y0139381D02*
X0176809Y0139381D01*
X0175210Y0137782D02*
X0168245Y0137782D01*
X0168245Y0136184D02*
X0173612Y0136184D01*
X0176071Y0132987D02*
X0177892Y0132987D01*
X0177892Y0131388D02*
X0174473Y0131388D01*
X0173411Y0129790D02*
X0178257Y0129790D01*
X0179856Y0128191D02*
X0172596Y0128191D01*
X0177892Y0123396D02*
X0159271Y0123396D01*
X0159271Y0123079D02*
X0159271Y0124471D01*
X0158739Y0125757D01*
X0157754Y0126742D01*
X0156468Y0127275D01*
X0155075Y0127275D01*
X0153789Y0126742D01*
X0152804Y0125757D01*
X0152272Y0124471D01*
X0152272Y0123079D01*
X0152804Y0121792D01*
X0153789Y0120808D01*
X0154573Y0120483D01*
X0154208Y0120117D01*
X0154208Y0114544D01*
X0154556Y0114196D01*
X0154268Y0113908D01*
X0154031Y0113498D01*
X0153908Y0113040D01*
X0153908Y0110822D01*
X0157492Y0110822D01*
X0157492Y0110453D01*
X0157861Y0110453D01*
X0157861Y0106672D01*
X0159882Y0106672D01*
X0160340Y0106795D01*
X0160750Y0107032D01*
X0161085Y0107367D01*
X0161322Y0107778D01*
X0161445Y0108235D01*
X0161445Y0110453D01*
X0157861Y0110453D01*
X0157861Y0110822D01*
X0161445Y0110822D01*
X0161445Y0113040D01*
X0161322Y0113498D01*
X0161085Y0113908D01*
X0160797Y0114196D01*
X0161145Y0114544D01*
X0161145Y0120117D01*
X0160266Y0120996D01*
X0159576Y0120996D01*
X0159576Y0122657D01*
X0159237Y0122996D01*
X0159271Y0123079D01*
X0159576Y0121797D02*
X0177892Y0121797D01*
X0177892Y0120199D02*
X0161063Y0120199D01*
X0161145Y0118600D02*
X0179447Y0118600D01*
X0179578Y0115403D02*
X0161145Y0115403D01*
X0161145Y0113805D02*
X0177980Y0113805D01*
X0177892Y0112206D02*
X0161445Y0112206D01*
X0161445Y0109009D02*
X0179038Y0109009D01*
X0177892Y0110608D02*
X0157861Y0110608D01*
X0157492Y0110608D02*
X0090493Y0110608D01*
X0090493Y0110031D02*
X0090493Y0111836D01*
X0085993Y0111836D01*
X0085993Y0107336D01*
X0087798Y0107336D01*
X0090493Y0110031D01*
X0089472Y0109009D02*
X0153908Y0109009D01*
X0153908Y0108235D02*
X0154031Y0107778D01*
X0154268Y0107367D01*
X0154603Y0107032D01*
X0155013Y0106795D01*
X0155471Y0106672D01*
X0157492Y0106672D01*
X0157492Y0110453D01*
X0153908Y0110453D01*
X0153908Y0108235D01*
X0154242Y0107411D02*
X0087873Y0107411D01*
X0085993Y0107411D02*
X0085793Y0107411D01*
X0085793Y0107336D02*
X0085793Y0111836D01*
X0081293Y0111836D01*
X0081293Y0110031D01*
X0083988Y0107336D01*
X0085793Y0107336D01*
X0085793Y0109009D02*
X0085993Y0109009D01*
X0085993Y0110608D02*
X0085793Y0110608D01*
X0085793Y0111836D02*
X0085993Y0111836D01*
X0085993Y0112036D01*
X0085793Y0112036D01*
X0085793Y0111836D01*
X0085793Y0112036D02*
X0081293Y0112036D01*
X0081293Y0113841D01*
X0083988Y0116536D01*
X0085793Y0116536D01*
X0085793Y0112036D01*
X0085793Y0112206D02*
X0085993Y0112206D01*
X0085993Y0112036D02*
X0085993Y0116536D01*
X0087798Y0116536D01*
X0090493Y0113841D01*
X0090493Y0112036D01*
X0085993Y0112036D01*
X0085993Y0113805D02*
X0085793Y0113805D01*
X0085793Y0115403D02*
X0085993Y0115403D01*
X0088931Y0115403D02*
X0154208Y0115403D01*
X0154208Y0113805D02*
X0090493Y0113805D01*
X0090493Y0112206D02*
X0153908Y0112206D01*
X0157492Y0109009D02*
X0157861Y0109009D01*
X0157861Y0107411D02*
X0157492Y0107411D01*
X0161110Y0107411D02*
X0185066Y0107411D01*
X0185066Y0105812D02*
X0071705Y0105812D01*
X0071705Y0104214D02*
X0185066Y0104214D01*
X0185066Y0102615D02*
X0171295Y0102615D01*
X0172894Y0101017D02*
X0174754Y0101017D01*
X0166790Y0102615D02*
X0161295Y0102615D01*
X0160824Y0103086D02*
X0157262Y0103086D01*
X0154743Y0100568D01*
X0154743Y0097005D01*
X0157262Y0094486D01*
X0160824Y0094486D01*
X0163343Y0097005D01*
X0163343Y0100568D01*
X0160824Y0103086D01*
X0162894Y0101017D02*
X0165192Y0101017D01*
X0164743Y0099418D02*
X0163343Y0099418D01*
X0163343Y0097820D02*
X0164743Y0097820D01*
X0165527Y0096221D02*
X0162558Y0096221D01*
X0162050Y0094623D02*
X0160960Y0094623D01*
X0157126Y0094623D02*
X0150960Y0094623D01*
X0150824Y0094486D02*
X0153343Y0097005D01*
X0153343Y0100568D01*
X0150824Y0103086D01*
X0147262Y0103086D01*
X0144743Y0100568D01*
X0144743Y0097005D01*
X0147262Y0094486D01*
X0150824Y0094486D01*
X0150886Y0093024D02*
X0157199Y0093024D01*
X0155601Y0091426D02*
X0152485Y0091426D01*
X0153343Y0089827D02*
X0154743Y0089827D01*
X0154743Y0088228D02*
X0153343Y0088228D01*
X0152967Y0086630D02*
X0155118Y0086630D01*
X0154901Y0085031D02*
X0156717Y0085031D01*
X0155344Y0080236D02*
X0197320Y0080236D01*
X0197320Y0081834D02*
X0182311Y0081834D01*
X0183910Y0083433D02*
X0197320Y0083433D01*
X0197320Y0085031D02*
X0185508Y0085031D01*
X0187107Y0086630D02*
X0197320Y0086630D01*
X0197320Y0088228D02*
X0188737Y0088228D01*
X0188737Y0089827D02*
X0197320Y0089827D01*
X0197320Y0091426D02*
X0188737Y0091426D01*
X0188737Y0093024D02*
X0197320Y0093024D01*
X0197320Y0094623D02*
X0187072Y0094623D01*
X0188646Y0096221D02*
X0197320Y0096221D01*
X0197320Y0097820D02*
X0188777Y0097820D01*
X0188777Y0099418D02*
X0197320Y0099418D01*
X0197320Y0101017D02*
X0189066Y0101017D01*
X0189066Y0102615D02*
X0197320Y0102615D01*
X0197320Y0104214D02*
X0189066Y0104214D01*
X0189066Y0105812D02*
X0197320Y0105812D01*
X0197320Y0107411D02*
X0189066Y0107411D01*
X0195346Y0109009D02*
X0197320Y0109009D01*
X0197320Y0110608D02*
X0196492Y0110608D01*
X0196492Y0112206D02*
X0197320Y0112206D01*
X0197320Y0113805D02*
X0196405Y0113805D01*
X0197320Y0115403D02*
X0194806Y0115403D01*
X0197320Y0117002D02*
X0189066Y0117002D01*
X0189066Y0118600D02*
X0189447Y0118600D01*
X0189578Y0115403D02*
X0189066Y0115403D01*
X0185066Y0115403D02*
X0184806Y0115403D01*
X0185066Y0117002D02*
X0161145Y0117002D01*
X0154208Y0117002D02*
X0106676Y0117002D01*
X0107510Y0118600D02*
X0154208Y0118600D01*
X0154289Y0120199D02*
X0148439Y0120199D01*
X0148830Y0121797D02*
X0152802Y0121797D01*
X0152272Y0123396D02*
X0148390Y0123396D01*
X0147730Y0124994D02*
X0152488Y0124994D01*
X0153640Y0126593D02*
X0147730Y0126593D01*
X0147730Y0128191D02*
X0159779Y0128191D01*
X0159088Y0129790D02*
X0147730Y0129790D01*
X0146321Y0131388D02*
X0159088Y0131388D01*
X0159088Y0132987D02*
X0144722Y0132987D01*
X0143124Y0134585D02*
X0159398Y0134585D01*
X0160708Y0136184D02*
X0141525Y0136184D01*
X0139927Y0137782D02*
X0160708Y0137782D01*
X0160708Y0139381D02*
X0138328Y0139381D01*
X0136730Y0140979D02*
X0155321Y0140979D01*
X0154741Y0142578D02*
X0135131Y0142578D01*
X0134553Y0137782D02*
X0093923Y0137782D01*
X0094731Y0139381D02*
X0089419Y0139381D01*
X0090193Y0140979D02*
X0093133Y0140979D01*
X0091534Y0142578D02*
X0090193Y0142578D01*
X0089936Y0144176D02*
X0089734Y0144176D01*
X0092113Y0147373D02*
X0095709Y0147373D01*
X0094111Y0148972D02*
X0089010Y0148972D01*
X0090193Y0150570D02*
X0092371Y0150570D01*
X0090773Y0152169D02*
X0090193Y0152169D01*
X0093232Y0155366D02*
X0107925Y0155366D01*
X0107413Y0155578D02*
X0108699Y0155045D01*
X0110092Y0155045D01*
X0111378Y0155578D01*
X0112363Y0156563D01*
X0112895Y0157849D01*
X0112895Y0159242D01*
X0112363Y0160528D01*
X0111378Y0161513D01*
X0110092Y0162045D01*
X0108699Y0162045D01*
X0107413Y0161513D01*
X0106428Y0160528D01*
X0105895Y0159242D01*
X0105895Y0157849D01*
X0106428Y0156563D01*
X0107413Y0155578D01*
X0106262Y0156964D02*
X0091634Y0156964D01*
X0090035Y0158563D02*
X0105895Y0158563D01*
X0106277Y0160161D02*
X0090193Y0160161D01*
X0090193Y0161760D02*
X0108010Y0161760D01*
X0110781Y0161760D02*
X0154652Y0161760D01*
X0154924Y0160161D02*
X0112514Y0160161D01*
X0112895Y0158563D02*
X0132384Y0158563D01*
X0132979Y0158810D02*
X0131693Y0158277D01*
X0130708Y0157292D01*
X0130175Y0156006D01*
X0130175Y0154613D01*
X0130708Y0153327D01*
X0131693Y0152342D01*
X0132979Y0151810D01*
X0134371Y0151810D01*
X0135658Y0152342D01*
X0136642Y0153327D01*
X0137175Y0154613D01*
X0137175Y0156006D01*
X0136642Y0157292D01*
X0135658Y0158277D01*
X0134371Y0158810D01*
X0132979Y0158810D01*
X0134967Y0158563D02*
X0156154Y0158563D01*
X0157218Y0156964D02*
X0136778Y0156964D01*
X0137175Y0155366D02*
X0155382Y0155366D01*
X0154979Y0153767D02*
X0136825Y0153767D01*
X0135239Y0152169D02*
X0155325Y0152169D01*
X0156057Y0145775D02*
X0093711Y0145775D01*
X0095310Y0144176D02*
X0154936Y0144176D01*
X0161932Y0155366D02*
X0167337Y0155366D01*
X0170109Y0155366D02*
X0170478Y0155366D01*
X0170478Y0153767D02*
X0170109Y0153767D01*
X0170109Y0152169D02*
X0170478Y0152169D01*
X0170478Y0150570D02*
X0170109Y0150570D01*
X0170109Y0148972D02*
X0170478Y0148972D01*
X0170444Y0156964D02*
X0170075Y0156964D01*
X0170075Y0158563D02*
X0170444Y0158563D01*
X0170444Y0160161D02*
X0170075Y0160161D01*
X0170075Y0161760D02*
X0170444Y0161760D01*
X0170444Y0163359D02*
X0170075Y0163359D01*
X0170099Y0164957D02*
X0170468Y0164957D01*
X0170468Y0166556D02*
X0170099Y0166556D01*
X0167197Y0163359D02*
X0161176Y0163359D01*
X0155127Y0163359D02*
X0090193Y0163359D01*
X0088953Y0164957D02*
X0154915Y0164957D01*
X0147900Y0166556D02*
X0082567Y0166556D01*
X0083594Y0168154D02*
X0080969Y0168154D01*
X0081995Y0169753D02*
X0079791Y0169753D01*
X0080193Y0171351D02*
X0081593Y0171351D01*
X0081593Y0172950D02*
X0080193Y0172950D01*
X0089382Y0179344D02*
X0108950Y0179344D01*
X0108767Y0180942D02*
X0090193Y0180942D01*
X0090193Y0182541D02*
X0108650Y0182541D01*
X0108650Y0184139D02*
X0089771Y0184139D01*
X0088173Y0185738D02*
X0108650Y0185738D01*
X0107602Y0198526D02*
X0112598Y0198526D01*
X0110740Y0200124D02*
X0109460Y0200124D01*
X0109982Y0204920D02*
X0110218Y0204920D01*
X0111147Y0206518D02*
X0109053Y0206518D01*
X0106620Y0208117D02*
X0113580Y0208117D01*
X0119460Y0200124D02*
X0120477Y0200124D01*
X0122063Y0198526D02*
X0117602Y0198526D01*
X0103580Y0208117D02*
X0096620Y0208117D01*
X0099053Y0206518D02*
X0101147Y0206518D01*
X0100218Y0204920D02*
X0099982Y0204920D01*
X0099460Y0200124D02*
X0100740Y0200124D01*
X0102598Y0198526D02*
X0097846Y0198526D01*
X0082598Y0198526D02*
X0063818Y0198526D01*
X0063818Y0200124D02*
X0080740Y0200124D01*
X0080049Y0201723D02*
X0063818Y0201723D01*
X0063818Y0203321D02*
X0079900Y0203321D01*
X0080218Y0204920D02*
X0063818Y0204920D01*
X0063818Y0206518D02*
X0081147Y0206518D01*
X0050454Y0243284D02*
X0032156Y0243284D01*
X0032156Y0244883D02*
X0050006Y0244883D01*
X0050388Y0246481D02*
X0032156Y0246481D01*
X0027556Y0246481D02*
X0004531Y0246481D01*
X0004532Y0244883D02*
X0027556Y0244883D01*
X0027556Y0243284D02*
X0004533Y0243284D01*
X0004533Y0241686D02*
X0027556Y0241686D01*
X0027556Y0240087D02*
X0004534Y0240087D01*
X0004535Y0238489D02*
X0027556Y0238489D01*
X0027556Y0236890D02*
X0004536Y0236890D01*
X0004537Y0235292D02*
X0027556Y0235292D01*
X0027556Y0233693D02*
X0004538Y0233693D01*
X0004539Y0232095D02*
X0027556Y0232095D01*
X0027556Y0230496D02*
X0004540Y0230496D01*
X0004541Y0228897D02*
X0027556Y0228897D01*
X0027556Y0227299D02*
X0004542Y0227299D01*
X0004542Y0225700D02*
X0027556Y0225700D01*
X0027556Y0224102D02*
X0004543Y0224102D01*
X0004544Y0222503D02*
X0027556Y0222503D01*
X0027556Y0220905D02*
X0004545Y0220905D01*
X0004546Y0219306D02*
X0027556Y0219306D01*
X0027556Y0217708D02*
X0004547Y0217708D01*
X0004548Y0216109D02*
X0027556Y0216109D01*
X0027556Y0214511D02*
X0004549Y0214511D01*
X0004550Y0212912D02*
X0027556Y0212912D01*
X0027556Y0211314D02*
X0004551Y0211314D01*
X0004551Y0209715D02*
X0027556Y0209715D01*
X0027556Y0208117D02*
X0004552Y0208117D01*
X0004553Y0206518D02*
X0027556Y0206518D01*
X0027556Y0204920D02*
X0004554Y0204920D01*
X0004555Y0203321D02*
X0027556Y0203321D01*
X0027556Y0201723D02*
X0004556Y0201723D01*
X0004557Y0200124D02*
X0027556Y0200124D01*
X0027556Y0198526D02*
X0004558Y0198526D01*
X0004559Y0196927D02*
X0027556Y0196927D01*
X0027556Y0195329D02*
X0004560Y0195329D01*
X0004561Y0193730D02*
X0027556Y0193730D01*
X0027556Y0192132D02*
X0004561Y0192132D01*
X0004562Y0190533D02*
X0027556Y0190533D01*
X0027556Y0188935D02*
X0004563Y0188935D01*
X0004564Y0187336D02*
X0027556Y0187336D01*
X0027556Y0185738D02*
X0004565Y0185738D01*
X0004566Y0184139D02*
X0027556Y0184139D01*
X0027556Y0182541D02*
X0004567Y0182541D01*
X0004568Y0180942D02*
X0027556Y0180942D01*
X0027556Y0179344D02*
X0004569Y0179344D01*
X0004570Y0177745D02*
X0027556Y0177745D01*
X0027556Y0176147D02*
X0004570Y0176147D01*
X0004571Y0174548D02*
X0027556Y0174548D01*
X0027556Y0172950D02*
X0004572Y0172950D01*
X0004573Y0171351D02*
X0027556Y0171351D01*
X0027556Y0169753D02*
X0004574Y0169753D01*
X0004575Y0168154D02*
X0027556Y0168154D01*
X0027556Y0166556D02*
X0004576Y0166556D01*
X0004577Y0164957D02*
X0027556Y0164957D01*
X0027556Y0163359D02*
X0004578Y0163359D01*
X0004579Y0161760D02*
X0027556Y0161760D01*
X0027556Y0160161D02*
X0004579Y0160161D01*
X0004580Y0158563D02*
X0027556Y0158563D01*
X0027556Y0156964D02*
X0004581Y0156964D01*
X0004582Y0155366D02*
X0027556Y0155366D01*
X0027556Y0153767D02*
X0004583Y0153767D01*
X0004584Y0152169D02*
X0027556Y0152169D01*
X0027556Y0150570D02*
X0004585Y0150570D01*
X0004586Y0148972D02*
X0027556Y0148972D01*
X0027556Y0147373D02*
X0004587Y0147373D01*
X0004588Y0145775D02*
X0027556Y0145775D01*
X0027556Y0144176D02*
X0004589Y0144176D01*
X0004589Y0142578D02*
X0026844Y0142578D01*
X0026175Y0140979D02*
X0004590Y0140979D01*
X0004591Y0139381D02*
X0026287Y0139381D01*
X0027252Y0137782D02*
X0004592Y0137782D01*
X0029856Y0140384D02*
X0029856Y0251184D01*
X0036781Y0258109D01*
X0039227Y0260868D02*
X0240969Y0260868D01*
X0240969Y0262466D02*
X0004522Y0262466D01*
X0004523Y0260868D02*
X0034334Y0260868D01*
X0033277Y0259269D02*
X0004523Y0259269D01*
X0004524Y0257671D02*
X0033090Y0257671D01*
X0031491Y0256072D02*
X0004525Y0256072D01*
X0004526Y0254474D02*
X0029893Y0254474D01*
X0028903Y0253484D02*
X0028903Y0253484D01*
X0028294Y0252875D02*
X0004527Y0252875D01*
X0004528Y0251277D02*
X0027556Y0251277D01*
X0027556Y0249678D02*
X0004529Y0249678D01*
X0004530Y0248080D02*
X0027556Y0248080D01*
X0040462Y0257671D02*
X0240970Y0257671D01*
X0240969Y0259269D02*
X0040284Y0259269D01*
X0041155Y0264815D02*
X0041499Y0264815D01*
X0041499Y0269190D01*
X0037124Y0269190D01*
X0037124Y0268846D01*
X0037232Y0268166D01*
X0037445Y0267511D01*
X0037758Y0266897D01*
X0038162Y0266340D01*
X0038649Y0265853D01*
X0039206Y0265448D01*
X0039820Y0265136D01*
X0040475Y0264923D01*
X0041155Y0264815D01*
X0041499Y0264815D02*
X0041843Y0264815D01*
X0042524Y0264923D01*
X0043179Y0265136D01*
X0043792Y0265448D01*
X0044349Y0265853D01*
X0044836Y0266340D01*
X0045241Y0266897D01*
X0045553Y0267511D01*
X0045766Y0268166D01*
X0045874Y0268846D01*
X0045874Y0269190D01*
X0041499Y0269190D01*
X0041499Y0269190D01*
X0041499Y0269190D01*
X0037124Y0269190D01*
X0037124Y0269534D01*
X0037232Y0270215D01*
X0037445Y0270869D01*
X0037758Y0271483D01*
X0038162Y0272040D01*
X0038649Y0272527D01*
X0039206Y0272932D01*
X0039820Y0273244D01*
X0040475Y0273457D01*
X0041155Y0273565D01*
X0041499Y0273565D01*
X0041499Y0269190D01*
X0041499Y0264815D01*
X0041499Y0265663D02*
X0041499Y0265663D01*
X0041499Y0267262D02*
X0041499Y0267262D01*
X0041499Y0268860D02*
X0041499Y0268860D01*
X0041499Y0269190D02*
X0041499Y0269190D01*
X0041499Y0269190D01*
X0045874Y0269190D01*
X0045874Y0269534D01*
X0045766Y0270215D01*
X0045553Y0270869D01*
X0045241Y0271483D01*
X0044836Y0272040D01*
X0044349Y0272527D01*
X0043792Y0272932D01*
X0043179Y0273244D01*
X0042524Y0273457D01*
X0041843Y0273565D01*
X0041499Y0273565D01*
X0041499Y0269190D01*
X0041499Y0270459D02*
X0041499Y0270459D01*
X0041499Y0272057D02*
X0041499Y0272057D01*
X0038179Y0272057D02*
X0025134Y0272057D01*
X0025151Y0272040D02*
X0024664Y0272527D01*
X0024107Y0272932D01*
X0023493Y0273244D01*
X0022839Y0273457D01*
X0022158Y0273565D01*
X0021814Y0273565D01*
X0021470Y0273565D01*
X0020790Y0273457D01*
X0020135Y0273244D01*
X0019521Y0272932D01*
X0018964Y0272527D01*
X0018477Y0272040D01*
X0018072Y0271483D01*
X0017760Y0270869D01*
X0017547Y0270215D01*
X0017439Y0269534D01*
X0017439Y0269190D01*
X0017439Y0268846D01*
X0017547Y0268166D01*
X0017760Y0267511D01*
X0018072Y0266897D01*
X0018477Y0266340D01*
X0018964Y0265853D01*
X0019521Y0265448D01*
X0020135Y0265136D01*
X0020790Y0264923D01*
X0021470Y0264815D01*
X0021814Y0264815D01*
X0021814Y0269190D01*
X0021814Y0269190D01*
X0017439Y0269190D01*
X0021814Y0269190D01*
X0021814Y0269190D01*
X0021814Y0264815D01*
X0022158Y0264815D01*
X0022839Y0264923D01*
X0023493Y0265136D01*
X0024107Y0265448D01*
X0024664Y0265853D01*
X0025151Y0266340D01*
X0025556Y0266897D01*
X0025868Y0267511D01*
X0026081Y0268166D01*
X0026189Y0268846D01*
X0026189Y0269190D01*
X0021814Y0269190D01*
X0021814Y0269190D01*
X0021814Y0273565D01*
X0021814Y0269190D01*
X0021814Y0269190D01*
X0026189Y0269190D01*
X0026189Y0269534D01*
X0026081Y0270215D01*
X0025868Y0270869D01*
X0025556Y0271483D01*
X0025151Y0272040D01*
X0026002Y0270459D02*
X0037311Y0270459D01*
X0037124Y0268860D02*
X0026189Y0268860D01*
X0025742Y0267262D02*
X0037572Y0267262D01*
X0038911Y0265663D02*
X0024403Y0265663D01*
X0021814Y0265663D02*
X0021814Y0265663D01*
X0021814Y0267262D02*
X0021814Y0267262D01*
X0021814Y0268860D02*
X0021814Y0268860D01*
X0021814Y0270459D02*
X0021814Y0270459D01*
X0021814Y0272057D02*
X0021814Y0272057D01*
X0018494Y0272057D02*
X0004516Y0272057D01*
X0004517Y0270459D02*
X0017626Y0270459D01*
X0017439Y0268860D02*
X0004518Y0268860D01*
X0004519Y0267262D02*
X0017887Y0267262D01*
X0019226Y0265663D02*
X0004520Y0265663D01*
X0004521Y0264065D02*
X0240968Y0264065D01*
X0240968Y0265663D02*
X0044088Y0265663D01*
X0045427Y0267262D02*
X0240968Y0267262D01*
X0240967Y0268860D02*
X0045874Y0268860D01*
X0045687Y0270459D02*
X0240967Y0270459D01*
X0240966Y0272057D02*
X0044819Y0272057D01*
X0045488Y0275254D02*
X0046152Y0275254D01*
X0046152Y0276853D02*
X0045488Y0276853D01*
X0045488Y0278451D02*
X0046152Y0278451D01*
X0046152Y0280050D02*
X0240965Y0280050D01*
X0240964Y0281648D02*
X0050689Y0281648D01*
X0050838Y0278451D02*
X0240965Y0278451D01*
X0240965Y0276853D02*
X0050086Y0276853D01*
X0048304Y0275254D02*
X0240966Y0275254D01*
X0240966Y0273656D02*
X0004515Y0273656D01*
X0004514Y0275254D02*
X0015010Y0275254D01*
X0017161Y0275254D02*
X0017825Y0275254D01*
X0017825Y0276853D02*
X0017161Y0276853D01*
X0017161Y0278451D02*
X0017825Y0278451D01*
X0017825Y0280050D02*
X0045488Y0280050D01*
X0040951Y0281648D02*
X0022362Y0281648D01*
X0021414Y0283247D02*
X0032503Y0283247D01*
X0040802Y0278451D02*
X0022512Y0278451D01*
X0021760Y0276853D02*
X0041554Y0276853D01*
X0043336Y0275254D02*
X0019977Y0275254D01*
X0017161Y0280050D02*
X0004512Y0280050D01*
X0004511Y0281648D02*
X0012624Y0281648D01*
X0013572Y0283247D02*
X0004510Y0283247D01*
X0004513Y0278451D02*
X0012475Y0278451D01*
X0013227Y0276853D02*
X0004514Y0276853D01*
X0094831Y0153767D02*
X0130526Y0153767D01*
X0130175Y0155366D02*
X0110866Y0155366D01*
X0112529Y0156964D02*
X0130572Y0156964D01*
X0132112Y0152169D02*
X0096288Y0152169D01*
X0095456Y0136184D02*
X0136151Y0136184D01*
X0137750Y0134585D02*
X0098312Y0134585D01*
X0100144Y0132987D02*
X0139348Y0132987D01*
X0140947Y0131388D02*
X0100428Y0131388D01*
X0100273Y0129790D02*
X0099756Y0129790D01*
X0099795Y0128191D02*
X0100273Y0128191D01*
X0100055Y0123396D02*
X0099135Y0123396D01*
X0099973Y0121797D02*
X0090193Y0121797D01*
X0090193Y0120199D02*
X0099973Y0120199D01*
X0099973Y0118600D02*
X0088638Y0118600D01*
X0090193Y0123396D02*
X0096258Y0123396D01*
X0094886Y0124994D02*
X0088916Y0124994D01*
X0082870Y0124994D02*
X0078916Y0124994D01*
X0080193Y0123396D02*
X0081593Y0123396D01*
X0081593Y0121797D02*
X0080193Y0121797D01*
X0080193Y0120199D02*
X0081593Y0120199D01*
X0083148Y0118600D02*
X0078638Y0118600D01*
X0078507Y0115403D02*
X0082855Y0115403D01*
X0081293Y0113805D02*
X0080106Y0113805D01*
X0080193Y0112206D02*
X0081293Y0112206D01*
X0081293Y0110608D02*
X0080193Y0110608D01*
X0079047Y0109009D02*
X0082315Y0109009D01*
X0083913Y0107411D02*
X0071705Y0107411D01*
X0071705Y0109009D02*
X0072739Y0109009D01*
X0067705Y0109009D02*
X0062423Y0109009D01*
X0062428Y0110608D02*
X0067705Y0110608D01*
X0067705Y0112206D02*
X0061525Y0112206D01*
X0059732Y0115403D02*
X0066541Y0115403D01*
X0066232Y0117002D02*
X0061602Y0117002D01*
X0063472Y0118600D02*
X0066671Y0118600D01*
X0067710Y0120199D02*
X0068685Y0120199D01*
X0068920Y0121797D02*
X0071593Y0121797D01*
X0071593Y0120199D02*
X0070779Y0120199D01*
X0072793Y0118600D02*
X0073148Y0118600D01*
X0073232Y0117002D02*
X0100807Y0117002D01*
X0103557Y0117002D02*
X0103926Y0117002D01*
X0103926Y0118600D02*
X0103557Y0118600D01*
X0103557Y0120199D02*
X0103926Y0120199D01*
X0107210Y0129790D02*
X0107274Y0129790D01*
X0111677Y0129790D02*
X0142545Y0129790D01*
X0143930Y0128191D02*
X0112788Y0128191D01*
X0117297Y0120199D02*
X0117792Y0120199D01*
X0120918Y0120199D02*
X0121287Y0120199D01*
X0121287Y0121797D02*
X0120918Y0121797D01*
X0121287Y0123396D02*
X0126685Y0123396D01*
X0126685Y0123770D02*
X0126685Y0122377D01*
X0127218Y0121091D01*
X0128203Y0120107D01*
X0129489Y0119574D01*
X0130882Y0119574D01*
X0132168Y0120107D01*
X0133152Y0121091D01*
X0133685Y0122377D01*
X0133685Y0123770D01*
X0133152Y0125056D01*
X0132168Y0126041D01*
X0130882Y0126574D01*
X0129489Y0126574D01*
X0128203Y0126041D01*
X0127218Y0125056D01*
X0126685Y0123770D01*
X0127192Y0124994D02*
X0125068Y0124994D01*
X0124736Y0126593D02*
X0143930Y0126593D01*
X0143930Y0124994D02*
X0133178Y0124994D01*
X0133685Y0123396D02*
X0143269Y0123396D01*
X0142830Y0121797D02*
X0133445Y0121797D01*
X0132260Y0120199D02*
X0143220Y0120199D01*
X0128111Y0120199D02*
X0124414Y0120199D01*
X0125068Y0121797D02*
X0126926Y0121797D01*
X0121287Y0124994D02*
X0120918Y0124994D01*
X0120918Y0126593D02*
X0121287Y0126593D01*
X0120824Y0103086D02*
X0117262Y0103086D01*
X0114743Y0100568D01*
X0114743Y0097005D01*
X0117262Y0094486D01*
X0120824Y0094486D01*
X0123343Y0097005D01*
X0123343Y0100568D01*
X0120824Y0103086D01*
X0121295Y0102615D02*
X0126790Y0102615D01*
X0127262Y0103086D02*
X0124743Y0100568D01*
X0124743Y0097005D01*
X0127262Y0094486D01*
X0130824Y0094486D01*
X0133343Y0097005D01*
X0133343Y0100568D01*
X0130824Y0103086D01*
X0127262Y0103086D01*
X0125192Y0101017D02*
X0122894Y0101017D01*
X0123343Y0099418D02*
X0124743Y0099418D01*
X0124743Y0097820D02*
X0123343Y0097820D01*
X0122558Y0096221D02*
X0125527Y0096221D01*
X0127126Y0094623D02*
X0120960Y0094623D01*
X0120824Y0093086D02*
X0117262Y0093086D01*
X0114743Y0090568D01*
X0114743Y0087005D01*
X0117262Y0084486D01*
X0120824Y0084486D01*
X0123343Y0087005D01*
X0123343Y0090568D01*
X0120824Y0093086D01*
X0120886Y0093024D02*
X0127199Y0093024D01*
X0127262Y0093086D02*
X0124743Y0090568D01*
X0124743Y0087005D01*
X0127262Y0084486D01*
X0130824Y0084486D01*
X0133343Y0087005D01*
X0133343Y0090568D01*
X0130824Y0093086D01*
X0127262Y0093086D01*
X0125601Y0091426D02*
X0122485Y0091426D01*
X0123343Y0089827D02*
X0124743Y0089827D01*
X0124743Y0088228D02*
X0123343Y0088228D01*
X0122967Y0086630D02*
X0125118Y0086630D01*
X0126717Y0085031D02*
X0121369Y0085031D01*
X0116717Y0085031D02*
X0111369Y0085031D01*
X0110824Y0084486D02*
X0113343Y0087005D01*
X0113343Y0090568D01*
X0110824Y0093086D01*
X0107262Y0093086D01*
X0104743Y0090568D01*
X0104743Y0087005D01*
X0107262Y0084486D01*
X0110824Y0084486D01*
X0112967Y0086630D02*
X0115118Y0086630D01*
X0114743Y0088228D02*
X0113343Y0088228D01*
X0113343Y0089827D02*
X0114743Y0089827D01*
X0115601Y0091426D02*
X0112485Y0091426D01*
X0110886Y0093024D02*
X0117199Y0093024D01*
X0117126Y0094623D02*
X0110960Y0094623D01*
X0110824Y0094486D02*
X0113343Y0097005D01*
X0113343Y0100568D01*
X0110824Y0103086D01*
X0107262Y0103086D01*
X0104743Y0100568D01*
X0104743Y0097005D01*
X0107262Y0094486D01*
X0110824Y0094486D01*
X0112558Y0096221D02*
X0115527Y0096221D01*
X0114743Y0097820D02*
X0113343Y0097820D01*
X0113343Y0099418D02*
X0114743Y0099418D01*
X0115192Y0101017D02*
X0112894Y0101017D01*
X0111295Y0102615D02*
X0116790Y0102615D01*
X0106790Y0102615D02*
X0101295Y0102615D01*
X0100824Y0103086D02*
X0097262Y0103086D01*
X0094743Y0100568D01*
X0094743Y0097005D01*
X0097262Y0094486D01*
X0100824Y0094486D01*
X0103343Y0097005D01*
X0103343Y0100568D01*
X0100824Y0103086D01*
X0102894Y0101017D02*
X0105192Y0101017D01*
X0104743Y0099418D02*
X0103343Y0099418D01*
X0103343Y0097820D02*
X0104743Y0097820D01*
X0105527Y0096221D02*
X0102558Y0096221D01*
X0100960Y0094623D02*
X0107126Y0094623D01*
X0107199Y0093024D02*
X0100886Y0093024D01*
X0100824Y0093086D02*
X0097262Y0093086D01*
X0094743Y0090568D01*
X0094743Y0087005D01*
X0097262Y0084486D01*
X0100824Y0084486D01*
X0103343Y0087005D01*
X0103343Y0090568D01*
X0100824Y0093086D01*
X0102485Y0091426D02*
X0105601Y0091426D01*
X0104743Y0089827D02*
X0103343Y0089827D01*
X0103343Y0088228D02*
X0104743Y0088228D01*
X0105118Y0086630D02*
X0102967Y0086630D01*
X0101369Y0085031D02*
X0106717Y0085031D01*
X0096717Y0085031D02*
X0071705Y0085031D01*
X0071705Y0083433D02*
X0091113Y0083433D01*
X0089472Y0081834D02*
X0071705Y0081834D01*
X0071705Y0080236D02*
X0087831Y0080236D01*
X0086189Y0078637D02*
X0071705Y0078637D01*
X0071705Y0077039D02*
X0084548Y0077039D01*
X0082907Y0075440D02*
X0071705Y0075440D01*
X0071705Y0073842D02*
X0081266Y0073842D01*
X0079624Y0072243D02*
X0071705Y0072243D01*
X0071705Y0070645D02*
X0075825Y0070645D01*
X0074694Y0069046D02*
X0071705Y0069046D01*
X0071705Y0067448D02*
X0074491Y0067448D01*
X0074398Y0065849D02*
X0071705Y0065849D01*
X0071705Y0064251D02*
X0074398Y0064251D01*
X0078398Y0064251D02*
X0195024Y0064251D01*
X0196622Y0065849D02*
X0080929Y0065849D01*
X0081491Y0067448D02*
X0197320Y0067448D01*
X0197320Y0069046D02*
X0082075Y0069046D01*
X0083716Y0070645D02*
X0197320Y0070645D01*
X0197320Y0072243D02*
X0085357Y0072243D01*
X0086999Y0073842D02*
X0197320Y0073842D01*
X0197320Y0075440D02*
X0088640Y0075440D01*
X0090281Y0077039D02*
X0197320Y0077039D01*
X0197320Y0078637D02*
X0091922Y0078637D01*
X0093564Y0080236D02*
X0149797Y0080236D01*
X0146717Y0085031D02*
X0141369Y0085031D01*
X0140824Y0084486D02*
X0143343Y0087005D01*
X0143343Y0090568D01*
X0140824Y0093086D01*
X0137262Y0093086D01*
X0134743Y0090568D01*
X0134743Y0087005D01*
X0137262Y0084486D01*
X0140824Y0084486D01*
X0142967Y0086630D02*
X0145118Y0086630D01*
X0144743Y0088228D02*
X0143343Y0088228D01*
X0143343Y0089827D02*
X0144743Y0089827D01*
X0145601Y0091426D02*
X0142485Y0091426D01*
X0140886Y0093024D02*
X0147199Y0093024D01*
X0147126Y0094623D02*
X0140960Y0094623D01*
X0140824Y0094486D02*
X0143343Y0097005D01*
X0143343Y0100568D01*
X0140824Y0103086D01*
X0137262Y0103086D01*
X0134743Y0100568D01*
X0134743Y0097005D01*
X0137262Y0094486D01*
X0140824Y0094486D01*
X0142558Y0096221D02*
X0145527Y0096221D01*
X0144743Y0097820D02*
X0143343Y0097820D01*
X0143343Y0099418D02*
X0144743Y0099418D01*
X0145192Y0101017D02*
X0142894Y0101017D01*
X0141295Y0102615D02*
X0146790Y0102615D01*
X0151295Y0102615D02*
X0156790Y0102615D01*
X0155192Y0101017D02*
X0152894Y0101017D01*
X0153343Y0099418D02*
X0154743Y0099418D01*
X0154743Y0097820D02*
X0153343Y0097820D01*
X0152558Y0096221D02*
X0155527Y0096221D01*
X0137126Y0094623D02*
X0130960Y0094623D01*
X0130886Y0093024D02*
X0137199Y0093024D01*
X0135601Y0091426D02*
X0132485Y0091426D01*
X0133343Y0089827D02*
X0134743Y0089827D01*
X0134743Y0088228D02*
X0133343Y0088228D01*
X0132967Y0086630D02*
X0135118Y0086630D01*
X0136717Y0085031D02*
X0131369Y0085031D01*
X0132558Y0096221D02*
X0135527Y0096221D01*
X0134743Y0097820D02*
X0133343Y0097820D01*
X0133343Y0099418D02*
X0134743Y0099418D01*
X0135192Y0101017D02*
X0132894Y0101017D01*
X0131295Y0102615D02*
X0136790Y0102615D01*
X0159055Y0124994D02*
X0179169Y0124994D01*
X0185066Y0126593D02*
X0157903Y0126593D01*
X0162869Y0128191D02*
X0163237Y0128191D01*
X0163237Y0129790D02*
X0162869Y0129790D01*
X0162869Y0131388D02*
X0163237Y0131388D01*
X0166327Y0128191D02*
X0166896Y0128191D01*
X0177670Y0134585D02*
X0178760Y0134585D01*
X0179268Y0136184D02*
X0180359Y0136184D01*
X0184026Y0136184D02*
X0185066Y0136184D01*
X0187576Y0139381D02*
X0188242Y0139381D01*
X0187592Y0140979D02*
X0186492Y0140979D01*
X0186492Y0142578D02*
X0187592Y0142578D01*
X0187927Y0144176D02*
X0186033Y0144176D01*
X0186492Y0150570D02*
X0187592Y0150570D01*
X0187592Y0152169D02*
X0186492Y0152169D01*
X0186442Y0153767D02*
X0187592Y0153767D01*
X0189117Y0155366D02*
X0184844Y0155366D01*
X0184900Y0158563D02*
X0189484Y0158563D01*
X0190411Y0157636D02*
X0193973Y0157636D01*
X0196492Y0160155D01*
X0196492Y0163717D01*
X0193973Y0166236D01*
X0190411Y0166236D01*
X0187892Y0163717D01*
X0187892Y0160155D01*
X0190411Y0157636D01*
X0192092Y0155366D02*
X0192292Y0155366D01*
X0192292Y0153767D02*
X0192092Y0153767D01*
X0192092Y0152169D02*
X0192292Y0152169D01*
X0195268Y0155366D02*
X0240993Y0155366D01*
X0240992Y0156964D02*
X0179622Y0156964D01*
X0186492Y0160161D02*
X0187892Y0160161D01*
X0187892Y0161760D02*
X0186492Y0161760D01*
X0186492Y0163359D02*
X0187892Y0163359D01*
X0189132Y0164957D02*
X0185252Y0164957D01*
X0184491Y0168154D02*
X0189893Y0168154D01*
X0190411Y0167636D02*
X0193973Y0167636D01*
X0196492Y0170155D01*
X0196492Y0173717D01*
X0193973Y0176236D01*
X0190411Y0176236D01*
X0187892Y0173717D01*
X0187892Y0170155D01*
X0190411Y0167636D01*
X0188295Y0169753D02*
X0186090Y0169753D01*
X0186492Y0171351D02*
X0187892Y0171351D01*
X0187892Y0172950D02*
X0186492Y0172950D01*
X0185661Y0174548D02*
X0188723Y0174548D01*
X0190322Y0176147D02*
X0184063Y0176147D01*
X0184082Y0177745D02*
X0189878Y0177745D01*
X0190287Y0177336D02*
X0187592Y0180031D01*
X0187592Y0181836D01*
X0192092Y0181836D01*
X0192092Y0182036D01*
X0187592Y0182036D01*
X0187592Y0183841D01*
X0190287Y0186536D01*
X0192092Y0186536D01*
X0192092Y0182036D01*
X0192292Y0182036D01*
X0192292Y0186536D01*
X0194098Y0186536D01*
X0196792Y0183841D01*
X0196792Y0182036D01*
X0192292Y0182036D01*
X0192292Y0181836D01*
X0192292Y0177336D01*
X0194098Y0177336D01*
X0196792Y0180031D01*
X0196792Y0181836D01*
X0192292Y0181836D01*
X0192092Y0181836D01*
X0192092Y0177336D01*
X0190287Y0177336D01*
X0192092Y0177745D02*
X0192292Y0177745D01*
X0192292Y0179344D02*
X0192092Y0179344D01*
X0192092Y0180942D02*
X0192292Y0180942D01*
X0192292Y0182541D02*
X0192092Y0182541D01*
X0192092Y0184139D02*
X0192292Y0184139D01*
X0192292Y0185738D02*
X0192092Y0185738D01*
X0189489Y0185738D02*
X0184472Y0185738D01*
X0186070Y0184139D02*
X0187890Y0184139D01*
X0187592Y0182541D02*
X0186492Y0182541D01*
X0186492Y0180942D02*
X0187592Y0180942D01*
X0188279Y0179344D02*
X0185681Y0179344D01*
X0194507Y0177745D02*
X0240988Y0177745D01*
X0240988Y0176147D02*
X0194063Y0176147D01*
X0195661Y0174548D02*
X0240988Y0174548D01*
X0240989Y0172950D02*
X0196492Y0172950D01*
X0196492Y0171351D02*
X0240989Y0171351D01*
X0240989Y0169753D02*
X0196090Y0169753D01*
X0194491Y0168154D02*
X0240990Y0168154D01*
X0240990Y0166556D02*
X0179622Y0166556D01*
X0179622Y0168154D02*
X0179893Y0168154D01*
X0195252Y0164957D02*
X0240990Y0164957D01*
X0240991Y0163359D02*
X0196492Y0163359D01*
X0196492Y0161760D02*
X0240991Y0161760D01*
X0240992Y0160161D02*
X0196492Y0160161D01*
X0194900Y0158563D02*
X0240992Y0158563D01*
X0240993Y0153767D02*
X0196792Y0153767D01*
X0196792Y0152169D02*
X0240993Y0152169D01*
X0240994Y0150570D02*
X0196792Y0150570D01*
X0195963Y0148972D02*
X0240994Y0148972D01*
X0240994Y0147373D02*
X0197561Y0147373D01*
X0199160Y0145775D02*
X0240995Y0145775D01*
X0240995Y0144176D02*
X0200758Y0144176D01*
X0201320Y0142578D02*
X0240995Y0142578D01*
X0240996Y0140979D02*
X0201320Y0140979D01*
X0201320Y0139381D02*
X0240996Y0139381D01*
X0240997Y0137782D02*
X0201320Y0137782D01*
X0201320Y0136184D02*
X0240997Y0136184D01*
X0240997Y0134585D02*
X0201320Y0134585D01*
X0201320Y0132987D02*
X0240998Y0132987D01*
X0240998Y0131388D02*
X0201320Y0131388D01*
X0201320Y0129790D02*
X0240998Y0129790D01*
X0240999Y0128191D02*
X0201320Y0128191D01*
X0201320Y0126593D02*
X0240999Y0126593D01*
X0240999Y0124994D02*
X0201320Y0124994D01*
X0201320Y0123396D02*
X0241000Y0123396D01*
X0241000Y0121797D02*
X0201320Y0121797D01*
X0201320Y0120199D02*
X0241000Y0120199D01*
X0241001Y0118600D02*
X0201320Y0118600D01*
X0201320Y0117002D02*
X0241001Y0117002D01*
X0241002Y0115403D02*
X0201320Y0115403D01*
X0201320Y0113805D02*
X0241002Y0113805D01*
X0241002Y0112206D02*
X0201320Y0112206D01*
X0201320Y0110608D02*
X0241003Y0110608D01*
X0241003Y0109009D02*
X0201320Y0109009D01*
X0201320Y0107411D02*
X0241003Y0107411D01*
X0241004Y0105812D02*
X0201320Y0105812D01*
X0201320Y0104214D02*
X0241004Y0104214D01*
X0241004Y0102615D02*
X0201320Y0102615D01*
X0201320Y0101017D02*
X0241005Y0101017D01*
X0241005Y0099418D02*
X0201320Y0099418D01*
X0201320Y0097820D02*
X0241005Y0097820D01*
X0241006Y0096221D02*
X0201320Y0096221D01*
X0201320Y0094623D02*
X0241006Y0094623D01*
X0241007Y0093024D02*
X0201320Y0093024D01*
X0201320Y0091426D02*
X0241007Y0091426D01*
X0241007Y0089827D02*
X0201320Y0089827D01*
X0201320Y0088228D02*
X0241008Y0088228D01*
X0241008Y0086630D02*
X0201320Y0086630D01*
X0201320Y0085031D02*
X0241008Y0085031D01*
X0241009Y0083433D02*
X0201320Y0083433D01*
X0201320Y0081834D02*
X0241009Y0081834D01*
X0241009Y0080236D02*
X0201320Y0080236D01*
X0201320Y0078637D02*
X0241010Y0078637D01*
X0241010Y0077039D02*
X0201320Y0077039D01*
X0201320Y0075440D02*
X0241010Y0075440D01*
X0241011Y0073842D02*
X0201320Y0073842D01*
X0201320Y0072243D02*
X0241011Y0072243D01*
X0241012Y0070645D02*
X0201320Y0070645D01*
X0201320Y0069046D02*
X0241012Y0069046D01*
X0241012Y0067448D02*
X0201320Y0067448D01*
X0201320Y0065849D02*
X0241013Y0065849D01*
X0241013Y0064251D02*
X0200681Y0064251D01*
X0199082Y0062652D02*
X0233382Y0062652D01*
X0232760Y0061054D02*
X0197484Y0061054D01*
X0195885Y0059455D02*
X0232760Y0059455D01*
X0232760Y0057857D02*
X0194287Y0057857D01*
X0192688Y0056258D02*
X0232760Y0056258D01*
X0232760Y0054660D02*
X0191090Y0054660D01*
X0189491Y0053061D02*
X0232760Y0053061D01*
X0232760Y0051463D02*
X0187893Y0051463D01*
X0186294Y0049864D02*
X0232760Y0049864D01*
X0232760Y0048266D02*
X0184696Y0048266D01*
X0183097Y0046667D02*
X0232760Y0046667D01*
X0232760Y0045069D02*
X0181499Y0045069D01*
X0179900Y0043470D02*
X0232760Y0043470D01*
X0232760Y0041872D02*
X0178739Y0041872D01*
X0178739Y0040273D02*
X0232760Y0040273D01*
X0232760Y0038675D02*
X0178739Y0038675D01*
X0178739Y0037076D02*
X0232760Y0037076D01*
X0232760Y0035478D02*
X0178739Y0035478D01*
X0178739Y0033879D02*
X0232760Y0033879D01*
X0233557Y0032281D02*
X0178739Y0032281D01*
X0178739Y0030682D02*
X0241020Y0030682D01*
X0241021Y0029084D02*
X0178739Y0029084D01*
X0178739Y0027485D02*
X0223705Y0027485D01*
X0223705Y0025887D02*
X0178739Y0025887D01*
X0174739Y0025887D02*
X0147215Y0025887D01*
X0147215Y0027485D02*
X0174739Y0027485D01*
X0174739Y0029084D02*
X0147215Y0029084D01*
X0147215Y0030682D02*
X0174739Y0030682D01*
X0174739Y0032281D02*
X0147215Y0032281D01*
X0147215Y0033879D02*
X0174739Y0033879D01*
X0188630Y0057857D02*
X0080063Y0057857D01*
X0080063Y0059455D02*
X0190228Y0059455D01*
X0191827Y0061054D02*
X0080063Y0061054D01*
X0080063Y0062652D02*
X0193425Y0062652D01*
X0223106Y0024288D02*
X0223705Y0024288D01*
X0223705Y0022690D02*
X0223465Y0022690D01*
X0223465Y0021091D02*
X0223705Y0021091D01*
X0223705Y0019492D02*
X0223465Y0019492D01*
X0223465Y0017894D02*
X0223705Y0017894D01*
X0223705Y0016295D02*
X0223465Y0016295D01*
X0223465Y0014697D02*
X0223705Y0014697D01*
X0223705Y0013098D02*
X0223465Y0013098D01*
X0223465Y0011500D02*
X0223705Y0011500D01*
X0223705Y0009901D02*
X0223465Y0009901D01*
X0223465Y0008303D02*
X0223705Y0008303D01*
X0236860Y0035478D02*
X0241019Y0035478D01*
X0241019Y0037076D02*
X0236860Y0037076D01*
X0236860Y0038675D02*
X0241019Y0038675D01*
X0241018Y0040273D02*
X0236860Y0040273D01*
X0236860Y0041872D02*
X0241018Y0041872D01*
X0241018Y0043470D02*
X0236860Y0043470D01*
X0236860Y0045069D02*
X0241017Y0045069D01*
X0241017Y0046667D02*
X0236860Y0046667D01*
X0236860Y0048266D02*
X0241017Y0048266D01*
X0241016Y0049864D02*
X0236860Y0049864D01*
X0236860Y0051463D02*
X0241016Y0051463D01*
X0241015Y0053061D02*
X0236860Y0053061D01*
X0236860Y0054660D02*
X0241015Y0054660D01*
X0241015Y0056258D02*
X0236860Y0056258D01*
X0236860Y0057857D02*
X0241014Y0057857D01*
X0241014Y0059455D02*
X0236860Y0059455D01*
X0236860Y0061054D02*
X0241014Y0061054D01*
X0241013Y0062652D02*
X0236238Y0062652D01*
X0197320Y0118600D02*
X0194938Y0118600D01*
X0196492Y0120199D02*
X0197320Y0120199D01*
X0197320Y0121797D02*
X0196492Y0121797D01*
X0196492Y0123396D02*
X0197320Y0123396D01*
X0197320Y0124994D02*
X0195215Y0124994D01*
X0197320Y0126593D02*
X0189066Y0126593D01*
X0189066Y0128191D02*
X0189432Y0128191D01*
X0192092Y0128191D02*
X0192292Y0128191D01*
X0192292Y0129790D02*
X0192092Y0129790D01*
X0192092Y0131388D02*
X0192292Y0131388D01*
X0192292Y0132036D02*
X0196792Y0132036D01*
X0196792Y0133841D01*
X0194098Y0136536D01*
X0192292Y0136536D01*
X0192292Y0132036D01*
X0192292Y0132987D02*
X0192092Y0132987D01*
X0192092Y0134585D02*
X0192292Y0134585D01*
X0192292Y0136184D02*
X0192092Y0136184D01*
X0192092Y0137782D02*
X0192292Y0137782D01*
X0192292Y0139381D02*
X0192092Y0139381D01*
X0192092Y0140979D02*
X0192292Y0140979D01*
X0194544Y0137782D02*
X0197320Y0137782D01*
X0197320Y0136184D02*
X0194450Y0136184D01*
X0196048Y0134585D02*
X0197320Y0134585D01*
X0197320Y0132987D02*
X0196792Y0132987D01*
X0196792Y0131388D02*
X0197320Y0131388D01*
X0197320Y0129790D02*
X0196551Y0129790D01*
X0197320Y0128191D02*
X0194953Y0128191D01*
X0189169Y0124994D02*
X0189066Y0124994D01*
X0185066Y0128191D02*
X0184529Y0128191D01*
X0189066Y0136184D02*
X0189935Y0136184D01*
X0189841Y0137782D02*
X0189066Y0137782D01*
X0196142Y0139381D02*
X0197320Y0139381D01*
X0197320Y0140979D02*
X0196792Y0140979D01*
X0185066Y0118600D02*
X0184938Y0118600D01*
X0146674Y0168154D02*
X0127732Y0168154D01*
X0128715Y0169753D02*
X0146674Y0169753D01*
X0146674Y0171351D02*
X0128839Y0171351D01*
X0130150Y0172950D02*
X0146674Y0172950D01*
X0146674Y0174548D02*
X0131749Y0174548D01*
X0133347Y0176147D02*
X0146674Y0176147D01*
X0146674Y0177745D02*
X0134946Y0177745D01*
X0136544Y0179344D02*
X0146674Y0179344D01*
X0146674Y0180942D02*
X0137100Y0180942D01*
X0137100Y0182541D02*
X0146674Y0182541D01*
X0146674Y0184139D02*
X0137100Y0184139D01*
X0137100Y0185738D02*
X0146674Y0185738D01*
X0146674Y0187336D02*
X0137100Y0187336D01*
X0137100Y0188935D02*
X0146835Y0188935D01*
X0147373Y0190533D02*
X0137100Y0190533D01*
X0194896Y0185738D02*
X0240986Y0185738D01*
X0240986Y0184139D02*
X0196495Y0184139D01*
X0196792Y0182541D02*
X0240987Y0182541D01*
X0240987Y0180942D02*
X0196792Y0180942D01*
X0196105Y0179344D02*
X0240987Y0179344D01*
X0127941Y0051463D02*
X0126159Y0051463D01*
X0139684Y0032281D02*
X0011448Y0032281D01*
X0008350Y0037076D02*
X0004649Y0037076D01*
X0004648Y0038675D02*
X0008350Y0038675D01*
X0008350Y0040273D02*
X0004647Y0040273D01*
X0004646Y0041872D02*
X0008350Y0041872D01*
X0008350Y0043470D02*
X0004645Y0043470D01*
X0004645Y0045069D02*
X0008350Y0045069D01*
X0008350Y0046667D02*
X0004644Y0046667D01*
X0004643Y0048266D02*
X0008350Y0048266D01*
X0008350Y0049864D02*
X0004642Y0049864D01*
X0004641Y0051463D02*
X0008350Y0051463D01*
X0008350Y0053061D02*
X0004640Y0053061D01*
X0004639Y0054660D02*
X0008350Y0054660D01*
X0008350Y0056258D02*
X0004638Y0056258D01*
X0004637Y0057857D02*
X0008350Y0057857D01*
X0008350Y0059455D02*
X0004636Y0059455D01*
X0004636Y0061054D02*
X0008350Y0061054D01*
X0008579Y0062652D02*
X0004635Y0062652D01*
X0012450Y0053061D02*
X0061099Y0053061D01*
X0062697Y0051463D02*
X0012450Y0051463D01*
X0012450Y0049864D02*
X0064296Y0049864D01*
X0065894Y0048266D02*
X0012450Y0048266D01*
X0004653Y0030682D02*
X0122160Y0030682D01*
X0121736Y0029084D02*
X0004654Y0029084D01*
X0061514Y0107411D02*
X0067705Y0107411D01*
X0071705Y0102615D02*
X0096790Y0102615D01*
X0095192Y0101017D02*
X0071705Y0101017D01*
X0071705Y0099418D02*
X0094743Y0099418D01*
X0094743Y0097820D02*
X0071705Y0097820D01*
X0071705Y0096221D02*
X0095527Y0096221D01*
X0097126Y0094623D02*
X0071705Y0094623D01*
X0071705Y0093024D02*
X0097199Y0093024D01*
X0095601Y0091426D02*
X0071705Y0091426D01*
X0071705Y0089827D02*
X0094743Y0089827D01*
X0094743Y0088228D02*
X0071705Y0088228D01*
X0071705Y0086630D02*
X0095118Y0086630D01*
X0073279Y0115403D02*
X0072923Y0115403D01*
X0067705Y0113805D02*
X0057863Y0113805D01*
X0056410Y0112206D02*
X0055993Y0112206D01*
X0055508Y0110608D02*
X0054123Y0110608D01*
X0064922Y0126593D02*
X0037466Y0126593D01*
X0037167Y0134585D02*
X0067967Y0134585D01*
X0066435Y0126593D02*
X0071651Y0126593D01*
X0072870Y0124994D02*
X0068690Y0124994D01*
X0069179Y0123396D02*
X0071593Y0123396D01*
X0134665Y0030682D02*
X0140093Y0030682D01*
X0140093Y0029084D02*
X0135088Y0029084D01*
X0135088Y0027485D02*
X0140093Y0027485D01*
X0140093Y0025887D02*
X0135088Y0025887D01*
D20*
X0142093Y0032700D02*
X0124852Y0049941D01*
X0067373Y0049941D01*
X0067210Y0049778D01*
X0061322Y0055666D01*
X0044675Y0055666D01*
X0040509Y0059832D01*
X0040509Y0064192D01*
X0040423Y0101527D01*
X0065679Y0123118D01*
X0069705Y0117906D02*
X0069732Y0116844D01*
X0069705Y0117906D02*
X0069705Y0060426D01*
X0069705Y0058468D01*
X0072636Y0055538D01*
X0126695Y0055538D01*
X0145215Y0037017D01*
X0145215Y0014476D01*
X0145243Y0014449D01*
X0145070Y0015509D01*
X0142093Y0014449D02*
X0142093Y0032700D01*
X0176739Y0043137D02*
X0176739Y0014449D01*
X0176739Y0043137D02*
X0199320Y0065719D01*
X0199320Y0142786D01*
X0194989Y0147117D01*
X0178972Y0147117D01*
X0177622Y0148468D01*
X0177622Y0170852D01*
X0175739Y0172734D01*
X0158112Y0172795D01*
X0157062Y0171745D01*
X0157062Y0170039D01*
X0154845Y0167823D01*
X0153870Y0167823D01*
X0153522Y0167839D01*
X0151153Y0167839D01*
X0149366Y0167918D01*
X0148674Y0168610D01*
X0148674Y0187220D01*
X0150191Y0188466D01*
X0150230Y0188459D01*
X0150335Y0188545D01*
X0152710Y0183355D02*
X0155682Y0186327D01*
X0155682Y0188439D01*
X0156523Y0188171D01*
X0156523Y0187980D01*
X0161161Y0183342D01*
X0161161Y0176649D02*
X0161134Y0176622D01*
X0152710Y0176662D01*
X0153699Y0176424D01*
X0153516Y0171478D01*
X0158180Y0166219D02*
X0160172Y0167631D01*
X0163591Y0167878D01*
X0162228Y0161168D02*
X0158152Y0161515D01*
X0162228Y0161168D02*
X0163567Y0159829D01*
X0158920Y0155182D01*
X0158479Y0153699D01*
X0160527Y0152078D01*
X0163601Y0151776D01*
X0158857Y0148891D02*
X0155211Y0148891D01*
X0155198Y0148905D01*
X0153147Y0156281D02*
X0153185Y0156319D01*
X0153185Y0157689D01*
X0135100Y0180728D02*
X0125158Y0170786D01*
X0114254Y0170956D02*
X0112418Y0172792D01*
X0112418Y0177090D01*
X0113405Y0189069D02*
X0104475Y0189069D01*
X0095155Y0198388D01*
X0095155Y0203063D01*
X0095100Y0203118D01*
X0081361Y0176468D02*
X0085893Y0171936D01*
X0081361Y0176468D02*
X0068494Y0176468D01*
X0067115Y0177847D01*
X0067115Y0181186D01*
X0061818Y0186483D01*
X0061818Y0243896D01*
X0052891Y0252823D01*
X0052458Y0252823D01*
X0053006Y0244963D02*
X0053212Y0244963D01*
X0059067Y0239108D01*
X0059067Y0186351D01*
X0064705Y0180713D01*
X0064705Y0172308D01*
X0065959Y0171053D01*
X0075010Y0171053D01*
X0075893Y0171936D01*
X0079488Y0166806D02*
X0063641Y0166806D01*
X0062247Y0168199D01*
X0062254Y0168205D01*
X0062254Y0180387D01*
X0056420Y0186221D01*
X0056420Y0235554D01*
X0056007Y0235966D01*
X0055985Y0235966D01*
X0054630Y0237322D01*
X0052975Y0237322D01*
X0053418Y0229389D02*
X0053418Y0186484D01*
X0060374Y0179330D01*
X0060374Y0164660D01*
X0063296Y0161936D01*
X0075893Y0161936D01*
X0079488Y0166806D02*
X0084358Y0161936D01*
X0085893Y0161936D01*
X0089154Y0156616D02*
X0066057Y0156616D01*
X0058336Y0164106D01*
X0058336Y0178720D01*
X0050718Y0186569D01*
X0038697Y0170356D02*
X0035524Y0167183D01*
X0058968Y0109814D02*
X0047202Y0098048D01*
X0047202Y0064192D01*
X0076398Y0066268D02*
X0076398Y0060426D01*
X0076398Y0066268D02*
X0077991Y0067861D01*
X0092931Y0082412D01*
X0152570Y0082412D01*
X0180434Y0082785D01*
X0185112Y0087464D01*
X0185112Y0090622D01*
X0185072Y0090662D01*
X0185072Y0098902D01*
X0185112Y0098942D01*
X0187066Y0100896D01*
X0187066Y0137062D01*
X0182192Y0141936D01*
X0173411Y0133155D01*
X0169746Y0131597D01*
X0169043Y0098786D02*
X0178264Y0098786D01*
X0178419Y0098942D01*
X0172976Y0093764D02*
X0164021Y0093764D01*
X0159043Y0088786D01*
X0172976Y0093764D02*
X0176078Y0090662D01*
X0178379Y0090662D01*
X0114410Y0123567D02*
X0110523Y0123567D01*
X0109288Y0122333D01*
X0109476Y0127041D02*
X0108396Y0127335D01*
X0103742Y0127381D01*
X0100338Y0120493D02*
X0098983Y0118708D01*
X0097099Y0118708D01*
X0093682Y0152088D02*
X0089154Y0156616D01*
X0135100Y0180728D02*
X0135100Y0203118D01*
D21*
X0113405Y0189069D03*
X0125158Y0170786D03*
X0097099Y0118708D03*
X0035524Y0167183D03*
X0029856Y0140384D03*
X0036781Y0258109D03*
D22*
X0093682Y0152088D02*
X0096879Y0148891D01*
X0158857Y0148891D01*
X0158241Y0143009D02*
X0162491Y0143009D01*
X0164477Y0144995D01*
X0155772Y0123775D02*
X0157676Y0121870D01*
X0157676Y0117331D01*
X0145830Y0121738D02*
X0145830Y0129192D01*
X0145057Y0129965D01*
X0133756Y0141266D01*
X0095533Y0141266D01*
X0090025Y0146774D01*
X0053105Y0146774D01*
X0051363Y0148516D01*
X0062828Y0132494D02*
X0035016Y0132494D01*
X0035326Y0128696D02*
X0072235Y0128696D01*
X0073880Y0127051D01*
X0096244Y0127051D01*
X0097697Y0126047D01*
X0097428Y0131705D02*
X0097072Y0131755D01*
X0092585Y0136433D01*
X0072530Y0136433D01*
X0068543Y0132481D01*
X0062948Y0132481D01*
X0062828Y0132494D01*
D23*
X0051363Y0148516D03*
X0035016Y0132494D03*
X0035326Y0128696D03*
X0050718Y0186569D03*
X0053418Y0229389D03*
X0052975Y0237322D03*
X0053006Y0244963D03*
X0052458Y0252823D03*
X0097428Y0131705D03*
X0097697Y0126047D03*
X0145830Y0121738D03*
M02*
