G75*
%MOIN*%
%OFA0B0*%
%FSLAX25Y25*%
%IPPOS*%
%LPD*%
%AMOC8*
5,1,8,0,0,1.08239X$1,22.5*
%
%ADD10R,0.04331X0.03937*%
%ADD11C,0.01181*%
%ADD12R,0.05906X0.06299*%
%ADD13R,0.03937X0.04331*%
%ADD14R,0.04724X0.01181*%
%ADD15R,0.01181X0.04724*%
%ADD16R,0.12598X0.07087*%
%ADD17R,0.01772X0.03937*%
%ADD18R,0.05906X0.06102*%
%ADD19R,0.01575X0.05315*%
%ADD20R,0.02756X0.01772*%
%ADD21R,0.03100X0.03500*%
%ADD22R,0.07087X0.09449*%
%ADD23R,0.06299X0.04724*%
%ADD24R,0.06299X0.12992*%
%ADD25R,0.02264X0.17717*%
D10*
X0038672Y0077640D03*
X0045365Y0077640D03*
X0079546Y0074216D03*
X0086239Y0074216D03*
X0150565Y0043421D03*
X0157258Y0043421D03*
X0210116Y0152542D03*
X0216809Y0152542D03*
X0047673Y0228812D03*
X0040980Y0228812D03*
X0041064Y0236865D03*
X0047757Y0236865D03*
X0047750Y0244903D03*
X0041057Y0244903D03*
X0041026Y0252995D03*
X0047719Y0252995D03*
D11*
X0035182Y0254230D02*
X0035182Y0251474D01*
X0032426Y0251474D01*
X0032426Y0254230D01*
X0035182Y0254230D01*
X0035182Y0252654D02*
X0032426Y0252654D01*
X0032426Y0253834D02*
X0035182Y0253834D01*
X0035112Y0246362D02*
X0035112Y0243606D01*
X0032356Y0243606D01*
X0032356Y0246362D01*
X0035112Y0246362D01*
X0035112Y0244786D02*
X0032356Y0244786D01*
X0032356Y0245966D02*
X0035112Y0245966D01*
X0035185Y0238658D02*
X0035185Y0235902D01*
X0032429Y0235902D01*
X0032429Y0238658D01*
X0035185Y0238658D01*
X0035185Y0237082D02*
X0032429Y0237082D01*
X0032429Y0238262D02*
X0035185Y0238262D01*
X0035012Y0231010D02*
X0035012Y0228254D01*
X0032256Y0228254D01*
X0032256Y0231010D01*
X0035012Y0231010D01*
X0035012Y0229434D02*
X0032256Y0229434D01*
X0032256Y0230614D02*
X0035012Y0230614D01*
X0028106Y0231010D02*
X0028106Y0228254D01*
X0025350Y0228254D01*
X0025350Y0231010D01*
X0028106Y0231010D01*
X0028106Y0229434D02*
X0025350Y0229434D01*
X0025350Y0230614D02*
X0028106Y0230614D01*
X0028279Y0235902D02*
X0028279Y0238658D01*
X0028279Y0235902D02*
X0025523Y0235902D01*
X0025523Y0238658D01*
X0028279Y0238658D01*
X0028279Y0237082D02*
X0025523Y0237082D01*
X0025523Y0238262D02*
X0028279Y0238262D01*
X0028206Y0243606D02*
X0028206Y0246362D01*
X0028206Y0243606D02*
X0025450Y0243606D01*
X0025450Y0246362D01*
X0028206Y0246362D01*
X0028206Y0244786D02*
X0025450Y0244786D01*
X0025450Y0245966D02*
X0028206Y0245966D01*
X0028277Y0251474D02*
X0028277Y0254230D01*
X0028277Y0251474D02*
X0025521Y0251474D01*
X0025521Y0254230D01*
X0028277Y0254230D01*
X0028277Y0252654D02*
X0025521Y0252654D01*
X0025521Y0253834D02*
X0028277Y0253834D01*
D12*
X0209376Y0171733D03*
X0218431Y0171733D03*
X0218431Y0161891D03*
X0209376Y0161891D03*
D13*
X0164629Y0070522D03*
X0164629Y0063829D03*
X0051062Y0155227D03*
X0051062Y0161920D03*
X0050747Y0192536D03*
X0050747Y0199229D03*
D14*
X0103531Y0170558D03*
X0103531Y0168590D03*
X0103531Y0166621D03*
X0103531Y0164653D03*
X0103531Y0162684D03*
X0103531Y0160716D03*
X0103531Y0158747D03*
X0103531Y0156779D03*
X0103531Y0154810D03*
X0103531Y0152842D03*
X0103531Y0150873D03*
X0103531Y0148905D03*
X0103531Y0146936D03*
X0103531Y0144968D03*
X0103531Y0142999D03*
X0103531Y0141031D03*
X0103531Y0139062D03*
X0103531Y0137094D03*
X0103531Y0135125D03*
X0103531Y0133157D03*
X0103531Y0131188D03*
X0103531Y0129220D03*
X0103531Y0127251D03*
X0103531Y0125283D03*
X0103531Y0123314D03*
X0164555Y0123314D03*
X0164555Y0125283D03*
X0164555Y0127251D03*
X0164555Y0129220D03*
X0164555Y0131188D03*
X0164555Y0133157D03*
X0164555Y0135125D03*
X0164555Y0137094D03*
X0164555Y0139062D03*
X0164555Y0141031D03*
X0164555Y0142999D03*
X0164555Y0144968D03*
X0164555Y0146936D03*
X0164555Y0148905D03*
X0164555Y0150873D03*
X0164555Y0152842D03*
X0164555Y0154810D03*
X0164555Y0156779D03*
X0164555Y0158747D03*
X0164555Y0160716D03*
X0164555Y0162684D03*
X0164555Y0164653D03*
X0164555Y0166621D03*
X0164555Y0168590D03*
X0164555Y0170558D03*
D15*
X0157665Y0177448D03*
X0155696Y0177448D03*
X0153728Y0177448D03*
X0151759Y0177448D03*
X0149791Y0177448D03*
X0147822Y0177448D03*
X0145854Y0177448D03*
X0143885Y0177448D03*
X0141917Y0177448D03*
X0139948Y0177448D03*
X0137980Y0177448D03*
X0136011Y0177448D03*
X0134043Y0177448D03*
X0132074Y0177448D03*
X0130106Y0177448D03*
X0128137Y0177448D03*
X0126169Y0177448D03*
X0124200Y0177448D03*
X0122232Y0177448D03*
X0120263Y0177448D03*
X0118295Y0177448D03*
X0116326Y0177448D03*
X0114358Y0177448D03*
X0112389Y0177448D03*
X0110421Y0177448D03*
X0110421Y0116424D03*
X0112389Y0116424D03*
X0114358Y0116424D03*
X0116326Y0116424D03*
X0118295Y0116424D03*
X0120263Y0116424D03*
X0122232Y0116424D03*
X0124200Y0116424D03*
X0126169Y0116424D03*
X0128137Y0116424D03*
X0130106Y0116424D03*
X0132074Y0116424D03*
X0134043Y0116424D03*
X0136011Y0116424D03*
X0137980Y0116424D03*
X0139948Y0116424D03*
X0141917Y0116424D03*
X0143885Y0116424D03*
X0145854Y0116424D03*
X0147822Y0116424D03*
X0149791Y0116424D03*
X0151759Y0116424D03*
X0153728Y0116424D03*
X0155696Y0116424D03*
X0157665Y0116424D03*
D16*
X0035787Y0156099D03*
X0035787Y0178146D03*
X0035787Y0193039D03*
X0035787Y0215087D03*
D17*
X0151666Y0073268D03*
X0154225Y0073268D03*
X0156784Y0073268D03*
X0159343Y0073268D03*
X0159343Y0063622D03*
X0156784Y0063622D03*
X0154225Y0063622D03*
X0151666Y0063622D03*
D18*
X0035594Y0279820D03*
X0027720Y0279820D03*
D19*
X0026539Y0269190D03*
X0029098Y0269190D03*
X0031657Y0269190D03*
X0034216Y0269190D03*
X0036775Y0269190D03*
D20*
X0030860Y0132344D03*
X0030860Y0129195D03*
X0024758Y0129195D03*
X0024758Y0132344D03*
D21*
X0037383Y0109244D03*
X0041183Y0101244D03*
X0033583Y0101244D03*
D22*
X0028911Y0089407D03*
X0044856Y0089407D03*
D23*
X0054329Y0087153D03*
X0054329Y0078098D03*
X0054329Y0096208D03*
D24*
X0079526Y0087153D03*
D25*
X0022408Y0014449D03*
X0025558Y0014449D03*
X0028707Y0014449D03*
X0031857Y0014449D03*
X0035007Y0014449D03*
X0038156Y0014449D03*
X0041306Y0014449D03*
X0044455Y0014449D03*
X0047605Y0014449D03*
X0050755Y0014449D03*
X0053904Y0014449D03*
X0057054Y0014449D03*
X0060203Y0014449D03*
X0063353Y0014449D03*
X0066503Y0014449D03*
X0069652Y0014449D03*
X0072802Y0014449D03*
X0075951Y0014449D03*
X0079101Y0014449D03*
X0082251Y0014449D03*
X0085400Y0014449D03*
X0088550Y0014449D03*
X0091699Y0014449D03*
X0094849Y0014449D03*
X0097999Y0014449D03*
X0101148Y0014449D03*
X0104298Y0014449D03*
X0107447Y0014449D03*
X0110597Y0014449D03*
X0113747Y0014449D03*
X0116896Y0014449D03*
X0120046Y0014449D03*
X0135794Y0014449D03*
X0138944Y0014449D03*
X0142093Y0014449D03*
X0145243Y0014449D03*
X0148392Y0014449D03*
X0151542Y0014449D03*
X0154692Y0014449D03*
X0157841Y0014449D03*
X0160991Y0014449D03*
X0164140Y0014449D03*
X0167290Y0014449D03*
X0170440Y0014449D03*
X0173589Y0014449D03*
X0176739Y0014449D03*
X0179888Y0014449D03*
X0183038Y0014449D03*
X0186188Y0014449D03*
X0189337Y0014449D03*
X0192487Y0014449D03*
X0195636Y0014449D03*
X0198786Y0014449D03*
X0201936Y0014449D03*
X0205085Y0014449D03*
X0208235Y0014449D03*
X0211384Y0014449D03*
X0214534Y0014449D03*
X0217684Y0014449D03*
X0220833Y0014449D03*
M02*
