%
M48
M72
T01C0.0100
T02C0.0200
T03C0.0236
T04C0.0315
T05C0.0360
T06C0.0400
T07C0.0453
%
T01
X9770Y12605
X9743Y13170
X5136Y14852
X3502Y13249
X3533Y12870
X5072Y18657
X5342Y22939
X5298Y23732
X5301Y24496
X5246Y25282
X14583Y12174
T02
X7799Y6786
X11034Y7156
X6973Y11684
X6568Y12312
X5897Y10981
X6054Y15488
X10940Y15855
X11425Y17096
X13368Y15531
X15318Y15769
X15815Y16151
X15818Y16622
X15352Y17148
X15568Y18844
X15033Y18854
X15848Y15370
X15886Y14889
X15824Y14301
X15577Y12377
X16671Y11666
X15257Y8241
X15633Y7908
X17163Y6913
X13019Y12307
X10929Y12233
X10948Y12704
T03
X9710Y11871
X12516Y17079
X11341Y18907
X3552Y16718
X2986Y14038
X3678Y25811
T04
X4150Y26919
X2181Y26919
T05
X7589Y18194
X7589Y17194
X8589Y17194
X8589Y18194
X8589Y16194
X8589Y15194
X7589Y15194
X7589Y16194
X7589Y14194
X7589Y13194
X8589Y13194
X8589Y14194
X8589Y12194
X8589Y11194
X7589Y11194
X7589Y12194
X9904Y9879
X10904Y9879
X11904Y9879
X12904Y9879
X13904Y9879
X14904Y9879
X15904Y9879
X16904Y9879
X16904Y8879
X15904Y8879
X14904Y8879
X13904Y8879
X12904Y8879
X11904Y8879
X10904Y8879
X9904Y8879
X18219Y11194
X18219Y12194
X18219Y13194
X18219Y14194
X18219Y15194
X18219Y16194
X18219Y17194
X18219Y18194
X19219Y18194
X19219Y17194
X19219Y16194
X19219Y15194
X19219Y14194
X19219Y13194
X19219Y12194
X19219Y11194
T06
X14510Y20312
X13510Y20312
X12510Y20312
X11510Y20312
X10510Y20312
X9510Y20312
X8510Y20312
T07
X4582Y27982
X1749Y27982
M30
