G75*
%MOIN*%
%OFA0B0*%
%FSLAX25Y25*%
%IPPOS*%
%LPD*%
%AMOC8*
5,1,8,0,0,1.08239X$1,22.5*
%
%ADD10R,0.03937X0.04331*%
%ADD11R,0.04331X0.03937*%
%ADD12OC8,0.05600*%
%ADD13C,0.05150*%
%ADD14C,0.06791*%
%ADD15R,0.02362X0.17717*%
%ADD16C,0.04362*%
%ADD17C,0.01600*%
%ADD18C,0.01000*%
%ADD19C,0.04000*%
%ADD20C,0.05000*%
%ADD21C,0.05000*%
D10*
X0120051Y0190906D03*
X0120051Y0197599D03*
X0118980Y0205994D03*
X0118980Y0212686D03*
X0121796Y0225782D03*
X0121796Y0232475D03*
X0113396Y0232646D03*
X0113396Y0225953D03*
X0128990Y0197275D03*
X0128990Y0190583D03*
X0138358Y0190614D03*
X0138358Y0197307D03*
D11*
X0149869Y0187334D03*
X0156562Y0187334D03*
X0157951Y0213463D03*
X0151258Y0213463D03*
X0151297Y0222377D03*
X0157990Y0222377D03*
X0134800Y0221146D03*
X0134800Y0214454D03*
X0105201Y0192720D03*
X0098508Y0192720D03*
X0102680Y0231494D03*
X0102680Y0238186D03*
D12*
X0103680Y0249340D03*
X0103680Y0259340D03*
X0093680Y0259340D03*
X0093680Y0249340D03*
X0081180Y0236840D03*
X0081180Y0226840D03*
X0081180Y0216840D03*
X0081180Y0206840D03*
X0081180Y0196840D03*
X0081180Y0186840D03*
X0081180Y0176840D03*
X0081180Y0166840D03*
X0071180Y0166840D03*
X0071180Y0176840D03*
X0071180Y0186840D03*
X0071180Y0196840D03*
X0071180Y0206840D03*
X0071180Y0216840D03*
X0071180Y0226840D03*
X0071180Y0236840D03*
X0113680Y0249340D03*
X0113680Y0259340D03*
X0123680Y0259340D03*
X0123680Y0249340D03*
X0133680Y0249340D03*
X0133680Y0259340D03*
X0143680Y0259340D03*
X0143680Y0249340D03*
X0153680Y0249340D03*
X0153680Y0259340D03*
X0163680Y0259340D03*
X0163680Y0249340D03*
X0176180Y0236840D03*
X0176180Y0226840D03*
X0176180Y0216840D03*
X0176180Y0206840D03*
X0176180Y0196840D03*
X0176180Y0186840D03*
X0176180Y0176840D03*
X0176180Y0166840D03*
X0186180Y0166840D03*
X0186180Y0176840D03*
X0186180Y0186840D03*
X0186180Y0196840D03*
X0186180Y0206840D03*
X0186180Y0216840D03*
X0186180Y0226840D03*
X0186180Y0236840D03*
X0163680Y0154840D03*
X0163680Y0144840D03*
X0153680Y0144840D03*
X0153680Y0154840D03*
X0143680Y0154840D03*
X0143680Y0144840D03*
X0133680Y0144840D03*
X0133680Y0154840D03*
X0123680Y0154840D03*
X0123680Y0144840D03*
X0113680Y0144840D03*
X0113680Y0154840D03*
X0103680Y0154840D03*
X0103680Y0144840D03*
X0093680Y0144840D03*
X0093680Y0154840D03*
D13*
X0219361Y0231147D03*
X0219361Y0250833D03*
D14*
X0229991Y0255153D03*
X0229991Y0226827D03*
D15*
X0197263Y0021289D03*
X0194113Y0021289D03*
X0190963Y0021289D03*
X0187814Y0021289D03*
X0184664Y0021289D03*
X0181515Y0021289D03*
X0178365Y0021289D03*
X0175215Y0021289D03*
X0172066Y0021289D03*
X0168916Y0021289D03*
X0165767Y0021289D03*
X0162617Y0021289D03*
X0159467Y0021289D03*
X0156318Y0021289D03*
X0153168Y0021289D03*
X0150019Y0021289D03*
X0146869Y0021289D03*
X0143719Y0021289D03*
X0127971Y0021289D03*
X0124822Y0021289D03*
X0121672Y0021289D03*
X0118523Y0021289D03*
X0115373Y0021289D03*
X0112223Y0021289D03*
X0109074Y0021289D03*
X0105924Y0021289D03*
X0102774Y0021289D03*
X0099625Y0021289D03*
X0096475Y0021289D03*
X0093326Y0021289D03*
X0090176Y0021289D03*
X0087026Y0021289D03*
X0083877Y0021289D03*
X0080727Y0021289D03*
X0077578Y0021289D03*
X0074428Y0021289D03*
X0071278Y0021289D03*
X0068129Y0021289D03*
X0064979Y0021289D03*
X0061830Y0021289D03*
D16*
X0059800Y0104800D03*
X0078800Y0119800D03*
X0102800Y0118800D03*
X0110800Y0122800D03*
X0121800Y0110800D03*
X0118800Y0139800D03*
X0089800Y0163800D03*
X0113800Y0192800D03*
X0112680Y0204840D03*
X0121800Y0217800D03*
X0125240Y0203350D03*
X0137800Y0207800D03*
X0145520Y0210700D03*
X0141800Y0218800D03*
X0169800Y0244800D03*
X0150800Y0270800D03*
X0123800Y0272800D03*
X0101800Y0270800D03*
X0092680Y0239840D03*
X0100800Y0224800D03*
X0128060Y0184780D03*
X0138370Y0185040D03*
X0143460Y0185160D03*
X0165800Y0163800D03*
X0181400Y0158790D03*
X0179360Y0130610D03*
X0185580Y0130690D03*
X0153470Y0123290D03*
X0149800Y0138800D03*
X0062800Y0217800D03*
X0062800Y0243800D03*
D17*
X0043013Y0038530D02*
X0043013Y0035583D01*
X0059529Y0035583D01*
X0060730Y0034382D01*
X0060730Y0031647D01*
X0071680Y0031647D01*
X0071680Y0042668D01*
X0072852Y0043840D01*
X0077680Y0043840D01*
X0077680Y0054636D01*
X0078289Y0056106D01*
X0079414Y0057231D01*
X0097414Y0075231D01*
X0098884Y0075840D01*
X0127476Y0075840D01*
X0128946Y0075231D01*
X0130071Y0074106D01*
X0130680Y0072636D01*
X0130680Y0071044D01*
X0130071Y0069574D01*
X0128946Y0068449D01*
X0127476Y0067840D01*
X0101337Y0067840D01*
X0085680Y0052183D01*
X0085680Y0043840D01*
X0091508Y0043840D01*
X0092680Y0042668D01*
X0092680Y0031647D01*
X0129774Y0031647D01*
X0129858Y0031562D01*
X0129858Y0041626D01*
X0131059Y0042827D01*
X0142206Y0042827D01*
X0143407Y0041626D01*
X0143407Y0031647D01*
X0160617Y0031647D01*
X0160617Y0077075D01*
X0156680Y0081012D01*
X0156680Y0141759D01*
X0155461Y0140540D01*
X0151899Y0140540D01*
X0149380Y0143059D01*
X0149380Y0146621D01*
X0151899Y0149140D01*
X0155461Y0149140D01*
X0156680Y0147921D01*
X0156680Y0149361D01*
X0157852Y0150533D01*
X0159879Y0152560D01*
X0159380Y0153059D01*
X0159380Y0156621D01*
X0161899Y0159140D01*
X0165461Y0159140D01*
X0165886Y0158715D01*
X0166800Y0159628D01*
X0167972Y0160800D01*
X0178248Y0160800D01*
X0178279Y0160875D01*
X0179315Y0161911D01*
X0180668Y0162471D01*
X0182132Y0162471D01*
X0183485Y0161911D01*
X0184521Y0160875D01*
X0185081Y0159522D01*
X0185081Y0158058D01*
X0184521Y0156705D01*
X0183485Y0155669D01*
X0182132Y0155109D01*
X0180668Y0155109D01*
X0179315Y0155669D01*
X0178279Y0156705D01*
X0178240Y0156800D01*
X0169628Y0156800D01*
X0167980Y0155152D01*
X0167980Y0153059D01*
X0165461Y0150540D01*
X0163516Y0150540D01*
X0162115Y0149140D01*
X0165461Y0149140D01*
X0167980Y0146621D01*
X0167980Y0143059D01*
X0165461Y0140540D01*
X0161899Y0140540D01*
X0160680Y0141759D01*
X0160680Y0082668D01*
X0163445Y0079903D01*
X0163767Y0079582D01*
X0163767Y0133755D01*
X0191680Y0161668D01*
X0191680Y0198012D01*
X0189852Y0199840D01*
X0189261Y0199840D01*
X0190480Y0198621D01*
X0190480Y0195059D01*
X0187961Y0192540D01*
X0184399Y0192540D01*
X0181880Y0195059D01*
X0181880Y0198621D01*
X0183099Y0199840D01*
X0179261Y0199840D01*
X0180480Y0198621D01*
X0180480Y0195059D01*
X0177961Y0192540D01*
X0174399Y0192540D01*
X0171880Y0195059D01*
X0171880Y0198621D01*
X0173099Y0199840D01*
X0142091Y0199840D01*
X0142126Y0199709D01*
X0142126Y0197491D01*
X0138542Y0197491D01*
X0138542Y0197123D01*
X0142126Y0197123D01*
X0142126Y0194905D01*
X0142004Y0194447D01*
X0141767Y0194036D01*
X0141479Y0193748D01*
X0141826Y0193401D01*
X0141826Y0188468D01*
X0142728Y0188841D01*
X0144192Y0188841D01*
X0144277Y0188806D01*
X0144806Y0189334D01*
X0146204Y0189334D01*
X0146204Y0189924D01*
X0147082Y0190803D01*
X0152656Y0190803D01*
X0153003Y0190455D01*
X0153291Y0190743D01*
X0153702Y0190980D01*
X0154160Y0191103D01*
X0156378Y0191103D01*
X0156378Y0187519D01*
X0156746Y0187519D01*
X0156746Y0191103D01*
X0158964Y0191103D01*
X0159422Y0190980D01*
X0159833Y0190743D01*
X0160168Y0190408D01*
X0160405Y0189997D01*
X0160527Y0189540D01*
X0160527Y0187518D01*
X0156746Y0187518D01*
X0156746Y0187150D01*
X0156746Y0183566D01*
X0158964Y0183566D01*
X0159422Y0183688D01*
X0159833Y0183925D01*
X0160168Y0184260D01*
X0160405Y0184671D01*
X0160527Y0185129D01*
X0160527Y0187150D01*
X0156746Y0187150D01*
X0156378Y0187150D01*
X0156378Y0183566D01*
X0154160Y0183566D01*
X0153702Y0183688D01*
X0153291Y0183925D01*
X0153003Y0184213D01*
X0152656Y0183866D01*
X0147082Y0183866D01*
X0146959Y0183989D01*
X0146581Y0183075D01*
X0145545Y0182039D01*
X0144192Y0181479D01*
X0142728Y0181479D01*
X0141375Y0182039D01*
X0140975Y0182439D01*
X0140455Y0181919D01*
X0139102Y0181359D01*
X0137638Y0181359D01*
X0136285Y0181919D01*
X0135249Y0182955D01*
X0134689Y0184308D01*
X0134689Y0185772D01*
X0135249Y0187125D01*
X0135420Y0187296D01*
X0134889Y0187827D01*
X0134889Y0193401D01*
X0135237Y0193748D01*
X0134949Y0194036D01*
X0134712Y0194447D01*
X0134589Y0194905D01*
X0134589Y0197123D01*
X0138174Y0197123D01*
X0138174Y0197491D01*
X0134589Y0197491D01*
X0134589Y0199709D01*
X0134712Y0200167D01*
X0134949Y0200577D01*
X0135072Y0200700D01*
X0129972Y0205800D01*
X0128800Y0206972D01*
X0128800Y0209972D01*
X0126972Y0211800D01*
X0125800Y0212972D01*
X0125800Y0244392D01*
X0125152Y0245040D01*
X0121899Y0245040D01*
X0119380Y0247559D01*
X0119380Y0251121D01*
X0121899Y0253640D01*
X0125461Y0253640D01*
X0127980Y0251121D01*
X0127980Y0247868D01*
X0129800Y0246048D01*
X0129800Y0214628D01*
X0130973Y0213455D01*
X0131135Y0213617D01*
X0131135Y0217043D01*
X0131891Y0217800D01*
X0131135Y0218557D01*
X0131135Y0223736D01*
X0132013Y0224615D01*
X0137587Y0224615D01*
X0138465Y0223736D01*
X0138465Y0223146D01*
X0140282Y0223146D01*
X0140983Y0222446D01*
X0141068Y0222481D01*
X0142228Y0222481D01*
X0144424Y0224677D01*
X0147631Y0224677D01*
X0147631Y0224967D01*
X0148510Y0225845D01*
X0154083Y0225845D01*
X0154431Y0225498D01*
X0154719Y0225786D01*
X0155129Y0226023D01*
X0155587Y0226145D01*
X0157805Y0226145D01*
X0157805Y0222561D01*
X0158174Y0222561D01*
X0161955Y0222561D01*
X0161955Y0224582D01*
X0161832Y0225040D01*
X0161595Y0225450D01*
X0161260Y0225786D01*
X0160850Y0226023D01*
X0160392Y0226145D01*
X0158174Y0226145D01*
X0158174Y0222561D01*
X0158174Y0222192D01*
X0158174Y0218608D01*
X0160392Y0218608D01*
X0160850Y0218731D01*
X0161260Y0218968D01*
X0161595Y0219303D01*
X0161832Y0219713D01*
X0161955Y0220171D01*
X0161955Y0222192D01*
X0158174Y0222192D01*
X0157805Y0222192D01*
X0157805Y0218608D01*
X0155587Y0218608D01*
X0155129Y0218731D01*
X0154719Y0218968D01*
X0154431Y0219256D01*
X0154083Y0218908D01*
X0148510Y0218908D01*
X0147631Y0219787D01*
X0147631Y0220077D01*
X0146329Y0220077D01*
X0145481Y0219228D01*
X0145481Y0218068D01*
X0144921Y0216715D01*
X0143885Y0215679D01*
X0142532Y0215119D01*
X0141068Y0215119D01*
X0139715Y0215679D01*
X0138679Y0216715D01*
X0138119Y0218068D01*
X0138119Y0218210D01*
X0137709Y0217800D01*
X0138465Y0217043D01*
X0138465Y0211864D01*
X0137587Y0210985D01*
X0134160Y0210985D01*
X0132800Y0209625D01*
X0132800Y0208628D01*
X0137588Y0203840D01*
X0173099Y0203840D01*
X0171880Y0205059D01*
X0171880Y0208621D01*
X0174399Y0211140D01*
X0177961Y0211140D01*
X0180480Y0208621D01*
X0180480Y0205059D01*
X0179261Y0203840D01*
X0183099Y0203840D01*
X0181880Y0205059D01*
X0181880Y0208621D01*
X0184399Y0211140D01*
X0187961Y0211140D01*
X0190480Y0208621D01*
X0190480Y0205059D01*
X0189261Y0203840D01*
X0191508Y0203840D01*
X0195680Y0199668D01*
X0195680Y0160012D01*
X0194508Y0158840D01*
X0167767Y0132098D01*
X0167767Y0031647D01*
X0173215Y0031647D01*
X0173215Y0125468D01*
X0173144Y0126195D01*
X0173215Y0126282D01*
X0173215Y0126394D01*
X0173732Y0126911D01*
X0175843Y0129480D01*
X0175679Y0129878D01*
X0175679Y0131342D01*
X0176239Y0132695D01*
X0177275Y0133731D01*
X0178628Y0134291D01*
X0180092Y0134291D01*
X0181445Y0133731D01*
X0182442Y0132734D01*
X0182459Y0132775D01*
X0183495Y0133811D01*
X0184848Y0134371D01*
X0186312Y0134371D01*
X0187665Y0133811D01*
X0188701Y0132775D01*
X0189261Y0131422D01*
X0189261Y0129958D01*
X0188701Y0128605D01*
X0187665Y0127569D01*
X0186312Y0127009D01*
X0185171Y0127009D01*
X0183515Y0124966D01*
X0183515Y0031647D01*
X0199065Y0031647D01*
X0199347Y0031366D01*
X0199347Y0034382D01*
X0200547Y0035583D01*
X0217063Y0035583D01*
X0217063Y0038136D01*
X0210570Y0038136D01*
X0209071Y0039002D01*
X0209071Y0039002D01*
X0209071Y0039002D01*
X0208205Y0040502D01*
X0208205Y0069264D01*
X0209406Y0070465D01*
X0211104Y0070465D01*
X0211469Y0070100D01*
X0234000Y0070100D01*
X0234000Y0223505D01*
X0233954Y0223442D01*
X0233376Y0222864D01*
X0232714Y0222383D01*
X0231986Y0222012D01*
X0231208Y0221759D01*
X0230400Y0221631D01*
X0230323Y0221631D01*
X0230323Y0226495D01*
X0229659Y0226495D01*
X0224796Y0226495D01*
X0224796Y0226418D01*
X0224924Y0225610D01*
X0225176Y0224832D01*
X0225548Y0224103D01*
X0226028Y0223442D01*
X0226607Y0222864D01*
X0227268Y0222383D01*
X0227997Y0222012D01*
X0228775Y0221759D01*
X0229582Y0221631D01*
X0229659Y0221631D01*
X0229659Y0226495D01*
X0229659Y0227159D01*
X0229659Y0232022D01*
X0229582Y0232022D01*
X0228775Y0231894D01*
X0227997Y0231642D01*
X0227268Y0231270D01*
X0226607Y0230790D01*
X0226028Y0230211D01*
X0225548Y0229550D01*
X0225176Y0228821D01*
X0224924Y0228043D01*
X0224796Y0227236D01*
X0224796Y0227159D01*
X0229659Y0227159D01*
X0230323Y0227159D01*
X0230323Y0232022D01*
X0230400Y0232022D01*
X0231208Y0231894D01*
X0231986Y0231642D01*
X0232714Y0231270D01*
X0233376Y0230790D01*
X0233954Y0230211D01*
X0234000Y0230149D01*
X0234000Y0251831D01*
X0233954Y0251769D01*
X0233376Y0251190D01*
X0232714Y0250710D01*
X0231986Y0250338D01*
X0231208Y0250086D01*
X0230400Y0249958D01*
X0230323Y0249958D01*
X0230323Y0254821D01*
X0229659Y0254821D01*
X0229659Y0249958D01*
X0229582Y0249958D01*
X0228775Y0250086D01*
X0227997Y0250338D01*
X0227268Y0250710D01*
X0226607Y0251190D01*
X0226028Y0251769D01*
X0225548Y0252430D01*
X0225176Y0253159D01*
X0224924Y0253937D01*
X0224796Y0254744D01*
X0224796Y0254821D01*
X0229659Y0254821D01*
X0229659Y0255485D01*
X0224796Y0255485D01*
X0224796Y0255562D01*
X0224924Y0256370D01*
X0225176Y0257148D01*
X0225548Y0257877D01*
X0226028Y0258538D01*
X0226607Y0259116D01*
X0227268Y0259597D01*
X0227997Y0259968D01*
X0228775Y0260221D01*
X0229582Y0260349D01*
X0229659Y0260349D01*
X0229659Y0255485D01*
X0230323Y0255485D01*
X0230323Y0260349D01*
X0230400Y0260349D01*
X0231208Y0260221D01*
X0231986Y0259968D01*
X0232714Y0259597D01*
X0233376Y0259116D01*
X0233954Y0258538D01*
X0234000Y0258475D01*
X0234000Y0280000D01*
X0029600Y0280000D01*
X0029600Y0157800D01*
X0084800Y0157800D01*
X0085800Y0123800D01*
X0029600Y0124521D01*
X0029600Y0070100D01*
X0048608Y0070100D01*
X0048973Y0070465D01*
X0050671Y0070465D01*
X0051872Y0069264D01*
X0051872Y0040794D01*
X0051733Y0040655D01*
X0051006Y0039396D01*
X0051006Y0039396D01*
X0051006Y0039396D01*
X0049933Y0038776D01*
X0049687Y0038530D01*
X0043013Y0038530D01*
X0043013Y0037376D02*
X0071680Y0037376D01*
X0071680Y0035778D02*
X0043013Y0035778D01*
X0050276Y0038975D02*
X0071680Y0038975D01*
X0071680Y0040573D02*
X0051686Y0040573D01*
X0051872Y0042172D02*
X0071680Y0042172D01*
X0072782Y0043770D02*
X0051872Y0043770D01*
X0051872Y0045369D02*
X0077680Y0045369D01*
X0077680Y0046967D02*
X0051872Y0046967D01*
X0051872Y0048566D02*
X0077680Y0048566D01*
X0077680Y0050164D02*
X0051872Y0050164D01*
X0051872Y0051763D02*
X0077680Y0051763D01*
X0077680Y0053361D02*
X0051872Y0053361D01*
X0051872Y0054960D02*
X0077814Y0054960D01*
X0078741Y0056558D02*
X0051872Y0056558D01*
X0051872Y0058157D02*
X0080340Y0058157D01*
X0081938Y0059755D02*
X0051872Y0059755D01*
X0051872Y0061354D02*
X0083537Y0061354D01*
X0085136Y0062952D02*
X0051872Y0062952D01*
X0051872Y0064551D02*
X0086734Y0064551D01*
X0088333Y0066149D02*
X0051872Y0066149D01*
X0051872Y0067748D02*
X0089931Y0067748D01*
X0091530Y0069346D02*
X0051789Y0069346D01*
X0029600Y0070945D02*
X0093128Y0070945D01*
X0094727Y0072543D02*
X0029600Y0072543D01*
X0029600Y0074142D02*
X0096325Y0074142D01*
X0098644Y0075740D02*
X0029600Y0075740D01*
X0029600Y0077339D02*
X0160353Y0077339D01*
X0160617Y0075740D02*
X0127716Y0075740D01*
X0130035Y0074142D02*
X0160617Y0074142D01*
X0160617Y0072543D02*
X0130680Y0072543D01*
X0130639Y0070945D02*
X0160617Y0070945D01*
X0160617Y0069346D02*
X0129843Y0069346D01*
X0130404Y0042172D02*
X0092680Y0042172D01*
X0092680Y0040573D02*
X0129858Y0040573D01*
X0129858Y0038975D02*
X0092680Y0038975D01*
X0092680Y0037376D02*
X0129858Y0037376D01*
X0129858Y0035778D02*
X0092680Y0035778D01*
X0092680Y0034179D02*
X0129858Y0034179D01*
X0129858Y0032581D02*
X0092680Y0032581D01*
X0091578Y0043770D02*
X0160617Y0043770D01*
X0160617Y0042172D02*
X0142862Y0042172D01*
X0143407Y0040573D02*
X0160617Y0040573D01*
X0160617Y0038975D02*
X0143407Y0038975D01*
X0143407Y0037376D02*
X0160617Y0037376D01*
X0160617Y0035778D02*
X0143407Y0035778D01*
X0143407Y0034179D02*
X0160617Y0034179D01*
X0160617Y0032581D02*
X0143407Y0032581D01*
X0160617Y0045369D02*
X0085680Y0045369D01*
X0085680Y0046967D02*
X0160617Y0046967D01*
X0160617Y0048566D02*
X0085680Y0048566D01*
X0085680Y0050164D02*
X0160617Y0050164D01*
X0160617Y0051763D02*
X0085680Y0051763D01*
X0086858Y0053361D02*
X0160617Y0053361D01*
X0160617Y0054960D02*
X0088457Y0054960D01*
X0090055Y0056558D02*
X0160617Y0056558D01*
X0160617Y0058157D02*
X0091654Y0058157D01*
X0093252Y0059755D02*
X0160617Y0059755D01*
X0160617Y0061354D02*
X0094851Y0061354D01*
X0096449Y0062952D02*
X0160617Y0062952D01*
X0160617Y0064551D02*
X0098048Y0064551D01*
X0099646Y0066149D02*
X0160617Y0066149D01*
X0160617Y0067748D02*
X0101245Y0067748D01*
X0071680Y0034179D02*
X0060730Y0034179D01*
X0060730Y0032581D02*
X0071680Y0032581D01*
X0029600Y0078937D02*
X0158754Y0078937D01*
X0157156Y0080536D02*
X0029600Y0080536D01*
X0029600Y0082134D02*
X0156680Y0082134D01*
X0156680Y0083733D02*
X0029600Y0083733D01*
X0029600Y0085332D02*
X0156680Y0085332D01*
X0156680Y0086930D02*
X0029600Y0086930D01*
X0029600Y0088529D02*
X0156680Y0088529D01*
X0156680Y0090127D02*
X0029600Y0090127D01*
X0029600Y0091726D02*
X0156680Y0091726D01*
X0156680Y0093324D02*
X0029600Y0093324D01*
X0029600Y0094923D02*
X0156680Y0094923D01*
X0156680Y0096521D02*
X0029600Y0096521D01*
X0029600Y0098120D02*
X0156680Y0098120D01*
X0156680Y0099718D02*
X0029600Y0099718D01*
X0029600Y0101317D02*
X0156680Y0101317D01*
X0156680Y0102915D02*
X0029600Y0102915D01*
X0029600Y0104514D02*
X0156680Y0104514D01*
X0156680Y0106112D02*
X0029600Y0106112D01*
X0029600Y0107711D02*
X0156680Y0107711D01*
X0156680Y0109309D02*
X0029600Y0109309D01*
X0029600Y0110908D02*
X0156680Y0110908D01*
X0156680Y0112506D02*
X0029600Y0112506D01*
X0029600Y0114105D02*
X0156680Y0114105D01*
X0156680Y0115703D02*
X0029600Y0115703D01*
X0029600Y0117302D02*
X0156680Y0117302D01*
X0156680Y0118900D02*
X0029600Y0118900D01*
X0029600Y0120499D02*
X0156680Y0120499D01*
X0156680Y0122097D02*
X0029600Y0122097D01*
X0029600Y0123696D02*
X0156680Y0123696D01*
X0156680Y0125294D02*
X0085756Y0125294D01*
X0085709Y0126893D02*
X0156680Y0126893D01*
X0156680Y0128491D02*
X0085662Y0128491D01*
X0085615Y0130090D02*
X0156680Y0130090D01*
X0156680Y0131688D02*
X0085568Y0131688D01*
X0085521Y0133287D02*
X0156680Y0133287D01*
X0156680Y0134885D02*
X0085474Y0134885D01*
X0085427Y0136484D02*
X0156680Y0136484D01*
X0156680Y0138082D02*
X0085380Y0138082D01*
X0085333Y0139681D02*
X0156680Y0139681D01*
X0156680Y0141279D02*
X0156201Y0141279D01*
X0160680Y0141279D02*
X0161159Y0141279D01*
X0160680Y0139681D02*
X0169692Y0139681D01*
X0168094Y0138082D02*
X0160680Y0138082D01*
X0160680Y0136484D02*
X0166495Y0136484D01*
X0164897Y0134885D02*
X0160680Y0134885D01*
X0160680Y0133287D02*
X0163767Y0133287D01*
X0163767Y0131688D02*
X0160680Y0131688D01*
X0160680Y0130090D02*
X0163767Y0130090D01*
X0163767Y0128491D02*
X0160680Y0128491D01*
X0160680Y0126893D02*
X0163767Y0126893D01*
X0163767Y0125294D02*
X0160680Y0125294D01*
X0160680Y0123696D02*
X0163767Y0123696D01*
X0163767Y0122097D02*
X0160680Y0122097D01*
X0160680Y0120499D02*
X0163767Y0120499D01*
X0163767Y0118900D02*
X0160680Y0118900D01*
X0160680Y0117302D02*
X0163767Y0117302D01*
X0163767Y0115703D02*
X0160680Y0115703D01*
X0160680Y0114105D02*
X0163767Y0114105D01*
X0163767Y0112506D02*
X0160680Y0112506D01*
X0160680Y0110908D02*
X0163767Y0110908D01*
X0163767Y0109309D02*
X0160680Y0109309D01*
X0160680Y0107711D02*
X0163767Y0107711D01*
X0163767Y0106112D02*
X0160680Y0106112D01*
X0160680Y0104514D02*
X0163767Y0104514D01*
X0163767Y0102915D02*
X0160680Y0102915D01*
X0160680Y0101317D02*
X0163767Y0101317D01*
X0163767Y0099718D02*
X0160680Y0099718D01*
X0160680Y0098120D02*
X0163767Y0098120D01*
X0163767Y0096521D02*
X0160680Y0096521D01*
X0160680Y0094923D02*
X0163767Y0094923D01*
X0163767Y0093324D02*
X0160680Y0093324D01*
X0160680Y0091726D02*
X0163767Y0091726D01*
X0163767Y0090127D02*
X0160680Y0090127D01*
X0160680Y0088529D02*
X0163767Y0088529D01*
X0163767Y0086930D02*
X0160680Y0086930D01*
X0160680Y0085332D02*
X0163767Y0085332D01*
X0163767Y0083733D02*
X0160680Y0083733D01*
X0161214Y0082134D02*
X0163767Y0082134D01*
X0163767Y0080536D02*
X0162812Y0080536D01*
X0167767Y0080536D02*
X0173215Y0080536D01*
X0173215Y0082134D02*
X0167767Y0082134D01*
X0167767Y0083733D02*
X0173215Y0083733D01*
X0173215Y0085332D02*
X0167767Y0085332D01*
X0167767Y0086930D02*
X0173215Y0086930D01*
X0173215Y0088529D02*
X0167767Y0088529D01*
X0167767Y0090127D02*
X0173215Y0090127D01*
X0173215Y0091726D02*
X0167767Y0091726D01*
X0167767Y0093324D02*
X0173215Y0093324D01*
X0173215Y0094923D02*
X0167767Y0094923D01*
X0167767Y0096521D02*
X0173215Y0096521D01*
X0173215Y0098120D02*
X0167767Y0098120D01*
X0167767Y0099718D02*
X0173215Y0099718D01*
X0173215Y0101317D02*
X0167767Y0101317D01*
X0167767Y0102915D02*
X0173215Y0102915D01*
X0173215Y0104514D02*
X0167767Y0104514D01*
X0167767Y0106112D02*
X0173215Y0106112D01*
X0173215Y0107711D02*
X0167767Y0107711D01*
X0167767Y0109309D02*
X0173215Y0109309D01*
X0173215Y0110908D02*
X0167767Y0110908D01*
X0167767Y0112506D02*
X0173215Y0112506D01*
X0173215Y0114105D02*
X0167767Y0114105D01*
X0167767Y0115703D02*
X0173215Y0115703D01*
X0173215Y0117302D02*
X0167767Y0117302D01*
X0167767Y0118900D02*
X0173215Y0118900D01*
X0173215Y0120499D02*
X0167767Y0120499D01*
X0167767Y0122097D02*
X0173215Y0122097D01*
X0173215Y0123696D02*
X0167767Y0123696D01*
X0167767Y0125294D02*
X0173215Y0125294D01*
X0173714Y0126893D02*
X0167767Y0126893D01*
X0167767Y0128491D02*
X0175031Y0128491D01*
X0175679Y0130090D02*
X0167767Y0130090D01*
X0167767Y0131688D02*
X0175822Y0131688D01*
X0176831Y0133287D02*
X0168955Y0133287D01*
X0170554Y0134885D02*
X0195680Y0134885D01*
X0195680Y0133287D02*
X0188189Y0133287D01*
X0189151Y0131688D02*
X0195680Y0131688D01*
X0195680Y0130090D02*
X0189261Y0130090D01*
X0188587Y0128491D02*
X0195680Y0128491D01*
X0195680Y0126893D02*
X0185077Y0126893D01*
X0183781Y0125294D02*
X0195680Y0125294D01*
X0195680Y0123696D02*
X0183515Y0123696D01*
X0183515Y0122097D02*
X0195680Y0122097D01*
X0195680Y0120499D02*
X0183515Y0120499D01*
X0183515Y0118900D02*
X0195680Y0118900D01*
X0195680Y0117302D02*
X0183515Y0117302D01*
X0183515Y0115703D02*
X0195680Y0115703D01*
X0195680Y0114105D02*
X0183515Y0114105D01*
X0183515Y0112506D02*
X0195680Y0112506D01*
X0195680Y0111497D02*
X0187414Y0103231D01*
X0186289Y0102106D01*
X0185680Y0100636D01*
X0185680Y0099044D01*
X0186289Y0097574D01*
X0187414Y0096449D01*
X0188884Y0095840D01*
X0190476Y0095840D01*
X0191946Y0096449D01*
X0193071Y0097574D01*
X0203071Y0107574D01*
X0203680Y0109044D01*
X0203680Y0110636D01*
X0203680Y0205636D01*
X0203071Y0207106D01*
X0201946Y0208231D01*
X0200476Y0208840D01*
X0198884Y0208840D01*
X0197414Y0208231D01*
X0196289Y0207106D01*
X0195680Y0205636D01*
X0195680Y0111497D01*
X0195091Y0110908D02*
X0183515Y0110908D01*
X0183515Y0109309D02*
X0193492Y0109309D01*
X0191894Y0107711D02*
X0183515Y0107711D01*
X0183515Y0106112D02*
X0190295Y0106112D01*
X0188697Y0104514D02*
X0183515Y0104514D01*
X0183515Y0102915D02*
X0187098Y0102915D01*
X0185962Y0101317D02*
X0183515Y0101317D01*
X0183515Y0099718D02*
X0185680Y0099718D01*
X0186063Y0098120D02*
X0183515Y0098120D01*
X0183515Y0096521D02*
X0187342Y0096521D01*
X0183515Y0094923D02*
X0234000Y0094923D01*
X0234000Y0096521D02*
X0192018Y0096521D01*
X0193616Y0098120D02*
X0234000Y0098120D01*
X0234000Y0099718D02*
X0195215Y0099718D01*
X0196813Y0101317D02*
X0234000Y0101317D01*
X0234000Y0102915D02*
X0198412Y0102915D01*
X0200011Y0104514D02*
X0234000Y0104514D01*
X0234000Y0106112D02*
X0201609Y0106112D01*
X0203128Y0107711D02*
X0234000Y0107711D01*
X0234000Y0109309D02*
X0203680Y0109309D01*
X0203680Y0110908D02*
X0234000Y0110908D01*
X0234000Y0112506D02*
X0203680Y0112506D01*
X0203680Y0114105D02*
X0234000Y0114105D01*
X0234000Y0115703D02*
X0203680Y0115703D01*
X0203680Y0117302D02*
X0234000Y0117302D01*
X0234000Y0118900D02*
X0203680Y0118900D01*
X0203680Y0120499D02*
X0234000Y0120499D01*
X0234000Y0122097D02*
X0203680Y0122097D01*
X0203680Y0123696D02*
X0234000Y0123696D01*
X0234000Y0125294D02*
X0203680Y0125294D01*
X0203680Y0126893D02*
X0234000Y0126893D01*
X0234000Y0128491D02*
X0203680Y0128491D01*
X0203680Y0130090D02*
X0234000Y0130090D01*
X0234000Y0131688D02*
X0203680Y0131688D01*
X0203680Y0133287D02*
X0234000Y0133287D01*
X0234000Y0134885D02*
X0203680Y0134885D01*
X0203680Y0136484D02*
X0234000Y0136484D01*
X0234000Y0138082D02*
X0203680Y0138082D01*
X0203680Y0139681D02*
X0234000Y0139681D01*
X0234000Y0141279D02*
X0203680Y0141279D01*
X0203680Y0142878D02*
X0234000Y0142878D01*
X0234000Y0144476D02*
X0203680Y0144476D01*
X0203680Y0146075D02*
X0234000Y0146075D01*
X0234000Y0147673D02*
X0203680Y0147673D01*
X0203680Y0149272D02*
X0234000Y0149272D01*
X0234000Y0150870D02*
X0203680Y0150870D01*
X0203680Y0152469D02*
X0234000Y0152469D01*
X0234000Y0154068D02*
X0203680Y0154068D01*
X0203680Y0155666D02*
X0234000Y0155666D01*
X0234000Y0157265D02*
X0203680Y0157265D01*
X0203680Y0158863D02*
X0234000Y0158863D01*
X0234000Y0160462D02*
X0203680Y0160462D01*
X0203680Y0162060D02*
X0234000Y0162060D01*
X0234000Y0163659D02*
X0203680Y0163659D01*
X0203680Y0165257D02*
X0234000Y0165257D01*
X0234000Y0166856D02*
X0203680Y0166856D01*
X0203680Y0168454D02*
X0234000Y0168454D01*
X0234000Y0170053D02*
X0203680Y0170053D01*
X0203680Y0171651D02*
X0234000Y0171651D01*
X0234000Y0173250D02*
X0203680Y0173250D01*
X0203680Y0174848D02*
X0234000Y0174848D01*
X0234000Y0176447D02*
X0203680Y0176447D01*
X0203680Y0178045D02*
X0234000Y0178045D01*
X0234000Y0179644D02*
X0203680Y0179644D01*
X0203680Y0181242D02*
X0234000Y0181242D01*
X0234000Y0182841D02*
X0203680Y0182841D01*
X0203680Y0184439D02*
X0234000Y0184439D01*
X0234000Y0186038D02*
X0203680Y0186038D01*
X0203680Y0187636D02*
X0234000Y0187636D01*
X0234000Y0189235D02*
X0203680Y0189235D01*
X0203680Y0190833D02*
X0234000Y0190833D01*
X0234000Y0192432D02*
X0203680Y0192432D01*
X0203680Y0194030D02*
X0234000Y0194030D01*
X0234000Y0195629D02*
X0203680Y0195629D01*
X0203680Y0197227D02*
X0234000Y0197227D01*
X0234000Y0198826D02*
X0203680Y0198826D01*
X0203680Y0200424D02*
X0234000Y0200424D01*
X0234000Y0202023D02*
X0203680Y0202023D01*
X0203680Y0203621D02*
X0234000Y0203621D01*
X0234000Y0205220D02*
X0203680Y0205220D01*
X0203190Y0206818D02*
X0234000Y0206818D01*
X0234000Y0208417D02*
X0201497Y0208417D01*
X0197863Y0208417D02*
X0190480Y0208417D01*
X0190480Y0206818D02*
X0196170Y0206818D01*
X0195680Y0205220D02*
X0190480Y0205220D01*
X0191727Y0203621D02*
X0195680Y0203621D01*
X0195680Y0202023D02*
X0193326Y0202023D01*
X0194924Y0200424D02*
X0195680Y0200424D01*
X0195680Y0198826D02*
X0195680Y0198826D01*
X0195680Y0197227D02*
X0195680Y0197227D01*
X0195680Y0195629D02*
X0195680Y0195629D01*
X0195680Y0194030D02*
X0195680Y0194030D01*
X0195680Y0192432D02*
X0195680Y0192432D01*
X0195680Y0190833D02*
X0195680Y0190833D01*
X0195680Y0189235D02*
X0195680Y0189235D01*
X0195680Y0187636D02*
X0195680Y0187636D01*
X0195680Y0186038D02*
X0195680Y0186038D01*
X0195680Y0184439D02*
X0195680Y0184439D01*
X0195680Y0182841D02*
X0195680Y0182841D01*
X0195680Y0181242D02*
X0195680Y0181242D01*
X0195680Y0179644D02*
X0195680Y0179644D01*
X0195680Y0178045D02*
X0195680Y0178045D01*
X0195680Y0176447D02*
X0195680Y0176447D01*
X0195680Y0174848D02*
X0195680Y0174848D01*
X0195680Y0173250D02*
X0195680Y0173250D01*
X0195680Y0171651D02*
X0195680Y0171651D01*
X0195680Y0170053D02*
X0195680Y0170053D01*
X0195680Y0168454D02*
X0195680Y0168454D01*
X0195680Y0166856D02*
X0195680Y0166856D01*
X0195680Y0165257D02*
X0195680Y0165257D01*
X0195680Y0163659D02*
X0195680Y0163659D01*
X0195680Y0162060D02*
X0195680Y0162060D01*
X0195680Y0160462D02*
X0195680Y0160462D01*
X0195680Y0158863D02*
X0194531Y0158863D01*
X0195680Y0157265D02*
X0192933Y0157265D01*
X0191334Y0155666D02*
X0195680Y0155666D01*
X0195680Y0154068D02*
X0189736Y0154068D01*
X0188137Y0152469D02*
X0195680Y0152469D01*
X0195680Y0150870D02*
X0186539Y0150870D01*
X0184940Y0149272D02*
X0195680Y0149272D01*
X0195680Y0147673D02*
X0183342Y0147673D01*
X0181743Y0146075D02*
X0195680Y0146075D01*
X0195680Y0144476D02*
X0180145Y0144476D01*
X0178546Y0142878D02*
X0195680Y0142878D01*
X0195680Y0141279D02*
X0176948Y0141279D01*
X0175349Y0139681D02*
X0195680Y0139681D01*
X0195680Y0138082D02*
X0173751Y0138082D01*
X0172152Y0136484D02*
X0195680Y0136484D01*
X0182971Y0133287D02*
X0181889Y0133287D01*
X0172890Y0142878D02*
X0167799Y0142878D01*
X0167980Y0144476D02*
X0174488Y0144476D01*
X0176087Y0146075D02*
X0167980Y0146075D01*
X0166928Y0147673D02*
X0177685Y0147673D01*
X0179284Y0149272D02*
X0162247Y0149272D01*
X0158189Y0150870D02*
X0155792Y0150870D01*
X0155461Y0150540D02*
X0157980Y0153059D01*
X0157980Y0156621D01*
X0155461Y0159140D01*
X0151899Y0159140D01*
X0149380Y0156621D01*
X0149380Y0153059D01*
X0151899Y0150540D01*
X0155461Y0150540D01*
X0156680Y0149272D02*
X0095753Y0149272D01*
X0095585Y0149440D02*
X0093780Y0149440D01*
X0093780Y0144940D01*
X0098280Y0144940D01*
X0098280Y0146745D01*
X0095585Y0149440D01*
X0095461Y0150540D02*
X0091899Y0150540D01*
X0089380Y0153059D01*
X0089380Y0156621D01*
X0091899Y0159140D01*
X0095461Y0159140D01*
X0097980Y0156621D01*
X0097980Y0153059D01*
X0095461Y0150540D01*
X0095792Y0150870D02*
X0101568Y0150870D01*
X0101899Y0150540D02*
X0099380Y0153059D01*
X0099380Y0156621D01*
X0101899Y0159140D01*
X0105461Y0159140D01*
X0107980Y0156621D01*
X0107980Y0153059D01*
X0105461Y0150540D01*
X0101899Y0150540D01*
X0101899Y0149140D02*
X0099380Y0146621D01*
X0099380Y0143059D01*
X0101899Y0140540D01*
X0105461Y0140540D01*
X0107980Y0143059D01*
X0107980Y0146621D01*
X0105461Y0149140D01*
X0101899Y0149140D01*
X0100432Y0147673D02*
X0097352Y0147673D01*
X0098280Y0146075D02*
X0099380Y0146075D01*
X0099380Y0144476D02*
X0098280Y0144476D01*
X0098280Y0144740D02*
X0093780Y0144740D01*
X0093780Y0144940D01*
X0093580Y0144940D01*
X0093580Y0149440D01*
X0091775Y0149440D01*
X0089080Y0146745D01*
X0089080Y0144940D01*
X0093580Y0144940D01*
X0093580Y0144740D01*
X0093780Y0144740D01*
X0093780Y0140240D01*
X0095585Y0140240D01*
X0098280Y0142935D01*
X0098280Y0144740D01*
X0098223Y0142878D02*
X0099561Y0142878D01*
X0101159Y0141279D02*
X0096625Y0141279D01*
X0093780Y0141279D02*
X0093580Y0141279D01*
X0093580Y0140240D02*
X0093580Y0144740D01*
X0089080Y0144740D01*
X0089080Y0142935D01*
X0091775Y0140240D01*
X0093580Y0140240D01*
X0093580Y0142878D02*
X0093780Y0142878D01*
X0093780Y0144476D02*
X0093580Y0144476D01*
X0093580Y0146075D02*
X0093780Y0146075D01*
X0093780Y0147673D02*
X0093580Y0147673D01*
X0093580Y0149272D02*
X0093780Y0149272D01*
X0091607Y0149272D02*
X0085051Y0149272D01*
X0085004Y0150870D02*
X0091568Y0150870D01*
X0089970Y0152469D02*
X0084957Y0152469D01*
X0084910Y0154068D02*
X0089380Y0154068D01*
X0089380Y0155666D02*
X0084863Y0155666D01*
X0084816Y0157265D02*
X0090023Y0157265D01*
X0091622Y0158863D02*
X0029600Y0158863D01*
X0029600Y0160462D02*
X0167633Y0160462D01*
X0166035Y0158863D02*
X0165738Y0158863D01*
X0168494Y0155666D02*
X0179323Y0155666D01*
X0182481Y0152469D02*
X0167390Y0152469D01*
X0167980Y0154068D02*
X0184079Y0154068D01*
X0183477Y0155666D02*
X0185678Y0155666D01*
X0184752Y0157265D02*
X0187276Y0157265D01*
X0188875Y0158863D02*
X0185081Y0158863D01*
X0184692Y0160462D02*
X0190473Y0160462D01*
X0191680Y0162060D02*
X0183125Y0162060D01*
X0184399Y0162540D02*
X0181880Y0165059D01*
X0181880Y0168621D01*
X0184399Y0171140D01*
X0187961Y0171140D01*
X0190480Y0168621D01*
X0190480Y0165059D01*
X0187961Y0162540D01*
X0184399Y0162540D01*
X0183280Y0163659D02*
X0179080Y0163659D01*
X0177961Y0162540D02*
X0180480Y0165059D01*
X0180480Y0168621D01*
X0177961Y0171140D01*
X0174399Y0171140D01*
X0171880Y0168621D01*
X0171880Y0165059D01*
X0174399Y0162540D01*
X0177961Y0162540D01*
X0179675Y0162060D02*
X0029600Y0162060D01*
X0029600Y0163659D02*
X0068280Y0163659D01*
X0069399Y0162540D02*
X0066880Y0165059D01*
X0066880Y0168621D01*
X0069399Y0171140D01*
X0072961Y0171140D01*
X0075480Y0168621D01*
X0075480Y0165059D01*
X0072961Y0162540D01*
X0069399Y0162540D01*
X0066880Y0165257D02*
X0029600Y0165257D01*
X0029600Y0166856D02*
X0066880Y0166856D01*
X0066880Y0168454D02*
X0029600Y0168454D01*
X0029600Y0170053D02*
X0068312Y0170053D01*
X0069399Y0172540D02*
X0066880Y0175059D01*
X0066880Y0178621D01*
X0069399Y0181140D01*
X0072961Y0181140D01*
X0075480Y0178621D01*
X0075480Y0175059D01*
X0072961Y0172540D01*
X0069399Y0172540D01*
X0068689Y0173250D02*
X0029600Y0173250D01*
X0029600Y0174848D02*
X0067091Y0174848D01*
X0066880Y0176447D02*
X0029600Y0176447D01*
X0029600Y0178045D02*
X0066880Y0178045D01*
X0067903Y0179644D02*
X0029600Y0179644D01*
X0029600Y0181242D02*
X0191680Y0181242D01*
X0191680Y0179644D02*
X0189457Y0179644D01*
X0190480Y0178621D02*
X0187961Y0181140D01*
X0184399Y0181140D01*
X0181880Y0178621D01*
X0181880Y0175059D01*
X0184399Y0172540D01*
X0187961Y0172540D01*
X0190480Y0175059D01*
X0190480Y0178621D01*
X0190480Y0178045D02*
X0191680Y0178045D01*
X0191680Y0176447D02*
X0190480Y0176447D01*
X0190269Y0174848D02*
X0191680Y0174848D01*
X0191680Y0173250D02*
X0188671Y0173250D01*
X0189048Y0170053D02*
X0191680Y0170053D01*
X0191680Y0171651D02*
X0029600Y0171651D01*
X0029600Y0182841D02*
X0069098Y0182841D01*
X0069399Y0182540D02*
X0072961Y0182540D01*
X0075480Y0185059D01*
X0075480Y0188621D01*
X0072961Y0191140D01*
X0069399Y0191140D01*
X0066880Y0188621D01*
X0066880Y0185059D01*
X0069399Y0182540D01*
X0067500Y0184439D02*
X0029600Y0184439D01*
X0029600Y0186038D02*
X0066880Y0186038D01*
X0066880Y0187636D02*
X0029600Y0187636D01*
X0029600Y0189235D02*
X0067494Y0189235D01*
X0069092Y0190833D02*
X0029600Y0190833D01*
X0029600Y0192432D02*
X0094543Y0192432D01*
X0094543Y0192535D02*
X0094543Y0190514D01*
X0094666Y0190056D01*
X0094903Y0189646D01*
X0095238Y0189311D01*
X0095648Y0189074D01*
X0096106Y0188951D01*
X0098324Y0188951D01*
X0098324Y0192535D01*
X0098693Y0192535D01*
X0098693Y0188951D01*
X0100911Y0188951D01*
X0101368Y0189074D01*
X0101779Y0189311D01*
X0102067Y0189599D01*
X0102415Y0189251D01*
X0107988Y0189251D01*
X0108867Y0190130D01*
X0108867Y0190420D01*
X0110975Y0190420D01*
X0111715Y0189679D01*
X0113068Y0189119D01*
X0114228Y0189119D01*
X0114741Y0188606D01*
X0116582Y0188606D01*
X0116582Y0188119D01*
X0117461Y0187241D01*
X0122641Y0187241D01*
X0123519Y0188119D01*
X0123519Y0188779D01*
X0125522Y0188707D01*
X0125522Y0187796D01*
X0126400Y0186917D01*
X0131580Y0186917D01*
X0132459Y0187796D01*
X0132459Y0193369D01*
X0132111Y0193717D01*
X0132399Y0194005D01*
X0132636Y0194415D01*
X0132759Y0194873D01*
X0132759Y0197091D01*
X0129175Y0197091D01*
X0129175Y0197460D01*
X0132759Y0197460D01*
X0132759Y0199678D01*
X0132636Y0200136D01*
X0132399Y0200546D01*
X0132064Y0200881D01*
X0131654Y0201118D01*
X0131196Y0201241D01*
X0129174Y0201241D01*
X0129174Y0197460D01*
X0128806Y0197460D01*
X0128806Y0201241D01*
X0126785Y0201241D01*
X0126327Y0201118D01*
X0125916Y0200881D01*
X0125581Y0200546D01*
X0125344Y0200136D01*
X0125222Y0199678D01*
X0125222Y0197460D01*
X0128806Y0197460D01*
X0128806Y0197091D01*
X0125222Y0197091D01*
X0125222Y0194873D01*
X0125344Y0194415D01*
X0125581Y0194005D01*
X0125869Y0193717D01*
X0125522Y0193369D01*
X0125522Y0192709D01*
X0123519Y0192782D01*
X0123519Y0193693D01*
X0123172Y0194040D01*
X0123460Y0194328D01*
X0123697Y0194739D01*
X0123819Y0195197D01*
X0123819Y0197415D01*
X0120235Y0197415D01*
X0120235Y0197783D01*
X0123819Y0197783D01*
X0123819Y0200001D01*
X0123697Y0200459D01*
X0123460Y0200870D01*
X0123125Y0201205D01*
X0122714Y0201442D01*
X0122256Y0201564D01*
X0120235Y0201564D01*
X0120235Y0197783D01*
X0119867Y0197783D01*
X0119867Y0197415D01*
X0116282Y0197415D01*
X0116282Y0195523D01*
X0115885Y0195921D01*
X0114532Y0196481D01*
X0113068Y0196481D01*
X0111715Y0195921D01*
X0110814Y0195020D01*
X0108867Y0195020D01*
X0108867Y0195309D01*
X0107988Y0196188D01*
X0102415Y0196188D01*
X0102067Y0195840D01*
X0101779Y0196128D01*
X0101368Y0196365D01*
X0100911Y0196488D01*
X0098693Y0196488D01*
X0098693Y0192904D01*
X0098324Y0192904D01*
X0098324Y0196488D01*
X0096106Y0196488D01*
X0095648Y0196365D01*
X0095238Y0196128D01*
X0094903Y0195793D01*
X0094666Y0195383D01*
X0094543Y0194925D01*
X0094543Y0192904D01*
X0098324Y0192904D01*
X0098324Y0192535D01*
X0094543Y0192535D01*
X0094543Y0194030D02*
X0084451Y0194030D01*
X0085480Y0195059D02*
X0082961Y0192540D01*
X0079399Y0192540D01*
X0076880Y0195059D01*
X0076880Y0198621D01*
X0079399Y0201140D01*
X0082961Y0201140D01*
X0085480Y0198621D01*
X0085480Y0195059D01*
X0085480Y0195629D02*
X0094808Y0195629D01*
X0098324Y0195629D02*
X0098693Y0195629D01*
X0098693Y0194030D02*
X0098324Y0194030D01*
X0098324Y0192432D02*
X0098693Y0192432D01*
X0098693Y0190833D02*
X0098324Y0190833D01*
X0098324Y0189235D02*
X0098693Y0189235D01*
X0101647Y0189235D02*
X0112788Y0189235D01*
X0115694Y0190906D02*
X0113800Y0192800D01*
X0113720Y0192720D01*
X0105201Y0192720D01*
X0108547Y0195629D02*
X0111423Y0195629D01*
X0111948Y0201159D02*
X0113412Y0201159D01*
X0114765Y0201719D01*
X0115801Y0202755D01*
X0115848Y0202870D01*
X0116390Y0202328D01*
X0121570Y0202328D01*
X0122448Y0203207D01*
X0122448Y0208780D01*
X0122101Y0209128D01*
X0122389Y0209416D01*
X0122626Y0209826D01*
X0122748Y0210284D01*
X0122748Y0212502D01*
X0119164Y0212502D01*
X0119164Y0212871D01*
X0122748Y0212871D01*
X0122748Y0214208D01*
X0123885Y0214679D01*
X0124921Y0215715D01*
X0125481Y0217068D01*
X0125481Y0218532D01*
X0124921Y0219885D01*
X0124100Y0220706D01*
X0124100Y0220780D01*
X0124100Y0221731D01*
X0124099Y0221732D01*
X0124099Y0222117D01*
X0124386Y0222117D01*
X0125264Y0222996D01*
X0125264Y0228569D01*
X0124917Y0228917D01*
X0125205Y0229205D01*
X0125442Y0229615D01*
X0125564Y0230073D01*
X0125564Y0232291D01*
X0121980Y0232291D01*
X0121980Y0232659D01*
X0125564Y0232659D01*
X0125564Y0234877D01*
X0125442Y0235335D01*
X0125205Y0235746D01*
X0124870Y0236081D01*
X0124459Y0236318D01*
X0124001Y0236440D01*
X0121980Y0236440D01*
X0121980Y0232659D01*
X0121612Y0232659D01*
X0121612Y0232291D01*
X0118027Y0232291D01*
X0118027Y0230073D01*
X0118150Y0229615D01*
X0118387Y0229205D01*
X0118675Y0228917D01*
X0118327Y0228569D01*
X0118327Y0227853D01*
X0116864Y0227883D01*
X0116864Y0228740D01*
X0116517Y0229087D01*
X0116805Y0229375D01*
X0117042Y0229786D01*
X0117164Y0230244D01*
X0117164Y0232462D01*
X0113580Y0232462D01*
X0113580Y0232830D01*
X0117164Y0232830D01*
X0117164Y0235048D01*
X0117042Y0235506D01*
X0116805Y0235917D01*
X0116470Y0236252D01*
X0116059Y0236489D01*
X0115601Y0236611D01*
X0113580Y0236611D01*
X0113580Y0232830D01*
X0113212Y0232830D01*
X0113212Y0236611D01*
X0111190Y0236611D01*
X0110733Y0236489D01*
X0110322Y0236252D01*
X0109987Y0235917D01*
X0109750Y0235506D01*
X0109627Y0235048D01*
X0109627Y0232830D01*
X0113212Y0232830D01*
X0113212Y0232462D01*
X0109627Y0232462D01*
X0109627Y0230244D01*
X0109750Y0229786D01*
X0109987Y0229375D01*
X0110275Y0229087D01*
X0109927Y0228740D01*
X0109927Y0223166D01*
X0110806Y0222288D01*
X0115986Y0222288D01*
X0116864Y0223166D01*
X0116864Y0223882D01*
X0118327Y0223852D01*
X0118327Y0222996D01*
X0119206Y0222117D01*
X0119499Y0222117D01*
X0119500Y0220768D01*
X0119500Y0220706D01*
X0118679Y0219885D01*
X0118119Y0218532D01*
X0118119Y0217068D01*
X0118291Y0216652D01*
X0116775Y0216652D01*
X0116317Y0216529D01*
X0115906Y0216292D01*
X0115571Y0215957D01*
X0115334Y0215547D01*
X0115211Y0215089D01*
X0115211Y0212871D01*
X0118796Y0212871D01*
X0118796Y0212502D01*
X0115211Y0212502D01*
X0115211Y0210284D01*
X0115334Y0209826D01*
X0115571Y0209416D01*
X0115859Y0209128D01*
X0115511Y0208780D01*
X0115511Y0207392D01*
X0115362Y0207364D01*
X0114765Y0207961D01*
X0113412Y0208521D01*
X0111948Y0208521D01*
X0110595Y0207961D01*
X0109559Y0206925D01*
X0108999Y0205572D01*
X0108999Y0204108D01*
X0109559Y0202755D01*
X0110595Y0201719D01*
X0111948Y0201159D01*
X0110291Y0202023D02*
X0029600Y0202023D01*
X0029600Y0203621D02*
X0068318Y0203621D01*
X0069399Y0202540D02*
X0066880Y0205059D01*
X0066880Y0208621D01*
X0069399Y0211140D01*
X0072961Y0211140D01*
X0075480Y0208621D01*
X0075480Y0205059D01*
X0072961Y0202540D01*
X0069399Y0202540D01*
X0069399Y0201140D02*
X0066880Y0198621D01*
X0066880Y0195059D01*
X0069399Y0192540D01*
X0072961Y0192540D01*
X0075480Y0195059D01*
X0075480Y0198621D01*
X0072961Y0201140D01*
X0069399Y0201140D01*
X0068683Y0200424D02*
X0029600Y0200424D01*
X0029600Y0198826D02*
X0067085Y0198826D01*
X0066880Y0197227D02*
X0029600Y0197227D01*
X0029600Y0195629D02*
X0066880Y0195629D01*
X0067909Y0194030D02*
X0029600Y0194030D01*
X0029600Y0205220D02*
X0066880Y0205220D01*
X0066880Y0206818D02*
X0029600Y0206818D01*
X0029600Y0208417D02*
X0066880Y0208417D01*
X0068274Y0210015D02*
X0029600Y0210015D01*
X0029600Y0211614D02*
X0115211Y0211614D01*
X0115211Y0213212D02*
X0083634Y0213212D01*
X0082961Y0212540D02*
X0079399Y0212540D01*
X0076880Y0215059D01*
X0076880Y0218621D01*
X0079399Y0221140D01*
X0082961Y0221140D01*
X0085480Y0218621D01*
X0085480Y0215059D01*
X0082961Y0212540D01*
X0082961Y0211140D02*
X0079399Y0211140D01*
X0076880Y0208621D01*
X0076880Y0205059D01*
X0079399Y0202540D01*
X0082961Y0202540D01*
X0085480Y0205059D01*
X0085480Y0208621D01*
X0082961Y0211140D01*
X0084086Y0210015D02*
X0115283Y0210015D01*
X0115511Y0208417D02*
X0113664Y0208417D01*
X0111696Y0208417D02*
X0085480Y0208417D01*
X0085480Y0206818D02*
X0109515Y0206818D01*
X0108999Y0205220D02*
X0085480Y0205220D01*
X0084042Y0203621D02*
X0109200Y0203621D01*
X0115069Y0202023D02*
X0133749Y0202023D01*
X0134861Y0200424D02*
X0132469Y0200424D01*
X0132759Y0198826D02*
X0134589Y0198826D01*
X0134589Y0195629D02*
X0132759Y0195629D01*
X0132414Y0194030D02*
X0134955Y0194030D01*
X0134889Y0192432D02*
X0132459Y0192432D01*
X0132459Y0190833D02*
X0134889Y0190833D01*
X0134889Y0189235D02*
X0132459Y0189235D01*
X0132299Y0187636D02*
X0135080Y0187636D01*
X0134799Y0186038D02*
X0085780Y0186038D01*
X0085780Y0186740D02*
X0081280Y0186740D01*
X0081280Y0186940D01*
X0081080Y0186940D01*
X0081080Y0191440D01*
X0079275Y0191440D01*
X0076580Y0188745D01*
X0076580Y0186940D01*
X0081080Y0186940D01*
X0081080Y0186740D01*
X0076580Y0186740D01*
X0076580Y0184935D01*
X0079275Y0182240D01*
X0081080Y0182240D01*
X0081080Y0186740D01*
X0081280Y0186740D01*
X0081280Y0182240D01*
X0083085Y0182240D01*
X0085780Y0184935D01*
X0085780Y0186740D01*
X0085780Y0186940D02*
X0085780Y0188745D01*
X0083085Y0191440D01*
X0081280Y0191440D01*
X0081280Y0186940D01*
X0085780Y0186940D01*
X0085780Y0187636D02*
X0117066Y0187636D01*
X0115694Y0190906D02*
X0120051Y0190906D01*
X0123182Y0194030D02*
X0125567Y0194030D01*
X0125222Y0195629D02*
X0123819Y0195629D01*
X0123819Y0197227D02*
X0128806Y0197227D01*
X0129175Y0197227D02*
X0138174Y0197227D01*
X0138542Y0197227D02*
X0171880Y0197227D01*
X0171880Y0195629D02*
X0142126Y0195629D01*
X0141761Y0194030D02*
X0172909Y0194030D01*
X0174399Y0191140D02*
X0171880Y0188621D01*
X0171880Y0185059D01*
X0174399Y0182540D01*
X0177961Y0182540D01*
X0180480Y0185059D01*
X0180480Y0188621D01*
X0177961Y0191140D01*
X0174399Y0191140D01*
X0174092Y0190833D02*
X0159676Y0190833D01*
X0160527Y0189235D02*
X0172494Y0189235D01*
X0171880Y0187636D02*
X0160527Y0187636D01*
X0160527Y0186038D02*
X0171880Y0186038D01*
X0172500Y0184439D02*
X0160271Y0184439D01*
X0156746Y0184439D02*
X0156378Y0184439D01*
X0156378Y0186038D02*
X0156746Y0186038D01*
X0156746Y0187636D02*
X0156378Y0187636D01*
X0156378Y0189235D02*
X0156746Y0189235D01*
X0156746Y0190833D02*
X0156378Y0190833D01*
X0153448Y0190833D02*
X0141826Y0190833D01*
X0141826Y0189235D02*
X0144706Y0189235D01*
X0141826Y0192432D02*
X0191680Y0192432D01*
X0191680Y0194030D02*
X0189451Y0194030D01*
X0190480Y0195629D02*
X0191680Y0195629D01*
X0191680Y0197227D02*
X0190480Y0197227D01*
X0190275Y0198826D02*
X0190866Y0198826D01*
X0191680Y0190833D02*
X0188268Y0190833D01*
X0187961Y0191140D02*
X0184399Y0191140D01*
X0181880Y0188621D01*
X0181880Y0185059D01*
X0184399Y0182540D01*
X0187961Y0182540D01*
X0190480Y0185059D01*
X0190480Y0188621D01*
X0187961Y0191140D01*
X0189866Y0189235D02*
X0191680Y0189235D01*
X0191680Y0187636D02*
X0190480Y0187636D01*
X0190480Y0186038D02*
X0191680Y0186038D01*
X0191680Y0184439D02*
X0189860Y0184439D01*
X0188262Y0182841D02*
X0191680Y0182841D01*
X0184098Y0182841D02*
X0178262Y0182841D01*
X0177961Y0181140D02*
X0174399Y0181140D01*
X0171880Y0178621D01*
X0171880Y0175059D01*
X0174399Y0172540D01*
X0177961Y0172540D01*
X0180480Y0175059D01*
X0180480Y0178621D01*
X0177961Y0181140D01*
X0179457Y0179644D02*
X0182903Y0179644D01*
X0181880Y0178045D02*
X0180480Y0178045D01*
X0180480Y0176447D02*
X0181880Y0176447D01*
X0182091Y0174848D02*
X0180269Y0174848D01*
X0178671Y0173250D02*
X0183689Y0173250D01*
X0183312Y0170053D02*
X0179048Y0170053D01*
X0180480Y0168454D02*
X0181880Y0168454D01*
X0181880Y0166856D02*
X0180480Y0166856D01*
X0180480Y0165257D02*
X0181880Y0165257D01*
X0189080Y0163659D02*
X0191680Y0163659D01*
X0191680Y0165257D02*
X0190480Y0165257D01*
X0190480Y0166856D02*
X0191680Y0166856D01*
X0191680Y0168454D02*
X0190480Y0168454D01*
X0173312Y0170053D02*
X0084048Y0170053D01*
X0082961Y0171140D02*
X0085480Y0168621D01*
X0085480Y0165059D01*
X0082961Y0162540D01*
X0079399Y0162540D01*
X0076880Y0165059D01*
X0076880Y0168621D01*
X0079399Y0171140D01*
X0082961Y0171140D01*
X0082961Y0172540D02*
X0085480Y0175059D01*
X0085480Y0178621D01*
X0082961Y0181140D01*
X0079399Y0181140D01*
X0076880Y0178621D01*
X0076880Y0175059D01*
X0079399Y0172540D01*
X0082961Y0172540D01*
X0083671Y0173250D02*
X0173689Y0173250D01*
X0172091Y0174848D02*
X0085269Y0174848D01*
X0085480Y0176447D02*
X0171880Y0176447D01*
X0171880Y0178045D02*
X0085480Y0178045D01*
X0084457Y0179644D02*
X0172903Y0179644D01*
X0174098Y0182841D02*
X0146347Y0182841D01*
X0138370Y0185040D02*
X0138358Y0185442D01*
X0138358Y0190614D01*
X0134689Y0184439D02*
X0085285Y0184439D01*
X0083686Y0182841D02*
X0135363Y0182841D01*
X0125681Y0187636D02*
X0123036Y0187636D01*
X0116282Y0195629D02*
X0116177Y0195629D01*
X0116282Y0197227D02*
X0085480Y0197227D01*
X0085275Y0198826D02*
X0116282Y0198826D01*
X0116282Y0197783D02*
X0116282Y0200001D01*
X0116405Y0200459D01*
X0116642Y0200870D01*
X0116977Y0201205D01*
X0117388Y0201442D01*
X0117845Y0201564D01*
X0119867Y0201564D01*
X0119867Y0197783D01*
X0116282Y0197783D01*
X0116396Y0200424D02*
X0083677Y0200424D01*
X0078683Y0200424D02*
X0073677Y0200424D01*
X0075275Y0198826D02*
X0077085Y0198826D01*
X0076880Y0197227D02*
X0075480Y0197227D01*
X0075480Y0195629D02*
X0076880Y0195629D01*
X0077909Y0194030D02*
X0074451Y0194030D01*
X0073268Y0190833D02*
X0078668Y0190833D01*
X0077069Y0189235D02*
X0074866Y0189235D01*
X0075480Y0187636D02*
X0076580Y0187636D01*
X0076580Y0186038D02*
X0075480Y0186038D01*
X0074860Y0184439D02*
X0077075Y0184439D01*
X0078674Y0182841D02*
X0073262Y0182841D01*
X0074457Y0179644D02*
X0077903Y0179644D01*
X0076880Y0178045D02*
X0075480Y0178045D01*
X0075480Y0176447D02*
X0076880Y0176447D01*
X0077091Y0174848D02*
X0075269Y0174848D01*
X0073671Y0173250D02*
X0078689Y0173250D01*
X0078312Y0170053D02*
X0074048Y0170053D01*
X0075480Y0168454D02*
X0076880Y0168454D01*
X0076880Y0166856D02*
X0075480Y0166856D01*
X0075480Y0165257D02*
X0076880Y0165257D01*
X0078280Y0163659D02*
X0074080Y0163659D01*
X0084080Y0163659D02*
X0173280Y0163659D01*
X0171880Y0165257D02*
X0085480Y0165257D01*
X0085480Y0166856D02*
X0171880Y0166856D01*
X0171880Y0168454D02*
X0085480Y0168454D01*
X0095738Y0158863D02*
X0101622Y0158863D01*
X0100023Y0157265D02*
X0097337Y0157265D01*
X0097980Y0155666D02*
X0099380Y0155666D01*
X0099380Y0154068D02*
X0097980Y0154068D01*
X0097390Y0152469D02*
X0099970Y0152469D01*
X0105792Y0150870D02*
X0111568Y0150870D01*
X0111899Y0150540D02*
X0115461Y0150540D01*
X0117980Y0153059D01*
X0117980Y0156621D01*
X0115461Y0159140D01*
X0111899Y0159140D01*
X0109380Y0156621D01*
X0109380Y0153059D01*
X0111899Y0150540D01*
X0111899Y0149140D02*
X0109380Y0146621D01*
X0109380Y0143059D01*
X0111899Y0140540D01*
X0115461Y0140540D01*
X0117980Y0143059D01*
X0117980Y0146621D01*
X0115461Y0149140D01*
X0111899Y0149140D01*
X0110432Y0147673D02*
X0106928Y0147673D01*
X0107980Y0146075D02*
X0109380Y0146075D01*
X0109380Y0144476D02*
X0107980Y0144476D01*
X0107799Y0142878D02*
X0109561Y0142878D01*
X0111159Y0141279D02*
X0106201Y0141279D01*
X0116201Y0141279D02*
X0121159Y0141279D01*
X0121899Y0140540D02*
X0125461Y0140540D01*
X0127980Y0143059D01*
X0127980Y0146621D01*
X0125461Y0149140D01*
X0121899Y0149140D01*
X0119380Y0146621D01*
X0119380Y0143059D01*
X0121899Y0140540D01*
X0119561Y0142878D02*
X0117799Y0142878D01*
X0117980Y0144476D02*
X0119380Y0144476D01*
X0119380Y0146075D02*
X0117980Y0146075D01*
X0116928Y0147673D02*
X0120432Y0147673D01*
X0121899Y0150540D02*
X0125461Y0150540D01*
X0127980Y0153059D01*
X0127980Y0156621D01*
X0125461Y0159140D01*
X0121899Y0159140D01*
X0119380Y0156621D01*
X0119380Y0153059D01*
X0121899Y0150540D01*
X0121568Y0150870D02*
X0115792Y0150870D01*
X0117390Y0152469D02*
X0119970Y0152469D01*
X0119380Y0154068D02*
X0117980Y0154068D01*
X0117980Y0155666D02*
X0119380Y0155666D01*
X0120023Y0157265D02*
X0117337Y0157265D01*
X0115738Y0158863D02*
X0121622Y0158863D01*
X0125738Y0158863D02*
X0131622Y0158863D01*
X0131899Y0159140D02*
X0129380Y0156621D01*
X0129380Y0153059D01*
X0131899Y0150540D01*
X0135461Y0150540D01*
X0137980Y0153059D01*
X0137980Y0156621D01*
X0135461Y0159140D01*
X0131899Y0159140D01*
X0130023Y0157265D02*
X0127337Y0157265D01*
X0127980Y0155666D02*
X0129380Y0155666D01*
X0129380Y0154068D02*
X0127980Y0154068D01*
X0127390Y0152469D02*
X0129970Y0152469D01*
X0131568Y0150870D02*
X0125792Y0150870D01*
X0126928Y0147673D02*
X0130432Y0147673D01*
X0129380Y0146621D02*
X0131899Y0149140D01*
X0135461Y0149140D01*
X0137980Y0146621D01*
X0137980Y0143059D01*
X0135461Y0140540D01*
X0131899Y0140540D01*
X0129380Y0143059D01*
X0129380Y0146621D01*
X0129380Y0146075D02*
X0127980Y0146075D01*
X0127980Y0144476D02*
X0129380Y0144476D01*
X0129561Y0142878D02*
X0127799Y0142878D01*
X0126201Y0141279D02*
X0131159Y0141279D01*
X0136201Y0141279D02*
X0141159Y0141279D01*
X0141899Y0140540D02*
X0145461Y0140540D01*
X0147980Y0143059D01*
X0147980Y0146621D01*
X0145461Y0149140D01*
X0141899Y0149140D01*
X0139380Y0146621D01*
X0139380Y0143059D01*
X0141899Y0140540D01*
X0139561Y0142878D02*
X0137799Y0142878D01*
X0137980Y0144476D02*
X0139380Y0144476D01*
X0139380Y0146075D02*
X0137980Y0146075D01*
X0136928Y0147673D02*
X0140432Y0147673D01*
X0141775Y0150240D02*
X0143580Y0150240D01*
X0143580Y0154740D01*
X0143780Y0154740D01*
X0143780Y0154940D01*
X0148280Y0154940D01*
X0148280Y0156745D01*
X0145585Y0159440D01*
X0143780Y0159440D01*
X0143780Y0154940D01*
X0143580Y0154940D01*
X0143580Y0159440D01*
X0141775Y0159440D01*
X0139080Y0156745D01*
X0139080Y0154940D01*
X0143580Y0154940D01*
X0143580Y0154740D01*
X0139080Y0154740D01*
X0139080Y0152935D01*
X0141775Y0150240D01*
X0141144Y0150870D02*
X0135792Y0150870D01*
X0137390Y0152469D02*
X0139546Y0152469D01*
X0139080Y0154068D02*
X0137980Y0154068D01*
X0137980Y0155666D02*
X0139080Y0155666D01*
X0139599Y0157265D02*
X0137337Y0157265D01*
X0135738Y0158863D02*
X0141198Y0158863D01*
X0143580Y0158863D02*
X0143780Y0158863D01*
X0143780Y0157265D02*
X0143580Y0157265D01*
X0143580Y0155666D02*
X0143780Y0155666D01*
X0143780Y0154740D02*
X0148280Y0154740D01*
X0148280Y0152935D01*
X0145585Y0150240D01*
X0143780Y0150240D01*
X0143780Y0154740D01*
X0143780Y0154068D02*
X0143580Y0154068D01*
X0143580Y0152469D02*
X0143780Y0152469D01*
X0143780Y0150870D02*
X0143580Y0150870D01*
X0146216Y0150870D02*
X0151568Y0150870D01*
X0149970Y0152469D02*
X0147814Y0152469D01*
X0148280Y0154068D02*
X0149380Y0154068D01*
X0149380Y0155666D02*
X0148280Y0155666D01*
X0147761Y0157265D02*
X0150023Y0157265D01*
X0151622Y0158863D02*
X0146162Y0158863D01*
X0155738Y0158863D02*
X0161622Y0158863D01*
X0160023Y0157265D02*
X0157337Y0157265D01*
X0157980Y0155666D02*
X0159380Y0155666D01*
X0159380Y0154068D02*
X0157980Y0154068D01*
X0157390Y0152469D02*
X0159788Y0152469D01*
X0165792Y0150870D02*
X0180882Y0150870D01*
X0171291Y0141279D02*
X0166201Y0141279D01*
X0151159Y0141279D02*
X0146201Y0141279D01*
X0147799Y0142878D02*
X0149561Y0142878D01*
X0149380Y0144476D02*
X0147980Y0144476D01*
X0147980Y0146075D02*
X0149380Y0146075D01*
X0150432Y0147673D02*
X0146928Y0147673D01*
X0179860Y0184439D02*
X0182500Y0184439D01*
X0181880Y0186038D02*
X0180480Y0186038D01*
X0180480Y0187636D02*
X0181880Y0187636D01*
X0182494Y0189235D02*
X0179866Y0189235D01*
X0178268Y0190833D02*
X0184092Y0190833D01*
X0182909Y0194030D02*
X0179451Y0194030D01*
X0180480Y0195629D02*
X0181880Y0195629D01*
X0181880Y0197227D02*
X0180480Y0197227D01*
X0180275Y0198826D02*
X0182085Y0198826D01*
X0181880Y0205220D02*
X0180480Y0205220D01*
X0180480Y0206818D02*
X0181880Y0206818D01*
X0181880Y0208417D02*
X0180480Y0208417D01*
X0179086Y0210015D02*
X0183274Y0210015D01*
X0184399Y0212540D02*
X0181880Y0215059D01*
X0181880Y0218621D01*
X0184399Y0221140D01*
X0187961Y0221140D01*
X0190480Y0218621D01*
X0190480Y0215059D01*
X0187961Y0212540D01*
X0184399Y0212540D01*
X0183726Y0213212D02*
X0178634Y0213212D01*
X0177961Y0212540D02*
X0180480Y0215059D01*
X0180480Y0218621D01*
X0177961Y0221140D01*
X0174399Y0221140D01*
X0171880Y0218621D01*
X0171880Y0215059D01*
X0174399Y0212540D01*
X0177961Y0212540D01*
X0180232Y0214811D02*
X0182128Y0214811D01*
X0181880Y0216409D02*
X0180480Y0216409D01*
X0180480Y0218008D02*
X0181880Y0218008D01*
X0182865Y0219606D02*
X0179495Y0219606D01*
X0177961Y0222540D02*
X0180480Y0225059D01*
X0180480Y0228621D01*
X0177961Y0231140D01*
X0174399Y0231140D01*
X0171880Y0228621D01*
X0171880Y0225059D01*
X0174399Y0222540D01*
X0177961Y0222540D01*
X0178225Y0222803D02*
X0184135Y0222803D01*
X0184399Y0222540D02*
X0187961Y0222540D01*
X0190480Y0225059D01*
X0190480Y0228621D01*
X0187961Y0231140D01*
X0184399Y0231140D01*
X0181880Y0228621D01*
X0181880Y0225059D01*
X0184399Y0222540D01*
X0182537Y0224402D02*
X0179823Y0224402D01*
X0180480Y0226001D02*
X0181880Y0226001D01*
X0181880Y0227599D02*
X0180480Y0227599D01*
X0179904Y0229198D02*
X0182456Y0229198D01*
X0184055Y0230796D02*
X0178305Y0230796D01*
X0177961Y0232540D02*
X0180480Y0235059D01*
X0180480Y0238621D01*
X0177961Y0241140D01*
X0174399Y0241140D01*
X0171880Y0238621D01*
X0171880Y0235059D01*
X0174399Y0232540D01*
X0177961Y0232540D01*
X0179414Y0233993D02*
X0182946Y0233993D01*
X0181880Y0235059D02*
X0184399Y0232540D01*
X0187961Y0232540D01*
X0190480Y0235059D01*
X0190480Y0238621D01*
X0187961Y0241140D01*
X0184399Y0241140D01*
X0181880Y0238621D01*
X0181880Y0235059D01*
X0181880Y0235592D02*
X0180480Y0235592D01*
X0180480Y0237190D02*
X0181880Y0237190D01*
X0182048Y0238789D02*
X0180312Y0238789D01*
X0178714Y0240387D02*
X0183646Y0240387D01*
X0188714Y0240387D02*
X0234000Y0240387D01*
X0234000Y0238789D02*
X0190312Y0238789D01*
X0190480Y0237190D02*
X0234000Y0237190D01*
X0234000Y0235592D02*
X0190480Y0235592D01*
X0189414Y0233993D02*
X0216021Y0233993D01*
X0216024Y0233997D02*
X0215620Y0233440D01*
X0215307Y0232827D01*
X0215094Y0232172D01*
X0214987Y0231492D01*
X0214987Y0231148D01*
X0219361Y0231148D01*
X0219361Y0235522D01*
X0219017Y0235522D01*
X0218337Y0235415D01*
X0217682Y0235202D01*
X0217069Y0234889D01*
X0216511Y0234484D01*
X0216024Y0233997D01*
X0215167Y0232395D02*
X0129800Y0232395D01*
X0129800Y0233993D02*
X0172946Y0233993D01*
X0171880Y0235592D02*
X0129800Y0235592D01*
X0129800Y0237190D02*
X0171880Y0237190D01*
X0172048Y0238789D02*
X0129800Y0238789D01*
X0129800Y0240387D02*
X0173646Y0240387D01*
X0167202Y0246781D02*
X0217676Y0246781D01*
X0217682Y0246778D02*
X0218337Y0246565D01*
X0219017Y0246458D01*
X0219361Y0246458D01*
X0219361Y0250832D01*
X0219361Y0250832D01*
X0214987Y0250832D01*
X0214987Y0250488D01*
X0215094Y0249808D01*
X0215307Y0249153D01*
X0215620Y0248540D01*
X0216024Y0247983D01*
X0216511Y0247496D01*
X0217069Y0247091D01*
X0217682Y0246778D01*
X0219361Y0246781D02*
X0219361Y0246781D01*
X0219361Y0246458D02*
X0219706Y0246458D01*
X0220386Y0246565D01*
X0221041Y0246778D01*
X0221654Y0247091D01*
X0222211Y0247496D01*
X0222698Y0247983D01*
X0223103Y0248540D01*
X0223416Y0249153D01*
X0223628Y0249808D01*
X0223736Y0250488D01*
X0223736Y0250832D01*
X0219362Y0250832D01*
X0219362Y0250833D01*
X0223736Y0250833D01*
X0223736Y0251177D01*
X0223628Y0251857D01*
X0223416Y0252512D01*
X0223103Y0253125D01*
X0222698Y0253683D01*
X0222211Y0254169D01*
X0221654Y0254574D01*
X0221041Y0254887D01*
X0220386Y0255100D01*
X0219706Y0255207D01*
X0219361Y0255207D01*
X0219017Y0255207D01*
X0218337Y0255100D01*
X0217682Y0254887D01*
X0217069Y0254574D01*
X0216511Y0254169D01*
X0216024Y0253683D01*
X0215620Y0253125D01*
X0215307Y0252512D01*
X0215094Y0251857D01*
X0214987Y0251177D01*
X0214987Y0250833D01*
X0219361Y0250833D01*
X0219361Y0255207D01*
X0219361Y0250833D01*
X0219361Y0250833D01*
X0219361Y0250832D01*
X0219361Y0246458D01*
X0221047Y0246781D02*
X0234000Y0246781D01*
X0234000Y0245183D02*
X0165604Y0245183D01*
X0165461Y0245040D02*
X0167980Y0247559D01*
X0167980Y0251121D01*
X0165461Y0253640D01*
X0161899Y0253640D01*
X0159380Y0251121D01*
X0159380Y0247559D01*
X0161899Y0245040D01*
X0165461Y0245040D01*
X0161756Y0245183D02*
X0155604Y0245183D01*
X0155461Y0245040D02*
X0157980Y0247559D01*
X0157980Y0251121D01*
X0155461Y0253640D01*
X0151899Y0253640D01*
X0149380Y0251121D01*
X0149380Y0247559D01*
X0151899Y0245040D01*
X0155461Y0245040D01*
X0157202Y0246781D02*
X0160158Y0246781D01*
X0159380Y0248380D02*
X0157980Y0248380D01*
X0157980Y0249978D02*
X0159380Y0249978D01*
X0159836Y0251577D02*
X0157524Y0251577D01*
X0155926Y0253175D02*
X0161434Y0253175D01*
X0161899Y0255040D02*
X0165461Y0255040D01*
X0167980Y0257559D01*
X0167980Y0261121D01*
X0165461Y0263640D01*
X0161899Y0263640D01*
X0159380Y0261121D01*
X0159380Y0257559D01*
X0161899Y0255040D01*
X0160567Y0256372D02*
X0156793Y0256372D01*
X0157980Y0257559D02*
X0155461Y0255040D01*
X0151899Y0255040D01*
X0149380Y0257559D01*
X0149380Y0261121D01*
X0151899Y0263640D01*
X0155461Y0263640D01*
X0157980Y0261121D01*
X0157980Y0257559D01*
X0157980Y0257971D02*
X0159380Y0257971D01*
X0159380Y0259569D02*
X0157980Y0259569D01*
X0157933Y0261168D02*
X0159427Y0261168D01*
X0161025Y0262766D02*
X0156335Y0262766D01*
X0151025Y0262766D02*
X0146335Y0262766D01*
X0145461Y0263640D02*
X0141899Y0263640D01*
X0139380Y0261121D01*
X0139380Y0257559D01*
X0141899Y0255040D01*
X0145461Y0255040D01*
X0147980Y0257559D01*
X0147980Y0261121D01*
X0145461Y0263640D01*
X0147933Y0261168D02*
X0149427Y0261168D01*
X0149380Y0259569D02*
X0147980Y0259569D01*
X0147980Y0257971D02*
X0149380Y0257971D01*
X0150567Y0256372D02*
X0146793Y0256372D01*
X0145461Y0253640D02*
X0141899Y0253640D01*
X0139380Y0251121D01*
X0139380Y0247559D01*
X0141899Y0245040D01*
X0145461Y0245040D01*
X0147980Y0247559D01*
X0147980Y0251121D01*
X0145461Y0253640D01*
X0145926Y0253175D02*
X0151434Y0253175D01*
X0149836Y0251577D02*
X0147524Y0251577D01*
X0147980Y0249978D02*
X0149380Y0249978D01*
X0149380Y0248380D02*
X0147980Y0248380D01*
X0147202Y0246781D02*
X0150158Y0246781D01*
X0151756Y0245183D02*
X0145604Y0245183D01*
X0141756Y0245183D02*
X0135604Y0245183D01*
X0135461Y0245040D02*
X0137980Y0247559D01*
X0137980Y0251121D01*
X0135461Y0253640D01*
X0131899Y0253640D01*
X0129380Y0251121D01*
X0129380Y0247559D01*
X0131899Y0245040D01*
X0135461Y0245040D01*
X0137202Y0246781D02*
X0140158Y0246781D01*
X0139380Y0248380D02*
X0137980Y0248380D01*
X0137980Y0249978D02*
X0139380Y0249978D01*
X0139836Y0251577D02*
X0137524Y0251577D01*
X0135926Y0253175D02*
X0141434Y0253175D01*
X0140567Y0256372D02*
X0136793Y0256372D01*
X0137980Y0257559D02*
X0135461Y0255040D01*
X0131899Y0255040D01*
X0129380Y0257559D01*
X0129380Y0261121D01*
X0131899Y0263640D01*
X0135461Y0263640D01*
X0137980Y0261121D01*
X0137980Y0257559D01*
X0137980Y0257971D02*
X0139380Y0257971D01*
X0139380Y0259569D02*
X0137980Y0259569D01*
X0137933Y0261168D02*
X0139427Y0261168D01*
X0141025Y0262766D02*
X0136335Y0262766D01*
X0131025Y0262766D02*
X0126335Y0262766D01*
X0125461Y0263640D02*
X0121899Y0263640D01*
X0119380Y0261121D01*
X0119380Y0257559D01*
X0121899Y0255040D01*
X0125461Y0255040D01*
X0127980Y0257559D01*
X0127980Y0261121D01*
X0125461Y0263640D01*
X0127933Y0261168D02*
X0129427Y0261168D01*
X0129380Y0259569D02*
X0127980Y0259569D01*
X0127980Y0257971D02*
X0129380Y0257971D01*
X0130567Y0256372D02*
X0126793Y0256372D01*
X0125926Y0253175D02*
X0131434Y0253175D01*
X0129836Y0251577D02*
X0127524Y0251577D01*
X0127980Y0249978D02*
X0129380Y0249978D01*
X0129380Y0248380D02*
X0127980Y0248380D01*
X0129067Y0246781D02*
X0130158Y0246781D01*
X0129800Y0245183D02*
X0131756Y0245183D01*
X0129800Y0243584D02*
X0234000Y0243584D01*
X0234000Y0241986D02*
X0129800Y0241986D01*
X0125800Y0241986D02*
X0109236Y0241986D01*
X0110812Y0243584D02*
X0125800Y0243584D01*
X0125800Y0240387D02*
X0107659Y0240387D01*
X0106345Y0239055D02*
X0112248Y0245040D01*
X0115461Y0245040D01*
X0117980Y0247559D01*
X0117980Y0251121D01*
X0115461Y0253640D01*
X0111899Y0253640D01*
X0109380Y0251121D01*
X0109380Y0247828D01*
X0103292Y0241655D01*
X0099893Y0241655D01*
X0099052Y0240814D01*
X0096056Y0241309D01*
X0095801Y0241925D01*
X0094765Y0242961D01*
X0093412Y0243521D01*
X0091948Y0243521D01*
X0090595Y0242961D01*
X0089559Y0241925D01*
X0088999Y0240572D01*
X0088999Y0239108D01*
X0089559Y0237755D01*
X0090595Y0236719D01*
X0091948Y0236159D01*
X0093412Y0236159D01*
X0094765Y0236719D01*
X0095408Y0237362D01*
X0099015Y0236765D01*
X0099015Y0235597D01*
X0099599Y0235012D01*
X0099409Y0234902D01*
X0099074Y0234567D01*
X0098837Y0234157D01*
X0098715Y0233699D01*
X0098715Y0231678D01*
X0102496Y0231678D01*
X0102496Y0231309D01*
X0102864Y0231309D01*
X0102864Y0227725D01*
X0105082Y0227725D01*
X0105540Y0227848D01*
X0105951Y0228085D01*
X0106286Y0228420D01*
X0106523Y0228830D01*
X0106645Y0229288D01*
X0106645Y0231309D01*
X0102864Y0231309D01*
X0102864Y0231678D01*
X0106645Y0231678D01*
X0106645Y0233699D01*
X0106523Y0234157D01*
X0106286Y0234567D01*
X0105951Y0234902D01*
X0105761Y0235012D01*
X0106345Y0235597D01*
X0106345Y0239055D01*
X0106345Y0238789D02*
X0125800Y0238789D01*
X0125800Y0237190D02*
X0106345Y0237190D01*
X0106340Y0235592D02*
X0109799Y0235592D01*
X0109627Y0233993D02*
X0106567Y0233993D01*
X0106645Y0232395D02*
X0109627Y0232395D01*
X0109627Y0230796D02*
X0106645Y0230796D01*
X0106621Y0229198D02*
X0110165Y0229198D01*
X0109927Y0227599D02*
X0085480Y0227599D01*
X0085480Y0228621D02*
X0082961Y0231140D01*
X0079399Y0231140D01*
X0076880Y0228621D01*
X0076880Y0225059D01*
X0079399Y0222540D01*
X0082961Y0222540D01*
X0085480Y0225059D01*
X0085480Y0228621D01*
X0084904Y0229198D02*
X0098739Y0229198D01*
X0098715Y0229288D02*
X0098837Y0228830D01*
X0099074Y0228420D01*
X0099409Y0228085D01*
X0099820Y0227848D01*
X0100278Y0227725D01*
X0102496Y0227725D01*
X0102496Y0231309D01*
X0098715Y0231309D01*
X0098715Y0229288D01*
X0098715Y0230796D02*
X0083305Y0230796D01*
X0082961Y0232540D02*
X0085480Y0235059D01*
X0085480Y0238621D01*
X0082961Y0241140D01*
X0079399Y0241140D01*
X0076880Y0238621D01*
X0076880Y0235059D01*
X0079399Y0232540D01*
X0082961Y0232540D01*
X0084414Y0233993D02*
X0098793Y0233993D01*
X0098715Y0232395D02*
X0029600Y0232395D01*
X0029600Y0233993D02*
X0067946Y0233993D01*
X0066880Y0235059D02*
X0069399Y0232540D01*
X0072961Y0232540D01*
X0075480Y0235059D01*
X0075480Y0238621D01*
X0072961Y0241140D01*
X0069399Y0241140D01*
X0066880Y0238621D01*
X0066880Y0235059D01*
X0066880Y0235592D02*
X0029600Y0235592D01*
X0029600Y0237190D02*
X0066880Y0237190D01*
X0067048Y0238789D02*
X0029600Y0238789D01*
X0029600Y0240387D02*
X0068646Y0240387D01*
X0073714Y0240387D02*
X0078646Y0240387D01*
X0077048Y0238789D02*
X0075312Y0238789D01*
X0075480Y0237190D02*
X0076880Y0237190D01*
X0076880Y0235592D02*
X0075480Y0235592D01*
X0074414Y0233993D02*
X0077946Y0233993D01*
X0079055Y0230796D02*
X0073305Y0230796D01*
X0072961Y0231140D02*
X0069399Y0231140D01*
X0066880Y0228621D01*
X0066880Y0225059D01*
X0069399Y0222540D01*
X0072961Y0222540D01*
X0075480Y0225059D01*
X0075480Y0228621D01*
X0072961Y0231140D01*
X0074904Y0229198D02*
X0077456Y0229198D01*
X0076880Y0227599D02*
X0075480Y0227599D01*
X0075480Y0226001D02*
X0076880Y0226001D01*
X0077537Y0224402D02*
X0074823Y0224402D01*
X0073225Y0222803D02*
X0079135Y0222803D01*
X0077865Y0219606D02*
X0074495Y0219606D01*
X0075480Y0218621D02*
X0072961Y0221140D01*
X0069399Y0221140D01*
X0066880Y0218621D01*
X0066880Y0215059D01*
X0069399Y0212540D01*
X0072961Y0212540D01*
X0075480Y0215059D01*
X0075480Y0218621D01*
X0075480Y0218008D02*
X0076880Y0218008D01*
X0076880Y0216409D02*
X0075480Y0216409D01*
X0075232Y0214811D02*
X0077128Y0214811D01*
X0078726Y0213212D02*
X0073634Y0213212D01*
X0074086Y0210015D02*
X0078274Y0210015D01*
X0076880Y0208417D02*
X0075480Y0208417D01*
X0075480Y0206818D02*
X0076880Y0206818D01*
X0076880Y0205220D02*
X0075480Y0205220D01*
X0074042Y0203621D02*
X0078318Y0203621D01*
X0081080Y0190833D02*
X0081280Y0190833D01*
X0081280Y0189235D02*
X0081080Y0189235D01*
X0081080Y0187636D02*
X0081280Y0187636D01*
X0081280Y0186038D02*
X0081080Y0186038D01*
X0081080Y0184439D02*
X0081280Y0184439D01*
X0081280Y0182841D02*
X0081080Y0182841D01*
X0085291Y0189235D02*
X0095369Y0189235D01*
X0094543Y0190833D02*
X0083692Y0190833D01*
X0085232Y0214811D02*
X0115211Y0214811D01*
X0116109Y0216409D02*
X0085480Y0216409D01*
X0085480Y0218008D02*
X0118119Y0218008D01*
X0118564Y0219606D02*
X0084495Y0219606D01*
X0083225Y0222803D02*
X0110290Y0222803D01*
X0109927Y0224402D02*
X0084823Y0224402D01*
X0085480Y0226001D02*
X0109927Y0226001D01*
X0116502Y0222803D02*
X0118519Y0222803D01*
X0119500Y0221205D02*
X0029600Y0221205D01*
X0029600Y0222803D02*
X0069135Y0222803D01*
X0067537Y0224402D02*
X0029600Y0224402D01*
X0029600Y0226001D02*
X0066880Y0226001D01*
X0066880Y0227599D02*
X0029600Y0227599D01*
X0029600Y0229198D02*
X0067456Y0229198D01*
X0069055Y0230796D02*
X0029600Y0230796D01*
X0029600Y0219606D02*
X0067865Y0219606D01*
X0066880Y0218008D02*
X0029600Y0218008D01*
X0029600Y0216409D02*
X0066880Y0216409D01*
X0067128Y0214811D02*
X0029600Y0214811D01*
X0029600Y0213212D02*
X0068726Y0213212D01*
X0085480Y0235592D02*
X0099020Y0235592D01*
X0096446Y0237190D02*
X0095236Y0237190D01*
X0095740Y0241986D02*
X0103618Y0241986D01*
X0105194Y0243584D02*
X0029600Y0243584D01*
X0029600Y0241986D02*
X0089620Y0241986D01*
X0088999Y0240387D02*
X0083714Y0240387D01*
X0085312Y0238789D02*
X0089131Y0238789D01*
X0090124Y0237190D02*
X0085480Y0237190D01*
X0091899Y0245040D02*
X0095461Y0245040D01*
X0097980Y0247559D01*
X0097980Y0251121D01*
X0095461Y0253640D01*
X0091899Y0253640D01*
X0089380Y0251121D01*
X0089380Y0247559D01*
X0091899Y0245040D01*
X0091756Y0245183D02*
X0029600Y0245183D01*
X0029600Y0246781D02*
X0090158Y0246781D01*
X0089380Y0248380D02*
X0029600Y0248380D01*
X0029600Y0249978D02*
X0089380Y0249978D01*
X0089836Y0251577D02*
X0029600Y0251577D01*
X0029600Y0253175D02*
X0091434Y0253175D01*
X0091775Y0254740D02*
X0089080Y0257435D01*
X0089080Y0259240D01*
X0093580Y0259240D01*
X0093780Y0259240D01*
X0093780Y0259440D01*
X0098280Y0259440D01*
X0098280Y0261245D01*
X0095585Y0263940D01*
X0093780Y0263940D01*
X0093780Y0259440D01*
X0093580Y0259440D01*
X0093580Y0263940D01*
X0091775Y0263940D01*
X0089080Y0261245D01*
X0089080Y0259440D01*
X0093580Y0259440D01*
X0093580Y0259240D01*
X0093580Y0254740D01*
X0091775Y0254740D01*
X0091741Y0254774D02*
X0029600Y0254774D01*
X0029600Y0256372D02*
X0090142Y0256372D01*
X0089080Y0257971D02*
X0029600Y0257971D01*
X0029600Y0259569D02*
X0089080Y0259569D01*
X0089080Y0261168D02*
X0029600Y0261168D01*
X0029600Y0262766D02*
X0090601Y0262766D01*
X0093580Y0262766D02*
X0093780Y0262766D01*
X0093780Y0261168D02*
X0093580Y0261168D01*
X0093580Y0259569D02*
X0093780Y0259569D01*
X0093780Y0259240D02*
X0098280Y0259240D01*
X0098280Y0257435D01*
X0095585Y0254740D01*
X0093780Y0254740D01*
X0093780Y0259240D01*
X0093780Y0257971D02*
X0093580Y0257971D01*
X0093580Y0256372D02*
X0093780Y0256372D01*
X0093780Y0254774D02*
X0093580Y0254774D01*
X0095619Y0254774D02*
X0217460Y0254774D01*
X0219361Y0254774D02*
X0219361Y0254774D01*
X0219361Y0253175D02*
X0219361Y0253175D01*
X0219361Y0251577D02*
X0219361Y0251577D01*
X0219361Y0249978D02*
X0219361Y0249978D01*
X0219361Y0248380D02*
X0219361Y0248380D01*
X0222987Y0248380D02*
X0234000Y0248380D01*
X0234000Y0249978D02*
X0230529Y0249978D01*
X0230323Y0249978D02*
X0229659Y0249978D01*
X0229453Y0249978D02*
X0223655Y0249978D01*
X0223673Y0251577D02*
X0226220Y0251577D01*
X0225171Y0253175D02*
X0223067Y0253175D01*
X0224796Y0254774D02*
X0221263Y0254774D01*
X0224924Y0256372D02*
X0166793Y0256372D01*
X0167980Y0257971D02*
X0225616Y0257971D01*
X0227230Y0259569D02*
X0167980Y0259569D01*
X0167933Y0261168D02*
X0234000Y0261168D01*
X0234000Y0262766D02*
X0166335Y0262766D01*
X0165926Y0253175D02*
X0215656Y0253175D01*
X0215050Y0251577D02*
X0167524Y0251577D01*
X0167980Y0249978D02*
X0215067Y0249978D01*
X0215736Y0248380D02*
X0167980Y0248380D01*
X0174055Y0230796D02*
X0129800Y0230796D01*
X0129800Y0229198D02*
X0172456Y0229198D01*
X0171880Y0227599D02*
X0129800Y0227599D01*
X0129800Y0226001D02*
X0155091Y0226001D01*
X0157805Y0226001D02*
X0158174Y0226001D01*
X0158174Y0224402D02*
X0157805Y0224402D01*
X0157805Y0222803D02*
X0158174Y0222803D01*
X0158174Y0221205D02*
X0157805Y0221205D01*
X0157805Y0219606D02*
X0158174Y0219606D01*
X0158136Y0217231D02*
X0160354Y0217231D01*
X0160811Y0217109D01*
X0161222Y0216872D01*
X0161557Y0216536D01*
X0161794Y0216126D01*
X0161917Y0215668D01*
X0161917Y0213647D01*
X0158136Y0213647D01*
X0158136Y0213278D01*
X0161917Y0213278D01*
X0161917Y0211257D01*
X0161794Y0210799D01*
X0161557Y0210389D01*
X0161222Y0210054D01*
X0160811Y0209817D01*
X0160354Y0209694D01*
X0158136Y0209694D01*
X0158136Y0213278D01*
X0157767Y0213278D01*
X0157767Y0209694D01*
X0155549Y0209694D01*
X0155091Y0209817D01*
X0154681Y0210054D01*
X0154393Y0210342D01*
X0154045Y0209994D01*
X0149201Y0209994D01*
X0149201Y0209968D01*
X0148641Y0208615D01*
X0147605Y0207579D01*
X0146252Y0207019D01*
X0144788Y0207019D01*
X0143435Y0207579D01*
X0142399Y0208615D01*
X0141839Y0209968D01*
X0141839Y0211432D01*
X0142399Y0212785D01*
X0143435Y0213821D01*
X0144788Y0214381D01*
X0146123Y0214381D01*
X0146585Y0214843D01*
X0147110Y0215421D01*
X0147165Y0215424D01*
X0147204Y0215463D01*
X0147593Y0215463D01*
X0147593Y0216052D01*
X0148472Y0216931D01*
X0154045Y0216931D01*
X0154393Y0216584D01*
X0154681Y0216872D01*
X0155091Y0217109D01*
X0155549Y0217231D01*
X0157767Y0217231D01*
X0157767Y0213647D01*
X0158136Y0213647D01*
X0158136Y0217231D01*
X0158136Y0216409D02*
X0157767Y0216409D01*
X0157767Y0214811D02*
X0158136Y0214811D01*
X0158136Y0213212D02*
X0157767Y0213212D01*
X0157767Y0211614D02*
X0158136Y0211614D01*
X0158136Y0210015D02*
X0157767Y0210015D01*
X0154747Y0210015D02*
X0154066Y0210015D01*
X0148443Y0208417D02*
X0171880Y0208417D01*
X0171880Y0206818D02*
X0134610Y0206818D01*
X0136209Y0205220D02*
X0171880Y0205220D01*
X0173274Y0210015D02*
X0161155Y0210015D01*
X0161917Y0211614D02*
X0234000Y0211614D01*
X0234000Y0213212D02*
X0188634Y0213212D01*
X0190232Y0214811D02*
X0234000Y0214811D01*
X0234000Y0216409D02*
X0190480Y0216409D01*
X0190480Y0218008D02*
X0234000Y0218008D01*
X0234000Y0219606D02*
X0189495Y0219606D01*
X0188225Y0222803D02*
X0226689Y0222803D01*
X0225395Y0224402D02*
X0189823Y0224402D01*
X0190480Y0226001D02*
X0224862Y0226001D01*
X0224853Y0227599D02*
X0221920Y0227599D01*
X0221654Y0227406D02*
X0222211Y0227811D01*
X0222698Y0228297D01*
X0223103Y0228855D01*
X0223416Y0229468D01*
X0223628Y0230123D01*
X0223736Y0230803D01*
X0223736Y0231147D01*
X0219362Y0231147D01*
X0219362Y0231148D01*
X0219361Y0231148D02*
X0219361Y0231148D01*
X0219361Y0231147D01*
X0219361Y0231147D01*
X0219361Y0226773D01*
X0219017Y0226773D01*
X0218337Y0226880D01*
X0217682Y0227093D01*
X0217069Y0227406D01*
X0216511Y0227811D01*
X0216024Y0228297D01*
X0215620Y0228855D01*
X0215307Y0229468D01*
X0215094Y0230123D01*
X0214987Y0230803D01*
X0214987Y0231147D01*
X0219361Y0231147D01*
X0219361Y0226773D01*
X0219706Y0226773D01*
X0220386Y0226880D01*
X0221041Y0227093D01*
X0221654Y0227406D01*
X0219361Y0227599D02*
X0219361Y0227599D01*
X0219361Y0229198D02*
X0219361Y0229198D01*
X0219361Y0230796D02*
X0219361Y0230796D01*
X0219362Y0231148D02*
X0223736Y0231148D01*
X0223736Y0231492D01*
X0223628Y0232172D01*
X0223416Y0232827D01*
X0223103Y0233440D01*
X0222698Y0233997D01*
X0222211Y0234484D01*
X0221654Y0234889D01*
X0221041Y0235202D01*
X0220386Y0235415D01*
X0219706Y0235522D01*
X0219361Y0235522D01*
X0219361Y0231148D01*
X0219361Y0232395D02*
X0219361Y0232395D01*
X0219361Y0233993D02*
X0219361Y0233993D01*
X0222702Y0233993D02*
X0234000Y0233993D01*
X0234000Y0232395D02*
X0223556Y0232395D01*
X0223735Y0230796D02*
X0226615Y0230796D01*
X0225368Y0229198D02*
X0223278Y0229198D01*
X0216803Y0227599D02*
X0190480Y0227599D01*
X0189904Y0229198D02*
X0215445Y0229198D01*
X0214988Y0230796D02*
X0188305Y0230796D01*
X0174135Y0222803D02*
X0161955Y0222803D01*
X0161955Y0221205D02*
X0234000Y0221205D01*
X0234000Y0222803D02*
X0233293Y0222803D01*
X0230323Y0222803D02*
X0229659Y0222803D01*
X0229659Y0224402D02*
X0230323Y0224402D01*
X0230323Y0226001D02*
X0229659Y0226001D01*
X0229659Y0227599D02*
X0230323Y0227599D01*
X0230323Y0229198D02*
X0229659Y0229198D01*
X0229659Y0230796D02*
X0230323Y0230796D01*
X0233367Y0230796D02*
X0234000Y0230796D01*
X0234000Y0210015D02*
X0189086Y0210015D01*
X0173726Y0213212D02*
X0161917Y0213212D01*
X0161917Y0214811D02*
X0172128Y0214811D01*
X0171880Y0216409D02*
X0161630Y0216409D01*
X0161771Y0219606D02*
X0172865Y0219606D01*
X0171880Y0218008D02*
X0145456Y0218008D01*
X0145859Y0219606D02*
X0147812Y0219606D01*
X0147950Y0216409D02*
X0144615Y0216409D01*
X0146553Y0214811D02*
X0138465Y0214811D01*
X0138465Y0216409D02*
X0138985Y0216409D01*
X0138144Y0218008D02*
X0137917Y0218008D01*
X0141800Y0218800D02*
X0145377Y0222377D01*
X0151297Y0222377D01*
X0144149Y0224402D02*
X0137800Y0224402D01*
X0140625Y0222803D02*
X0142551Y0222803D01*
X0142827Y0213212D02*
X0138465Y0213212D01*
X0138216Y0211614D02*
X0141914Y0211614D01*
X0141839Y0210015D02*
X0133190Y0210015D01*
X0133012Y0208417D02*
X0142597Y0208417D01*
X0142126Y0198826D02*
X0172085Y0198826D01*
X0172537Y0224402D02*
X0161955Y0224402D01*
X0160888Y0226001D02*
X0171880Y0226001D01*
X0131800Y0224402D02*
X0129800Y0224402D01*
X0129800Y0222803D02*
X0131135Y0222803D01*
X0131135Y0221205D02*
X0129800Y0221205D01*
X0129800Y0219606D02*
X0131135Y0219606D01*
X0131683Y0218008D02*
X0129800Y0218008D01*
X0129800Y0216409D02*
X0131135Y0216409D01*
X0131135Y0214811D02*
X0129800Y0214811D01*
X0125800Y0214811D02*
X0124017Y0214811D01*
X0125208Y0216409D02*
X0125800Y0216409D01*
X0125800Y0218008D02*
X0125481Y0218008D01*
X0125800Y0219606D02*
X0125036Y0219606D01*
X0125800Y0221205D02*
X0124100Y0221205D01*
X0125072Y0222803D02*
X0125800Y0222803D01*
X0125800Y0224402D02*
X0125264Y0224402D01*
X0125264Y0226001D02*
X0125800Y0226001D01*
X0125800Y0227599D02*
X0125264Y0227599D01*
X0125198Y0229198D02*
X0125800Y0229198D01*
X0125800Y0230796D02*
X0125564Y0230796D01*
X0125800Y0232395D02*
X0121980Y0232395D01*
X0121612Y0232395D02*
X0117164Y0232395D01*
X0118027Y0232659D02*
X0121612Y0232659D01*
X0121612Y0236440D01*
X0119590Y0236440D01*
X0119133Y0236318D01*
X0118722Y0236081D01*
X0118387Y0235746D01*
X0118150Y0235335D01*
X0118027Y0234877D01*
X0118027Y0232659D01*
X0118027Y0233993D02*
X0117164Y0233993D01*
X0116992Y0235592D02*
X0118298Y0235592D01*
X0121612Y0235592D02*
X0121980Y0235592D01*
X0121980Y0233993D02*
X0121612Y0233993D01*
X0118027Y0230796D02*
X0117164Y0230796D01*
X0116627Y0229198D02*
X0118394Y0229198D01*
X0121796Y0225782D02*
X0121800Y0220778D01*
X0121800Y0217800D01*
X0122748Y0213212D02*
X0125800Y0213212D01*
X0127158Y0211614D02*
X0122748Y0211614D01*
X0122676Y0210015D02*
X0128756Y0210015D01*
X0128800Y0208417D02*
X0122448Y0208417D01*
X0122448Y0206818D02*
X0128953Y0206818D01*
X0130552Y0205220D02*
X0122448Y0205220D01*
X0122448Y0203621D02*
X0132150Y0203621D01*
X0129174Y0200424D02*
X0128806Y0200424D01*
X0128806Y0198826D02*
X0129174Y0198826D01*
X0125222Y0198826D02*
X0123819Y0198826D01*
X0123706Y0200424D02*
X0125511Y0200424D01*
X0120235Y0200424D02*
X0119867Y0200424D01*
X0119867Y0198826D02*
X0120235Y0198826D01*
X0102864Y0229198D02*
X0102496Y0229198D01*
X0102496Y0230796D02*
X0102864Y0230796D01*
X0113212Y0233993D02*
X0113580Y0233993D01*
X0113580Y0235592D02*
X0113212Y0235592D01*
X0115604Y0245183D02*
X0121756Y0245183D01*
X0120158Y0246781D02*
X0117202Y0246781D01*
X0117980Y0248380D02*
X0119380Y0248380D01*
X0119380Y0249978D02*
X0117980Y0249978D01*
X0117524Y0251577D02*
X0119836Y0251577D01*
X0121434Y0253175D02*
X0115926Y0253175D01*
X0115461Y0255040D02*
X0117980Y0257559D01*
X0117980Y0261121D01*
X0115461Y0263640D01*
X0111899Y0263640D01*
X0109380Y0261121D01*
X0109380Y0257559D01*
X0111899Y0255040D01*
X0115461Y0255040D01*
X0116793Y0256372D02*
X0120567Y0256372D01*
X0119380Y0257971D02*
X0117980Y0257971D01*
X0117980Y0259569D02*
X0119380Y0259569D01*
X0119427Y0261168D02*
X0117933Y0261168D01*
X0116335Y0262766D02*
X0121025Y0262766D01*
X0111025Y0262766D02*
X0106335Y0262766D01*
X0105461Y0263640D02*
X0101899Y0263640D01*
X0099380Y0261121D01*
X0099380Y0257559D01*
X0101899Y0255040D01*
X0105461Y0255040D01*
X0107980Y0257559D01*
X0107980Y0261121D01*
X0105461Y0263640D01*
X0107933Y0261168D02*
X0109427Y0261168D01*
X0109380Y0259569D02*
X0107980Y0259569D01*
X0107980Y0257971D02*
X0109380Y0257971D01*
X0110567Y0256372D02*
X0106793Y0256372D01*
X0105461Y0253640D02*
X0101899Y0253640D01*
X0099380Y0251121D01*
X0099380Y0247559D01*
X0101899Y0245040D01*
X0105461Y0245040D01*
X0107980Y0247559D01*
X0107980Y0251121D01*
X0105461Y0253640D01*
X0105926Y0253175D02*
X0111434Y0253175D01*
X0109836Y0251577D02*
X0107524Y0251577D01*
X0107980Y0249978D02*
X0109380Y0249978D01*
X0109380Y0248380D02*
X0107980Y0248380D01*
X0108347Y0246781D02*
X0107202Y0246781D01*
X0106771Y0245183D02*
X0105604Y0245183D01*
X0101756Y0245183D02*
X0095604Y0245183D01*
X0097202Y0246781D02*
X0100158Y0246781D01*
X0099380Y0248380D02*
X0097980Y0248380D01*
X0097980Y0249978D02*
X0099380Y0249978D01*
X0099836Y0251577D02*
X0097524Y0251577D01*
X0095926Y0253175D02*
X0101434Y0253175D01*
X0100567Y0256372D02*
X0097218Y0256372D01*
X0098280Y0257971D02*
X0099380Y0257971D01*
X0099380Y0259569D02*
X0098280Y0259569D01*
X0098280Y0261168D02*
X0099427Y0261168D01*
X0101025Y0262766D02*
X0096759Y0262766D01*
X0125294Y0235592D02*
X0125800Y0235592D01*
X0125800Y0233993D02*
X0125564Y0233993D01*
X0111622Y0158863D02*
X0105738Y0158863D01*
X0107337Y0157265D02*
X0110023Y0157265D01*
X0109380Y0155666D02*
X0107980Y0155666D01*
X0107980Y0154068D02*
X0109380Y0154068D01*
X0109970Y0152469D02*
X0107390Y0152469D01*
X0090008Y0147673D02*
X0085098Y0147673D01*
X0085145Y0146075D02*
X0089080Y0146075D01*
X0089080Y0144476D02*
X0085192Y0144476D01*
X0085239Y0142878D02*
X0089137Y0142878D01*
X0090735Y0141279D02*
X0085286Y0141279D01*
X0167767Y0078937D02*
X0173215Y0078937D01*
X0173215Y0077339D02*
X0167767Y0077339D01*
X0167767Y0075740D02*
X0173215Y0075740D01*
X0173215Y0074142D02*
X0167767Y0074142D01*
X0167767Y0072543D02*
X0173215Y0072543D01*
X0173215Y0070945D02*
X0167767Y0070945D01*
X0167767Y0069346D02*
X0173215Y0069346D01*
X0173215Y0067748D02*
X0167767Y0067748D01*
X0167767Y0066149D02*
X0173215Y0066149D01*
X0173215Y0064551D02*
X0167767Y0064551D01*
X0167767Y0062952D02*
X0173215Y0062952D01*
X0173215Y0061354D02*
X0167767Y0061354D01*
X0167767Y0059755D02*
X0173215Y0059755D01*
X0173215Y0058157D02*
X0167767Y0058157D01*
X0167767Y0056558D02*
X0173215Y0056558D01*
X0173215Y0054960D02*
X0167767Y0054960D01*
X0167767Y0053361D02*
X0173215Y0053361D01*
X0173215Y0051763D02*
X0167767Y0051763D01*
X0167767Y0050164D02*
X0173215Y0050164D01*
X0173215Y0048566D02*
X0167767Y0048566D01*
X0167767Y0046967D02*
X0173215Y0046967D01*
X0173215Y0045369D02*
X0167767Y0045369D01*
X0167767Y0043770D02*
X0173215Y0043770D01*
X0173215Y0042172D02*
X0167767Y0042172D01*
X0167767Y0040573D02*
X0173215Y0040573D01*
X0173215Y0038975D02*
X0167767Y0038975D01*
X0167767Y0037376D02*
X0173215Y0037376D01*
X0173215Y0035778D02*
X0167767Y0035778D01*
X0167767Y0034179D02*
X0173215Y0034179D01*
X0173215Y0032581D02*
X0167767Y0032581D01*
X0183515Y0032581D02*
X0199347Y0032581D01*
X0199347Y0034179D02*
X0183515Y0034179D01*
X0183515Y0035778D02*
X0217063Y0035778D01*
X0217063Y0037376D02*
X0183515Y0037376D01*
X0183515Y0038975D02*
X0209118Y0038975D01*
X0208205Y0040573D02*
X0183515Y0040573D01*
X0183515Y0042172D02*
X0208205Y0042172D01*
X0208205Y0043770D02*
X0183515Y0043770D01*
X0183515Y0045369D02*
X0208205Y0045369D01*
X0208205Y0046967D02*
X0183515Y0046967D01*
X0183515Y0048566D02*
X0208205Y0048566D01*
X0208205Y0050164D02*
X0183515Y0050164D01*
X0183515Y0051763D02*
X0208205Y0051763D01*
X0208205Y0053361D02*
X0183515Y0053361D01*
X0183515Y0054960D02*
X0208205Y0054960D01*
X0208205Y0056558D02*
X0183515Y0056558D01*
X0183515Y0058157D02*
X0208205Y0058157D01*
X0208205Y0059755D02*
X0183515Y0059755D01*
X0183515Y0061354D02*
X0208205Y0061354D01*
X0208205Y0062952D02*
X0183515Y0062952D01*
X0183515Y0064551D02*
X0208205Y0064551D01*
X0208205Y0066149D02*
X0183515Y0066149D01*
X0183515Y0067748D02*
X0208205Y0067748D01*
X0208287Y0069346D02*
X0183515Y0069346D01*
X0183515Y0070945D02*
X0234000Y0070945D01*
X0234000Y0072543D02*
X0183515Y0072543D01*
X0183515Y0074142D02*
X0234000Y0074142D01*
X0234000Y0075740D02*
X0183515Y0075740D01*
X0183515Y0077339D02*
X0234000Y0077339D01*
X0234000Y0078937D02*
X0183515Y0078937D01*
X0183515Y0080536D02*
X0234000Y0080536D01*
X0234000Y0082134D02*
X0183515Y0082134D01*
X0183515Y0083733D02*
X0234000Y0083733D01*
X0234000Y0085332D02*
X0183515Y0085332D01*
X0183515Y0086930D02*
X0234000Y0086930D01*
X0234000Y0088529D02*
X0183515Y0088529D01*
X0183515Y0090127D02*
X0234000Y0090127D01*
X0234000Y0091726D02*
X0183515Y0091726D01*
X0183515Y0093324D02*
X0234000Y0093324D01*
X0233762Y0251577D02*
X0234000Y0251577D01*
X0230323Y0251577D02*
X0229659Y0251577D01*
X0229659Y0253175D02*
X0230323Y0253175D01*
X0230323Y0254774D02*
X0229659Y0254774D01*
X0229659Y0256372D02*
X0230323Y0256372D01*
X0230323Y0257971D02*
X0229659Y0257971D01*
X0229659Y0259569D02*
X0230323Y0259569D01*
X0232753Y0259569D02*
X0234000Y0259569D01*
X0234000Y0264365D02*
X0029600Y0264365D01*
X0029600Y0265963D02*
X0234000Y0265963D01*
X0234000Y0267562D02*
X0029600Y0267562D01*
X0029600Y0269160D02*
X0234000Y0269160D01*
X0234000Y0270759D02*
X0029600Y0270759D01*
X0029600Y0272357D02*
X0234000Y0272357D01*
X0234000Y0273956D02*
X0029600Y0273956D01*
X0029600Y0275554D02*
X0234000Y0275554D01*
X0234000Y0277153D02*
X0029600Y0277153D01*
X0029600Y0278751D02*
X0234000Y0278751D01*
D18*
X0190680Y0201840D02*
X0136760Y0201840D01*
X0130800Y0207800D01*
X0130800Y0210800D01*
X0131146Y0210800D01*
X0134800Y0214454D01*
X0130800Y0210800D02*
X0127800Y0213800D01*
X0127800Y0245220D01*
X0123680Y0249340D01*
X0124680Y0248340D01*
X0113680Y0249340D02*
X0102680Y0238186D01*
X0092680Y0239840D01*
X0113396Y0225953D02*
X0121796Y0225782D01*
X0134800Y0221146D02*
X0139454Y0221146D01*
X0141800Y0218800D01*
X0141146Y0219454D01*
X0148033Y0213463D02*
X0145520Y0210700D01*
X0148033Y0213463D02*
X0151258Y0213463D01*
X0149869Y0187334D02*
X0145634Y0187334D01*
X0143460Y0185160D01*
X0128990Y0190583D02*
X0120051Y0190906D01*
X0118980Y0205994D02*
X0112680Y0204840D01*
X0163680Y0154840D02*
X0164840Y0154840D01*
X0168800Y0158800D01*
X0180480Y0158800D01*
X0181400Y0158790D01*
X0193680Y0160840D02*
X0193680Y0198840D01*
X0190680Y0201840D01*
X0193680Y0160840D02*
X0165767Y0132927D01*
X0165767Y0021289D01*
X0162617Y0021289D02*
X0162617Y0077903D01*
X0158680Y0081840D01*
X0158680Y0148533D01*
X0164334Y0154186D01*
X0163680Y0154840D01*
X0179360Y0130610D02*
X0175215Y0125565D01*
X0175215Y0021289D01*
X0181515Y0021289D02*
X0181515Y0125675D01*
X0185580Y0130690D01*
X0090680Y0041840D02*
X0090680Y0018840D01*
X0073680Y0018840D01*
X0073680Y0041840D01*
X0090680Y0041840D01*
X0090680Y0041755D02*
X0073680Y0041755D01*
X0073680Y0040757D02*
X0090680Y0040757D01*
X0090680Y0039758D02*
X0073680Y0039758D01*
X0073680Y0038760D02*
X0090680Y0038760D01*
X0090680Y0037761D02*
X0073680Y0037761D01*
X0073680Y0036763D02*
X0090680Y0036763D01*
X0090680Y0035764D02*
X0073680Y0035764D01*
X0073680Y0034766D02*
X0090680Y0034766D01*
X0090680Y0033767D02*
X0073680Y0033767D01*
X0073680Y0032769D02*
X0090680Y0032769D01*
X0090680Y0031770D02*
X0073680Y0031770D01*
X0073680Y0030772D02*
X0090680Y0030772D01*
X0090680Y0029773D02*
X0073680Y0029773D01*
X0073680Y0028775D02*
X0090680Y0028775D01*
X0090680Y0027776D02*
X0073680Y0027776D01*
X0073680Y0026778D02*
X0090680Y0026778D01*
X0090680Y0025779D02*
X0073680Y0025779D01*
X0073680Y0024781D02*
X0090680Y0024781D01*
X0090680Y0023782D02*
X0073680Y0023782D01*
X0073680Y0022784D02*
X0090680Y0022784D01*
X0090680Y0021785D02*
X0073680Y0021785D01*
X0074428Y0021289D02*
X0077578Y0021289D01*
X0080727Y0021289D01*
X0083877Y0021289D01*
X0087026Y0021289D01*
X0090176Y0021289D01*
X0090680Y0020787D02*
X0073680Y0020787D01*
X0073680Y0019788D02*
X0090680Y0019788D01*
X0080727Y0021289D02*
X0080680Y0021336D01*
X0080680Y0030840D01*
X0081680Y0031840D01*
X0081680Y0037840D01*
D19*
X0073194Y0056020D03*
X0104194Y0059020D03*
X0122194Y0039020D03*
X0150194Y0052020D03*
X0170194Y0052020D03*
X0192194Y0045020D03*
X0219194Y0074020D03*
X0186194Y0105020D03*
X0170194Y0097020D03*
X0162194Y0095020D03*
X0172194Y0131020D03*
X0171194Y0149020D03*
X0192194Y0150020D03*
X0191194Y0130020D03*
X0223194Y0144020D03*
X0196194Y0213020D03*
X0209194Y0216020D03*
X0216194Y0226020D03*
X0208194Y0250020D03*
X0220194Y0261020D03*
X0225194Y0273020D03*
X0187194Y0263020D03*
X0188194Y0247020D03*
X0158804Y0232300D03*
X0122490Y0242829D03*
X0068880Y0268067D03*
X0038194Y0273020D03*
X0035194Y0232020D03*
X0038194Y0181020D03*
X0089194Y0126020D03*
X0095194Y0095020D03*
X0040194Y0084020D03*
X0099194Y0174020D03*
X0158554Y0173462D03*
D20*
X0199680Y0204840D03*
X0189680Y0099840D03*
X0126680Y0071840D03*
D21*
X0099680Y0071840D01*
X0081680Y0053840D01*
X0081680Y0037840D01*
X0189680Y0099840D02*
X0199680Y0109840D01*
X0199680Y0204840D01*
M02*
