G75*
%MOIN*%
%OFA0B0*%
%FSLAX25Y25*%
%IPPOS*%
%LPD*%
%AMOC8*
5,1,8,0,0,1.08239X$1,22.5*
%
%ADD10R,0.04737X0.05131*%
%ADD11R,0.05131X0.04737*%
%ADD12OC8,0.06400*%
%ADD13C,0.05950*%
%ADD14C,0.07591*%
%ADD15R,0.03162X0.18517*%
D10*
X0120051Y0190906D03*
X0120051Y0197599D03*
X0118980Y0205994D03*
X0118980Y0212686D03*
X0121796Y0225782D03*
X0121796Y0232475D03*
X0113396Y0232646D03*
X0113396Y0225953D03*
X0128990Y0197275D03*
X0128990Y0190583D03*
X0138358Y0190614D03*
X0138358Y0197307D03*
D11*
X0149869Y0187334D03*
X0156562Y0187334D03*
X0157951Y0213463D03*
X0151258Y0213463D03*
X0151297Y0222377D03*
X0157990Y0222377D03*
X0134800Y0221146D03*
X0134800Y0214454D03*
X0105201Y0192720D03*
X0098508Y0192720D03*
X0102680Y0231494D03*
X0102680Y0238186D03*
D12*
X0103680Y0249340D03*
X0103680Y0259340D03*
X0093680Y0259340D03*
X0093680Y0249340D03*
X0081180Y0236840D03*
X0081180Y0226840D03*
X0081180Y0216840D03*
X0081180Y0206840D03*
X0081180Y0196840D03*
X0081180Y0186840D03*
X0081180Y0176840D03*
X0081180Y0166840D03*
X0071180Y0166840D03*
X0071180Y0176840D03*
X0071180Y0186840D03*
X0071180Y0196840D03*
X0071180Y0206840D03*
X0071180Y0216840D03*
X0071180Y0226840D03*
X0071180Y0236840D03*
X0113680Y0249340D03*
X0113680Y0259340D03*
X0123680Y0259340D03*
X0123680Y0249340D03*
X0133680Y0249340D03*
X0133680Y0259340D03*
X0143680Y0259340D03*
X0143680Y0249340D03*
X0153680Y0249340D03*
X0153680Y0259340D03*
X0163680Y0259340D03*
X0163680Y0249340D03*
X0176180Y0236840D03*
X0176180Y0226840D03*
X0176180Y0216840D03*
X0176180Y0206840D03*
X0176180Y0196840D03*
X0176180Y0186840D03*
X0176180Y0176840D03*
X0176180Y0166840D03*
X0186180Y0166840D03*
X0186180Y0176840D03*
X0186180Y0186840D03*
X0186180Y0196840D03*
X0186180Y0206840D03*
X0186180Y0216840D03*
X0186180Y0226840D03*
X0186180Y0236840D03*
X0163680Y0154840D03*
X0163680Y0144840D03*
X0153680Y0144840D03*
X0153680Y0154840D03*
X0143680Y0154840D03*
X0143680Y0144840D03*
X0133680Y0144840D03*
X0133680Y0154840D03*
X0123680Y0154840D03*
X0123680Y0144840D03*
X0113680Y0144840D03*
X0113680Y0154840D03*
X0103680Y0154840D03*
X0103680Y0144840D03*
X0093680Y0144840D03*
X0093680Y0154840D03*
D13*
X0219361Y0231147D03*
X0219361Y0250833D03*
D14*
X0229991Y0255153D03*
X0229991Y0226827D03*
D15*
X0061830Y0021289D03*
X0064979Y0021289D03*
X0068129Y0021289D03*
X0071278Y0021289D03*
X0074428Y0021289D03*
X0077578Y0021289D03*
X0080727Y0021289D03*
X0083877Y0021289D03*
X0087026Y0021289D03*
X0090176Y0021289D03*
X0093326Y0021289D03*
X0096475Y0021289D03*
X0099625Y0021289D03*
X0102774Y0021289D03*
X0105924Y0021289D03*
X0109074Y0021289D03*
X0112223Y0021289D03*
X0115373Y0021289D03*
X0118523Y0021289D03*
X0121672Y0021289D03*
X0124822Y0021289D03*
X0127971Y0021289D03*
X0143719Y0021289D03*
X0146869Y0021289D03*
X0150019Y0021289D03*
X0153168Y0021289D03*
X0156318Y0021289D03*
X0159467Y0021289D03*
X0162617Y0021289D03*
X0165767Y0021289D03*
X0168916Y0021289D03*
X0172066Y0021289D03*
X0175215Y0021289D03*
X0178365Y0021289D03*
X0181515Y0021289D03*
X0184664Y0021289D03*
X0187814Y0021289D03*
X0190963Y0021289D03*
X0194113Y0021289D03*
X0197263Y0021289D03*
M02*
