G75*
%MOIN*%
%OFA0B0*%
%FSLAX25Y25*%
%IPPOS*%
%LPD*%
%AMOC8*
5,1,8,0,0,1.08239X$1,22.5*
%
%ADD10R,0.04331X0.03937*%
%ADD11R,0.07087X0.09449*%
%ADD12R,0.05906X0.06299*%
%ADD13R,0.03937X0.04331*%
%ADD14R,0.02756X0.01772*%
%ADD15OC8,0.05600*%
%ADD16R,0.03100X0.03500*%
%ADD17R,0.01181X0.04724*%
%ADD18R,0.04724X0.01181*%
%ADD19R,0.07087X0.12598*%
%ADD20R,0.12598X0.07087*%
%ADD21R,0.06102X0.05906*%
%ADD22R,0.05315X0.01575*%
%ADD23C,0.05150*%
%ADD24C,0.06791*%
%ADD25C,0.01181*%
%ADD26R,0.01772X0.03937*%
%ADD27R,0.06299X0.04724*%
%ADD28R,0.06299X0.12992*%
%ADD29R,0.06000X0.06600*%
%ADD30R,0.32283X0.10236*%
%ADD31R,0.03150X0.03937*%
%ADD32R,0.04000X0.01200*%
%ADD33R,0.06800X0.07500*%
%ADD34R,0.02362X0.17717*%
%ADD35C,0.01000*%
%ADD36C,0.04362*%
%ADD37C,0.01600*%
%ADD38C,0.04000*%
%ADD39C,0.01200*%
%ADD40C,0.05000*%
%ADD41C,0.04000*%
%ADD42C,0.02400*%
%ADD43C,0.05000*%
%ADD44C,0.02500*%
%ADD45C,0.03200*%
D10*
X0048971Y0217517D03*
X0055664Y0217517D03*
X0193680Y0142186D03*
X0193680Y0135494D03*
X0216334Y0216840D03*
X0223026Y0216840D03*
X0214026Y0258840D03*
X0207334Y0258840D03*
D11*
X0209708Y0204840D03*
X0225652Y0204840D03*
D12*
X0058208Y0226919D03*
X0049152Y0226919D03*
X0049152Y0236761D03*
X0058208Y0236761D03*
D13*
X0056026Y0208840D03*
X0049334Y0208840D03*
X0096334Y0131840D03*
X0103026Y0131840D03*
X0110834Y0131840D03*
X0117526Y0131840D03*
X0124834Y0132340D03*
X0131526Y0132340D03*
X0131526Y0124340D03*
X0124834Y0124340D03*
X0114680Y0117686D03*
X0114680Y0110994D03*
X0139680Y0124994D03*
X0139680Y0131686D03*
X0148180Y0131686D03*
X0148180Y0124994D03*
X0160180Y0124286D03*
X0160180Y0117594D03*
X0179334Y0136840D03*
X0186026Y0136840D03*
X0207334Y0167840D03*
X0214026Y0167840D03*
X0214026Y0176840D03*
X0207334Y0176840D03*
X0207334Y0185840D03*
X0214026Y0185840D03*
X0214026Y0194840D03*
X0207334Y0194840D03*
D14*
X0208731Y0238139D03*
X0208731Y0241289D03*
X0202629Y0241289D03*
X0202629Y0238139D03*
D15*
X0186180Y0236840D03*
X0186180Y0226840D03*
X0186180Y0216840D03*
X0186180Y0206840D03*
X0186180Y0196840D03*
X0186180Y0186840D03*
X0186180Y0176840D03*
X0186180Y0166840D03*
X0176180Y0166840D03*
X0176180Y0176840D03*
X0176180Y0186840D03*
X0176180Y0196840D03*
X0176180Y0206840D03*
X0176180Y0216840D03*
X0176180Y0226840D03*
X0176180Y0236840D03*
X0163680Y0249340D03*
X0163680Y0259340D03*
X0153680Y0259340D03*
X0153680Y0249340D03*
X0143680Y0249340D03*
X0143680Y0259340D03*
X0133680Y0259340D03*
X0133680Y0249340D03*
X0123680Y0249340D03*
X0123680Y0259340D03*
X0113680Y0259340D03*
X0113680Y0249340D03*
X0103680Y0249340D03*
X0103680Y0259340D03*
X0093680Y0259340D03*
X0093680Y0249340D03*
X0081180Y0236840D03*
X0081180Y0226840D03*
X0081180Y0216840D03*
X0081180Y0206840D03*
X0081180Y0196840D03*
X0081180Y0186840D03*
X0081180Y0176840D03*
X0081180Y0166840D03*
X0071180Y0166840D03*
X0071180Y0176840D03*
X0071180Y0186840D03*
X0071180Y0196840D03*
X0071180Y0206840D03*
X0071180Y0216840D03*
X0071180Y0226840D03*
X0071180Y0236840D03*
X0093680Y0154840D03*
X0093680Y0144840D03*
X0103680Y0144840D03*
X0103680Y0154840D03*
X0113680Y0154840D03*
X0113680Y0144840D03*
X0123680Y0144840D03*
X0123680Y0154840D03*
X0133680Y0154840D03*
X0133680Y0144840D03*
X0143680Y0144840D03*
X0143680Y0154840D03*
X0153680Y0154840D03*
X0153680Y0144840D03*
X0163680Y0144840D03*
X0163680Y0154840D03*
D16*
X0198580Y0223040D03*
X0206180Y0223040D03*
X0202380Y0231040D03*
D17*
X0143444Y0224478D03*
X0141475Y0224478D03*
X0139507Y0224478D03*
X0137538Y0224478D03*
X0135570Y0224478D03*
X0133601Y0224478D03*
X0131633Y0224478D03*
X0129664Y0224478D03*
X0127696Y0224478D03*
X0125727Y0224478D03*
X0123759Y0224478D03*
X0121790Y0224478D03*
X0119822Y0224478D03*
X0117853Y0224478D03*
X0115885Y0224478D03*
X0113916Y0224478D03*
X0113916Y0179202D03*
X0115885Y0179202D03*
X0117853Y0179202D03*
X0119822Y0179202D03*
X0121790Y0179202D03*
X0123759Y0179202D03*
X0125727Y0179202D03*
X0127696Y0179202D03*
X0129664Y0179202D03*
X0131633Y0179202D03*
X0133601Y0179202D03*
X0135570Y0179202D03*
X0137538Y0179202D03*
X0139507Y0179202D03*
X0141475Y0179202D03*
X0143444Y0179202D03*
D18*
X0151318Y0187076D03*
X0151318Y0189045D03*
X0151318Y0191013D03*
X0151318Y0192982D03*
X0151318Y0194950D03*
X0151318Y0196919D03*
X0151318Y0198887D03*
X0151318Y0200856D03*
X0151318Y0202824D03*
X0151318Y0204793D03*
X0151318Y0206761D03*
X0151318Y0208730D03*
X0151318Y0210698D03*
X0151318Y0212667D03*
X0151318Y0214635D03*
X0151318Y0216604D03*
X0106042Y0216604D03*
X0106042Y0214635D03*
X0106042Y0212667D03*
X0106042Y0210698D03*
X0106042Y0208730D03*
X0106042Y0206761D03*
X0106042Y0204793D03*
X0106042Y0202824D03*
X0106042Y0200856D03*
X0106042Y0198887D03*
X0106042Y0196919D03*
X0106042Y0194950D03*
X0106042Y0192982D03*
X0106042Y0191013D03*
X0106042Y0189045D03*
X0106042Y0187076D03*
D19*
X0080704Y0254840D03*
X0058656Y0254840D03*
X0177656Y0114340D03*
X0199704Y0114340D03*
D20*
X0054680Y0175816D03*
X0054680Y0197864D03*
D21*
X0229991Y0237053D03*
X0229991Y0244927D03*
D22*
X0219361Y0246108D03*
X0219361Y0243549D03*
X0219361Y0240990D03*
X0219361Y0238431D03*
X0219361Y0235872D03*
D23*
X0219361Y0231147D03*
X0219361Y0250833D03*
D24*
X0229991Y0255153D03*
X0229991Y0226827D03*
D25*
X0224755Y0196218D02*
X0224755Y0193462D01*
X0224755Y0196218D02*
X0227511Y0196218D01*
X0227511Y0193462D01*
X0224755Y0193462D01*
X0224755Y0194642D02*
X0227511Y0194642D01*
X0227511Y0195822D02*
X0224755Y0195822D01*
X0217849Y0196218D02*
X0217849Y0193462D01*
X0217849Y0196218D02*
X0220605Y0196218D01*
X0220605Y0193462D01*
X0217849Y0193462D01*
X0217849Y0194642D02*
X0220605Y0194642D01*
X0220605Y0195822D02*
X0217849Y0195822D01*
X0217849Y0187218D02*
X0217849Y0184462D01*
X0217849Y0187218D02*
X0220605Y0187218D01*
X0220605Y0184462D01*
X0217849Y0184462D01*
X0217849Y0185642D02*
X0220605Y0185642D01*
X0220605Y0186822D02*
X0217849Y0186822D01*
X0224755Y0187218D02*
X0224755Y0184462D01*
X0224755Y0187218D02*
X0227511Y0187218D01*
X0227511Y0184462D01*
X0224755Y0184462D01*
X0224755Y0185642D02*
X0227511Y0185642D01*
X0227511Y0186822D02*
X0224755Y0186822D01*
X0224755Y0178218D02*
X0224755Y0175462D01*
X0224755Y0178218D02*
X0227511Y0178218D01*
X0227511Y0175462D01*
X0224755Y0175462D01*
X0224755Y0176642D02*
X0227511Y0176642D01*
X0227511Y0177822D02*
X0224755Y0177822D01*
X0217849Y0178218D02*
X0217849Y0175462D01*
X0217849Y0178218D02*
X0220605Y0178218D01*
X0220605Y0175462D01*
X0217849Y0175462D01*
X0217849Y0176642D02*
X0220605Y0176642D01*
X0220605Y0177822D02*
X0217849Y0177822D01*
X0217849Y0169218D02*
X0217849Y0166462D01*
X0217849Y0169218D02*
X0220605Y0169218D01*
X0220605Y0166462D01*
X0217849Y0166462D01*
X0217849Y0167642D02*
X0220605Y0167642D01*
X0220605Y0168822D02*
X0217849Y0168822D01*
X0224755Y0169218D02*
X0224755Y0166462D01*
X0224755Y0169218D02*
X0227511Y0169218D01*
X0227511Y0166462D01*
X0224755Y0166462D01*
X0224755Y0167642D02*
X0227511Y0167642D01*
X0227511Y0168822D02*
X0224755Y0168822D01*
D26*
X0186519Y0153663D03*
X0183960Y0153663D03*
X0181400Y0153663D03*
X0178841Y0153663D03*
X0178841Y0144017D03*
X0181400Y0144017D03*
X0183960Y0144017D03*
X0186519Y0144017D03*
D27*
X0199278Y0247785D03*
X0199278Y0256840D03*
X0199278Y0265895D03*
D28*
X0174082Y0256840D03*
D29*
X0072080Y0113340D03*
X0057280Y0113340D03*
D30*
X0068180Y0129816D03*
X0068180Y0151864D03*
D31*
X0087640Y0117964D03*
X0095120Y0117964D03*
X0091380Y0108516D03*
D32*
X0132230Y0109900D03*
X0132230Y0111870D03*
X0132230Y0113840D03*
X0132230Y0115810D03*
X0132230Y0117780D03*
X0151130Y0117780D03*
X0151130Y0115810D03*
X0151130Y0113840D03*
X0151130Y0111870D03*
X0151130Y0109900D03*
D33*
X0141680Y0113840D03*
D34*
X0143719Y0021289D03*
X0146869Y0021289D03*
X0150019Y0021289D03*
X0153168Y0021289D03*
X0156318Y0021289D03*
X0159467Y0021289D03*
X0162617Y0021289D03*
X0165767Y0021289D03*
X0168916Y0021289D03*
X0172066Y0021289D03*
X0175215Y0021289D03*
X0178365Y0021289D03*
X0181515Y0021289D03*
X0184664Y0021289D03*
X0187814Y0021289D03*
X0190963Y0021289D03*
X0194113Y0021289D03*
X0197263Y0021289D03*
X0127971Y0021289D03*
X0124822Y0021289D03*
X0121672Y0021289D03*
X0118523Y0021289D03*
X0115373Y0021289D03*
X0112223Y0021289D03*
X0109074Y0021289D03*
X0105924Y0021289D03*
X0102774Y0021289D03*
X0099625Y0021289D03*
X0096475Y0021289D03*
X0093326Y0021289D03*
X0090176Y0021289D03*
X0087026Y0021289D03*
X0083877Y0021289D03*
X0080727Y0021289D03*
X0077578Y0021289D03*
X0074428Y0021289D03*
X0071278Y0021289D03*
X0068129Y0021289D03*
X0064979Y0021289D03*
X0061830Y0021289D03*
D35*
X0064979Y0021289D01*
X0064979Y0034800D01*
X0064979Y0035551D01*
X0064589Y0035941D01*
X0064850Y0042370D01*
X0060680Y0041840D02*
X0072110Y0042010D01*
X0071680Y0018840D01*
X0060680Y0018840D01*
X0060680Y0041840D01*
X0060680Y0041755D02*
X0072105Y0041755D01*
X0072087Y0040757D02*
X0060680Y0040757D01*
X0060680Y0039758D02*
X0072068Y0039758D01*
X0072050Y0038760D02*
X0060680Y0038760D01*
X0060680Y0037761D02*
X0072031Y0037761D01*
X0072013Y0036763D02*
X0060680Y0036763D01*
X0060680Y0035764D02*
X0071994Y0035764D01*
X0071976Y0034766D02*
X0060680Y0034766D01*
X0060680Y0033767D02*
X0071957Y0033767D01*
X0071938Y0032769D02*
X0060680Y0032769D01*
X0060680Y0031770D02*
X0071920Y0031770D01*
X0071901Y0030772D02*
X0060680Y0030772D01*
X0060680Y0029773D02*
X0071883Y0029773D01*
X0071864Y0028775D02*
X0060680Y0028775D01*
X0060680Y0027776D02*
X0071846Y0027776D01*
X0071827Y0026778D02*
X0060680Y0026778D01*
X0060680Y0025779D02*
X0071809Y0025779D01*
X0071790Y0024781D02*
X0060680Y0024781D01*
X0060680Y0023782D02*
X0071772Y0023782D01*
X0071753Y0022784D02*
X0060680Y0022784D01*
X0060680Y0021785D02*
X0071735Y0021785D01*
X0071278Y0021289D02*
X0068129Y0021289D01*
X0064979Y0021289D01*
X0060680Y0020787D02*
X0071716Y0020787D01*
X0071698Y0019788D02*
X0060680Y0019788D01*
X0092680Y0019788D02*
X0112680Y0019788D01*
X0112680Y0018840D02*
X0092680Y0018840D01*
X0092680Y0041840D01*
X0112680Y0041840D01*
X0112680Y0018840D01*
X0112680Y0020787D02*
X0092680Y0020787D01*
X0092680Y0021785D02*
X0112680Y0021785D01*
X0112680Y0022784D02*
X0092680Y0022784D01*
X0092680Y0023782D02*
X0112680Y0023782D01*
X0112680Y0024781D02*
X0092680Y0024781D01*
X0092680Y0025779D02*
X0112680Y0025779D01*
X0112680Y0026778D02*
X0092680Y0026778D01*
X0092680Y0027776D02*
X0112680Y0027776D01*
X0112680Y0028775D02*
X0092680Y0028775D01*
X0092680Y0029773D02*
X0112680Y0029773D01*
X0112680Y0030772D02*
X0092680Y0030772D01*
X0092680Y0031770D02*
X0112680Y0031770D01*
X0112680Y0032769D02*
X0092680Y0032769D01*
X0092680Y0033767D02*
X0112680Y0033767D01*
X0112680Y0034766D02*
X0092680Y0034766D01*
X0092680Y0035764D02*
X0112680Y0035764D01*
X0112680Y0036763D02*
X0092680Y0036763D01*
X0092680Y0037761D02*
X0112680Y0037761D01*
X0112680Y0038760D02*
X0092680Y0038760D01*
X0092680Y0039758D02*
X0112680Y0039758D01*
X0112680Y0040757D02*
X0092680Y0040757D01*
X0092680Y0041755D02*
X0112680Y0041755D01*
X0116800Y0033800D02*
X0116800Y0031347D01*
X0117051Y0031347D01*
X0117754Y0030644D01*
X0117754Y0016800D01*
X0129800Y0016800D01*
X0129800Y0033800D01*
X0116800Y0033800D01*
X0116800Y0033767D02*
X0129800Y0033767D01*
X0129800Y0032769D02*
X0116800Y0032769D01*
X0116800Y0031770D02*
X0129800Y0031770D01*
X0129800Y0030772D02*
X0117626Y0030772D01*
X0117754Y0029773D02*
X0129800Y0029773D01*
X0129800Y0028775D02*
X0117754Y0028775D01*
X0117754Y0027776D02*
X0129800Y0027776D01*
X0129800Y0026778D02*
X0117754Y0026778D01*
X0117754Y0025779D02*
X0129800Y0025779D01*
X0129800Y0024781D02*
X0117754Y0024781D01*
X0117754Y0023782D02*
X0129800Y0023782D01*
X0129800Y0022784D02*
X0117754Y0022784D01*
X0117754Y0021785D02*
X0129800Y0021785D01*
X0129800Y0020787D02*
X0117754Y0020787D01*
X0117754Y0019788D02*
X0129800Y0019788D01*
X0129800Y0018790D02*
X0117754Y0018790D01*
X0117754Y0017791D02*
X0129800Y0017791D01*
X0143107Y0017800D02*
X0143107Y0031800D01*
X0154800Y0031800D01*
X0154800Y0031347D01*
X0154640Y0031347D01*
X0153937Y0030644D01*
X0153937Y0017800D01*
X0143107Y0017800D01*
X0143107Y0018790D02*
X0153937Y0018790D01*
X0153937Y0019788D02*
X0143107Y0019788D01*
X0143107Y0020787D02*
X0153937Y0020787D01*
X0153937Y0021785D02*
X0143107Y0021785D01*
X0143107Y0022784D02*
X0153937Y0022784D01*
X0153937Y0023782D02*
X0143107Y0023782D01*
X0143107Y0024781D02*
X0153937Y0024781D01*
X0153937Y0025779D02*
X0143107Y0025779D01*
X0143107Y0026778D02*
X0153937Y0026778D01*
X0153937Y0027776D02*
X0143107Y0027776D01*
X0143107Y0028775D02*
X0153937Y0028775D01*
X0153937Y0029773D02*
X0143107Y0029773D01*
X0143107Y0030772D02*
X0154064Y0030772D01*
X0154800Y0031770D02*
X0143107Y0031770D01*
X0146070Y0108440D02*
X0137430Y0108340D01*
X0137430Y0119340D01*
X0146070Y0119440D01*
X0146070Y0117866D01*
X0145640Y0117436D01*
X0145640Y0114134D01*
X0146070Y0113704D01*
X0146070Y0108440D01*
X0146070Y0108656D02*
X0137430Y0108656D01*
X0137430Y0109654D02*
X0146070Y0109654D01*
X0146070Y0110653D02*
X0137430Y0110653D01*
X0137430Y0111651D02*
X0146070Y0111651D01*
X0146070Y0112650D02*
X0137430Y0112650D01*
X0137430Y0113648D02*
X0146070Y0113648D01*
X0145640Y0114647D02*
X0137430Y0114647D01*
X0137430Y0115645D02*
X0145640Y0115645D01*
X0145640Y0116644D02*
X0137430Y0116644D01*
X0137430Y0117642D02*
X0145847Y0117642D01*
X0146070Y0118641D02*
X0137430Y0118641D01*
X0136511Y0129840D02*
X0134695Y0129840D01*
X0134695Y0130540D01*
X0136511Y0130540D01*
X0136511Y0129840D01*
X0142848Y0129840D02*
X0142848Y0129886D01*
X0145011Y0129886D01*
X0145011Y0129840D01*
X0142848Y0129840D01*
X0142848Y0133486D02*
X0142848Y0133840D01*
X0145011Y0133840D01*
X0145011Y0133486D01*
X0142848Y0133486D01*
X0142848Y0133618D02*
X0145011Y0133618D01*
X0143680Y0144840D02*
X0138680Y0149840D01*
X0138680Y0161840D01*
X0133601Y0166919D01*
X0133601Y0179202D01*
X0131633Y0179202D02*
X0131633Y0156887D01*
X0133680Y0154840D01*
X0129664Y0148856D02*
X0133680Y0144840D01*
X0129664Y0148856D02*
X0129664Y0179202D01*
X0127696Y0179202D02*
X0127696Y0148856D01*
X0123680Y0144840D01*
X0118680Y0149840D02*
X0113680Y0144840D01*
X0113680Y0140994D01*
X0110834Y0131840D01*
X0103680Y0144840D02*
X0108680Y0149840D01*
X0108680Y0158840D01*
X0119822Y0169982D01*
X0119822Y0179202D01*
X0121790Y0179202D02*
X0121790Y0167950D01*
X0113680Y0159840D01*
X0113680Y0154840D01*
X0118680Y0149840D02*
X0118680Y0161840D01*
X0123759Y0166919D01*
X0123759Y0179202D01*
X0125727Y0179202D02*
X0125727Y0156887D01*
X0123680Y0154840D01*
X0137538Y0170982D02*
X0148680Y0159840D01*
X0148680Y0149840D01*
X0153680Y0144840D01*
X0158680Y0149840D02*
X0163680Y0144840D01*
X0158680Y0149840D02*
X0158680Y0156840D01*
X0141475Y0174045D01*
X0141475Y0179202D01*
X0141475Y0182325D01*
X0138370Y0185040D01*
X0139800Y0188800D02*
X0139820Y0188800D01*
X0143460Y0185160D01*
X0143460Y0179218D02*
X0143444Y0179202D01*
X0143444Y0175076D01*
X0163680Y0154840D01*
X0153680Y0154840D02*
X0153680Y0158840D01*
X0139507Y0173013D01*
X0139507Y0179202D01*
X0137538Y0179202D02*
X0137538Y0170982D01*
X0151318Y0187076D02*
X0155944Y0187076D01*
X0176180Y0166840D01*
X0176180Y0156324D01*
X0178841Y0153663D01*
X0181400Y0153663D02*
X0181400Y0158790D01*
X0186519Y0153663D02*
X0186180Y0166840D01*
X0181180Y0171840D01*
X0173680Y0171840D01*
X0156475Y0189045D01*
X0151318Y0189045D01*
X0151318Y0191013D02*
X0157507Y0191013D01*
X0171680Y0176840D01*
X0176180Y0176840D01*
X0181180Y0181840D02*
X0170680Y0181840D01*
X0159538Y0192982D01*
X0151318Y0192982D01*
X0151318Y0194950D02*
X0161570Y0194950D01*
X0169680Y0186840D01*
X0176180Y0186840D01*
X0179680Y0186840D01*
X0184680Y0181840D01*
X0190760Y0181840D01*
X0204800Y0167800D01*
X0207294Y0167800D01*
X0207334Y0167840D01*
X0207294Y0176800D02*
X0199800Y0176800D01*
X0189760Y0186840D01*
X0186180Y0186840D01*
X0181180Y0191840D01*
X0168680Y0191840D01*
X0163601Y0196919D01*
X0151318Y0196919D01*
X0151318Y0198887D02*
X0174133Y0198887D01*
X0176180Y0196840D01*
X0178680Y0196840D01*
X0183680Y0191840D01*
X0195760Y0191840D01*
X0201800Y0185800D01*
X0207294Y0185800D01*
X0207334Y0185840D01*
X0207294Y0194800D02*
X0202800Y0194800D01*
X0200760Y0196840D01*
X0186180Y0196840D01*
X0182164Y0200856D01*
X0151318Y0200856D01*
X0151318Y0202824D02*
X0182164Y0202824D01*
X0186180Y0206840D01*
X0181180Y0211840D02*
X0186180Y0216840D01*
X0184680Y0221840D02*
X0190680Y0221840D01*
X0202629Y0238139D01*
X0202629Y0241289D02*
X0196129Y0241289D01*
X0192680Y0237840D01*
X0192680Y0233340D01*
X0186180Y0226840D01*
X0181180Y0221840D01*
X0170680Y0221840D01*
X0159538Y0210698D01*
X0151318Y0210698D01*
X0151318Y0208730D02*
X0161570Y0208730D01*
X0169680Y0216840D01*
X0176180Y0216840D01*
X0184680Y0221840D01*
X0176180Y0226840D02*
X0171680Y0226840D01*
X0157507Y0212667D01*
X0151318Y0212667D01*
X0151318Y0214635D02*
X0147065Y0214635D01*
X0145530Y0212850D01*
X0145530Y0210710D01*
X0145520Y0210700D01*
X0151318Y0214635D02*
X0156475Y0214635D01*
X0173680Y0231840D01*
X0181180Y0231840D01*
X0186180Y0236840D01*
X0176180Y0236840D02*
X0155944Y0216604D01*
X0151318Y0216604D01*
X0143444Y0224478D02*
X0143444Y0229104D01*
X0163680Y0249340D01*
X0158680Y0246840D02*
X0158680Y0254340D01*
X0163680Y0259340D01*
X0153680Y0259340D02*
X0148680Y0254340D01*
X0148680Y0243840D01*
X0137538Y0232698D01*
X0137538Y0224478D01*
X0135570Y0224478D02*
X0135570Y0234730D01*
X0143680Y0242840D01*
X0143680Y0249340D01*
X0138680Y0254340D02*
X0138680Y0241840D01*
X0133601Y0236761D01*
X0133601Y0224478D01*
X0131633Y0224478D02*
X0131633Y0247293D01*
X0133680Y0249340D01*
X0138680Y0254340D02*
X0143680Y0259340D01*
X0133680Y0259340D02*
X0129664Y0255324D01*
X0129664Y0224478D01*
X0127696Y0224478D02*
X0127696Y0255324D01*
X0123680Y0259340D01*
X0118680Y0254340D02*
X0113680Y0259340D01*
X0108680Y0254340D02*
X0103680Y0259340D01*
X0108680Y0254340D02*
X0108680Y0243840D01*
X0119822Y0232698D01*
X0119822Y0224478D01*
X0121790Y0224478D02*
X0121790Y0234730D01*
X0113680Y0242840D01*
X0113680Y0249340D01*
X0118680Y0254340D02*
X0118680Y0241840D01*
X0123759Y0236761D01*
X0123759Y0224478D01*
X0125727Y0224478D02*
X0125727Y0247293D01*
X0123680Y0249340D01*
X0117853Y0230667D02*
X0103680Y0244840D01*
X0103680Y0249340D01*
X0098800Y0246800D02*
X0098800Y0253800D01*
X0093680Y0249340D02*
X0113916Y0229104D01*
X0113916Y0224478D01*
X0115885Y0224478D02*
X0115885Y0229715D01*
X0098800Y0246800D01*
X0092680Y0239840D02*
X0080704Y0254840D01*
X0081180Y0236840D02*
X0058656Y0254840D01*
X0043680Y0239840D01*
X0043680Y0231391D01*
X0049152Y0226919D01*
X0049152Y0218336D01*
X0048971Y0217517D01*
X0049334Y0208840D01*
X0056026Y0208840D02*
X0056026Y0199210D01*
X0054680Y0197864D01*
X0056026Y0208840D02*
X0059026Y0211840D01*
X0073680Y0211840D01*
X0078680Y0206840D01*
X0081180Y0206840D01*
X0083227Y0204793D01*
X0106042Y0204793D01*
X0107680Y0204840D01*
X0106042Y0206761D02*
X0093759Y0206761D01*
X0088680Y0211840D01*
X0076180Y0211840D01*
X0071180Y0216840D01*
X0068680Y0221840D02*
X0064800Y0225720D01*
X0064800Y0228800D01*
X0061800Y0231800D01*
X0053800Y0231800D01*
X0049152Y0236448D01*
X0049152Y0236761D01*
X0068680Y0221840D02*
X0073601Y0221919D01*
X0078680Y0216840D01*
X0081180Y0216840D01*
X0087680Y0216840D01*
X0095790Y0208730D01*
X0106042Y0208730D01*
X0106042Y0210698D02*
X0097822Y0210698D01*
X0086680Y0221840D01*
X0076180Y0221840D01*
X0071180Y0226840D01*
X0076180Y0231840D02*
X0071180Y0236840D01*
X0076180Y0231840D02*
X0083680Y0231840D01*
X0100885Y0214635D01*
X0106042Y0214635D01*
X0106042Y0212667D02*
X0099853Y0212667D01*
X0085680Y0226840D01*
X0081180Y0226840D01*
X0081180Y0236840D02*
X0101416Y0216604D01*
X0106042Y0216604D01*
X0106042Y0202824D02*
X0075196Y0202824D01*
X0071180Y0206840D01*
X0075196Y0200856D02*
X0071180Y0196840D01*
X0075196Y0200856D02*
X0106042Y0200856D01*
X0106042Y0198887D02*
X0083227Y0198887D01*
X0081180Y0196840D01*
X0076180Y0191840D02*
X0071180Y0186840D01*
X0076180Y0191840D02*
X0088680Y0191840D01*
X0093759Y0196919D01*
X0106042Y0196919D01*
X0106042Y0192982D02*
X0097822Y0192982D01*
X0086680Y0181840D01*
X0076180Y0181840D01*
X0071180Y0176840D01*
X0076180Y0171840D02*
X0071180Y0166840D01*
X0076180Y0171840D02*
X0083680Y0171840D01*
X0100885Y0189045D01*
X0106042Y0189045D01*
X0106042Y0191013D02*
X0099853Y0191013D01*
X0085680Y0176840D01*
X0081180Y0176840D01*
X0081180Y0166840D02*
X0101416Y0187076D01*
X0106042Y0187076D01*
X0117853Y0179202D02*
X0117853Y0173013D01*
X0103680Y0158840D01*
X0103680Y0154840D01*
X0151318Y0204793D02*
X0174133Y0204793D01*
X0176180Y0206840D01*
X0181180Y0211840D02*
X0168680Y0211840D01*
X0163601Y0206761D01*
X0151318Y0206761D01*
X0141475Y0224478D02*
X0141475Y0229635D01*
X0158680Y0246840D01*
X0153680Y0244840D02*
X0153680Y0249340D01*
X0153680Y0244840D02*
X0139507Y0230667D01*
X0139507Y0224478D01*
X0117853Y0224478D02*
X0117853Y0230667D01*
X0181180Y0181840D02*
X0186180Y0176840D01*
X0207294Y0176800D02*
X0207334Y0176840D01*
X0207294Y0194800D02*
X0207334Y0194840D01*
X0225652Y0204840D02*
X0225652Y0214214D01*
X0223026Y0216840D01*
X0223026Y0217494D01*
X0218680Y0221840D01*
X0207380Y0221840D01*
X0206180Y0223040D01*
X0222800Y0217800D02*
X0224800Y0219800D01*
X0207334Y0258840D02*
X0199278Y0256840D01*
X0196180Y0256840D01*
X0186519Y0144017D02*
X0193680Y0142186D01*
X0186026Y0136840D02*
X0185680Y0136494D01*
X0185580Y0130690D01*
X0186026Y0136840D02*
X0183960Y0141560D01*
X0183960Y0144017D01*
X0181400Y0144017D02*
X0181400Y0141560D01*
X0179334Y0136840D01*
X0179334Y0129710D01*
X0179360Y0130610D01*
D36*
X0179360Y0130610D03*
X0185580Y0130690D03*
X0181400Y0158790D03*
X0165800Y0163800D03*
X0149800Y0138800D03*
X0153470Y0123290D03*
X0121800Y0110800D03*
X0110800Y0122800D03*
X0102800Y0118800D03*
X0118800Y0139800D03*
X0089800Y0163800D03*
X0113800Y0192800D03*
X0112680Y0204840D03*
X0121800Y0217800D03*
X0125240Y0203350D03*
X0137800Y0207800D03*
X0145520Y0210700D03*
X0141800Y0218800D03*
X0169800Y0244800D03*
X0150800Y0270800D03*
X0123800Y0272800D03*
X0101800Y0270800D03*
X0092680Y0239840D03*
X0100800Y0224800D03*
X0128060Y0184780D03*
X0138370Y0185040D03*
X0143460Y0185160D03*
X0078800Y0119800D03*
X0059800Y0104800D03*
X0062800Y0217800D03*
X0062800Y0243800D03*
D37*
X0043013Y0038530D02*
X0043013Y0035583D01*
X0058680Y0035583D01*
X0058680Y0041825D01*
X0058668Y0042639D01*
X0058680Y0042651D01*
X0058680Y0042668D01*
X0059255Y0043244D01*
X0059822Y0043827D01*
X0059839Y0043828D01*
X0059852Y0043840D01*
X0060665Y0043840D01*
X0060979Y0043845D01*
X0060979Y0085484D01*
X0043614Y0102849D01*
X0042489Y0103974D01*
X0041880Y0105444D01*
X0041880Y0122800D01*
X0029600Y0122800D01*
X0029600Y0070100D01*
X0048608Y0070100D01*
X0048973Y0070465D01*
X0050671Y0070465D01*
X0051872Y0069264D01*
X0051872Y0040794D01*
X0051733Y0040655D01*
X0051006Y0039396D01*
X0051006Y0039396D01*
X0049933Y0038776D01*
X0049687Y0038530D01*
X0043013Y0038530D01*
X0043013Y0037376D02*
X0058680Y0037376D01*
X0058680Y0035778D02*
X0043013Y0035778D01*
X0050276Y0038975D02*
X0058680Y0038975D01*
X0058680Y0040573D02*
X0051686Y0040573D01*
X0051872Y0042172D02*
X0058675Y0042172D01*
X0059766Y0043770D02*
X0051872Y0043770D01*
X0051872Y0045369D02*
X0060979Y0045369D01*
X0060979Y0046967D02*
X0051872Y0046967D01*
X0051872Y0048566D02*
X0060979Y0048566D01*
X0060979Y0050164D02*
X0051872Y0050164D01*
X0051872Y0051763D02*
X0060979Y0051763D01*
X0060979Y0053361D02*
X0051872Y0053361D01*
X0051872Y0054960D02*
X0060979Y0054960D01*
X0060979Y0056558D02*
X0051872Y0056558D01*
X0051872Y0058157D02*
X0060979Y0058157D01*
X0060979Y0059755D02*
X0051872Y0059755D01*
X0051872Y0061354D02*
X0060979Y0061354D01*
X0060979Y0062952D02*
X0051872Y0062952D01*
X0051872Y0064551D02*
X0060979Y0064551D01*
X0060979Y0066149D02*
X0051872Y0066149D01*
X0051872Y0067748D02*
X0060979Y0067748D01*
X0060979Y0069346D02*
X0051789Y0069346D01*
X0060979Y0070945D02*
X0029600Y0070945D01*
X0029600Y0072543D02*
X0060979Y0072543D01*
X0060979Y0074142D02*
X0029600Y0074142D01*
X0029600Y0075740D02*
X0060979Y0075740D01*
X0060979Y0077339D02*
X0029600Y0077339D01*
X0029600Y0078937D02*
X0060979Y0078937D01*
X0060979Y0080536D02*
X0029600Y0080536D01*
X0029600Y0082134D02*
X0060979Y0082134D01*
X0060979Y0083733D02*
X0029600Y0083733D01*
X0029600Y0085332D02*
X0060979Y0085332D01*
X0059533Y0086930D02*
X0029600Y0086930D01*
X0029600Y0088529D02*
X0057935Y0088529D01*
X0056336Y0090127D02*
X0029600Y0090127D01*
X0029600Y0091726D02*
X0054738Y0091726D01*
X0053139Y0093324D02*
X0029600Y0093324D01*
X0029600Y0094923D02*
X0051541Y0094923D01*
X0049942Y0096521D02*
X0029600Y0096521D01*
X0029600Y0098120D02*
X0048344Y0098120D01*
X0046745Y0099718D02*
X0029600Y0099718D01*
X0029600Y0101317D02*
X0045146Y0101317D01*
X0043548Y0102915D02*
X0029600Y0102915D01*
X0029600Y0104514D02*
X0042265Y0104514D01*
X0041880Y0106112D02*
X0029600Y0106112D01*
X0029600Y0107711D02*
X0041880Y0107711D01*
X0041880Y0109309D02*
X0029600Y0109309D01*
X0029600Y0110908D02*
X0041880Y0110908D01*
X0041880Y0112506D02*
X0029600Y0112506D01*
X0029600Y0114105D02*
X0041880Y0114105D01*
X0041880Y0115703D02*
X0029600Y0115703D01*
X0029600Y0117302D02*
X0041880Y0117302D01*
X0041880Y0118900D02*
X0029600Y0118900D01*
X0029600Y0120499D02*
X0041880Y0120499D01*
X0041880Y0122097D02*
X0029600Y0122097D01*
X0049880Y0122097D02*
X0068080Y0122097D01*
X0068080Y0122800D02*
X0068080Y0117761D01*
X0067580Y0117261D01*
X0067580Y0109419D01*
X0068459Y0108540D01*
X0071223Y0108540D01*
X0073513Y0106250D01*
X0074639Y0105125D01*
X0076109Y0104516D01*
X0092176Y0104516D01*
X0093459Y0105047D01*
X0093576Y0105047D01*
X0094455Y0105926D01*
X0094455Y0105934D01*
X0094771Y0106250D01*
X0095380Y0107720D01*
X0095380Y0109311D01*
X0094771Y0110781D01*
X0094455Y0111098D01*
X0094455Y0111100D01*
X0095682Y0111100D01*
X0109271Y0097511D01*
X0110263Y0097100D01*
X0161337Y0097100D01*
X0162329Y0097511D01*
X0163089Y0098271D01*
X0164808Y0099990D01*
X0172417Y0099990D01*
X0172924Y0099975D01*
X0172962Y0099990D01*
X0173003Y0099990D01*
X0173472Y0100184D01*
X0173947Y0100365D01*
X0173976Y0100393D01*
X0174014Y0100409D01*
X0174373Y0100767D01*
X0174742Y0101116D01*
X0174759Y0101153D01*
X0174788Y0101182D01*
X0174982Y0101651D01*
X0177174Y0106541D01*
X0181821Y0106541D01*
X0182700Y0107419D01*
X0182700Y0120740D01*
X0189244Y0120740D01*
X0194660Y0114715D01*
X0194660Y0107419D01*
X0195539Y0106541D01*
X0195680Y0106541D01*
X0195680Y0096497D01*
X0164023Y0064840D01*
X0129757Y0064840D01*
X0129039Y0064868D01*
X0128964Y0064840D01*
X0128884Y0064840D01*
X0128220Y0064565D01*
X0127547Y0064316D01*
X0127488Y0064262D01*
X0127414Y0064231D01*
X0126906Y0063723D01*
X0105426Y0043840D01*
X0091852Y0043840D01*
X0090680Y0042668D01*
X0090680Y0031647D01*
X0073918Y0031647D01*
X0074095Y0041184D01*
X0074122Y0041211D01*
X0074110Y0042006D01*
X0074125Y0042801D01*
X0074098Y0042829D01*
X0074097Y0042868D01*
X0073527Y0043422D01*
X0072975Y0043994D01*
X0072936Y0043995D01*
X0072909Y0044022D01*
X0072114Y0044010D01*
X0071319Y0044025D01*
X0071291Y0043998D01*
X0068979Y0043964D01*
X0068979Y0087936D01*
X0068370Y0089407D01*
X0049880Y0107897D01*
X0049880Y0122800D01*
X0068080Y0122800D01*
X0068080Y0120499D02*
X0049880Y0120499D01*
X0049880Y0118900D02*
X0068080Y0118900D01*
X0067620Y0117302D02*
X0061966Y0117302D01*
X0061957Y0117335D02*
X0061720Y0117745D01*
X0061385Y0118080D01*
X0060975Y0118317D01*
X0060517Y0118440D01*
X0057980Y0118440D01*
X0057980Y0114040D01*
X0056580Y0114040D01*
X0056580Y0118440D01*
X0054043Y0118440D01*
X0053585Y0118317D01*
X0053175Y0118080D01*
X0052840Y0117745D01*
X0052603Y0117335D01*
X0052480Y0116877D01*
X0052480Y0114040D01*
X0056580Y0114040D01*
X0056580Y0112640D01*
X0057980Y0112640D01*
X0057980Y0114040D01*
X0062080Y0114040D01*
X0062080Y0116877D01*
X0061957Y0117335D01*
X0062080Y0115703D02*
X0067580Y0115703D01*
X0067580Y0114105D02*
X0062080Y0114105D01*
X0062080Y0112640D02*
X0062080Y0109803D01*
X0061957Y0109345D01*
X0061720Y0108935D01*
X0061385Y0108600D01*
X0060975Y0108363D01*
X0060517Y0108240D01*
X0057980Y0108240D01*
X0057980Y0112640D01*
X0062080Y0112640D01*
X0062080Y0112506D02*
X0067580Y0112506D01*
X0067580Y0110908D02*
X0062080Y0110908D01*
X0061937Y0109309D02*
X0067689Y0109309D01*
X0072052Y0107711D02*
X0050066Y0107711D01*
X0049880Y0109309D02*
X0052623Y0109309D01*
X0052603Y0109345D02*
X0052840Y0108935D01*
X0053175Y0108600D01*
X0053585Y0108363D01*
X0054043Y0108240D01*
X0056580Y0108240D01*
X0056580Y0112640D01*
X0052480Y0112640D01*
X0052480Y0109803D01*
X0052603Y0109345D01*
X0052480Y0110908D02*
X0049880Y0110908D01*
X0049880Y0112506D02*
X0052480Y0112506D01*
X0052480Y0114105D02*
X0049880Y0114105D01*
X0049880Y0115703D02*
X0052480Y0115703D01*
X0052594Y0117302D02*
X0049880Y0117302D01*
X0056580Y0117302D02*
X0057980Y0117302D01*
X0057980Y0115703D02*
X0056580Y0115703D01*
X0056580Y0114105D02*
X0057980Y0114105D01*
X0057980Y0112506D02*
X0056580Y0112506D01*
X0056580Y0110908D02*
X0057980Y0110908D01*
X0057980Y0109309D02*
X0056580Y0109309D01*
X0053263Y0104514D02*
X0102268Y0104514D01*
X0100669Y0106112D02*
X0094633Y0106112D01*
X0095376Y0107711D02*
X0099071Y0107711D01*
X0097472Y0109309D02*
X0095380Y0109309D01*
X0095874Y0110908D02*
X0094645Y0110908D01*
X0089270Y0112516D02*
X0078561Y0112516D01*
X0076580Y0114497D01*
X0076580Y0117261D01*
X0076080Y0117761D01*
X0076080Y0122800D01*
X0086800Y0122800D01*
X0086800Y0133267D01*
X0090527Y0129540D01*
X0092865Y0129540D01*
X0092865Y0129053D01*
X0093744Y0128175D01*
X0098923Y0128175D01*
X0099680Y0128931D01*
X0100437Y0128175D01*
X0100726Y0128175D01*
X0100726Y0123621D01*
X0102074Y0122274D01*
X0109807Y0114540D01*
X0111547Y0114540D01*
X0111271Y0114264D01*
X0111034Y0113854D01*
X0110911Y0113396D01*
X0110911Y0111178D01*
X0114496Y0111178D01*
X0114496Y0110809D01*
X0110911Y0110809D01*
X0110911Y0108658D01*
X0100736Y0118834D01*
X0099505Y0120064D01*
X0098195Y0120064D01*
X0098195Y0120554D01*
X0097316Y0121433D01*
X0092924Y0121433D01*
X0092045Y0120554D01*
X0092045Y0117377D01*
X0090715Y0118708D01*
X0090715Y0120554D01*
X0089836Y0121433D01*
X0085444Y0121433D01*
X0084565Y0120554D01*
X0084565Y0115375D01*
X0085444Y0114496D01*
X0087290Y0114496D01*
X0089270Y0112516D01*
X0087681Y0114105D02*
X0076972Y0114105D01*
X0076580Y0115703D02*
X0084565Y0115703D01*
X0084565Y0117302D02*
X0076540Y0117302D01*
X0076080Y0118900D02*
X0084565Y0118900D01*
X0084565Y0120499D02*
X0076080Y0120499D01*
X0076080Y0122097D02*
X0102250Y0122097D01*
X0100726Y0123696D02*
X0086800Y0123696D01*
X0086800Y0125294D02*
X0100726Y0125294D01*
X0100726Y0126893D02*
X0086800Y0126893D01*
X0086800Y0128491D02*
X0093427Y0128491D01*
X0089977Y0130090D02*
X0086800Y0130090D01*
X0086800Y0131688D02*
X0088379Y0131688D01*
X0091480Y0131840D02*
X0086880Y0136440D01*
X0086880Y0147240D01*
X0082380Y0151740D01*
X0068304Y0151740D01*
X0068180Y0151864D01*
X0069399Y0162540D02*
X0072961Y0162540D01*
X0075480Y0165059D01*
X0075480Y0168312D01*
X0077008Y0169840D01*
X0078099Y0169840D01*
X0076880Y0168621D01*
X0076880Y0165059D01*
X0079399Y0162540D01*
X0082961Y0162540D01*
X0085480Y0165059D01*
X0085480Y0168312D01*
X0102245Y0185076D01*
X0102968Y0185076D01*
X0103059Y0184986D01*
X0109026Y0184986D01*
X0109904Y0185864D01*
X0109904Y0190882D01*
X0110610Y0190882D01*
X0110679Y0190715D01*
X0111715Y0189679D01*
X0113068Y0189119D01*
X0114228Y0189119D01*
X0115556Y0187792D01*
X0115556Y0187788D01*
X0115753Y0187592D01*
X0115753Y0183364D01*
X0115057Y0183364D01*
X0114599Y0183242D01*
X0114292Y0183064D01*
X0112704Y0183064D01*
X0111826Y0182186D01*
X0111826Y0180081D01*
X0111816Y0180072D01*
X0111816Y0175946D01*
X0095010Y0159140D01*
X0091899Y0159140D01*
X0089380Y0156621D01*
X0089380Y0153059D01*
X0091899Y0150540D01*
X0095461Y0150540D01*
X0097980Y0153059D01*
X0097980Y0156170D01*
X0115853Y0174043D01*
X0115853Y0173842D01*
X0102852Y0160840D01*
X0101680Y0159668D01*
X0101680Y0158921D01*
X0099380Y0156621D01*
X0099380Y0153059D01*
X0101899Y0150540D01*
X0105461Y0150540D01*
X0106680Y0151759D01*
X0106680Y0150668D01*
X0105152Y0149140D01*
X0101899Y0149140D01*
X0099380Y0146621D01*
X0099380Y0143059D01*
X0101899Y0140540D01*
X0105461Y0140540D01*
X0107980Y0143059D01*
X0107980Y0146312D01*
X0110680Y0149012D01*
X0110680Y0151759D01*
X0111899Y0150540D01*
X0115461Y0150540D01*
X0116680Y0151759D01*
X0116680Y0150668D01*
X0115152Y0149140D01*
X0111899Y0149140D01*
X0109380Y0146621D01*
X0109380Y0143059D01*
X0111552Y0140887D01*
X0109879Y0135505D01*
X0108244Y0135505D01*
X0107365Y0134627D01*
X0107365Y0129053D01*
X0108244Y0128175D01*
X0113423Y0128175D01*
X0114180Y0128931D01*
X0114937Y0128175D01*
X0115426Y0128175D01*
X0115426Y0122924D01*
X0116657Y0121694D01*
X0116998Y0121352D01*
X0112090Y0121352D01*
X0111211Y0120473D01*
X0111211Y0119641D01*
X0105326Y0125526D01*
X0105326Y0128175D01*
X0105616Y0128175D01*
X0106495Y0129053D01*
X0106495Y0134627D01*
X0105616Y0135505D01*
X0100437Y0135505D01*
X0099680Y0134749D01*
X0098923Y0135505D01*
X0093744Y0135505D01*
X0092865Y0134627D01*
X0092865Y0134140D01*
X0092433Y0134140D01*
X0089180Y0137393D01*
X0089180Y0142835D01*
X0091775Y0140240D01*
X0093580Y0140240D01*
X0093580Y0144740D01*
X0093780Y0144740D01*
X0093780Y0144940D01*
X0093580Y0144940D01*
X0093580Y0149440D01*
X0091775Y0149440D01*
X0089180Y0146845D01*
X0089180Y0148193D01*
X0086800Y0150573D01*
X0086800Y0158800D01*
X0029600Y0159489D01*
X0029600Y0280000D01*
X0234000Y0280000D01*
X0234000Y0258475D01*
X0233954Y0258538D01*
X0233376Y0259116D01*
X0232714Y0259597D01*
X0231986Y0259968D01*
X0231208Y0260221D01*
X0230400Y0260349D01*
X0230323Y0260349D01*
X0230323Y0255485D01*
X0229659Y0255485D01*
X0229659Y0260349D01*
X0229582Y0260349D01*
X0228775Y0260221D01*
X0227997Y0259968D01*
X0227268Y0259597D01*
X0226900Y0259330D01*
X0226900Y0263670D01*
X0225670Y0264900D01*
X0222575Y0267995D01*
X0203928Y0267995D01*
X0203928Y0268879D01*
X0203049Y0269757D01*
X0195507Y0269757D01*
X0194629Y0268879D01*
X0194629Y0262912D01*
X0195507Y0262033D01*
X0203049Y0262033D01*
X0203928Y0262912D01*
X0203928Y0263795D01*
X0220835Y0263795D01*
X0222700Y0261930D01*
X0222700Y0253680D01*
X0222698Y0253683D01*
X0222211Y0254169D01*
X0221654Y0254574D01*
X0221041Y0254887D01*
X0220386Y0255100D01*
X0219706Y0255207D01*
X0219361Y0255207D01*
X0219017Y0255207D01*
X0218337Y0255100D01*
X0217682Y0254887D01*
X0217069Y0254574D01*
X0216511Y0254169D01*
X0216024Y0253683D01*
X0215620Y0253125D01*
X0215307Y0252512D01*
X0215094Y0251857D01*
X0214987Y0251177D01*
X0214987Y0250833D01*
X0219361Y0250833D01*
X0219361Y0255207D01*
X0219361Y0250833D01*
X0219361Y0250833D01*
X0219361Y0250832D01*
X0219361Y0250832D01*
X0219361Y0246108D01*
X0219361Y0246108D01*
X0219361Y0243549D01*
X0219361Y0243549D01*
X0219361Y0246108D01*
X0219361Y0246108D01*
X0219361Y0246458D01*
X0219361Y0250832D01*
X0214987Y0250832D01*
X0214987Y0250488D01*
X0215094Y0249808D01*
X0215307Y0249153D01*
X0215620Y0248540D01*
X0215718Y0248405D01*
X0215599Y0248336D01*
X0215264Y0248001D01*
X0215027Y0247590D01*
X0214904Y0247132D01*
X0214904Y0246108D01*
X0214904Y0245084D01*
X0214972Y0244829D01*
X0214904Y0244573D01*
X0214904Y0243549D01*
X0214904Y0243389D01*
X0211016Y0243389D01*
X0210730Y0243675D01*
X0206732Y0243675D01*
X0205853Y0242796D01*
X0205853Y0239782D01*
X0205921Y0239714D01*
X0205853Y0239646D01*
X0205853Y0237823D01*
X0205507Y0237477D01*
X0205507Y0239646D01*
X0205439Y0239714D01*
X0205507Y0239782D01*
X0205507Y0242796D01*
X0204628Y0243675D01*
X0202859Y0243675D01*
X0203123Y0243745D01*
X0203533Y0243982D01*
X0203868Y0244317D01*
X0204105Y0244728D01*
X0204228Y0245186D01*
X0204228Y0247404D01*
X0199660Y0247404D01*
X0199660Y0248166D01*
X0204228Y0248166D01*
X0204228Y0250384D01*
X0204105Y0250842D01*
X0203868Y0251252D01*
X0203533Y0251587D01*
X0203123Y0251824D01*
X0202665Y0251947D01*
X0199660Y0251947D01*
X0199660Y0248166D01*
X0198897Y0248166D01*
X0198897Y0247404D01*
X0194329Y0247404D01*
X0194329Y0245186D01*
X0194451Y0244728D01*
X0194688Y0244317D01*
X0195024Y0243982D01*
X0195434Y0243745D01*
X0195892Y0243623D01*
X0198897Y0243623D01*
X0198897Y0247404D01*
X0199660Y0247404D01*
X0199660Y0243623D01*
X0200578Y0243623D01*
X0200244Y0243289D01*
X0195300Y0243289D01*
X0194129Y0242117D01*
X0190680Y0238668D01*
X0190680Y0234168D01*
X0187652Y0231140D01*
X0184399Y0231140D01*
X0181880Y0228621D01*
X0181880Y0225368D01*
X0180352Y0223840D01*
X0179261Y0223840D01*
X0180480Y0225059D01*
X0180480Y0228621D01*
X0179261Y0229840D01*
X0182008Y0229840D01*
X0184708Y0232540D01*
X0187961Y0232540D01*
X0190480Y0235059D01*
X0190480Y0238621D01*
X0187961Y0241140D01*
X0184399Y0241140D01*
X0181880Y0238621D01*
X0181880Y0235368D01*
X0180352Y0233840D01*
X0179261Y0233840D01*
X0180480Y0235059D01*
X0180480Y0238621D01*
X0179680Y0239421D01*
X0179680Y0252840D01*
X0200074Y0252840D01*
X0200407Y0252978D01*
X0203049Y0252978D01*
X0203928Y0253856D01*
X0203928Y0255934D01*
X0203973Y0255945D01*
X0204547Y0255371D01*
X0210120Y0255371D01*
X0210468Y0255719D01*
X0210756Y0255431D01*
X0211166Y0255194D01*
X0211624Y0255071D01*
X0213842Y0255071D01*
X0213842Y0258656D01*
X0214211Y0258656D01*
X0214211Y0259024D01*
X0217992Y0259024D01*
X0217992Y0261045D01*
X0217869Y0261503D01*
X0217632Y0261914D01*
X0217297Y0262249D01*
X0216887Y0262486D01*
X0216429Y0262608D01*
X0214211Y0262608D01*
X0214211Y0259024D01*
X0213842Y0259024D01*
X0213842Y0262608D01*
X0211624Y0262608D01*
X0211166Y0262486D01*
X0210756Y0262249D01*
X0210468Y0261961D01*
X0210120Y0262308D01*
X0204547Y0262308D01*
X0203668Y0261430D01*
X0203668Y0260083D01*
X0203049Y0260702D01*
X0200407Y0260702D01*
X0200074Y0260840D01*
X0178731Y0260840D01*
X0178731Y0263957D01*
X0177852Y0264836D01*
X0170311Y0264836D01*
X0169432Y0263957D01*
X0169432Y0249723D01*
X0170311Y0248844D01*
X0172680Y0248844D01*
X0172680Y0239421D01*
X0171880Y0238621D01*
X0171880Y0235368D01*
X0155115Y0218604D01*
X0154392Y0218604D01*
X0154301Y0218694D01*
X0152197Y0218694D01*
X0152188Y0218704D01*
X0145481Y0218704D01*
X0145481Y0219532D01*
X0144922Y0220882D01*
X0145534Y0221494D01*
X0145534Y0227461D01*
X0145444Y0227552D01*
X0145444Y0228275D01*
X0162208Y0245040D01*
X0165461Y0245040D01*
X0167980Y0247559D01*
X0167980Y0251121D01*
X0165461Y0253640D01*
X0161899Y0253640D01*
X0160680Y0252421D01*
X0160680Y0253512D01*
X0162208Y0255040D01*
X0165461Y0255040D01*
X0167980Y0257559D01*
X0167980Y0261121D01*
X0165461Y0263640D01*
X0161899Y0263640D01*
X0159380Y0261121D01*
X0159380Y0257868D01*
X0156680Y0255168D01*
X0156680Y0252421D01*
X0155461Y0253640D01*
X0151899Y0253640D01*
X0150680Y0252421D01*
X0150680Y0253512D01*
X0152208Y0255040D01*
X0155461Y0255040D01*
X0157980Y0257559D01*
X0157980Y0261121D01*
X0155461Y0263640D01*
X0151899Y0263640D01*
X0149380Y0261121D01*
X0149380Y0257868D01*
X0146680Y0255168D01*
X0146680Y0252421D01*
X0145461Y0253640D01*
X0141899Y0253640D01*
X0140680Y0252421D01*
X0140680Y0253512D01*
X0142208Y0255040D01*
X0145461Y0255040D01*
X0147980Y0257559D01*
X0147980Y0261121D01*
X0145461Y0263640D01*
X0141899Y0263640D01*
X0139380Y0261121D01*
X0139380Y0257868D01*
X0136680Y0255168D01*
X0136680Y0252421D01*
X0135461Y0253640D01*
X0131899Y0253640D01*
X0131664Y0253405D01*
X0131664Y0254496D01*
X0132208Y0255040D01*
X0135461Y0255040D01*
X0137980Y0257559D01*
X0137980Y0261121D01*
X0135461Y0263640D01*
X0131899Y0263640D01*
X0129380Y0261121D01*
X0129380Y0257868D01*
X0128680Y0257168D01*
X0127980Y0257868D01*
X0127980Y0261121D01*
X0125461Y0263640D01*
X0121899Y0263640D01*
X0119380Y0261121D01*
X0119380Y0257559D01*
X0121899Y0255040D01*
X0125152Y0255040D01*
X0125696Y0254496D01*
X0125696Y0253405D01*
X0125461Y0253640D01*
X0121899Y0253640D01*
X0120680Y0252421D01*
X0120680Y0255168D01*
X0117980Y0257868D01*
X0117980Y0261121D01*
X0115461Y0263640D01*
X0111899Y0263640D01*
X0109380Y0261121D01*
X0109380Y0257559D01*
X0111899Y0255040D01*
X0115152Y0255040D01*
X0116680Y0253512D01*
X0116680Y0252421D01*
X0115461Y0253640D01*
X0111899Y0253640D01*
X0110680Y0252421D01*
X0110680Y0255168D01*
X0107980Y0257868D01*
X0107980Y0261121D01*
X0105461Y0263640D01*
X0101899Y0263640D01*
X0099380Y0261121D01*
X0099380Y0257559D01*
X0101899Y0255040D01*
X0105152Y0255040D01*
X0106680Y0253512D01*
X0106680Y0252421D01*
X0105461Y0253640D01*
X0101899Y0253640D01*
X0099380Y0251121D01*
X0099380Y0247559D01*
X0101680Y0245259D01*
X0101680Y0244168D01*
X0097980Y0247868D01*
X0097980Y0251121D01*
X0095461Y0253640D01*
X0091899Y0253640D01*
X0089380Y0251121D01*
X0089380Y0247559D01*
X0091899Y0245040D01*
X0095152Y0245040D01*
X0111916Y0228275D01*
X0111916Y0227552D01*
X0111826Y0227461D01*
X0111826Y0225357D01*
X0111816Y0225348D01*
X0111816Y0218704D01*
X0105172Y0218704D01*
X0105163Y0218694D01*
X0103059Y0218694D01*
X0102968Y0218604D01*
X0102245Y0218604D01*
X0085480Y0235368D01*
X0085480Y0238621D01*
X0082961Y0241140D01*
X0079399Y0241140D01*
X0079223Y0240964D01*
X0063700Y0253370D01*
X0063700Y0261761D01*
X0062821Y0262639D01*
X0054492Y0262639D01*
X0053613Y0261761D01*
X0053613Y0252619D01*
X0042264Y0241253D01*
X0041680Y0240668D01*
X0041680Y0240667D01*
X0041679Y0240667D01*
X0041680Y0239839D01*
X0041680Y0232104D01*
X0041607Y0232015D01*
X0041680Y0231291D01*
X0041680Y0230563D01*
X0041761Y0230481D01*
X0041773Y0230367D01*
X0042337Y0229906D01*
X0042852Y0229391D01*
X0042967Y0229391D01*
X0044700Y0227975D01*
X0044700Y0223148D01*
X0045578Y0222269D01*
X0047152Y0222269D01*
X0047152Y0220986D01*
X0046185Y0220986D01*
X0045306Y0220107D01*
X0045306Y0214927D01*
X0046185Y0214049D01*
X0047114Y0214049D01*
X0047179Y0212505D01*
X0046744Y0212505D01*
X0045865Y0211627D01*
X0045865Y0206053D01*
X0046744Y0205175D01*
X0051923Y0205175D01*
X0052680Y0205931D01*
X0053437Y0205175D01*
X0054026Y0205175D01*
X0054026Y0202907D01*
X0047759Y0202907D01*
X0046881Y0202028D01*
X0046881Y0193699D01*
X0047759Y0192820D01*
X0061601Y0192820D01*
X0062479Y0193699D01*
X0062479Y0202028D01*
X0061601Y0202907D01*
X0058026Y0202907D01*
X0058026Y0205175D01*
X0058616Y0205175D01*
X0059495Y0206053D01*
X0059495Y0209480D01*
X0059855Y0209840D01*
X0068099Y0209840D01*
X0066880Y0208621D01*
X0066880Y0205059D01*
X0069399Y0202540D01*
X0072652Y0202540D01*
X0073352Y0201840D01*
X0072652Y0201140D01*
X0069399Y0201140D01*
X0066880Y0198621D01*
X0066880Y0195059D01*
X0069399Y0192540D01*
X0072961Y0192540D01*
X0075480Y0195059D01*
X0075480Y0198312D01*
X0076024Y0198856D01*
X0077115Y0198856D01*
X0076880Y0198621D01*
X0076880Y0195059D01*
X0078099Y0193840D01*
X0075352Y0193840D01*
X0072652Y0191140D01*
X0069399Y0191140D01*
X0066880Y0188621D01*
X0066880Y0185059D01*
X0069399Y0182540D01*
X0072961Y0182540D01*
X0075480Y0185059D01*
X0075480Y0188312D01*
X0077008Y0189840D01*
X0077675Y0189840D01*
X0076580Y0188745D01*
X0076580Y0186940D01*
X0081080Y0186940D01*
X0081080Y0186740D01*
X0076580Y0186740D01*
X0076580Y0184935D01*
X0077675Y0183840D01*
X0075352Y0183840D01*
X0072652Y0181140D01*
X0069399Y0181140D01*
X0066880Y0178621D01*
X0066880Y0175059D01*
X0069399Y0172540D01*
X0072961Y0172540D01*
X0075480Y0175059D01*
X0075480Y0178312D01*
X0077008Y0179840D01*
X0078099Y0179840D01*
X0076880Y0178621D01*
X0076880Y0175059D01*
X0078099Y0173840D01*
X0075352Y0173840D01*
X0072652Y0171140D01*
X0069399Y0171140D01*
X0066880Y0168621D01*
X0066880Y0165059D01*
X0069399Y0162540D01*
X0068280Y0163659D02*
X0029600Y0163659D01*
X0029600Y0165257D02*
X0066880Y0165257D01*
X0066880Y0166856D02*
X0029600Y0166856D01*
X0029600Y0168454D02*
X0066880Y0168454D01*
X0068312Y0170053D02*
X0029600Y0170053D01*
X0029600Y0171651D02*
X0046684Y0171651D01*
X0046703Y0171578D02*
X0046940Y0171168D01*
X0047276Y0170833D01*
X0047686Y0170596D01*
X0048144Y0170473D01*
X0053880Y0170473D01*
X0053880Y0175016D01*
X0055480Y0175016D01*
X0055480Y0170473D01*
X0061216Y0170473D01*
X0061674Y0170596D01*
X0062084Y0170833D01*
X0062420Y0171168D01*
X0062657Y0171578D01*
X0062779Y0172036D01*
X0062779Y0175016D01*
X0055480Y0175016D01*
X0055480Y0176616D01*
X0062779Y0176616D01*
X0062779Y0179597D01*
X0062657Y0180054D01*
X0062420Y0180465D01*
X0062084Y0180800D01*
X0061674Y0181037D01*
X0061216Y0181160D01*
X0055480Y0181160D01*
X0055480Y0176616D01*
X0053880Y0176616D01*
X0053880Y0175016D01*
X0046581Y0175016D01*
X0046581Y0172036D01*
X0046703Y0171578D01*
X0046581Y0173250D02*
X0029600Y0173250D01*
X0029600Y0174848D02*
X0046581Y0174848D01*
X0046581Y0176616D02*
X0053880Y0176616D01*
X0053880Y0181160D01*
X0048144Y0181160D01*
X0047686Y0181037D01*
X0047276Y0180800D01*
X0046940Y0180465D01*
X0046703Y0180054D01*
X0046581Y0179597D01*
X0046581Y0176616D01*
X0046581Y0178045D02*
X0029600Y0178045D01*
X0029600Y0176447D02*
X0053880Y0176447D01*
X0053880Y0178045D02*
X0055480Y0178045D01*
X0055480Y0176447D02*
X0066880Y0176447D01*
X0066880Y0178045D02*
X0062779Y0178045D01*
X0062767Y0179644D02*
X0067903Y0179644D01*
X0069098Y0182841D02*
X0029600Y0182841D01*
X0029600Y0184439D02*
X0067500Y0184439D01*
X0066880Y0186038D02*
X0029600Y0186038D01*
X0029600Y0187636D02*
X0066880Y0187636D01*
X0067494Y0189235D02*
X0029600Y0189235D01*
X0029600Y0190833D02*
X0069092Y0190833D01*
X0067909Y0194030D02*
X0062479Y0194030D01*
X0062479Y0195629D02*
X0066880Y0195629D01*
X0066880Y0197227D02*
X0062479Y0197227D01*
X0062479Y0198826D02*
X0067085Y0198826D01*
X0068683Y0200424D02*
X0062479Y0200424D01*
X0062479Y0202023D02*
X0073169Y0202023D01*
X0075994Y0198826D02*
X0077085Y0198826D01*
X0076880Y0197227D02*
X0075480Y0197227D01*
X0075480Y0195629D02*
X0076880Y0195629D01*
X0077909Y0194030D02*
X0074451Y0194030D01*
X0073943Y0192432D02*
X0029600Y0192432D01*
X0029600Y0194030D02*
X0046881Y0194030D01*
X0046881Y0195629D02*
X0029600Y0195629D01*
X0029600Y0197227D02*
X0046881Y0197227D01*
X0046881Y0198826D02*
X0029600Y0198826D01*
X0029600Y0200424D02*
X0046881Y0200424D01*
X0046881Y0202023D02*
X0029600Y0202023D01*
X0029600Y0203621D02*
X0054026Y0203621D01*
X0053391Y0205220D02*
X0051969Y0205220D01*
X0046698Y0205220D02*
X0029600Y0205220D01*
X0029600Y0206818D02*
X0045865Y0206818D01*
X0045865Y0208417D02*
X0029600Y0208417D01*
X0029600Y0210015D02*
X0045865Y0210015D01*
X0045865Y0211614D02*
X0029600Y0211614D01*
X0029600Y0213212D02*
X0047149Y0213212D01*
X0045422Y0214811D02*
X0029600Y0214811D01*
X0029600Y0216409D02*
X0045306Y0216409D01*
X0045306Y0218008D02*
X0029600Y0218008D01*
X0029600Y0219606D02*
X0045306Y0219606D01*
X0047152Y0221205D02*
X0029600Y0221205D01*
X0029600Y0222803D02*
X0045044Y0222803D01*
X0044700Y0224402D02*
X0029600Y0224402D01*
X0029600Y0226001D02*
X0044700Y0226001D01*
X0044700Y0227599D02*
X0029600Y0227599D01*
X0029600Y0229198D02*
X0043204Y0229198D01*
X0041680Y0230796D02*
X0029600Y0230796D01*
X0029600Y0232395D02*
X0041680Y0232395D01*
X0041680Y0233993D02*
X0029600Y0233993D01*
X0029600Y0235592D02*
X0041680Y0235592D01*
X0041680Y0237190D02*
X0029600Y0237190D01*
X0029600Y0238789D02*
X0041680Y0238789D01*
X0041680Y0240387D02*
X0029600Y0240387D01*
X0029600Y0241986D02*
X0042996Y0241986D01*
X0044592Y0243584D02*
X0029600Y0243584D01*
X0029600Y0245183D02*
X0046188Y0245183D01*
X0047784Y0246781D02*
X0029600Y0246781D01*
X0029600Y0248380D02*
X0049380Y0248380D01*
X0050976Y0249978D02*
X0029600Y0249978D01*
X0029600Y0251577D02*
X0052572Y0251577D01*
X0053613Y0253175D02*
X0029600Y0253175D01*
X0029600Y0254774D02*
X0053613Y0254774D01*
X0053613Y0256372D02*
X0029600Y0256372D01*
X0029600Y0257971D02*
X0053613Y0257971D01*
X0053613Y0259569D02*
X0029600Y0259569D01*
X0029600Y0261168D02*
X0053613Y0261168D01*
X0063700Y0261168D02*
X0075660Y0261168D01*
X0075660Y0261761D02*
X0075660Y0247919D01*
X0076539Y0247041D01*
X0084371Y0247041D01*
X0089182Y0241015D01*
X0088999Y0240572D01*
X0088999Y0239108D01*
X0089559Y0237755D01*
X0090595Y0236719D01*
X0091948Y0236159D01*
X0093412Y0236159D01*
X0094765Y0236719D01*
X0095801Y0237755D01*
X0096361Y0239108D01*
X0096361Y0240572D01*
X0095801Y0241925D01*
X0094765Y0242961D01*
X0093412Y0243521D01*
X0092300Y0243521D01*
X0085747Y0251729D01*
X0085747Y0261761D01*
X0084868Y0262639D01*
X0076539Y0262639D01*
X0075660Y0261761D01*
X0075660Y0259569D02*
X0063700Y0259569D01*
X0063700Y0257971D02*
X0075660Y0257971D01*
X0075660Y0256372D02*
X0063700Y0256372D01*
X0063700Y0254774D02*
X0075660Y0254774D01*
X0075660Y0253175D02*
X0063943Y0253175D01*
X0065943Y0251577D02*
X0075660Y0251577D01*
X0075660Y0249978D02*
X0067944Y0249978D01*
X0069944Y0248380D02*
X0075660Y0248380D01*
X0073944Y0245183D02*
X0085855Y0245183D01*
X0084579Y0246781D02*
X0071944Y0246781D01*
X0069537Y0243584D02*
X0050244Y0243584D01*
X0048648Y0241986D02*
X0071538Y0241986D01*
X0072596Y0241140D02*
X0069399Y0241140D01*
X0066880Y0238621D01*
X0066880Y0235059D01*
X0069399Y0232540D01*
X0072652Y0232540D01*
X0075352Y0229840D01*
X0077008Y0229840D01*
X0078099Y0229840D01*
X0076880Y0228621D01*
X0076880Y0225059D01*
X0078099Y0223840D01*
X0077008Y0223840D01*
X0075480Y0225368D01*
X0075480Y0228621D01*
X0072961Y0231140D01*
X0069399Y0231140D01*
X0066880Y0228621D01*
X0066880Y0226468D01*
X0066800Y0226548D01*
X0066800Y0229628D01*
X0063800Y0232628D01*
X0062960Y0233468D01*
X0062960Y0236085D01*
X0058884Y0236085D01*
X0058884Y0237438D01*
X0057531Y0237438D01*
X0057531Y0241711D01*
X0055018Y0241711D01*
X0054560Y0241588D01*
X0054150Y0241351D01*
X0053814Y0241016D01*
X0053577Y0240606D01*
X0053568Y0240570D01*
X0052727Y0241411D01*
X0048075Y0241411D01*
X0054093Y0247439D01*
X0054492Y0247041D01*
X0062821Y0247041D01*
X0063700Y0247919D01*
X0063700Y0248249D01*
X0072596Y0241140D01*
X0075945Y0243584D02*
X0087131Y0243584D01*
X0088408Y0241986D02*
X0077945Y0241986D01*
X0083714Y0240387D02*
X0088999Y0240387D01*
X0089131Y0238789D02*
X0085312Y0238789D01*
X0085480Y0237190D02*
X0090124Y0237190D01*
X0086855Y0233993D02*
X0106198Y0233993D01*
X0104600Y0235592D02*
X0085480Y0235592D01*
X0088454Y0232395D02*
X0107797Y0232395D01*
X0109396Y0230796D02*
X0090052Y0230796D01*
X0091651Y0229198D02*
X0110994Y0229198D01*
X0111916Y0227599D02*
X0093249Y0227599D01*
X0094848Y0226001D02*
X0111826Y0226001D01*
X0111816Y0224402D02*
X0096446Y0224402D01*
X0098045Y0222803D02*
X0111816Y0222803D01*
X0111816Y0221205D02*
X0099643Y0221205D01*
X0101242Y0219606D02*
X0111816Y0219606D01*
X0113916Y0216800D02*
X0113720Y0216604D01*
X0113916Y0216684D02*
X0116800Y0213800D01*
X0120800Y0217800D01*
X0121800Y0217800D01*
X0120575Y0214323D02*
X0119100Y0212847D01*
X0119100Y0193847D01*
X0117553Y0192300D01*
X0118803Y0191049D01*
X0137845Y0191098D01*
X0137847Y0191100D01*
X0138798Y0191100D01*
X0138847Y0191100D01*
X0139500Y0191753D01*
X0139500Y0215556D01*
X0139669Y0215725D01*
X0138679Y0216715D01*
X0138119Y0218068D01*
X0138119Y0219532D01*
X0138568Y0220616D01*
X0124190Y0220616D01*
X0124921Y0219885D01*
X0125481Y0218532D01*
X0125481Y0217068D01*
X0124921Y0215715D01*
X0123885Y0214679D01*
X0122532Y0214119D01*
X0121068Y0214119D01*
X0120575Y0214323D01*
X0119465Y0213212D02*
X0139500Y0213212D01*
X0139500Y0211614D02*
X0119100Y0211614D01*
X0119100Y0210015D02*
X0139500Y0210015D01*
X0139500Y0208417D02*
X0119100Y0208417D01*
X0119100Y0206818D02*
X0139500Y0206818D01*
X0139500Y0205220D02*
X0119100Y0205220D01*
X0119100Y0203621D02*
X0139500Y0203621D01*
X0139500Y0202023D02*
X0119100Y0202023D01*
X0119100Y0200424D02*
X0139500Y0200424D01*
X0139500Y0198826D02*
X0119100Y0198826D01*
X0119100Y0197227D02*
X0139500Y0197227D01*
X0139500Y0195629D02*
X0119100Y0195629D01*
X0119100Y0194030D02*
X0139500Y0194030D01*
X0139500Y0192432D02*
X0117684Y0192432D01*
X0116800Y0194800D02*
X0114800Y0192800D01*
X0113800Y0192800D01*
X0113618Y0192982D01*
X0113800Y0192800D02*
X0117853Y0188747D01*
X0138800Y0188800D01*
X0139800Y0188800D01*
X0141800Y0190800D01*
X0141800Y0214604D01*
X0143800Y0216604D01*
X0143996Y0216604D02*
X0141800Y0218800D01*
X0138985Y0216409D02*
X0125208Y0216409D01*
X0125481Y0218008D02*
X0138144Y0218008D01*
X0138150Y0219606D02*
X0125036Y0219606D01*
X0124017Y0214811D02*
X0139500Y0214811D01*
X0144100Y0207304D02*
X0144788Y0207019D01*
X0146252Y0207019D01*
X0147456Y0207517D01*
X0147456Y0185864D01*
X0148334Y0184986D01*
X0154301Y0184986D01*
X0154392Y0185076D01*
X0155115Y0185076D01*
X0171880Y0168312D01*
X0171880Y0165059D01*
X0174180Y0162759D01*
X0174180Y0155496D01*
X0176456Y0153220D01*
X0176456Y0151073D01*
X0177334Y0150194D01*
X0182072Y0150194D01*
X0182379Y0150017D01*
X0182837Y0149894D01*
X0183959Y0149894D01*
X0183959Y0153663D01*
X0183960Y0153663D01*
X0183960Y0149894D01*
X0185082Y0149894D01*
X0185540Y0150017D01*
X0185847Y0150194D01*
X0188026Y0150194D01*
X0188904Y0151073D01*
X0188904Y0156253D01*
X0188441Y0156716D01*
X0188283Y0162862D01*
X0190480Y0165059D01*
X0190480Y0168621D01*
X0187961Y0171140D01*
X0184708Y0171140D01*
X0182008Y0173840D01*
X0179261Y0173840D01*
X0180480Y0175059D01*
X0180480Y0178621D01*
X0179261Y0179840D01*
X0180352Y0179840D01*
X0181880Y0178312D01*
X0181880Y0175059D01*
X0184399Y0172540D01*
X0187961Y0172540D01*
X0190480Y0175059D01*
X0190480Y0178621D01*
X0189261Y0179840D01*
X0189932Y0179840D01*
X0202800Y0166972D01*
X0203865Y0165907D01*
X0203865Y0165053D01*
X0204744Y0164175D01*
X0209923Y0164175D01*
X0210680Y0164931D01*
X0211437Y0164175D01*
X0216616Y0164175D01*
X0216898Y0164457D01*
X0216983Y0164371D01*
X0221471Y0164371D01*
X0222576Y0165476D01*
X0222636Y0165330D01*
X0222898Y0164938D01*
X0223231Y0164605D01*
X0223622Y0164344D01*
X0224057Y0164163D01*
X0224519Y0164071D01*
X0225948Y0164071D01*
X0225948Y0167656D01*
X0226317Y0167656D01*
X0226317Y0168024D01*
X0229901Y0168024D01*
X0229901Y0169453D01*
X0229809Y0169915D01*
X0229629Y0170350D01*
X0229368Y0170742D01*
X0229035Y0171075D01*
X0228643Y0171336D01*
X0228208Y0171517D01*
X0227746Y0171608D01*
X0226317Y0171608D01*
X0226317Y0168024D01*
X0225948Y0168024D01*
X0225948Y0171608D01*
X0224519Y0171608D01*
X0224057Y0171517D01*
X0223622Y0171336D01*
X0223231Y0171075D01*
X0222898Y0170742D01*
X0222636Y0170350D01*
X0222576Y0170204D01*
X0221471Y0171308D01*
X0216983Y0171308D01*
X0216898Y0171223D01*
X0216616Y0171505D01*
X0211437Y0171505D01*
X0210680Y0170749D01*
X0209923Y0171505D01*
X0204744Y0171505D01*
X0204333Y0171095D01*
X0200628Y0174800D01*
X0203865Y0174800D01*
X0203865Y0174053D01*
X0204744Y0173175D01*
X0209923Y0173175D01*
X0210680Y0173931D01*
X0211437Y0173175D01*
X0216616Y0173175D01*
X0216898Y0173457D01*
X0216983Y0173371D01*
X0221471Y0173371D01*
X0222576Y0174476D01*
X0222636Y0174330D01*
X0222898Y0173938D01*
X0223231Y0173605D01*
X0223622Y0173344D01*
X0224057Y0173163D01*
X0224519Y0173071D01*
X0225948Y0173071D01*
X0225948Y0176656D01*
X0226317Y0176656D01*
X0226317Y0177024D01*
X0229901Y0177024D01*
X0229901Y0178453D01*
X0229809Y0178915D01*
X0229629Y0179350D01*
X0229368Y0179742D01*
X0229035Y0180075D01*
X0228643Y0180336D01*
X0228208Y0180517D01*
X0227746Y0180608D01*
X0226317Y0180608D01*
X0226317Y0177024D01*
X0225948Y0177024D01*
X0225948Y0180608D01*
X0224519Y0180608D01*
X0224057Y0180517D01*
X0223622Y0180336D01*
X0223231Y0180075D01*
X0222898Y0179742D01*
X0222636Y0179350D01*
X0222576Y0179204D01*
X0221471Y0180308D01*
X0216983Y0180308D01*
X0216898Y0180223D01*
X0216616Y0180505D01*
X0211437Y0180505D01*
X0210680Y0179749D01*
X0209923Y0180505D01*
X0204744Y0180505D01*
X0203865Y0179627D01*
X0203865Y0178800D01*
X0200628Y0178800D01*
X0190588Y0188840D01*
X0190261Y0188840D01*
X0189261Y0189840D01*
X0194932Y0189840D01*
X0199800Y0184972D01*
X0200972Y0183800D01*
X0203865Y0183800D01*
X0203865Y0183053D01*
X0204744Y0182175D01*
X0209923Y0182175D01*
X0210680Y0182931D01*
X0211437Y0182175D01*
X0216616Y0182175D01*
X0216898Y0182457D01*
X0216983Y0182371D01*
X0221471Y0182371D01*
X0222576Y0183476D01*
X0222636Y0183330D01*
X0222898Y0182938D01*
X0223231Y0182605D01*
X0223622Y0182344D01*
X0224057Y0182163D01*
X0224519Y0182071D01*
X0225948Y0182071D01*
X0225948Y0185656D01*
X0226317Y0185656D01*
X0226317Y0186024D01*
X0229901Y0186024D01*
X0229901Y0187453D01*
X0229809Y0187915D01*
X0229629Y0188350D01*
X0229368Y0188742D01*
X0229035Y0189075D01*
X0228643Y0189336D01*
X0228208Y0189517D01*
X0227746Y0189608D01*
X0226317Y0189608D01*
X0226317Y0186024D01*
X0225948Y0186024D01*
X0225948Y0189608D01*
X0224519Y0189608D01*
X0224057Y0189517D01*
X0223622Y0189336D01*
X0223231Y0189075D01*
X0222898Y0188742D01*
X0222636Y0188350D01*
X0222576Y0188204D01*
X0221471Y0189308D01*
X0216983Y0189308D01*
X0216898Y0189223D01*
X0216616Y0189505D01*
X0211437Y0189505D01*
X0210680Y0188749D01*
X0209923Y0189505D01*
X0204744Y0189505D01*
X0203865Y0188627D01*
X0203865Y0187800D01*
X0202628Y0187800D01*
X0196588Y0193840D01*
X0189261Y0193840D01*
X0190261Y0194840D01*
X0199932Y0194840D01*
X0200800Y0193972D01*
X0201972Y0192800D01*
X0203865Y0192800D01*
X0203865Y0192053D01*
X0204744Y0191175D01*
X0209923Y0191175D01*
X0210680Y0191931D01*
X0211437Y0191175D01*
X0216616Y0191175D01*
X0216898Y0191457D01*
X0216983Y0191371D01*
X0221471Y0191371D01*
X0222576Y0192476D01*
X0222636Y0192330D01*
X0222898Y0191938D01*
X0223231Y0191605D01*
X0223622Y0191344D01*
X0224057Y0191163D01*
X0224519Y0191071D01*
X0225948Y0191071D01*
X0225948Y0194656D01*
X0226317Y0194656D01*
X0226317Y0195024D01*
X0229901Y0195024D01*
X0229901Y0196453D01*
X0229809Y0196915D01*
X0229629Y0197350D01*
X0229368Y0197742D01*
X0229035Y0198075D01*
X0228643Y0198336D01*
X0228208Y0198517D01*
X0227746Y0198608D01*
X0226317Y0198608D01*
X0226317Y0195024D01*
X0225948Y0195024D01*
X0225948Y0198608D01*
X0224519Y0198608D01*
X0224057Y0198517D01*
X0223622Y0198336D01*
X0223231Y0198075D01*
X0222898Y0197742D01*
X0222636Y0197350D01*
X0222576Y0197204D01*
X0221471Y0198308D01*
X0216983Y0198308D01*
X0216898Y0198223D01*
X0216616Y0198505D01*
X0211437Y0198505D01*
X0210680Y0197749D01*
X0209923Y0198505D01*
X0204744Y0198505D01*
X0203865Y0197627D01*
X0203865Y0196800D01*
X0203628Y0196800D01*
X0201588Y0198840D01*
X0190261Y0198840D01*
X0187961Y0201140D01*
X0184708Y0201140D01*
X0184008Y0201840D01*
X0184708Y0202540D01*
X0187961Y0202540D01*
X0190480Y0205059D01*
X0190480Y0208621D01*
X0187961Y0211140D01*
X0184399Y0211140D01*
X0181880Y0208621D01*
X0181880Y0205368D01*
X0181336Y0204824D01*
X0180245Y0204824D01*
X0180480Y0205059D01*
X0180480Y0208621D01*
X0179261Y0209840D01*
X0182008Y0209840D01*
X0184708Y0212540D01*
X0187961Y0212540D01*
X0190480Y0215059D01*
X0190480Y0218621D01*
X0189261Y0219840D01*
X0190025Y0219840D01*
X0190166Y0219737D01*
X0190833Y0219840D01*
X0191508Y0219840D01*
X0191631Y0219963D01*
X0191803Y0219989D01*
X0192202Y0220534D01*
X0192680Y0221012D01*
X0192680Y0221185D01*
X0195530Y0225073D01*
X0195530Y0220669D01*
X0196409Y0219790D01*
X0197402Y0219790D01*
X0204097Y0208840D01*
X0198884Y0208840D01*
X0197414Y0208231D01*
X0196289Y0207106D01*
X0195680Y0205636D01*
X0195680Y0204044D01*
X0196289Y0202574D01*
X0197414Y0201449D01*
X0198884Y0200840D01*
X0204664Y0200840D01*
X0204664Y0199494D01*
X0205543Y0198616D01*
X0213872Y0198616D01*
X0214751Y0199494D01*
X0214751Y0210186D01*
X0213872Y0211064D01*
X0209067Y0211064D01*
X0203296Y0220503D01*
X0204009Y0219790D01*
X0208351Y0219790D01*
X0208401Y0219840D01*
X0212685Y0219840D01*
X0212491Y0219503D01*
X0212368Y0219045D01*
X0212368Y0217024D01*
X0216149Y0217024D01*
X0216149Y0216656D01*
X0212368Y0216656D01*
X0212368Y0214635D01*
X0212491Y0214177D01*
X0212728Y0213766D01*
X0213063Y0213431D01*
X0213473Y0213194D01*
X0213931Y0213071D01*
X0216149Y0213071D01*
X0216149Y0216656D01*
X0216518Y0216656D01*
X0216518Y0213071D01*
X0218736Y0213071D01*
X0219194Y0213194D01*
X0219604Y0213431D01*
X0219892Y0213719D01*
X0220240Y0213371D01*
X0223652Y0213371D01*
X0223652Y0211064D01*
X0221488Y0211064D01*
X0220609Y0210186D01*
X0220609Y0199494D01*
X0221488Y0198616D01*
X0229817Y0198616D01*
X0230696Y0199494D01*
X0230696Y0210186D01*
X0229817Y0211064D01*
X0227652Y0211064D01*
X0227652Y0215042D01*
X0226692Y0216003D01*
X0226692Y0217535D01*
X0226900Y0217744D01*
X0226900Y0222650D01*
X0227268Y0222383D01*
X0227997Y0222012D01*
X0228775Y0221759D01*
X0229582Y0221631D01*
X0229659Y0221631D01*
X0229659Y0226495D01*
X0230323Y0226495D01*
X0230323Y0221631D01*
X0230400Y0221631D01*
X0231208Y0221759D01*
X0231986Y0222012D01*
X0232714Y0222383D01*
X0233376Y0222864D01*
X0233954Y0223442D01*
X0234000Y0223505D01*
X0234000Y0070100D01*
X0211469Y0070100D01*
X0211104Y0070465D01*
X0209406Y0070465D01*
X0208205Y0069264D01*
X0208205Y0040502D01*
X0209071Y0039002D01*
X0210570Y0038136D01*
X0217063Y0038136D01*
X0217063Y0035583D01*
X0200547Y0035583D01*
X0199347Y0034382D01*
X0199347Y0031366D01*
X0199065Y0031647D01*
X0155351Y0031647D01*
X0155044Y0031824D01*
X0154586Y0031947D01*
X0153168Y0031947D01*
X0151750Y0031947D01*
X0151593Y0031905D01*
X0151437Y0031947D01*
X0150019Y0031947D01*
X0150019Y0021289D01*
X0153168Y0021289D01*
X0153168Y0031947D01*
X0153168Y0021289D01*
X0153168Y0021289D01*
X0153168Y0021289D01*
X0150187Y0021289D01*
X0150019Y0021289D01*
X0150019Y0021289D01*
X0150019Y0021289D01*
X0150019Y0031947D01*
X0148600Y0031947D01*
X0148444Y0031905D01*
X0148287Y0031947D01*
X0146869Y0031947D01*
X0146869Y0021289D01*
X0146869Y0021289D01*
X0146869Y0031947D01*
X0145451Y0031947D01*
X0145294Y0031905D01*
X0145137Y0031947D01*
X0143719Y0031947D01*
X0143407Y0031947D01*
X0143407Y0041626D01*
X0142206Y0042827D01*
X0131059Y0042827D01*
X0129858Y0041626D01*
X0129858Y0031818D01*
X0129847Y0031824D01*
X0129389Y0031947D01*
X0127971Y0031947D01*
X0126553Y0031947D01*
X0126397Y0031905D01*
X0126240Y0031947D01*
X0124822Y0031947D01*
X0124822Y0021289D01*
X0127971Y0021289D01*
X0127971Y0021289D01*
X0127971Y0031947D01*
X0127971Y0021289D01*
X0127971Y0021289D01*
X0124990Y0021289D01*
X0124822Y0021289D01*
X0124822Y0021289D01*
X0124822Y0021289D01*
X0124822Y0031947D01*
X0123404Y0031947D01*
X0123247Y0031905D01*
X0123090Y0031947D01*
X0121672Y0031947D01*
X0120254Y0031947D01*
X0120097Y0031905D01*
X0119941Y0031947D01*
X0118523Y0031947D01*
X0118523Y0021289D01*
X0121672Y0021289D01*
X0121672Y0031947D01*
X0121672Y0021289D01*
X0121672Y0021289D01*
X0121672Y0021289D01*
X0118691Y0021289D01*
X0118523Y0021289D01*
X0118523Y0021289D01*
X0118522Y0021289D01*
X0118522Y0031947D01*
X0117104Y0031947D01*
X0116647Y0031824D01*
X0116339Y0031647D01*
X0114680Y0031647D01*
X0114680Y0041504D01*
X0131247Y0056840D01*
X0166476Y0056840D01*
X0167946Y0057449D01*
X0201946Y0091449D01*
X0203071Y0092574D01*
X0203680Y0094044D01*
X0203680Y0106541D01*
X0203868Y0106541D01*
X0204747Y0107419D01*
X0204747Y0121261D01*
X0203868Y0122139D01*
X0197399Y0122139D01*
X0193808Y0126134D01*
X0193771Y0126223D01*
X0193344Y0126649D01*
X0192941Y0127098D01*
X0192854Y0127139D01*
X0192786Y0127207D01*
X0192229Y0127438D01*
X0191685Y0127698D01*
X0191589Y0127703D01*
X0191500Y0127740D01*
X0190897Y0127740D01*
X0190294Y0127772D01*
X0190204Y0127740D01*
X0187836Y0127740D01*
X0188701Y0128605D01*
X0189261Y0129958D01*
X0189261Y0131422D01*
X0188701Y0132775D01*
X0188301Y0133175D01*
X0188616Y0133175D01*
X0189495Y0134053D01*
X0189495Y0139627D01*
X0188616Y0140505D01*
X0186605Y0140505D01*
X0186586Y0140549D01*
X0188026Y0140549D01*
X0188837Y0141360D01*
X0190015Y0141059D01*
X0190015Y0139597D01*
X0190599Y0139012D01*
X0190409Y0138902D01*
X0190074Y0138567D01*
X0189837Y0138157D01*
X0189715Y0137699D01*
X0189715Y0135678D01*
X0193496Y0135678D01*
X0193496Y0135309D01*
X0193864Y0135309D01*
X0193864Y0131725D01*
X0196082Y0131725D01*
X0196540Y0131848D01*
X0196951Y0132085D01*
X0197286Y0132420D01*
X0197523Y0132830D01*
X0197645Y0133288D01*
X0197645Y0135309D01*
X0193864Y0135309D01*
X0193864Y0135678D01*
X0197645Y0135678D01*
X0197645Y0137699D01*
X0197523Y0138157D01*
X0197286Y0138567D01*
X0196951Y0138902D01*
X0196761Y0139012D01*
X0197345Y0139597D01*
X0197345Y0144776D01*
X0196467Y0145655D01*
X0190893Y0145655D01*
X0190342Y0145104D01*
X0188904Y0145472D01*
X0188904Y0146607D01*
X0188026Y0147486D01*
X0177334Y0147486D01*
X0176456Y0146607D01*
X0176456Y0141427D01*
X0177334Y0140549D01*
X0178774Y0140549D01*
X0178755Y0140505D01*
X0176744Y0140505D01*
X0175865Y0139627D01*
X0175865Y0134053D01*
X0176731Y0133187D01*
X0176239Y0132695D01*
X0175679Y0131342D01*
X0175679Y0129878D01*
X0176239Y0128525D01*
X0177024Y0127740D01*
X0162982Y0127740D01*
X0162770Y0127952D01*
X0161464Y0127952D01*
X0154763Y0134654D01*
X0153476Y0135186D01*
X0152758Y0135186D01*
X0152577Y0135332D01*
X0152068Y0135840D01*
X0151943Y0135840D01*
X0151845Y0135919D01*
X0151130Y0135840D01*
X0134282Y0135840D01*
X0134116Y0136005D01*
X0128937Y0136005D01*
X0128180Y0135249D01*
X0127423Y0136005D01*
X0122244Y0136005D01*
X0121365Y0135127D01*
X0121365Y0129553D01*
X0122244Y0128675D01*
X0122734Y0128675D01*
X0122734Y0128005D01*
X0122244Y0128005D01*
X0121365Y0127127D01*
X0121365Y0122925D01*
X0119626Y0124663D01*
X0119626Y0128175D01*
X0120116Y0128175D01*
X0120995Y0129053D01*
X0120995Y0134627D01*
X0120116Y0135505D01*
X0114937Y0135505D01*
X0114180Y0134749D01*
X0113915Y0135014D01*
X0115443Y0139928D01*
X0115680Y0140165D01*
X0115680Y0140690D01*
X0115711Y0140790D01*
X0117980Y0143059D01*
X0117980Y0146312D01*
X0120680Y0149012D01*
X0120680Y0151759D01*
X0121899Y0150540D01*
X0125461Y0150540D01*
X0125696Y0150775D01*
X0125696Y0149684D01*
X0125152Y0149140D01*
X0121899Y0149140D01*
X0119380Y0146621D01*
X0119380Y0143059D01*
X0121899Y0140540D01*
X0125461Y0140540D01*
X0127980Y0143059D01*
X0127980Y0146312D01*
X0128680Y0147012D01*
X0129380Y0146312D01*
X0129380Y0143059D01*
X0131899Y0140540D01*
X0135461Y0140540D01*
X0137980Y0143059D01*
X0137980Y0146621D01*
X0135461Y0149140D01*
X0132208Y0149140D01*
X0131664Y0149684D01*
X0131664Y0150775D01*
X0131899Y0150540D01*
X0135461Y0150540D01*
X0136680Y0151759D01*
X0136680Y0149012D01*
X0139380Y0146312D01*
X0139380Y0143059D01*
X0141899Y0140540D01*
X0145461Y0140540D01*
X0147980Y0143059D01*
X0147980Y0146621D01*
X0145461Y0149140D01*
X0142208Y0149140D01*
X0140680Y0150668D01*
X0140680Y0151335D01*
X0141775Y0150240D01*
X0143580Y0150240D01*
X0143580Y0154740D01*
X0143780Y0154740D01*
X0143780Y0150240D01*
X0145585Y0150240D01*
X0146680Y0151335D01*
X0146680Y0149012D01*
X0149380Y0146312D01*
X0149380Y0143059D01*
X0151899Y0140540D01*
X0155461Y0140540D01*
X0157980Y0143059D01*
X0157980Y0146621D01*
X0155461Y0149140D01*
X0152208Y0149140D01*
X0150680Y0150668D01*
X0150680Y0151759D01*
X0151899Y0150540D01*
X0155461Y0150540D01*
X0156680Y0151759D01*
X0156680Y0149012D01*
X0159380Y0146312D01*
X0159380Y0143059D01*
X0161899Y0140540D01*
X0165461Y0140540D01*
X0167980Y0143059D01*
X0167980Y0146621D01*
X0165461Y0149140D01*
X0162208Y0149140D01*
X0160680Y0150668D01*
X0160680Y0151759D01*
X0161899Y0150540D01*
X0165461Y0150540D01*
X0167980Y0153059D01*
X0167980Y0156621D01*
X0165461Y0159140D01*
X0162208Y0159140D01*
X0145444Y0175905D01*
X0145444Y0176128D01*
X0145534Y0176219D01*
X0145534Y0178323D01*
X0145560Y0178349D01*
X0145560Y0182054D01*
X0146581Y0183075D01*
X0147141Y0184428D01*
X0147141Y0185892D01*
X0146581Y0187245D01*
X0145545Y0188281D01*
X0144192Y0188841D01*
X0143094Y0188841D01*
X0144100Y0189847D01*
X0144100Y0207304D01*
X0144100Y0206818D02*
X0147456Y0206818D01*
X0147456Y0205220D02*
X0144100Y0205220D01*
X0144100Y0203621D02*
X0147456Y0203621D01*
X0147456Y0202023D02*
X0144100Y0202023D01*
X0144100Y0200424D02*
X0147456Y0200424D01*
X0147456Y0198826D02*
X0144100Y0198826D01*
X0144100Y0197227D02*
X0147456Y0197227D01*
X0147456Y0195629D02*
X0144100Y0195629D01*
X0144100Y0194030D02*
X0147456Y0194030D01*
X0147456Y0192432D02*
X0144100Y0192432D01*
X0144100Y0190833D02*
X0147456Y0190833D01*
X0147456Y0189235D02*
X0143487Y0189235D01*
X0146190Y0187636D02*
X0147456Y0187636D01*
X0147456Y0186038D02*
X0147081Y0186038D01*
X0147141Y0184439D02*
X0155752Y0184439D01*
X0157351Y0182841D02*
X0146347Y0182841D01*
X0145560Y0181242D02*
X0158949Y0181242D01*
X0160548Y0179644D02*
X0145560Y0179644D01*
X0145534Y0178045D02*
X0162146Y0178045D01*
X0163745Y0176447D02*
X0145534Y0176447D01*
X0146500Y0174848D02*
X0165343Y0174848D01*
X0166942Y0173250D02*
X0148099Y0173250D01*
X0149697Y0171651D02*
X0168540Y0171651D01*
X0170139Y0170053D02*
X0151296Y0170053D01*
X0152894Y0168454D02*
X0171737Y0168454D01*
X0171880Y0166856D02*
X0154493Y0166856D01*
X0156091Y0165257D02*
X0171880Y0165257D01*
X0173280Y0163659D02*
X0157690Y0163659D01*
X0159288Y0162060D02*
X0174180Y0162060D01*
X0174180Y0160462D02*
X0160887Y0160462D01*
X0165738Y0158863D02*
X0174180Y0158863D01*
X0174180Y0157265D02*
X0167337Y0157265D01*
X0167980Y0155666D02*
X0174180Y0155666D01*
X0175608Y0154068D02*
X0167980Y0154068D01*
X0167390Y0152469D02*
X0176456Y0152469D01*
X0176658Y0150870D02*
X0165792Y0150870D01*
X0166928Y0147673D02*
X0234000Y0147673D01*
X0234000Y0146075D02*
X0188904Y0146075D01*
X0188756Y0141279D02*
X0189153Y0141279D01*
X0189441Y0139681D02*
X0190015Y0139681D01*
X0189817Y0138082D02*
X0189495Y0138082D01*
X0189495Y0136484D02*
X0189715Y0136484D01*
X0189715Y0135309D02*
X0189715Y0133288D01*
X0189837Y0132830D01*
X0190074Y0132420D01*
X0190409Y0132085D01*
X0190820Y0131848D01*
X0191278Y0131725D01*
X0193496Y0131725D01*
X0193496Y0135309D01*
X0189715Y0135309D01*
X0189715Y0134885D02*
X0189495Y0134885D01*
X0189715Y0133287D02*
X0188728Y0133287D01*
X0189151Y0131688D02*
X0234000Y0131688D01*
X0234000Y0130090D02*
X0189261Y0130090D01*
X0188587Y0128491D02*
X0234000Y0128491D01*
X0234000Y0126893D02*
X0193125Y0126893D01*
X0194562Y0125294D02*
X0234000Y0125294D01*
X0234000Y0123696D02*
X0195999Y0123696D01*
X0190898Y0118900D02*
X0182700Y0118900D01*
X0182700Y0117302D02*
X0192335Y0117302D01*
X0193772Y0115703D02*
X0182700Y0115703D01*
X0182700Y0114105D02*
X0194660Y0114105D01*
X0194660Y0112506D02*
X0182700Y0112506D01*
X0182700Y0110908D02*
X0194660Y0110908D01*
X0194660Y0109309D02*
X0182700Y0109309D01*
X0182700Y0107711D02*
X0194660Y0107711D01*
X0195680Y0106112D02*
X0176982Y0106112D01*
X0176265Y0104514D02*
X0195680Y0104514D01*
X0195680Y0102915D02*
X0192262Y0102915D01*
X0191946Y0103231D02*
X0190476Y0103840D01*
X0188884Y0103840D01*
X0187414Y0103231D01*
X0160023Y0075840D01*
X0125884Y0075840D01*
X0124414Y0075231D01*
X0123289Y0074106D01*
X0122680Y0072636D01*
X0122680Y0071044D01*
X0123289Y0069574D01*
X0124414Y0068449D01*
X0125884Y0067840D01*
X0162476Y0067840D01*
X0163946Y0068449D01*
X0165071Y0069574D01*
X0193071Y0097574D01*
X0193680Y0099044D01*
X0193680Y0100636D01*
X0193071Y0102106D01*
X0191946Y0103231D01*
X0193398Y0101317D02*
X0195680Y0101317D01*
X0195680Y0099718D02*
X0193680Y0099718D01*
X0193297Y0098120D02*
X0195680Y0098120D01*
X0195680Y0096521D02*
X0192018Y0096521D01*
X0190419Y0094923D02*
X0194106Y0094923D01*
X0192507Y0093324D02*
X0188821Y0093324D01*
X0187222Y0091726D02*
X0190909Y0091726D01*
X0189310Y0090127D02*
X0185624Y0090127D01*
X0184025Y0088529D02*
X0187712Y0088529D01*
X0186113Y0086930D02*
X0182427Y0086930D01*
X0180828Y0085332D02*
X0184515Y0085332D01*
X0182916Y0083733D02*
X0179230Y0083733D01*
X0177631Y0082134D02*
X0181318Y0082134D01*
X0179719Y0080536D02*
X0176033Y0080536D01*
X0174434Y0078937D02*
X0178121Y0078937D01*
X0176522Y0077339D02*
X0172836Y0077339D01*
X0171237Y0075740D02*
X0174924Y0075740D01*
X0173325Y0074142D02*
X0169639Y0074142D01*
X0168040Y0072543D02*
X0171727Y0072543D01*
X0170128Y0070945D02*
X0166442Y0070945D01*
X0164843Y0069346D02*
X0168530Y0069346D01*
X0166931Y0067748D02*
X0068979Y0067748D01*
X0068979Y0069346D02*
X0123517Y0069346D01*
X0122721Y0070945D02*
X0068979Y0070945D01*
X0068979Y0072543D02*
X0122680Y0072543D01*
X0123325Y0074142D02*
X0068979Y0074142D01*
X0068979Y0075740D02*
X0125644Y0075740D01*
X0128182Y0064551D02*
X0068979Y0064551D01*
X0068979Y0066149D02*
X0165333Y0066149D01*
X0170252Y0059755D02*
X0208205Y0059755D01*
X0208205Y0058157D02*
X0168654Y0058157D01*
X0171851Y0061354D02*
X0208205Y0061354D01*
X0208205Y0062952D02*
X0173449Y0062952D01*
X0175048Y0064551D02*
X0208205Y0064551D01*
X0208205Y0066149D02*
X0176646Y0066149D01*
X0178245Y0067748D02*
X0208205Y0067748D01*
X0208287Y0069346D02*
X0179843Y0069346D01*
X0181442Y0070945D02*
X0234000Y0070945D01*
X0234000Y0072543D02*
X0183040Y0072543D01*
X0184639Y0074142D02*
X0234000Y0074142D01*
X0234000Y0075740D02*
X0186237Y0075740D01*
X0187836Y0077339D02*
X0234000Y0077339D01*
X0234000Y0078937D02*
X0189434Y0078937D01*
X0191033Y0080536D02*
X0234000Y0080536D01*
X0234000Y0082134D02*
X0192631Y0082134D01*
X0194230Y0083733D02*
X0234000Y0083733D01*
X0234000Y0085332D02*
X0195828Y0085332D01*
X0197427Y0086930D02*
X0234000Y0086930D01*
X0234000Y0088529D02*
X0199025Y0088529D01*
X0200624Y0090127D02*
X0234000Y0090127D01*
X0234000Y0091726D02*
X0202222Y0091726D01*
X0203382Y0093324D02*
X0234000Y0093324D01*
X0234000Y0094923D02*
X0203680Y0094923D01*
X0203680Y0096521D02*
X0234000Y0096521D01*
X0234000Y0098120D02*
X0203680Y0098120D01*
X0203680Y0099718D02*
X0234000Y0099718D01*
X0234000Y0101317D02*
X0203680Y0101317D01*
X0203680Y0102915D02*
X0234000Y0102915D01*
X0234000Y0104514D02*
X0203680Y0104514D01*
X0203680Y0106112D02*
X0234000Y0106112D01*
X0234000Y0107711D02*
X0204747Y0107711D01*
X0204747Y0109309D02*
X0234000Y0109309D01*
X0234000Y0110908D02*
X0204747Y0110908D01*
X0204747Y0112506D02*
X0234000Y0112506D01*
X0234000Y0114105D02*
X0204747Y0114105D01*
X0204747Y0115703D02*
X0234000Y0115703D01*
X0234000Y0117302D02*
X0204747Y0117302D01*
X0204747Y0118900D02*
X0234000Y0118900D01*
X0234000Y0120499D02*
X0204747Y0120499D01*
X0203910Y0122097D02*
X0234000Y0122097D01*
X0234000Y0133287D02*
X0197645Y0133287D01*
X0197645Y0134885D02*
X0234000Y0134885D01*
X0234000Y0136484D02*
X0197645Y0136484D01*
X0197543Y0138082D02*
X0234000Y0138082D01*
X0234000Y0139681D02*
X0197345Y0139681D01*
X0197345Y0141279D02*
X0234000Y0141279D01*
X0234000Y0142878D02*
X0197345Y0142878D01*
X0197345Y0144476D02*
X0234000Y0144476D01*
X0234000Y0149272D02*
X0162076Y0149272D01*
X0161568Y0150870D02*
X0160680Y0150870D01*
X0158018Y0147673D02*
X0156928Y0147673D01*
X0156680Y0149272D02*
X0152076Y0149272D01*
X0151568Y0150870D02*
X0150680Y0150870D01*
X0148018Y0147673D02*
X0146928Y0147673D01*
X0146680Y0149272D02*
X0142076Y0149272D01*
X0141144Y0150870D02*
X0140680Y0150870D01*
X0143580Y0150870D02*
X0143780Y0150870D01*
X0143780Y0152469D02*
X0143580Y0152469D01*
X0143580Y0154068D02*
X0143780Y0154068D01*
X0143780Y0154940D02*
X0143580Y0154940D01*
X0143580Y0159440D01*
X0141775Y0159440D01*
X0140680Y0158345D01*
X0140680Y0162668D01*
X0139508Y0163840D01*
X0135601Y0167747D01*
X0135601Y0170090D01*
X0146680Y0159012D01*
X0146680Y0158345D01*
X0145585Y0159440D01*
X0143780Y0159440D01*
X0143780Y0154940D01*
X0143780Y0155666D02*
X0143580Y0155666D01*
X0143580Y0157265D02*
X0143780Y0157265D01*
X0143780Y0158863D02*
X0143580Y0158863D01*
X0145230Y0160462D02*
X0140680Y0160462D01*
X0140680Y0162060D02*
X0143631Y0162060D01*
X0142033Y0163659D02*
X0139690Y0163659D01*
X0140434Y0165257D02*
X0138091Y0165257D01*
X0138836Y0166856D02*
X0136493Y0166856D01*
X0137237Y0168454D02*
X0135601Y0168454D01*
X0135601Y0170053D02*
X0135639Y0170053D01*
X0140680Y0158863D02*
X0141198Y0158863D01*
X0146162Y0158863D02*
X0146680Y0158863D01*
X0146680Y0150870D02*
X0146216Y0150870D01*
X0147980Y0146075D02*
X0149380Y0146075D01*
X0149380Y0144476D02*
X0147980Y0144476D01*
X0147799Y0142878D02*
X0149561Y0142878D01*
X0151159Y0141279D02*
X0146201Y0141279D01*
X0141159Y0141279D02*
X0136201Y0141279D01*
X0137799Y0142878D02*
X0139561Y0142878D01*
X0139380Y0144476D02*
X0137980Y0144476D01*
X0137980Y0146075D02*
X0139380Y0146075D01*
X0138018Y0147673D02*
X0136928Y0147673D01*
X0136680Y0149272D02*
X0132076Y0149272D01*
X0129380Y0146075D02*
X0127980Y0146075D01*
X0127980Y0144476D02*
X0129380Y0144476D01*
X0129561Y0142878D02*
X0127799Y0142878D01*
X0126201Y0141279D02*
X0131159Y0141279D01*
X0125284Y0149272D02*
X0120680Y0149272D01*
X0120680Y0150870D02*
X0121568Y0150870D01*
X0120432Y0147673D02*
X0119342Y0147673D01*
X0119380Y0146075D02*
X0117980Y0146075D01*
X0117980Y0144476D02*
X0119380Y0144476D01*
X0119561Y0142878D02*
X0117799Y0142878D01*
X0116201Y0141279D02*
X0121159Y0141279D01*
X0115366Y0139681D02*
X0175919Y0139681D01*
X0175865Y0138082D02*
X0114869Y0138082D01*
X0114372Y0136484D02*
X0175865Y0136484D01*
X0175865Y0134885D02*
X0154203Y0134885D01*
X0156129Y0133287D02*
X0176631Y0133287D01*
X0175822Y0131688D02*
X0157728Y0131688D01*
X0159326Y0130090D02*
X0175679Y0130090D01*
X0176273Y0128491D02*
X0160925Y0128491D01*
X0155821Y0123696D02*
X0151948Y0123696D01*
X0151948Y0122591D02*
X0151948Y0124809D01*
X0148364Y0124809D01*
X0148364Y0121028D01*
X0150385Y0121028D01*
X0150843Y0121151D01*
X0151254Y0121388D01*
X0151589Y0121723D01*
X0151826Y0122133D01*
X0151948Y0122591D01*
X0151805Y0122097D02*
X0155021Y0122097D01*
X0156220Y0123297D02*
X0152804Y0119880D01*
X0147660Y0119880D01*
X0146498Y0118718D01*
X0146185Y0119030D01*
X0145775Y0119267D01*
X0145317Y0119390D01*
X0142480Y0119390D01*
X0142480Y0114640D01*
X0140880Y0114640D01*
X0140880Y0119390D01*
X0138043Y0119390D01*
X0137585Y0119267D01*
X0137175Y0119030D01*
X0136840Y0118695D01*
X0136603Y0118285D01*
X0136480Y0117827D01*
X0136480Y0114640D01*
X0140880Y0114640D01*
X0140880Y0113040D01*
X0142480Y0113040D01*
X0142480Y0108290D01*
X0145317Y0108290D01*
X0145775Y0108413D01*
X0146185Y0108650D01*
X0146520Y0108985D01*
X0146757Y0109395D01*
X0146880Y0109853D01*
X0146880Y0112470D01*
X0147610Y0111740D01*
X0147630Y0111740D01*
X0147630Y0108679D01*
X0148409Y0107900D01*
X0135376Y0107900D01*
X0135670Y0108195D01*
X0135907Y0108605D01*
X0136030Y0109063D01*
X0136030Y0109900D01*
X0136030Y0110737D01*
X0135907Y0111195D01*
X0135730Y0111502D01*
X0135730Y0119001D01*
X0134851Y0119880D01*
X0133100Y0119880D01*
X0133080Y0119900D01*
X0133040Y0119940D01*
X0131300Y0119940D01*
X0131260Y0119900D01*
X0127670Y0119900D01*
X0126934Y0120636D01*
X0126934Y0120675D01*
X0127423Y0120675D01*
X0128008Y0121259D01*
X0128118Y0121069D01*
X0128453Y0120734D01*
X0128863Y0120497D01*
X0129321Y0120375D01*
X0131342Y0120375D01*
X0131342Y0124156D01*
X0131711Y0124156D01*
X0131711Y0124524D01*
X0135295Y0124524D01*
X0135295Y0126742D01*
X0135172Y0127200D01*
X0134935Y0127611D01*
X0134706Y0127840D01*
X0136030Y0127840D01*
X0135911Y0127396D01*
X0135911Y0125178D01*
X0139496Y0125178D01*
X0139496Y0124809D01*
X0139864Y0124809D01*
X0139864Y0121028D01*
X0141885Y0121028D01*
X0142343Y0121151D01*
X0142754Y0121388D01*
X0143089Y0121723D01*
X0143326Y0122133D01*
X0143448Y0122591D01*
X0143448Y0124809D01*
X0139864Y0124809D01*
X0139864Y0125178D01*
X0143448Y0125178D01*
X0143448Y0127396D01*
X0143329Y0127840D01*
X0144530Y0127840D01*
X0144411Y0127396D01*
X0144411Y0125178D01*
X0147996Y0125178D01*
X0147996Y0124809D01*
X0148364Y0124809D01*
X0148364Y0125178D01*
X0151948Y0125178D01*
X0151948Y0127396D01*
X0151885Y0127631D01*
X0156220Y0123297D01*
X0154222Y0125294D02*
X0151948Y0125294D01*
X0151948Y0126893D02*
X0152624Y0126893D01*
X0147996Y0124809D02*
X0147996Y0121028D01*
X0145975Y0121028D01*
X0145517Y0121151D01*
X0145106Y0121388D01*
X0144771Y0121723D01*
X0144534Y0122133D01*
X0144411Y0122591D01*
X0144411Y0124809D01*
X0147996Y0124809D01*
X0147996Y0123696D02*
X0148364Y0123696D01*
X0148364Y0122097D02*
X0147996Y0122097D01*
X0146680Y0118900D02*
X0146315Y0118900D01*
X0144555Y0122097D02*
X0143305Y0122097D01*
X0143448Y0123696D02*
X0144411Y0123696D01*
X0144411Y0125294D02*
X0143448Y0125294D01*
X0143448Y0126893D02*
X0144411Y0126893D01*
X0147180Y0131840D02*
X0148180Y0131686D01*
X0139496Y0124809D02*
X0139496Y0121028D01*
X0137475Y0121028D01*
X0137017Y0121151D01*
X0136606Y0121388D01*
X0136271Y0121723D01*
X0136034Y0122133D01*
X0135911Y0122591D01*
X0135911Y0124809D01*
X0139496Y0124809D01*
X0139496Y0123696D02*
X0139864Y0123696D01*
X0139864Y0122097D02*
X0139496Y0122097D01*
X0136055Y0122097D02*
X0135295Y0122097D01*
X0135295Y0121938D02*
X0135295Y0124156D01*
X0131711Y0124156D01*
X0131711Y0120375D01*
X0133732Y0120375D01*
X0134190Y0120497D01*
X0134600Y0120734D01*
X0134935Y0121069D01*
X0135172Y0121480D01*
X0135295Y0121938D01*
X0135295Y0123696D02*
X0135911Y0123696D01*
X0135911Y0125294D02*
X0135295Y0125294D01*
X0135255Y0126893D02*
X0135911Y0126893D01*
X0131711Y0123696D02*
X0131342Y0123696D01*
X0131342Y0122097D02*
X0131711Y0122097D01*
X0131711Y0120499D02*
X0131342Y0120499D01*
X0128861Y0120499D02*
X0127071Y0120499D01*
X0121365Y0123696D02*
X0120594Y0123696D01*
X0121365Y0125294D02*
X0119626Y0125294D01*
X0119626Y0126893D02*
X0121365Y0126893D01*
X0120433Y0128491D02*
X0122734Y0128491D01*
X0121365Y0130090D02*
X0120995Y0130090D01*
X0120995Y0131688D02*
X0121365Y0131688D01*
X0121365Y0133287D02*
X0120995Y0133287D01*
X0120736Y0134885D02*
X0121365Y0134885D01*
X0114620Y0128491D02*
X0113740Y0128491D01*
X0115426Y0126893D02*
X0105326Y0126893D01*
X0105558Y0125294D02*
X0115426Y0125294D01*
X0115426Y0123696D02*
X0107157Y0123696D01*
X0108755Y0122097D02*
X0116253Y0122097D01*
X0111237Y0120499D02*
X0110354Y0120499D01*
X0110760Y0116840D02*
X0103026Y0124574D01*
X0103026Y0131840D01*
X0106495Y0131688D02*
X0107365Y0131688D01*
X0107365Y0130090D02*
X0106495Y0130090D01*
X0105933Y0128491D02*
X0107927Y0128491D01*
X0107365Y0133287D02*
X0106495Y0133287D01*
X0106236Y0134885D02*
X0107624Y0134885D01*
X0110183Y0136484D02*
X0090089Y0136484D01*
X0089180Y0138082D02*
X0110680Y0138082D01*
X0111177Y0139681D02*
X0089180Y0139681D01*
X0089180Y0141279D02*
X0090735Y0141279D01*
X0093580Y0141279D02*
X0093780Y0141279D01*
X0093780Y0140240D02*
X0095585Y0140240D01*
X0098280Y0142935D01*
X0098280Y0144740D01*
X0093780Y0144740D01*
X0093780Y0140240D01*
X0093780Y0142878D02*
X0093580Y0142878D01*
X0093580Y0144476D02*
X0093780Y0144476D01*
X0093780Y0144940D02*
X0098280Y0144940D01*
X0098280Y0146745D01*
X0095585Y0149440D01*
X0093780Y0149440D01*
X0093780Y0144940D01*
X0093780Y0146075D02*
X0093580Y0146075D01*
X0093580Y0147673D02*
X0093780Y0147673D01*
X0093780Y0149272D02*
X0093580Y0149272D01*
X0091607Y0149272D02*
X0088101Y0149272D01*
X0089180Y0147673D02*
X0090008Y0147673D01*
X0091568Y0150870D02*
X0086800Y0150870D01*
X0086800Y0152469D02*
X0089970Y0152469D01*
X0089380Y0154068D02*
X0086800Y0154068D01*
X0086800Y0155666D02*
X0089380Y0155666D01*
X0090023Y0157265D02*
X0086800Y0157265D01*
X0091622Y0158863D02*
X0081568Y0158863D01*
X0084080Y0163659D02*
X0099529Y0163659D01*
X0101127Y0165257D02*
X0085480Y0165257D01*
X0085480Y0166856D02*
X0102726Y0166856D01*
X0104324Y0168454D02*
X0085623Y0168454D01*
X0087221Y0170053D02*
X0105923Y0170053D01*
X0107521Y0171651D02*
X0088820Y0171651D01*
X0090418Y0173250D02*
X0109120Y0173250D01*
X0110718Y0174848D02*
X0092017Y0174848D01*
X0093615Y0176447D02*
X0111816Y0176447D01*
X0111816Y0178045D02*
X0095214Y0178045D01*
X0096812Y0179644D02*
X0111816Y0179644D01*
X0111826Y0181242D02*
X0098411Y0181242D01*
X0100009Y0182841D02*
X0112481Y0182841D01*
X0115753Y0184439D02*
X0101608Y0184439D01*
X0094443Y0192432D02*
X0092100Y0192432D01*
X0092845Y0190833D02*
X0090502Y0190833D01*
X0090680Y0191012D02*
X0094587Y0194919D01*
X0096930Y0194919D01*
X0085852Y0183840D01*
X0084685Y0183840D01*
X0085780Y0184935D01*
X0085780Y0186740D01*
X0081280Y0186740D01*
X0081280Y0186940D01*
X0085780Y0186940D01*
X0085780Y0188745D01*
X0084685Y0189840D01*
X0089508Y0189840D01*
X0090680Y0191012D01*
X0091246Y0189235D02*
X0085291Y0189235D01*
X0085780Y0187636D02*
X0089648Y0187636D01*
X0088049Y0186038D02*
X0085780Y0186038D01*
X0085285Y0184439D02*
X0086451Y0184439D01*
X0077075Y0184439D02*
X0074860Y0184439D01*
X0074352Y0182841D02*
X0073262Y0182841D01*
X0072754Y0181242D02*
X0029600Y0181242D01*
X0029600Y0179644D02*
X0046593Y0179644D01*
X0053880Y0179644D02*
X0055480Y0179644D01*
X0055480Y0174848D02*
X0053880Y0174848D01*
X0053880Y0173250D02*
X0055480Y0173250D01*
X0055480Y0171651D02*
X0053880Y0171651D01*
X0062676Y0171651D02*
X0073163Y0171651D01*
X0073671Y0173250D02*
X0074761Y0173250D01*
X0075269Y0174848D02*
X0077091Y0174848D01*
X0076880Y0176447D02*
X0075480Y0176447D01*
X0075480Y0178045D02*
X0076880Y0178045D01*
X0076812Y0179644D02*
X0077903Y0179644D01*
X0076580Y0186038D02*
X0075480Y0186038D01*
X0075480Y0187636D02*
X0076580Y0187636D01*
X0076403Y0189235D02*
X0077069Y0189235D01*
X0068318Y0203621D02*
X0058026Y0203621D01*
X0058662Y0205220D02*
X0066880Y0205220D01*
X0066880Y0206818D02*
X0059495Y0206818D01*
X0059495Y0208417D02*
X0066880Y0208417D01*
X0068099Y0213840D02*
X0058407Y0213840D01*
X0058524Y0213871D01*
X0058935Y0214108D01*
X0059270Y0214443D01*
X0059507Y0214854D01*
X0059630Y0215312D01*
X0059630Y0217333D01*
X0055849Y0217333D01*
X0055849Y0217701D01*
X0059630Y0217701D01*
X0059630Y0219723D01*
X0059507Y0220180D01*
X0059270Y0220591D01*
X0058935Y0220926D01*
X0058524Y0221163D01*
X0058067Y0221286D01*
X0055848Y0221286D01*
X0055848Y0217701D01*
X0055480Y0217701D01*
X0055480Y0221286D01*
X0053262Y0221286D01*
X0052804Y0221163D01*
X0052394Y0220926D01*
X0052106Y0220638D01*
X0051758Y0220986D01*
X0051152Y0220986D01*
X0051152Y0222269D01*
X0052727Y0222269D01*
X0053605Y0223148D01*
X0053605Y0229800D01*
X0053755Y0229800D01*
X0053755Y0223148D01*
X0054633Y0222269D01*
X0061782Y0222269D01*
X0062660Y0223148D01*
X0062660Y0228111D01*
X0062800Y0227972D01*
X0062800Y0224892D01*
X0063972Y0223720D01*
X0066693Y0220998D01*
X0066694Y0220980D01*
X0067277Y0220415D01*
X0067852Y0219840D01*
X0067870Y0219840D01*
X0067884Y0219827D01*
X0068089Y0219830D01*
X0066880Y0218621D01*
X0066880Y0215059D01*
X0068099Y0213840D01*
X0067128Y0214811D02*
X0059482Y0214811D01*
X0059630Y0216409D02*
X0066880Y0216409D01*
X0066880Y0218008D02*
X0059630Y0218008D01*
X0059630Y0219606D02*
X0067865Y0219606D01*
X0066487Y0221205D02*
X0058368Y0221205D01*
X0055848Y0221205D02*
X0055480Y0221205D01*
X0055480Y0219606D02*
X0055848Y0219606D01*
X0055848Y0218008D02*
X0055480Y0218008D01*
X0055480Y0217333D02*
X0055848Y0217333D01*
X0055848Y0213749D01*
X0058067Y0213749D01*
X0058121Y0213763D01*
X0056863Y0212505D01*
X0053437Y0212505D01*
X0052680Y0211749D01*
X0051923Y0212505D01*
X0051182Y0212505D01*
X0051118Y0214049D01*
X0051758Y0214049D01*
X0052106Y0214396D01*
X0052394Y0214108D01*
X0052804Y0213871D01*
X0053262Y0213749D01*
X0055480Y0213749D01*
X0055480Y0217333D01*
X0055480Y0216409D02*
X0055848Y0216409D01*
X0055848Y0214811D02*
X0055480Y0214811D01*
X0057570Y0213212D02*
X0051153Y0213212D01*
X0051152Y0221205D02*
X0052961Y0221205D01*
X0053261Y0222803D02*
X0054099Y0222803D01*
X0053755Y0224402D02*
X0053605Y0224402D01*
X0053605Y0226001D02*
X0053755Y0226001D01*
X0053755Y0227599D02*
X0053605Y0227599D01*
X0053605Y0229198D02*
X0053755Y0229198D01*
X0062660Y0227599D02*
X0062800Y0227599D01*
X0062800Y0226001D02*
X0062660Y0226001D01*
X0062660Y0224402D02*
X0063290Y0224402D01*
X0062316Y0222803D02*
X0064888Y0222803D01*
X0066800Y0227599D02*
X0066880Y0227599D01*
X0066800Y0229198D02*
X0067456Y0229198D01*
X0069055Y0230796D02*
X0065632Y0230796D01*
X0064034Y0232395D02*
X0072797Y0232395D01*
X0073305Y0230796D02*
X0074396Y0230796D01*
X0074904Y0229198D02*
X0077456Y0229198D01*
X0076880Y0227599D02*
X0075480Y0227599D01*
X0075480Y0226001D02*
X0076880Y0226001D01*
X0076446Y0224402D02*
X0077537Y0224402D01*
X0067946Y0233993D02*
X0062960Y0233993D01*
X0062960Y0235592D02*
X0066880Y0235592D01*
X0066880Y0237190D02*
X0058884Y0237190D01*
X0058884Y0237438D02*
X0062960Y0237438D01*
X0062960Y0240148D01*
X0062838Y0240606D01*
X0062601Y0241016D01*
X0062266Y0241351D01*
X0061855Y0241588D01*
X0061397Y0241711D01*
X0058884Y0241711D01*
X0058884Y0237438D01*
X0058884Y0238789D02*
X0057531Y0238789D01*
X0057531Y0240387D02*
X0058884Y0240387D01*
X0062896Y0240387D02*
X0068646Y0240387D01*
X0067048Y0238789D02*
X0062960Y0238789D01*
X0067537Y0245183D02*
X0051840Y0245183D01*
X0053436Y0246781D02*
X0065537Y0246781D01*
X0085868Y0251577D02*
X0089836Y0251577D01*
X0089380Y0249978D02*
X0087145Y0249978D01*
X0088421Y0248380D02*
X0089380Y0248380D01*
X0089697Y0246781D02*
X0090158Y0246781D01*
X0090974Y0245183D02*
X0091756Y0245183D01*
X0092250Y0243584D02*
X0096607Y0243584D01*
X0095740Y0241986D02*
X0098206Y0241986D01*
X0099804Y0240387D02*
X0096361Y0240387D01*
X0096229Y0238789D02*
X0101403Y0238789D01*
X0103001Y0237190D02*
X0095236Y0237190D01*
X0100666Y0245183D02*
X0101680Y0245183D01*
X0100158Y0246781D02*
X0099067Y0246781D01*
X0099380Y0248380D02*
X0097980Y0248380D01*
X0097980Y0249978D02*
X0099380Y0249978D01*
X0099836Y0251577D02*
X0097524Y0251577D01*
X0095926Y0253175D02*
X0101434Y0253175D01*
X0100567Y0256372D02*
X0097218Y0256372D01*
X0098280Y0257435D02*
X0098280Y0259240D01*
X0093780Y0259240D01*
X0093780Y0259440D01*
X0098280Y0259440D01*
X0098280Y0261245D01*
X0095585Y0263940D01*
X0093780Y0263940D01*
X0093780Y0259440D01*
X0093580Y0259440D01*
X0093580Y0263940D01*
X0091775Y0263940D01*
X0089080Y0261245D01*
X0089080Y0259440D01*
X0093580Y0259440D01*
X0093580Y0259240D01*
X0093780Y0259240D01*
X0093780Y0254740D01*
X0095585Y0254740D01*
X0098280Y0257435D01*
X0098280Y0257971D02*
X0099380Y0257971D01*
X0099380Y0259569D02*
X0098280Y0259569D01*
X0098280Y0261168D02*
X0099427Y0261168D01*
X0101025Y0262766D02*
X0096759Y0262766D01*
X0093780Y0262766D02*
X0093580Y0262766D01*
X0093580Y0261168D02*
X0093780Y0261168D01*
X0093780Y0259569D02*
X0093580Y0259569D01*
X0093580Y0259240D02*
X0089080Y0259240D01*
X0089080Y0257435D01*
X0091775Y0254740D01*
X0093580Y0254740D01*
X0093580Y0259240D01*
X0093580Y0257971D02*
X0093780Y0257971D01*
X0093780Y0256372D02*
X0093580Y0256372D01*
X0093580Y0254774D02*
X0093780Y0254774D01*
X0095619Y0254774D02*
X0105418Y0254774D01*
X0105926Y0253175D02*
X0106680Y0253175D01*
X0109476Y0256372D02*
X0110567Y0256372D01*
X0110680Y0254774D02*
X0115418Y0254774D01*
X0115926Y0253175D02*
X0116680Y0253175D01*
X0119476Y0256372D02*
X0120567Y0256372D01*
X0120680Y0254774D02*
X0125418Y0254774D01*
X0127980Y0257971D02*
X0129380Y0257971D01*
X0129380Y0259569D02*
X0127980Y0259569D01*
X0127933Y0261168D02*
X0129427Y0261168D01*
X0131025Y0262766D02*
X0126335Y0262766D01*
X0121025Y0262766D02*
X0116335Y0262766D01*
X0117933Y0261168D02*
X0119427Y0261168D01*
X0119380Y0259569D02*
X0117980Y0259569D01*
X0117980Y0257971D02*
X0119380Y0257971D01*
X0120680Y0253175D02*
X0121434Y0253175D01*
X0120680Y0246259D02*
X0121899Y0245040D01*
X0123727Y0245040D01*
X0123727Y0239621D01*
X0120680Y0242668D01*
X0120680Y0246259D01*
X0120680Y0245183D02*
X0121756Y0245183D01*
X0120680Y0243584D02*
X0123727Y0243584D01*
X0123727Y0241986D02*
X0121363Y0241986D01*
X0122961Y0240387D02*
X0123727Y0240387D01*
X0131942Y0254774D02*
X0136680Y0254774D01*
X0136680Y0253175D02*
X0135926Y0253175D01*
X0136793Y0256372D02*
X0137884Y0256372D01*
X0137980Y0257971D02*
X0139380Y0257971D01*
X0139380Y0259569D02*
X0137980Y0259569D01*
X0137933Y0261168D02*
X0139427Y0261168D01*
X0141025Y0262766D02*
X0136335Y0262766D01*
X0141942Y0254774D02*
X0146680Y0254774D01*
X0146680Y0253175D02*
X0145926Y0253175D01*
X0146793Y0256372D02*
X0147884Y0256372D01*
X0147980Y0257971D02*
X0149380Y0257971D01*
X0149380Y0259569D02*
X0147980Y0259569D01*
X0147933Y0261168D02*
X0149427Y0261168D01*
X0151025Y0262766D02*
X0146335Y0262766D01*
X0151942Y0254774D02*
X0156680Y0254774D01*
X0156680Y0253175D02*
X0155926Y0253175D01*
X0156793Y0256372D02*
X0157884Y0256372D01*
X0157980Y0257971D02*
X0159380Y0257971D01*
X0159380Y0259569D02*
X0157980Y0259569D01*
X0157933Y0261168D02*
X0159427Y0261168D01*
X0161025Y0262766D02*
X0156335Y0262766D01*
X0161942Y0254774D02*
X0169432Y0254774D01*
X0169432Y0256372D02*
X0166793Y0256372D01*
X0167980Y0257971D02*
X0169432Y0257971D01*
X0169432Y0259569D02*
X0167980Y0259569D01*
X0167933Y0261168D02*
X0169432Y0261168D01*
X0169432Y0262766D02*
X0166335Y0262766D01*
X0169839Y0264365D02*
X0029600Y0264365D01*
X0029600Y0265963D02*
X0194629Y0265963D01*
X0194629Y0264365D02*
X0178324Y0264365D01*
X0178731Y0262766D02*
X0194774Y0262766D01*
X0194629Y0267562D02*
X0029600Y0267562D01*
X0029600Y0269160D02*
X0194910Y0269160D01*
X0203646Y0269160D02*
X0234000Y0269160D01*
X0234000Y0267562D02*
X0223008Y0267562D01*
X0224607Y0265963D02*
X0234000Y0265963D01*
X0234000Y0264365D02*
X0226205Y0264365D01*
X0226900Y0262766D02*
X0234000Y0262766D01*
X0234000Y0261168D02*
X0226900Y0261168D01*
X0226900Y0259569D02*
X0227230Y0259569D01*
X0229659Y0259569D02*
X0230323Y0259569D01*
X0230323Y0257971D02*
X0229659Y0257971D01*
X0229659Y0256372D02*
X0230323Y0256372D01*
X0230323Y0254821D02*
X0230323Y0249958D01*
X0230400Y0249958D01*
X0231208Y0250086D01*
X0231986Y0250338D01*
X0232714Y0250710D01*
X0233376Y0251190D01*
X0233954Y0251769D01*
X0234000Y0251831D01*
X0234000Y0249405D01*
X0233737Y0249557D01*
X0233279Y0249680D01*
X0230668Y0249680D01*
X0230668Y0245603D01*
X0229315Y0245603D01*
X0229315Y0249680D01*
X0226900Y0249680D01*
X0226900Y0250977D01*
X0227268Y0250710D01*
X0227997Y0250338D01*
X0228775Y0250086D01*
X0229582Y0249958D01*
X0229659Y0249958D01*
X0229659Y0254821D01*
X0230323Y0254821D01*
X0230323Y0254774D02*
X0229659Y0254774D01*
X0229659Y0253175D02*
X0230323Y0253175D01*
X0230323Y0251577D02*
X0229659Y0251577D01*
X0229659Y0249978D02*
X0230323Y0249978D01*
X0230529Y0249978D02*
X0234000Y0249978D01*
X0234000Y0251577D02*
X0233762Y0251577D01*
X0230668Y0248380D02*
X0229315Y0248380D01*
X0229315Y0246781D02*
X0230668Y0246781D01*
X0229991Y0244927D02*
X0229991Y0237053D01*
X0229315Y0237729D02*
X0229315Y0244251D01*
X0230668Y0244251D01*
X0230668Y0240174D01*
X0230668Y0237729D01*
X0229315Y0237729D01*
X0229315Y0238789D02*
X0230668Y0238789D01*
X0230668Y0240387D02*
X0229315Y0240387D01*
X0229315Y0241986D02*
X0230668Y0241986D01*
X0230668Y0243584D02*
X0229315Y0243584D01*
X0229453Y0249978D02*
X0226900Y0249978D01*
X0222700Y0254774D02*
X0221263Y0254774D01*
X0219361Y0254774D02*
X0219361Y0254774D01*
X0219361Y0253175D02*
X0219361Y0253175D01*
X0219361Y0251577D02*
X0219361Y0251577D01*
X0219361Y0249978D02*
X0219361Y0249978D01*
X0219361Y0248380D02*
X0219361Y0248380D01*
X0219361Y0246781D02*
X0219361Y0246781D01*
X0219361Y0245183D02*
X0219361Y0245183D01*
X0219361Y0243584D02*
X0219361Y0243584D01*
X0216361Y0243549D02*
X0214904Y0243549D01*
X0216361Y0243549D01*
X0216361Y0243549D01*
X0214904Y0243584D02*
X0210821Y0243584D01*
X0206641Y0243584D02*
X0204719Y0243584D01*
X0204227Y0245183D02*
X0214904Y0245183D01*
X0214904Y0246108D02*
X0216361Y0246108D01*
X0216361Y0246108D01*
X0214904Y0246108D01*
X0214904Y0246781D02*
X0204228Y0246781D01*
X0204228Y0248380D02*
X0215675Y0248380D01*
X0215067Y0249978D02*
X0204228Y0249978D01*
X0203544Y0251577D02*
X0215050Y0251577D01*
X0215656Y0253175D02*
X0203247Y0253175D01*
X0203928Y0254774D02*
X0217460Y0254774D01*
X0217297Y0255431D02*
X0217632Y0255766D01*
X0217869Y0256177D01*
X0217992Y0256635D01*
X0217992Y0258656D01*
X0214211Y0258656D01*
X0214211Y0255071D01*
X0216429Y0255071D01*
X0216887Y0255194D01*
X0217297Y0255431D01*
X0217922Y0256372D02*
X0222700Y0256372D01*
X0222700Y0257971D02*
X0217992Y0257971D01*
X0217992Y0259569D02*
X0222700Y0259569D01*
X0222700Y0261168D02*
X0217959Y0261168D01*
X0214211Y0261168D02*
X0213842Y0261168D01*
X0213842Y0259569D02*
X0214211Y0259569D01*
X0214211Y0257971D02*
X0213842Y0257971D01*
X0213842Y0256372D02*
X0214211Y0256372D01*
X0221864Y0262766D02*
X0203783Y0262766D01*
X0203668Y0261168D02*
X0178731Y0261168D01*
X0179680Y0251577D02*
X0195013Y0251577D01*
X0195024Y0251587D02*
X0194688Y0251252D01*
X0194451Y0250842D01*
X0194329Y0250384D01*
X0194329Y0248166D01*
X0198897Y0248166D01*
X0198897Y0251947D01*
X0195892Y0251947D01*
X0195434Y0251824D01*
X0195024Y0251587D01*
X0194329Y0249978D02*
X0179680Y0249978D01*
X0179680Y0248380D02*
X0194329Y0248380D01*
X0194329Y0246781D02*
X0179680Y0246781D01*
X0179680Y0245183D02*
X0194330Y0245183D01*
X0193997Y0241986D02*
X0179680Y0241986D01*
X0179680Y0243584D02*
X0200539Y0243584D01*
X0199660Y0245183D02*
X0198897Y0245183D01*
X0198897Y0246781D02*
X0199660Y0246781D01*
X0199660Y0248380D02*
X0198897Y0248380D01*
X0198897Y0249978D02*
X0199660Y0249978D01*
X0199660Y0251577D02*
X0198897Y0251577D01*
X0205507Y0241986D02*
X0205853Y0241986D01*
X0205853Y0240387D02*
X0205507Y0240387D01*
X0205507Y0238789D02*
X0205853Y0238789D01*
X0207670Y0233700D02*
X0215808Y0233700D01*
X0215620Y0233440D01*
X0215307Y0232827D01*
X0215094Y0232172D01*
X0214987Y0231492D01*
X0214987Y0231148D01*
X0219361Y0231148D01*
X0219361Y0231147D01*
X0219361Y0231147D01*
X0219361Y0226773D01*
X0219017Y0226773D01*
X0218337Y0226880D01*
X0217682Y0227093D01*
X0217069Y0227406D01*
X0216511Y0227811D01*
X0216024Y0228297D01*
X0215620Y0228855D01*
X0215307Y0229468D01*
X0215094Y0230123D01*
X0214987Y0230803D01*
X0214987Y0231147D01*
X0219361Y0231147D01*
X0219361Y0226773D01*
X0219706Y0226773D01*
X0220386Y0226880D01*
X0221041Y0227093D01*
X0221654Y0227406D01*
X0222211Y0227811D01*
X0222698Y0228297D01*
X0222700Y0228300D01*
X0222700Y0220648D01*
X0220680Y0222668D01*
X0219508Y0223840D01*
X0209230Y0223840D01*
X0209230Y0225411D01*
X0208351Y0226290D01*
X0204009Y0226290D01*
X0203130Y0225411D01*
X0203130Y0220774D01*
X0201630Y0223228D01*
X0201630Y0225411D01*
X0200751Y0226290D01*
X0196422Y0226290D01*
X0199330Y0230257D01*
X0199330Y0228669D01*
X0200209Y0227790D01*
X0204551Y0227790D01*
X0205430Y0228669D01*
X0205430Y0231460D01*
X0207670Y0233700D01*
X0206364Y0232395D02*
X0215167Y0232395D01*
X0214988Y0230796D02*
X0205430Y0230796D01*
X0205430Y0229198D02*
X0215445Y0229198D01*
X0216803Y0227599D02*
X0197382Y0227599D01*
X0198554Y0229198D02*
X0199330Y0229198D01*
X0201041Y0226001D02*
X0203719Y0226001D01*
X0203130Y0224402D02*
X0201630Y0224402D01*
X0201889Y0222803D02*
X0203130Y0222803D01*
X0203130Y0221205D02*
X0202867Y0221205D01*
X0203844Y0219606D02*
X0212550Y0219606D01*
X0212368Y0218008D02*
X0204821Y0218008D01*
X0205799Y0216409D02*
X0212368Y0216409D01*
X0212368Y0214811D02*
X0206776Y0214811D01*
X0207753Y0213212D02*
X0213442Y0213212D01*
X0216149Y0213212D02*
X0216518Y0213212D01*
X0216518Y0214811D02*
X0216149Y0214811D01*
X0216149Y0216409D02*
X0216518Y0216409D01*
X0219225Y0213212D02*
X0223652Y0213212D01*
X0223652Y0211614D02*
X0208731Y0211614D01*
X0203379Y0210015D02*
X0189086Y0210015D01*
X0190480Y0208417D02*
X0197863Y0208417D01*
X0196170Y0206818D02*
X0190480Y0206818D01*
X0190480Y0205220D02*
X0195680Y0205220D01*
X0195855Y0203621D02*
X0189042Y0203621D01*
X0188677Y0200424D02*
X0204664Y0200424D01*
X0205333Y0198826D02*
X0201603Y0198826D01*
X0203201Y0197227D02*
X0203865Y0197227D01*
X0200741Y0194030D02*
X0189451Y0194030D01*
X0189866Y0189235D02*
X0195537Y0189235D01*
X0197135Y0187636D02*
X0191792Y0187636D01*
X0193391Y0186038D02*
X0198734Y0186038D01*
X0200332Y0184439D02*
X0194989Y0184439D01*
X0196588Y0182841D02*
X0204078Y0182841D01*
X0203882Y0179644D02*
X0199785Y0179644D01*
X0198186Y0181242D02*
X0234000Y0181242D01*
X0234000Y0179644D02*
X0229433Y0179644D01*
X0229901Y0178045D02*
X0234000Y0178045D01*
X0234000Y0176447D02*
X0229901Y0176447D01*
X0229901Y0176656D02*
X0226317Y0176656D01*
X0226317Y0173071D01*
X0227746Y0173071D01*
X0228208Y0173163D01*
X0228643Y0173344D01*
X0229035Y0173605D01*
X0229368Y0173938D01*
X0229629Y0174330D01*
X0229809Y0174765D01*
X0229901Y0175227D01*
X0229901Y0176656D01*
X0229826Y0174848D02*
X0234000Y0174848D01*
X0234000Y0173250D02*
X0228416Y0173250D01*
X0226317Y0173250D02*
X0225948Y0173250D01*
X0225948Y0174848D02*
X0226317Y0174848D01*
X0226317Y0176447D02*
X0225948Y0176447D01*
X0225948Y0178045D02*
X0226317Y0178045D01*
X0226317Y0179644D02*
X0225948Y0179644D01*
X0226317Y0182071D02*
X0227746Y0182071D01*
X0228208Y0182163D01*
X0228643Y0182344D01*
X0229035Y0182605D01*
X0229368Y0182938D01*
X0229629Y0183330D01*
X0229809Y0183765D01*
X0229901Y0184227D01*
X0229901Y0185656D01*
X0226317Y0185656D01*
X0226317Y0182071D01*
X0226317Y0182841D02*
X0225948Y0182841D01*
X0225948Y0184439D02*
X0226317Y0184439D01*
X0226317Y0186038D02*
X0225948Y0186038D01*
X0225948Y0187636D02*
X0226317Y0187636D01*
X0226317Y0189235D02*
X0225948Y0189235D01*
X0226317Y0191071D02*
X0227746Y0191071D01*
X0228208Y0191163D01*
X0228643Y0191344D01*
X0229035Y0191605D01*
X0229368Y0191938D01*
X0229629Y0192330D01*
X0229809Y0192765D01*
X0229901Y0193227D01*
X0229901Y0194656D01*
X0226317Y0194656D01*
X0226317Y0191071D01*
X0226317Y0192432D02*
X0225948Y0192432D01*
X0225948Y0194030D02*
X0226317Y0194030D01*
X0226317Y0195629D02*
X0225948Y0195629D01*
X0225948Y0197227D02*
X0226317Y0197227D01*
X0222585Y0197227D02*
X0222552Y0197227D01*
X0221278Y0198826D02*
X0214082Y0198826D01*
X0214751Y0200424D02*
X0220609Y0200424D01*
X0220609Y0202023D02*
X0214751Y0202023D01*
X0214751Y0203621D02*
X0220609Y0203621D01*
X0220609Y0205220D02*
X0214751Y0205220D01*
X0214751Y0206818D02*
X0220609Y0206818D01*
X0220609Y0208417D02*
X0214751Y0208417D01*
X0214751Y0210015D02*
X0220609Y0210015D01*
X0227652Y0211614D02*
X0234000Y0211614D01*
X0234000Y0213212D02*
X0227652Y0213212D01*
X0227652Y0214811D02*
X0234000Y0214811D01*
X0234000Y0216409D02*
X0226692Y0216409D01*
X0226900Y0218008D02*
X0234000Y0218008D01*
X0234000Y0219606D02*
X0226900Y0219606D01*
X0226900Y0221205D02*
X0234000Y0221205D01*
X0234000Y0222803D02*
X0233293Y0222803D01*
X0230323Y0222803D02*
X0229659Y0222803D01*
X0229659Y0224402D02*
X0230323Y0224402D01*
X0230323Y0226001D02*
X0229659Y0226001D01*
X0229659Y0227159D02*
X0229659Y0232022D01*
X0229582Y0232022D01*
X0228775Y0231894D01*
X0227997Y0231642D01*
X0227268Y0231270D01*
X0226900Y0231003D01*
X0226900Y0232300D01*
X0229315Y0232300D01*
X0229315Y0236377D01*
X0230668Y0236377D01*
X0230668Y0232300D01*
X0233279Y0232300D01*
X0233737Y0232423D01*
X0234000Y0232575D01*
X0234000Y0230149D01*
X0233954Y0230211D01*
X0233376Y0230790D01*
X0232714Y0231270D01*
X0231986Y0231642D01*
X0231208Y0231894D01*
X0230400Y0232022D01*
X0230323Y0232022D01*
X0230323Y0227159D01*
X0229659Y0227159D01*
X0229659Y0227599D02*
X0230323Y0227599D01*
X0230323Y0229198D02*
X0229659Y0229198D01*
X0229659Y0230796D02*
X0230323Y0230796D01*
X0230668Y0232395D02*
X0229315Y0232395D01*
X0229315Y0233993D02*
X0230668Y0233993D01*
X0230668Y0235592D02*
X0229315Y0235592D01*
X0233632Y0232395D02*
X0234000Y0232395D01*
X0234000Y0230796D02*
X0233367Y0230796D01*
X0222700Y0227599D02*
X0221920Y0227599D01*
X0222700Y0226001D02*
X0208641Y0226001D01*
X0209230Y0224402D02*
X0222700Y0224402D01*
X0222700Y0222803D02*
X0220545Y0222803D01*
X0222143Y0221205D02*
X0222700Y0221205D01*
X0219361Y0227599D02*
X0219361Y0227599D01*
X0219361Y0229198D02*
X0219361Y0229198D01*
X0219361Y0230796D02*
X0219361Y0230796D01*
X0230696Y0210015D02*
X0234000Y0210015D01*
X0234000Y0208417D02*
X0230696Y0208417D01*
X0230696Y0206818D02*
X0234000Y0206818D01*
X0234000Y0205220D02*
X0230696Y0205220D01*
X0230696Y0203621D02*
X0234000Y0203621D01*
X0234000Y0202023D02*
X0230696Y0202023D01*
X0230696Y0200424D02*
X0234000Y0200424D01*
X0234000Y0198826D02*
X0230027Y0198826D01*
X0229680Y0197227D02*
X0234000Y0197227D01*
X0234000Y0195629D02*
X0229901Y0195629D01*
X0229901Y0194030D02*
X0234000Y0194030D01*
X0234000Y0192432D02*
X0229671Y0192432D01*
X0228795Y0189235D02*
X0234000Y0189235D01*
X0234000Y0190833D02*
X0199595Y0190833D01*
X0201194Y0189235D02*
X0204473Y0189235D01*
X0203865Y0192432D02*
X0197997Y0192432D01*
X0196840Y0202023D02*
X0184191Y0202023D01*
X0181731Y0205220D02*
X0180480Y0205220D01*
X0180480Y0206818D02*
X0181880Y0206818D01*
X0181880Y0208417D02*
X0180480Y0208417D01*
X0182184Y0210015D02*
X0183274Y0210015D01*
X0183782Y0211614D02*
X0202401Y0211614D01*
X0201424Y0213212D02*
X0188634Y0213212D01*
X0190232Y0214811D02*
X0200447Y0214811D01*
X0199469Y0216409D02*
X0190480Y0216409D01*
X0190480Y0218008D02*
X0198492Y0218008D01*
X0197515Y0219606D02*
X0189495Y0219606D01*
X0192694Y0221205D02*
X0195530Y0221205D01*
X0195530Y0222803D02*
X0193866Y0222803D01*
X0195038Y0224402D02*
X0195530Y0224402D01*
X0198580Y0223040D02*
X0198680Y0221840D01*
X0188906Y0232395D02*
X0184563Y0232395D01*
X0184055Y0230796D02*
X0182964Y0230796D01*
X0182456Y0229198D02*
X0179904Y0229198D01*
X0180480Y0227599D02*
X0181880Y0227599D01*
X0181880Y0226001D02*
X0180480Y0226001D01*
X0180914Y0224402D02*
X0179823Y0224402D01*
X0179414Y0233993D02*
X0180505Y0233993D01*
X0180480Y0235592D02*
X0181880Y0235592D01*
X0181880Y0237190D02*
X0180480Y0237190D01*
X0180312Y0238789D02*
X0182048Y0238789D01*
X0183646Y0240387D02*
X0179680Y0240387D01*
X0172680Y0240387D02*
X0157556Y0240387D01*
X0159154Y0241986D02*
X0172680Y0241986D01*
X0172680Y0243584D02*
X0160753Y0243584D01*
X0165604Y0245183D02*
X0172680Y0245183D01*
X0172680Y0246781D02*
X0167202Y0246781D01*
X0167980Y0248380D02*
X0172680Y0248380D01*
X0169432Y0249978D02*
X0167980Y0249978D01*
X0167524Y0251577D02*
X0169432Y0251577D01*
X0169432Y0253175D02*
X0165926Y0253175D01*
X0161434Y0253175D02*
X0160680Y0253175D01*
X0151434Y0253175D02*
X0150680Y0253175D01*
X0141434Y0253175D02*
X0140680Y0253175D01*
X0155957Y0238789D02*
X0172048Y0238789D01*
X0171880Y0237190D02*
X0154359Y0237190D01*
X0152760Y0235592D02*
X0171880Y0235592D01*
X0170505Y0233993D02*
X0151161Y0233993D01*
X0149563Y0232395D02*
X0168906Y0232395D01*
X0167308Y0230796D02*
X0147964Y0230796D01*
X0146366Y0229198D02*
X0165709Y0229198D01*
X0164111Y0227599D02*
X0145444Y0227599D01*
X0145534Y0226001D02*
X0162512Y0226001D01*
X0160914Y0224402D02*
X0145534Y0224402D01*
X0145534Y0222803D02*
X0159315Y0222803D01*
X0157717Y0221205D02*
X0145245Y0221205D01*
X0145450Y0219606D02*
X0156118Y0219606D01*
X0134986Y0186490D02*
X0134689Y0185772D01*
X0134689Y0184308D01*
X0135080Y0183364D01*
X0134742Y0183364D01*
X0134284Y0183242D01*
X0133977Y0183064D01*
X0119953Y0183064D01*
X0119953Y0186452D01*
X0134986Y0186490D01*
X0134799Y0186038D02*
X0119953Y0186038D01*
X0119953Y0184439D02*
X0134689Y0184439D01*
X0115753Y0186038D02*
X0109904Y0186038D01*
X0109904Y0187636D02*
X0115708Y0187636D01*
X0112788Y0189235D02*
X0109904Y0189235D01*
X0109904Y0190833D02*
X0110630Y0190833D01*
X0116800Y0194800D02*
X0116800Y0213800D01*
X0113916Y0216684D02*
X0113916Y0216800D01*
X0096042Y0194030D02*
X0093699Y0194030D01*
X0113461Y0171651D02*
X0113663Y0171651D01*
X0115059Y0173250D02*
X0115261Y0173250D01*
X0112064Y0170053D02*
X0111862Y0170053D01*
X0110466Y0168454D02*
X0110264Y0168454D01*
X0108867Y0166856D02*
X0108665Y0166856D01*
X0107269Y0165257D02*
X0107067Y0165257D01*
X0105670Y0163659D02*
X0105468Y0163659D01*
X0104072Y0162060D02*
X0103870Y0162060D01*
X0102473Y0160462D02*
X0102271Y0160462D01*
X0101622Y0158863D02*
X0100673Y0158863D01*
X0100023Y0157265D02*
X0099074Y0157265D01*
X0099380Y0155666D02*
X0097980Y0155666D01*
X0097980Y0154068D02*
X0099380Y0154068D01*
X0099970Y0152469D02*
X0097390Y0152469D01*
X0095792Y0150870D02*
X0101568Y0150870D01*
X0100432Y0147673D02*
X0097352Y0147673D01*
X0098280Y0146075D02*
X0099380Y0146075D01*
X0099380Y0144476D02*
X0098280Y0144476D01*
X0098223Y0142878D02*
X0099561Y0142878D01*
X0101159Y0141279D02*
X0096625Y0141279D01*
X0095753Y0149272D02*
X0105284Y0149272D01*
X0105792Y0150870D02*
X0106680Y0150870D01*
X0109342Y0147673D02*
X0110432Y0147673D01*
X0110680Y0149272D02*
X0115284Y0149272D01*
X0115792Y0150870D02*
X0116680Y0150870D01*
X0111568Y0150870D02*
X0110680Y0150870D01*
X0109380Y0146075D02*
X0107980Y0146075D01*
X0107980Y0144476D02*
X0109380Y0144476D01*
X0109561Y0142878D02*
X0107799Y0142878D01*
X0106201Y0141279D02*
X0111159Y0141279D01*
X0114043Y0134885D02*
X0114317Y0134885D01*
X0099817Y0134885D02*
X0099543Y0134885D01*
X0096334Y0131840D02*
X0091480Y0131840D01*
X0091687Y0134885D02*
X0093124Y0134885D01*
X0099240Y0128491D02*
X0100120Y0128491D01*
X0098195Y0120499D02*
X0103849Y0120499D01*
X0105447Y0118900D02*
X0100670Y0118900D01*
X0102268Y0117302D02*
X0107046Y0117302D01*
X0108644Y0115703D02*
X0103867Y0115703D01*
X0105465Y0114105D02*
X0111179Y0114105D01*
X0110911Y0112506D02*
X0107064Y0112506D01*
X0108662Y0110908D02*
X0114496Y0110908D01*
X0114864Y0110908D02*
X0124642Y0110908D01*
X0125780Y0109770D02*
X0120810Y0114740D01*
X0117989Y0114740D01*
X0117801Y0114552D01*
X0118089Y0114264D01*
X0118326Y0113854D01*
X0118448Y0113396D01*
X0118448Y0111178D01*
X0114864Y0111178D01*
X0114864Y0110809D01*
X0118448Y0110809D01*
X0118448Y0108591D01*
X0118326Y0108133D01*
X0118191Y0107900D01*
X0129084Y0107900D01*
X0128790Y0108195D01*
X0128553Y0108605D01*
X0128430Y0109063D01*
X0128430Y0109770D01*
X0125780Y0109770D01*
X0128430Y0109309D02*
X0118448Y0109309D01*
X0118448Y0112506D02*
X0123044Y0112506D01*
X0121445Y0114105D02*
X0118181Y0114105D01*
X0114739Y0116840D02*
X0110760Y0116840D01*
X0110911Y0109309D02*
X0110261Y0109309D01*
X0103866Y0102915D02*
X0054862Y0102915D01*
X0056460Y0101317D02*
X0105465Y0101317D01*
X0107063Y0099718D02*
X0058059Y0099718D01*
X0059657Y0098120D02*
X0108662Y0098120D01*
X0092045Y0118900D02*
X0090715Y0118900D01*
X0090715Y0120499D02*
X0092045Y0120499D01*
X0073651Y0106112D02*
X0051665Y0106112D01*
X0061256Y0096521D02*
X0180704Y0096521D01*
X0179106Y0094923D02*
X0062854Y0094923D01*
X0064453Y0093324D02*
X0177507Y0093324D01*
X0175909Y0091726D02*
X0066051Y0091726D01*
X0067650Y0090127D02*
X0174310Y0090127D01*
X0172712Y0088529D02*
X0068734Y0088529D01*
X0068979Y0086930D02*
X0171113Y0086930D01*
X0169515Y0085332D02*
X0068979Y0085332D01*
X0068979Y0083733D02*
X0167916Y0083733D01*
X0166318Y0082134D02*
X0068979Y0082134D01*
X0068979Y0080536D02*
X0164719Y0080536D01*
X0163121Y0078937D02*
X0068979Y0078937D01*
X0068979Y0077339D02*
X0161522Y0077339D01*
X0162938Y0098120D02*
X0182303Y0098120D01*
X0183901Y0099718D02*
X0164536Y0099718D01*
X0174843Y0101317D02*
X0185500Y0101317D01*
X0187098Y0102915D02*
X0175549Y0102915D01*
X0182700Y0120499D02*
X0189461Y0120499D01*
X0193496Y0133287D02*
X0193864Y0133287D01*
X0193864Y0134885D02*
X0193496Y0134885D01*
X0188702Y0150870D02*
X0234000Y0150870D01*
X0234000Y0152469D02*
X0188904Y0152469D01*
X0188904Y0154068D02*
X0234000Y0154068D01*
X0234000Y0155666D02*
X0188904Y0155666D01*
X0188427Y0157265D02*
X0234000Y0157265D01*
X0234000Y0158863D02*
X0188386Y0158863D01*
X0188345Y0160462D02*
X0234000Y0160462D01*
X0234000Y0162060D02*
X0188303Y0162060D01*
X0189080Y0163659D02*
X0234000Y0163659D01*
X0234000Y0165257D02*
X0229581Y0165257D01*
X0229629Y0165330D02*
X0229809Y0165765D01*
X0229901Y0166227D01*
X0229901Y0167656D01*
X0226317Y0167656D01*
X0226317Y0164071D01*
X0227746Y0164071D01*
X0228208Y0164163D01*
X0228643Y0164344D01*
X0229035Y0164605D01*
X0229368Y0164938D01*
X0229629Y0165330D01*
X0229901Y0166856D02*
X0234000Y0166856D01*
X0234000Y0168454D02*
X0229901Y0168454D01*
X0229752Y0170053D02*
X0234000Y0170053D01*
X0234000Y0171651D02*
X0203777Y0171651D01*
X0204669Y0173250D02*
X0202179Y0173250D01*
X0199719Y0170053D02*
X0189048Y0170053D01*
X0190480Y0168454D02*
X0201317Y0168454D01*
X0202916Y0166856D02*
X0190480Y0166856D01*
X0190480Y0165257D02*
X0203865Y0165257D01*
X0198120Y0171651D02*
X0184197Y0171651D01*
X0183689Y0173250D02*
X0182599Y0173250D01*
X0182091Y0174848D02*
X0180269Y0174848D01*
X0180480Y0176447D02*
X0181880Y0176447D01*
X0181880Y0178045D02*
X0180480Y0178045D01*
X0180548Y0179644D02*
X0179457Y0179644D01*
X0189457Y0179644D02*
X0190128Y0179644D01*
X0190480Y0178045D02*
X0191726Y0178045D01*
X0190480Y0176447D02*
X0193325Y0176447D01*
X0194923Y0174848D02*
X0190269Y0174848D01*
X0188671Y0173250D02*
X0196522Y0173250D01*
X0209998Y0173250D02*
X0211362Y0173250D01*
X0214026Y0176840D02*
X0219227Y0176840D01*
X0222136Y0179644D02*
X0222832Y0179644D01*
X0222995Y0182841D02*
X0221940Y0182841D01*
X0219227Y0185840D02*
X0214026Y0185840D01*
X0216887Y0189235D02*
X0216910Y0189235D01*
X0221545Y0189235D02*
X0223470Y0189235D01*
X0222594Y0192432D02*
X0222531Y0192432D01*
X0219227Y0194840D02*
X0214026Y0194840D01*
X0211166Y0189235D02*
X0210194Y0189235D01*
X0210589Y0182841D02*
X0210771Y0182841D01*
X0216691Y0173250D02*
X0223849Y0173250D01*
X0225948Y0170053D02*
X0226317Y0170053D01*
X0226317Y0168454D02*
X0225948Y0168454D01*
X0226133Y0167840D02*
X0225680Y0167387D01*
X0225948Y0166856D02*
X0226317Y0166856D01*
X0226317Y0165257D02*
X0225948Y0165257D01*
X0222685Y0165257D02*
X0222357Y0165257D01*
X0219227Y0167840D02*
X0214026Y0167840D01*
X0229270Y0182841D02*
X0234000Y0182841D01*
X0234000Y0184439D02*
X0229901Y0184439D01*
X0229901Y0186038D02*
X0234000Y0186038D01*
X0234000Y0187636D02*
X0229865Y0187636D01*
X0190505Y0233993D02*
X0189414Y0233993D01*
X0190480Y0235592D02*
X0190680Y0235592D01*
X0190680Y0237190D02*
X0190480Y0237190D01*
X0190312Y0238789D02*
X0190800Y0238789D01*
X0192399Y0240387D02*
X0188714Y0240387D01*
X0232753Y0259569D02*
X0234000Y0259569D01*
X0234000Y0270759D02*
X0029600Y0270759D01*
X0029600Y0272357D02*
X0234000Y0272357D01*
X0234000Y0273956D02*
X0029600Y0273956D01*
X0029600Y0275554D02*
X0234000Y0275554D01*
X0234000Y0277153D02*
X0029600Y0277153D01*
X0029600Y0278751D02*
X0234000Y0278751D01*
X0183960Y0152469D02*
X0183959Y0152469D01*
X0183959Y0150870D02*
X0183960Y0150870D01*
X0176456Y0146075D02*
X0167980Y0146075D01*
X0167980Y0144476D02*
X0176456Y0144476D01*
X0176456Y0142878D02*
X0167799Y0142878D01*
X0166201Y0141279D02*
X0176603Y0141279D01*
X0161159Y0141279D02*
X0156201Y0141279D01*
X0157799Y0142878D02*
X0159561Y0142878D01*
X0159380Y0144476D02*
X0157980Y0144476D01*
X0157980Y0146075D02*
X0159380Y0146075D01*
X0156680Y0150870D02*
X0155792Y0150870D01*
X0136680Y0150870D02*
X0135792Y0150870D01*
X0134192Y0120499D02*
X0153422Y0120499D01*
X0147630Y0110908D02*
X0146880Y0110908D01*
X0146708Y0109309D02*
X0147630Y0109309D01*
X0142480Y0109309D02*
X0140880Y0109309D01*
X0140880Y0108290D02*
X0138043Y0108290D01*
X0137585Y0108413D01*
X0137175Y0108650D01*
X0136840Y0108985D01*
X0136603Y0109395D01*
X0136480Y0109853D01*
X0136480Y0113040D01*
X0140880Y0113040D01*
X0140880Y0108290D01*
X0140880Y0110908D02*
X0142480Y0110908D01*
X0142480Y0112506D02*
X0140880Y0112506D01*
X0140880Y0114105D02*
X0135730Y0114105D01*
X0135730Y0115703D02*
X0136480Y0115703D01*
X0136480Y0117302D02*
X0135730Y0117302D01*
X0135730Y0118900D02*
X0137045Y0118900D01*
X0140880Y0118900D02*
X0142480Y0118900D01*
X0142480Y0117302D02*
X0140880Y0117302D01*
X0140880Y0115703D02*
X0142480Y0115703D01*
X0136480Y0112506D02*
X0135730Y0112506D01*
X0135984Y0110908D02*
X0136480Y0110908D01*
X0136030Y0109900D02*
X0134981Y0109900D01*
X0134981Y0109900D01*
X0136030Y0109900D01*
X0136030Y0109309D02*
X0136652Y0109309D01*
X0126074Y0062952D02*
X0068979Y0062952D01*
X0068979Y0061354D02*
X0124347Y0061354D01*
X0122620Y0059755D02*
X0068979Y0059755D01*
X0068979Y0058157D02*
X0120893Y0058157D01*
X0119166Y0056558D02*
X0068979Y0056558D01*
X0068979Y0054960D02*
X0117439Y0054960D01*
X0115712Y0053361D02*
X0068979Y0053361D01*
X0068979Y0051763D02*
X0113986Y0051763D01*
X0112259Y0050164D02*
X0068979Y0050164D01*
X0068979Y0048566D02*
X0110532Y0048566D01*
X0108805Y0046967D02*
X0068979Y0046967D01*
X0068979Y0045369D02*
X0107078Y0045369D01*
X0115401Y0042172D02*
X0130404Y0042172D01*
X0129858Y0040573D02*
X0114680Y0040573D01*
X0114680Y0038975D02*
X0129858Y0038975D01*
X0129858Y0037376D02*
X0114680Y0037376D01*
X0114680Y0035778D02*
X0129858Y0035778D01*
X0129858Y0034179D02*
X0114680Y0034179D01*
X0114680Y0032581D02*
X0129858Y0032581D01*
X0127971Y0030982D02*
X0127971Y0030982D01*
X0127971Y0029384D02*
X0127971Y0029384D01*
X0127971Y0027785D02*
X0127971Y0027785D01*
X0127971Y0026187D02*
X0127971Y0026187D01*
X0127971Y0024588D02*
X0127971Y0024588D01*
X0127971Y0022990D02*
X0127971Y0022990D01*
X0127971Y0021391D02*
X0127971Y0021391D01*
X0124822Y0021391D02*
X0124822Y0021391D01*
X0124822Y0021289D02*
X0124822Y0021289D01*
X0124653Y0021289D01*
X0121672Y0021289D01*
X0121672Y0021289D01*
X0124822Y0021289D01*
X0124822Y0022990D02*
X0124822Y0022990D01*
X0124822Y0024588D02*
X0124822Y0024588D01*
X0124822Y0026187D02*
X0124822Y0026187D01*
X0124822Y0027785D02*
X0124822Y0027785D01*
X0124822Y0029384D02*
X0124822Y0029384D01*
X0124822Y0030982D02*
X0124822Y0030982D01*
X0121672Y0030982D02*
X0121672Y0030982D01*
X0121672Y0029384D02*
X0121672Y0029384D01*
X0121672Y0027785D02*
X0121672Y0027785D01*
X0121672Y0026187D02*
X0121672Y0026187D01*
X0121672Y0024588D02*
X0121672Y0024588D01*
X0121672Y0022990D02*
X0121672Y0022990D01*
X0121672Y0021391D02*
X0121672Y0021391D01*
X0118523Y0021391D02*
X0118522Y0021391D01*
X0118522Y0022990D02*
X0118523Y0022990D01*
X0118522Y0024588D02*
X0118523Y0024588D01*
X0118522Y0026187D02*
X0118523Y0026187D01*
X0118522Y0027785D02*
X0118523Y0027785D01*
X0118522Y0029384D02*
X0118523Y0029384D01*
X0118522Y0030982D02*
X0118523Y0030982D01*
X0117128Y0043770D02*
X0208205Y0043770D01*
X0208205Y0042172D02*
X0142862Y0042172D01*
X0143407Y0040573D02*
X0208205Y0040573D01*
X0209071Y0039002D02*
X0209071Y0039002D01*
X0209071Y0039002D01*
X0209118Y0038975D02*
X0143407Y0038975D01*
X0143407Y0037376D02*
X0217063Y0037376D01*
X0217063Y0035778D02*
X0143407Y0035778D01*
X0143407Y0034179D02*
X0199347Y0034179D01*
X0199347Y0032581D02*
X0143407Y0032581D01*
X0143719Y0031947D02*
X0143719Y0021289D01*
X0143719Y0021289D01*
X0146869Y0021289D01*
X0147037Y0021289D01*
X0150018Y0021289D01*
X0150018Y0021289D01*
X0146869Y0021289D01*
X0146869Y0021289D01*
X0146869Y0021289D01*
X0143719Y0021289D01*
X0143719Y0031947D01*
X0143719Y0030982D02*
X0143719Y0030982D01*
X0143719Y0029384D02*
X0143719Y0029384D01*
X0143719Y0027785D02*
X0143719Y0027785D01*
X0143719Y0026187D02*
X0143719Y0026187D01*
X0143719Y0024588D02*
X0143719Y0024588D01*
X0143719Y0022990D02*
X0143719Y0022990D01*
X0143719Y0021391D02*
X0143719Y0021391D01*
X0143719Y0021289D02*
X0143719Y0021289D01*
X0146700Y0021289D01*
X0146869Y0021289D01*
X0146869Y0021391D02*
X0146869Y0021391D01*
X0146869Y0022990D02*
X0146869Y0022990D01*
X0146869Y0024588D02*
X0146869Y0024588D01*
X0146869Y0026187D02*
X0146869Y0026187D01*
X0146869Y0027785D02*
X0146869Y0027785D01*
X0146869Y0029384D02*
X0146869Y0029384D01*
X0146869Y0030982D02*
X0146869Y0030982D01*
X0150019Y0030982D02*
X0150019Y0030982D01*
X0150019Y0029384D02*
X0150019Y0029384D01*
X0150019Y0027785D02*
X0150019Y0027785D01*
X0150019Y0026187D02*
X0150019Y0026187D01*
X0150019Y0024588D02*
X0150019Y0024588D01*
X0150019Y0022990D02*
X0150019Y0022990D01*
X0150019Y0021391D02*
X0150019Y0021391D01*
X0153168Y0021391D02*
X0153168Y0021391D01*
X0153168Y0022990D02*
X0153168Y0022990D01*
X0153168Y0024588D02*
X0153168Y0024588D01*
X0153168Y0026187D02*
X0153168Y0026187D01*
X0153168Y0027785D02*
X0153168Y0027785D01*
X0153168Y0029384D02*
X0153168Y0029384D01*
X0153168Y0030982D02*
X0153168Y0030982D01*
X0130943Y0056558D02*
X0208205Y0056558D01*
X0208205Y0054960D02*
X0129216Y0054960D01*
X0127489Y0053361D02*
X0208205Y0053361D01*
X0208205Y0051763D02*
X0125762Y0051763D01*
X0124035Y0050164D02*
X0208205Y0050164D01*
X0208205Y0048566D02*
X0122308Y0048566D01*
X0120582Y0046967D02*
X0208205Y0046967D01*
X0208205Y0045369D02*
X0118855Y0045369D01*
X0091782Y0043770D02*
X0073191Y0043770D01*
X0074113Y0042172D02*
X0090680Y0042172D01*
X0090680Y0040573D02*
X0074084Y0040573D01*
X0074054Y0038975D02*
X0090680Y0038975D01*
X0090680Y0037376D02*
X0074024Y0037376D01*
X0073995Y0035778D02*
X0090680Y0035778D01*
X0090680Y0034179D02*
X0073965Y0034179D01*
X0073935Y0032581D02*
X0090680Y0032581D01*
X0073513Y0106250D02*
X0073513Y0106250D01*
X0096332Y0160462D02*
X0029600Y0160462D01*
X0029600Y0162060D02*
X0097930Y0162060D01*
X0078280Y0163659D02*
X0074080Y0163659D01*
X0075480Y0165257D02*
X0076880Y0165257D01*
X0076880Y0166856D02*
X0075480Y0166856D01*
X0075623Y0168454D02*
X0076880Y0168454D01*
X0068689Y0173250D02*
X0062779Y0173250D01*
X0062779Y0174848D02*
X0067091Y0174848D01*
X0085747Y0253175D02*
X0091434Y0253175D01*
X0091741Y0254774D02*
X0085747Y0254774D01*
X0085747Y0256372D02*
X0090142Y0256372D01*
X0089080Y0257971D02*
X0085747Y0257971D01*
X0085747Y0259569D02*
X0089080Y0259569D01*
X0089080Y0261168D02*
X0085747Y0261168D01*
X0090601Y0262766D02*
X0029600Y0262766D01*
X0106335Y0262766D02*
X0111025Y0262766D01*
X0109427Y0261168D02*
X0107933Y0261168D01*
X0107980Y0259569D02*
X0109380Y0259569D01*
X0109380Y0257971D02*
X0107980Y0257971D01*
X0110680Y0253175D02*
X0111434Y0253175D01*
D38*
X0122490Y0242829D03*
X0158804Y0232300D03*
X0188194Y0247020D03*
X0187194Y0263020D03*
X0208194Y0250020D03*
X0220194Y0261020D03*
X0225194Y0273020D03*
X0216194Y0226020D03*
X0209194Y0216020D03*
X0196194Y0213020D03*
X0158554Y0173462D03*
X0171194Y0149020D03*
X0172194Y0131020D03*
X0191194Y0130020D03*
X0192194Y0150020D03*
X0223194Y0144020D03*
X0186194Y0105020D03*
X0170194Y0097020D03*
X0162194Y0095020D03*
X0170194Y0052020D03*
X0150194Y0052020D03*
X0122194Y0039020D03*
X0104194Y0059020D03*
X0073194Y0056020D03*
X0040194Y0084020D03*
X0089194Y0126020D03*
X0095194Y0095020D03*
X0099194Y0174020D03*
X0038194Y0181020D03*
X0035194Y0232020D03*
X0038194Y0273020D03*
X0068880Y0268067D03*
X0219194Y0074020D03*
X0192194Y0045020D03*
D39*
X0163680Y0102740D02*
X0156650Y0111870D01*
X0151130Y0111870D01*
X0151090Y0113800D02*
X0151130Y0113840D01*
X0148480Y0113840D01*
X0147440Y0114880D01*
X0147440Y0116690D01*
X0148530Y0117780D01*
X0151130Y0117780D01*
X0153674Y0117780D01*
X0160180Y0124286D01*
X0160180Y0117594D02*
X0155496Y0115810D01*
X0151130Y0115810D01*
X0151130Y0109900D02*
X0154700Y0109900D01*
X0155800Y0108800D01*
X0155800Y0106800D01*
X0153800Y0105800D01*
X0110800Y0105800D01*
X0098636Y0117964D01*
X0095120Y0117964D01*
X0114680Y0117686D02*
X0114739Y0116840D01*
X0121680Y0116840D01*
X0126650Y0111870D01*
X0132230Y0111870D01*
X0132230Y0113840D02*
X0127480Y0113840D01*
X0117526Y0123794D01*
X0117526Y0131840D01*
X0124834Y0132340D02*
X0124834Y0124340D01*
X0124834Y0119766D01*
X0126800Y0117800D01*
X0132210Y0117800D01*
X0132230Y0117780D01*
X0132170Y0117840D01*
X0132230Y0109900D02*
X0140620Y0109900D01*
X0141680Y0110840D01*
X0141680Y0115840D02*
X0147180Y0121340D01*
X0148180Y0124994D01*
X0148180Y0131686D02*
X0139680Y0131686D01*
X0140026Y0132340D01*
X0131526Y0132340D01*
X0131526Y0124340D02*
X0133526Y0123994D01*
X0139680Y0117840D01*
X0139680Y0124994D01*
X0135800Y0168800D02*
X0135570Y0169030D01*
X0135570Y0179202D01*
X0143460Y0179218D02*
X0143460Y0185160D01*
X0117853Y0188747D02*
X0117853Y0179202D01*
X0115885Y0179202D02*
X0115885Y0173885D01*
X0098800Y0156800D01*
X0098800Y0149960D01*
X0093680Y0144840D01*
X0093680Y0154840D02*
X0113916Y0175076D01*
X0113916Y0179202D01*
X0113618Y0192982D02*
X0106042Y0192982D01*
X0106042Y0194950D02*
X0095950Y0194950D01*
X0094800Y0193800D01*
X0107680Y0204840D02*
X0112680Y0204840D01*
X0113720Y0216604D02*
X0106042Y0216604D01*
X0113916Y0216800D02*
X0113916Y0224478D01*
X0143604Y0216604D02*
X0143800Y0216604D01*
X0151318Y0216604D01*
X0143996Y0216604D01*
X0199278Y0265895D02*
X0221705Y0265895D01*
X0224800Y0262800D01*
X0224800Y0219800D01*
X0224800Y0218614D01*
X0223026Y0216840D01*
X0219290Y0235800D02*
X0206800Y0235800D01*
X0202380Y0231380D01*
X0202380Y0231040D01*
X0208731Y0238139D02*
X0219070Y0238139D01*
X0219361Y0238431D01*
X0219361Y0240990D02*
X0219063Y0241289D01*
X0208731Y0241289D01*
X0219290Y0235800D02*
X0219361Y0235872D01*
D40*
X0199278Y0256840D02*
X0174082Y0256840D01*
X0199680Y0204840D02*
X0209708Y0204840D01*
X0199680Y0115316D02*
X0199704Y0114340D01*
X0199680Y0115316D02*
X0199680Y0094840D01*
X0165680Y0060840D01*
X0129680Y0060840D01*
X0102774Y0035934D01*
X0126680Y0071840D02*
X0161680Y0071840D01*
X0189680Y0099840D01*
X0091380Y0108516D02*
X0076904Y0108516D01*
X0072080Y0113340D01*
X0072080Y0129080D01*
X0068156Y0151840D02*
X0068180Y0151864D01*
X0068156Y0151840D02*
X0048680Y0151840D01*
X0045880Y0149040D01*
X0045880Y0106240D01*
X0064979Y0087141D01*
X0064979Y0034800D01*
D41*
X0148180Y0131686D02*
X0152780Y0131686D01*
X0160180Y0124286D01*
X0160480Y0124240D02*
X0190804Y0124240D01*
X0199704Y0114340D01*
X0198800Y0116244D01*
X0176180Y0236840D02*
X0176180Y0254742D01*
X0174082Y0256840D01*
D42*
X0198580Y0223040D02*
X0209708Y0204840D01*
X0163680Y0102740D02*
X0163680Y0102680D01*
X0160800Y0099800D01*
X0110800Y0099800D01*
X0096800Y0113800D01*
X0091804Y0113800D01*
X0087640Y0117964D01*
D43*
X0126680Y0071840D03*
X0189680Y0099840D03*
X0199680Y0204840D03*
D44*
X0160280Y0125140D02*
X0160480Y0124240D01*
X0160180Y0124286D01*
X0177656Y0114340D02*
X0172456Y0102740D01*
X0163680Y0102740D01*
X0069556Y0128440D02*
X0068180Y0129816D01*
D45*
X0069556Y0128440D02*
X0070916Y0129800D01*
X0072800Y0129800D01*
X0072080Y0129080D01*
M02*
