G75*
%MOIN*%
%OFA0B0*%
%FSLAX25Y25*%
%IPPOS*%
%LPD*%
%AMOC8*
5,1,8,0,0,1.08239X$1,22.5*
%
%ADD10C,0.00200*%
D10*
X0151050Y0177866D02*
X0151050Y0180068D01*
X0149582Y0180068D01*
X0150316Y0178967D02*
X0151050Y0178967D01*
X0151792Y0179334D02*
X0151792Y0177866D01*
X0152893Y0177866D01*
X0153260Y0178233D01*
X0153260Y0179334D01*
X0154002Y0177866D02*
X0155470Y0177866D01*
X0154736Y0177866D02*
X0154736Y0180068D01*
X0155470Y0179334D01*
X0156208Y0178233D02*
X0156208Y0177866D01*
X0156575Y0177866D01*
X0156575Y0178233D01*
X0156208Y0178233D01*
X0157316Y0178233D02*
X0157683Y0177866D01*
X0158417Y0177866D01*
X0158784Y0178233D01*
X0157316Y0179701D01*
X0157316Y0178233D01*
X0157316Y0179701D02*
X0157683Y0180068D01*
X0158417Y0180068D01*
X0158784Y0179701D01*
X0158784Y0178233D01*
X0158417Y0180866D02*
X0157683Y0180866D01*
X0157316Y0181233D01*
X0156575Y0181967D02*
X0155107Y0181967D01*
X0155474Y0180866D02*
X0155474Y0183068D01*
X0156575Y0181967D01*
X0157316Y0182701D02*
X0157683Y0183068D01*
X0158417Y0183068D01*
X0158784Y0182701D01*
X0158784Y0181233D01*
X0158417Y0180866D01*
X0151040Y0193958D02*
X0149572Y0195426D01*
X0149572Y0195793D01*
X0149939Y0196160D01*
X0150673Y0196160D01*
X0151040Y0195793D01*
X0151040Y0193958D02*
X0149572Y0193958D01*
X0148830Y0193958D02*
X0148463Y0193958D01*
X0148463Y0194325D01*
X0148830Y0194325D01*
X0148830Y0193958D01*
X0147725Y0193958D02*
X0146257Y0195426D01*
X0146257Y0195793D01*
X0146624Y0196160D01*
X0147358Y0196160D01*
X0147725Y0195793D01*
X0146673Y0196958D02*
X0145939Y0196958D01*
X0145572Y0197325D01*
X0144830Y0196958D02*
X0143362Y0196958D01*
X0144096Y0196958D02*
X0144096Y0199160D01*
X0144830Y0198426D01*
X0145572Y0198793D02*
X0145939Y0199160D01*
X0146673Y0199160D01*
X0147040Y0198793D01*
X0147040Y0197325D01*
X0146673Y0196958D01*
X0145515Y0195426D02*
X0145515Y0194325D01*
X0145148Y0193958D01*
X0144047Y0193958D01*
X0144047Y0195426D01*
X0143305Y0195059D02*
X0142571Y0195059D01*
X0143305Y0196160D02*
X0141837Y0196160D01*
X0143305Y0196160D02*
X0143305Y0193958D01*
X0146257Y0193958D02*
X0147725Y0193958D01*
X0154215Y0203663D02*
X0154215Y0205865D01*
X0152747Y0205865D01*
X0153481Y0204764D02*
X0154215Y0204764D01*
X0154957Y0205131D02*
X0154957Y0203663D01*
X0156058Y0203663D01*
X0156425Y0204030D01*
X0156425Y0205131D01*
X0157167Y0205131D02*
X0157167Y0205498D01*
X0157534Y0205865D01*
X0158268Y0205865D01*
X0158635Y0205498D01*
X0158215Y0206663D02*
X0156747Y0208131D01*
X0156747Y0208498D01*
X0157114Y0208865D01*
X0157848Y0208865D01*
X0158215Y0208498D01*
X0158957Y0208498D02*
X0159324Y0208865D01*
X0160058Y0208865D01*
X0160425Y0208498D01*
X0160425Y0207030D01*
X0160058Y0206663D01*
X0159324Y0206663D01*
X0158957Y0207030D01*
X0158215Y0206663D02*
X0156747Y0206663D01*
X0157167Y0205131D02*
X0158635Y0203663D01*
X0157167Y0203663D01*
X0159373Y0203663D02*
X0159739Y0203663D01*
X0159739Y0204030D01*
X0159373Y0204030D01*
X0159373Y0203663D01*
X0160481Y0203663D02*
X0161949Y0203663D01*
X0160481Y0205131D01*
X0160481Y0205498D01*
X0160848Y0205865D01*
X0161582Y0205865D01*
X0161949Y0205498D01*
X0159990Y0226823D02*
X0160357Y0227190D01*
X0158889Y0228658D01*
X0158889Y0227190D01*
X0159256Y0226823D01*
X0159990Y0226823D01*
X0160357Y0227190D02*
X0160357Y0228658D01*
X0159990Y0229025D01*
X0159256Y0229025D01*
X0158889Y0228658D01*
X0159256Y0229823D02*
X0158889Y0230190D01*
X0159256Y0229823D02*
X0159990Y0229823D01*
X0160357Y0230190D01*
X0160357Y0231658D01*
X0159990Y0232025D01*
X0159256Y0232025D01*
X0158889Y0231658D01*
X0158147Y0232025D02*
X0158147Y0230924D01*
X0157413Y0231291D01*
X0157046Y0231291D01*
X0156679Y0230924D01*
X0156679Y0230190D01*
X0157046Y0229823D01*
X0157780Y0229823D01*
X0158147Y0230190D01*
X0158147Y0232025D02*
X0156679Y0232025D01*
X0156308Y0229025D02*
X0156308Y0226823D01*
X0157042Y0226823D02*
X0155574Y0226823D01*
X0154832Y0227190D02*
X0154832Y0228291D01*
X0154832Y0227190D02*
X0154465Y0226823D01*
X0153364Y0226823D01*
X0153364Y0228291D01*
X0152622Y0227924D02*
X0151888Y0227924D01*
X0152622Y0226823D02*
X0152622Y0229025D01*
X0151154Y0229025D01*
X0156308Y0229025D02*
X0157042Y0228291D01*
X0157780Y0227190D02*
X0157780Y0226823D01*
X0158147Y0226823D01*
X0158147Y0227190D01*
X0157780Y0227190D01*
X0138200Y0227400D02*
X0138200Y0229602D01*
X0137099Y0229602D01*
X0136732Y0229235D01*
X0136732Y0228501D01*
X0137099Y0228134D01*
X0138200Y0228134D01*
X0137466Y0228134D02*
X0136732Y0227400D01*
X0135990Y0227400D02*
X0135990Y0227767D01*
X0134522Y0229235D01*
X0134522Y0229602D01*
X0135990Y0229602D01*
X0134885Y0226602D02*
X0133417Y0226602D01*
X0133417Y0226235D01*
X0134885Y0224767D01*
X0134885Y0224400D01*
X0135623Y0224400D02*
X0135990Y0224400D01*
X0135990Y0224767D01*
X0135623Y0224767D01*
X0135623Y0224400D01*
X0137099Y0224400D02*
X0137099Y0226602D01*
X0138200Y0225501D01*
X0136732Y0225501D01*
X0132675Y0225134D02*
X0131207Y0226602D01*
X0132675Y0226602D02*
X0132675Y0224400D01*
X0132308Y0225501D02*
X0131207Y0224400D01*
X0125504Y0235396D02*
X0125871Y0235763D01*
X0124403Y0237231D01*
X0124403Y0235763D01*
X0124770Y0235396D01*
X0125504Y0235396D01*
X0125871Y0235763D02*
X0125871Y0237231D01*
X0125504Y0237598D01*
X0124770Y0237598D01*
X0124403Y0237231D01*
X0124770Y0238396D02*
X0124403Y0238763D01*
X0124770Y0238396D02*
X0125504Y0238396D01*
X0125871Y0238763D01*
X0125871Y0240231D01*
X0125504Y0240598D01*
X0124770Y0240598D01*
X0124403Y0240231D01*
X0123661Y0239497D02*
X0122561Y0239497D01*
X0122194Y0239130D01*
X0122194Y0238763D01*
X0122561Y0238396D01*
X0123294Y0238396D01*
X0123661Y0238763D01*
X0123661Y0239497D01*
X0122927Y0240231D01*
X0122194Y0240598D01*
X0121823Y0237598D02*
X0121823Y0235396D01*
X0122557Y0235396D02*
X0121089Y0235396D01*
X0120347Y0235763D02*
X0119980Y0235396D01*
X0118879Y0235396D01*
X0118879Y0236864D01*
X0118137Y0236497D02*
X0117403Y0236497D01*
X0118137Y0237598D02*
X0116669Y0237598D01*
X0115700Y0237097D02*
X0114233Y0237097D01*
X0113491Y0236363D02*
X0113124Y0236363D01*
X0113124Y0235996D01*
X0113491Y0235996D01*
X0113491Y0236363D01*
X0112386Y0236363D02*
X0112386Y0235996D01*
X0112386Y0236363D02*
X0110918Y0237831D01*
X0110918Y0238198D01*
X0112386Y0238198D01*
X0112390Y0238996D02*
X0112023Y0239363D01*
X0112023Y0239730D01*
X0112390Y0240097D01*
X0113124Y0240097D01*
X0113491Y0240464D01*
X0113491Y0240831D01*
X0113124Y0241198D01*
X0112390Y0241198D01*
X0112023Y0240831D01*
X0112023Y0240464D01*
X0112390Y0240097D01*
X0113124Y0240097D02*
X0113491Y0239730D01*
X0113491Y0239363D01*
X0113124Y0238996D01*
X0112390Y0238996D01*
X0114233Y0239363D02*
X0114600Y0238996D01*
X0115333Y0238996D01*
X0115700Y0239363D01*
X0115700Y0240831D01*
X0115333Y0241198D01*
X0114600Y0241198D01*
X0114233Y0240831D01*
X0114600Y0238198D02*
X0115700Y0237097D01*
X0114600Y0235996D02*
X0114600Y0238198D01*
X0118137Y0237598D02*
X0118137Y0235396D01*
X0120347Y0235763D02*
X0120347Y0236864D01*
X0121823Y0237598D02*
X0122557Y0236864D01*
X0123294Y0235763D02*
X0123294Y0235396D01*
X0123661Y0235396D01*
X0123661Y0235763D01*
X0123294Y0235763D01*
X0110176Y0236363D02*
X0109809Y0235996D01*
X0108708Y0235996D01*
X0108708Y0237464D01*
X0107966Y0237097D02*
X0107232Y0237097D01*
X0107966Y0238198D02*
X0106498Y0238198D01*
X0107966Y0238198D02*
X0107966Y0235996D01*
X0110176Y0236363D02*
X0110176Y0237464D01*
X0104160Y0228482D02*
X0103059Y0228482D01*
X0102692Y0228115D01*
X0102692Y0227381D01*
X0103059Y0227014D01*
X0104160Y0227014D01*
X0103426Y0227014D02*
X0102692Y0226280D01*
X0101950Y0226280D02*
X0100482Y0226280D01*
X0101216Y0226280D02*
X0101216Y0228482D01*
X0101950Y0227748D01*
X0101583Y0225482D02*
X0100849Y0225482D01*
X0100482Y0225115D01*
X0101950Y0223647D01*
X0101583Y0223280D01*
X0100849Y0223280D01*
X0100482Y0223647D01*
X0100482Y0225115D01*
X0099740Y0225482D02*
X0099740Y0223280D01*
X0099740Y0224014D02*
X0098272Y0225482D01*
X0099373Y0224381D02*
X0098272Y0223280D01*
X0101583Y0225482D02*
X0101950Y0225115D01*
X0101950Y0223647D01*
X0102692Y0223280D02*
X0104160Y0223280D01*
X0103426Y0223280D02*
X0103426Y0225482D01*
X0104160Y0224748D01*
X0104160Y0226280D02*
X0104160Y0228482D01*
X0108506Y0213782D02*
X0108506Y0211580D01*
X0109240Y0211580D02*
X0107772Y0211580D01*
X0108135Y0210048D02*
X0108135Y0208947D01*
X0107768Y0208580D01*
X0106667Y0208580D01*
X0106667Y0210048D01*
X0105925Y0209681D02*
X0105191Y0209681D01*
X0104458Y0210782D02*
X0105925Y0210782D01*
X0105925Y0208580D01*
X0108877Y0208580D02*
X0110345Y0208580D01*
X0109611Y0208580D02*
X0109611Y0210782D01*
X0110345Y0210048D01*
X0111083Y0208947D02*
X0111083Y0208580D01*
X0111450Y0208580D01*
X0111450Y0208947D01*
X0111083Y0208947D01*
X0112192Y0208947D02*
X0112192Y0210415D01*
X0113660Y0208947D01*
X0113293Y0208580D01*
X0112559Y0208580D01*
X0112192Y0208947D01*
X0112192Y0210415D02*
X0112559Y0210782D01*
X0113293Y0210782D01*
X0113660Y0210415D01*
X0113660Y0208947D01*
X0113293Y0211580D02*
X0112559Y0211580D01*
X0112192Y0211947D01*
X0111450Y0211580D02*
X0109982Y0211580D01*
X0110716Y0211580D02*
X0110716Y0213782D01*
X0111450Y0213048D01*
X0112192Y0213415D02*
X0112559Y0213782D01*
X0113293Y0213782D01*
X0113660Y0213415D01*
X0113660Y0211947D01*
X0113293Y0211580D01*
X0109240Y0213048D02*
X0108506Y0213782D01*
X0106888Y0202521D02*
X0107255Y0202154D01*
X0107255Y0200687D01*
X0106888Y0200320D01*
X0106154Y0200320D01*
X0105787Y0200687D01*
X0105045Y0200687D02*
X0104678Y0200320D01*
X0103944Y0200320D01*
X0103577Y0200687D01*
X0103577Y0201053D01*
X0103944Y0201420D01*
X0104311Y0201420D01*
X0103944Y0201420D02*
X0103577Y0201787D01*
X0103577Y0202154D01*
X0103944Y0202521D01*
X0104678Y0202521D01*
X0105045Y0202154D01*
X0105787Y0202154D02*
X0106154Y0202521D01*
X0106888Y0202521D01*
X0106888Y0199521D02*
X0106154Y0199521D01*
X0105787Y0199154D01*
X0107255Y0197687D01*
X0106888Y0197320D01*
X0106154Y0197320D01*
X0105787Y0197687D01*
X0105787Y0199154D01*
X0106888Y0199521D02*
X0107255Y0199154D01*
X0107255Y0197687D01*
X0105045Y0197687D02*
X0104678Y0197687D01*
X0104678Y0197320D01*
X0105045Y0197320D01*
X0105045Y0197687D01*
X0103940Y0197320D02*
X0102472Y0197320D01*
X0103206Y0197320D02*
X0103206Y0199521D01*
X0103940Y0198787D01*
X0101730Y0198787D02*
X0101730Y0197687D01*
X0101363Y0197320D01*
X0100262Y0197320D01*
X0100262Y0198787D01*
X0099520Y0198420D02*
X0098786Y0198420D01*
X0099520Y0197320D02*
X0099520Y0199521D01*
X0098052Y0199521D01*
X0116860Y0187486D02*
X0116860Y0186018D01*
X0117227Y0185651D01*
X0117961Y0185651D01*
X0118328Y0186018D01*
X0116860Y0187486D01*
X0117227Y0187853D01*
X0117961Y0187853D01*
X0118328Y0187486D01*
X0118328Y0186018D01*
X0119070Y0185651D02*
X0120538Y0185651D01*
X0119804Y0185651D02*
X0119804Y0187853D01*
X0120538Y0187119D01*
X0121279Y0187486D02*
X0121646Y0187853D01*
X0122380Y0187853D01*
X0122747Y0187486D01*
X0122747Y0186018D01*
X0122380Y0185651D01*
X0121646Y0185651D01*
X0121279Y0186018D01*
X0122013Y0184853D02*
X0122013Y0182651D01*
X0122747Y0182651D02*
X0121279Y0182651D01*
X0120538Y0183018D02*
X0120171Y0182651D01*
X0119070Y0182651D01*
X0119070Y0184119D01*
X0118328Y0183752D02*
X0117594Y0183752D01*
X0118328Y0182651D02*
X0118328Y0184853D01*
X0116860Y0184853D01*
X0120538Y0184119D02*
X0120538Y0183018D01*
X0122013Y0184853D02*
X0122747Y0184119D01*
X0128336Y0200590D02*
X0128336Y0202792D01*
X0126869Y0202792D01*
X0127602Y0201691D02*
X0128336Y0201691D01*
X0129078Y0202058D02*
X0129078Y0200590D01*
X0130179Y0200590D01*
X0130546Y0200957D01*
X0130546Y0202058D01*
X0130970Y0203590D02*
X0130603Y0203957D01*
X0130970Y0203590D02*
X0131704Y0203590D01*
X0132071Y0203957D01*
X0132071Y0205425D01*
X0131704Y0205792D01*
X0130970Y0205792D01*
X0130603Y0205425D01*
X0129861Y0205425D02*
X0129861Y0205058D01*
X0129494Y0204691D01*
X0128393Y0204691D01*
X0128393Y0203957D02*
X0128393Y0205425D01*
X0128760Y0205792D01*
X0129494Y0205792D01*
X0129861Y0205425D01*
X0129861Y0203957D02*
X0129494Y0203590D01*
X0128760Y0203590D01*
X0128393Y0203957D01*
X0132022Y0202792D02*
X0132022Y0200590D01*
X0132756Y0200590D02*
X0131288Y0200590D01*
X0132756Y0202058D02*
X0132022Y0202792D01*
X0133494Y0200957D02*
X0133494Y0200590D01*
X0133861Y0200590D01*
X0133861Y0200957D01*
X0133494Y0200957D01*
X0134603Y0200957D02*
X0134970Y0200590D01*
X0135704Y0200590D01*
X0136071Y0200957D01*
X0134603Y0202425D01*
X0134603Y0200957D01*
X0136071Y0200957D02*
X0136071Y0202425D01*
X0135704Y0202792D01*
X0134970Y0202792D01*
X0134603Y0202425D01*
M02*
