G75*
%MOIN*%
%OFA0B0*%
%FSLAX25Y25*%
%IPPOS*%
%LPD*%
%AMOC8*
5,1,8,0,0,1.08239X$1,22.5*
%
%ADD10C,0.00300*%
%ADD11C,0.00400*%
%ADD12C,0.00200*%
%ADD13C,0.02200*%
%ADD14C,0.00600*%
%ADD15C,0.01000*%
%ADD16C,0.00500*%
D10*
X0019250Y0045950D02*
X0019250Y0048852D01*
X0020701Y0048852D01*
X0021185Y0048369D01*
X0021185Y0047401D01*
X0020701Y0046917D01*
X0019250Y0046917D01*
X0020217Y0046917D02*
X0021185Y0045950D01*
X0022197Y0045950D02*
X0024131Y0047885D01*
X0024131Y0048369D01*
X0023648Y0048852D01*
X0022680Y0048852D01*
X0022197Y0048369D01*
X0022197Y0045950D02*
X0024131Y0045950D01*
X0040750Y0030453D02*
X0040750Y0028602D01*
X0041984Y0029219D01*
X0042602Y0029219D01*
X0043219Y0028602D01*
X0043219Y0027367D01*
X0042602Y0026750D01*
X0041367Y0026750D01*
X0040750Y0027367D01*
X0040750Y0030453D02*
X0043219Y0030453D01*
X0044433Y0030453D02*
X0044433Y0027984D01*
X0045668Y0026750D01*
X0046902Y0027984D01*
X0046902Y0030453D01*
X0048116Y0026133D02*
X0050585Y0026133D01*
X0051799Y0027367D02*
X0051799Y0028602D01*
X0052417Y0029219D01*
X0053651Y0029219D01*
X0054268Y0028602D01*
X0054268Y0027367D01*
X0053651Y0026750D01*
X0052417Y0026750D01*
X0051799Y0027367D01*
X0055483Y0027367D02*
X0056100Y0026750D01*
X0057951Y0026750D01*
X0057951Y0029219D01*
X0059166Y0029219D02*
X0060400Y0029219D01*
X0059783Y0029836D02*
X0059783Y0027367D01*
X0060400Y0026750D01*
X0055483Y0027367D02*
X0055483Y0029219D01*
X0051914Y0066042D02*
X0049445Y0066042D01*
X0050680Y0066042D02*
X0050680Y0069745D01*
X0049445Y0068511D01*
X0048231Y0069128D02*
X0047614Y0069745D01*
X0046379Y0069745D01*
X0045762Y0069128D01*
X0045762Y0066659D01*
X0046379Y0066042D01*
X0047614Y0066042D01*
X0048231Y0066659D01*
X0044541Y0066042D02*
X0043307Y0066042D01*
X0043924Y0066042D02*
X0043924Y0069745D01*
X0043307Y0069745D02*
X0044541Y0069745D01*
X0022138Y0083834D02*
X0021655Y0083350D01*
X0020687Y0083350D01*
X0020203Y0083834D01*
X0020203Y0084801D02*
X0021171Y0085285D01*
X0021655Y0085285D01*
X0022138Y0084801D01*
X0022138Y0083834D01*
X0020203Y0084801D02*
X0020203Y0086252D01*
X0022138Y0086252D01*
X0019192Y0085769D02*
X0018708Y0086252D01*
X0017741Y0086252D01*
X0017257Y0085769D01*
X0017257Y0083834D01*
X0017741Y0083350D01*
X0018708Y0083350D01*
X0019192Y0083834D01*
X0084257Y0148434D02*
X0084741Y0147950D01*
X0085708Y0147950D01*
X0086192Y0148434D01*
X0087203Y0148434D02*
X0087203Y0148917D01*
X0087687Y0149401D01*
X0088655Y0149401D01*
X0089138Y0148917D01*
X0089138Y0148434D01*
X0088655Y0147950D01*
X0087687Y0147950D01*
X0087203Y0148434D01*
X0087687Y0149401D02*
X0087203Y0149885D01*
X0087203Y0150369D01*
X0087687Y0150852D01*
X0088655Y0150852D01*
X0089138Y0150369D01*
X0089138Y0149885D01*
X0088655Y0149401D01*
X0086192Y0150369D02*
X0085708Y0150852D01*
X0084741Y0150852D01*
X0084257Y0150369D01*
X0084257Y0148434D01*
X0116387Y0128821D02*
X0116387Y0126886D01*
X0116870Y0126402D01*
X0117838Y0126402D01*
X0118322Y0126886D01*
X0119333Y0126886D02*
X0119333Y0126402D01*
X0119333Y0126886D02*
X0121268Y0128821D01*
X0121268Y0129305D01*
X0119333Y0129305D01*
X0118322Y0128821D02*
X0117838Y0129305D01*
X0116870Y0129305D01*
X0116387Y0128821D01*
X0123538Y0139835D02*
X0124505Y0139835D01*
X0124989Y0140319D01*
X0126001Y0140319D02*
X0126484Y0139835D01*
X0127452Y0139835D01*
X0127936Y0140319D01*
X0127936Y0140802D01*
X0127452Y0141286D01*
X0126968Y0141286D01*
X0127452Y0141286D02*
X0127936Y0141770D01*
X0127936Y0142254D01*
X0127452Y0142737D01*
X0126484Y0142737D01*
X0126001Y0142254D01*
X0124989Y0142254D02*
X0124505Y0142737D01*
X0123538Y0142737D01*
X0123054Y0142254D01*
X0123054Y0140319D01*
X0123538Y0139835D01*
X0123548Y0156203D02*
X0123548Y0159106D01*
X0122097Y0157655D01*
X0124031Y0157655D01*
X0121085Y0158622D02*
X0120601Y0159106D01*
X0119634Y0159106D01*
X0119150Y0158622D01*
X0119150Y0156687D01*
X0119634Y0156203D01*
X0120601Y0156203D01*
X0121085Y0156687D01*
X0105100Y0043670D02*
X0105100Y0043053D01*
X0105100Y0041819D02*
X0105100Y0039350D01*
X0104483Y0039350D02*
X0105717Y0039350D01*
X0106938Y0039350D02*
X0106938Y0041819D01*
X0108790Y0041819D01*
X0109407Y0041202D01*
X0109407Y0039350D01*
X0105100Y0041819D02*
X0104483Y0041819D01*
X0103268Y0038733D02*
X0100799Y0038733D01*
X0099585Y0040584D02*
X0099585Y0043053D01*
X0099585Y0040584D02*
X0098351Y0039350D01*
X0097116Y0040584D01*
X0097116Y0043053D01*
X0095902Y0042436D02*
X0095902Y0041819D01*
X0093433Y0039350D01*
X0095902Y0039350D01*
X0095902Y0042436D02*
X0095285Y0043053D01*
X0094050Y0043053D01*
X0093433Y0042436D01*
X0090984Y0043053D02*
X0090984Y0039350D01*
X0089750Y0039350D02*
X0092219Y0039350D01*
X0089750Y0041819D02*
X0090984Y0043053D01*
D11*
X0143600Y0029637D02*
X0143600Y0026567D01*
X0144367Y0025800D01*
X0145902Y0025800D01*
X0146669Y0026567D01*
X0146669Y0028102D01*
X0145135Y0028102D01*
X0146669Y0029637D02*
X0145902Y0030404D01*
X0144367Y0030404D01*
X0143600Y0029637D01*
X0148204Y0030404D02*
X0148204Y0025800D01*
X0151273Y0025800D02*
X0148204Y0030404D01*
X0151273Y0030404D02*
X0151273Y0025800D01*
X0152808Y0025800D02*
X0155110Y0025800D01*
X0155877Y0026567D01*
X0155877Y0029637D01*
X0155110Y0030404D01*
X0152808Y0030404D01*
X0152808Y0025800D01*
X0144173Y0156311D02*
X0141104Y0156311D01*
X0142639Y0156311D02*
X0142639Y0160915D01*
X0141104Y0159380D01*
X0139569Y0160915D02*
X0139569Y0157078D01*
X0138802Y0156311D01*
X0137267Y0156311D01*
X0136500Y0157078D01*
X0136500Y0160915D01*
D12*
X0118870Y0161353D02*
X0118870Y0149754D01*
X0111130Y0149754D01*
X0111130Y0161353D01*
X0118870Y0161353D01*
X0116600Y0134152D02*
X0108860Y0134152D01*
X0108860Y0122553D01*
X0116600Y0122553D01*
X0116600Y0134152D01*
X0084370Y0139201D02*
X0076630Y0139201D01*
X0076630Y0150799D01*
X0084370Y0150799D01*
X0084370Y0139201D01*
X0032570Y0084899D02*
X0032570Y0073301D01*
X0024830Y0073301D01*
X0024830Y0084899D01*
X0032570Y0084899D01*
X0033670Y0056699D02*
X0025930Y0056699D01*
X0025930Y0045101D01*
X0033670Y0045101D01*
X0033670Y0056699D01*
D13*
X0080380Y0145000D02*
X0080620Y0145000D01*
X0112610Y0128352D02*
X0112850Y0128352D01*
X0114880Y0155553D02*
X0115120Y0155553D01*
D14*
X0114723Y0143797D02*
X0117085Y0143797D01*
X0117085Y0139073D02*
X0114723Y0139073D01*
D15*
X0109992Y0152516D02*
X0084008Y0152516D01*
X0084008Y0201335D01*
X0109992Y0201335D01*
X0109992Y0152516D01*
D16*
X0107800Y0136900D02*
X0107800Y0123100D01*
X0081000Y0123100D01*
X0081000Y0136900D01*
X0107800Y0136900D01*
X0130130Y0140465D02*
X0158870Y0140465D01*
X0158870Y0123535D02*
X0130130Y0123535D01*
X0130130Y0118465D02*
X0158870Y0118465D01*
X0158870Y0101535D02*
X0130130Y0101535D01*
X0130130Y0096465D02*
X0158870Y0096465D01*
X0162217Y0083740D02*
X0162217Y0061693D01*
X0162217Y0061575D02*
X0171075Y0061575D01*
X0158870Y0079535D02*
X0130130Y0079535D01*
X0111870Y0086535D02*
X0083130Y0086535D01*
X0067970Y0088435D02*
X0039230Y0088435D01*
X0031522Y0072979D02*
X0031522Y0057585D01*
X0019500Y0061575D02*
X0010642Y0061575D01*
X0019500Y0061693D02*
X0019500Y0083740D01*
X0162217Y0083740D01*
X0111870Y0103465D02*
X0083130Y0103465D01*
X0067970Y0105365D02*
X0039230Y0105365D01*
X0034130Y0110535D02*
X0062870Y0110535D01*
X0062870Y0127465D02*
X0034130Y0127465D01*
X0034130Y0132535D02*
X0062870Y0132535D01*
X0062870Y0149465D02*
X0034130Y0149465D01*
X0027319Y0155984D02*
X0027319Y0204016D01*
X0079681Y0204016D01*
X0079681Y0155984D01*
X0027319Y0155984D01*
X0065616Y0072979D02*
X0065616Y0057585D01*
X0116500Y0204611D02*
X0156500Y0204611D01*
M02*
