G75*
%MOIN*%
%OFA0B0*%
%FSLAX25Y25*%
%IPPOS*%
%LPD*%
%AMOC8*
5,1,8,0,0,1.08239X$1,22.5*
%
%ADD10R,0.03937X0.04331*%
%ADD11R,0.03150X0.04724*%
%ADD12R,0.22835X0.24409*%
%ADD13R,0.06299X0.11811*%
%ADD14R,0.03600X0.08500*%
%ADD15R,0.42500X0.41000*%
%ADD16R,0.12992X0.19291*%
%ADD17R,0.14961X0.07874*%
%ADD18R,0.05906X0.07874*%
%ADD19R,0.01575X0.09055*%
%ADD20R,0.04331X0.03937*%
%ADD21R,0.02362X0.17717*%
%ADD22R,0.10906X0.10039*%
%ADD23C,0.01600*%
%ADD24C,0.05600*%
%ADD25C,0.07000*%
%ADD26C,0.03962*%
%ADD27C,0.03200*%
%ADD28C,0.02400*%
%ADD29C,0.01200*%
%ADD30C,0.04000*%
%ADD31C,0.01000*%
%ADD32C,0.03569*%
D10*
X0028700Y0075754D03*
X0028700Y0082446D03*
X0080500Y0141654D03*
X0080500Y0148346D03*
X0112730Y0131699D03*
X0112730Y0125006D03*
X0115000Y0152207D03*
X0115000Y0158900D03*
D11*
X0112361Y0141435D03*
X0119448Y0141435D03*
D12*
X0097000Y0166295D03*
D13*
X0088004Y0194563D03*
X0105996Y0194563D03*
D14*
X0121500Y0149811D03*
X0126500Y0149811D03*
X0131500Y0149811D03*
X0136500Y0149811D03*
X0141500Y0149811D03*
X0146500Y0149811D03*
X0151500Y0149811D03*
D15*
X0136500Y0182611D03*
D16*
X0075154Y0180000D03*
X0031846Y0180000D03*
D17*
X0094400Y0142402D03*
D18*
X0094400Y0117598D03*
X0085345Y0117598D03*
X0103455Y0117598D03*
D19*
X0062319Y0075124D03*
X0059819Y0075124D03*
X0057319Y0075124D03*
X0054819Y0075124D03*
X0052319Y0075124D03*
X0049819Y0075124D03*
X0047319Y0075124D03*
X0044819Y0075124D03*
X0042319Y0075124D03*
X0039819Y0075124D03*
X0037319Y0075124D03*
X0034819Y0075124D03*
X0034819Y0055439D03*
X0037319Y0055439D03*
X0039819Y0055439D03*
X0042319Y0055439D03*
X0044819Y0055439D03*
X0047319Y0055439D03*
X0049819Y0055439D03*
X0052319Y0055439D03*
X0054819Y0055439D03*
X0057319Y0055439D03*
X0059819Y0055439D03*
X0062319Y0055439D03*
D20*
X0029800Y0054246D03*
X0029800Y0047554D03*
D21*
X0028949Y0014449D03*
X0025799Y0014449D03*
X0022650Y0014449D03*
X0032098Y0014449D03*
X0035248Y0014449D03*
X0038398Y0014449D03*
X0041547Y0014449D03*
X0044697Y0014449D03*
X0047846Y0014449D03*
X0050996Y0014449D03*
X0054146Y0014449D03*
X0057295Y0014449D03*
X0060445Y0014449D03*
X0063594Y0014449D03*
X0066744Y0014449D03*
X0069894Y0014449D03*
X0073043Y0014449D03*
X0076193Y0014449D03*
X0079343Y0014449D03*
X0082492Y0014449D03*
X0085642Y0014449D03*
X0088791Y0014449D03*
X0104539Y0014449D03*
X0107689Y0014449D03*
X0110839Y0014449D03*
X0113988Y0014449D03*
X0117138Y0014449D03*
X0120287Y0014449D03*
X0123437Y0014449D03*
X0126587Y0014449D03*
X0129736Y0014449D03*
X0132886Y0014449D03*
X0136035Y0014449D03*
X0139185Y0014449D03*
X0142335Y0014449D03*
X0145484Y0014449D03*
X0148634Y0014449D03*
X0151783Y0014449D03*
X0154933Y0014449D03*
X0158083Y0014449D03*
D22*
X0157177Y0088000D03*
X0157177Y0110000D03*
X0157177Y0132000D03*
X0131823Y0132000D03*
X0131823Y0110000D03*
X0131823Y0088000D03*
X0110177Y0095000D03*
X0084823Y0095000D03*
X0066277Y0096900D03*
X0061177Y0119000D03*
X0061177Y0141000D03*
X0035823Y0141000D03*
X0035823Y0119000D03*
X0040923Y0096900D03*
D23*
X0040123Y0097078D02*
X0010497Y0097078D01*
X0010512Y0098676D02*
X0033670Y0098676D01*
X0033670Y0097700D02*
X0040123Y0097700D01*
X0040123Y0103720D01*
X0035233Y0103720D01*
X0034775Y0103597D01*
X0034365Y0103360D01*
X0034030Y0103025D01*
X0033793Y0102614D01*
X0033670Y0102157D01*
X0033670Y0097700D01*
X0033670Y0096100D02*
X0033670Y0091643D01*
X0033793Y0091186D01*
X0034030Y0090775D01*
X0034365Y0090440D01*
X0034775Y0090203D01*
X0035233Y0090080D01*
X0040123Y0090080D01*
X0040123Y0096100D01*
X0041723Y0096100D01*
X0041723Y0090080D01*
X0046613Y0090080D01*
X0047070Y0090203D01*
X0047481Y0090440D01*
X0047816Y0090775D01*
X0048000Y0091094D01*
X0048000Y0086800D01*
X0065100Y0086800D01*
X0065100Y0077500D01*
X0064906Y0077498D01*
X0064906Y0079889D01*
X0064784Y0080347D01*
X0064547Y0080757D01*
X0064212Y0081092D01*
X0063801Y0081329D01*
X0063343Y0081452D01*
X0062319Y0081452D01*
X0062319Y0080215D01*
X0062319Y0080215D01*
X0062319Y0081452D01*
X0061295Y0081452D01*
X0061069Y0081391D01*
X0060843Y0081452D01*
X0059819Y0081452D01*
X0059819Y0080215D01*
X0059819Y0080215D01*
X0059819Y0080215D01*
X0059819Y0081452D01*
X0058795Y0081452D01*
X0058569Y0081391D01*
X0058343Y0081452D01*
X0057319Y0081452D01*
X0057319Y0080215D01*
X0057319Y0080215D01*
X0057319Y0080215D01*
X0057319Y0081452D01*
X0056295Y0081452D01*
X0056069Y0081391D01*
X0055843Y0081452D01*
X0054819Y0081452D01*
X0054819Y0080215D01*
X0054819Y0080215D01*
X0054819Y0080215D01*
X0054819Y0081452D01*
X0053795Y0081452D01*
X0053569Y0081391D01*
X0053343Y0081452D01*
X0052319Y0081452D01*
X0052319Y0080215D01*
X0052319Y0080215D01*
X0052319Y0080215D01*
X0052319Y0081452D01*
X0051295Y0081452D01*
X0051069Y0081391D01*
X0050843Y0081452D01*
X0049819Y0081452D01*
X0049819Y0080215D01*
X0049819Y0080215D01*
X0049819Y0080215D01*
X0049819Y0081452D01*
X0048795Y0081452D01*
X0048569Y0081391D01*
X0048343Y0081452D01*
X0047319Y0081452D01*
X0047319Y0080215D01*
X0047319Y0081452D01*
X0046295Y0081452D01*
X0045837Y0081329D01*
X0045426Y0081092D01*
X0045386Y0081052D01*
X0039519Y0081052D01*
X0039519Y0082092D01*
X0038881Y0082730D01*
X0038881Y0083673D01*
X0038366Y0084915D01*
X0037415Y0085866D01*
X0036173Y0086381D01*
X0034827Y0086381D01*
X0033585Y0085866D01*
X0032918Y0085200D01*
X0032060Y0085200D01*
X0031248Y0086012D01*
X0026152Y0086012D01*
X0025331Y0085192D01*
X0025331Y0079701D01*
X0025933Y0079100D01*
X0025331Y0078499D01*
X0025331Y0076992D01*
X0010300Y0076800D01*
X0011500Y0200500D01*
X0048000Y0200500D01*
X0048000Y0102706D01*
X0047816Y0103025D01*
X0047481Y0103360D01*
X0047070Y0103597D01*
X0046613Y0103720D01*
X0041723Y0103720D01*
X0041723Y0097700D01*
X0040123Y0097700D01*
X0040123Y0096100D01*
X0033670Y0096100D01*
X0033670Y0095479D02*
X0010481Y0095479D01*
X0010466Y0093881D02*
X0033670Y0093881D01*
X0033670Y0092282D02*
X0010450Y0092282D01*
X0010435Y0090684D02*
X0034121Y0090684D01*
X0033638Y0085888D02*
X0031372Y0085888D01*
X0029946Y0083000D02*
X0028700Y0082446D01*
X0029946Y0083000D02*
X0035500Y0083000D01*
X0037319Y0081181D01*
X0037319Y0075124D01*
X0039819Y0075124D02*
X0039819Y0069319D01*
X0038500Y0068000D01*
X0036500Y0068000D01*
X0035500Y0067000D01*
X0037086Y0063000D02*
X0033500Y0063000D01*
X0030093Y0059593D01*
X0029800Y0058886D02*
X0029800Y0054246D01*
X0025500Y0052268D02*
X0025502Y0052208D01*
X0025507Y0052147D01*
X0025516Y0052088D01*
X0025529Y0052029D01*
X0025545Y0051970D01*
X0025565Y0051913D01*
X0025588Y0051858D01*
X0025615Y0051803D01*
X0025644Y0051751D01*
X0025677Y0051700D01*
X0025713Y0051651D01*
X0025751Y0051605D01*
X0025793Y0051561D01*
X0029800Y0047554D01*
X0025500Y0052268D02*
X0025500Y0065000D01*
X0028500Y0068000D01*
X0028500Y0075754D01*
X0028700Y0075754D01*
X0025331Y0077896D02*
X0010311Y0077896D01*
X0010326Y0079494D02*
X0025538Y0079494D01*
X0025331Y0081093D02*
X0010342Y0081093D01*
X0010357Y0082691D02*
X0025331Y0082691D01*
X0025331Y0084290D02*
X0010373Y0084290D01*
X0010388Y0085888D02*
X0026028Y0085888D01*
X0037362Y0085888D02*
X0065100Y0085888D01*
X0065100Y0084290D02*
X0038625Y0084290D01*
X0038920Y0082691D02*
X0065100Y0082691D01*
X0065100Y0081093D02*
X0064211Y0081093D01*
X0064906Y0079494D02*
X0065100Y0079494D01*
X0065100Y0077896D02*
X0064906Y0077896D01*
X0062319Y0075819D02*
X0062319Y0075124D01*
X0062323Y0075120D01*
X0061045Y0079000D02*
X0072100Y0079000D01*
X0070500Y0074000D02*
X0088500Y0074000D01*
X0093500Y0079000D01*
X0093500Y0116698D01*
X0091500Y0116260D02*
X0096500Y0116260D01*
X0096500Y0114662D02*
X0091500Y0114662D01*
X0091500Y0114000D02*
X0091500Y0122000D01*
X0089500Y0124000D01*
X0081500Y0124000D01*
X0081500Y0136000D01*
X0083500Y0136000D01*
X0086500Y0139000D01*
X0086500Y0146000D01*
X0101500Y0146000D01*
X0101500Y0139000D01*
X0104500Y0136000D01*
X0107500Y0136000D01*
X0107500Y0124000D01*
X0098500Y0124000D01*
X0096500Y0122000D01*
X0096500Y0114000D01*
X0091500Y0114000D01*
X0091500Y0117859D02*
X0096500Y0117859D01*
X0096500Y0119457D02*
X0091500Y0119457D01*
X0091500Y0121056D02*
X0096500Y0121056D01*
X0097154Y0122654D02*
X0090846Y0122654D01*
X0086021Y0116922D02*
X0084668Y0116922D01*
X0080592Y0116922D01*
X0080592Y0113424D01*
X0080715Y0112967D01*
X0080952Y0112556D01*
X0081287Y0112221D01*
X0081697Y0111984D01*
X0082155Y0111861D01*
X0084668Y0111861D01*
X0084668Y0116922D01*
X0084668Y0118275D01*
X0080592Y0118275D01*
X0080592Y0121000D01*
X0080500Y0121000D01*
X0077500Y0124600D01*
X0077500Y0138540D01*
X0077131Y0138908D01*
X0077131Y0144399D01*
X0077456Y0144723D01*
X0077426Y0144741D01*
X0077091Y0145076D01*
X0076854Y0145486D01*
X0076731Y0145944D01*
X0076731Y0148162D01*
X0080316Y0148162D01*
X0080316Y0148531D01*
X0076731Y0148531D01*
X0076731Y0150299D01*
X0052700Y0150800D01*
X0052800Y0090500D01*
X0059783Y0090403D01*
X0059719Y0090440D01*
X0059384Y0090775D01*
X0059147Y0091186D01*
X0059024Y0091643D01*
X0059024Y0096100D01*
X0065477Y0096100D01*
X0065477Y0097700D01*
X0059024Y0097700D01*
X0059024Y0102157D01*
X0059147Y0102614D01*
X0059384Y0103025D01*
X0059719Y0103360D01*
X0060130Y0103597D01*
X0060587Y0103720D01*
X0065477Y0103720D01*
X0065477Y0097700D01*
X0067077Y0097700D01*
X0067077Y0103720D01*
X0071967Y0103720D01*
X0072425Y0103597D01*
X0072835Y0103360D01*
X0073170Y0103025D01*
X0073407Y0102614D01*
X0073530Y0102157D01*
X0073530Y0097700D01*
X0067077Y0097700D01*
X0067077Y0096100D01*
X0073530Y0096100D01*
X0073530Y0091643D01*
X0073407Y0091186D01*
X0073170Y0090775D01*
X0072835Y0090440D01*
X0072466Y0090227D01*
X0077570Y0090156D01*
X0077570Y0094200D01*
X0084023Y0094200D01*
X0084023Y0095800D01*
X0084023Y0101820D01*
X0079133Y0101820D01*
X0078675Y0101697D01*
X0078265Y0101460D01*
X0077930Y0101125D01*
X0077693Y0100714D01*
X0077570Y0100257D01*
X0077570Y0095800D01*
X0084023Y0095800D01*
X0085623Y0095800D01*
X0085623Y0101820D01*
X0088160Y0101820D01*
X0087616Y0111861D01*
X0086021Y0111861D01*
X0086021Y0116922D01*
X0086021Y0116260D02*
X0084668Y0116260D01*
X0084668Y0114662D02*
X0086021Y0114662D01*
X0086021Y0113063D02*
X0084668Y0113063D01*
X0087637Y0111465D02*
X0052765Y0111465D01*
X0052763Y0113063D02*
X0054176Y0113063D01*
X0054284Y0112875D02*
X0054619Y0112540D01*
X0055030Y0112303D01*
X0055487Y0112180D01*
X0060377Y0112180D01*
X0060377Y0118200D01*
X0053924Y0118200D01*
X0053924Y0113743D01*
X0054047Y0113286D01*
X0054284Y0112875D01*
X0053924Y0114662D02*
X0052760Y0114662D01*
X0052757Y0116260D02*
X0053924Y0116260D01*
X0053924Y0117859D02*
X0052755Y0117859D01*
X0052752Y0119457D02*
X0060377Y0119457D01*
X0060377Y0119800D02*
X0060377Y0118200D01*
X0061977Y0118200D01*
X0061977Y0112180D01*
X0066867Y0112180D01*
X0067325Y0112303D01*
X0067735Y0112540D01*
X0068070Y0112875D01*
X0068307Y0113286D01*
X0068430Y0113743D01*
X0068430Y0118200D01*
X0061977Y0118200D01*
X0061977Y0119800D01*
X0060377Y0119800D01*
X0053924Y0119800D01*
X0053924Y0124257D01*
X0054047Y0124714D01*
X0054284Y0125125D01*
X0054619Y0125460D01*
X0055030Y0125697D01*
X0055487Y0125820D01*
X0060377Y0125820D01*
X0060377Y0119800D01*
X0060000Y0119700D02*
X0061400Y0119700D01*
X0061400Y0118700D01*
X0072400Y0118700D01*
X0072400Y0121000D01*
X0073900Y0118600D02*
X0061900Y0120600D01*
X0061900Y0118100D01*
X0061200Y0118100D01*
X0061200Y0118300D01*
X0060000Y0118300D01*
X0060000Y0119700D01*
X0060377Y0121056D02*
X0061977Y0121056D01*
X0061977Y0119800D02*
X0061977Y0125820D01*
X0066867Y0125820D01*
X0067325Y0125697D01*
X0067735Y0125460D01*
X0068070Y0125125D01*
X0068307Y0124714D01*
X0068430Y0124257D01*
X0068430Y0119800D01*
X0061977Y0119800D01*
X0061977Y0119457D02*
X0080592Y0119457D01*
X0080454Y0121056D02*
X0068430Y0121056D01*
X0068430Y0122654D02*
X0079122Y0122654D01*
X0077789Y0124253D02*
X0068430Y0124253D01*
X0068430Y0117859D02*
X0084668Y0117859D01*
X0080592Y0116260D02*
X0068430Y0116260D01*
X0068430Y0114662D02*
X0080592Y0114662D01*
X0080689Y0113063D02*
X0068179Y0113063D01*
X0061977Y0113063D02*
X0060377Y0113063D01*
X0060377Y0114662D02*
X0061977Y0114662D01*
X0061977Y0116260D02*
X0060377Y0116260D01*
X0060377Y0117859D02*
X0061977Y0117859D01*
X0061977Y0122654D02*
X0060377Y0122654D01*
X0060377Y0124253D02*
X0061977Y0124253D01*
X0053924Y0124253D02*
X0052744Y0124253D01*
X0052741Y0125851D02*
X0077500Y0125851D01*
X0077500Y0127450D02*
X0052739Y0127450D01*
X0052736Y0129048D02*
X0077500Y0129048D01*
X0077500Y0130647D02*
X0052733Y0130647D01*
X0052731Y0132245D02*
X0077500Y0132245D01*
X0077500Y0133844D02*
X0052728Y0133844D01*
X0052725Y0135442D02*
X0054005Y0135442D01*
X0054047Y0135286D02*
X0054284Y0134875D01*
X0054619Y0134540D01*
X0055030Y0134303D01*
X0055487Y0134180D01*
X0060377Y0134180D01*
X0060377Y0140200D01*
X0053924Y0140200D01*
X0053924Y0135743D01*
X0054047Y0135286D01*
X0053924Y0137041D02*
X0052723Y0137041D01*
X0052720Y0138639D02*
X0053924Y0138639D01*
X0052718Y0140238D02*
X0060377Y0140238D01*
X0060377Y0140200D02*
X0060377Y0141800D01*
X0053924Y0141800D01*
X0053924Y0146257D01*
X0054047Y0146714D01*
X0054284Y0147125D01*
X0054619Y0147460D01*
X0055030Y0147697D01*
X0055487Y0147820D01*
X0060377Y0147820D01*
X0060377Y0141800D01*
X0061977Y0141800D01*
X0061977Y0147820D01*
X0066867Y0147820D01*
X0067325Y0147697D01*
X0067735Y0147460D01*
X0068070Y0147125D01*
X0068307Y0146714D01*
X0068430Y0146257D01*
X0068430Y0141800D01*
X0061977Y0141800D01*
X0061977Y0140200D01*
X0061977Y0134180D01*
X0066867Y0134180D01*
X0067325Y0134303D01*
X0067735Y0134540D01*
X0068070Y0134875D01*
X0068307Y0135286D01*
X0068430Y0135743D01*
X0068430Y0140200D01*
X0061977Y0140200D01*
X0060377Y0140200D01*
X0060377Y0138639D02*
X0061977Y0138639D01*
X0061977Y0137041D02*
X0060377Y0137041D01*
X0060377Y0135442D02*
X0061977Y0135442D01*
X0061977Y0140238D02*
X0077131Y0140238D01*
X0077131Y0141836D02*
X0068430Y0141836D01*
X0068430Y0143435D02*
X0077131Y0143435D01*
X0077134Y0145033D02*
X0068430Y0145033D01*
X0068329Y0146632D02*
X0076731Y0146632D01*
X0076731Y0149829D02*
X0052702Y0149829D01*
X0052704Y0148230D02*
X0080316Y0148230D01*
X0080500Y0141654D02*
X0086846Y0141654D01*
X0088500Y0140000D01*
X0091998Y0140000D01*
X0094400Y0142402D01*
X0101500Y0141836D02*
X0086500Y0141836D01*
X0086500Y0140238D02*
X0101500Y0140238D01*
X0101861Y0138639D02*
X0086139Y0138639D01*
X0084541Y0137041D02*
X0103459Y0137041D01*
X0107500Y0135442D02*
X0081500Y0135442D01*
X0081500Y0133844D02*
X0107500Y0133844D01*
X0107500Y0132245D02*
X0081500Y0132245D01*
X0081500Y0130647D02*
X0107500Y0130647D01*
X0107500Y0129048D02*
X0081500Y0129048D01*
X0081500Y0127450D02*
X0107500Y0127450D01*
X0107500Y0125851D02*
X0081500Y0125851D01*
X0081500Y0124253D02*
X0107500Y0124253D01*
X0112500Y0124776D02*
X0112730Y0125006D01*
X0112730Y0131699D02*
X0113611Y0132581D01*
X0119505Y0132581D01*
X0119448Y0141435D02*
X0126339Y0141435D01*
X0126500Y0141596D01*
X0121694Y0149394D02*
X0121500Y0149811D01*
X0119835Y0150301D01*
X0121694Y0149394D02*
X0121694Y0151622D01*
X0121663Y0151654D01*
X0115000Y0152207D01*
X0115000Y0158900D02*
X0126600Y0158821D01*
X0131500Y0154000D01*
X0131500Y0149811D01*
X0136500Y0149811D02*
X0136500Y0167500D01*
X0134500Y0169500D01*
X0142538Y0181811D02*
X0142535Y0183411D01*
X0159550Y0183411D01*
X0159550Y0203348D01*
X0159427Y0203806D01*
X0159190Y0204216D01*
X0158855Y0204551D01*
X0158445Y0204788D01*
X0157987Y0204911D01*
X0142500Y0204911D01*
X0142500Y0205000D01*
X0168500Y0205000D01*
X0170490Y0064093D01*
X0169630Y0063737D01*
X0168913Y0063019D01*
X0168525Y0062082D01*
X0168525Y0033528D01*
X0169525Y0031796D01*
X0170958Y0030969D01*
X0170982Y0029243D01*
X0161709Y0029243D01*
X0160772Y0028855D01*
X0160055Y0028137D01*
X0159667Y0027200D01*
X0159667Y0024707D01*
X0142794Y0024707D01*
X0142599Y0144161D01*
X0143880Y0144161D01*
X0144000Y0144281D01*
X0144120Y0144161D01*
X0148880Y0144161D01*
X0149000Y0144281D01*
X0149120Y0144161D01*
X0153880Y0144161D01*
X0154700Y0144981D01*
X0154700Y0154641D01*
X0153880Y0155461D01*
X0153742Y0155461D01*
X0154366Y0156085D01*
X0154881Y0157327D01*
X0154881Y0158673D01*
X0154366Y0159915D01*
X0153971Y0160311D01*
X0157987Y0160311D01*
X0158445Y0160433D01*
X0158855Y0160670D01*
X0159190Y0161006D01*
X0159427Y0161416D01*
X0159550Y0161874D01*
X0159550Y0181811D01*
X0142538Y0181811D01*
X0142535Y0183398D02*
X0168805Y0183398D01*
X0168783Y0184996D02*
X0159550Y0184996D01*
X0159550Y0186595D02*
X0168760Y0186595D01*
X0168737Y0188193D02*
X0159550Y0188193D01*
X0159550Y0189792D02*
X0168715Y0189792D01*
X0168692Y0191390D02*
X0159550Y0191390D01*
X0159550Y0192989D02*
X0168670Y0192989D01*
X0168647Y0194587D02*
X0159550Y0194587D01*
X0159550Y0196186D02*
X0168624Y0196186D01*
X0168602Y0197784D02*
X0159550Y0197784D01*
X0159550Y0199383D02*
X0168579Y0199383D01*
X0168557Y0200981D02*
X0159550Y0200981D01*
X0159550Y0202580D02*
X0168534Y0202580D01*
X0168512Y0204178D02*
X0159212Y0204178D01*
X0159550Y0181799D02*
X0168828Y0181799D01*
X0168850Y0180201D02*
X0159550Y0180201D01*
X0159550Y0178602D02*
X0168873Y0178602D01*
X0168895Y0177003D02*
X0159550Y0177003D01*
X0159550Y0175405D02*
X0168918Y0175405D01*
X0168941Y0173806D02*
X0159550Y0173806D01*
X0159550Y0172208D02*
X0168963Y0172208D01*
X0168986Y0170609D02*
X0159550Y0170609D01*
X0159550Y0169011D02*
X0169008Y0169011D01*
X0169031Y0167412D02*
X0159550Y0167412D01*
X0159550Y0165814D02*
X0169053Y0165814D01*
X0169076Y0164215D02*
X0159550Y0164215D01*
X0159550Y0162617D02*
X0169099Y0162617D01*
X0169121Y0161018D02*
X0159198Y0161018D01*
X0154881Y0157821D02*
X0169166Y0157821D01*
X0169189Y0156223D02*
X0154424Y0156223D01*
X0154700Y0154624D02*
X0169211Y0154624D01*
X0169234Y0153026D02*
X0154700Y0153026D01*
X0154700Y0151427D02*
X0169257Y0151427D01*
X0169279Y0149829D02*
X0154700Y0149829D01*
X0154700Y0148230D02*
X0169302Y0148230D01*
X0169324Y0146632D02*
X0154700Y0146632D01*
X0154700Y0145033D02*
X0169347Y0145033D01*
X0169369Y0143435D02*
X0142600Y0143435D01*
X0142603Y0141836D02*
X0169392Y0141836D01*
X0169415Y0140238D02*
X0142606Y0140238D01*
X0142608Y0138639D02*
X0150930Y0138639D01*
X0151030Y0138697D02*
X0150619Y0138460D01*
X0150284Y0138125D01*
X0150047Y0137714D01*
X0149924Y0137257D01*
X0149924Y0132800D01*
X0156377Y0132800D01*
X0156377Y0131200D01*
X0149924Y0131200D01*
X0149924Y0126743D01*
X0150047Y0126286D01*
X0150284Y0125875D01*
X0150619Y0125540D01*
X0151030Y0125303D01*
X0151487Y0125180D01*
X0156377Y0125180D01*
X0156377Y0131200D01*
X0157977Y0131200D01*
X0157977Y0125180D01*
X0162867Y0125180D01*
X0163325Y0125303D01*
X0163735Y0125540D01*
X0164070Y0125875D01*
X0164307Y0126286D01*
X0164430Y0126743D01*
X0164430Y0131200D01*
X0157977Y0131200D01*
X0157977Y0132800D01*
X0156377Y0132800D01*
X0156377Y0138820D01*
X0151487Y0138820D01*
X0151030Y0138697D01*
X0149924Y0137041D02*
X0142611Y0137041D01*
X0142613Y0135442D02*
X0149924Y0135442D01*
X0149924Y0133844D02*
X0142616Y0133844D01*
X0142619Y0132245D02*
X0156377Y0132245D01*
X0156377Y0130647D02*
X0157977Y0130647D01*
X0157977Y0132245D02*
X0169527Y0132245D01*
X0169550Y0130647D02*
X0164430Y0130647D01*
X0164430Y0129048D02*
X0169573Y0129048D01*
X0169595Y0127450D02*
X0164430Y0127450D01*
X0164046Y0125851D02*
X0169618Y0125851D01*
X0169640Y0124253D02*
X0142632Y0124253D01*
X0142629Y0125851D02*
X0150308Y0125851D01*
X0149924Y0127450D02*
X0142626Y0127450D01*
X0142624Y0129048D02*
X0149924Y0129048D01*
X0149924Y0130647D02*
X0142621Y0130647D01*
X0142634Y0122654D02*
X0169663Y0122654D01*
X0169686Y0121056D02*
X0142637Y0121056D01*
X0142639Y0119457D02*
X0169708Y0119457D01*
X0169731Y0117859D02*
X0142642Y0117859D01*
X0142645Y0116260D02*
X0150419Y0116260D01*
X0150284Y0116125D02*
X0150619Y0116460D01*
X0151030Y0116697D01*
X0151487Y0116820D01*
X0156377Y0116820D01*
X0156377Y0110800D01*
X0156377Y0109200D01*
X0149924Y0109200D01*
X0149924Y0104743D01*
X0150047Y0104286D01*
X0150284Y0103875D01*
X0150619Y0103540D01*
X0151030Y0103303D01*
X0151487Y0103180D01*
X0156377Y0103180D01*
X0156377Y0109200D01*
X0157977Y0109200D01*
X0157977Y0103180D01*
X0162867Y0103180D01*
X0163325Y0103303D01*
X0163735Y0103540D01*
X0164070Y0103875D01*
X0164307Y0104286D01*
X0164430Y0104743D01*
X0164430Y0109200D01*
X0157977Y0109200D01*
X0157977Y0110800D01*
X0156377Y0110800D01*
X0149924Y0110800D01*
X0149924Y0115257D01*
X0150047Y0115714D01*
X0150284Y0116125D01*
X0149924Y0114662D02*
X0142647Y0114662D01*
X0142650Y0113063D02*
X0149924Y0113063D01*
X0149924Y0111465D02*
X0142652Y0111465D01*
X0142655Y0109866D02*
X0156377Y0109866D01*
X0156377Y0108268D02*
X0157977Y0108268D01*
X0157977Y0109866D02*
X0169844Y0109866D01*
X0169866Y0108268D02*
X0164430Y0108268D01*
X0164430Y0106669D02*
X0169889Y0106669D01*
X0169911Y0105070D02*
X0164430Y0105070D01*
X0163617Y0103472D02*
X0169934Y0103472D01*
X0169956Y0101873D02*
X0142668Y0101873D01*
X0142671Y0100275D02*
X0169979Y0100275D01*
X0170002Y0098676D02*
X0142673Y0098676D01*
X0142676Y0097078D02*
X0170024Y0097078D01*
X0170047Y0095479D02*
X0142679Y0095479D01*
X0142681Y0093881D02*
X0150143Y0093881D01*
X0150047Y0093714D02*
X0149924Y0093257D01*
X0149924Y0088800D01*
X0156377Y0088800D01*
X0156377Y0087200D01*
X0149924Y0087200D01*
X0149924Y0082743D01*
X0150047Y0082286D01*
X0150284Y0081875D01*
X0150619Y0081540D01*
X0151030Y0081303D01*
X0151487Y0081180D01*
X0156377Y0081180D01*
X0156377Y0087200D01*
X0157977Y0087200D01*
X0157977Y0081180D01*
X0162867Y0081180D01*
X0163325Y0081303D01*
X0163735Y0081540D01*
X0164070Y0081875D01*
X0164307Y0082286D01*
X0164430Y0082743D01*
X0164430Y0087200D01*
X0157977Y0087200D01*
X0157977Y0088800D01*
X0156377Y0088800D01*
X0156377Y0094820D01*
X0151487Y0094820D01*
X0151030Y0094697D01*
X0150619Y0094460D01*
X0150284Y0094125D01*
X0150047Y0093714D01*
X0149924Y0092282D02*
X0142684Y0092282D01*
X0142686Y0090684D02*
X0149924Y0090684D01*
X0149924Y0089085D02*
X0142689Y0089085D01*
X0142692Y0087487D02*
X0156377Y0087487D01*
X0156377Y0089085D02*
X0157977Y0089085D01*
X0157977Y0088800D02*
X0157977Y0094820D01*
X0162867Y0094820D01*
X0163325Y0094697D01*
X0163735Y0094460D01*
X0164070Y0094125D01*
X0164307Y0093714D01*
X0164430Y0093257D01*
X0164430Y0088800D01*
X0157977Y0088800D01*
X0157977Y0087487D02*
X0170160Y0087487D01*
X0170137Y0089085D02*
X0164430Y0089085D01*
X0164430Y0090684D02*
X0170114Y0090684D01*
X0170092Y0092282D02*
X0164430Y0092282D01*
X0164211Y0093881D02*
X0170069Y0093881D01*
X0170182Y0085888D02*
X0164430Y0085888D01*
X0164430Y0084290D02*
X0170205Y0084290D01*
X0170227Y0082691D02*
X0164416Y0082691D01*
X0170250Y0081093D02*
X0142702Y0081093D01*
X0142699Y0082691D02*
X0149938Y0082691D01*
X0149924Y0084290D02*
X0142697Y0084290D01*
X0142694Y0085888D02*
X0149924Y0085888D01*
X0156377Y0085888D02*
X0157977Y0085888D01*
X0157977Y0084290D02*
X0156377Y0084290D01*
X0156377Y0082691D02*
X0157977Y0082691D01*
X0157977Y0090684D02*
X0156377Y0090684D01*
X0156377Y0092282D02*
X0157977Y0092282D01*
X0157977Y0093881D02*
X0156377Y0093881D01*
X0156377Y0103472D02*
X0157977Y0103472D01*
X0157977Y0105070D02*
X0156377Y0105070D01*
X0156377Y0106669D02*
X0157977Y0106669D01*
X0157977Y0110800D02*
X0164430Y0110800D01*
X0164430Y0115257D01*
X0164307Y0115714D01*
X0164070Y0116125D01*
X0163735Y0116460D01*
X0163325Y0116697D01*
X0162867Y0116820D01*
X0157977Y0116820D01*
X0157977Y0110800D01*
X0157977Y0111465D02*
X0156377Y0111465D01*
X0156377Y0113063D02*
X0157977Y0113063D01*
X0157977Y0114662D02*
X0156377Y0114662D01*
X0156377Y0116260D02*
X0157977Y0116260D01*
X0163935Y0116260D02*
X0169753Y0116260D01*
X0169776Y0114662D02*
X0164430Y0114662D01*
X0164430Y0113063D02*
X0169798Y0113063D01*
X0169821Y0111465D02*
X0164430Y0111465D01*
X0157977Y0125851D02*
X0156377Y0125851D01*
X0156377Y0127450D02*
X0157977Y0127450D01*
X0157977Y0129048D02*
X0156377Y0129048D01*
X0157977Y0132800D02*
X0164430Y0132800D01*
X0164430Y0137257D01*
X0164307Y0137714D01*
X0164070Y0138125D01*
X0163735Y0138460D01*
X0163325Y0138697D01*
X0162867Y0138820D01*
X0157977Y0138820D01*
X0157977Y0132800D01*
X0157977Y0133844D02*
X0156377Y0133844D01*
X0156377Y0135442D02*
X0157977Y0135442D01*
X0157977Y0137041D02*
X0156377Y0137041D01*
X0156377Y0138639D02*
X0157977Y0138639D01*
X0163425Y0138639D02*
X0169437Y0138639D01*
X0169460Y0137041D02*
X0164430Y0137041D01*
X0164430Y0135442D02*
X0169482Y0135442D01*
X0169505Y0133844D02*
X0164430Y0133844D01*
X0146500Y0149811D02*
X0146500Y0155000D01*
X0149207Y0157707D01*
X0149914Y0158000D02*
X0151500Y0158000D01*
X0149914Y0158000D02*
X0149854Y0157998D01*
X0149793Y0157993D01*
X0149734Y0157984D01*
X0149675Y0157971D01*
X0149616Y0157955D01*
X0149559Y0157935D01*
X0149504Y0157912D01*
X0149449Y0157885D01*
X0149397Y0157856D01*
X0149346Y0157823D01*
X0149297Y0157787D01*
X0149251Y0157749D01*
X0149207Y0157707D01*
X0154572Y0159420D02*
X0169144Y0159420D01*
X0149924Y0108268D02*
X0142658Y0108268D01*
X0142660Y0106669D02*
X0149924Y0106669D01*
X0149924Y0105070D02*
X0142663Y0105070D01*
X0142666Y0103472D02*
X0150737Y0103472D01*
X0142705Y0079494D02*
X0170272Y0079494D01*
X0170295Y0077896D02*
X0142707Y0077896D01*
X0142710Y0076297D02*
X0170318Y0076297D01*
X0170340Y0074699D02*
X0142712Y0074699D01*
X0142715Y0073100D02*
X0170363Y0073100D01*
X0170385Y0071502D02*
X0142718Y0071502D01*
X0142720Y0069903D02*
X0170408Y0069903D01*
X0170430Y0068305D02*
X0142723Y0068305D01*
X0142725Y0066706D02*
X0170453Y0066706D01*
X0170476Y0065108D02*
X0142728Y0065108D01*
X0142731Y0063509D02*
X0169403Y0063509D01*
X0168525Y0061911D02*
X0142733Y0061911D01*
X0142736Y0060312D02*
X0168525Y0060312D01*
X0168525Y0058714D02*
X0142739Y0058714D01*
X0142741Y0057115D02*
X0168525Y0057115D01*
X0168525Y0055517D02*
X0142744Y0055517D01*
X0142746Y0053918D02*
X0168525Y0053918D01*
X0168525Y0052320D02*
X0142749Y0052320D01*
X0142752Y0050721D02*
X0168525Y0050721D01*
X0168525Y0049123D02*
X0142754Y0049123D01*
X0142757Y0047524D02*
X0168525Y0047524D01*
X0168525Y0045926D02*
X0142759Y0045926D01*
X0142762Y0044327D02*
X0168525Y0044327D01*
X0168525Y0042729D02*
X0142765Y0042729D01*
X0142767Y0041130D02*
X0168525Y0041130D01*
X0168525Y0039532D02*
X0142770Y0039532D01*
X0142772Y0037933D02*
X0168525Y0037933D01*
X0168525Y0036334D02*
X0142775Y0036334D01*
X0142778Y0034736D02*
X0168525Y0034736D01*
X0168750Y0033137D02*
X0142780Y0033137D01*
X0142783Y0031539D02*
X0169970Y0031539D01*
X0169525Y0031796D02*
X0169525Y0031796D01*
X0170972Y0029940D02*
X0142785Y0029940D01*
X0142788Y0028342D02*
X0160259Y0028342D01*
X0159667Y0026743D02*
X0142791Y0026743D01*
X0142793Y0025145D02*
X0159667Y0025145D01*
X0088157Y0101873D02*
X0073530Y0101873D01*
X0073530Y0100275D02*
X0077575Y0100275D01*
X0077570Y0098676D02*
X0073530Y0098676D01*
X0073530Y0095479D02*
X0084023Y0095479D01*
X0084023Y0097078D02*
X0085623Y0097078D01*
X0085623Y0098676D02*
X0084023Y0098676D01*
X0084023Y0100275D02*
X0085623Y0100275D01*
X0088070Y0103472D02*
X0072641Y0103472D01*
X0067077Y0103472D02*
X0065477Y0103472D01*
X0065477Y0101873D02*
X0067077Y0101873D01*
X0067077Y0100275D02*
X0065477Y0100275D01*
X0065477Y0098676D02*
X0067077Y0098676D01*
X0067077Y0097078D02*
X0077570Y0097078D01*
X0077570Y0093881D02*
X0073530Y0093881D01*
X0073530Y0092282D02*
X0077570Y0092282D01*
X0077570Y0090684D02*
X0073079Y0090684D01*
X0065477Y0097078D02*
X0052789Y0097078D01*
X0052786Y0098676D02*
X0059024Y0098676D01*
X0059024Y0100275D02*
X0052784Y0100275D01*
X0052781Y0101873D02*
X0059024Y0101873D01*
X0059913Y0103472D02*
X0052778Y0103472D01*
X0052776Y0105070D02*
X0087984Y0105070D01*
X0087897Y0106669D02*
X0052773Y0106669D01*
X0052771Y0108268D02*
X0087810Y0108268D01*
X0087724Y0109866D02*
X0052768Y0109866D01*
X0048000Y0109866D02*
X0010621Y0109866D01*
X0010605Y0108268D02*
X0048000Y0108268D01*
X0048000Y0106669D02*
X0010590Y0106669D01*
X0010574Y0105070D02*
X0048000Y0105070D01*
X0048000Y0103472D02*
X0047287Y0103472D01*
X0041723Y0103472D02*
X0040123Y0103472D01*
X0040123Y0101873D02*
X0041723Y0101873D01*
X0041723Y0100275D02*
X0040123Y0100275D01*
X0040123Y0098676D02*
X0041723Y0098676D01*
X0041723Y0095479D02*
X0040123Y0095479D01*
X0040123Y0093881D02*
X0041723Y0093881D01*
X0041723Y0092282D02*
X0040123Y0092282D01*
X0040123Y0090684D02*
X0041723Y0090684D01*
X0047725Y0090684D02*
X0048000Y0090684D01*
X0048000Y0089085D02*
X0010419Y0089085D01*
X0010404Y0087487D02*
X0048000Y0087487D01*
X0052800Y0090684D02*
X0059475Y0090684D01*
X0059024Y0092282D02*
X0052797Y0092282D01*
X0052794Y0093881D02*
X0059024Y0093881D01*
X0059024Y0095479D02*
X0052792Y0095479D01*
X0052319Y0081093D02*
X0052319Y0081093D01*
X0049819Y0081093D02*
X0049819Y0081093D01*
X0047319Y0081093D02*
X0047319Y0081093D01*
X0047319Y0080215D02*
X0047319Y0080215D01*
X0045427Y0081093D02*
X0039519Y0081093D01*
X0042319Y0075124D02*
X0042319Y0066819D01*
X0044800Y0070000D02*
X0046800Y0068000D01*
X0065500Y0068000D01*
X0068500Y0071000D01*
X0068500Y0072000D01*
X0070500Y0074000D01*
X0062319Y0081093D02*
X0062319Y0081093D01*
X0059819Y0081093D02*
X0059819Y0081093D01*
X0057319Y0081093D02*
X0057319Y0081093D01*
X0054819Y0081093D02*
X0054819Y0081093D01*
X0044819Y0075124D02*
X0044819Y0070019D01*
X0044800Y0070000D01*
X0037793Y0062707D02*
X0039526Y0060974D01*
X0039819Y0060267D02*
X0039819Y0055439D01*
X0042319Y0055439D02*
X0042319Y0059819D01*
X0044819Y0060319D02*
X0044819Y0055439D01*
X0044638Y0055258D01*
X0042500Y0055258D01*
X0039819Y0060267D02*
X0039817Y0060327D01*
X0039812Y0060388D01*
X0039803Y0060447D01*
X0039790Y0060506D01*
X0039774Y0060565D01*
X0039754Y0060622D01*
X0039731Y0060677D01*
X0039704Y0060732D01*
X0039675Y0060784D01*
X0039642Y0060835D01*
X0039606Y0060884D01*
X0039568Y0060930D01*
X0039526Y0060974D01*
X0037793Y0062707D02*
X0037749Y0062749D01*
X0037703Y0062787D01*
X0037654Y0062823D01*
X0037603Y0062856D01*
X0037551Y0062885D01*
X0037496Y0062912D01*
X0037441Y0062935D01*
X0037384Y0062955D01*
X0037325Y0062971D01*
X0037266Y0062984D01*
X0037207Y0062993D01*
X0037146Y0062998D01*
X0037086Y0063000D01*
X0030093Y0059593D02*
X0030051Y0059549D01*
X0030013Y0059503D01*
X0029977Y0059454D01*
X0029944Y0059403D01*
X0029915Y0059351D01*
X0029888Y0059296D01*
X0029865Y0059241D01*
X0029845Y0059184D01*
X0029829Y0059125D01*
X0029816Y0059066D01*
X0029807Y0059007D01*
X0029802Y0058946D01*
X0029800Y0058886D01*
X0033670Y0100275D02*
X0010528Y0100275D01*
X0010543Y0101873D02*
X0033670Y0101873D01*
X0034559Y0103472D02*
X0010559Y0103472D01*
X0010636Y0111465D02*
X0048000Y0111465D01*
X0048000Y0113063D02*
X0042824Y0113063D01*
X0042716Y0112875D02*
X0042953Y0113286D01*
X0043076Y0113743D01*
X0043076Y0118200D01*
X0036623Y0118200D01*
X0036623Y0119800D01*
X0043076Y0119800D01*
X0043076Y0124257D01*
X0042953Y0124714D01*
X0042716Y0125125D01*
X0042381Y0125460D01*
X0041970Y0125697D01*
X0041513Y0125820D01*
X0036623Y0125820D01*
X0036623Y0119800D01*
X0035023Y0119800D01*
X0035023Y0125820D01*
X0030133Y0125820D01*
X0029675Y0125697D01*
X0029265Y0125460D01*
X0028930Y0125125D01*
X0028693Y0124714D01*
X0028570Y0124257D01*
X0028570Y0119800D01*
X0035023Y0119800D01*
X0035023Y0118200D01*
X0036623Y0118200D01*
X0036623Y0112180D01*
X0041513Y0112180D01*
X0041970Y0112303D01*
X0042381Y0112540D01*
X0042716Y0112875D01*
X0043076Y0114662D02*
X0048000Y0114662D01*
X0048000Y0116260D02*
X0043076Y0116260D01*
X0043076Y0117859D02*
X0048000Y0117859D01*
X0048000Y0119457D02*
X0036623Y0119457D01*
X0036623Y0117859D02*
X0035023Y0117859D01*
X0035023Y0118200D02*
X0035023Y0112180D01*
X0030133Y0112180D01*
X0029675Y0112303D01*
X0029265Y0112540D01*
X0028930Y0112875D01*
X0028693Y0113286D01*
X0028570Y0113743D01*
X0028570Y0118200D01*
X0035023Y0118200D01*
X0035023Y0119457D02*
X0010714Y0119457D01*
X0010698Y0117859D02*
X0028570Y0117859D01*
X0028570Y0116260D02*
X0010683Y0116260D01*
X0010667Y0114662D02*
X0028570Y0114662D01*
X0028821Y0113063D02*
X0010652Y0113063D01*
X0010729Y0121056D02*
X0028570Y0121056D01*
X0028570Y0122654D02*
X0010745Y0122654D01*
X0010760Y0124253D02*
X0028570Y0124253D01*
X0035023Y0124253D02*
X0036623Y0124253D01*
X0036623Y0122654D02*
X0035023Y0122654D01*
X0035023Y0121056D02*
X0036623Y0121056D01*
X0036623Y0116260D02*
X0035023Y0116260D01*
X0035023Y0114662D02*
X0036623Y0114662D01*
X0036623Y0113063D02*
X0035023Y0113063D01*
X0043076Y0121056D02*
X0048000Y0121056D01*
X0048000Y0122654D02*
X0043076Y0122654D01*
X0043076Y0124253D02*
X0048000Y0124253D01*
X0048000Y0125851D02*
X0010776Y0125851D01*
X0010791Y0127450D02*
X0048000Y0127450D01*
X0048000Y0129048D02*
X0010807Y0129048D01*
X0010822Y0130647D02*
X0048000Y0130647D01*
X0048000Y0132245D02*
X0010838Y0132245D01*
X0010853Y0133844D02*
X0048000Y0133844D01*
X0048000Y0135442D02*
X0042995Y0135442D01*
X0042953Y0135286D02*
X0043076Y0135743D01*
X0043076Y0140200D01*
X0036623Y0140200D01*
X0036623Y0141800D01*
X0043076Y0141800D01*
X0043076Y0146257D01*
X0042953Y0146714D01*
X0042716Y0147125D01*
X0042381Y0147460D01*
X0041970Y0147697D01*
X0041513Y0147820D01*
X0036623Y0147820D01*
X0036623Y0141800D01*
X0035023Y0141800D01*
X0035023Y0147820D01*
X0030133Y0147820D01*
X0029675Y0147697D01*
X0029265Y0147460D01*
X0028930Y0147125D01*
X0028693Y0146714D01*
X0028570Y0146257D01*
X0028570Y0141800D01*
X0035023Y0141800D01*
X0035023Y0140200D01*
X0036623Y0140200D01*
X0036623Y0134180D01*
X0041513Y0134180D01*
X0041970Y0134303D01*
X0042381Y0134540D01*
X0042716Y0134875D01*
X0042953Y0135286D01*
X0043076Y0137041D02*
X0048000Y0137041D01*
X0048000Y0138639D02*
X0043076Y0138639D01*
X0043076Y0141836D02*
X0048000Y0141836D01*
X0048000Y0140238D02*
X0036623Y0140238D01*
X0036623Y0141836D02*
X0035023Y0141836D01*
X0035023Y0140238D02*
X0010915Y0140238D01*
X0010931Y0141836D02*
X0028570Y0141836D01*
X0028570Y0143435D02*
X0010946Y0143435D01*
X0010962Y0145033D02*
X0028570Y0145033D01*
X0028671Y0146632D02*
X0010977Y0146632D01*
X0010993Y0148230D02*
X0048000Y0148230D01*
X0048000Y0146632D02*
X0042975Y0146632D01*
X0043076Y0145033D02*
X0048000Y0145033D01*
X0048000Y0143435D02*
X0043076Y0143435D01*
X0036623Y0143435D02*
X0035023Y0143435D01*
X0035023Y0145033D02*
X0036623Y0145033D01*
X0036623Y0146632D02*
X0035023Y0146632D01*
X0035023Y0140200D02*
X0028570Y0140200D01*
X0028570Y0135743D01*
X0028693Y0135286D01*
X0028930Y0134875D01*
X0029265Y0134540D01*
X0029675Y0134303D01*
X0030133Y0134180D01*
X0035023Y0134180D01*
X0035023Y0140200D01*
X0035023Y0138639D02*
X0036623Y0138639D01*
X0036623Y0137041D02*
X0035023Y0137041D01*
X0035023Y0135442D02*
X0036623Y0135442D01*
X0028651Y0135442D02*
X0010869Y0135442D01*
X0010884Y0137041D02*
X0028570Y0137041D01*
X0028570Y0138639D02*
X0010900Y0138639D01*
X0011008Y0149829D02*
X0048000Y0149829D01*
X0048000Y0151427D02*
X0011024Y0151427D01*
X0011039Y0153026D02*
X0048000Y0153026D01*
X0048000Y0154624D02*
X0011055Y0154624D01*
X0011070Y0156223D02*
X0048000Y0156223D01*
X0048000Y0157821D02*
X0011086Y0157821D01*
X0011101Y0159420D02*
X0048000Y0159420D01*
X0048000Y0161018D02*
X0011117Y0161018D01*
X0011132Y0162617D02*
X0048000Y0162617D01*
X0048000Y0164215D02*
X0011148Y0164215D01*
X0011164Y0165814D02*
X0048000Y0165814D01*
X0048000Y0167412D02*
X0011179Y0167412D01*
X0011195Y0169011D02*
X0024148Y0169011D01*
X0024245Y0168914D02*
X0024656Y0168677D01*
X0025113Y0168554D01*
X0031046Y0168554D01*
X0031046Y0179200D01*
X0023550Y0179200D01*
X0023550Y0170117D01*
X0023673Y0169660D01*
X0023910Y0169249D01*
X0024245Y0168914D01*
X0023550Y0170609D02*
X0011210Y0170609D01*
X0011226Y0172208D02*
X0023550Y0172208D01*
X0023550Y0173806D02*
X0011241Y0173806D01*
X0011257Y0175405D02*
X0023550Y0175405D01*
X0023550Y0177003D02*
X0011272Y0177003D01*
X0011288Y0178602D02*
X0023550Y0178602D01*
X0023550Y0180800D02*
X0031046Y0180800D01*
X0031046Y0179200D01*
X0032646Y0179200D01*
X0032646Y0168554D01*
X0038579Y0168554D01*
X0039037Y0168677D01*
X0039448Y0168914D01*
X0039783Y0169249D01*
X0040020Y0169660D01*
X0040143Y0170117D01*
X0040142Y0179200D01*
X0032646Y0179200D01*
X0032646Y0180800D01*
X0031046Y0180800D01*
X0031046Y0191446D01*
X0025113Y0191446D01*
X0024656Y0191323D01*
X0024245Y0191086D01*
X0023910Y0190751D01*
X0023673Y0190340D01*
X0023550Y0189883D01*
X0023550Y0180800D01*
X0023550Y0181799D02*
X0011319Y0181799D01*
X0011303Y0180201D02*
X0031046Y0180201D01*
X0031046Y0181799D02*
X0032646Y0181799D01*
X0032646Y0180800D02*
X0032646Y0191446D01*
X0038579Y0191446D01*
X0039037Y0191323D01*
X0039448Y0191086D01*
X0039783Y0190751D01*
X0040020Y0190340D01*
X0040143Y0189883D01*
X0040143Y0180800D01*
X0032646Y0180800D01*
X0032646Y0180201D02*
X0048000Y0180201D01*
X0048000Y0181799D02*
X0040143Y0181799D01*
X0040143Y0183398D02*
X0048000Y0183398D01*
X0048000Y0184996D02*
X0040143Y0184996D01*
X0040143Y0186595D02*
X0048000Y0186595D01*
X0048000Y0188193D02*
X0040143Y0188193D01*
X0040143Y0189792D02*
X0048000Y0189792D01*
X0048000Y0191390D02*
X0038787Y0191390D01*
X0032646Y0191390D02*
X0031046Y0191390D01*
X0031046Y0189792D02*
X0032646Y0189792D01*
X0032646Y0188193D02*
X0031046Y0188193D01*
X0031046Y0186595D02*
X0032646Y0186595D01*
X0032646Y0184996D02*
X0031046Y0184996D01*
X0031046Y0183398D02*
X0032646Y0183398D01*
X0032646Y0178602D02*
X0031046Y0178602D01*
X0031046Y0177003D02*
X0032646Y0177003D01*
X0032646Y0175405D02*
X0031046Y0175405D01*
X0031046Y0173806D02*
X0032646Y0173806D01*
X0032646Y0172208D02*
X0031046Y0172208D01*
X0031046Y0170609D02*
X0032646Y0170609D01*
X0032646Y0169011D02*
X0031046Y0169011D01*
X0039545Y0169011D02*
X0048000Y0169011D01*
X0048000Y0170609D02*
X0040143Y0170609D01*
X0040143Y0172208D02*
X0048000Y0172208D01*
X0048000Y0173806D02*
X0040143Y0173806D01*
X0040143Y0175405D02*
X0048000Y0175405D01*
X0048000Y0177003D02*
X0040143Y0177003D01*
X0040143Y0178602D02*
X0048000Y0178602D01*
X0048000Y0192989D02*
X0011427Y0192989D01*
X0011443Y0194587D02*
X0048000Y0194587D01*
X0048000Y0196186D02*
X0011458Y0196186D01*
X0011474Y0197784D02*
X0048000Y0197784D01*
X0048000Y0199383D02*
X0011489Y0199383D01*
X0011412Y0191390D02*
X0024906Y0191390D01*
X0023550Y0189792D02*
X0011396Y0189792D01*
X0011381Y0188193D02*
X0023550Y0188193D01*
X0023550Y0186595D02*
X0011365Y0186595D01*
X0011350Y0184996D02*
X0023550Y0184996D01*
X0023550Y0183398D02*
X0011334Y0183398D01*
X0052707Y0146632D02*
X0054025Y0146632D01*
X0053924Y0145033D02*
X0052710Y0145033D01*
X0052712Y0143435D02*
X0053924Y0143435D01*
X0053924Y0141836D02*
X0052715Y0141836D01*
X0060377Y0141836D02*
X0061977Y0141836D01*
X0061977Y0143435D02*
X0060377Y0143435D01*
X0060377Y0145033D02*
X0061977Y0145033D01*
X0061977Y0146632D02*
X0060377Y0146632D01*
X0068430Y0138639D02*
X0077401Y0138639D01*
X0077500Y0137041D02*
X0068430Y0137041D01*
X0068349Y0135442D02*
X0077500Y0135442D01*
X0086500Y0143435D02*
X0101500Y0143435D01*
X0101500Y0145033D02*
X0086500Y0145033D01*
X0106500Y0145000D02*
X0110058Y0141442D01*
X0112361Y0141435D01*
X0116579Y0163000D02*
X0116424Y0166135D01*
X0116283Y0166637D01*
X0116242Y0167156D01*
X0116303Y0167674D01*
X0116463Y0168170D01*
X0116271Y0179379D01*
X0116397Y0201495D01*
X0121207Y0201727D01*
X0121362Y0201388D01*
X0121447Y0201026D01*
X0121460Y0200653D01*
X0121400Y0200286D01*
X0121400Y0163700D01*
X0120793Y0163293D01*
X0120586Y0163134D01*
X0120345Y0163034D01*
X0120086Y0163000D01*
X0116579Y0163000D01*
X0116519Y0164215D02*
X0121400Y0164215D01*
X0121400Y0165814D02*
X0116440Y0165814D01*
X0116272Y0167412D02*
X0121400Y0167412D01*
X0121400Y0169011D02*
X0116449Y0169011D01*
X0116422Y0170609D02*
X0121400Y0170609D01*
X0121400Y0172208D02*
X0116394Y0172208D01*
X0116367Y0173806D02*
X0121400Y0173806D01*
X0121400Y0175405D02*
X0116339Y0175405D01*
X0116312Y0177003D02*
X0121400Y0177003D01*
X0121400Y0178602D02*
X0116284Y0178602D01*
X0116276Y0180201D02*
X0121400Y0180201D01*
X0121400Y0181799D02*
X0116285Y0181799D01*
X0116294Y0183398D02*
X0121400Y0183398D01*
X0121400Y0184996D02*
X0116303Y0184996D01*
X0116312Y0186595D02*
X0121400Y0186595D01*
X0121400Y0188193D02*
X0116321Y0188193D01*
X0116330Y0189792D02*
X0121400Y0189792D01*
X0121400Y0191390D02*
X0116339Y0191390D01*
X0116348Y0192989D02*
X0121400Y0192989D01*
X0121400Y0194587D02*
X0116357Y0194587D01*
X0116367Y0196186D02*
X0121400Y0196186D01*
X0121400Y0197784D02*
X0116376Y0197784D01*
X0116385Y0199383D02*
X0121400Y0199383D01*
X0121448Y0200981D02*
X0116394Y0200981D01*
X0053924Y0122654D02*
X0052747Y0122654D01*
X0052749Y0121056D02*
X0053924Y0121056D01*
X0103455Y0117598D02*
X0104054Y0117000D01*
D24*
X0097000Y0166295D02*
X0090500Y0174000D01*
X0077821Y0174262D01*
X0075154Y0180000D01*
D25*
X0097000Y0166295D02*
X0110162Y0150339D01*
X0119835Y0150301D01*
D26*
X0106500Y0145000D03*
X0119505Y0132581D03*
X0146500Y0138000D03*
X0151500Y0121000D03*
X0162500Y0121000D03*
X0162500Y0099000D03*
X0148500Y0099000D03*
X0148500Y0078000D03*
X0148500Y0065000D03*
X0148500Y0051000D03*
X0148500Y0038000D03*
X0163500Y0038000D03*
X0163500Y0051000D03*
X0163500Y0065000D03*
X0163500Y0078000D03*
X0151500Y0158000D03*
X0149500Y0169500D03*
X0149500Y0184500D03*
X0149500Y0199500D03*
X0134500Y0199500D03*
X0134500Y0184500D03*
X0134500Y0169500D03*
X0119500Y0169500D03*
X0119500Y0184500D03*
X0119500Y0199500D03*
X0072700Y0141700D03*
X0071500Y0130000D03*
X0073900Y0118600D03*
X0075500Y0108000D03*
X0085500Y0108000D03*
X0075500Y0096000D03*
X0064500Y0108000D03*
X0072100Y0079000D03*
X0068500Y0072000D03*
X0037500Y0044000D03*
X0035500Y0067000D03*
X0028500Y0068000D03*
X0035500Y0083000D03*
D27*
X0086500Y0194563D02*
X0088004Y0194563D01*
X0086500Y0194563D02*
X0086500Y0201000D01*
X0105996Y0201000D01*
X0105996Y0194563D01*
X0105500Y0194563D01*
X0105500Y0201000D01*
X0119414Y0201000D01*
X0119414Y0200604D01*
X0119500Y0200518D01*
X0119500Y0199500D01*
D28*
X0134500Y0184500D02*
X0135000Y0184500D01*
X0134500Y0184000D01*
X0135111Y0184000D01*
X0136500Y0182611D01*
X0135000Y0184500D02*
X0135500Y0185000D01*
X0110839Y0014449D02*
X0104539Y0014449D01*
D29*
X0042500Y0049000D02*
X0042500Y0055258D01*
X0042319Y0055439D01*
X0042500Y0049000D02*
X0041500Y0048000D01*
X0036500Y0048000D01*
X0036500Y0045000D01*
X0037500Y0044000D01*
X0036500Y0048000D02*
X0034819Y0049681D01*
X0034819Y0055439D01*
X0034819Y0075124D02*
X0037319Y0075124D01*
D30*
X0126500Y0118795D02*
X0126500Y0141596D01*
X0126500Y0149811D01*
D31*
X0021750Y0027625D02*
X0021750Y0011902D01*
X0061313Y0013796D01*
X0061313Y0023763D01*
X0061908Y0024357D01*
X0063400Y0055400D01*
X0046719Y0055400D01*
X0046719Y0054652D01*
X0046706Y0054640D01*
X0046706Y0050456D01*
X0046062Y0049812D01*
X0044200Y0049812D01*
X0044200Y0048296D01*
X0043204Y0047300D01*
X0042204Y0046300D01*
X0039557Y0046300D01*
X0040112Y0045745D01*
X0040581Y0044613D01*
X0040581Y0043387D01*
X0040112Y0042255D01*
X0039245Y0041388D01*
X0038113Y0040919D01*
X0036887Y0040919D01*
X0035755Y0041388D01*
X0034888Y0042255D01*
X0034419Y0043387D01*
X0034419Y0044613D01*
X0034800Y0045533D01*
X0034800Y0047296D01*
X0033119Y0048977D01*
X0033119Y0050269D01*
X0032931Y0050456D01*
X0032931Y0051688D01*
X0032421Y0051178D01*
X0028863Y0051178D01*
X0029418Y0050622D01*
X0032421Y0050622D01*
X0033065Y0049978D01*
X0033065Y0045129D01*
X0032421Y0044485D01*
X0027179Y0044485D01*
X0026535Y0045129D01*
X0026535Y0048132D01*
X0025006Y0049661D01*
X0025006Y0049661D01*
X0024449Y0050217D01*
X0024100Y0050567D01*
X0023893Y0050774D01*
X0023893Y0050984D01*
X0023749Y0051332D01*
X0023600Y0051481D01*
X0023600Y0055400D01*
X0020600Y0055400D01*
X0021291Y0028084D01*
X0021750Y0027625D01*
X0021467Y0027908D02*
X0062078Y0027908D01*
X0062126Y0028906D02*
X0021270Y0028906D01*
X0021245Y0029905D02*
X0062174Y0029905D01*
X0062222Y0030903D02*
X0021219Y0030903D01*
X0021194Y0031902D02*
X0062270Y0031902D01*
X0062318Y0032900D02*
X0021169Y0032900D01*
X0021144Y0033899D02*
X0062366Y0033899D01*
X0062414Y0034897D02*
X0021118Y0034897D01*
X0021093Y0035896D02*
X0062462Y0035896D01*
X0062510Y0036894D02*
X0021068Y0036894D01*
X0021043Y0037893D02*
X0062558Y0037893D01*
X0062606Y0038891D02*
X0021017Y0038891D01*
X0020992Y0039890D02*
X0062654Y0039890D01*
X0062702Y0040888D02*
X0020967Y0040888D01*
X0020942Y0041887D02*
X0035256Y0041887D01*
X0034627Y0042885D02*
X0020916Y0042885D01*
X0020891Y0043884D02*
X0034419Y0043884D01*
X0034531Y0044882D02*
X0032818Y0044882D01*
X0033065Y0045881D02*
X0034800Y0045881D01*
X0034800Y0046879D02*
X0033065Y0046879D01*
X0033065Y0047878D02*
X0034218Y0047878D01*
X0033219Y0048876D02*
X0033065Y0048876D01*
X0033065Y0049875D02*
X0033119Y0049875D01*
X0032931Y0050873D02*
X0029167Y0050873D01*
X0025790Y0048876D02*
X0020765Y0048876D01*
X0020790Y0047878D02*
X0026535Y0047878D01*
X0026535Y0046879D02*
X0020815Y0046879D01*
X0020841Y0045881D02*
X0026535Y0045881D01*
X0026782Y0044882D02*
X0020866Y0044882D01*
X0020740Y0049875D02*
X0024792Y0049875D01*
X0023893Y0050873D02*
X0020714Y0050873D01*
X0020689Y0051872D02*
X0023600Y0051872D01*
X0023600Y0052870D02*
X0020664Y0052870D01*
X0020639Y0053869D02*
X0023600Y0053869D01*
X0023600Y0054868D02*
X0020613Y0054868D01*
X0039976Y0045881D02*
X0062942Y0045881D01*
X0062990Y0046879D02*
X0042784Y0046879D01*
X0043782Y0047878D02*
X0063038Y0047878D01*
X0063086Y0048876D02*
X0044200Y0048876D01*
X0046125Y0049875D02*
X0063134Y0049875D01*
X0063182Y0050873D02*
X0046706Y0050873D01*
X0046706Y0051872D02*
X0063230Y0051872D01*
X0063278Y0052870D02*
X0046706Y0052870D01*
X0046706Y0053869D02*
X0063326Y0053869D01*
X0063374Y0054868D02*
X0046719Y0054868D01*
X0040469Y0044882D02*
X0062894Y0044882D01*
X0062846Y0043884D02*
X0040581Y0043884D01*
X0040373Y0042885D02*
X0062798Y0042885D01*
X0062750Y0041887D02*
X0039744Y0041887D01*
X0021750Y0026909D02*
X0062030Y0026909D01*
X0061982Y0025911D02*
X0021750Y0025911D01*
X0021750Y0024912D02*
X0061934Y0024912D01*
X0061464Y0023914D02*
X0021750Y0023914D01*
X0021750Y0022915D02*
X0061313Y0022915D01*
X0061313Y0021917D02*
X0021750Y0021917D01*
X0021750Y0020918D02*
X0061313Y0020918D01*
X0061313Y0019920D02*
X0021750Y0019920D01*
X0021750Y0018921D02*
X0061313Y0018921D01*
X0061313Y0017923D02*
X0021750Y0017923D01*
X0021750Y0016924D02*
X0061313Y0016924D01*
X0061313Y0015926D02*
X0021750Y0015926D01*
X0021750Y0014927D02*
X0061313Y0014927D01*
X0061313Y0013929D02*
X0021750Y0013929D01*
X0021750Y0012930D02*
X0043222Y0012930D01*
X0063115Y0011932D02*
X0065114Y0011932D01*
X0063100Y0011500D02*
X0063650Y0027273D01*
X0064968Y0054706D01*
X0065000Y0054737D01*
X0065000Y0055361D01*
X0065030Y0055985D01*
X0065000Y0056018D01*
X0065000Y0056063D01*
X0064664Y0056398D01*
X0065002Y0066100D01*
X0066287Y0066100D01*
X0069106Y0068919D01*
X0069113Y0068919D01*
X0069643Y0069138D01*
X0097500Y0070600D01*
X0097300Y0109300D01*
X0100500Y0115000D01*
X0105500Y0116000D01*
X0116500Y0116000D01*
X0121500Y0124000D01*
X0121823Y0130541D01*
X0122117Y0130835D01*
X0122586Y0131968D01*
X0122586Y0133194D01*
X0122117Y0134326D01*
X0122014Y0134428D01*
X0122509Y0144461D01*
X0123756Y0144461D01*
X0124400Y0145105D01*
X0124400Y0146279D01*
X0128600Y0146231D01*
X0128600Y0145105D01*
X0129244Y0144461D01*
X0133756Y0144461D01*
X0134000Y0144705D01*
X0134244Y0144461D01*
X0138756Y0144461D01*
X0139000Y0144705D01*
X0139244Y0144461D01*
X0140001Y0144461D01*
X0140087Y0024407D01*
X0112351Y0024407D01*
X0111707Y0023763D01*
X0111707Y0007250D01*
X0104427Y0007250D01*
X0104427Y0034869D01*
X0103109Y0036187D01*
X0091796Y0036187D01*
X0090478Y0034869D01*
X0090478Y0013978D01*
X0089500Y0013000D01*
X0071500Y0013300D01*
X0063100Y0011500D01*
X0063150Y0012930D02*
X0069773Y0012930D01*
X0063185Y0013929D02*
X0090429Y0013929D01*
X0090478Y0014927D02*
X0063219Y0014927D01*
X0063254Y0015926D02*
X0090478Y0015926D01*
X0090478Y0016924D02*
X0063289Y0016924D01*
X0063324Y0017923D02*
X0090478Y0017923D01*
X0090478Y0018921D02*
X0063359Y0018921D01*
X0063393Y0019920D02*
X0090478Y0019920D01*
X0090478Y0020918D02*
X0063428Y0020918D01*
X0063463Y0021917D02*
X0090478Y0021917D01*
X0090478Y0022915D02*
X0063498Y0022915D01*
X0063533Y0023914D02*
X0090478Y0023914D01*
X0090478Y0024912D02*
X0063567Y0024912D01*
X0063602Y0025911D02*
X0090478Y0025911D01*
X0090478Y0026909D02*
X0063637Y0026909D01*
X0063680Y0027908D02*
X0090478Y0027908D01*
X0090478Y0028906D02*
X0063728Y0028906D01*
X0063776Y0029905D02*
X0090478Y0029905D01*
X0090478Y0030903D02*
X0063824Y0030903D01*
X0063872Y0031902D02*
X0090478Y0031902D01*
X0090478Y0032900D02*
X0063920Y0032900D01*
X0063968Y0033899D02*
X0090478Y0033899D01*
X0090507Y0034897D02*
X0064016Y0034897D01*
X0064064Y0035896D02*
X0091505Y0035896D01*
X0103400Y0035896D02*
X0140079Y0035896D01*
X0140078Y0036894D02*
X0064112Y0036894D01*
X0064160Y0037893D02*
X0140078Y0037893D01*
X0140077Y0038891D02*
X0064208Y0038891D01*
X0064256Y0039890D02*
X0140076Y0039890D01*
X0140075Y0040888D02*
X0064304Y0040888D01*
X0064352Y0041887D02*
X0140075Y0041887D01*
X0140074Y0042885D02*
X0064400Y0042885D01*
X0064448Y0043884D02*
X0140073Y0043884D01*
X0140073Y0044882D02*
X0064496Y0044882D01*
X0064544Y0045881D02*
X0140072Y0045881D01*
X0140071Y0046879D02*
X0064592Y0046879D01*
X0064640Y0047878D02*
X0140070Y0047878D01*
X0140070Y0048876D02*
X0064688Y0048876D01*
X0064736Y0049875D02*
X0140069Y0049875D01*
X0140068Y0050873D02*
X0064784Y0050873D01*
X0064832Y0051872D02*
X0140068Y0051872D01*
X0140067Y0052870D02*
X0064880Y0052870D01*
X0064928Y0053869D02*
X0140066Y0053869D01*
X0140065Y0054868D02*
X0065000Y0054868D01*
X0065024Y0055866D02*
X0140065Y0055866D01*
X0140064Y0056865D02*
X0064681Y0056865D01*
X0064715Y0057863D02*
X0140063Y0057863D01*
X0140063Y0058862D02*
X0064750Y0058862D01*
X0064785Y0059860D02*
X0140062Y0059860D01*
X0140061Y0060859D02*
X0064820Y0060859D01*
X0064855Y0061857D02*
X0140060Y0061857D01*
X0140060Y0062856D02*
X0064889Y0062856D01*
X0064924Y0063854D02*
X0140059Y0063854D01*
X0140058Y0064853D02*
X0064959Y0064853D01*
X0064994Y0065851D02*
X0140058Y0065851D01*
X0140057Y0066850D02*
X0067037Y0066850D01*
X0068035Y0067848D02*
X0140056Y0067848D01*
X0140055Y0068847D02*
X0069034Y0068847D01*
X0063500Y0077000D02*
X0063500Y0083000D01*
X0046500Y0083000D01*
X0046500Y0080314D01*
X0046706Y0080108D01*
X0046706Y0077000D01*
X0063500Y0077000D01*
X0063500Y0077833D02*
X0046706Y0077833D01*
X0046706Y0078832D02*
X0063500Y0078832D01*
X0063500Y0079830D02*
X0046706Y0079830D01*
X0046500Y0080829D02*
X0063500Y0080829D01*
X0063500Y0081827D02*
X0046500Y0081827D01*
X0046500Y0082826D02*
X0063500Y0082826D01*
X0083114Y0069845D02*
X0140055Y0069845D01*
X0140054Y0070844D02*
X0097499Y0070844D01*
X0097494Y0071842D02*
X0140053Y0071842D01*
X0140052Y0072841D02*
X0097488Y0072841D01*
X0097483Y0073839D02*
X0140052Y0073839D01*
X0140051Y0074838D02*
X0097478Y0074838D01*
X0097473Y0075836D02*
X0140050Y0075836D01*
X0140050Y0076835D02*
X0097468Y0076835D01*
X0097463Y0077833D02*
X0140049Y0077833D01*
X0140048Y0078832D02*
X0097457Y0078832D01*
X0097452Y0079830D02*
X0140047Y0079830D01*
X0140047Y0080829D02*
X0097447Y0080829D01*
X0097442Y0081827D02*
X0140046Y0081827D01*
X0140045Y0082826D02*
X0097437Y0082826D01*
X0097432Y0083824D02*
X0140045Y0083824D01*
X0140044Y0084823D02*
X0097427Y0084823D01*
X0097421Y0085821D02*
X0140043Y0085821D01*
X0140042Y0086820D02*
X0097416Y0086820D01*
X0097411Y0087818D02*
X0140042Y0087818D01*
X0140041Y0088817D02*
X0097406Y0088817D01*
X0097401Y0089815D02*
X0140040Y0089815D01*
X0140040Y0090814D02*
X0097396Y0090814D01*
X0097390Y0091812D02*
X0140039Y0091812D01*
X0140038Y0092811D02*
X0097385Y0092811D01*
X0097380Y0093809D02*
X0140037Y0093809D01*
X0140037Y0094808D02*
X0097375Y0094808D01*
X0097370Y0095806D02*
X0140036Y0095806D01*
X0140035Y0096805D02*
X0097365Y0096805D01*
X0097359Y0097803D02*
X0140035Y0097803D01*
X0140034Y0098802D02*
X0097354Y0098802D01*
X0097349Y0099801D02*
X0140033Y0099801D01*
X0140032Y0100799D02*
X0097344Y0100799D01*
X0097339Y0101798D02*
X0140032Y0101798D01*
X0140031Y0102796D02*
X0097334Y0102796D01*
X0097328Y0103795D02*
X0140030Y0103795D01*
X0140030Y0104793D02*
X0097323Y0104793D01*
X0097318Y0105792D02*
X0140029Y0105792D01*
X0140028Y0106790D02*
X0097313Y0106790D01*
X0097308Y0107789D02*
X0140027Y0107789D01*
X0140027Y0108787D02*
X0097303Y0108787D01*
X0097573Y0109786D02*
X0140026Y0109786D01*
X0140025Y0110784D02*
X0098133Y0110784D01*
X0098694Y0111783D02*
X0140025Y0111783D01*
X0140024Y0112781D02*
X0099254Y0112781D01*
X0099815Y0113780D02*
X0140023Y0113780D01*
X0140022Y0114778D02*
X0100375Y0114778D01*
X0103455Y0117598D02*
X0104857Y0119000D01*
X0109500Y0119000D01*
X0112500Y0122000D01*
X0112500Y0124776D01*
X0118233Y0118772D02*
X0140020Y0118772D01*
X0140020Y0117774D02*
X0117609Y0117774D01*
X0116984Y0116775D02*
X0140021Y0116775D01*
X0140022Y0115777D02*
X0104383Y0115777D01*
X0118857Y0119771D02*
X0140019Y0119771D01*
X0140018Y0120769D02*
X0119481Y0120769D01*
X0120105Y0121768D02*
X0140017Y0121768D01*
X0140017Y0122766D02*
X0120729Y0122766D01*
X0121353Y0123765D02*
X0140016Y0123765D01*
X0140015Y0124763D02*
X0121538Y0124763D01*
X0121587Y0125762D02*
X0140015Y0125762D01*
X0140014Y0126760D02*
X0121636Y0126760D01*
X0121685Y0127759D02*
X0140013Y0127759D01*
X0140012Y0128757D02*
X0121735Y0128757D01*
X0121784Y0129756D02*
X0140012Y0129756D01*
X0140011Y0130754D02*
X0122036Y0130754D01*
X0122497Y0131753D02*
X0140010Y0131753D01*
X0140010Y0132751D02*
X0122586Y0132751D01*
X0122355Y0133750D02*
X0140009Y0133750D01*
X0140008Y0134748D02*
X0122030Y0134748D01*
X0122079Y0135747D02*
X0140007Y0135747D01*
X0140007Y0136745D02*
X0122129Y0136745D01*
X0122178Y0137744D02*
X0140006Y0137744D01*
X0140005Y0138742D02*
X0122227Y0138742D01*
X0122276Y0139741D02*
X0140005Y0139741D01*
X0140004Y0140739D02*
X0122326Y0140739D01*
X0122375Y0141738D02*
X0140003Y0141738D01*
X0140002Y0142737D02*
X0122424Y0142737D01*
X0122473Y0143735D02*
X0140002Y0143735D01*
X0128972Y0144734D02*
X0124028Y0144734D01*
X0124400Y0145732D02*
X0128600Y0145732D01*
X0140080Y0034897D02*
X0104399Y0034897D01*
X0104427Y0033899D02*
X0140080Y0033899D01*
X0140081Y0032900D02*
X0104427Y0032900D01*
X0104427Y0031902D02*
X0140082Y0031902D01*
X0140083Y0030903D02*
X0104427Y0030903D01*
X0104427Y0029905D02*
X0140083Y0029905D01*
X0140084Y0028906D02*
X0104427Y0028906D01*
X0104427Y0027908D02*
X0140085Y0027908D01*
X0140085Y0026909D02*
X0104427Y0026909D01*
X0104427Y0025911D02*
X0140086Y0025911D01*
X0140087Y0024912D02*
X0104427Y0024912D01*
X0104427Y0023914D02*
X0111858Y0023914D01*
X0111707Y0022915D02*
X0104427Y0022915D01*
X0104427Y0021917D02*
X0111707Y0021917D01*
X0111707Y0020918D02*
X0104427Y0020918D01*
X0104427Y0019920D02*
X0111707Y0019920D01*
X0111707Y0018921D02*
X0104427Y0018921D01*
X0104427Y0017923D02*
X0111707Y0017923D01*
X0111707Y0016924D02*
X0104427Y0016924D01*
X0104427Y0015926D02*
X0111707Y0015926D01*
X0111707Y0014927D02*
X0104427Y0014927D01*
X0104427Y0013929D02*
X0111707Y0013929D01*
X0111707Y0012930D02*
X0104427Y0012930D01*
X0104427Y0011932D02*
X0111707Y0011932D01*
X0111707Y0010933D02*
X0104427Y0010933D01*
X0104427Y0009934D02*
X0111707Y0009934D01*
X0111707Y0008936D02*
X0104427Y0008936D01*
X0104427Y0007937D02*
X0111707Y0007937D01*
X0022359Y0011932D02*
X0021750Y0011932D01*
D32*
X0042319Y0066819D03*
M02*
