G75*
%MOIN*%
%OFA0B0*%
%FSLAX25Y25*%
%IPPOS*%
%LPD*%
%AMOC8*
5,1,8,0,0,1.08239X$1,22.5*
%
%ADD10R,0.03937X0.04331*%
%ADD11R,0.03150X0.04724*%
%ADD12R,0.22835X0.24409*%
%ADD13R,0.06299X0.11811*%
%ADD14R,0.03600X0.08500*%
%ADD15R,0.42500X0.41000*%
%ADD16R,0.12992X0.19291*%
%ADD17R,0.14961X0.07874*%
%ADD18R,0.05906X0.07874*%
%ADD19R,0.01575X0.09055*%
%ADD20R,0.04331X0.03937*%
%ADD21R,0.02362X0.17717*%
%ADD22R,0.10906X0.10039*%
D10*
X0028700Y0075754D03*
X0028700Y0082446D03*
X0080500Y0141654D03*
X0080500Y0148346D03*
X0112730Y0131699D03*
X0112730Y0125006D03*
X0115000Y0152207D03*
X0115000Y0158900D03*
D11*
X0112361Y0141435D03*
X0119448Y0141435D03*
D12*
X0097000Y0166295D03*
D13*
X0088004Y0194563D03*
X0105996Y0194563D03*
D14*
X0121500Y0149811D03*
X0126500Y0149811D03*
X0131500Y0149811D03*
X0136500Y0149811D03*
X0141500Y0149811D03*
X0146500Y0149811D03*
X0151500Y0149811D03*
D15*
X0136500Y0182611D03*
D16*
X0075154Y0180000D03*
X0031846Y0180000D03*
D17*
X0094400Y0142402D03*
D18*
X0094400Y0117598D03*
X0085345Y0117598D03*
X0103455Y0117598D03*
D19*
X0062319Y0075124D03*
X0059819Y0075124D03*
X0057319Y0075124D03*
X0054819Y0075124D03*
X0052319Y0075124D03*
X0049819Y0075124D03*
X0047319Y0075124D03*
X0044819Y0075124D03*
X0042319Y0075124D03*
X0039819Y0075124D03*
X0037319Y0075124D03*
X0034819Y0075124D03*
X0034819Y0055439D03*
X0037319Y0055439D03*
X0039819Y0055439D03*
X0042319Y0055439D03*
X0044819Y0055439D03*
X0047319Y0055439D03*
X0049819Y0055439D03*
X0052319Y0055439D03*
X0054819Y0055439D03*
X0057319Y0055439D03*
X0059819Y0055439D03*
X0062319Y0055439D03*
D20*
X0029800Y0054246D03*
X0029800Y0047554D03*
D21*
X0022650Y0014449D03*
X0025799Y0014449D03*
X0028949Y0014449D03*
X0032098Y0014449D03*
X0035248Y0014449D03*
X0038398Y0014449D03*
X0041547Y0014449D03*
X0044697Y0014449D03*
X0047846Y0014449D03*
X0050996Y0014449D03*
X0054146Y0014449D03*
X0057295Y0014449D03*
X0060445Y0014449D03*
X0063594Y0014449D03*
X0066744Y0014449D03*
X0069894Y0014449D03*
X0073043Y0014449D03*
X0076193Y0014449D03*
X0079343Y0014449D03*
X0082492Y0014449D03*
X0085642Y0014449D03*
X0088791Y0014449D03*
X0104539Y0014449D03*
X0107689Y0014449D03*
X0110839Y0014449D03*
X0113988Y0014449D03*
X0117138Y0014449D03*
X0120287Y0014449D03*
X0123437Y0014449D03*
X0126587Y0014449D03*
X0129736Y0014449D03*
X0132886Y0014449D03*
X0136035Y0014449D03*
X0139185Y0014449D03*
X0142335Y0014449D03*
X0145484Y0014449D03*
X0148634Y0014449D03*
X0151783Y0014449D03*
X0154933Y0014449D03*
X0158083Y0014449D03*
D22*
X0157177Y0088000D03*
X0157177Y0110000D03*
X0157177Y0132000D03*
X0131823Y0132000D03*
X0131823Y0110000D03*
X0131823Y0088000D03*
X0110177Y0095000D03*
X0084823Y0095000D03*
X0066277Y0096900D03*
X0061177Y0119000D03*
X0061177Y0141000D03*
X0035823Y0141000D03*
X0035823Y0119000D03*
X0040923Y0096900D03*
M02*
