G75*
%MOIN*%
%OFA0B0*%
%FSLAX25Y25*%
%IPPOS*%
%LPD*%
%AMOC8*
5,1,8,0,0,1.08239X$1,22.5*
%
%ADD10R,0.01969X0.04724*%
%ADD11C,0.01600*%
%ADD12C,0.03962*%
D10*
X0149083Y0112107D03*
X0152233Y0112107D03*
X0155383Y0112107D03*
X0158532Y0112107D03*
X0161682Y0112107D03*
X0164831Y0112107D03*
X0167981Y0112107D03*
X0171131Y0112107D03*
X0174280Y0112107D03*
X0177430Y0112107D03*
X0180580Y0112107D03*
X0183729Y0112107D03*
X0186879Y0112107D03*
X0190028Y0112107D03*
X0193178Y0112107D03*
X0196328Y0112107D03*
X0199477Y0112107D03*
X0202627Y0112107D03*
X0205776Y0112107D03*
X0208926Y0112107D03*
X0212076Y0112107D03*
X0215225Y0112107D03*
X0215225Y0125493D03*
X0212076Y0125493D03*
X0208926Y0125493D03*
X0205776Y0125493D03*
X0202627Y0125493D03*
X0199477Y0125493D03*
X0196328Y0125493D03*
X0193178Y0125493D03*
X0190028Y0125493D03*
X0186879Y0125493D03*
X0183729Y0125493D03*
X0180580Y0125493D03*
X0177430Y0125493D03*
X0174280Y0125493D03*
X0171131Y0125493D03*
X0167981Y0125493D03*
X0164831Y0125493D03*
X0161682Y0125493D03*
X0158532Y0125493D03*
X0155383Y0125493D03*
X0152233Y0125493D03*
X0149083Y0125493D03*
X0148934Y0167107D03*
X0152083Y0167107D03*
X0155233Y0167107D03*
X0158383Y0167107D03*
X0161532Y0167107D03*
X0164682Y0167107D03*
X0167831Y0167107D03*
X0170981Y0167107D03*
X0174131Y0167107D03*
X0177280Y0167107D03*
X0180430Y0167107D03*
X0183580Y0167107D03*
X0186729Y0167107D03*
X0189879Y0167107D03*
X0193028Y0167107D03*
X0196178Y0167107D03*
X0199328Y0167107D03*
X0202477Y0167107D03*
X0205627Y0167107D03*
X0208776Y0167107D03*
X0211926Y0167107D03*
X0215076Y0167107D03*
X0218225Y0167107D03*
X0218225Y0180493D03*
X0215076Y0180493D03*
X0211926Y0180493D03*
X0208776Y0180493D03*
X0205627Y0180493D03*
X0202477Y0180493D03*
X0199328Y0180493D03*
X0196178Y0180493D03*
X0193028Y0180493D03*
X0189879Y0180493D03*
X0186729Y0180493D03*
X0183580Y0180493D03*
X0180430Y0180493D03*
X0177280Y0180493D03*
X0174131Y0180493D03*
X0170981Y0180493D03*
X0167831Y0180493D03*
X0164682Y0180493D03*
X0161532Y0180493D03*
X0158383Y0180493D03*
X0155233Y0180493D03*
X0152083Y0180493D03*
X0148934Y0180493D03*
X0145784Y0180493D03*
X0142635Y0180493D03*
X0139485Y0180493D03*
X0136335Y0180493D03*
X0133186Y0180493D03*
X0130036Y0180493D03*
X0126887Y0180493D03*
X0123737Y0180493D03*
X0120587Y0180493D03*
X0120587Y0167107D03*
X0123737Y0167107D03*
X0126887Y0167107D03*
X0130036Y0167107D03*
X0133186Y0167107D03*
X0136335Y0167107D03*
X0139485Y0167107D03*
X0142635Y0167107D03*
X0145784Y0167107D03*
X0151083Y0217107D03*
X0154233Y0217107D03*
X0157383Y0217107D03*
X0160532Y0217107D03*
X0163682Y0217107D03*
X0166831Y0217107D03*
X0169981Y0217107D03*
X0173131Y0217107D03*
X0176280Y0217107D03*
X0179430Y0217107D03*
X0182580Y0217107D03*
X0185729Y0217107D03*
X0188879Y0217107D03*
X0192028Y0217107D03*
X0195178Y0217107D03*
X0198328Y0217107D03*
X0201477Y0217107D03*
X0204627Y0217107D03*
X0207776Y0217107D03*
X0210926Y0217107D03*
X0214076Y0217107D03*
X0217225Y0217107D03*
X0217225Y0230493D03*
X0214076Y0230493D03*
X0210926Y0230493D03*
X0207776Y0230493D03*
X0204627Y0230493D03*
X0201477Y0230493D03*
X0198328Y0230493D03*
X0195178Y0230493D03*
X0192028Y0230493D03*
X0188879Y0230493D03*
X0185729Y0230493D03*
X0182580Y0230493D03*
X0179430Y0230493D03*
X0176280Y0230493D03*
X0173131Y0230493D03*
X0169981Y0230493D03*
X0166831Y0230493D03*
X0163682Y0230493D03*
X0160532Y0230493D03*
X0157383Y0230493D03*
X0154233Y0230493D03*
X0151083Y0230493D03*
X0232973Y0230493D03*
X0236123Y0230493D03*
X0239272Y0230493D03*
X0242422Y0230493D03*
X0245572Y0230493D03*
X0248721Y0230493D03*
X0251871Y0230493D03*
X0255020Y0230493D03*
X0258170Y0230493D03*
X0261320Y0230493D03*
X0264469Y0230493D03*
X0267619Y0230493D03*
X0270769Y0230493D03*
X0273918Y0230493D03*
X0277068Y0230493D03*
X0280217Y0230493D03*
X0283367Y0230493D03*
X0286517Y0230493D03*
X0286517Y0217107D03*
X0283367Y0217107D03*
X0280217Y0217107D03*
X0277068Y0217107D03*
X0273918Y0217107D03*
X0270769Y0217107D03*
X0267619Y0217107D03*
X0264469Y0217107D03*
X0261320Y0217107D03*
X0258170Y0217107D03*
X0255020Y0217107D03*
X0251871Y0217107D03*
X0248721Y0217107D03*
X0245572Y0217107D03*
X0242422Y0217107D03*
X0239272Y0217107D03*
X0236123Y0217107D03*
X0232973Y0217107D03*
X0233973Y0180493D03*
X0237123Y0180493D03*
X0240272Y0180493D03*
X0243422Y0180493D03*
X0246572Y0180493D03*
X0249721Y0180493D03*
X0252871Y0180493D03*
X0256020Y0180493D03*
X0259170Y0180493D03*
X0262320Y0180493D03*
X0265469Y0180493D03*
X0268619Y0180493D03*
X0271769Y0180493D03*
X0274918Y0180493D03*
X0278068Y0180493D03*
X0281217Y0180493D03*
X0284367Y0180493D03*
X0287517Y0180493D03*
X0290666Y0180493D03*
X0293816Y0180493D03*
X0296965Y0180493D03*
X0300115Y0180493D03*
X0303265Y0180493D03*
X0306414Y0180493D03*
X0309564Y0180493D03*
X0312713Y0180493D03*
X0315863Y0180493D03*
X0319013Y0180493D03*
X0319013Y0167107D03*
X0315863Y0167107D03*
X0312713Y0167107D03*
X0309564Y0167107D03*
X0306414Y0167107D03*
X0303265Y0167107D03*
X0300115Y0167107D03*
X0296965Y0167107D03*
X0293816Y0167107D03*
X0290666Y0167107D03*
X0287517Y0167107D03*
X0284367Y0167107D03*
X0281217Y0167107D03*
X0278068Y0167107D03*
X0274918Y0167107D03*
X0271769Y0167107D03*
X0268619Y0167107D03*
X0265469Y0167107D03*
X0262320Y0167107D03*
X0259170Y0167107D03*
X0256020Y0167107D03*
X0252871Y0167107D03*
X0249721Y0167107D03*
X0246572Y0167107D03*
X0243422Y0167107D03*
X0240272Y0167107D03*
X0237123Y0167107D03*
X0233973Y0167107D03*
X0234123Y0125493D03*
X0237272Y0125493D03*
X0240422Y0125493D03*
X0243572Y0125493D03*
X0246721Y0125493D03*
X0249871Y0125493D03*
X0253020Y0125493D03*
X0256170Y0125493D03*
X0259320Y0125493D03*
X0262469Y0125493D03*
X0265619Y0125493D03*
X0268769Y0125493D03*
X0271918Y0125493D03*
X0275068Y0125493D03*
X0278217Y0125493D03*
X0281367Y0125493D03*
X0284517Y0125493D03*
X0284517Y0112107D03*
X0281367Y0112107D03*
X0278217Y0112107D03*
X0275068Y0112107D03*
X0271918Y0112107D03*
X0268769Y0112107D03*
X0265619Y0112107D03*
X0262469Y0112107D03*
X0259320Y0112107D03*
X0256170Y0112107D03*
X0253020Y0112107D03*
X0249871Y0112107D03*
X0246721Y0112107D03*
X0243572Y0112107D03*
X0240422Y0112107D03*
X0237272Y0112107D03*
X0234123Y0112107D03*
X0230973Y0112107D03*
X0230973Y0125493D03*
D11*
X0366273Y0086149D02*
X0086835Y0086149D01*
X0088433Y0084551D02*
X0364688Y0084551D01*
X0363103Y0082952D02*
X0090032Y0082952D01*
X0091630Y0081354D02*
X0361518Y0081354D01*
X0359934Y0079755D02*
X0093229Y0079755D01*
X0094827Y0078157D02*
X0358349Y0078157D01*
X0356764Y0076558D02*
X0096426Y0076558D01*
X0098024Y0074960D02*
X0355179Y0074960D01*
X0353595Y0073361D02*
X0099623Y0073361D01*
X0101221Y0071763D02*
X0352010Y0071763D01*
X0350425Y0070164D02*
X0102820Y0070164D01*
X0104418Y0068566D02*
X0348841Y0068566D01*
X0347256Y0066967D02*
X0106017Y0066967D01*
X0107615Y0065369D02*
X0345671Y0065369D01*
X0344086Y0063770D02*
X0109214Y0063770D01*
X0110812Y0062172D02*
X0342502Y0062172D01*
X0340917Y0060573D02*
X0112411Y0060573D01*
X0114009Y0058975D02*
X0221814Y0058975D01*
X0221929Y0059090D02*
X0219510Y0056671D01*
X0218201Y0053510D01*
X0218201Y0050090D01*
X0219510Y0046929D01*
X0221929Y0044510D01*
X0225090Y0043201D01*
X0228510Y0043201D01*
X0231671Y0044510D01*
X0234090Y0046929D01*
X0235399Y0050090D01*
X0235399Y0053510D01*
X0234090Y0056671D01*
X0231671Y0059090D01*
X0228510Y0060399D01*
X0225090Y0060399D01*
X0221929Y0059090D01*
X0220215Y0057376D02*
X0115608Y0057376D01*
X0117206Y0055778D02*
X0219140Y0055778D01*
X0218478Y0054179D02*
X0118805Y0054179D01*
X0120403Y0052581D02*
X0218201Y0052581D01*
X0218201Y0050982D02*
X0122002Y0050982D01*
X0123600Y0049384D02*
X0218493Y0049384D01*
X0219155Y0047785D02*
X0125199Y0047785D01*
X0126797Y0046187D02*
X0220252Y0046187D01*
X0221851Y0044588D02*
X0128396Y0044588D01*
X0129994Y0042990D02*
X0323485Y0042990D01*
X0325070Y0044588D02*
X0231749Y0044588D01*
X0233348Y0046187D02*
X0326654Y0046187D01*
X0328239Y0047785D02*
X0234445Y0047785D01*
X0235107Y0049384D02*
X0329824Y0049384D01*
X0331408Y0050982D02*
X0235399Y0050982D01*
X0235399Y0052581D02*
X0332993Y0052581D01*
X0334578Y0054179D02*
X0235122Y0054179D01*
X0234460Y0055778D02*
X0336163Y0055778D01*
X0337747Y0057376D02*
X0233385Y0057376D01*
X0231786Y0058975D02*
X0339332Y0058975D01*
X0321900Y0041391D02*
X0131593Y0041391D01*
X0133191Y0039793D02*
X0320315Y0039793D01*
X0318731Y0038194D02*
X0134790Y0038194D01*
X0136389Y0036596D02*
X0317146Y0036596D01*
X0315561Y0034997D02*
X0137987Y0034997D01*
X0139586Y0033399D02*
X0313976Y0033399D01*
X0312392Y0031800D02*
X0141184Y0031800D01*
X0142783Y0030201D02*
X0310807Y0030201D01*
X0310508Y0029900D02*
X0143084Y0029900D01*
X0028900Y0144084D01*
X0028900Y0310516D01*
X0142084Y0423700D01*
X0310516Y0423700D01*
X0423700Y0310516D01*
X0423700Y0144076D01*
X0310508Y0029900D01*
X0367857Y0087748D02*
X0085236Y0087748D01*
X0083638Y0089346D02*
X0369442Y0089346D01*
X0371027Y0090945D02*
X0082039Y0090945D01*
X0080441Y0092543D02*
X0372611Y0092543D01*
X0374196Y0094142D02*
X0078842Y0094142D01*
X0077244Y0095740D02*
X0375781Y0095740D01*
X0377366Y0097339D02*
X0075645Y0097339D01*
X0074047Y0098937D02*
X0378950Y0098937D01*
X0380535Y0100536D02*
X0072448Y0100536D01*
X0070850Y0102134D02*
X0382120Y0102134D01*
X0383705Y0103733D02*
X0069251Y0103733D01*
X0067653Y0105332D02*
X0385289Y0105332D01*
X0386874Y0106930D02*
X0066054Y0106930D01*
X0064455Y0108529D02*
X0141175Y0108529D01*
X0140459Y0108825D02*
X0142223Y0108094D01*
X0144133Y0108094D01*
X0145897Y0108825D01*
X0146699Y0109628D01*
X0146699Y0109165D01*
X0147519Y0108345D01*
X0150648Y0108345D01*
X0150658Y0108356D01*
X0150669Y0108345D01*
X0153797Y0108345D01*
X0153808Y0108356D01*
X0153819Y0108345D01*
X0156947Y0108345D01*
X0156957Y0108356D01*
X0156968Y0108345D01*
X0160096Y0108345D01*
X0160107Y0108356D01*
X0160118Y0108345D01*
X0163246Y0108345D01*
X0163257Y0108356D01*
X0163267Y0108345D01*
X0166396Y0108345D01*
X0166406Y0108356D01*
X0166417Y0108345D01*
X0169545Y0108345D01*
X0169556Y0108356D01*
X0169567Y0108345D01*
X0172695Y0108345D01*
X0172705Y0108356D01*
X0172716Y0108345D01*
X0175844Y0108345D01*
X0175855Y0108356D01*
X0175866Y0108345D01*
X0178994Y0108345D01*
X0179005Y0108356D01*
X0179015Y0108345D01*
X0182144Y0108345D01*
X0182154Y0108356D01*
X0182165Y0108345D01*
X0185293Y0108345D01*
X0185304Y0108356D01*
X0185315Y0108345D01*
X0188443Y0108345D01*
X0188454Y0108356D01*
X0188464Y0108345D01*
X0191592Y0108345D01*
X0191603Y0108356D01*
X0191614Y0108345D01*
X0194742Y0108345D01*
X0194753Y0108356D01*
X0194763Y0108345D01*
X0197892Y0108345D01*
X0197902Y0108356D01*
X0197913Y0108345D01*
X0201041Y0108345D01*
X0201052Y0108356D01*
X0201063Y0108345D01*
X0204191Y0108345D01*
X0204202Y0108356D01*
X0204212Y0108345D01*
X0207341Y0108345D01*
X0207351Y0108356D01*
X0207362Y0108345D01*
X0210490Y0108345D01*
X0210501Y0108356D01*
X0210511Y0108345D01*
X0213640Y0108345D01*
X0213650Y0108356D01*
X0213661Y0108345D01*
X0216789Y0108345D01*
X0217609Y0109165D01*
X0217609Y0115049D01*
X0216789Y0115869D01*
X0213661Y0115869D01*
X0213650Y0115859D01*
X0213640Y0115869D01*
X0210511Y0115869D01*
X0210501Y0115859D01*
X0210490Y0115869D01*
X0207362Y0115869D01*
X0207351Y0115859D01*
X0207341Y0115869D01*
X0204212Y0115869D01*
X0204202Y0115859D01*
X0204191Y0115869D01*
X0201063Y0115869D01*
X0201052Y0115859D01*
X0201041Y0115869D01*
X0197913Y0115869D01*
X0197902Y0115859D01*
X0197892Y0115869D01*
X0194763Y0115869D01*
X0194753Y0115859D01*
X0194742Y0115869D01*
X0191614Y0115869D01*
X0191603Y0115859D01*
X0191592Y0115869D01*
X0188464Y0115869D01*
X0188454Y0115859D01*
X0188443Y0115869D01*
X0185315Y0115869D01*
X0185304Y0115859D01*
X0185293Y0115869D01*
X0182165Y0115869D01*
X0182154Y0115859D01*
X0182144Y0115869D01*
X0179015Y0115869D01*
X0179005Y0115859D01*
X0178994Y0115869D01*
X0175866Y0115869D01*
X0175855Y0115859D01*
X0175844Y0115869D01*
X0172716Y0115869D01*
X0172705Y0115859D01*
X0172695Y0115869D01*
X0169567Y0115869D01*
X0169556Y0115859D01*
X0169545Y0115869D01*
X0166417Y0115869D01*
X0166406Y0115859D01*
X0166396Y0115869D01*
X0163267Y0115869D01*
X0163257Y0115859D01*
X0163246Y0115869D01*
X0160118Y0115869D01*
X0160107Y0115859D01*
X0160096Y0115869D01*
X0156968Y0115869D01*
X0156957Y0115859D01*
X0156947Y0115869D01*
X0153819Y0115869D01*
X0153808Y0115859D01*
X0153797Y0115869D01*
X0150669Y0115869D01*
X0150658Y0115859D01*
X0150648Y0115869D01*
X0147519Y0115869D01*
X0147252Y0115602D01*
X0147247Y0115613D01*
X0145897Y0116964D01*
X0144133Y0117694D01*
X0142223Y0117694D01*
X0140459Y0116964D01*
X0139109Y0115613D01*
X0138378Y0113849D01*
X0138378Y0111940D01*
X0139109Y0110176D01*
X0140459Y0108825D01*
X0139157Y0110127D02*
X0062857Y0110127D01*
X0061258Y0111726D02*
X0138467Y0111726D01*
X0138378Y0113324D02*
X0059660Y0113324D01*
X0058061Y0114923D02*
X0138823Y0114923D01*
X0140016Y0116521D02*
X0056463Y0116521D01*
X0054864Y0118120D02*
X0285622Y0118120D01*
X0285622Y0117845D02*
X0285622Y0119755D01*
X0286353Y0121519D01*
X0287703Y0122869D01*
X0289467Y0123600D01*
X0291377Y0123600D01*
X0293141Y0122869D01*
X0294491Y0121519D01*
X0295222Y0119755D01*
X0295222Y0117845D01*
X0294491Y0116081D01*
X0293141Y0114731D01*
X0291377Y0114000D01*
X0289467Y0114000D01*
X0287703Y0114731D01*
X0286353Y0116081D01*
X0285622Y0117845D01*
X0286171Y0116521D02*
X0146340Y0116521D01*
X0147519Y0121731D02*
X0150648Y0121731D01*
X0150658Y0121741D01*
X0150669Y0121731D01*
X0153797Y0121731D01*
X0153808Y0121741D01*
X0153819Y0121731D01*
X0156947Y0121731D01*
X0156957Y0121741D01*
X0156968Y0121731D01*
X0160096Y0121731D01*
X0160107Y0121741D01*
X0160118Y0121731D01*
X0163246Y0121731D01*
X0163257Y0121741D01*
X0163267Y0121731D01*
X0166396Y0121731D01*
X0166406Y0121741D01*
X0166417Y0121731D01*
X0169545Y0121731D01*
X0169556Y0121741D01*
X0169567Y0121731D01*
X0172695Y0121731D01*
X0172705Y0121741D01*
X0172716Y0121731D01*
X0175844Y0121731D01*
X0175855Y0121741D01*
X0175866Y0121731D01*
X0178994Y0121731D01*
X0179005Y0121741D01*
X0179015Y0121731D01*
X0182144Y0121731D01*
X0182154Y0121741D01*
X0182165Y0121731D01*
X0185293Y0121731D01*
X0185304Y0121741D01*
X0185315Y0121731D01*
X0188443Y0121731D01*
X0188454Y0121741D01*
X0188464Y0121731D01*
X0191592Y0121731D01*
X0191603Y0121741D01*
X0191614Y0121731D01*
X0194742Y0121731D01*
X0194753Y0121741D01*
X0194763Y0121731D01*
X0197892Y0121731D01*
X0197902Y0121741D01*
X0197913Y0121731D01*
X0201041Y0121731D01*
X0201052Y0121741D01*
X0201063Y0121731D01*
X0204191Y0121731D01*
X0204202Y0121741D01*
X0204212Y0121731D01*
X0207341Y0121731D01*
X0207351Y0121741D01*
X0207362Y0121731D01*
X0210490Y0121731D01*
X0210501Y0121741D01*
X0210511Y0121731D01*
X0213640Y0121731D01*
X0213650Y0121741D01*
X0213661Y0121731D01*
X0216789Y0121731D01*
X0217609Y0122551D01*
X0217609Y0128435D01*
X0216789Y0129255D01*
X0213661Y0129255D01*
X0213650Y0129244D01*
X0213640Y0129255D01*
X0210511Y0129255D01*
X0210501Y0129244D01*
X0210490Y0129255D01*
X0207362Y0129255D01*
X0207351Y0129244D01*
X0207341Y0129255D01*
X0204212Y0129255D01*
X0204202Y0129244D01*
X0204191Y0129255D01*
X0201063Y0129255D01*
X0201052Y0129244D01*
X0201041Y0129255D01*
X0197913Y0129255D01*
X0197902Y0129244D01*
X0197892Y0129255D01*
X0194763Y0129255D01*
X0194753Y0129244D01*
X0194742Y0129255D01*
X0191614Y0129255D01*
X0191603Y0129244D01*
X0191592Y0129255D01*
X0188464Y0129255D01*
X0188454Y0129244D01*
X0188443Y0129255D01*
X0185315Y0129255D01*
X0185304Y0129244D01*
X0185293Y0129255D01*
X0182165Y0129255D01*
X0182154Y0129244D01*
X0182144Y0129255D01*
X0179015Y0129255D01*
X0179005Y0129244D01*
X0178994Y0129255D01*
X0175866Y0129255D01*
X0175855Y0129244D01*
X0175844Y0129255D01*
X0172716Y0129255D01*
X0172705Y0129244D01*
X0172695Y0129255D01*
X0169567Y0129255D01*
X0169556Y0129244D01*
X0169545Y0129255D01*
X0166417Y0129255D01*
X0166406Y0129244D01*
X0166396Y0129255D01*
X0163267Y0129255D01*
X0163257Y0129244D01*
X0163246Y0129255D01*
X0160118Y0129255D01*
X0160107Y0129244D01*
X0160096Y0129255D01*
X0156968Y0129255D01*
X0156957Y0129244D01*
X0156947Y0129255D01*
X0153819Y0129255D01*
X0153808Y0129244D01*
X0153797Y0129255D01*
X0150669Y0129255D01*
X0150658Y0129244D01*
X0150648Y0129255D01*
X0147519Y0129255D01*
X0146699Y0128435D01*
X0146699Y0122551D01*
X0147519Y0121731D01*
X0146699Y0122915D02*
X0050069Y0122915D01*
X0051667Y0121317D02*
X0286269Y0121317D01*
X0286081Y0121731D02*
X0286901Y0122551D01*
X0286901Y0128435D01*
X0286081Y0129255D01*
X0282952Y0129255D01*
X0282942Y0129244D01*
X0282931Y0129255D01*
X0279803Y0129255D01*
X0279792Y0129244D01*
X0279781Y0129255D01*
X0276653Y0129255D01*
X0276643Y0129244D01*
X0276632Y0129255D01*
X0273504Y0129255D01*
X0273493Y0129244D01*
X0273482Y0129255D01*
X0270354Y0129255D01*
X0270343Y0129244D01*
X0270333Y0129255D01*
X0267204Y0129255D01*
X0267194Y0129244D01*
X0267183Y0129255D01*
X0264055Y0129255D01*
X0264044Y0129244D01*
X0264033Y0129255D01*
X0260905Y0129255D01*
X0260894Y0129244D01*
X0260884Y0129255D01*
X0257756Y0129255D01*
X0257745Y0129244D01*
X0257734Y0129255D01*
X0254606Y0129255D01*
X0254595Y0129244D01*
X0254585Y0129255D01*
X0251456Y0129255D01*
X0251446Y0129244D01*
X0251435Y0129255D01*
X0248307Y0129255D01*
X0248296Y0129244D01*
X0248285Y0129255D01*
X0245157Y0129255D01*
X0245146Y0129244D01*
X0245136Y0129255D01*
X0242007Y0129255D01*
X0241997Y0129244D01*
X0241986Y0129255D01*
X0238858Y0129255D01*
X0238847Y0129244D01*
X0238837Y0129255D01*
X0235708Y0129255D01*
X0235698Y0129244D01*
X0235687Y0129255D01*
X0232559Y0129255D01*
X0232548Y0129244D01*
X0232537Y0129255D01*
X0229409Y0129255D01*
X0228589Y0128435D01*
X0228589Y0122551D01*
X0229409Y0121731D01*
X0232537Y0121731D01*
X0232548Y0121741D01*
X0232559Y0121731D01*
X0235687Y0121731D01*
X0235698Y0121741D01*
X0235708Y0121731D01*
X0238837Y0121731D01*
X0238847Y0121741D01*
X0238858Y0121731D01*
X0241986Y0121731D01*
X0241997Y0121741D01*
X0242007Y0121731D01*
X0245136Y0121731D01*
X0245146Y0121741D01*
X0245157Y0121731D01*
X0248285Y0121731D01*
X0248296Y0121741D01*
X0248307Y0121731D01*
X0251435Y0121731D01*
X0251446Y0121741D01*
X0251456Y0121731D01*
X0254585Y0121731D01*
X0254595Y0121741D01*
X0254606Y0121731D01*
X0257734Y0121731D01*
X0257745Y0121741D01*
X0257756Y0121731D01*
X0260884Y0121731D01*
X0260894Y0121741D01*
X0260905Y0121731D01*
X0264033Y0121731D01*
X0264044Y0121741D01*
X0264055Y0121731D01*
X0267183Y0121731D01*
X0267194Y0121741D01*
X0267204Y0121731D01*
X0270333Y0121731D01*
X0270343Y0121741D01*
X0270354Y0121731D01*
X0273482Y0121731D01*
X0273493Y0121741D01*
X0273504Y0121731D01*
X0276632Y0121731D01*
X0276643Y0121741D01*
X0276653Y0121731D01*
X0279781Y0121731D01*
X0279792Y0121741D01*
X0279803Y0121731D01*
X0282931Y0121731D01*
X0282942Y0121741D01*
X0282952Y0121731D01*
X0286081Y0121731D01*
X0286901Y0122915D02*
X0287814Y0122915D01*
X0286901Y0124514D02*
X0404306Y0124514D01*
X0405891Y0126112D02*
X0286901Y0126112D01*
X0286901Y0127711D02*
X0407476Y0127711D01*
X0409060Y0129309D02*
X0043675Y0129309D01*
X0045273Y0127711D02*
X0146699Y0127711D01*
X0146699Y0126112D02*
X0046872Y0126112D01*
X0048470Y0124514D02*
X0146699Y0124514D01*
X0147336Y0108529D02*
X0145181Y0108529D01*
X0150127Y0144419D02*
X0148885Y0144934D01*
X0147934Y0145885D01*
X0147419Y0147127D01*
X0147419Y0148473D01*
X0147588Y0148881D01*
X0146473Y0148419D01*
X0145127Y0148419D01*
X0143885Y0148934D01*
X0142934Y0149885D01*
X0142419Y0151127D01*
X0142419Y0152419D01*
X0141127Y0152419D01*
X0139885Y0152934D01*
X0138934Y0153885D01*
X0138419Y0155127D01*
X0138419Y0155600D01*
X0113889Y0155600D01*
X0112600Y0156889D01*
X0112600Y0163561D01*
X0111963Y0163825D01*
X0110613Y0165176D01*
X0109882Y0166940D01*
X0109882Y0168849D01*
X0110613Y0170613D01*
X0111963Y0171964D01*
X0112600Y0172228D01*
X0112600Y0213711D01*
X0113889Y0215000D01*
X0141284Y0215000D01*
X0141109Y0215176D01*
X0140378Y0216940D01*
X0140378Y0218849D01*
X0141109Y0220613D01*
X0142459Y0221964D01*
X0144223Y0222694D01*
X0146133Y0222694D01*
X0147219Y0222245D01*
X0146613Y0265876D01*
X0146600Y0265889D01*
X0146600Y0266785D01*
X0146588Y0267681D01*
X0146600Y0267693D01*
X0146600Y0267711D01*
X0147234Y0268345D01*
X0147858Y0268987D01*
X0147876Y0268987D01*
X0147889Y0269000D01*
X0148785Y0269000D01*
X0149681Y0269012D01*
X0149693Y0269000D01*
X0190711Y0269000D01*
X0190800Y0268911D01*
X0190889Y0269000D01*
X0241711Y0269000D01*
X0243000Y0267711D01*
X0243000Y0234255D01*
X0243986Y0234255D01*
X0243997Y0234244D01*
X0244007Y0234255D01*
X0246591Y0234255D01*
X0246632Y0234295D01*
X0247042Y0234532D01*
X0247500Y0234655D01*
X0248721Y0234655D01*
X0248721Y0230493D01*
X0248721Y0230493D01*
X0248721Y0230493D01*
X0248721Y0226331D01*
X0247772Y0226331D01*
X0247772Y0221269D01*
X0248721Y0221269D01*
X0248721Y0217107D01*
X0248721Y0217107D01*
X0248721Y0212945D01*
X0247772Y0212945D01*
X0247772Y0204940D01*
X0248000Y0204711D01*
X0248000Y0202889D01*
X0246711Y0201600D01*
X0245622Y0200511D01*
X0245622Y0184255D01*
X0248136Y0184255D01*
X0248146Y0184244D01*
X0248157Y0184255D01*
X0251285Y0184255D01*
X0251296Y0184244D01*
X0251307Y0184255D01*
X0254435Y0184255D01*
X0254446Y0184244D01*
X0254456Y0184255D01*
X0257585Y0184255D01*
X0257595Y0184244D01*
X0257606Y0184255D01*
X0260734Y0184255D01*
X0260745Y0184244D01*
X0260756Y0184255D01*
X0263884Y0184255D01*
X0263894Y0184244D01*
X0263905Y0184255D01*
X0267033Y0184255D01*
X0267044Y0184244D01*
X0267055Y0184255D01*
X0270183Y0184255D01*
X0270194Y0184244D01*
X0270204Y0184255D01*
X0273333Y0184255D01*
X0273343Y0184244D01*
X0273354Y0184255D01*
X0276482Y0184255D01*
X0276493Y0184244D01*
X0276504Y0184255D01*
X0279632Y0184255D01*
X0279643Y0184244D01*
X0279653Y0184255D01*
X0282781Y0184255D01*
X0282792Y0184244D01*
X0282803Y0184255D01*
X0285931Y0184255D01*
X0285942Y0184244D01*
X0285952Y0184255D01*
X0289081Y0184255D01*
X0289091Y0184244D01*
X0289102Y0184255D01*
X0292230Y0184255D01*
X0292241Y0184244D01*
X0292252Y0184255D01*
X0295380Y0184255D01*
X0295391Y0184244D01*
X0295401Y0184255D01*
X0298530Y0184255D01*
X0298540Y0184244D01*
X0298551Y0184255D01*
X0301679Y0184255D01*
X0301690Y0184244D01*
X0301700Y0184255D01*
X0304829Y0184255D01*
X0304839Y0184244D01*
X0304850Y0184255D01*
X0307978Y0184255D01*
X0307989Y0184244D01*
X0308000Y0184255D01*
X0311128Y0184255D01*
X0311139Y0184244D01*
X0311149Y0184255D01*
X0314278Y0184255D01*
X0314288Y0184244D01*
X0314299Y0184255D01*
X0316813Y0184255D01*
X0316813Y0274676D01*
X0271889Y0319600D01*
X0121889Y0319600D01*
X0116070Y0325419D01*
X0115127Y0325419D01*
X0113885Y0325934D01*
X0112934Y0326885D01*
X0112419Y0328127D01*
X0112419Y0329473D01*
X0112934Y0330715D01*
X0113885Y0331666D01*
X0115127Y0332181D01*
X0116473Y0332181D01*
X0117715Y0331666D01*
X0118666Y0330715D01*
X0119181Y0329473D01*
X0119181Y0328530D01*
X0123711Y0324000D01*
X0273711Y0324000D01*
X0275000Y0322711D01*
X0321213Y0276499D01*
X0321213Y0183619D01*
X0321397Y0183435D01*
X0321397Y0177551D01*
X0321213Y0177367D01*
X0321213Y0176883D01*
X0322199Y0177869D01*
X0323963Y0178600D01*
X0325873Y0178600D01*
X0327637Y0177869D01*
X0328987Y0176519D01*
X0329718Y0174755D01*
X0329718Y0172845D01*
X0328987Y0171081D01*
X0327637Y0169731D01*
X0325873Y0169000D01*
X0323963Y0169000D01*
X0322199Y0169731D01*
X0321213Y0170717D01*
X0321213Y0170233D01*
X0321397Y0170049D01*
X0321397Y0164165D01*
X0320577Y0163345D01*
X0317448Y0163345D01*
X0317438Y0163356D01*
X0317427Y0163345D01*
X0314299Y0163345D01*
X0314288Y0163356D01*
X0314278Y0163345D01*
X0311149Y0163345D01*
X0311139Y0163356D01*
X0311128Y0163345D01*
X0308000Y0163345D01*
X0307989Y0163356D01*
X0307978Y0163345D01*
X0304850Y0163345D01*
X0304839Y0163356D01*
X0304829Y0163345D01*
X0301700Y0163345D01*
X0301690Y0163356D01*
X0301679Y0163345D01*
X0298551Y0163345D01*
X0298540Y0163356D01*
X0298530Y0163345D01*
X0295401Y0163345D01*
X0295391Y0163356D01*
X0295380Y0163345D01*
X0292252Y0163345D01*
X0292241Y0163356D01*
X0292230Y0163345D01*
X0289102Y0163345D01*
X0289091Y0163356D01*
X0289081Y0163345D01*
X0285952Y0163345D01*
X0285942Y0163356D01*
X0285931Y0163345D01*
X0282803Y0163345D01*
X0282792Y0163356D01*
X0282781Y0163345D01*
X0279653Y0163345D01*
X0279643Y0163356D01*
X0279632Y0163345D01*
X0277366Y0163345D01*
X0278711Y0162000D01*
X0291218Y0162000D01*
X0291885Y0162666D01*
X0293127Y0163181D01*
X0294473Y0163181D01*
X0295715Y0162666D01*
X0296666Y0161715D01*
X0297181Y0160473D01*
X0297181Y0159127D01*
X0296666Y0157885D01*
X0295715Y0156934D01*
X0294819Y0156562D01*
X0295666Y0155715D01*
X0296181Y0154473D01*
X0296181Y0153127D01*
X0295666Y0151885D01*
X0294715Y0150934D01*
X0293473Y0150419D01*
X0292127Y0150419D01*
X0290885Y0150934D01*
X0289934Y0151885D01*
X0289419Y0153127D01*
X0289419Y0154070D01*
X0288889Y0154600D01*
X0287782Y0154600D01*
X0288666Y0153715D01*
X0289181Y0152473D01*
X0289181Y0151127D01*
X0288666Y0149885D01*
X0287715Y0148934D01*
X0286473Y0148419D01*
X0285127Y0148419D01*
X0283885Y0148934D01*
X0283218Y0149600D01*
X0265889Y0149600D01*
X0264600Y0150889D01*
X0256970Y0158519D01*
X0256970Y0158618D01*
X0256666Y0157885D01*
X0255715Y0156934D01*
X0254473Y0156419D01*
X0253127Y0156419D01*
X0252012Y0156881D01*
X0252181Y0156473D01*
X0252181Y0155127D01*
X0251666Y0153885D01*
X0250715Y0152934D01*
X0249473Y0152419D01*
X0248127Y0152419D01*
X0246885Y0152934D01*
X0245934Y0153885D01*
X0245419Y0155127D01*
X0245419Y0156473D01*
X0245934Y0157715D01*
X0246885Y0158666D01*
X0247521Y0158930D01*
X0247521Y0161410D01*
X0246181Y0160070D01*
X0246181Y0159127D01*
X0245666Y0157885D01*
X0244715Y0156934D01*
X0243473Y0156419D01*
X0242127Y0156419D01*
X0240885Y0156934D01*
X0239934Y0157885D01*
X0239419Y0159127D01*
X0239419Y0160473D01*
X0239934Y0161715D01*
X0240885Y0162666D01*
X0242127Y0163181D01*
X0243070Y0163181D01*
X0243234Y0163345D01*
X0241858Y0163345D01*
X0241847Y0163356D01*
X0241837Y0163345D01*
X0239323Y0163345D01*
X0239323Y0154388D01*
X0247711Y0146000D01*
X0282218Y0146000D01*
X0282885Y0146666D01*
X0284127Y0147181D01*
X0285473Y0147181D01*
X0286715Y0146666D01*
X0287666Y0145715D01*
X0288181Y0144473D01*
X0288181Y0143127D01*
X0287666Y0141885D01*
X0286715Y0140934D01*
X0285473Y0140419D01*
X0284127Y0140419D01*
X0282885Y0140934D01*
X0282218Y0141600D01*
X0245889Y0141600D01*
X0244600Y0142889D01*
X0244600Y0142889D01*
X0234923Y0152566D01*
X0234923Y0160812D01*
X0225000Y0150889D01*
X0223711Y0149600D01*
X0155711Y0149600D01*
X0154181Y0148070D01*
X0154181Y0147127D01*
X0153666Y0145885D01*
X0152715Y0144934D01*
X0151473Y0144419D01*
X0150127Y0144419D01*
X0148524Y0145294D02*
X0028900Y0145294D01*
X0028900Y0146893D02*
X0147516Y0146893D01*
X0147427Y0148491D02*
X0146647Y0148491D01*
X0144953Y0148491D02*
X0028900Y0148491D01*
X0028900Y0150090D02*
X0142849Y0150090D01*
X0142419Y0151688D02*
X0028900Y0151688D01*
X0028900Y0153287D02*
X0139532Y0153287D01*
X0138519Y0154885D02*
X0028900Y0154885D01*
X0028900Y0156484D02*
X0113005Y0156484D01*
X0112600Y0158082D02*
X0028900Y0158082D01*
X0028900Y0159681D02*
X0112600Y0159681D01*
X0112600Y0161279D02*
X0028900Y0161279D01*
X0028900Y0162878D02*
X0112600Y0162878D01*
X0111312Y0164476D02*
X0028900Y0164476D01*
X0028900Y0166075D02*
X0110240Y0166075D01*
X0109882Y0167673D02*
X0028900Y0167673D01*
X0028900Y0169272D02*
X0110057Y0169272D01*
X0110870Y0170870D02*
X0028900Y0170870D01*
X0028900Y0172469D02*
X0112600Y0172469D01*
X0112600Y0174068D02*
X0028900Y0174068D01*
X0028900Y0175666D02*
X0112600Y0175666D01*
X0112600Y0177265D02*
X0028900Y0177265D01*
X0028900Y0178863D02*
X0112600Y0178863D01*
X0112600Y0180462D02*
X0028900Y0180462D01*
X0028900Y0182060D02*
X0112600Y0182060D01*
X0112600Y0183659D02*
X0028900Y0183659D01*
X0028900Y0185257D02*
X0112600Y0185257D01*
X0112600Y0186856D02*
X0028900Y0186856D01*
X0028900Y0188454D02*
X0112600Y0188454D01*
X0112600Y0190053D02*
X0028900Y0190053D01*
X0028900Y0191651D02*
X0112600Y0191651D01*
X0112600Y0193250D02*
X0028900Y0193250D01*
X0028900Y0194848D02*
X0112600Y0194848D01*
X0112600Y0196447D02*
X0028900Y0196447D01*
X0028900Y0198045D02*
X0112600Y0198045D01*
X0112600Y0199644D02*
X0028900Y0199644D01*
X0028900Y0201242D02*
X0112600Y0201242D01*
X0112600Y0202841D02*
X0028900Y0202841D01*
X0028900Y0204439D02*
X0112600Y0204439D01*
X0112600Y0206038D02*
X0028900Y0206038D01*
X0028900Y0207636D02*
X0112600Y0207636D01*
X0112600Y0209235D02*
X0028900Y0209235D01*
X0028900Y0210833D02*
X0112600Y0210833D01*
X0112600Y0212432D02*
X0028900Y0212432D01*
X0028900Y0214030D02*
X0112919Y0214030D01*
X0114800Y0212800D02*
X0188800Y0212800D01*
X0188800Y0194800D01*
X0137800Y0194800D01*
X0137800Y0184590D01*
X0137557Y0184655D01*
X0136335Y0184655D01*
X0136335Y0180493D01*
X0136335Y0180493D01*
X0133186Y0180493D01*
X0133186Y0180493D01*
X0133186Y0180493D01*
X0133186Y0184655D01*
X0134407Y0184655D01*
X0134761Y0184560D01*
X0135114Y0184655D01*
X0136335Y0184655D01*
X0136335Y0180493D01*
X0133551Y0180493D01*
X0133186Y0180493D01*
X0133186Y0176331D01*
X0134407Y0176331D01*
X0134761Y0176425D01*
X0135114Y0176331D01*
X0136335Y0176331D01*
X0136335Y0180493D01*
X0136335Y0180493D01*
X0136335Y0180493D01*
X0136335Y0176331D01*
X0137557Y0176331D01*
X0137800Y0176396D01*
X0137800Y0171204D01*
X0137557Y0171269D01*
X0136335Y0171269D01*
X0135114Y0171269D01*
X0134761Y0171175D01*
X0134407Y0171269D01*
X0133186Y0171269D01*
X0133186Y0167107D01*
X0133186Y0167107D01*
X0135970Y0167107D01*
X0136335Y0167107D01*
X0136335Y0167107D01*
X0133186Y0167107D01*
X0133186Y0162945D01*
X0134407Y0162945D01*
X0134761Y0163040D01*
X0135114Y0162945D01*
X0136335Y0162945D01*
X0136335Y0167107D01*
X0136335Y0167107D01*
X0136335Y0171269D01*
X0136335Y0167107D01*
X0136335Y0167107D01*
X0136335Y0162945D01*
X0137557Y0162945D01*
X0137800Y0163010D01*
X0137800Y0157800D01*
X0114800Y0157800D01*
X0114800Y0163094D01*
X0115637Y0163094D01*
X0117401Y0163825D01*
X0117862Y0164287D01*
X0117926Y0164050D01*
X0118163Y0163640D01*
X0118498Y0163305D01*
X0118908Y0163068D01*
X0119366Y0162945D01*
X0120587Y0162945D01*
X0120587Y0167107D01*
X0120587Y0167107D01*
X0120587Y0171269D01*
X0119366Y0171269D01*
X0118908Y0171147D01*
X0118498Y0170910D01*
X0118476Y0170888D01*
X0117401Y0171964D01*
X0115637Y0172694D01*
X0114800Y0172694D01*
X0114800Y0212800D01*
X0114800Y0212432D02*
X0188800Y0212432D01*
X0188879Y0212945D02*
X0188879Y0217107D01*
X0188879Y0212945D01*
X0189800Y0212945D01*
X0189800Y0194800D01*
X0149800Y0194800D01*
X0149547Y0213029D01*
X0149862Y0212945D01*
X0151083Y0212945D01*
X0151083Y0217107D01*
X0151084Y0217107D01*
X0151084Y0217107D01*
X0151449Y0217107D01*
X0154233Y0217107D01*
X0154233Y0217107D01*
X0154233Y0212945D01*
X0153012Y0212945D01*
X0152658Y0213040D01*
X0152305Y0212945D01*
X0151084Y0212945D01*
X0151084Y0217107D01*
X0154233Y0217107D01*
X0154233Y0217107D01*
X0154233Y0212945D01*
X0155454Y0212945D01*
X0155808Y0213040D01*
X0156161Y0212945D01*
X0157383Y0212945D01*
X0158604Y0212945D01*
X0158957Y0213040D01*
X0159311Y0212945D01*
X0160532Y0212945D01*
X0160532Y0217107D01*
X0157748Y0217107D01*
X0157383Y0217107D01*
X0157383Y0217107D01*
X0160532Y0217107D01*
X0160532Y0217107D01*
X0160532Y0217107D01*
X0160532Y0221269D01*
X0159311Y0221269D01*
X0158957Y0221175D01*
X0158604Y0221269D01*
X0157383Y0221269D01*
X0157383Y0217107D01*
X0157383Y0212945D01*
X0157383Y0217107D01*
X0157383Y0217107D01*
X0157383Y0217107D01*
X0157383Y0221269D01*
X0156161Y0221269D01*
X0155808Y0221175D01*
X0155454Y0221269D01*
X0154233Y0221269D01*
X0153012Y0221269D01*
X0152658Y0221175D01*
X0152305Y0221269D01*
X0151084Y0221269D01*
X0151084Y0217107D01*
X0151083Y0217107D01*
X0151083Y0221269D01*
X0149862Y0221269D01*
X0149434Y0221155D01*
X0149360Y0226479D01*
X0149404Y0226453D01*
X0149862Y0226331D01*
X0151083Y0226331D01*
X0151083Y0230493D01*
X0151083Y0234655D01*
X0149862Y0234655D01*
X0149404Y0234532D01*
X0149249Y0234443D01*
X0148800Y0266800D01*
X0189800Y0266800D01*
X0189800Y0234655D01*
X0188879Y0234655D01*
X0188879Y0230493D01*
X0188879Y0230493D01*
X0188879Y0226331D01*
X0189800Y0226331D01*
X0189800Y0221269D01*
X0188879Y0221269D01*
X0188879Y0217107D01*
X0188879Y0217107D01*
X0188879Y0217107D01*
X0188879Y0221269D01*
X0187658Y0221269D01*
X0187304Y0221175D01*
X0186950Y0221269D01*
X0185729Y0221269D01*
X0184508Y0221269D01*
X0184154Y0221175D01*
X0183801Y0221269D01*
X0182580Y0221269D01*
X0182580Y0217107D01*
X0182580Y0217107D01*
X0182945Y0217107D01*
X0185729Y0217107D01*
X0185729Y0217107D01*
X0185729Y0217107D01*
X0185729Y0212945D01*
X0184508Y0212945D01*
X0184154Y0213040D01*
X0183801Y0212945D01*
X0182580Y0212945D01*
X0182580Y0217107D01*
X0185729Y0217107D01*
X0185729Y0212945D01*
X0186950Y0212945D01*
X0187304Y0213040D01*
X0187658Y0212945D01*
X0188879Y0212945D01*
X0189800Y0212432D02*
X0149555Y0212432D01*
X0149577Y0210833D02*
X0189800Y0210833D01*
X0188800Y0210833D02*
X0114800Y0210833D01*
X0114800Y0209235D02*
X0188800Y0209235D01*
X0189800Y0209235D02*
X0149600Y0209235D01*
X0149622Y0207636D02*
X0189800Y0207636D01*
X0188800Y0207636D02*
X0114800Y0207636D01*
X0114800Y0206038D02*
X0188800Y0206038D01*
X0189800Y0206038D02*
X0149644Y0206038D01*
X0149666Y0204439D02*
X0189800Y0204439D01*
X0188800Y0204439D02*
X0114800Y0204439D01*
X0114800Y0202841D02*
X0188800Y0202841D01*
X0189800Y0202841D02*
X0149688Y0202841D01*
X0149711Y0201242D02*
X0189800Y0201242D01*
X0188800Y0201242D02*
X0114800Y0201242D01*
X0114800Y0199644D02*
X0188800Y0199644D01*
X0189800Y0199644D02*
X0149733Y0199644D01*
X0149755Y0198045D02*
X0189800Y0198045D01*
X0188800Y0198045D02*
X0114800Y0198045D01*
X0114800Y0196447D02*
X0188800Y0196447D01*
X0189800Y0196447D02*
X0149777Y0196447D01*
X0149799Y0194848D02*
X0189800Y0194848D01*
X0188800Y0194848D02*
X0114800Y0194848D01*
X0114800Y0193250D02*
X0137800Y0193250D01*
X0137800Y0191651D02*
X0114800Y0191651D01*
X0114800Y0190053D02*
X0137800Y0190053D01*
X0137800Y0188454D02*
X0114800Y0188454D01*
X0114800Y0186856D02*
X0137800Y0186856D01*
X0137800Y0185257D02*
X0114800Y0185257D01*
X0114800Y0183659D02*
X0117989Y0183659D01*
X0117926Y0183550D02*
X0118163Y0183960D01*
X0118498Y0184295D01*
X0118908Y0184532D01*
X0119366Y0184655D01*
X0120587Y0184655D01*
X0120587Y0180493D01*
X0120587Y0180493D01*
X0117803Y0180493D01*
X0117803Y0183092D01*
X0117926Y0183550D01*
X0117803Y0182060D02*
X0114800Y0182060D01*
X0114800Y0180462D02*
X0117803Y0180462D01*
X0117803Y0180493D02*
X0117803Y0177894D01*
X0117926Y0177436D01*
X0118163Y0177025D01*
X0118498Y0176690D01*
X0118908Y0176453D01*
X0119366Y0176331D01*
X0120587Y0176331D01*
X0120587Y0180493D01*
X0117803Y0180493D01*
X0117803Y0178863D02*
X0114800Y0178863D01*
X0114800Y0177265D02*
X0118025Y0177265D01*
X0120587Y0177265D02*
X0120587Y0177265D01*
X0120587Y0176331D02*
X0120587Y0180493D01*
X0120587Y0180493D01*
X0120587Y0180493D01*
X0120587Y0184655D01*
X0121809Y0184655D01*
X0122162Y0184560D01*
X0122516Y0184655D01*
X0123737Y0184655D01*
X0123737Y0180493D01*
X0123737Y0180493D01*
X0123737Y0184655D01*
X0124958Y0184655D01*
X0125312Y0184560D01*
X0125665Y0184655D01*
X0126887Y0184655D01*
X0126887Y0180493D01*
X0130036Y0180493D01*
X0130036Y0180493D01*
X0130036Y0184655D01*
X0128815Y0184655D01*
X0128461Y0184560D01*
X0128108Y0184655D01*
X0126887Y0184655D01*
X0126887Y0180493D01*
X0126887Y0180493D01*
X0127252Y0180493D01*
X0130036Y0180493D01*
X0130036Y0180493D01*
X0130036Y0180493D01*
X0130036Y0176331D01*
X0128815Y0176331D01*
X0128461Y0176425D01*
X0128108Y0176331D01*
X0126887Y0176331D01*
X0126887Y0180493D01*
X0126887Y0180493D01*
X0126887Y0180493D01*
X0126887Y0176331D01*
X0125665Y0176331D01*
X0125312Y0176425D01*
X0124958Y0176331D01*
X0123737Y0176331D01*
X0123737Y0180493D01*
X0123737Y0180493D01*
X0120588Y0180493D01*
X0120588Y0180493D01*
X0123372Y0180493D01*
X0123737Y0180493D01*
X0126886Y0180493D01*
X0126886Y0180493D01*
X0124102Y0180493D01*
X0123737Y0180493D01*
X0123737Y0180493D01*
X0123737Y0180493D01*
X0123737Y0176331D01*
X0122516Y0176331D01*
X0122162Y0176425D01*
X0121809Y0176331D01*
X0120587Y0176331D01*
X0120587Y0178863D02*
X0120587Y0178863D01*
X0120587Y0180462D02*
X0120587Y0180462D01*
X0120587Y0182060D02*
X0120587Y0182060D01*
X0120587Y0183659D02*
X0120587Y0183659D01*
X0123737Y0183659D02*
X0123737Y0183659D01*
X0123737Y0182060D02*
X0123737Y0182060D01*
X0123737Y0180462D02*
X0123737Y0180462D01*
X0123737Y0178863D02*
X0123737Y0178863D01*
X0123737Y0177265D02*
X0123737Y0177265D01*
X0126887Y0177265D02*
X0126887Y0177265D01*
X0126887Y0178863D02*
X0126887Y0178863D01*
X0126887Y0180462D02*
X0126887Y0180462D01*
X0126887Y0182060D02*
X0126887Y0182060D01*
X0126887Y0183659D02*
X0126887Y0183659D01*
X0130036Y0183659D02*
X0130036Y0183659D01*
X0130036Y0184655D02*
X0130036Y0180493D01*
X0133186Y0180493D01*
X0133186Y0180493D01*
X0133186Y0184655D01*
X0131965Y0184655D01*
X0131611Y0184560D01*
X0131257Y0184655D01*
X0130036Y0184655D01*
X0130036Y0182060D02*
X0130036Y0182060D01*
X0130036Y0180493D02*
X0130036Y0180493D01*
X0130036Y0176331D01*
X0131257Y0176331D01*
X0131611Y0176425D01*
X0131965Y0176331D01*
X0133186Y0176331D01*
X0133186Y0180493D01*
X0133186Y0180493D01*
X0132820Y0180493D01*
X0130036Y0180493D01*
X0130036Y0180462D02*
X0130036Y0180462D01*
X0130036Y0178863D02*
X0130036Y0178863D01*
X0130036Y0177265D02*
X0130036Y0177265D01*
X0133186Y0177265D02*
X0133186Y0177265D01*
X0133186Y0178863D02*
X0133186Y0178863D01*
X0133186Y0180462D02*
X0133186Y0180462D01*
X0133186Y0182060D02*
X0133186Y0182060D01*
X0133186Y0183659D02*
X0133186Y0183659D01*
X0136335Y0183659D02*
X0136335Y0183659D01*
X0136335Y0182060D02*
X0136335Y0182060D01*
X0136335Y0180462D02*
X0136335Y0180462D01*
X0136335Y0178863D02*
X0136335Y0178863D01*
X0136335Y0177265D02*
X0136335Y0177265D01*
X0137800Y0175666D02*
X0114800Y0175666D01*
X0114800Y0174068D02*
X0137800Y0174068D01*
X0137800Y0172469D02*
X0116181Y0172469D01*
X0120587Y0171269D02*
X0120587Y0167107D01*
X0120587Y0167107D01*
X0123737Y0167107D01*
X0123737Y0162945D01*
X0124958Y0162945D01*
X0125312Y0163040D01*
X0125665Y0162945D01*
X0126887Y0162945D01*
X0128108Y0162945D01*
X0128461Y0163040D01*
X0128815Y0162945D01*
X0130036Y0162945D01*
X0130036Y0167107D01*
X0127252Y0167107D01*
X0126887Y0167107D01*
X0126887Y0167107D01*
X0130036Y0167107D01*
X0130036Y0167107D01*
X0130036Y0167107D01*
X0130036Y0171269D01*
X0128815Y0171269D01*
X0128461Y0171175D01*
X0128108Y0171269D01*
X0126887Y0171269D01*
X0126887Y0167107D01*
X0126887Y0162945D01*
X0126887Y0167107D01*
X0126887Y0167107D01*
X0126887Y0167107D01*
X0126887Y0171269D01*
X0125665Y0171269D01*
X0125312Y0171175D01*
X0124958Y0171269D01*
X0123737Y0171269D01*
X0122516Y0171269D01*
X0122162Y0171175D01*
X0121809Y0171269D01*
X0120587Y0171269D01*
X0120587Y0170870D02*
X0120587Y0170870D01*
X0120587Y0169272D02*
X0120587Y0169272D01*
X0120587Y0167673D02*
X0120587Y0167673D01*
X0120588Y0167107D02*
X0123737Y0167107D01*
X0123737Y0167107D01*
X0123737Y0162945D01*
X0122516Y0162945D01*
X0122162Y0163040D01*
X0121809Y0162945D01*
X0120587Y0162945D01*
X0120587Y0167107D01*
X0120588Y0167107D02*
X0120588Y0167107D01*
X0123372Y0167107D01*
X0123737Y0167107D01*
X0123737Y0167107D01*
X0123737Y0167107D01*
X0124102Y0167107D01*
X0126886Y0167107D01*
X0126886Y0167107D01*
X0123737Y0167107D01*
X0123737Y0171269D01*
X0123737Y0167107D01*
X0123737Y0167107D01*
X0123737Y0167673D02*
X0123737Y0167673D01*
X0123737Y0166075D02*
X0123737Y0166075D01*
X0123737Y0164476D02*
X0123737Y0164476D01*
X0126887Y0164476D02*
X0126887Y0164476D01*
X0126887Y0166075D02*
X0126887Y0166075D01*
X0126887Y0167673D02*
X0126887Y0167673D01*
X0126887Y0169272D02*
X0126887Y0169272D01*
X0126887Y0170870D02*
X0126887Y0170870D01*
X0130036Y0170870D02*
X0130036Y0170870D01*
X0130036Y0171269D02*
X0130036Y0167107D01*
X0130036Y0167107D01*
X0130036Y0162945D01*
X0131257Y0162945D01*
X0131611Y0163040D01*
X0131965Y0162945D01*
X0133186Y0162945D01*
X0133186Y0167107D01*
X0133186Y0167107D01*
X0133186Y0167107D01*
X0130402Y0167107D01*
X0130036Y0167107D01*
X0130036Y0167107D01*
X0133186Y0167107D01*
X0133186Y0167107D01*
X0133186Y0171269D01*
X0131965Y0171269D01*
X0131611Y0171175D01*
X0131257Y0171269D01*
X0130036Y0171269D01*
X0130036Y0169272D02*
X0130036Y0169272D01*
X0130036Y0167673D02*
X0130036Y0167673D01*
X0130036Y0166075D02*
X0130036Y0166075D01*
X0130036Y0164476D02*
X0130036Y0164476D01*
X0133186Y0164476D02*
X0133186Y0164476D01*
X0133186Y0166075D02*
X0133186Y0166075D01*
X0133186Y0167673D02*
X0133186Y0167673D01*
X0133186Y0169272D02*
X0133186Y0169272D01*
X0133186Y0170870D02*
X0133186Y0170870D01*
X0136335Y0170870D02*
X0136335Y0170870D01*
X0136335Y0169272D02*
X0136335Y0169272D01*
X0136335Y0167673D02*
X0136335Y0167673D01*
X0136335Y0166075D02*
X0136335Y0166075D01*
X0136335Y0164476D02*
X0136335Y0164476D01*
X0137800Y0162878D02*
X0114800Y0162878D01*
X0114800Y0161279D02*
X0137800Y0161279D01*
X0137800Y0159681D02*
X0114800Y0159681D01*
X0114800Y0158082D02*
X0137800Y0158082D01*
X0140000Y0158714D02*
X0140000Y0163345D01*
X0141049Y0163345D01*
X0141060Y0163356D01*
X0141070Y0163345D01*
X0144199Y0163345D01*
X0144209Y0163356D01*
X0144220Y0163345D01*
X0147348Y0163345D01*
X0147359Y0163356D01*
X0147370Y0163345D01*
X0149954Y0163345D01*
X0149994Y0163305D01*
X0150404Y0163068D01*
X0150862Y0162945D01*
X0152083Y0162945D01*
X0152083Y0167107D01*
X0152084Y0167107D01*
X0152084Y0167107D01*
X0152449Y0167107D01*
X0155233Y0167107D01*
X0155233Y0167107D01*
X0155233Y0162945D01*
X0154012Y0162945D01*
X0153658Y0163040D01*
X0153305Y0162945D01*
X0152084Y0162945D01*
X0152084Y0167107D01*
X0155233Y0167107D01*
X0155233Y0167107D01*
X0155233Y0162945D01*
X0156454Y0162945D01*
X0156808Y0163040D01*
X0157161Y0162945D01*
X0158383Y0162945D01*
X0159604Y0162945D01*
X0159957Y0163040D01*
X0160311Y0162945D01*
X0161532Y0162945D01*
X0161532Y0167107D01*
X0161167Y0167107D01*
X0158383Y0167107D01*
X0158383Y0167107D01*
X0161532Y0167107D01*
X0161532Y0167107D01*
X0161532Y0167107D01*
X0161532Y0171269D01*
X0160311Y0171269D01*
X0159957Y0171175D01*
X0159604Y0171269D01*
X0158383Y0171269D01*
X0158383Y0167107D01*
X0158383Y0162945D01*
X0158383Y0167107D01*
X0158383Y0167107D01*
X0158383Y0167107D01*
X0158383Y0171269D01*
X0157161Y0171269D01*
X0156808Y0171175D01*
X0156454Y0171269D01*
X0155233Y0171269D01*
X0154012Y0171269D01*
X0153658Y0171175D01*
X0153305Y0171269D01*
X0152084Y0171269D01*
X0152084Y0167107D01*
X0152083Y0167107D01*
X0152083Y0171269D01*
X0150862Y0171269D01*
X0150404Y0171147D01*
X0149994Y0170910D01*
X0149954Y0170869D01*
X0147370Y0170869D01*
X0147359Y0170859D01*
X0147348Y0170869D01*
X0144220Y0170869D01*
X0144209Y0170859D01*
X0144199Y0170869D01*
X0141070Y0170869D01*
X0141060Y0170859D01*
X0141049Y0170869D01*
X0140000Y0170869D01*
X0140000Y0176731D01*
X0141049Y0176731D01*
X0141060Y0176741D01*
X0141070Y0176731D01*
X0144199Y0176731D01*
X0144209Y0176741D01*
X0144220Y0176731D01*
X0147348Y0176731D01*
X0147359Y0176741D01*
X0147370Y0176731D01*
X0149954Y0176731D01*
X0149994Y0176690D01*
X0150404Y0176453D01*
X0150862Y0176331D01*
X0152083Y0176331D01*
X0152083Y0180493D01*
X0152083Y0184655D01*
X0150862Y0184655D01*
X0150404Y0184532D01*
X0149994Y0184295D01*
X0149954Y0184255D01*
X0147370Y0184255D01*
X0147359Y0184244D01*
X0147348Y0184255D01*
X0144220Y0184255D01*
X0144209Y0184244D01*
X0144199Y0184255D01*
X0141070Y0184255D01*
X0141060Y0184244D01*
X0141049Y0184255D01*
X0140000Y0184255D01*
X0140000Y0192600D01*
X0148907Y0192600D01*
X0148919Y0192588D01*
X0149815Y0192600D01*
X0190711Y0192600D01*
X0190800Y0192689D01*
X0190889Y0192600D01*
X0238072Y0192600D01*
X0238072Y0184255D01*
X0235559Y0184255D01*
X0235548Y0184244D01*
X0235537Y0184255D01*
X0232409Y0184255D01*
X0231589Y0183435D01*
X0231589Y0177551D01*
X0231773Y0177367D01*
X0231773Y0170233D01*
X0231589Y0170049D01*
X0231589Y0164165D01*
X0231773Y0163981D01*
X0231773Y0163884D01*
X0221889Y0154000D01*
X0216111Y0154000D01*
X0220425Y0158314D01*
X0220425Y0163981D01*
X0220609Y0164165D01*
X0220609Y0170049D01*
X0220425Y0170233D01*
X0220425Y0177367D01*
X0220609Y0177551D01*
X0220609Y0183435D01*
X0219789Y0184255D01*
X0216661Y0184255D01*
X0216650Y0184244D01*
X0216640Y0184255D01*
X0213511Y0184255D01*
X0213501Y0184244D01*
X0213490Y0184255D01*
X0210362Y0184255D01*
X0210351Y0184244D01*
X0210341Y0184255D01*
X0207212Y0184255D01*
X0207202Y0184244D01*
X0207191Y0184255D01*
X0204063Y0184255D01*
X0204052Y0184244D01*
X0204041Y0184255D01*
X0200913Y0184255D01*
X0200902Y0184244D01*
X0200892Y0184255D01*
X0199820Y0184255D01*
X0200181Y0185127D01*
X0200181Y0186473D01*
X0199666Y0187715D01*
X0198715Y0188666D01*
X0197473Y0189181D01*
X0196127Y0189181D01*
X0194885Y0188666D01*
X0193934Y0187715D01*
X0193419Y0186473D01*
X0193419Y0185127D01*
X0193780Y0184255D01*
X0191464Y0184255D01*
X0191454Y0184244D01*
X0191443Y0184255D01*
X0188315Y0184255D01*
X0188304Y0184244D01*
X0188293Y0184255D01*
X0185165Y0184255D01*
X0185154Y0184244D01*
X0185144Y0184255D01*
X0182015Y0184255D01*
X0182005Y0184244D01*
X0181994Y0184255D01*
X0178866Y0184255D01*
X0178855Y0184244D01*
X0178844Y0184255D01*
X0176261Y0184255D01*
X0176220Y0184295D01*
X0175810Y0184532D01*
X0175352Y0184655D01*
X0174131Y0184655D01*
X0174131Y0180493D01*
X0174131Y0180493D01*
X0174131Y0176331D01*
X0175352Y0176331D01*
X0175810Y0176453D01*
X0176220Y0176690D01*
X0176261Y0176731D01*
X0178844Y0176731D01*
X0178855Y0176741D01*
X0178866Y0176731D01*
X0181994Y0176731D01*
X0182005Y0176741D01*
X0182015Y0176731D01*
X0185144Y0176731D01*
X0185154Y0176741D01*
X0185165Y0176731D01*
X0188293Y0176731D01*
X0188304Y0176741D01*
X0188315Y0176731D01*
X0191443Y0176731D01*
X0191454Y0176741D01*
X0191464Y0176731D01*
X0193978Y0176731D01*
X0193978Y0170869D01*
X0191464Y0170869D01*
X0191454Y0170859D01*
X0191443Y0170869D01*
X0188315Y0170869D01*
X0188304Y0170859D01*
X0188293Y0170869D01*
X0185165Y0170869D01*
X0185154Y0170859D01*
X0185144Y0170869D01*
X0182015Y0170869D01*
X0182005Y0170859D01*
X0181994Y0170869D01*
X0178866Y0170869D01*
X0178855Y0170859D01*
X0178844Y0170869D01*
X0176261Y0170869D01*
X0176220Y0170910D01*
X0175810Y0171147D01*
X0175352Y0171269D01*
X0174131Y0171269D01*
X0174131Y0167107D01*
X0174131Y0162945D01*
X0175352Y0162945D01*
X0175810Y0163068D01*
X0176220Y0163305D01*
X0176261Y0163345D01*
X0178844Y0163345D01*
X0178855Y0163356D01*
X0178866Y0163345D01*
X0181994Y0163345D01*
X0182005Y0163356D01*
X0182015Y0163345D01*
X0185144Y0163345D01*
X0185154Y0163356D01*
X0185165Y0163345D01*
X0188293Y0163345D01*
X0188304Y0163356D01*
X0188315Y0163345D01*
X0191443Y0163345D01*
X0191454Y0163356D01*
X0191464Y0163345D01*
X0194592Y0163345D01*
X0194603Y0163356D01*
X0194614Y0163345D01*
X0197742Y0163345D01*
X0197753Y0163356D01*
X0197763Y0163345D01*
X0200892Y0163345D01*
X0200902Y0163356D01*
X0200913Y0163345D01*
X0204041Y0163345D01*
X0204052Y0163356D01*
X0204063Y0163345D01*
X0207191Y0163345D01*
X0207202Y0163356D01*
X0207212Y0163345D01*
X0210341Y0163345D01*
X0210351Y0163356D01*
X0210362Y0163345D01*
X0212876Y0163345D01*
X0212876Y0161987D01*
X0210889Y0160000D01*
X0142889Y0160000D01*
X0142070Y0159181D01*
X0141127Y0159181D01*
X0140000Y0158714D01*
X0140000Y0159681D02*
X0142570Y0159681D01*
X0143800Y0157800D02*
X0141800Y0155800D01*
X0143800Y0157800D02*
X0211800Y0157800D01*
X0215076Y0161076D01*
X0215076Y0167107D01*
X0215076Y0180493D01*
X0218225Y0180493D02*
X0218225Y0167107D01*
X0218225Y0159225D01*
X0213800Y0154800D01*
X0148800Y0154800D01*
X0145800Y0151800D01*
X0150800Y0147800D02*
X0154800Y0151800D01*
X0222800Y0151800D01*
X0233973Y0162973D01*
X0233973Y0167107D01*
X0233973Y0180493D01*
X0231589Y0180462D02*
X0220609Y0180462D01*
X0220609Y0182060D02*
X0231589Y0182060D01*
X0231813Y0183659D02*
X0220386Y0183659D01*
X0220609Y0178863D02*
X0231589Y0178863D01*
X0231773Y0177265D02*
X0220425Y0177265D01*
X0220425Y0175666D02*
X0231773Y0175666D01*
X0231773Y0174068D02*
X0220425Y0174068D01*
X0220425Y0172469D02*
X0231773Y0172469D01*
X0231773Y0170870D02*
X0220425Y0170870D01*
X0220609Y0169272D02*
X0231589Y0169272D01*
X0231589Y0167673D02*
X0220609Y0167673D01*
X0220609Y0166075D02*
X0231589Y0166075D01*
X0231589Y0164476D02*
X0220609Y0164476D01*
X0220425Y0162878D02*
X0230767Y0162878D01*
X0229168Y0161279D02*
X0220425Y0161279D01*
X0220425Y0159681D02*
X0227570Y0159681D01*
X0225971Y0158082D02*
X0220194Y0158082D01*
X0218595Y0156484D02*
X0224373Y0156484D01*
X0222774Y0154885D02*
X0216997Y0154885D01*
X0212168Y0161279D02*
X0140000Y0161279D01*
X0140000Y0162878D02*
X0212876Y0162878D01*
X0224201Y0150090D02*
X0237399Y0150090D01*
X0235800Y0151688D02*
X0225800Y0151688D01*
X0227398Y0153287D02*
X0234923Y0153287D01*
X0234923Y0154885D02*
X0228997Y0154885D01*
X0230595Y0156484D02*
X0234923Y0156484D01*
X0234923Y0158082D02*
X0232194Y0158082D01*
X0233792Y0159681D02*
X0234923Y0159681D01*
X0239323Y0159681D02*
X0239419Y0159681D01*
X0239323Y0161279D02*
X0239753Y0161279D01*
X0239323Y0162878D02*
X0241396Y0162878D01*
X0242800Y0159800D02*
X0246572Y0163572D01*
X0246572Y0167107D01*
X0246572Y0180493D01*
X0249721Y0180493D02*
X0249721Y0167107D01*
X0249721Y0156721D01*
X0248800Y0155800D01*
X0246301Y0158082D02*
X0245748Y0158082D01*
X0245424Y0156484D02*
X0243629Y0156484D01*
X0241971Y0156484D02*
X0239323Y0156484D01*
X0239323Y0158082D02*
X0239852Y0158082D01*
X0239323Y0154885D02*
X0245519Y0154885D01*
X0246532Y0153287D02*
X0240424Y0153287D01*
X0242023Y0151688D02*
X0263800Y0151688D01*
X0262202Y0153287D02*
X0251068Y0153287D01*
X0252081Y0154885D02*
X0260603Y0154885D01*
X0259005Y0156484D02*
X0254629Y0156484D01*
X0252971Y0156484D02*
X0252176Y0156484D01*
X0253800Y0159800D02*
X0252871Y0160729D01*
X0252871Y0167107D01*
X0252871Y0180493D01*
X0245622Y0185257D02*
X0316813Y0185257D01*
X0316813Y0186856D02*
X0245622Y0186856D01*
X0245622Y0188454D02*
X0316813Y0188454D01*
X0316813Y0190053D02*
X0245622Y0190053D01*
X0245622Y0191651D02*
X0316813Y0191651D01*
X0316813Y0193250D02*
X0245622Y0193250D01*
X0245622Y0194848D02*
X0316813Y0194848D01*
X0316813Y0196447D02*
X0245622Y0196447D01*
X0245622Y0198045D02*
X0316813Y0198045D01*
X0316813Y0199644D02*
X0245622Y0199644D01*
X0246353Y0201242D02*
X0316813Y0201242D01*
X0316813Y0202841D02*
X0247952Y0202841D01*
X0248000Y0204439D02*
X0316813Y0204439D01*
X0316813Y0206038D02*
X0247772Y0206038D01*
X0247772Y0207636D02*
X0316813Y0207636D01*
X0316813Y0209235D02*
X0247772Y0209235D01*
X0247772Y0210833D02*
X0316813Y0210833D01*
X0316813Y0212432D02*
X0247772Y0212432D01*
X0248721Y0212945D02*
X0249942Y0212945D01*
X0250296Y0213040D01*
X0250650Y0212945D01*
X0251871Y0212945D01*
X0253092Y0212945D01*
X0253446Y0213040D01*
X0253799Y0212945D01*
X0255020Y0212945D01*
X0255020Y0217107D01*
X0252236Y0217107D01*
X0251871Y0217107D01*
X0251871Y0217107D01*
X0251871Y0212945D01*
X0251871Y0217107D01*
X0251871Y0217107D01*
X0255020Y0217107D01*
X0255020Y0217107D01*
X0255021Y0217107D01*
X0255021Y0217107D01*
X0257805Y0217107D01*
X0258170Y0217107D01*
X0258170Y0217107D01*
X0258170Y0212945D01*
X0256949Y0212945D01*
X0256595Y0213040D01*
X0256242Y0212945D01*
X0255021Y0212945D01*
X0255021Y0217107D01*
X0258170Y0217107D01*
X0258170Y0217107D01*
X0258170Y0212945D01*
X0259391Y0212945D01*
X0259745Y0213040D01*
X0260098Y0212945D01*
X0261320Y0212945D01*
X0262541Y0212945D01*
X0262894Y0213040D01*
X0263248Y0212945D01*
X0264469Y0212945D01*
X0264469Y0217107D01*
X0261685Y0217107D01*
X0261320Y0217107D01*
X0261320Y0217107D01*
X0264469Y0217107D01*
X0264469Y0217107D01*
X0264469Y0217107D01*
X0264469Y0221269D01*
X0263248Y0221269D01*
X0262894Y0221175D01*
X0262541Y0221269D01*
X0261320Y0221269D01*
X0261320Y0217107D01*
X0261320Y0212945D01*
X0261320Y0217107D01*
X0261320Y0217107D01*
X0261320Y0217107D01*
X0261320Y0221269D01*
X0260098Y0221269D01*
X0259745Y0221175D01*
X0259391Y0221269D01*
X0258170Y0221269D01*
X0256949Y0221269D01*
X0256595Y0221175D01*
X0256242Y0221269D01*
X0255021Y0221269D01*
X0255021Y0217107D01*
X0255020Y0217107D01*
X0255020Y0221269D01*
X0253799Y0221269D01*
X0253446Y0221175D01*
X0253092Y0221269D01*
X0251871Y0221269D01*
X0251871Y0217107D01*
X0251871Y0217107D01*
X0249087Y0217107D01*
X0248721Y0217107D01*
X0248721Y0217107D01*
X0248721Y0212945D01*
X0248721Y0214030D02*
X0248721Y0214030D01*
X0248721Y0215629D02*
X0248721Y0215629D01*
X0248721Y0217107D02*
X0248721Y0217107D01*
X0248721Y0221269D01*
X0249942Y0221269D01*
X0250296Y0221175D01*
X0250650Y0221269D01*
X0251871Y0221269D01*
X0251871Y0217107D01*
X0251871Y0217107D01*
X0248721Y0217107D01*
X0248721Y0217227D02*
X0248721Y0217227D01*
X0248721Y0218826D02*
X0248721Y0218826D01*
X0248721Y0220424D02*
X0248721Y0220424D01*
X0247772Y0222023D02*
X0287963Y0222023D01*
X0287738Y0221269D02*
X0286517Y0221269D01*
X0286517Y0217107D01*
X0286517Y0217107D01*
X0289301Y0217107D01*
X0289301Y0214508D01*
X0289178Y0214050D01*
X0288941Y0213640D01*
X0288606Y0213305D01*
X0288196Y0213068D01*
X0287738Y0212945D01*
X0286517Y0212945D01*
X0286517Y0217107D01*
X0289301Y0217107D01*
X0289301Y0219706D01*
X0289178Y0220164D01*
X0289053Y0220381D01*
X0289703Y0219731D01*
X0291467Y0219000D01*
X0293377Y0219000D01*
X0295141Y0219731D01*
X0296491Y0221081D01*
X0297222Y0222845D01*
X0297222Y0224755D01*
X0296491Y0226519D01*
X0295141Y0227869D01*
X0293377Y0228600D01*
X0291467Y0228600D01*
X0289703Y0227869D01*
X0289053Y0227219D01*
X0289178Y0227436D01*
X0289301Y0227894D01*
X0289301Y0230493D01*
X0289301Y0233092D01*
X0289178Y0233550D01*
X0288941Y0233960D01*
X0288606Y0234295D01*
X0288196Y0234532D01*
X0287738Y0234655D01*
X0286517Y0234655D01*
X0286517Y0230493D01*
X0289301Y0230493D01*
X0286517Y0230493D01*
X0286517Y0230493D01*
X0286516Y0230493D01*
X0286516Y0230493D01*
X0283367Y0230493D01*
X0283367Y0230493D01*
X0283367Y0234655D01*
X0284588Y0234655D01*
X0284942Y0234560D01*
X0285295Y0234655D01*
X0286516Y0234655D01*
X0286516Y0230493D01*
X0283732Y0230493D01*
X0283367Y0230493D01*
X0283367Y0230493D01*
X0283367Y0234655D01*
X0282146Y0234655D01*
X0281792Y0234560D01*
X0281439Y0234655D01*
X0280217Y0234655D01*
X0278996Y0234655D01*
X0278643Y0234560D01*
X0278289Y0234655D01*
X0277068Y0234655D01*
X0277068Y0230493D01*
X0280217Y0230493D01*
X0280217Y0230493D01*
X0279852Y0230493D01*
X0277068Y0230493D01*
X0277068Y0230493D01*
X0277068Y0230493D01*
X0277068Y0226331D01*
X0278289Y0226331D01*
X0278643Y0226425D01*
X0278996Y0226331D01*
X0280217Y0226331D01*
X0280217Y0230493D01*
X0280217Y0234655D01*
X0280217Y0230493D01*
X0280217Y0230493D01*
X0280217Y0230493D01*
X0280217Y0226331D01*
X0281439Y0226331D01*
X0281792Y0226425D01*
X0282146Y0226331D01*
X0283367Y0226331D01*
X0284588Y0226331D01*
X0284942Y0226425D01*
X0285295Y0226331D01*
X0286516Y0226331D01*
X0286516Y0230493D01*
X0286517Y0230493D01*
X0286517Y0226331D01*
X0287738Y0226331D01*
X0288196Y0226453D01*
X0288412Y0226579D01*
X0288353Y0226519D01*
X0287622Y0224755D01*
X0287622Y0222845D01*
X0288353Y0221081D01*
X0288412Y0221021D01*
X0288196Y0221147D01*
X0287738Y0221269D01*
X0286516Y0221269D02*
X0285295Y0221269D01*
X0284942Y0221175D01*
X0284588Y0221269D01*
X0283367Y0221269D01*
X0283367Y0217107D01*
X0283367Y0212945D01*
X0284588Y0212945D01*
X0284942Y0213040D01*
X0285295Y0212945D01*
X0286516Y0212945D01*
X0286516Y0217107D01*
X0283732Y0217107D01*
X0283367Y0217107D01*
X0283367Y0217107D01*
X0283367Y0217107D01*
X0286516Y0217107D01*
X0286516Y0217107D01*
X0286517Y0217107D01*
X0286516Y0217107D01*
X0286516Y0221269D01*
X0286516Y0220424D02*
X0286517Y0220424D01*
X0286516Y0218826D02*
X0286517Y0218826D01*
X0286516Y0217227D02*
X0286517Y0217227D01*
X0286516Y0215629D02*
X0286517Y0215629D01*
X0286516Y0214030D02*
X0286517Y0214030D01*
X0289167Y0214030D02*
X0316813Y0214030D01*
X0316813Y0215629D02*
X0289301Y0215629D01*
X0289301Y0217227D02*
X0316813Y0217227D01*
X0316813Y0218826D02*
X0289301Y0218826D01*
X0287622Y0223621D02*
X0247772Y0223621D01*
X0247772Y0225220D02*
X0287815Y0225220D01*
X0286517Y0226818D02*
X0286516Y0226818D01*
X0286516Y0228417D02*
X0286517Y0228417D01*
X0286516Y0230015D02*
X0286517Y0230015D01*
X0286516Y0231614D02*
X0286517Y0231614D01*
X0286516Y0233212D02*
X0286517Y0233212D01*
X0289269Y0233212D02*
X0316813Y0233212D01*
X0316813Y0231614D02*
X0289301Y0231614D01*
X0289301Y0230015D02*
X0316813Y0230015D01*
X0316813Y0228417D02*
X0293819Y0228417D01*
X0291025Y0228417D02*
X0289301Y0228417D01*
X0283367Y0228417D02*
X0283367Y0228417D01*
X0283367Y0230015D02*
X0283367Y0230015D01*
X0283367Y0230493D02*
X0283367Y0226331D01*
X0283367Y0230493D01*
X0283367Y0230493D01*
X0280217Y0230493D01*
X0280217Y0230493D01*
X0280583Y0230493D01*
X0283367Y0230493D01*
X0283367Y0230493D01*
X0283367Y0231614D02*
X0283367Y0231614D01*
X0283367Y0233212D02*
X0283367Y0233212D01*
X0280217Y0233212D02*
X0280217Y0233212D01*
X0280217Y0231614D02*
X0280217Y0231614D01*
X0280217Y0230015D02*
X0280217Y0230015D01*
X0280217Y0228417D02*
X0280217Y0228417D01*
X0280217Y0226818D02*
X0280217Y0226818D01*
X0277068Y0226818D02*
X0277068Y0226818D01*
X0277068Y0226331D02*
X0277068Y0230493D01*
X0277068Y0230493D01*
X0277068Y0234655D01*
X0275846Y0234655D01*
X0275493Y0234560D01*
X0275139Y0234655D01*
X0273918Y0234655D01*
X0272697Y0234655D01*
X0272343Y0234560D01*
X0271990Y0234655D01*
X0270769Y0234655D01*
X0270769Y0230493D01*
X0273918Y0230493D01*
X0273918Y0230493D01*
X0273918Y0234655D01*
X0273918Y0230493D01*
X0273918Y0230493D01*
X0271134Y0230493D01*
X0270769Y0230493D01*
X0270769Y0230493D01*
X0270768Y0230493D01*
X0270768Y0230493D01*
X0267619Y0230493D01*
X0267619Y0230493D01*
X0267619Y0230493D01*
X0267619Y0234655D01*
X0268840Y0234655D01*
X0269194Y0234560D01*
X0269547Y0234655D01*
X0270768Y0234655D01*
X0270768Y0230493D01*
X0270403Y0230493D01*
X0267619Y0230493D01*
X0267619Y0234655D01*
X0266398Y0234655D01*
X0266044Y0234560D01*
X0265691Y0234655D01*
X0264469Y0234655D01*
X0263248Y0234655D01*
X0262894Y0234560D01*
X0262541Y0234655D01*
X0261320Y0234655D01*
X0261320Y0230493D01*
X0264469Y0230493D01*
X0264469Y0230493D01*
X0264469Y0234655D01*
X0264469Y0230493D01*
X0264469Y0230493D01*
X0261685Y0230493D01*
X0261320Y0230493D01*
X0261320Y0230493D01*
X0261320Y0230493D01*
X0261320Y0226331D01*
X0262541Y0226331D01*
X0262894Y0226425D01*
X0263248Y0226331D01*
X0264469Y0226331D01*
X0264469Y0230493D01*
X0264469Y0230493D01*
X0264469Y0226331D01*
X0265691Y0226331D01*
X0266044Y0226425D01*
X0266398Y0226331D01*
X0267619Y0226331D01*
X0268840Y0226331D01*
X0269194Y0226425D01*
X0269547Y0226331D01*
X0270768Y0226331D01*
X0270768Y0230493D01*
X0270769Y0230493D01*
X0270769Y0226331D01*
X0271990Y0226331D01*
X0272343Y0226425D01*
X0272697Y0226331D01*
X0273918Y0226331D01*
X0273918Y0230493D01*
X0273918Y0230493D01*
X0277068Y0230493D01*
X0277068Y0230493D01*
X0274283Y0230493D01*
X0273918Y0230493D01*
X0273918Y0230493D01*
X0273918Y0226331D01*
X0275139Y0226331D01*
X0275493Y0226425D01*
X0275846Y0226331D01*
X0277068Y0226331D01*
X0277068Y0228417D02*
X0277068Y0228417D01*
X0277068Y0230015D02*
X0277068Y0230015D01*
X0277068Y0231614D02*
X0277068Y0231614D01*
X0277068Y0233212D02*
X0277068Y0233212D01*
X0273918Y0233212D02*
X0273918Y0233212D01*
X0273918Y0231614D02*
X0273918Y0231614D01*
X0273918Y0230015D02*
X0273918Y0230015D01*
X0273918Y0228417D02*
X0273918Y0228417D01*
X0273918Y0226818D02*
X0273918Y0226818D01*
X0270769Y0226818D02*
X0270768Y0226818D01*
X0270768Y0228417D02*
X0270769Y0228417D01*
X0270768Y0230015D02*
X0270769Y0230015D01*
X0270768Y0231614D02*
X0270769Y0231614D01*
X0270768Y0233212D02*
X0270769Y0233212D01*
X0267619Y0233212D02*
X0267619Y0233212D01*
X0267619Y0231614D02*
X0267619Y0231614D01*
X0267619Y0230493D02*
X0267619Y0230493D01*
X0267619Y0226331D01*
X0267619Y0230493D01*
X0267619Y0230493D01*
X0264469Y0230493D01*
X0264469Y0230493D01*
X0264835Y0230493D01*
X0267619Y0230493D01*
X0267619Y0230015D02*
X0267619Y0230015D01*
X0267619Y0228417D02*
X0267619Y0228417D01*
X0267619Y0226818D02*
X0267619Y0226818D01*
X0264469Y0226818D02*
X0264469Y0226818D01*
X0264469Y0228417D02*
X0264469Y0228417D01*
X0264469Y0230015D02*
X0264469Y0230015D01*
X0264469Y0231614D02*
X0264469Y0231614D01*
X0264469Y0233212D02*
X0264469Y0233212D01*
X0261320Y0233212D02*
X0261320Y0233212D01*
X0261320Y0234655D02*
X0260098Y0234655D01*
X0259745Y0234560D01*
X0259391Y0234655D01*
X0258170Y0234655D01*
X0256949Y0234655D01*
X0256595Y0234560D01*
X0256242Y0234655D01*
X0255021Y0234655D01*
X0255021Y0230493D01*
X0258170Y0230493D01*
X0258170Y0234655D01*
X0258170Y0230493D01*
X0258170Y0230493D01*
X0258170Y0230493D01*
X0257805Y0230493D01*
X0255021Y0230493D01*
X0255021Y0230493D01*
X0255020Y0230493D01*
X0255020Y0230493D01*
X0251871Y0230493D01*
X0251871Y0230493D01*
X0251871Y0230493D01*
X0251871Y0234655D01*
X0253092Y0234655D01*
X0253446Y0234560D01*
X0253799Y0234655D01*
X0255020Y0234655D01*
X0255020Y0230493D01*
X0252236Y0230493D01*
X0251871Y0230493D01*
X0251871Y0234655D01*
X0250650Y0234655D01*
X0250296Y0234560D01*
X0249942Y0234655D01*
X0248721Y0234655D01*
X0248721Y0230493D01*
X0248721Y0226331D01*
X0249942Y0226331D01*
X0250296Y0226425D01*
X0250650Y0226331D01*
X0251871Y0226331D01*
X0253092Y0226331D01*
X0253446Y0226425D01*
X0253799Y0226331D01*
X0255020Y0226331D01*
X0255020Y0230493D01*
X0255021Y0230493D01*
X0255021Y0226331D01*
X0256242Y0226331D01*
X0256595Y0226425D01*
X0256949Y0226331D01*
X0258170Y0226331D01*
X0258170Y0230493D01*
X0261320Y0230493D01*
X0261320Y0230493D01*
X0261320Y0234655D01*
X0261320Y0231614D02*
X0261320Y0231614D01*
X0261320Y0230493D02*
X0261320Y0230493D01*
X0261320Y0226331D01*
X0260098Y0226331D01*
X0259745Y0226425D01*
X0259391Y0226331D01*
X0258170Y0226331D01*
X0258170Y0230493D01*
X0258170Y0230493D01*
X0258170Y0230493D01*
X0258535Y0230493D01*
X0261320Y0230493D01*
X0261320Y0230015D02*
X0261320Y0230015D01*
X0261320Y0228417D02*
X0261320Y0228417D01*
X0261320Y0226818D02*
X0261320Y0226818D01*
X0258170Y0226818D02*
X0258170Y0226818D01*
X0258170Y0228417D02*
X0258170Y0228417D01*
X0258170Y0230015D02*
X0258170Y0230015D01*
X0258170Y0231614D02*
X0258170Y0231614D01*
X0258170Y0233212D02*
X0258170Y0233212D01*
X0255021Y0233212D02*
X0255020Y0233212D01*
X0255020Y0231614D02*
X0255021Y0231614D01*
X0255020Y0230015D02*
X0255021Y0230015D01*
X0255020Y0228417D02*
X0255021Y0228417D01*
X0255020Y0226818D02*
X0255021Y0226818D01*
X0251871Y0226818D02*
X0251871Y0226818D01*
X0251871Y0226331D02*
X0251871Y0230493D01*
X0251871Y0230493D01*
X0251871Y0230493D01*
X0248721Y0230493D01*
X0248721Y0230493D01*
X0249087Y0230493D01*
X0251871Y0230493D01*
X0251871Y0226331D01*
X0251871Y0228417D02*
X0251871Y0228417D01*
X0251871Y0230015D02*
X0251871Y0230015D01*
X0251871Y0231614D02*
X0251871Y0231614D01*
X0251871Y0233212D02*
X0251871Y0233212D01*
X0248721Y0233212D02*
X0248721Y0233212D01*
X0248721Y0231614D02*
X0248721Y0231614D01*
X0248721Y0230015D02*
X0248721Y0230015D01*
X0248721Y0228417D02*
X0248721Y0228417D01*
X0248721Y0226818D02*
X0248721Y0226818D01*
X0245572Y0230493D02*
X0245572Y0217107D01*
X0245572Y0204028D01*
X0245800Y0203800D01*
X0243422Y0201422D01*
X0243422Y0180493D01*
X0243422Y0167107D01*
X0240272Y0167107D02*
X0240272Y0180493D01*
X0240272Y0202272D01*
X0242422Y0204422D01*
X0242422Y0217107D01*
X0242422Y0230493D01*
X0239272Y0230493D02*
X0239272Y0226331D01*
X0239272Y0230493D01*
X0239272Y0230493D01*
X0236123Y0230493D01*
X0236123Y0230493D01*
X0236123Y0230493D01*
X0236123Y0234655D01*
X0237344Y0234655D01*
X0237698Y0234560D01*
X0238051Y0234655D01*
X0239272Y0234655D01*
X0239272Y0230493D01*
X0236488Y0230493D01*
X0236123Y0230493D01*
X0236123Y0234655D01*
X0234902Y0234655D01*
X0234548Y0234560D01*
X0234194Y0234655D01*
X0232973Y0234655D01*
X0231752Y0234655D01*
X0231294Y0234532D01*
X0230884Y0234295D01*
X0230549Y0233960D01*
X0230312Y0233550D01*
X0230189Y0233092D01*
X0230189Y0230493D01*
X0232973Y0230493D01*
X0232973Y0230493D01*
X0232973Y0234655D01*
X0232973Y0230493D01*
X0232973Y0230493D01*
X0230189Y0230493D01*
X0230189Y0227894D01*
X0230312Y0227436D01*
X0230549Y0227025D01*
X0230884Y0226690D01*
X0231294Y0226453D01*
X0231752Y0226331D01*
X0232973Y0226331D01*
X0232973Y0230493D01*
X0232973Y0230493D01*
X0236123Y0230493D01*
X0236123Y0226331D01*
X0237344Y0226331D01*
X0237698Y0226425D01*
X0238051Y0226331D01*
X0239272Y0226331D01*
X0240222Y0226331D01*
X0240222Y0221269D01*
X0239272Y0221269D01*
X0238051Y0221269D01*
X0237698Y0221175D01*
X0237344Y0221269D01*
X0236123Y0221269D01*
X0236123Y0217107D01*
X0236488Y0217107D01*
X0239272Y0217107D01*
X0239272Y0217107D01*
X0236123Y0217107D01*
X0236123Y0217107D01*
X0236123Y0212945D01*
X0237344Y0212945D01*
X0237698Y0213040D01*
X0238051Y0212945D01*
X0239272Y0212945D01*
X0239272Y0217107D01*
X0239272Y0217107D01*
X0239272Y0221269D01*
X0239272Y0217107D01*
X0239272Y0217107D01*
X0239272Y0212945D01*
X0240222Y0212945D01*
X0240222Y0205333D01*
X0238072Y0203184D01*
X0238072Y0194800D01*
X0192000Y0194800D01*
X0192000Y0212945D01*
X0192028Y0212945D01*
X0192028Y0217107D01*
X0192028Y0217107D01*
X0192028Y0221269D01*
X0192000Y0221269D01*
X0192000Y0226331D01*
X0192028Y0226331D01*
X0192028Y0230493D01*
X0192028Y0234655D01*
X0192000Y0234655D01*
X0192000Y0266800D01*
X0240800Y0266800D01*
X0240800Y0234573D01*
X0240494Y0234655D01*
X0239272Y0234655D01*
X0239272Y0230493D01*
X0239272Y0230493D01*
X0239272Y0230493D01*
X0239272Y0230015D02*
X0239272Y0230015D01*
X0239272Y0228417D02*
X0239272Y0228417D01*
X0239272Y0226818D02*
X0239272Y0226818D01*
X0240222Y0225220D02*
X0192000Y0225220D01*
X0192028Y0226331D02*
X0193250Y0226331D01*
X0193603Y0226425D01*
X0193957Y0226331D01*
X0195178Y0226331D01*
X0196399Y0226331D01*
X0196753Y0226425D01*
X0197106Y0226331D01*
X0198327Y0226331D01*
X0198327Y0230493D01*
X0198327Y0230493D01*
X0195178Y0230493D01*
X0195178Y0230493D01*
X0195178Y0234655D01*
X0196399Y0234655D01*
X0196753Y0234560D01*
X0197106Y0234655D01*
X0198327Y0234655D01*
X0198327Y0230493D01*
X0197962Y0230493D01*
X0195178Y0230493D01*
X0195178Y0230493D01*
X0195178Y0234655D01*
X0193957Y0234655D01*
X0193603Y0234560D01*
X0193250Y0234655D01*
X0192028Y0234655D01*
X0192028Y0230493D01*
X0192028Y0230493D01*
X0192028Y0230493D01*
X0192028Y0226331D01*
X0192028Y0226818D02*
X0192028Y0226818D01*
X0192028Y0228417D02*
X0192028Y0228417D01*
X0192028Y0230015D02*
X0192028Y0230015D01*
X0192028Y0230493D02*
X0192028Y0230493D01*
X0195178Y0230493D01*
X0195178Y0230493D01*
X0195178Y0226331D01*
X0195178Y0230493D01*
X0195178Y0230493D01*
X0192394Y0230493D01*
X0192028Y0230493D01*
X0192028Y0231614D02*
X0192028Y0231614D01*
X0192028Y0233212D02*
X0192028Y0233212D01*
X0192000Y0234811D02*
X0240800Y0234811D01*
X0240800Y0236409D02*
X0192000Y0236409D01*
X0192000Y0238008D02*
X0240800Y0238008D01*
X0240800Y0239606D02*
X0192000Y0239606D01*
X0192000Y0241205D02*
X0240800Y0241205D01*
X0240800Y0242803D02*
X0192000Y0242803D01*
X0192000Y0244402D02*
X0240800Y0244402D01*
X0240800Y0246001D02*
X0192000Y0246001D01*
X0192000Y0247599D02*
X0240800Y0247599D01*
X0240800Y0249198D02*
X0192000Y0249198D01*
X0192000Y0250796D02*
X0240800Y0250796D01*
X0240800Y0252395D02*
X0192000Y0252395D01*
X0192000Y0253993D02*
X0240800Y0253993D01*
X0240800Y0255592D02*
X0192000Y0255592D01*
X0192000Y0257190D02*
X0240800Y0257190D01*
X0240800Y0258789D02*
X0192000Y0258789D01*
X0192000Y0260387D02*
X0240800Y0260387D01*
X0240800Y0261986D02*
X0192000Y0261986D01*
X0192000Y0263584D02*
X0240800Y0263584D01*
X0240800Y0265183D02*
X0192000Y0265183D01*
X0192000Y0266781D02*
X0240800Y0266781D01*
X0243000Y0266781D02*
X0316813Y0266781D01*
X0316813Y0265183D02*
X0243000Y0265183D01*
X0243000Y0263584D02*
X0316813Y0263584D01*
X0316813Y0261986D02*
X0243000Y0261986D01*
X0243000Y0260387D02*
X0316813Y0260387D01*
X0316813Y0258789D02*
X0243000Y0258789D01*
X0243000Y0257190D02*
X0316813Y0257190D01*
X0316813Y0255592D02*
X0243000Y0255592D01*
X0243000Y0253993D02*
X0316813Y0253993D01*
X0316813Y0252395D02*
X0243000Y0252395D01*
X0243000Y0250796D02*
X0316813Y0250796D01*
X0316813Y0249198D02*
X0243000Y0249198D01*
X0243000Y0247599D02*
X0316813Y0247599D01*
X0316813Y0246001D02*
X0243000Y0246001D01*
X0243000Y0244402D02*
X0316813Y0244402D01*
X0316813Y0242803D02*
X0243000Y0242803D01*
X0243000Y0241205D02*
X0316813Y0241205D01*
X0316813Y0239606D02*
X0243000Y0239606D01*
X0243000Y0238008D02*
X0316813Y0238008D01*
X0316813Y0236409D02*
X0243000Y0236409D01*
X0243000Y0234811D02*
X0316813Y0234811D01*
X0321213Y0234811D02*
X0398669Y0234811D01*
X0400090Y0235399D02*
X0396929Y0234090D01*
X0394510Y0231671D01*
X0393201Y0228510D01*
X0393201Y0225090D01*
X0394510Y0221929D01*
X0396929Y0219510D01*
X0400090Y0218201D01*
X0403510Y0218201D01*
X0406671Y0219510D01*
X0409090Y0221929D01*
X0410399Y0225090D01*
X0410399Y0228510D01*
X0409090Y0231671D01*
X0406671Y0234090D01*
X0403510Y0235399D01*
X0400090Y0235399D01*
X0396051Y0233212D02*
X0321213Y0233212D01*
X0321213Y0231614D02*
X0394486Y0231614D01*
X0393824Y0230015D02*
X0321213Y0230015D01*
X0321213Y0228417D02*
X0393201Y0228417D01*
X0393201Y0226818D02*
X0321213Y0226818D01*
X0321213Y0225220D02*
X0393201Y0225220D01*
X0393809Y0223621D02*
X0321213Y0223621D01*
X0321213Y0222023D02*
X0394471Y0222023D01*
X0396015Y0220424D02*
X0321213Y0220424D01*
X0321213Y0218826D02*
X0398581Y0218826D01*
X0405019Y0218826D02*
X0423700Y0218826D01*
X0423700Y0220424D02*
X0407585Y0220424D01*
X0409129Y0222023D02*
X0423700Y0222023D01*
X0423700Y0223621D02*
X0409791Y0223621D01*
X0410399Y0225220D02*
X0423700Y0225220D01*
X0423700Y0226818D02*
X0410399Y0226818D01*
X0410399Y0228417D02*
X0423700Y0228417D01*
X0423700Y0230015D02*
X0409776Y0230015D01*
X0409114Y0231614D02*
X0423700Y0231614D01*
X0423700Y0233212D02*
X0407549Y0233212D01*
X0404931Y0234811D02*
X0423700Y0234811D01*
X0423700Y0236409D02*
X0321213Y0236409D01*
X0321213Y0238008D02*
X0423700Y0238008D01*
X0423700Y0239606D02*
X0321213Y0239606D01*
X0321213Y0241205D02*
X0423700Y0241205D01*
X0423700Y0242803D02*
X0321213Y0242803D01*
X0321213Y0244402D02*
X0423700Y0244402D01*
X0423700Y0246001D02*
X0321213Y0246001D01*
X0321213Y0247599D02*
X0423700Y0247599D01*
X0423700Y0249198D02*
X0321213Y0249198D01*
X0321213Y0250796D02*
X0423700Y0250796D01*
X0423700Y0252395D02*
X0321213Y0252395D01*
X0321213Y0253993D02*
X0423700Y0253993D01*
X0423700Y0255592D02*
X0321213Y0255592D01*
X0321213Y0257190D02*
X0423700Y0257190D01*
X0423700Y0258789D02*
X0321213Y0258789D01*
X0321213Y0260387D02*
X0423700Y0260387D01*
X0423700Y0261986D02*
X0321213Y0261986D01*
X0321213Y0263584D02*
X0423700Y0263584D01*
X0423700Y0265183D02*
X0321213Y0265183D01*
X0321213Y0266781D02*
X0423700Y0266781D01*
X0423700Y0268380D02*
X0321213Y0268380D01*
X0321213Y0269978D02*
X0423700Y0269978D01*
X0423700Y0271577D02*
X0321213Y0271577D01*
X0321213Y0273175D02*
X0423700Y0273175D01*
X0423700Y0274774D02*
X0321213Y0274774D01*
X0321213Y0276372D02*
X0423700Y0276372D01*
X0423700Y0277971D02*
X0319741Y0277971D01*
X0318142Y0279569D02*
X0423700Y0279569D01*
X0423700Y0281168D02*
X0316543Y0281168D01*
X0314945Y0282766D02*
X0423700Y0282766D01*
X0423700Y0284365D02*
X0313346Y0284365D01*
X0311748Y0285963D02*
X0423700Y0285963D01*
X0423700Y0287562D02*
X0359899Y0287562D01*
X0359276Y0287202D02*
X0361624Y0288558D01*
X0363542Y0290476D01*
X0364898Y0292824D01*
X0365600Y0295444D01*
X0365600Y0298156D01*
X0364898Y0300776D01*
X0363542Y0303124D01*
X0361624Y0305042D01*
X0359276Y0306398D01*
X0356656Y0307100D01*
X0353944Y0307100D01*
X0351324Y0306398D01*
X0348976Y0305042D01*
X0347058Y0303124D01*
X0345702Y0300776D01*
X0345000Y0298156D01*
X0345000Y0295444D01*
X0345702Y0292824D01*
X0347058Y0290476D01*
X0348976Y0288558D01*
X0351324Y0287202D01*
X0353944Y0286500D01*
X0356656Y0286500D01*
X0359276Y0287202D01*
X0362227Y0289160D02*
X0423700Y0289160D01*
X0423700Y0290759D02*
X0363706Y0290759D01*
X0364628Y0292357D02*
X0423700Y0292357D01*
X0423700Y0293956D02*
X0365201Y0293956D01*
X0365600Y0295554D02*
X0423700Y0295554D01*
X0423700Y0297153D02*
X0365600Y0297153D01*
X0365440Y0298751D02*
X0423700Y0298751D01*
X0423700Y0300350D02*
X0365012Y0300350D01*
X0364221Y0301948D02*
X0423700Y0301948D01*
X0423700Y0303547D02*
X0363119Y0303547D01*
X0361445Y0305145D02*
X0423700Y0305145D01*
X0423700Y0306744D02*
X0357985Y0306744D01*
X0352615Y0306744D02*
X0290967Y0306744D01*
X0289369Y0308342D02*
X0423700Y0308342D01*
X0423700Y0309941D02*
X0287770Y0309941D01*
X0286172Y0311539D02*
X0422676Y0311539D01*
X0421078Y0313138D02*
X0284573Y0313138D01*
X0282975Y0314737D02*
X0419479Y0314737D01*
X0417881Y0316335D02*
X0281376Y0316335D01*
X0279778Y0317934D02*
X0416282Y0317934D01*
X0414684Y0319532D02*
X0278179Y0319532D01*
X0276581Y0321131D02*
X0413085Y0321131D01*
X0411487Y0322729D02*
X0274982Y0322729D01*
X0272800Y0321800D02*
X0122800Y0321800D01*
X0115800Y0328800D01*
X0112669Y0327525D02*
X0045909Y0327525D01*
X0047507Y0329123D02*
X0112419Y0329123D01*
X0112940Y0330722D02*
X0049106Y0330722D01*
X0050704Y0332320D02*
X0401896Y0332320D01*
X0403494Y0330722D02*
X0118660Y0330722D01*
X0119181Y0329123D02*
X0405093Y0329123D01*
X0406691Y0327525D02*
X0120187Y0327525D01*
X0121785Y0325926D02*
X0408290Y0325926D01*
X0409888Y0324328D02*
X0123384Y0324328D01*
X0120358Y0321131D02*
X0039515Y0321131D01*
X0041113Y0322729D02*
X0118760Y0322729D01*
X0117161Y0324328D02*
X0042712Y0324328D01*
X0044310Y0325926D02*
X0113903Y0325926D01*
X0102776Y0306398D02*
X0100156Y0307100D01*
X0097444Y0307100D01*
X0094824Y0306398D01*
X0092476Y0305042D01*
X0090558Y0303124D01*
X0089202Y0300776D01*
X0088500Y0298156D01*
X0088500Y0295444D01*
X0089202Y0292824D01*
X0090558Y0290476D01*
X0092476Y0288558D01*
X0094824Y0287202D01*
X0097444Y0286500D01*
X0100156Y0286500D01*
X0102776Y0287202D01*
X0105124Y0288558D01*
X0107042Y0290476D01*
X0108398Y0292824D01*
X0109100Y0295444D01*
X0109100Y0298156D01*
X0108398Y0300776D01*
X0107042Y0303124D01*
X0105124Y0305042D01*
X0102776Y0306398D01*
X0101485Y0306744D02*
X0284745Y0306744D01*
X0286343Y0305145D02*
X0104945Y0305145D01*
X0106619Y0303547D02*
X0287942Y0303547D01*
X0289540Y0301948D02*
X0107721Y0301948D01*
X0108512Y0300350D02*
X0291139Y0300350D01*
X0292737Y0298751D02*
X0108940Y0298751D01*
X0109100Y0297153D02*
X0294336Y0297153D01*
X0295934Y0295554D02*
X0109100Y0295554D01*
X0108701Y0293956D02*
X0297533Y0293956D01*
X0299131Y0292357D02*
X0108128Y0292357D01*
X0107206Y0290759D02*
X0300730Y0290759D01*
X0302328Y0289160D02*
X0105727Y0289160D01*
X0103399Y0287562D02*
X0303927Y0287562D01*
X0305525Y0285963D02*
X0028900Y0285963D01*
X0028900Y0284365D02*
X0307124Y0284365D01*
X0308722Y0282766D02*
X0028900Y0282766D01*
X0028900Y0281168D02*
X0310321Y0281168D01*
X0311919Y0279569D02*
X0028900Y0279569D01*
X0028900Y0277971D02*
X0313518Y0277971D01*
X0315116Y0276372D02*
X0028900Y0276372D01*
X0028900Y0274774D02*
X0316715Y0274774D01*
X0316813Y0273175D02*
X0028900Y0273175D01*
X0028900Y0271577D02*
X0316813Y0271577D01*
X0316813Y0269978D02*
X0028900Y0269978D01*
X0028900Y0268380D02*
X0147267Y0268380D01*
X0146600Y0266781D02*
X0028900Y0266781D01*
X0028900Y0265183D02*
X0146622Y0265183D01*
X0146644Y0263584D02*
X0028900Y0263584D01*
X0028900Y0261986D02*
X0146667Y0261986D01*
X0146689Y0260387D02*
X0028900Y0260387D01*
X0028900Y0258789D02*
X0146711Y0258789D01*
X0146733Y0257190D02*
X0028900Y0257190D01*
X0028900Y0255592D02*
X0146755Y0255592D01*
X0146778Y0253993D02*
X0028900Y0253993D01*
X0028900Y0252395D02*
X0146800Y0252395D01*
X0146822Y0250796D02*
X0028900Y0250796D01*
X0028900Y0249198D02*
X0146844Y0249198D01*
X0146866Y0247599D02*
X0028900Y0247599D01*
X0028900Y0246001D02*
X0146889Y0246001D01*
X0146911Y0244402D02*
X0028900Y0244402D01*
X0028900Y0242803D02*
X0146933Y0242803D01*
X0146955Y0241205D02*
X0028900Y0241205D01*
X0028900Y0239606D02*
X0146977Y0239606D01*
X0147000Y0238008D02*
X0028900Y0238008D01*
X0028900Y0236409D02*
X0147022Y0236409D01*
X0147044Y0234811D02*
X0054931Y0234811D01*
X0053510Y0235399D02*
X0056671Y0234090D01*
X0059090Y0231671D01*
X0060399Y0228510D01*
X0060399Y0225090D01*
X0059090Y0221929D01*
X0056671Y0219510D01*
X0053510Y0218201D01*
X0050090Y0218201D01*
X0046929Y0219510D01*
X0044510Y0221929D01*
X0043201Y0225090D01*
X0043201Y0228510D01*
X0044510Y0231671D01*
X0046929Y0234090D01*
X0050090Y0235399D01*
X0053510Y0235399D01*
X0057549Y0233212D02*
X0147066Y0233212D01*
X0147088Y0231614D02*
X0059114Y0231614D01*
X0059776Y0230015D02*
X0147111Y0230015D01*
X0147133Y0228417D02*
X0060399Y0228417D01*
X0060399Y0226818D02*
X0147155Y0226818D01*
X0147177Y0225220D02*
X0060399Y0225220D01*
X0059791Y0223621D02*
X0147199Y0223621D01*
X0149400Y0223621D02*
X0189800Y0223621D01*
X0189800Y0222023D02*
X0149422Y0222023D01*
X0151083Y0220424D02*
X0151084Y0220424D01*
X0151083Y0218826D02*
X0151084Y0218826D01*
X0151083Y0217227D02*
X0151084Y0217227D01*
X0151083Y0215629D02*
X0151084Y0215629D01*
X0151083Y0214030D02*
X0151084Y0214030D01*
X0154233Y0214030D02*
X0154233Y0214030D01*
X0154233Y0215629D02*
X0154233Y0215629D01*
X0154233Y0217107D02*
X0154233Y0217107D01*
X0157017Y0217107D01*
X0157383Y0217107D01*
X0157383Y0217107D01*
X0154233Y0217107D01*
X0154233Y0221269D01*
X0154233Y0217107D01*
X0154233Y0217107D01*
X0154233Y0217227D02*
X0154233Y0217227D01*
X0154233Y0218826D02*
X0154233Y0218826D01*
X0154233Y0220424D02*
X0154233Y0220424D01*
X0157383Y0220424D02*
X0157383Y0220424D01*
X0157383Y0218826D02*
X0157383Y0218826D01*
X0157383Y0217227D02*
X0157383Y0217227D01*
X0157383Y0215629D02*
X0157383Y0215629D01*
X0157383Y0214030D02*
X0157383Y0214030D01*
X0160532Y0214030D02*
X0160532Y0214030D01*
X0160532Y0212945D02*
X0160532Y0217107D01*
X0160532Y0217107D01*
X0160532Y0221269D01*
X0161754Y0221269D01*
X0162107Y0221175D01*
X0162461Y0221269D01*
X0163682Y0221269D01*
X0163682Y0217107D01*
X0163682Y0217107D01*
X0166466Y0217107D01*
X0166831Y0217107D01*
X0166831Y0217107D01*
X0163682Y0217107D01*
X0163682Y0212945D01*
X0164903Y0212945D01*
X0165257Y0213040D01*
X0165610Y0212945D01*
X0166831Y0212945D01*
X0166831Y0217107D01*
X0166832Y0217107D01*
X0166832Y0217107D01*
X0169616Y0217107D01*
X0169981Y0217107D01*
X0169981Y0217107D01*
X0169981Y0217107D01*
X0169981Y0212945D01*
X0168760Y0212945D01*
X0168406Y0213040D01*
X0168053Y0212945D01*
X0166832Y0212945D01*
X0166832Y0217107D01*
X0169981Y0217107D01*
X0169981Y0212945D01*
X0171202Y0212945D01*
X0171556Y0213040D01*
X0171909Y0212945D01*
X0173131Y0212945D01*
X0174352Y0212945D01*
X0174705Y0213040D01*
X0175059Y0212945D01*
X0176280Y0212945D01*
X0176280Y0217107D01*
X0173496Y0217107D01*
X0173131Y0217107D01*
X0173131Y0217107D01*
X0176280Y0217107D01*
X0176280Y0217107D01*
X0176280Y0217107D01*
X0176280Y0221269D01*
X0175059Y0221269D01*
X0174705Y0221175D01*
X0174352Y0221269D01*
X0173131Y0221269D01*
X0173131Y0217107D01*
X0173131Y0212945D01*
X0173131Y0217107D01*
X0173131Y0217107D01*
X0173131Y0217107D01*
X0173131Y0221269D01*
X0171909Y0221269D01*
X0171556Y0221175D01*
X0171202Y0221269D01*
X0169981Y0221269D01*
X0168760Y0221269D01*
X0168406Y0221175D01*
X0168053Y0221269D01*
X0166832Y0221269D01*
X0166832Y0217107D01*
X0166831Y0217107D01*
X0166831Y0221269D01*
X0165610Y0221269D01*
X0165257Y0221175D01*
X0164903Y0221269D01*
X0163682Y0221269D01*
X0163682Y0217107D01*
X0163682Y0217107D01*
X0163682Y0212945D01*
X0162461Y0212945D01*
X0162107Y0213040D01*
X0161754Y0212945D01*
X0160532Y0212945D01*
X0160532Y0215629D02*
X0160532Y0215629D01*
X0160532Y0217107D02*
X0160532Y0217107D01*
X0160898Y0217107D01*
X0163682Y0217107D01*
X0163682Y0217107D01*
X0163682Y0217107D01*
X0160532Y0217107D01*
X0160532Y0217227D02*
X0160532Y0217227D01*
X0160532Y0218826D02*
X0160532Y0218826D01*
X0160532Y0220424D02*
X0160532Y0220424D01*
X0163682Y0220424D02*
X0163682Y0220424D01*
X0163682Y0218826D02*
X0163682Y0218826D01*
X0163682Y0217227D02*
X0163682Y0217227D01*
X0163682Y0215629D02*
X0163682Y0215629D01*
X0163682Y0214030D02*
X0163682Y0214030D01*
X0166831Y0214030D02*
X0166832Y0214030D01*
X0166831Y0215629D02*
X0166832Y0215629D01*
X0166831Y0217227D02*
X0166832Y0217227D01*
X0166831Y0218826D02*
X0166832Y0218826D01*
X0166831Y0220424D02*
X0166832Y0220424D01*
X0169981Y0220424D02*
X0169981Y0220424D01*
X0169981Y0221269D02*
X0169981Y0217107D01*
X0169981Y0217107D01*
X0169981Y0217107D01*
X0170346Y0217107D01*
X0173131Y0217107D01*
X0173131Y0217107D01*
X0169981Y0217107D01*
X0169981Y0221269D01*
X0169981Y0218826D02*
X0169981Y0218826D01*
X0169981Y0217227D02*
X0169981Y0217227D01*
X0169981Y0215629D02*
X0169981Y0215629D01*
X0169981Y0214030D02*
X0169981Y0214030D01*
X0173131Y0214030D02*
X0173131Y0214030D01*
X0173131Y0215629D02*
X0173131Y0215629D01*
X0173131Y0217227D02*
X0173131Y0217227D01*
X0173131Y0218826D02*
X0173131Y0218826D01*
X0173131Y0220424D02*
X0173131Y0220424D01*
X0176280Y0220424D02*
X0176280Y0220424D01*
X0176280Y0221269D02*
X0176280Y0217107D01*
X0176280Y0217107D01*
X0176280Y0212945D01*
X0177502Y0212945D01*
X0177855Y0213040D01*
X0178209Y0212945D01*
X0179430Y0212945D01*
X0180651Y0212945D01*
X0181005Y0213040D01*
X0181358Y0212945D01*
X0182579Y0212945D01*
X0182579Y0217107D01*
X0179795Y0217107D01*
X0179430Y0217107D01*
X0179430Y0217107D01*
X0179430Y0212945D01*
X0179430Y0217107D01*
X0179430Y0217107D01*
X0182579Y0217107D01*
X0182579Y0217107D01*
X0182580Y0217107D01*
X0182579Y0217107D01*
X0182579Y0221269D01*
X0181358Y0221269D01*
X0181005Y0221175D01*
X0180651Y0221269D01*
X0179430Y0221269D01*
X0179430Y0217107D01*
X0179065Y0217107D01*
X0176280Y0217107D01*
X0176280Y0217107D01*
X0179430Y0217107D01*
X0179430Y0217107D01*
X0179430Y0217107D01*
X0179430Y0221269D01*
X0178209Y0221269D01*
X0177855Y0221175D01*
X0177502Y0221269D01*
X0176280Y0221269D01*
X0176280Y0218826D02*
X0176280Y0218826D01*
X0176280Y0217227D02*
X0176280Y0217227D01*
X0176280Y0215629D02*
X0176280Y0215629D01*
X0176280Y0214030D02*
X0176280Y0214030D01*
X0179430Y0214030D02*
X0179430Y0214030D01*
X0179430Y0215629D02*
X0179430Y0215629D01*
X0179430Y0217227D02*
X0179430Y0217227D01*
X0179430Y0218826D02*
X0179430Y0218826D01*
X0179430Y0220424D02*
X0179430Y0220424D01*
X0182579Y0220424D02*
X0182580Y0220424D01*
X0182579Y0218826D02*
X0182580Y0218826D01*
X0182579Y0217227D02*
X0182580Y0217227D01*
X0182579Y0215629D02*
X0182580Y0215629D01*
X0182579Y0214030D02*
X0182580Y0214030D01*
X0185729Y0214030D02*
X0185729Y0214030D01*
X0185729Y0215629D02*
X0185729Y0215629D01*
X0185729Y0217107D02*
X0185729Y0217107D01*
X0185729Y0221269D01*
X0185729Y0217107D01*
X0185729Y0217107D01*
X0186094Y0217107D01*
X0188879Y0217107D01*
X0188879Y0217107D01*
X0185729Y0217107D01*
X0185729Y0217227D02*
X0185729Y0217227D01*
X0185729Y0218826D02*
X0185729Y0218826D01*
X0185729Y0220424D02*
X0185729Y0220424D01*
X0188879Y0220424D02*
X0188879Y0220424D01*
X0188879Y0218826D02*
X0188879Y0218826D01*
X0188879Y0217227D02*
X0188879Y0217227D01*
X0188879Y0215629D02*
X0188879Y0215629D01*
X0188879Y0214030D02*
X0188879Y0214030D01*
X0192028Y0214030D02*
X0192028Y0214030D01*
X0192028Y0212945D02*
X0192028Y0217107D01*
X0192028Y0217107D01*
X0192028Y0221269D01*
X0193250Y0221269D01*
X0193603Y0221175D01*
X0193957Y0221269D01*
X0195178Y0221269D01*
X0195178Y0217107D01*
X0195178Y0212945D01*
X0196399Y0212945D01*
X0196753Y0213040D01*
X0197106Y0212945D01*
X0198327Y0212945D01*
X0198327Y0217107D01*
X0195543Y0217107D01*
X0195178Y0217107D01*
X0195178Y0217107D01*
X0195178Y0217107D01*
X0195178Y0212945D01*
X0193957Y0212945D01*
X0193603Y0213040D01*
X0193250Y0212945D01*
X0192028Y0212945D01*
X0192000Y0212432D02*
X0240222Y0212432D01*
X0240222Y0210833D02*
X0192000Y0210833D01*
X0192000Y0209235D02*
X0240222Y0209235D01*
X0240222Y0207636D02*
X0192000Y0207636D01*
X0192000Y0206038D02*
X0240222Y0206038D01*
X0239328Y0204439D02*
X0192000Y0204439D01*
X0192000Y0202841D02*
X0238072Y0202841D01*
X0238072Y0201242D02*
X0192000Y0201242D01*
X0192000Y0199644D02*
X0238072Y0199644D01*
X0238072Y0198045D02*
X0192000Y0198045D01*
X0192000Y0196447D02*
X0238072Y0196447D01*
X0238072Y0194848D02*
X0192000Y0194848D01*
X0194673Y0188454D02*
X0140000Y0188454D01*
X0140000Y0186856D02*
X0193578Y0186856D01*
X0193419Y0185257D02*
X0140000Y0185257D01*
X0140000Y0190053D02*
X0238072Y0190053D01*
X0238072Y0191651D02*
X0140000Y0191651D01*
X0152084Y0184655D02*
X0152084Y0180493D01*
X0155233Y0180493D01*
X0155233Y0184655D01*
X0154012Y0184655D01*
X0153658Y0184560D01*
X0153305Y0184655D01*
X0152084Y0184655D01*
X0152083Y0183659D02*
X0152084Y0183659D01*
X0152083Y0182060D02*
X0152084Y0182060D01*
X0152084Y0180493D02*
X0152083Y0180493D01*
X0152084Y0180493D01*
X0152084Y0180493D01*
X0152449Y0180493D01*
X0155233Y0180493D01*
X0155233Y0180493D01*
X0155233Y0180493D01*
X0155233Y0184655D01*
X0156454Y0184655D01*
X0156808Y0184560D01*
X0157161Y0184655D01*
X0158383Y0184655D01*
X0158383Y0180493D01*
X0161532Y0180493D01*
X0161532Y0180493D01*
X0158748Y0180493D01*
X0158383Y0180493D01*
X0158383Y0180493D01*
X0158383Y0180493D01*
X0158383Y0176331D01*
X0159604Y0176331D01*
X0159957Y0176425D01*
X0160311Y0176331D01*
X0161532Y0176331D01*
X0161532Y0180493D01*
X0161532Y0184655D01*
X0160311Y0184655D01*
X0159957Y0184560D01*
X0159604Y0184655D01*
X0158383Y0184655D01*
X0158383Y0180493D01*
X0158383Y0180493D01*
X0158383Y0176331D01*
X0157161Y0176331D01*
X0156808Y0176425D01*
X0156454Y0176331D01*
X0155233Y0176331D01*
X0155233Y0180493D01*
X0158383Y0180493D01*
X0158383Y0180493D01*
X0158017Y0180493D01*
X0155233Y0180493D01*
X0155233Y0180493D01*
X0155233Y0180493D01*
X0155233Y0176331D01*
X0154012Y0176331D01*
X0153658Y0176425D01*
X0153305Y0176331D01*
X0152084Y0176331D01*
X0152084Y0180493D01*
X0152083Y0180462D02*
X0152084Y0180462D01*
X0152083Y0178863D02*
X0152084Y0178863D01*
X0152083Y0177265D02*
X0152084Y0177265D01*
X0155233Y0177265D02*
X0155233Y0177265D01*
X0155233Y0178863D02*
X0155233Y0178863D01*
X0155233Y0180462D02*
X0155233Y0180462D01*
X0155233Y0182060D02*
X0155233Y0182060D01*
X0155233Y0183659D02*
X0155233Y0183659D01*
X0158383Y0183659D02*
X0158383Y0183659D01*
X0158383Y0182060D02*
X0158383Y0182060D01*
X0158383Y0180462D02*
X0158383Y0180462D01*
X0158383Y0178863D02*
X0158383Y0178863D01*
X0158383Y0177265D02*
X0158383Y0177265D01*
X0161532Y0177265D02*
X0161532Y0177265D01*
X0161532Y0176331D02*
X0161532Y0180493D01*
X0161532Y0180493D01*
X0161532Y0180493D01*
X0161532Y0184655D01*
X0162754Y0184655D01*
X0163107Y0184560D01*
X0163461Y0184655D01*
X0164682Y0184655D01*
X0164682Y0180493D01*
X0167831Y0180493D01*
X0167831Y0180493D01*
X0165047Y0180493D01*
X0164682Y0180493D01*
X0164682Y0180493D01*
X0164682Y0180493D01*
X0164682Y0184655D01*
X0165903Y0184655D01*
X0166257Y0184560D01*
X0166610Y0184655D01*
X0167831Y0184655D01*
X0167831Y0180493D01*
X0167832Y0180493D01*
X0170981Y0180493D01*
X0170981Y0184655D01*
X0169760Y0184655D01*
X0169406Y0184560D01*
X0169053Y0184655D01*
X0167832Y0184655D01*
X0167832Y0180493D01*
X0167832Y0180493D01*
X0170616Y0180493D01*
X0170981Y0180493D01*
X0170981Y0180493D01*
X0170981Y0180493D01*
X0170981Y0184655D01*
X0172202Y0184655D01*
X0172556Y0184560D01*
X0172909Y0184655D01*
X0174131Y0184655D01*
X0174131Y0180493D01*
X0174131Y0180493D01*
X0174131Y0176331D01*
X0172909Y0176331D01*
X0172556Y0176425D01*
X0172202Y0176331D01*
X0170981Y0176331D01*
X0170981Y0180493D01*
X0170981Y0180493D01*
X0174131Y0180493D01*
X0174131Y0180493D01*
X0171346Y0180493D01*
X0170981Y0180493D01*
X0170981Y0180493D01*
X0170981Y0176331D01*
X0169760Y0176331D01*
X0169406Y0176425D01*
X0169053Y0176331D01*
X0167832Y0176331D01*
X0167832Y0180493D01*
X0167831Y0180493D01*
X0167831Y0176331D01*
X0166610Y0176331D01*
X0166257Y0176425D01*
X0165903Y0176331D01*
X0164682Y0176331D01*
X0164682Y0180493D01*
X0164682Y0180493D01*
X0164682Y0180493D01*
X0161532Y0180493D01*
X0161532Y0180493D01*
X0161898Y0180493D01*
X0164682Y0180493D01*
X0164682Y0176331D01*
X0163461Y0176331D01*
X0163107Y0176425D01*
X0162754Y0176331D01*
X0161532Y0176331D01*
X0161532Y0178863D02*
X0161532Y0178863D01*
X0161532Y0180462D02*
X0161532Y0180462D01*
X0161532Y0182060D02*
X0161532Y0182060D01*
X0161532Y0183659D02*
X0161532Y0183659D01*
X0164682Y0183659D02*
X0164682Y0183659D01*
X0164682Y0182060D02*
X0164682Y0182060D01*
X0164682Y0180462D02*
X0164682Y0180462D01*
X0164682Y0178863D02*
X0164682Y0178863D01*
X0164682Y0177265D02*
X0164682Y0177265D01*
X0167831Y0177265D02*
X0167832Y0177265D01*
X0167831Y0178863D02*
X0167832Y0178863D01*
X0167831Y0180462D02*
X0167832Y0180462D01*
X0167831Y0182060D02*
X0167832Y0182060D01*
X0167831Y0183659D02*
X0167832Y0183659D01*
X0170981Y0183659D02*
X0170981Y0183659D01*
X0170981Y0182060D02*
X0170981Y0182060D01*
X0170981Y0180462D02*
X0170981Y0180462D01*
X0170981Y0178863D02*
X0170981Y0178863D01*
X0170981Y0177265D02*
X0170981Y0177265D01*
X0174131Y0177265D02*
X0174131Y0177265D01*
X0174131Y0178863D02*
X0174131Y0178863D01*
X0174131Y0180462D02*
X0174131Y0180462D01*
X0174131Y0182060D02*
X0174131Y0182060D01*
X0174131Y0183659D02*
X0174131Y0183659D01*
X0174131Y0171269D02*
X0172909Y0171269D01*
X0172556Y0171175D01*
X0172202Y0171269D01*
X0170981Y0171269D01*
X0169760Y0171269D01*
X0169406Y0171175D01*
X0169053Y0171269D01*
X0167832Y0171269D01*
X0167832Y0167107D01*
X0170616Y0167107D01*
X0170981Y0167107D01*
X0170981Y0167107D01*
X0170981Y0167107D01*
X0170981Y0162945D01*
X0169760Y0162945D01*
X0169406Y0163040D01*
X0169053Y0162945D01*
X0167832Y0162945D01*
X0167832Y0167107D01*
X0167832Y0167107D01*
X0170981Y0167107D01*
X0170981Y0162945D01*
X0172202Y0162945D01*
X0172556Y0163040D01*
X0172909Y0162945D01*
X0174131Y0162945D01*
X0174131Y0167107D01*
X0174131Y0167107D01*
X0174131Y0167107D01*
X0174131Y0171269D01*
X0174131Y0170870D02*
X0174131Y0170870D01*
X0174131Y0169272D02*
X0174131Y0169272D01*
X0174131Y0167673D02*
X0174131Y0167673D01*
X0174131Y0167107D02*
X0174131Y0167107D01*
X0171346Y0167107D01*
X0170981Y0167107D01*
X0170981Y0171269D01*
X0170981Y0167107D01*
X0170981Y0167107D01*
X0170981Y0167107D01*
X0174131Y0167107D01*
X0174131Y0166075D02*
X0174131Y0166075D01*
X0174131Y0164476D02*
X0174131Y0164476D01*
X0170981Y0164476D02*
X0170981Y0164476D01*
X0170981Y0166075D02*
X0170981Y0166075D01*
X0170981Y0167673D02*
X0170981Y0167673D01*
X0170981Y0169272D02*
X0170981Y0169272D01*
X0170981Y0170870D02*
X0170981Y0170870D01*
X0167832Y0170870D02*
X0167831Y0170870D01*
X0167831Y0171269D02*
X0166610Y0171269D01*
X0166257Y0171175D01*
X0165903Y0171269D01*
X0164682Y0171269D01*
X0164682Y0167107D01*
X0164682Y0167107D01*
X0165047Y0167107D01*
X0167831Y0167107D01*
X0167831Y0167107D01*
X0164682Y0167107D01*
X0164682Y0162945D01*
X0165903Y0162945D01*
X0166257Y0163040D01*
X0166610Y0162945D01*
X0167831Y0162945D01*
X0167831Y0167107D01*
X0167832Y0167107D01*
X0167831Y0167107D01*
X0167831Y0171269D01*
X0167831Y0169272D02*
X0167832Y0169272D01*
X0167831Y0167673D02*
X0167832Y0167673D01*
X0167831Y0166075D02*
X0167832Y0166075D01*
X0167831Y0164476D02*
X0167832Y0164476D01*
X0164682Y0164476D02*
X0164682Y0164476D01*
X0164682Y0162945D02*
X0164682Y0167107D01*
X0164682Y0167107D01*
X0164682Y0167107D01*
X0161898Y0167107D01*
X0161532Y0167107D01*
X0161532Y0167107D01*
X0161532Y0162945D01*
X0162754Y0162945D01*
X0163107Y0163040D01*
X0163461Y0162945D01*
X0164682Y0162945D01*
X0164682Y0166075D02*
X0164682Y0166075D01*
X0164682Y0167107D02*
X0164682Y0167107D01*
X0161532Y0167107D01*
X0161532Y0171269D01*
X0162754Y0171269D01*
X0163107Y0171175D01*
X0163461Y0171269D01*
X0164682Y0171269D01*
X0164682Y0167107D01*
X0164682Y0167673D02*
X0164682Y0167673D01*
X0164682Y0169272D02*
X0164682Y0169272D01*
X0164682Y0170870D02*
X0164682Y0170870D01*
X0161532Y0170870D02*
X0161532Y0170870D01*
X0161532Y0169272D02*
X0161532Y0169272D01*
X0161532Y0167673D02*
X0161532Y0167673D01*
X0161532Y0167107D02*
X0161532Y0167107D01*
X0161532Y0166075D02*
X0161532Y0166075D01*
X0161532Y0164476D02*
X0161532Y0164476D01*
X0158383Y0164476D02*
X0158383Y0164476D01*
X0158383Y0166075D02*
X0158383Y0166075D01*
X0158383Y0167107D02*
X0155598Y0167107D01*
X0155233Y0167107D01*
X0155233Y0167107D01*
X0155233Y0171269D01*
X0155233Y0167107D01*
X0155233Y0167107D01*
X0158383Y0167107D01*
X0158383Y0167107D01*
X0158383Y0167673D02*
X0158383Y0167673D01*
X0158383Y0169272D02*
X0158383Y0169272D01*
X0158383Y0170870D02*
X0158383Y0170870D01*
X0155233Y0170870D02*
X0155233Y0170870D01*
X0155233Y0169272D02*
X0155233Y0169272D01*
X0155233Y0167673D02*
X0155233Y0167673D01*
X0155233Y0166075D02*
X0155233Y0166075D01*
X0155233Y0164476D02*
X0155233Y0164476D01*
X0152084Y0164476D02*
X0152083Y0164476D01*
X0152083Y0166075D02*
X0152084Y0166075D01*
X0152083Y0167673D02*
X0152084Y0167673D01*
X0152083Y0169272D02*
X0152084Y0169272D01*
X0152083Y0170870D02*
X0152084Y0170870D01*
X0149955Y0170870D02*
X0140000Y0170870D01*
X0140000Y0172469D02*
X0193978Y0172469D01*
X0193978Y0174068D02*
X0140000Y0174068D01*
X0140000Y0175666D02*
X0193978Y0175666D01*
X0193978Y0170870D02*
X0176259Y0170870D01*
X0196178Y0167107D02*
X0196178Y0180493D01*
X0196178Y0185178D01*
X0196800Y0185800D01*
X0200022Y0186856D02*
X0238072Y0186856D01*
X0238072Y0188454D02*
X0198927Y0188454D01*
X0200181Y0185257D02*
X0238072Y0185257D01*
X0237123Y0180493D02*
X0237123Y0167107D01*
X0237123Y0153477D01*
X0246800Y0143800D01*
X0284800Y0143800D01*
X0283431Y0146893D02*
X0246818Y0146893D01*
X0245220Y0148491D02*
X0284953Y0148491D01*
X0286647Y0148491D02*
X0423700Y0148491D01*
X0423700Y0146893D02*
X0286169Y0146893D01*
X0287841Y0145294D02*
X0423700Y0145294D01*
X0423323Y0143696D02*
X0288181Y0143696D01*
X0287754Y0142097D02*
X0421738Y0142097D01*
X0420153Y0140499D02*
X0285665Y0140499D01*
X0283935Y0140499D02*
X0032485Y0140499D01*
X0030887Y0142097D02*
X0245391Y0142097D01*
X0243793Y0143696D02*
X0029288Y0143696D01*
X0034084Y0138900D02*
X0418569Y0138900D01*
X0416984Y0137302D02*
X0035682Y0137302D01*
X0037281Y0135703D02*
X0415399Y0135703D01*
X0413814Y0134105D02*
X0038879Y0134105D01*
X0040478Y0132506D02*
X0412230Y0132506D01*
X0410645Y0130908D02*
X0042076Y0130908D01*
X0053266Y0119718D02*
X0285622Y0119718D01*
X0286081Y0115869D02*
X0282952Y0115869D01*
X0282942Y0115859D01*
X0282931Y0115869D01*
X0279803Y0115869D01*
X0279792Y0115859D01*
X0279781Y0115869D01*
X0276653Y0115869D01*
X0276643Y0115859D01*
X0276632Y0115869D01*
X0273504Y0115869D01*
X0273493Y0115859D01*
X0273482Y0115869D01*
X0270354Y0115869D01*
X0270343Y0115859D01*
X0270333Y0115869D01*
X0267204Y0115869D01*
X0267194Y0115859D01*
X0267183Y0115869D01*
X0264055Y0115869D01*
X0264044Y0115859D01*
X0264033Y0115869D01*
X0260905Y0115869D01*
X0260894Y0115859D01*
X0260884Y0115869D01*
X0257756Y0115869D01*
X0257745Y0115859D01*
X0257734Y0115869D01*
X0254606Y0115869D01*
X0254595Y0115859D01*
X0254585Y0115869D01*
X0251456Y0115869D01*
X0251446Y0115859D01*
X0251435Y0115869D01*
X0248307Y0115869D01*
X0248296Y0115859D01*
X0248285Y0115869D01*
X0245157Y0115869D01*
X0245146Y0115859D01*
X0245136Y0115869D01*
X0242007Y0115869D01*
X0241997Y0115859D01*
X0241986Y0115869D01*
X0238858Y0115869D01*
X0238847Y0115859D01*
X0238837Y0115869D01*
X0235708Y0115869D01*
X0235698Y0115859D01*
X0235687Y0115869D01*
X0232559Y0115869D01*
X0232548Y0115859D01*
X0232537Y0115869D01*
X0229409Y0115869D01*
X0228589Y0115049D01*
X0228589Y0109165D01*
X0229409Y0108345D01*
X0232537Y0108345D01*
X0232548Y0108356D01*
X0232559Y0108345D01*
X0235687Y0108345D01*
X0235698Y0108356D01*
X0235708Y0108345D01*
X0238837Y0108345D01*
X0238847Y0108356D01*
X0238858Y0108345D01*
X0241986Y0108345D01*
X0241997Y0108356D01*
X0242007Y0108345D01*
X0245136Y0108345D01*
X0245146Y0108356D01*
X0245157Y0108345D01*
X0248285Y0108345D01*
X0248296Y0108356D01*
X0248307Y0108345D01*
X0251435Y0108345D01*
X0251446Y0108356D01*
X0251456Y0108345D01*
X0254585Y0108345D01*
X0254595Y0108356D01*
X0254606Y0108345D01*
X0257734Y0108345D01*
X0257745Y0108356D01*
X0257756Y0108345D01*
X0260884Y0108345D01*
X0260894Y0108356D01*
X0260905Y0108345D01*
X0264033Y0108345D01*
X0264044Y0108356D01*
X0264055Y0108345D01*
X0267183Y0108345D01*
X0267194Y0108356D01*
X0267204Y0108345D01*
X0270333Y0108345D01*
X0270343Y0108356D01*
X0270354Y0108345D01*
X0273482Y0108345D01*
X0273493Y0108356D01*
X0273504Y0108345D01*
X0276632Y0108345D01*
X0276643Y0108356D01*
X0276653Y0108345D01*
X0279781Y0108345D01*
X0279792Y0108356D01*
X0279803Y0108345D01*
X0282931Y0108345D01*
X0282942Y0108356D01*
X0282952Y0108345D01*
X0286081Y0108345D01*
X0286901Y0109165D01*
X0286901Y0115049D01*
X0286081Y0115869D01*
X0286901Y0114923D02*
X0287511Y0114923D01*
X0286901Y0113324D02*
X0393213Y0113324D01*
X0391628Y0111726D02*
X0286901Y0111726D01*
X0286901Y0110127D02*
X0390044Y0110127D01*
X0388459Y0108529D02*
X0286264Y0108529D01*
X0293333Y0114923D02*
X0394798Y0114923D01*
X0396382Y0116521D02*
X0294674Y0116521D01*
X0295222Y0118120D02*
X0397967Y0118120D01*
X0399552Y0119718D02*
X0295222Y0119718D01*
X0294575Y0121317D02*
X0401137Y0121317D01*
X0402721Y0122915D02*
X0293030Y0122915D01*
X0288751Y0150090D02*
X0423700Y0150090D01*
X0423700Y0151688D02*
X0295470Y0151688D01*
X0296181Y0153287D02*
X0423700Y0153287D01*
X0423700Y0154885D02*
X0296010Y0154885D01*
X0294898Y0156484D02*
X0423700Y0156484D01*
X0423700Y0158082D02*
X0296748Y0158082D01*
X0297181Y0159681D02*
X0423700Y0159681D01*
X0423700Y0161279D02*
X0296847Y0161279D01*
X0295204Y0162878D02*
X0423700Y0162878D01*
X0423700Y0164476D02*
X0321397Y0164476D01*
X0321397Y0166075D02*
X0423700Y0166075D01*
X0423700Y0167673D02*
X0321397Y0167673D01*
X0321397Y0169272D02*
X0323307Y0169272D01*
X0326529Y0169272D02*
X0423700Y0169272D01*
X0423700Y0170870D02*
X0328777Y0170870D01*
X0329562Y0172469D02*
X0423700Y0172469D01*
X0423700Y0174068D02*
X0329718Y0174068D01*
X0329341Y0175666D02*
X0423700Y0175666D01*
X0423700Y0177265D02*
X0328242Y0177265D01*
X0321594Y0177265D02*
X0321213Y0177265D01*
X0321397Y0178863D02*
X0423700Y0178863D01*
X0423700Y0180462D02*
X0321397Y0180462D01*
X0321397Y0182060D02*
X0423700Y0182060D01*
X0423700Y0183659D02*
X0321213Y0183659D01*
X0321213Y0185257D02*
X0423700Y0185257D01*
X0423700Y0186856D02*
X0321213Y0186856D01*
X0321213Y0188454D02*
X0423700Y0188454D01*
X0423700Y0190053D02*
X0321213Y0190053D01*
X0321213Y0191651D02*
X0423700Y0191651D01*
X0423700Y0193250D02*
X0321213Y0193250D01*
X0321213Y0194848D02*
X0423700Y0194848D01*
X0423700Y0196447D02*
X0321213Y0196447D01*
X0321213Y0198045D02*
X0423700Y0198045D01*
X0423700Y0199644D02*
X0321213Y0199644D01*
X0321213Y0201242D02*
X0423700Y0201242D01*
X0423700Y0202841D02*
X0321213Y0202841D01*
X0321213Y0204439D02*
X0423700Y0204439D01*
X0423700Y0206038D02*
X0321213Y0206038D01*
X0321213Y0207636D02*
X0423700Y0207636D01*
X0423700Y0209235D02*
X0321213Y0209235D01*
X0321213Y0210833D02*
X0423700Y0210833D01*
X0423700Y0212432D02*
X0321213Y0212432D01*
X0321213Y0214030D02*
X0423700Y0214030D01*
X0423700Y0215629D02*
X0321213Y0215629D01*
X0321213Y0217227D02*
X0423700Y0217227D01*
X0350701Y0287562D02*
X0310149Y0287562D01*
X0308551Y0289160D02*
X0348373Y0289160D01*
X0346894Y0290759D02*
X0306952Y0290759D01*
X0305354Y0292357D02*
X0345972Y0292357D01*
X0345399Y0293956D02*
X0303755Y0293956D01*
X0302157Y0295554D02*
X0345000Y0295554D01*
X0345000Y0297153D02*
X0300558Y0297153D01*
X0298960Y0298751D02*
X0345160Y0298751D01*
X0345588Y0300350D02*
X0297361Y0300350D01*
X0295763Y0301948D02*
X0346379Y0301948D01*
X0347481Y0303547D02*
X0294164Y0303547D01*
X0292566Y0305145D02*
X0349155Y0305145D01*
X0319013Y0275587D02*
X0272800Y0321800D01*
X0271957Y0319532D02*
X0037916Y0319532D01*
X0036318Y0317934D02*
X0273555Y0317934D01*
X0275154Y0316335D02*
X0034719Y0316335D01*
X0033121Y0314737D02*
X0276752Y0314737D01*
X0278351Y0313138D02*
X0031522Y0313138D01*
X0029924Y0311539D02*
X0279949Y0311539D01*
X0281548Y0309941D02*
X0028900Y0309941D01*
X0028900Y0308342D02*
X0283146Y0308342D01*
X0319013Y0275587D02*
X0319013Y0180493D01*
X0319013Y0167107D01*
X0293800Y0159800D02*
X0277800Y0159800D01*
X0274918Y0162682D01*
X0274918Y0167107D01*
X0274918Y0180493D01*
X0262320Y0180493D02*
X0262320Y0167107D01*
X0262320Y0162280D01*
X0267800Y0156800D01*
X0289800Y0156800D01*
X0292800Y0153800D01*
X0290130Y0151688D02*
X0289181Y0151688D01*
X0289419Y0153287D02*
X0288844Y0153287D01*
X0285800Y0151800D02*
X0266800Y0151800D01*
X0259170Y0159430D01*
X0259170Y0167107D01*
X0259170Y0180493D01*
X0247521Y0161279D02*
X0247391Y0161279D01*
X0247521Y0159681D02*
X0246181Y0159681D01*
X0243621Y0150090D02*
X0265399Y0150090D01*
X0257406Y0158082D02*
X0256748Y0158082D01*
X0242194Y0145294D02*
X0153076Y0145294D01*
X0154084Y0146893D02*
X0240596Y0146893D01*
X0238997Y0148491D02*
X0154603Y0148491D01*
X0123737Y0169272D02*
X0123737Y0169272D01*
X0123737Y0170870D02*
X0123737Y0170870D01*
X0120587Y0166075D02*
X0120587Y0166075D01*
X0120587Y0164476D02*
X0120587Y0164476D01*
X0140921Y0215629D02*
X0028900Y0215629D01*
X0028900Y0217227D02*
X0140378Y0217227D01*
X0140378Y0218826D02*
X0055019Y0218826D01*
X0057585Y0220424D02*
X0141030Y0220424D01*
X0142602Y0222023D02*
X0059129Y0222023D01*
X0048581Y0218826D02*
X0028900Y0218826D01*
X0028900Y0220424D02*
X0046015Y0220424D01*
X0044471Y0222023D02*
X0028900Y0222023D01*
X0028900Y0223621D02*
X0043809Y0223621D01*
X0043201Y0225220D02*
X0028900Y0225220D01*
X0028900Y0226818D02*
X0043201Y0226818D01*
X0043201Y0228417D02*
X0028900Y0228417D01*
X0028900Y0230015D02*
X0043824Y0230015D01*
X0044486Y0231614D02*
X0028900Y0231614D01*
X0028900Y0233212D02*
X0046051Y0233212D01*
X0048669Y0234811D02*
X0028900Y0234811D01*
X0028900Y0287562D02*
X0094201Y0287562D01*
X0091873Y0289160D02*
X0028900Y0289160D01*
X0028900Y0290759D02*
X0090394Y0290759D01*
X0089472Y0292357D02*
X0028900Y0292357D01*
X0028900Y0293956D02*
X0088899Y0293956D01*
X0088500Y0295554D02*
X0028900Y0295554D01*
X0028900Y0297153D02*
X0088500Y0297153D01*
X0088660Y0298751D02*
X0028900Y0298751D01*
X0028900Y0300350D02*
X0089088Y0300350D01*
X0089879Y0301948D02*
X0028900Y0301948D01*
X0028900Y0303547D02*
X0090981Y0303547D01*
X0092655Y0305145D02*
X0028900Y0305145D01*
X0028900Y0306744D02*
X0096115Y0306744D01*
X0060295Y0341911D02*
X0392305Y0341911D01*
X0393903Y0340313D02*
X0058697Y0340313D01*
X0057098Y0338714D02*
X0395502Y0338714D01*
X0397100Y0337116D02*
X0055500Y0337116D01*
X0053901Y0335517D02*
X0398699Y0335517D01*
X0400297Y0333919D02*
X0052303Y0333919D01*
X0061894Y0343510D02*
X0390706Y0343510D01*
X0389108Y0345108D02*
X0063492Y0345108D01*
X0065091Y0346707D02*
X0387509Y0346707D01*
X0385911Y0348305D02*
X0066689Y0348305D01*
X0068288Y0349904D02*
X0384312Y0349904D01*
X0382714Y0351502D02*
X0069886Y0351502D01*
X0071485Y0353101D02*
X0381115Y0353101D01*
X0379517Y0354699D02*
X0073083Y0354699D01*
X0074682Y0356298D02*
X0377918Y0356298D01*
X0376320Y0357896D02*
X0076280Y0357896D01*
X0077879Y0359495D02*
X0374721Y0359495D01*
X0373123Y0361093D02*
X0079477Y0361093D01*
X0081076Y0362692D02*
X0371524Y0362692D01*
X0369926Y0364290D02*
X0082674Y0364290D01*
X0084273Y0365889D02*
X0368327Y0365889D01*
X0366729Y0367487D02*
X0085871Y0367487D01*
X0087470Y0369086D02*
X0365130Y0369086D01*
X0363532Y0370684D02*
X0089068Y0370684D01*
X0090667Y0372283D02*
X0361933Y0372283D01*
X0360335Y0373881D02*
X0092265Y0373881D01*
X0093864Y0375480D02*
X0358736Y0375480D01*
X0357137Y0377078D02*
X0095462Y0377078D01*
X0097061Y0378677D02*
X0355539Y0378677D01*
X0353940Y0380275D02*
X0098660Y0380275D01*
X0100258Y0381874D02*
X0352342Y0381874D01*
X0350743Y0383472D02*
X0101857Y0383472D01*
X0103455Y0385071D02*
X0349145Y0385071D01*
X0347546Y0386670D02*
X0105054Y0386670D01*
X0106652Y0388268D02*
X0345948Y0388268D01*
X0344349Y0389867D02*
X0108251Y0389867D01*
X0109849Y0391465D02*
X0342751Y0391465D01*
X0341152Y0393064D02*
X0111448Y0393064D01*
X0113046Y0394662D02*
X0221777Y0394662D01*
X0221929Y0394510D02*
X0219510Y0396929D01*
X0218201Y0400090D01*
X0218201Y0403510D01*
X0219510Y0406671D01*
X0221929Y0409090D01*
X0225090Y0410399D01*
X0228510Y0410399D01*
X0231671Y0409090D01*
X0234090Y0406671D01*
X0235399Y0403510D01*
X0235399Y0400090D01*
X0234090Y0396929D01*
X0231671Y0394510D01*
X0228510Y0393201D01*
X0225090Y0393201D01*
X0221929Y0394510D01*
X0220178Y0396261D02*
X0114645Y0396261D01*
X0116243Y0397859D02*
X0219125Y0397859D01*
X0218463Y0399458D02*
X0117842Y0399458D01*
X0119440Y0401056D02*
X0218201Y0401056D01*
X0218201Y0402655D02*
X0121039Y0402655D01*
X0122637Y0404253D02*
X0218508Y0404253D01*
X0219171Y0405852D02*
X0124236Y0405852D01*
X0125834Y0407450D02*
X0220289Y0407450D01*
X0221888Y0409049D02*
X0127433Y0409049D01*
X0129031Y0410647D02*
X0323569Y0410647D01*
X0325167Y0409049D02*
X0231712Y0409049D01*
X0233311Y0407450D02*
X0326766Y0407450D01*
X0328364Y0405852D02*
X0234429Y0405852D01*
X0235092Y0404253D02*
X0329963Y0404253D01*
X0331561Y0402655D02*
X0235399Y0402655D01*
X0235399Y0401056D02*
X0333160Y0401056D01*
X0334758Y0399458D02*
X0235137Y0399458D01*
X0234475Y0397859D02*
X0336357Y0397859D01*
X0337955Y0396261D02*
X0233422Y0396261D01*
X0231823Y0394662D02*
X0339554Y0394662D01*
X0321970Y0412246D02*
X0130630Y0412246D01*
X0132228Y0413844D02*
X0320372Y0413844D01*
X0318773Y0415443D02*
X0133827Y0415443D01*
X0135425Y0417041D02*
X0317175Y0417041D01*
X0315576Y0418640D02*
X0137024Y0418640D01*
X0138622Y0420238D02*
X0313978Y0420238D01*
X0312379Y0421837D02*
X0140221Y0421837D01*
X0141819Y0423435D02*
X0310781Y0423435D01*
X0316813Y0268380D02*
X0242332Y0268380D01*
X0239272Y0233212D02*
X0239272Y0233212D01*
X0239272Y0231614D02*
X0239272Y0231614D01*
X0236123Y0231614D02*
X0236123Y0231614D01*
X0236123Y0230493D02*
X0236123Y0230493D01*
X0236123Y0230493D01*
X0236123Y0226331D01*
X0234902Y0226331D01*
X0234548Y0226425D01*
X0234194Y0226331D01*
X0232973Y0226331D01*
X0232973Y0230493D01*
X0232973Y0230493D01*
X0233339Y0230493D01*
X0236123Y0230493D01*
X0236123Y0230015D02*
X0236123Y0230015D01*
X0236123Y0228417D02*
X0236123Y0228417D01*
X0236123Y0226818D02*
X0236123Y0226818D01*
X0232973Y0226818D02*
X0232973Y0226818D01*
X0232973Y0228417D02*
X0232973Y0228417D01*
X0232973Y0230015D02*
X0232973Y0230015D01*
X0232973Y0231614D02*
X0232973Y0231614D01*
X0232973Y0233212D02*
X0232973Y0233212D01*
X0230221Y0233212D02*
X0219977Y0233212D01*
X0220009Y0233092D02*
X0219887Y0233550D01*
X0219650Y0233960D01*
X0219315Y0234295D01*
X0218904Y0234532D01*
X0218446Y0234655D01*
X0217225Y0234655D01*
X0216004Y0234655D01*
X0215650Y0234560D01*
X0215297Y0234655D01*
X0214076Y0234655D01*
X0214076Y0230493D01*
X0217225Y0230493D01*
X0217225Y0230493D01*
X0217225Y0234655D01*
X0217225Y0230493D01*
X0217225Y0230493D01*
X0214441Y0230493D01*
X0214076Y0230493D01*
X0214076Y0230493D01*
X0214076Y0230493D01*
X0214076Y0226331D01*
X0215297Y0226331D01*
X0215650Y0226425D01*
X0216004Y0226331D01*
X0217225Y0226331D01*
X0217225Y0230493D01*
X0217225Y0230493D01*
X0220009Y0230493D01*
X0220009Y0233092D01*
X0220009Y0231614D02*
X0230189Y0231614D01*
X0230189Y0230015D02*
X0220009Y0230015D01*
X0220009Y0230493D02*
X0217225Y0230493D01*
X0217225Y0230493D01*
X0217225Y0226331D01*
X0218446Y0226331D01*
X0218904Y0226453D01*
X0219315Y0226690D01*
X0219650Y0227025D01*
X0219887Y0227436D01*
X0220009Y0227894D01*
X0220009Y0230493D01*
X0220009Y0228417D02*
X0230189Y0228417D01*
X0230756Y0226818D02*
X0219443Y0226818D01*
X0217225Y0226818D02*
X0217225Y0226818D01*
X0217225Y0228417D02*
X0217225Y0228417D01*
X0217225Y0230015D02*
X0217225Y0230015D01*
X0217225Y0231614D02*
X0217225Y0231614D01*
X0217225Y0233212D02*
X0217225Y0233212D01*
X0214076Y0233212D02*
X0214076Y0233212D01*
X0214076Y0234655D02*
X0212854Y0234655D01*
X0212501Y0234560D01*
X0212147Y0234655D01*
X0210926Y0234655D01*
X0210926Y0230493D01*
X0210926Y0230493D01*
X0210926Y0234655D01*
X0209705Y0234655D01*
X0209351Y0234560D01*
X0208998Y0234655D01*
X0207776Y0234655D01*
X0206555Y0234655D01*
X0206202Y0234560D01*
X0205848Y0234655D01*
X0204627Y0234655D01*
X0204627Y0230493D01*
X0207776Y0230493D01*
X0207776Y0230493D01*
X0204992Y0230493D01*
X0204627Y0230493D01*
X0204627Y0230493D01*
X0204627Y0230493D01*
X0204627Y0226331D01*
X0205848Y0226331D01*
X0206202Y0226425D01*
X0206555Y0226331D01*
X0207776Y0226331D01*
X0207776Y0230493D01*
X0207776Y0234655D01*
X0207776Y0230493D01*
X0207776Y0230493D01*
X0207776Y0230493D01*
X0207776Y0226331D01*
X0208998Y0226331D01*
X0209351Y0226425D01*
X0209705Y0226331D01*
X0210926Y0226331D01*
X0212147Y0226331D01*
X0212501Y0226425D01*
X0212854Y0226331D01*
X0214076Y0226331D01*
X0214076Y0230493D01*
X0214076Y0230493D01*
X0214076Y0234655D01*
X0214076Y0231614D02*
X0214076Y0231614D01*
X0214075Y0230493D02*
X0210926Y0230493D01*
X0210926Y0230493D01*
X0210926Y0230493D01*
X0207777Y0230493D01*
X0207777Y0230493D01*
X0210561Y0230493D01*
X0210926Y0230493D01*
X0211291Y0230493D01*
X0214075Y0230493D01*
X0214075Y0230493D01*
X0214076Y0230015D02*
X0214076Y0230015D01*
X0214076Y0228417D02*
X0214076Y0228417D01*
X0214076Y0226818D02*
X0214076Y0226818D01*
X0210926Y0226818D02*
X0210926Y0226818D01*
X0210926Y0226331D02*
X0210926Y0230493D01*
X0210926Y0230493D01*
X0210926Y0226331D01*
X0210926Y0228417D02*
X0210926Y0228417D01*
X0210926Y0230015D02*
X0210926Y0230015D01*
X0210926Y0231614D02*
X0210926Y0231614D01*
X0210926Y0233212D02*
X0210926Y0233212D01*
X0207776Y0233212D02*
X0207776Y0233212D01*
X0207776Y0231614D02*
X0207776Y0231614D01*
X0207776Y0230015D02*
X0207776Y0230015D01*
X0207776Y0228417D02*
X0207776Y0228417D01*
X0207776Y0226818D02*
X0207776Y0226818D01*
X0204627Y0226818D02*
X0204627Y0226818D01*
X0204627Y0226331D02*
X0204627Y0230493D01*
X0204627Y0230493D01*
X0204627Y0234655D01*
X0203406Y0234655D01*
X0203052Y0234560D01*
X0202698Y0234655D01*
X0201477Y0234655D01*
X0200256Y0234655D01*
X0199902Y0234560D01*
X0199549Y0234655D01*
X0198328Y0234655D01*
X0198328Y0230493D01*
X0201477Y0230493D01*
X0201477Y0230493D01*
X0201477Y0234655D01*
X0201477Y0230493D01*
X0201477Y0230493D01*
X0198693Y0230493D01*
X0198328Y0230493D01*
X0198328Y0230493D01*
X0198327Y0230493D01*
X0198328Y0230493D01*
X0198328Y0226331D01*
X0199549Y0226331D01*
X0199902Y0226425D01*
X0200256Y0226331D01*
X0201477Y0226331D01*
X0201477Y0230493D01*
X0201477Y0230493D01*
X0204627Y0230493D01*
X0204627Y0230493D01*
X0201843Y0230493D01*
X0201477Y0230493D01*
X0201477Y0230493D01*
X0201477Y0226331D01*
X0202698Y0226331D01*
X0203052Y0226425D01*
X0203406Y0226331D01*
X0204627Y0226331D01*
X0204627Y0228417D02*
X0204627Y0228417D01*
X0204627Y0230015D02*
X0204627Y0230015D01*
X0204627Y0231614D02*
X0204627Y0231614D01*
X0204627Y0233212D02*
X0204627Y0233212D01*
X0201477Y0233212D02*
X0201477Y0233212D01*
X0201477Y0231614D02*
X0201477Y0231614D01*
X0201477Y0230015D02*
X0201477Y0230015D01*
X0201477Y0228417D02*
X0201477Y0228417D01*
X0201477Y0226818D02*
X0201477Y0226818D01*
X0198328Y0226818D02*
X0198327Y0226818D01*
X0198327Y0228417D02*
X0198328Y0228417D01*
X0198327Y0230015D02*
X0198328Y0230015D01*
X0198327Y0231614D02*
X0198328Y0231614D01*
X0198327Y0233212D02*
X0198328Y0233212D01*
X0195178Y0233212D02*
X0195178Y0233212D01*
X0195178Y0231614D02*
X0195178Y0231614D01*
X0195178Y0230015D02*
X0195178Y0230015D01*
X0195178Y0228417D02*
X0195178Y0228417D01*
X0195178Y0226818D02*
X0195178Y0226818D01*
X0192000Y0223621D02*
X0240222Y0223621D01*
X0240222Y0222023D02*
X0192000Y0222023D01*
X0192028Y0220424D02*
X0192028Y0220424D01*
X0192028Y0218826D02*
X0192028Y0218826D01*
X0192028Y0217227D02*
X0192028Y0217227D01*
X0192028Y0217107D02*
X0195178Y0217107D01*
X0198327Y0217107D01*
X0198327Y0217107D01*
X0198328Y0217107D01*
X0198328Y0217107D01*
X0201112Y0217107D01*
X0201477Y0217107D01*
X0201477Y0217107D01*
X0201477Y0217107D01*
X0201477Y0212945D01*
X0200256Y0212945D01*
X0199902Y0213040D01*
X0199549Y0212945D01*
X0198328Y0212945D01*
X0198328Y0217107D01*
X0201477Y0217107D01*
X0201477Y0212945D01*
X0202698Y0212945D01*
X0203052Y0213040D01*
X0203406Y0212945D01*
X0204627Y0212945D01*
X0205848Y0212945D01*
X0206202Y0213040D01*
X0206555Y0212945D01*
X0207776Y0212945D01*
X0207776Y0217107D01*
X0204992Y0217107D01*
X0204627Y0217107D01*
X0204627Y0217107D01*
X0207776Y0217107D01*
X0207776Y0217107D01*
X0207776Y0217107D01*
X0207776Y0221269D01*
X0206555Y0221269D01*
X0206202Y0221175D01*
X0205848Y0221269D01*
X0204627Y0221269D01*
X0204627Y0217107D01*
X0204627Y0212945D01*
X0204627Y0217107D01*
X0204627Y0217107D01*
X0204627Y0217107D01*
X0201843Y0217107D01*
X0201477Y0217107D01*
X0201477Y0221269D01*
X0200256Y0221269D01*
X0199902Y0221175D01*
X0199549Y0221269D01*
X0198328Y0221269D01*
X0198328Y0217107D01*
X0198327Y0217107D01*
X0198327Y0221269D01*
X0197106Y0221269D01*
X0196753Y0221175D01*
X0196399Y0221269D01*
X0195178Y0221269D01*
X0195178Y0217107D01*
X0192394Y0217107D01*
X0192028Y0217107D01*
X0192028Y0217107D01*
X0192028Y0215629D02*
X0192028Y0215629D01*
X0195178Y0215629D02*
X0195178Y0215629D01*
X0195178Y0217107D02*
X0195178Y0217107D01*
X0195178Y0217107D01*
X0195178Y0217227D02*
X0195178Y0217227D01*
X0195178Y0218826D02*
X0195178Y0218826D01*
X0195178Y0220424D02*
X0195178Y0220424D01*
X0198327Y0220424D02*
X0198328Y0220424D01*
X0198327Y0218826D02*
X0198328Y0218826D01*
X0198327Y0217227D02*
X0198328Y0217227D01*
X0198327Y0215629D02*
X0198328Y0215629D01*
X0198327Y0214030D02*
X0198328Y0214030D01*
X0201477Y0214030D02*
X0201477Y0214030D01*
X0201477Y0215629D02*
X0201477Y0215629D01*
X0201477Y0217107D02*
X0201477Y0217107D01*
X0201477Y0217107D01*
X0201477Y0221269D01*
X0202698Y0221269D01*
X0203052Y0221175D01*
X0203406Y0221269D01*
X0204627Y0221269D01*
X0204627Y0217107D01*
X0204627Y0217107D01*
X0201477Y0217107D01*
X0201477Y0217227D02*
X0201477Y0217227D01*
X0201477Y0218826D02*
X0201477Y0218826D01*
X0201477Y0220424D02*
X0201477Y0220424D01*
X0204627Y0220424D02*
X0204627Y0220424D01*
X0204627Y0218826D02*
X0204627Y0218826D01*
X0204627Y0217227D02*
X0204627Y0217227D01*
X0204627Y0215629D02*
X0204627Y0215629D01*
X0204627Y0214030D02*
X0204627Y0214030D01*
X0207776Y0214030D02*
X0207776Y0214030D01*
X0207776Y0212945D02*
X0207776Y0217107D01*
X0207776Y0217107D01*
X0207776Y0221269D01*
X0208998Y0221269D01*
X0209351Y0221175D01*
X0209705Y0221269D01*
X0210926Y0221269D01*
X0210926Y0217107D01*
X0210926Y0212945D01*
X0212147Y0212945D01*
X0212501Y0213040D01*
X0212854Y0212945D01*
X0214076Y0212945D01*
X0215297Y0212945D01*
X0215650Y0213040D01*
X0216004Y0212945D01*
X0217225Y0212945D01*
X0217225Y0217107D01*
X0214441Y0217107D01*
X0214076Y0217107D01*
X0214076Y0217107D01*
X0217225Y0217107D01*
X0217225Y0217107D01*
X0217225Y0217107D01*
X0217225Y0221269D01*
X0216004Y0221269D01*
X0215650Y0221175D01*
X0215297Y0221269D01*
X0214076Y0221269D01*
X0214076Y0217107D01*
X0214076Y0212945D01*
X0214076Y0217107D01*
X0214076Y0217107D01*
X0214076Y0217107D01*
X0214076Y0221269D01*
X0212854Y0221269D01*
X0212501Y0221175D01*
X0212147Y0221269D01*
X0210926Y0221269D01*
X0210926Y0217107D01*
X0210926Y0217107D01*
X0210926Y0212945D01*
X0209705Y0212945D01*
X0209351Y0213040D01*
X0208998Y0212945D01*
X0207776Y0212945D01*
X0207776Y0215629D02*
X0207776Y0215629D01*
X0207777Y0217107D02*
X0207777Y0217107D01*
X0210561Y0217107D01*
X0210926Y0217107D01*
X0210926Y0217107D01*
X0213710Y0217107D01*
X0214075Y0217107D01*
X0214075Y0217107D01*
X0210926Y0217107D01*
X0210926Y0217107D01*
X0207777Y0217107D01*
X0207776Y0217227D02*
X0207776Y0217227D01*
X0207776Y0218826D02*
X0207776Y0218826D01*
X0207776Y0220424D02*
X0207776Y0220424D01*
X0210926Y0220424D02*
X0210926Y0220424D01*
X0210926Y0218826D02*
X0210926Y0218826D01*
X0210926Y0217227D02*
X0210926Y0217227D01*
X0210926Y0217107D02*
X0210926Y0217107D01*
X0210926Y0215629D02*
X0210926Y0215629D01*
X0210926Y0214030D02*
X0210926Y0214030D01*
X0214076Y0214030D02*
X0214076Y0214030D01*
X0214076Y0215629D02*
X0214076Y0215629D01*
X0214076Y0217227D02*
X0214076Y0217227D01*
X0214076Y0218826D02*
X0214076Y0218826D01*
X0214076Y0220424D02*
X0214076Y0220424D01*
X0217225Y0220424D02*
X0217225Y0220424D01*
X0217225Y0221269D02*
X0217225Y0217107D01*
X0217225Y0217107D01*
X0217225Y0212945D01*
X0218446Y0212945D01*
X0218904Y0213068D01*
X0219315Y0213305D01*
X0219650Y0213640D01*
X0219887Y0214050D01*
X0220009Y0214508D01*
X0220009Y0217107D01*
X0217225Y0217107D01*
X0217225Y0217107D01*
X0220009Y0217107D01*
X0220009Y0219706D01*
X0219887Y0220164D01*
X0219650Y0220575D01*
X0219315Y0220910D01*
X0218904Y0221147D01*
X0218446Y0221269D01*
X0217225Y0221269D01*
X0217225Y0218826D02*
X0217225Y0218826D01*
X0217225Y0217227D02*
X0217225Y0217227D01*
X0217225Y0215629D02*
X0217225Y0215629D01*
X0217225Y0214030D02*
X0217225Y0214030D01*
X0219875Y0214030D02*
X0230323Y0214030D01*
X0230312Y0214050D02*
X0230549Y0213640D01*
X0230884Y0213305D01*
X0231294Y0213068D01*
X0231752Y0212945D01*
X0232973Y0212945D01*
X0232973Y0217107D01*
X0230189Y0217107D01*
X0230189Y0214508D01*
X0230312Y0214050D01*
X0230189Y0215629D02*
X0220009Y0215629D01*
X0220009Y0217227D02*
X0230189Y0217227D01*
X0230189Y0217107D02*
X0232973Y0217107D01*
X0232973Y0217107D01*
X0232973Y0217107D01*
X0232973Y0221269D01*
X0231752Y0221269D01*
X0231294Y0221147D01*
X0230884Y0220910D01*
X0230549Y0220575D01*
X0230312Y0220164D01*
X0230189Y0219706D01*
X0230189Y0217107D01*
X0230189Y0218826D02*
X0220009Y0218826D01*
X0219737Y0220424D02*
X0230462Y0220424D01*
X0232973Y0220424D02*
X0232973Y0220424D01*
X0232973Y0221269D02*
X0232973Y0217107D01*
X0232973Y0217107D01*
X0232973Y0212945D01*
X0234194Y0212945D01*
X0234548Y0213040D01*
X0234902Y0212945D01*
X0236123Y0212945D01*
X0236123Y0217107D01*
X0236123Y0217107D01*
X0236123Y0217107D01*
X0235757Y0217107D01*
X0232973Y0217107D01*
X0232973Y0217107D01*
X0236123Y0217107D01*
X0236123Y0217107D01*
X0236123Y0221269D01*
X0234902Y0221269D01*
X0234548Y0221175D01*
X0234194Y0221269D01*
X0232973Y0221269D01*
X0232973Y0218826D02*
X0232973Y0218826D01*
X0232973Y0217227D02*
X0232973Y0217227D01*
X0232973Y0215629D02*
X0232973Y0215629D01*
X0232973Y0214030D02*
X0232973Y0214030D01*
X0236123Y0214030D02*
X0236123Y0214030D01*
X0236123Y0215629D02*
X0236123Y0215629D01*
X0236123Y0217227D02*
X0236123Y0217227D01*
X0236123Y0218826D02*
X0236123Y0218826D01*
X0236123Y0220424D02*
X0236123Y0220424D01*
X0239272Y0220424D02*
X0239272Y0220424D01*
X0239272Y0218826D02*
X0239272Y0218826D01*
X0239272Y0217227D02*
X0239272Y0217227D01*
X0239272Y0215629D02*
X0239272Y0215629D01*
X0239272Y0214030D02*
X0239272Y0214030D01*
X0251871Y0214030D02*
X0251871Y0214030D01*
X0251871Y0215629D02*
X0251871Y0215629D01*
X0251871Y0217227D02*
X0251871Y0217227D01*
X0251871Y0218826D02*
X0251871Y0218826D01*
X0251871Y0220424D02*
X0251871Y0220424D01*
X0255020Y0220424D02*
X0255021Y0220424D01*
X0255020Y0218826D02*
X0255021Y0218826D01*
X0255020Y0217227D02*
X0255021Y0217227D01*
X0255020Y0215629D02*
X0255021Y0215629D01*
X0255020Y0214030D02*
X0255021Y0214030D01*
X0258170Y0214030D02*
X0258170Y0214030D01*
X0258170Y0215629D02*
X0258170Y0215629D01*
X0258170Y0217107D02*
X0258170Y0217107D01*
X0260954Y0217107D01*
X0261320Y0217107D01*
X0261320Y0217107D01*
X0258170Y0217107D01*
X0258170Y0221269D01*
X0258170Y0217107D01*
X0258170Y0217107D01*
X0258170Y0217227D02*
X0258170Y0217227D01*
X0258170Y0218826D02*
X0258170Y0218826D01*
X0258170Y0220424D02*
X0258170Y0220424D01*
X0261320Y0220424D02*
X0261320Y0220424D01*
X0261320Y0218826D02*
X0261320Y0218826D01*
X0261320Y0217227D02*
X0261320Y0217227D01*
X0261320Y0215629D02*
X0261320Y0215629D01*
X0261320Y0214030D02*
X0261320Y0214030D01*
X0264469Y0214030D02*
X0264469Y0214030D01*
X0264469Y0212945D02*
X0264469Y0217107D01*
X0264469Y0217107D01*
X0264469Y0221269D01*
X0265691Y0221269D01*
X0266044Y0221175D01*
X0266398Y0221269D01*
X0267619Y0221269D01*
X0267619Y0217107D01*
X0267619Y0217107D01*
X0270403Y0217107D01*
X0270768Y0217107D01*
X0270768Y0217107D01*
X0267619Y0217107D01*
X0267619Y0212945D01*
X0268840Y0212945D01*
X0269194Y0213040D01*
X0269547Y0212945D01*
X0270768Y0212945D01*
X0270768Y0217107D01*
X0270769Y0217107D01*
X0270769Y0217107D01*
X0271134Y0217107D01*
X0273918Y0217107D01*
X0273918Y0217107D01*
X0273918Y0217107D01*
X0273918Y0212945D01*
X0272697Y0212945D01*
X0272343Y0213040D01*
X0271990Y0212945D01*
X0270769Y0212945D01*
X0270769Y0217107D01*
X0273918Y0217107D01*
X0273918Y0212945D01*
X0275139Y0212945D01*
X0275493Y0213040D01*
X0275846Y0212945D01*
X0277068Y0212945D01*
X0278289Y0212945D01*
X0278643Y0213040D01*
X0278996Y0212945D01*
X0280217Y0212945D01*
X0280217Y0217107D01*
X0277433Y0217107D01*
X0277068Y0217107D01*
X0277068Y0217107D01*
X0280217Y0217107D01*
X0280217Y0217107D01*
X0280217Y0217107D01*
X0280217Y0221269D01*
X0278996Y0221269D01*
X0278643Y0221175D01*
X0278289Y0221269D01*
X0277068Y0221269D01*
X0277068Y0217107D01*
X0277068Y0212945D01*
X0277068Y0217107D01*
X0277068Y0217107D01*
X0277068Y0217107D01*
X0277068Y0221269D01*
X0275846Y0221269D01*
X0275493Y0221175D01*
X0275139Y0221269D01*
X0273918Y0221269D01*
X0272697Y0221269D01*
X0272343Y0221175D01*
X0271990Y0221269D01*
X0270769Y0221269D01*
X0270769Y0217107D01*
X0270768Y0217107D01*
X0270768Y0221269D01*
X0269547Y0221269D01*
X0269194Y0221175D01*
X0268840Y0221269D01*
X0267619Y0221269D01*
X0267619Y0217107D01*
X0267619Y0217107D01*
X0267619Y0212945D01*
X0266398Y0212945D01*
X0266044Y0213040D01*
X0265691Y0212945D01*
X0264469Y0212945D01*
X0264469Y0215629D02*
X0264469Y0215629D01*
X0264469Y0217107D02*
X0264469Y0217107D01*
X0264835Y0217107D01*
X0267619Y0217107D01*
X0267619Y0217107D01*
X0267619Y0217107D01*
X0264469Y0217107D01*
X0264469Y0217227D02*
X0264469Y0217227D01*
X0264469Y0218826D02*
X0264469Y0218826D01*
X0264469Y0220424D02*
X0264469Y0220424D01*
X0267619Y0220424D02*
X0267619Y0220424D01*
X0267619Y0218826D02*
X0267619Y0218826D01*
X0267619Y0217227D02*
X0267619Y0217227D01*
X0267619Y0215629D02*
X0267619Y0215629D01*
X0267619Y0214030D02*
X0267619Y0214030D01*
X0270768Y0214030D02*
X0270769Y0214030D01*
X0270768Y0215629D02*
X0270769Y0215629D01*
X0270768Y0217227D02*
X0270769Y0217227D01*
X0270768Y0218826D02*
X0270769Y0218826D01*
X0270768Y0220424D02*
X0270769Y0220424D01*
X0273918Y0220424D02*
X0273918Y0220424D01*
X0273918Y0221269D02*
X0273918Y0217107D01*
X0273918Y0217107D01*
X0273918Y0217107D01*
X0274283Y0217107D01*
X0277068Y0217107D01*
X0277068Y0217107D01*
X0273918Y0217107D01*
X0273918Y0221269D01*
X0273918Y0218826D02*
X0273918Y0218826D01*
X0273918Y0217227D02*
X0273918Y0217227D01*
X0273918Y0215629D02*
X0273918Y0215629D01*
X0273918Y0214030D02*
X0273918Y0214030D01*
X0277068Y0214030D02*
X0277068Y0214030D01*
X0277068Y0215629D02*
X0277068Y0215629D01*
X0277068Y0217227D02*
X0277068Y0217227D01*
X0277068Y0218826D02*
X0277068Y0218826D01*
X0277068Y0220424D02*
X0277068Y0220424D01*
X0280217Y0220424D02*
X0280217Y0220424D01*
X0280217Y0221269D02*
X0280217Y0217107D01*
X0280217Y0217107D01*
X0280217Y0212945D01*
X0281439Y0212945D01*
X0281792Y0213040D01*
X0282146Y0212945D01*
X0283367Y0212945D01*
X0283367Y0217107D01*
X0283002Y0217107D01*
X0280217Y0217107D01*
X0280217Y0217107D01*
X0283367Y0217107D01*
X0283367Y0217107D01*
X0283367Y0217107D01*
X0283367Y0221269D01*
X0282146Y0221269D01*
X0281792Y0221175D01*
X0281439Y0221269D01*
X0280217Y0221269D01*
X0280217Y0218826D02*
X0280217Y0218826D01*
X0280217Y0217227D02*
X0280217Y0217227D01*
X0280217Y0215629D02*
X0280217Y0215629D01*
X0280217Y0214030D02*
X0280217Y0214030D01*
X0283367Y0214030D02*
X0283367Y0214030D01*
X0283367Y0215629D02*
X0283367Y0215629D01*
X0283367Y0217227D02*
X0283367Y0217227D01*
X0283367Y0218826D02*
X0283367Y0218826D01*
X0283367Y0220424D02*
X0283367Y0220424D01*
X0283367Y0226818D02*
X0283367Y0226818D01*
X0296192Y0226818D02*
X0316813Y0226818D01*
X0316813Y0225220D02*
X0297029Y0225220D01*
X0297222Y0223621D02*
X0316813Y0223621D01*
X0316813Y0222023D02*
X0296881Y0222023D01*
X0295835Y0220424D02*
X0316813Y0220424D01*
X0292396Y0162878D02*
X0277833Y0162878D01*
X0228589Y0127711D02*
X0217609Y0127711D01*
X0217609Y0126112D02*
X0228589Y0126112D01*
X0228589Y0124514D02*
X0217609Y0124514D01*
X0217609Y0122915D02*
X0228589Y0122915D01*
X0228589Y0114923D02*
X0217609Y0114923D01*
X0217609Y0113324D02*
X0228589Y0113324D01*
X0228589Y0111726D02*
X0217609Y0111726D01*
X0217609Y0110127D02*
X0228589Y0110127D01*
X0229225Y0108529D02*
X0216973Y0108529D01*
X0195178Y0214030D02*
X0195178Y0214030D01*
X0189800Y0225220D02*
X0149377Y0225220D01*
X0151084Y0226331D02*
X0151084Y0230493D01*
X0154233Y0230493D01*
X0154233Y0234655D01*
X0153012Y0234655D01*
X0152658Y0234560D01*
X0152305Y0234655D01*
X0151084Y0234655D01*
X0151084Y0230493D01*
X0151084Y0230493D01*
X0153868Y0230493D01*
X0154233Y0230493D01*
X0154233Y0230493D01*
X0154233Y0230493D01*
X0154233Y0234655D01*
X0155454Y0234655D01*
X0155808Y0234560D01*
X0156161Y0234655D01*
X0157383Y0234655D01*
X0157383Y0230493D01*
X0160532Y0230493D01*
X0160532Y0230493D01*
X0157748Y0230493D01*
X0157383Y0230493D01*
X0157383Y0230493D01*
X0157383Y0230493D01*
X0156800Y0230493D01*
X0156800Y0227800D01*
X0157383Y0228417D02*
X0157383Y0228417D01*
X0157383Y0230015D02*
X0157383Y0230015D01*
X0157383Y0230493D02*
X0157383Y0226331D01*
X0158604Y0226331D01*
X0158957Y0226425D01*
X0159311Y0226331D01*
X0160532Y0226331D01*
X0160532Y0230493D01*
X0160532Y0234655D01*
X0159311Y0234655D01*
X0158957Y0234560D01*
X0158604Y0234655D01*
X0157383Y0234655D01*
X0157383Y0230493D01*
X0157383Y0230493D01*
X0157383Y0226331D01*
X0156161Y0226331D01*
X0155808Y0226425D01*
X0155454Y0226331D01*
X0154233Y0226331D01*
X0154233Y0230493D01*
X0157383Y0230493D01*
X0157383Y0230493D01*
X0154598Y0230493D01*
X0154233Y0230493D01*
X0154233Y0230493D01*
X0154233Y0230493D01*
X0154233Y0226331D01*
X0153012Y0226331D01*
X0152658Y0226425D01*
X0152305Y0226331D01*
X0151084Y0226331D01*
X0151083Y0226818D02*
X0151084Y0226818D01*
X0151083Y0228417D02*
X0151084Y0228417D01*
X0151083Y0230015D02*
X0151084Y0230015D01*
X0151083Y0230493D02*
X0151084Y0230493D01*
X0151083Y0230493D01*
X0151083Y0231614D02*
X0151084Y0231614D01*
X0151083Y0233212D02*
X0151084Y0233212D01*
X0149244Y0234811D02*
X0189800Y0234811D01*
X0188879Y0234655D02*
X0188879Y0230493D01*
X0188879Y0230493D01*
X0188879Y0226331D01*
X0187658Y0226331D01*
X0187304Y0226425D01*
X0186950Y0226331D01*
X0185729Y0226331D01*
X0185729Y0230493D01*
X0185729Y0230493D01*
X0182580Y0230493D01*
X0182580Y0230493D01*
X0182945Y0230493D01*
X0185729Y0230493D01*
X0185729Y0234655D01*
X0184508Y0234655D01*
X0184154Y0234560D01*
X0183801Y0234655D01*
X0182580Y0234655D01*
X0182580Y0230493D01*
X0182579Y0230493D01*
X0182579Y0230493D01*
X0179430Y0230493D01*
X0179430Y0230493D01*
X0179430Y0234655D01*
X0180651Y0234655D01*
X0181005Y0234560D01*
X0181358Y0234655D01*
X0182579Y0234655D01*
X0182579Y0230493D01*
X0179795Y0230493D01*
X0179430Y0230493D01*
X0179430Y0230493D01*
X0179430Y0234655D01*
X0178209Y0234655D01*
X0177855Y0234560D01*
X0177502Y0234655D01*
X0176280Y0234655D01*
X0175059Y0234655D01*
X0174706Y0234560D01*
X0174352Y0234655D01*
X0173131Y0234655D01*
X0173131Y0230493D01*
X0176280Y0230493D01*
X0176280Y0230493D01*
X0173496Y0230493D01*
X0173131Y0230493D01*
X0173131Y0230493D01*
X0173131Y0230493D01*
X0173131Y0226331D01*
X0174352Y0226331D01*
X0174705Y0226425D01*
X0175059Y0226331D01*
X0176280Y0226331D01*
X0176280Y0230493D01*
X0176280Y0234655D01*
X0176280Y0230493D01*
X0176280Y0230493D01*
X0176280Y0230493D01*
X0176280Y0226331D01*
X0177502Y0226331D01*
X0177855Y0226425D01*
X0178209Y0226331D01*
X0179430Y0226331D01*
X0180651Y0226331D01*
X0181005Y0226425D01*
X0181358Y0226331D01*
X0182579Y0226331D01*
X0182579Y0230493D01*
X0182580Y0230493D01*
X0182580Y0226331D01*
X0183801Y0226331D01*
X0184154Y0226425D01*
X0184508Y0226331D01*
X0185729Y0226331D01*
X0185729Y0230493D01*
X0185729Y0230493D01*
X0185729Y0234655D01*
X0186950Y0234655D01*
X0187304Y0234560D01*
X0187658Y0234655D01*
X0188879Y0234655D01*
X0188879Y0233212D02*
X0188879Y0233212D01*
X0188879Y0231614D02*
X0188879Y0231614D01*
X0188879Y0230493D02*
X0185729Y0230493D01*
X0185729Y0230493D01*
X0185729Y0230493D01*
X0188513Y0230493D01*
X0188879Y0230493D01*
X0188879Y0230493D01*
X0188879Y0230015D02*
X0188879Y0230015D01*
X0188879Y0228417D02*
X0188879Y0228417D01*
X0188879Y0226818D02*
X0188879Y0226818D01*
X0185729Y0226818D02*
X0185729Y0226818D01*
X0185729Y0228417D02*
X0185729Y0228417D01*
X0185729Y0230015D02*
X0185729Y0230015D01*
X0185729Y0231614D02*
X0185729Y0231614D01*
X0185729Y0233212D02*
X0185729Y0233212D01*
X0182580Y0233212D02*
X0182579Y0233212D01*
X0182579Y0231614D02*
X0182580Y0231614D01*
X0182579Y0230015D02*
X0182580Y0230015D01*
X0182579Y0228417D02*
X0182580Y0228417D01*
X0182579Y0226818D02*
X0182580Y0226818D01*
X0179430Y0226818D02*
X0179430Y0226818D01*
X0179430Y0226331D02*
X0179430Y0230493D01*
X0179430Y0230493D01*
X0176280Y0230493D01*
X0176280Y0230493D01*
X0179065Y0230493D01*
X0179430Y0230493D01*
X0179430Y0230493D01*
X0179430Y0226331D01*
X0179430Y0228417D02*
X0179430Y0228417D01*
X0179430Y0230015D02*
X0179430Y0230015D01*
X0179430Y0231614D02*
X0179430Y0231614D01*
X0179430Y0233212D02*
X0179430Y0233212D01*
X0176280Y0233212D02*
X0176280Y0233212D01*
X0176280Y0231614D02*
X0176280Y0231614D01*
X0176280Y0230015D02*
X0176280Y0230015D01*
X0176280Y0228417D02*
X0176280Y0228417D01*
X0176280Y0226818D02*
X0176280Y0226818D01*
X0173131Y0226818D02*
X0173131Y0226818D01*
X0173131Y0226331D02*
X0173131Y0230493D01*
X0173131Y0230493D01*
X0173131Y0234655D01*
X0171909Y0234655D01*
X0171556Y0234560D01*
X0171202Y0234655D01*
X0169981Y0234655D01*
X0168760Y0234655D01*
X0168406Y0234560D01*
X0168053Y0234655D01*
X0166832Y0234655D01*
X0166832Y0230493D01*
X0169981Y0230493D01*
X0169981Y0234655D01*
X0169981Y0230493D01*
X0169981Y0230493D01*
X0169981Y0230493D01*
X0167197Y0230493D01*
X0166832Y0230493D01*
X0166832Y0230493D01*
X0166831Y0230493D01*
X0166831Y0230493D01*
X0163682Y0230493D01*
X0163682Y0230493D01*
X0163682Y0230493D01*
X0163682Y0234655D01*
X0164903Y0234655D01*
X0165257Y0234560D01*
X0165610Y0234655D01*
X0166831Y0234655D01*
X0166831Y0230493D01*
X0166466Y0230493D01*
X0163682Y0230493D01*
X0163682Y0234655D01*
X0162461Y0234655D01*
X0162107Y0234560D01*
X0161754Y0234655D01*
X0160532Y0234655D01*
X0160532Y0230493D01*
X0160532Y0230493D01*
X0160532Y0230493D01*
X0160532Y0226331D01*
X0161754Y0226331D01*
X0162107Y0226425D01*
X0162461Y0226331D01*
X0163682Y0226331D01*
X0164903Y0226331D01*
X0165257Y0226425D01*
X0165610Y0226331D01*
X0166831Y0226331D01*
X0166831Y0230493D01*
X0166832Y0230493D01*
X0166832Y0226331D01*
X0168053Y0226331D01*
X0168406Y0226425D01*
X0168760Y0226331D01*
X0169981Y0226331D01*
X0169981Y0230493D01*
X0173131Y0230493D01*
X0173131Y0230493D01*
X0170346Y0230493D01*
X0169981Y0230493D01*
X0169981Y0230493D01*
X0169981Y0230493D01*
X0169981Y0226331D01*
X0171202Y0226331D01*
X0171556Y0226425D01*
X0171909Y0226331D01*
X0173131Y0226331D01*
X0173131Y0228417D02*
X0173131Y0228417D01*
X0173131Y0230015D02*
X0173131Y0230015D01*
X0173131Y0231614D02*
X0173131Y0231614D01*
X0173131Y0233212D02*
X0173131Y0233212D01*
X0169981Y0233212D02*
X0169981Y0233212D01*
X0169981Y0231614D02*
X0169981Y0231614D01*
X0169981Y0230015D02*
X0169981Y0230015D01*
X0169981Y0228417D02*
X0169981Y0228417D01*
X0169981Y0226818D02*
X0169981Y0226818D01*
X0166832Y0226818D02*
X0166831Y0226818D01*
X0166831Y0228417D02*
X0166832Y0228417D01*
X0166831Y0230015D02*
X0166832Y0230015D01*
X0166831Y0231614D02*
X0166832Y0231614D01*
X0166831Y0233212D02*
X0166832Y0233212D01*
X0163682Y0233212D02*
X0163682Y0233212D01*
X0163682Y0231614D02*
X0163682Y0231614D01*
X0163682Y0230493D02*
X0160532Y0230493D01*
X0160532Y0230493D01*
X0160898Y0230493D01*
X0163682Y0230493D01*
X0163682Y0226331D01*
X0163682Y0230493D01*
X0163682Y0230493D01*
X0163682Y0230493D01*
X0163682Y0230015D02*
X0163682Y0230015D01*
X0163682Y0228417D02*
X0163682Y0228417D01*
X0163682Y0226818D02*
X0163682Y0226818D01*
X0160532Y0226818D02*
X0160532Y0226818D01*
X0160532Y0228417D02*
X0160532Y0228417D01*
X0160532Y0230015D02*
X0160532Y0230015D01*
X0160532Y0231614D02*
X0160532Y0231614D01*
X0160532Y0233212D02*
X0160532Y0233212D01*
X0157383Y0233212D02*
X0157383Y0233212D01*
X0157383Y0231614D02*
X0157383Y0231614D01*
X0154233Y0231614D02*
X0154233Y0231614D01*
X0154233Y0233212D02*
X0154233Y0233212D01*
X0154233Y0230015D02*
X0154233Y0230015D01*
X0154233Y0228417D02*
X0154233Y0228417D01*
X0154233Y0226818D02*
X0154233Y0226818D01*
X0157383Y0226818D02*
X0157383Y0226818D01*
X0149222Y0236409D02*
X0189800Y0236409D01*
X0189800Y0238008D02*
X0149200Y0238008D01*
X0149178Y0239606D02*
X0189800Y0239606D01*
X0189800Y0241205D02*
X0149155Y0241205D01*
X0149133Y0242803D02*
X0189800Y0242803D01*
X0189800Y0244402D02*
X0149111Y0244402D01*
X0149089Y0246001D02*
X0189800Y0246001D01*
X0189800Y0247599D02*
X0149067Y0247599D01*
X0149044Y0249198D02*
X0189800Y0249198D01*
X0189800Y0250796D02*
X0149022Y0250796D01*
X0149000Y0252395D02*
X0189800Y0252395D01*
X0189800Y0253993D02*
X0148978Y0253993D01*
X0148956Y0255592D02*
X0189800Y0255592D01*
X0189800Y0257190D02*
X0148933Y0257190D01*
X0148911Y0258789D02*
X0189800Y0258789D01*
X0189800Y0260387D02*
X0148889Y0260387D01*
X0148867Y0261986D02*
X0189800Y0261986D01*
X0189800Y0263584D02*
X0148845Y0263584D01*
X0148822Y0265183D02*
X0189800Y0265183D01*
X0189800Y0266781D02*
X0148800Y0266781D01*
X0236123Y0233212D02*
X0236123Y0233212D01*
D12*
X0237800Y0242800D03*
X0237800Y0251800D03*
X0237800Y0261800D03*
X0226800Y0261800D03*
X0226800Y0251800D03*
X0226800Y0242800D03*
X0216800Y0242800D03*
X0216800Y0251800D03*
X0207800Y0251800D03*
X0207800Y0242800D03*
X0198800Y0242800D03*
X0198800Y0251800D03*
X0216800Y0261800D03*
X0210800Y0223800D03*
X0199800Y0223800D03*
X0198800Y0204800D03*
X0207800Y0204800D03*
X0216800Y0204800D03*
X0226800Y0204800D03*
X0236800Y0204800D03*
X0253800Y0190800D03*
X0253800Y0159800D03*
X0248800Y0155800D03*
X0242800Y0159800D03*
X0231800Y0153800D03*
X0196800Y0185800D03*
X0186800Y0173800D03*
X0163800Y0173800D03*
X0145800Y0188800D03*
X0143800Y0173800D03*
X0141800Y0155800D03*
X0145800Y0151800D03*
X0150800Y0147800D03*
X0169800Y0145800D03*
X0125800Y0160800D03*
X0162800Y0203800D03*
X0179800Y0203800D03*
X0176800Y0223800D03*
X0159800Y0223800D03*
X0159800Y0241800D03*
X0159800Y0251800D03*
X0159800Y0261800D03*
X0176800Y0261800D03*
X0176800Y0252800D03*
X0176800Y0242800D03*
X0225800Y0223800D03*
X0288800Y0205800D03*
X0289800Y0242800D03*
X0290800Y0256800D03*
X0296800Y0307800D03*
X0296800Y0338800D03*
X0335800Y0372800D03*
X0294800Y0392800D03*
X0344800Y0326800D03*
X0383800Y0320800D03*
X0381800Y0278800D03*
X0353800Y0255800D03*
X0387800Y0200800D03*
X0404800Y0144800D03*
X0367800Y0096800D03*
X0292800Y0153800D03*
X0285800Y0151800D03*
X0284800Y0143800D03*
X0293800Y0159800D03*
X0276800Y0049800D03*
X0177800Y0055800D03*
X0090800Y0099800D03*
X0059800Y0184800D03*
X0101800Y0233800D03*
X0055800Y0274800D03*
X0115800Y0328800D03*
X0080800Y0338800D03*
X0135800Y0372800D03*
X0156800Y0389800D03*
X0153800Y0336800D03*
M02*
