G75*
%MOIN*%
%OFA0B0*%
%FSLAX25Y25*%
%IPPOS*%
%LPD*%
%AMOC8*
5,1,8,0,0,1.08239X$1,22.5*
%
%ADD10C,0.01200*%
%ADD11C,0.00400*%
D10*
X0105705Y0108599D02*
X0102364Y0111939D01*
X0097353Y0116950D02*
X0094012Y0120291D01*
X0089001Y0125302D02*
X0082320Y0131983D01*
X0079258Y0128921D01*
X0073133Y0122796D02*
X0070071Y0119734D01*
X0113500Y0076305D01*
X0116562Y0079368D01*
X0122686Y0085492D02*
X0125749Y0088555D01*
X0119067Y0095236D01*
X0114056Y0100247D02*
X0110716Y0103588D01*
X0150328Y0078611D02*
X0150328Y0074280D01*
X0150328Y0078611D02*
X0159776Y0078611D01*
X0166863Y0078611D02*
X0171587Y0078611D01*
X0178674Y0078611D02*
X0183398Y0078611D01*
X0190485Y0078611D02*
X0195209Y0078611D01*
X0202296Y0078611D02*
X0211745Y0078611D01*
X0211745Y0074280D01*
X0211745Y0065619D02*
X0211745Y0061288D01*
X0150328Y0061288D01*
X0150328Y0065619D01*
X0241328Y0065619D02*
X0241328Y0061288D01*
X0302745Y0061288D01*
X0302745Y0065619D01*
X0302745Y0074280D02*
X0302745Y0078611D01*
X0293296Y0078611D01*
X0286209Y0078611D02*
X0281485Y0078611D01*
X0274398Y0078611D02*
X0269674Y0078611D01*
X0262587Y0078611D02*
X0257863Y0078611D01*
X0250776Y0078611D02*
X0241328Y0078611D01*
X0241328Y0074280D01*
X0326617Y0087320D02*
X0329679Y0084258D01*
X0326617Y0087320D02*
X0333298Y0094001D01*
X0338309Y0099012D02*
X0341650Y0102353D01*
X0346661Y0107364D02*
X0350001Y0110705D01*
X0355012Y0115716D02*
X0358353Y0119056D01*
X0363364Y0124067D02*
X0370045Y0130749D01*
X0373108Y0127686D01*
X0379232Y0121562D02*
X0382295Y0118500D01*
X0338866Y0075071D01*
X0335804Y0078133D01*
X0370989Y0155328D02*
X0375320Y0155328D01*
X0370989Y0155328D02*
X0370989Y0164776D01*
X0370989Y0171863D02*
X0370989Y0176587D01*
X0370989Y0183674D02*
X0370989Y0188398D01*
X0370989Y0195485D02*
X0370989Y0200209D01*
X0370989Y0207296D02*
X0370989Y0216745D01*
X0375320Y0216745D01*
X0383981Y0216745D02*
X0388312Y0216745D01*
X0388312Y0155328D01*
X0383981Y0155328D01*
X0311745Y0251288D02*
X0311745Y0255619D01*
X0311745Y0251288D02*
X0250328Y0251288D01*
X0250328Y0255619D01*
X0250328Y0264280D02*
X0250328Y0268611D01*
X0259776Y0268611D01*
X0266863Y0268611D02*
X0271587Y0268611D01*
X0278674Y0268611D02*
X0283398Y0268611D01*
X0290485Y0268611D02*
X0295209Y0268611D01*
X0302296Y0268611D02*
X0311745Y0268611D01*
X0311745Y0264280D01*
X0311745Y0296288D02*
X0311745Y0300619D01*
X0311745Y0296288D02*
X0250328Y0296288D01*
X0250328Y0300619D01*
X0250328Y0309280D02*
X0250328Y0313611D01*
X0259776Y0313611D01*
X0266863Y0313611D02*
X0271587Y0313611D01*
X0278674Y0313611D02*
X0283398Y0313611D01*
X0290485Y0313611D02*
X0295209Y0313611D01*
X0302296Y0313611D02*
X0311745Y0313611D01*
X0311745Y0309280D01*
X0311745Y0341288D02*
X0311745Y0345619D01*
X0311745Y0341288D02*
X0250328Y0341288D01*
X0250328Y0345619D01*
X0250328Y0354280D02*
X0250328Y0358611D01*
X0259776Y0358611D01*
X0266863Y0358611D02*
X0271587Y0358611D01*
X0278674Y0358611D02*
X0283398Y0358611D01*
X0290485Y0358611D02*
X0295209Y0358611D01*
X0302296Y0358611D02*
X0311745Y0358611D01*
X0311745Y0354280D01*
X0311745Y0386288D02*
X0311745Y0390619D01*
X0311745Y0386288D02*
X0250328Y0386288D01*
X0250328Y0390619D01*
X0250328Y0399280D02*
X0250328Y0403611D01*
X0259776Y0403611D01*
X0266863Y0403611D02*
X0271587Y0403611D01*
X0278674Y0403611D02*
X0283398Y0403611D01*
X0290485Y0403611D02*
X0295209Y0403611D01*
X0302296Y0403611D02*
X0311745Y0403611D01*
X0311745Y0399280D01*
X0201745Y0399280D02*
X0201745Y0403611D01*
X0192296Y0403611D01*
X0185209Y0403611D02*
X0180485Y0403611D01*
X0173398Y0403611D02*
X0168674Y0403611D01*
X0161587Y0403611D02*
X0156863Y0403611D01*
X0149776Y0403611D02*
X0140328Y0403611D01*
X0140328Y0399280D01*
X0140328Y0390619D02*
X0140328Y0386288D01*
X0201745Y0386288D01*
X0201745Y0390619D01*
X0201745Y0358611D02*
X0192296Y0358611D01*
X0185209Y0358611D02*
X0180485Y0358611D01*
X0173398Y0358611D02*
X0168674Y0358611D01*
X0161587Y0358611D02*
X0156863Y0358611D01*
X0149776Y0358611D02*
X0140328Y0358611D01*
X0140328Y0354280D01*
X0140328Y0345619D02*
X0140328Y0341288D01*
X0201745Y0341288D01*
X0201745Y0345619D01*
X0201745Y0354280D02*
X0201745Y0358611D01*
X0201745Y0313611D02*
X0192296Y0313611D01*
X0185209Y0313611D02*
X0180485Y0313611D01*
X0173398Y0313611D02*
X0168674Y0313611D01*
X0161587Y0313611D02*
X0156863Y0313611D01*
X0149776Y0313611D02*
X0140328Y0313611D01*
X0140328Y0309280D01*
X0140328Y0300619D02*
X0140328Y0296288D01*
X0201745Y0296288D01*
X0201745Y0300619D01*
X0201745Y0309280D02*
X0201745Y0313611D01*
X0201745Y0268611D02*
X0192296Y0268611D01*
X0185209Y0268611D02*
X0180485Y0268611D01*
X0173398Y0268611D02*
X0168674Y0268611D01*
X0161587Y0268611D02*
X0156863Y0268611D01*
X0149776Y0268611D02*
X0140328Y0268611D01*
X0140328Y0264280D01*
X0140328Y0255619D02*
X0140328Y0251288D01*
X0201745Y0251288D01*
X0201745Y0255619D01*
X0201745Y0264280D02*
X0201745Y0268611D01*
D11*
X0202726Y0280622D02*
X0202726Y0285226D01*
X0201191Y0283691D01*
X0199657Y0285226D01*
X0199657Y0280622D01*
X0198122Y0280622D02*
X0198122Y0283691D01*
X0196587Y0285226D01*
X0195053Y0283691D01*
X0195053Y0280622D01*
X0193518Y0281389D02*
X0192751Y0280622D01*
X0191216Y0280622D01*
X0190449Y0281389D01*
X0190449Y0282924D01*
X0191216Y0283691D01*
X0191984Y0283691D01*
X0193518Y0282924D01*
X0193518Y0285226D01*
X0190449Y0285226D01*
X0188914Y0285226D02*
X0185845Y0280622D01*
X0185845Y0285226D01*
X0188914Y0285226D02*
X0188914Y0280622D01*
X0184310Y0279855D02*
X0181241Y0279855D01*
X0179706Y0281389D02*
X0178939Y0280622D01*
X0177404Y0280622D01*
X0176637Y0281389D01*
X0175102Y0280622D02*
X0175102Y0283691D01*
X0173568Y0285226D01*
X0172033Y0283691D01*
X0172033Y0280622D01*
X0170499Y0280622D02*
X0170499Y0285226D01*
X0168964Y0283691D01*
X0167429Y0285226D01*
X0167429Y0280622D01*
X0165895Y0279855D02*
X0162825Y0279855D01*
X0161291Y0280622D02*
X0161291Y0285226D01*
X0158989Y0285226D01*
X0158221Y0284459D01*
X0158221Y0282924D01*
X0158989Y0282157D01*
X0161291Y0282157D01*
X0156687Y0281389D02*
X0155919Y0280622D01*
X0154385Y0280622D01*
X0153617Y0281389D01*
X0153617Y0284459D01*
X0154385Y0285226D01*
X0155919Y0285226D01*
X0156687Y0284459D01*
X0156687Y0281389D01*
X0152083Y0280622D02*
X0150548Y0282157D01*
X0149014Y0280622D01*
X0149014Y0285226D01*
X0152083Y0285226D02*
X0152083Y0280622D01*
X0172033Y0282924D02*
X0175102Y0282924D01*
X0176637Y0284459D02*
X0177404Y0285226D01*
X0178939Y0285226D01*
X0179706Y0284459D01*
X0179706Y0281389D01*
X0195053Y0282924D02*
X0198122Y0282924D01*
X0198122Y0325622D02*
X0198122Y0328691D01*
X0196587Y0330226D01*
X0195053Y0328691D01*
X0195053Y0325622D01*
X0193518Y0327157D02*
X0191984Y0325622D01*
X0190449Y0327157D01*
X0190449Y0330226D01*
X0193518Y0330226D02*
X0193518Y0327157D01*
X0195053Y0327924D02*
X0198122Y0327924D01*
X0199657Y0325622D02*
X0199657Y0330226D01*
X0202726Y0330226D02*
X0199657Y0325622D01*
X0202726Y0325622D02*
X0202726Y0330226D01*
X0188914Y0324855D02*
X0185845Y0324855D01*
X0184310Y0325622D02*
X0184310Y0330226D01*
X0182008Y0330226D01*
X0181241Y0329459D01*
X0181241Y0327924D01*
X0182008Y0327157D01*
X0184310Y0327157D01*
X0179706Y0326389D02*
X0178939Y0325622D01*
X0177404Y0325622D01*
X0176637Y0326389D01*
X0176637Y0329459D01*
X0177404Y0330226D01*
X0178939Y0330226D01*
X0179706Y0329459D01*
X0179706Y0326389D01*
X0175102Y0325622D02*
X0173568Y0327157D01*
X0172033Y0325622D01*
X0172033Y0330226D01*
X0170499Y0330226D02*
X0170499Y0325622D01*
X0167429Y0325622D01*
X0165895Y0325622D02*
X0165895Y0330226D01*
X0163593Y0330226D01*
X0162825Y0329459D01*
X0162825Y0327924D01*
X0163593Y0327157D01*
X0165895Y0327157D01*
X0164360Y0327157D02*
X0162825Y0325622D01*
X0167429Y0330226D02*
X0170499Y0330226D01*
X0170499Y0327924D02*
X0168964Y0327924D01*
X0175102Y0330226D02*
X0175102Y0325622D01*
X0175102Y0370622D02*
X0173568Y0372157D01*
X0172033Y0370622D01*
X0172033Y0375226D01*
X0170499Y0375226D02*
X0170499Y0370622D01*
X0167429Y0370622D01*
X0165895Y0370622D02*
X0165895Y0375226D01*
X0163593Y0375226D01*
X0162825Y0374459D01*
X0162825Y0372924D01*
X0163593Y0372157D01*
X0165895Y0372157D01*
X0164360Y0372157D02*
X0162825Y0370622D01*
X0167429Y0375226D02*
X0170499Y0375226D01*
X0170499Y0372924D02*
X0168964Y0372924D01*
X0175102Y0375226D02*
X0175102Y0370622D01*
X0176637Y0371389D02*
X0176637Y0374459D01*
X0177404Y0375226D01*
X0178939Y0375226D01*
X0179706Y0374459D01*
X0179706Y0371389D01*
X0178939Y0370622D01*
X0177404Y0370622D01*
X0176637Y0371389D01*
X0181241Y0372924D02*
X0182008Y0372157D01*
X0184310Y0372157D01*
X0184310Y0370622D02*
X0184310Y0375226D01*
X0182008Y0375226D01*
X0181241Y0374459D01*
X0181241Y0372924D01*
X0185845Y0369855D02*
X0188914Y0369855D01*
X0190449Y0370622D02*
X0190449Y0375226D01*
X0190449Y0372924D02*
X0193518Y0372924D01*
X0193518Y0370622D02*
X0193518Y0375226D01*
X0195053Y0375226D02*
X0198122Y0375226D01*
X0196587Y0375226D02*
X0196587Y0370622D01*
X0199657Y0370622D02*
X0202726Y0370622D01*
X0202726Y0375226D01*
X0199657Y0375226D01*
X0201191Y0372924D02*
X0202726Y0372924D01*
X0202726Y0415622D02*
X0199657Y0415622D01*
X0198122Y0415622D02*
X0195053Y0420226D01*
X0193518Y0420226D02*
X0190449Y0420226D01*
X0191984Y0420226D02*
X0191984Y0415622D01*
X0195053Y0415622D02*
X0198122Y0420226D01*
X0199657Y0420226D02*
X0202726Y0420226D01*
X0202726Y0415622D01*
X0202726Y0417924D02*
X0201191Y0417924D01*
X0188914Y0417157D02*
X0186612Y0417157D01*
X0185845Y0417924D01*
X0185845Y0419459D01*
X0186612Y0420226D01*
X0188914Y0420226D01*
X0188914Y0415622D01*
X0187380Y0417157D02*
X0185845Y0415622D01*
X0184310Y0415622D02*
X0184310Y0418691D01*
X0182776Y0420226D01*
X0181241Y0418691D01*
X0181241Y0415622D01*
X0179706Y0414855D02*
X0176637Y0414855D01*
X0175102Y0416389D02*
X0174335Y0415622D01*
X0172800Y0415622D01*
X0172033Y0416389D01*
X0172033Y0417157D01*
X0172800Y0417924D01*
X0174335Y0417924D01*
X0175102Y0418691D01*
X0175102Y0419459D01*
X0174335Y0420226D01*
X0172800Y0420226D01*
X0172033Y0419459D01*
X0170499Y0420226D02*
X0170499Y0415622D01*
X0167429Y0415622D01*
X0165895Y0415622D02*
X0165895Y0420226D01*
X0163593Y0420226D01*
X0162825Y0419459D01*
X0162825Y0417924D01*
X0163593Y0417157D01*
X0165895Y0417157D01*
X0164360Y0417157D02*
X0162825Y0415622D01*
X0161291Y0417157D02*
X0159756Y0415622D01*
X0158221Y0417157D01*
X0158221Y0420226D01*
X0156687Y0419459D02*
X0156687Y0416389D01*
X0155919Y0415622D01*
X0154385Y0415622D01*
X0153617Y0416389D01*
X0153617Y0419459D01*
X0154385Y0420226D01*
X0155919Y0420226D01*
X0156687Y0419459D01*
X0161291Y0420226D02*
X0161291Y0417157D01*
X0167429Y0420226D02*
X0170499Y0420226D01*
X0170499Y0417924D02*
X0168964Y0417924D01*
X0181241Y0417924D02*
X0184310Y0417924D01*
X0272825Y0415622D02*
X0275895Y0415622D01*
X0274360Y0415622D02*
X0274360Y0420226D01*
X0275895Y0418691D01*
X0277429Y0414855D02*
X0280499Y0414855D01*
X0282033Y0415622D02*
X0282033Y0420226D01*
X0283568Y0418691D01*
X0285102Y0420226D01*
X0285102Y0415622D01*
X0286637Y0415622D02*
X0286637Y0418691D01*
X0288172Y0420226D01*
X0289706Y0418691D01*
X0289706Y0415622D01*
X0291241Y0416389D02*
X0292008Y0415622D01*
X0293543Y0415622D01*
X0294310Y0416389D01*
X0294310Y0419459D01*
X0293543Y0420226D01*
X0292008Y0420226D01*
X0291241Y0419459D01*
X0289706Y0417924D02*
X0286637Y0417924D01*
X0295845Y0414855D02*
X0298914Y0414855D01*
X0300449Y0416389D02*
X0301216Y0415622D01*
X0302751Y0415622D01*
X0303518Y0416389D01*
X0303518Y0419459D01*
X0302751Y0420226D01*
X0301216Y0420226D01*
X0300449Y0419459D01*
X0305053Y0420226D02*
X0308122Y0420226D01*
X0308122Y0415622D01*
X0305053Y0415622D01*
X0306587Y0417924D02*
X0308122Y0417924D01*
X0309657Y0417157D02*
X0309657Y0416389D01*
X0310424Y0415622D01*
X0311959Y0415622D01*
X0312726Y0416389D01*
X0311959Y0417924D02*
X0310424Y0417924D01*
X0309657Y0417157D01*
X0309657Y0419459D02*
X0310424Y0420226D01*
X0311959Y0420226D01*
X0312726Y0419459D01*
X0312726Y0418691D01*
X0311959Y0417924D01*
X0311959Y0375226D02*
X0312726Y0374459D01*
X0312726Y0373691D01*
X0311959Y0372924D01*
X0310424Y0372924D01*
X0309657Y0372157D01*
X0309657Y0371389D01*
X0310424Y0370622D01*
X0311959Y0370622D01*
X0312726Y0371389D01*
X0311959Y0375226D02*
X0310424Y0375226D01*
X0309657Y0374459D01*
X0308122Y0375226D02*
X0308122Y0370622D01*
X0305053Y0370622D01*
X0303518Y0371389D02*
X0303518Y0374459D01*
X0302751Y0375226D01*
X0301216Y0375226D01*
X0300449Y0374459D01*
X0300449Y0371389D02*
X0301216Y0370622D01*
X0302751Y0370622D01*
X0303518Y0371389D01*
X0306587Y0372924D02*
X0308122Y0372924D01*
X0308122Y0375226D02*
X0305053Y0375226D01*
X0298914Y0369855D02*
X0295845Y0369855D01*
X0294310Y0371389D02*
X0294310Y0374459D01*
X0293543Y0375226D01*
X0292008Y0375226D01*
X0291241Y0374459D01*
X0289706Y0373691D02*
X0289706Y0370622D01*
X0291241Y0371389D02*
X0292008Y0370622D01*
X0293543Y0370622D01*
X0294310Y0371389D01*
X0289706Y0372924D02*
X0286637Y0372924D01*
X0286637Y0373691D02*
X0286637Y0370622D01*
X0285102Y0370622D02*
X0285102Y0375226D01*
X0283568Y0373691D01*
X0282033Y0375226D01*
X0282033Y0370622D01*
X0280499Y0369855D02*
X0277429Y0369855D01*
X0275895Y0370622D02*
X0272825Y0373691D01*
X0272825Y0374459D01*
X0273593Y0375226D01*
X0275127Y0375226D01*
X0275895Y0374459D01*
X0275895Y0370622D02*
X0272825Y0370622D01*
X0286637Y0373691D02*
X0288172Y0375226D01*
X0289706Y0373691D01*
X0292008Y0330226D02*
X0291241Y0329459D01*
X0291241Y0327924D01*
X0292008Y0327157D01*
X0294310Y0327157D01*
X0292776Y0327157D02*
X0291241Y0325622D01*
X0289706Y0324855D02*
X0286637Y0324855D01*
X0285102Y0325622D02*
X0283568Y0325622D01*
X0284335Y0325622D02*
X0284335Y0330226D01*
X0285102Y0330226D02*
X0283568Y0330226D01*
X0282033Y0330226D02*
X0278964Y0325622D01*
X0278964Y0330226D01*
X0277429Y0330226D02*
X0275127Y0330226D01*
X0274360Y0329459D01*
X0274360Y0327924D01*
X0275127Y0327157D01*
X0277429Y0327157D01*
X0277429Y0325622D02*
X0277429Y0330226D01*
X0272825Y0330226D02*
X0272825Y0326389D01*
X0272058Y0325622D01*
X0270523Y0325622D01*
X0269756Y0326389D01*
X0269756Y0330226D01*
X0268221Y0330226D02*
X0265152Y0330226D01*
X0266687Y0330226D02*
X0266687Y0325622D01*
X0282033Y0325622D02*
X0282033Y0330226D01*
X0292008Y0330226D02*
X0294310Y0330226D01*
X0294310Y0325622D01*
X0295845Y0325622D02*
X0298914Y0325622D01*
X0298914Y0330226D01*
X0295845Y0330226D01*
X0297380Y0327924D02*
X0298914Y0327924D01*
X0300449Y0325622D02*
X0300449Y0330226D01*
X0303518Y0330226D02*
X0303518Y0325622D01*
X0301984Y0327157D01*
X0300449Y0325622D01*
X0305053Y0326389D02*
X0305053Y0329459D01*
X0305820Y0330226D01*
X0307355Y0330226D01*
X0308122Y0329459D01*
X0308122Y0326389D01*
X0307355Y0325622D01*
X0305820Y0325622D01*
X0305053Y0326389D01*
X0309657Y0327924D02*
X0310424Y0327157D01*
X0312726Y0327157D01*
X0312726Y0325622D02*
X0312726Y0330226D01*
X0310424Y0330226D01*
X0309657Y0329459D01*
X0309657Y0327924D01*
X0310424Y0285226D02*
X0311959Y0285226D01*
X0312726Y0284459D01*
X0312726Y0283691D01*
X0311959Y0282924D01*
X0310424Y0282924D01*
X0309657Y0282157D01*
X0309657Y0281389D01*
X0310424Y0280622D01*
X0311959Y0280622D01*
X0312726Y0281389D01*
X0309657Y0284459D02*
X0310424Y0285226D01*
X0308122Y0284459D02*
X0308122Y0281389D01*
X0307355Y0280622D01*
X0305820Y0280622D01*
X0305053Y0281389D01*
X0305053Y0284459D01*
X0305820Y0285226D01*
X0307355Y0285226D01*
X0308122Y0284459D01*
X0303518Y0285226D02*
X0303518Y0280622D01*
X0300449Y0280622D01*
X0298914Y0280622D02*
X0298914Y0285226D01*
X0295845Y0285226D01*
X0294310Y0285226D02*
X0291241Y0280622D01*
X0291241Y0285226D01*
X0289706Y0284459D02*
X0289706Y0281389D01*
X0288939Y0280622D01*
X0287404Y0280622D01*
X0286637Y0281389D01*
X0286637Y0284459D01*
X0287404Y0285226D01*
X0288939Y0285226D01*
X0289706Y0284459D01*
X0285102Y0285226D02*
X0283568Y0285226D01*
X0284335Y0285226D02*
X0284335Y0280622D01*
X0285102Y0280622D02*
X0283568Y0280622D01*
X0282033Y0280622D02*
X0279731Y0280622D01*
X0278964Y0281389D01*
X0278964Y0284459D01*
X0279731Y0285226D01*
X0282033Y0285226D01*
X0282033Y0280622D01*
X0277429Y0279855D02*
X0274360Y0279855D01*
X0272825Y0280622D02*
X0272825Y0285226D01*
X0270523Y0285226D01*
X0269756Y0284459D01*
X0269756Y0282924D01*
X0270523Y0282157D01*
X0272825Y0282157D01*
X0268221Y0281389D02*
X0267454Y0280622D01*
X0265919Y0280622D01*
X0265152Y0281389D01*
X0265152Y0284459D01*
X0265919Y0285226D01*
X0267454Y0285226D01*
X0268221Y0284459D01*
X0268221Y0281389D01*
X0263617Y0280622D02*
X0262083Y0282157D01*
X0260548Y0280622D01*
X0260548Y0285226D01*
X0259014Y0285226D02*
X0259014Y0280622D01*
X0255944Y0280622D01*
X0254410Y0280622D02*
X0254410Y0285226D01*
X0252108Y0285226D01*
X0251340Y0284459D01*
X0251340Y0282924D01*
X0252108Y0282157D01*
X0254410Y0282157D01*
X0252875Y0282157D02*
X0251340Y0280622D01*
X0255944Y0285226D02*
X0259014Y0285226D01*
X0259014Y0282924D02*
X0257479Y0282924D01*
X0263617Y0285226D02*
X0263617Y0280622D01*
X0294310Y0280622D02*
X0294310Y0285226D01*
X0297380Y0282924D02*
X0298914Y0282924D01*
X0298914Y0280622D02*
X0295845Y0280622D01*
X0354378Y0216591D02*
X0355913Y0215057D01*
X0355913Y0215824D02*
X0355913Y0213522D01*
X0354378Y0213522D02*
X0358982Y0213522D01*
X0358982Y0215824D01*
X0358215Y0216591D01*
X0356680Y0216591D01*
X0355913Y0215824D01*
X0355145Y0211987D02*
X0358215Y0211987D01*
X0358982Y0211220D01*
X0358982Y0209685D01*
X0358215Y0208918D01*
X0355145Y0208918D01*
X0354378Y0209685D01*
X0354378Y0211220D01*
X0355145Y0211987D01*
X0355145Y0207383D02*
X0354378Y0206616D01*
X0354378Y0205081D01*
X0355145Y0204314D01*
X0354378Y0202779D02*
X0358982Y0202779D01*
X0358215Y0204314D02*
X0357447Y0204314D01*
X0356680Y0205081D01*
X0356680Y0206616D01*
X0355913Y0207383D01*
X0355145Y0207383D01*
X0358215Y0207383D02*
X0358982Y0206616D01*
X0358982Y0205081D01*
X0358215Y0204314D01*
X0354378Y0202779D02*
X0358982Y0199710D01*
X0354378Y0199710D01*
X0354378Y0198176D02*
X0354378Y0195106D01*
X0358982Y0195106D01*
X0358982Y0198176D01*
X0356680Y0196641D02*
X0356680Y0195106D01*
X0355913Y0193572D02*
X0355145Y0193572D01*
X0354378Y0192804D01*
X0354378Y0191270D01*
X0355145Y0190502D01*
X0356680Y0191270D02*
X0357447Y0190502D01*
X0358215Y0190502D01*
X0358982Y0191270D01*
X0358982Y0192804D01*
X0358215Y0193572D01*
X0356680Y0192804D02*
X0355913Y0193572D01*
X0356680Y0192804D02*
X0356680Y0191270D01*
X0353611Y0188968D02*
X0353611Y0185898D01*
X0355913Y0183596D02*
X0355913Y0181294D01*
X0354378Y0181294D02*
X0358982Y0181294D01*
X0358982Y0183596D01*
X0358215Y0184364D01*
X0356680Y0184364D01*
X0355913Y0183596D01*
X0354378Y0179760D02*
X0358982Y0179760D01*
X0357447Y0178225D01*
X0358982Y0176691D01*
X0354378Y0176691D01*
X0354378Y0175156D02*
X0354378Y0172087D01*
X0358982Y0172087D01*
X0358982Y0175156D01*
X0356680Y0173621D02*
X0356680Y0172087D01*
X0358982Y0170552D02*
X0358982Y0167483D01*
X0358982Y0169017D02*
X0354378Y0169017D01*
X0358991Y0143191D02*
X0360076Y0137765D01*
X0356820Y0141021D01*
X0356820Y0138850D02*
X0354650Y0138850D01*
X0354650Y0136680D01*
X0356820Y0134510D01*
X0354650Y0134510D02*
X0354650Y0132339D01*
X0352480Y0132339D01*
X0350309Y0134510D01*
X0352480Y0136680D02*
X0354650Y0134510D01*
X0355193Y0136137D02*
X0357363Y0138308D01*
X0356820Y0138850D02*
X0358991Y0136680D01*
X0362246Y0139936D02*
X0358991Y0143191D01*
X0353022Y0129627D02*
X0350852Y0127456D01*
X0348682Y0127456D02*
X0348682Y0126371D01*
X0347597Y0125286D01*
X0346511Y0125286D01*
X0345426Y0124201D02*
X0345426Y0123116D01*
X0344341Y0122030D01*
X0343256Y0122030D01*
X0341086Y0124201D01*
X0341086Y0125286D01*
X0342171Y0126371D01*
X0343256Y0126371D01*
X0345426Y0124201D01*
X0344341Y0127456D02*
X0344341Y0128541D01*
X0345426Y0129627D01*
X0346511Y0129627D01*
X0348682Y0127456D01*
X0342713Y0120403D02*
X0339458Y0123658D01*
X0339458Y0121488D01*
X0337288Y0121488D01*
X0340543Y0118232D01*
X0303726Y0095226D02*
X0303726Y0090622D01*
X0301424Y0090622D01*
X0300657Y0091389D01*
X0300657Y0092157D01*
X0301424Y0092924D01*
X0303726Y0092924D01*
X0301424Y0092924D02*
X0300657Y0093691D01*
X0300657Y0094459D01*
X0301424Y0095226D01*
X0303726Y0095226D01*
X0299122Y0095226D02*
X0299122Y0090622D01*
X0299122Y0092157D02*
X0296820Y0092157D01*
X0296053Y0092924D01*
X0296053Y0094459D01*
X0296820Y0095226D01*
X0299122Y0095226D01*
X0297587Y0092157D02*
X0296053Y0090622D01*
X0294518Y0090622D02*
X0292984Y0090622D01*
X0293751Y0090622D02*
X0293751Y0095226D01*
X0294518Y0095226D02*
X0292984Y0095226D01*
X0291449Y0094459D02*
X0291449Y0091389D01*
X0290682Y0090622D01*
X0289147Y0090622D01*
X0288380Y0091389D01*
X0286845Y0090622D02*
X0286845Y0095226D01*
X0288380Y0094459D02*
X0289147Y0095226D01*
X0290682Y0095226D01*
X0291449Y0094459D01*
X0286845Y0092157D02*
X0283776Y0095226D01*
X0282241Y0094459D02*
X0282241Y0093691D01*
X0281474Y0092924D01*
X0279939Y0092924D01*
X0279172Y0092157D01*
X0279172Y0091389D01*
X0279939Y0090622D01*
X0281474Y0090622D01*
X0282241Y0091389D01*
X0283776Y0090622D02*
X0286078Y0092924D01*
X0282241Y0094459D02*
X0281474Y0095226D01*
X0279939Y0095226D01*
X0279172Y0094459D01*
X0277637Y0089855D02*
X0274568Y0089855D01*
X0273033Y0091389D02*
X0272266Y0090622D01*
X0270731Y0090622D01*
X0269964Y0091389D01*
X0268429Y0091389D02*
X0267662Y0090622D01*
X0266127Y0090622D01*
X0265360Y0091389D01*
X0265360Y0094459D01*
X0266127Y0095226D01*
X0267662Y0095226D01*
X0268429Y0094459D01*
X0268429Y0091389D01*
X0269964Y0094459D02*
X0270731Y0095226D01*
X0272266Y0095226D01*
X0273033Y0094459D01*
X0273033Y0091389D01*
X0263825Y0090622D02*
X0263825Y0095226D01*
X0262291Y0093691D01*
X0260756Y0095226D01*
X0260756Y0090622D01*
X0212726Y0090622D02*
X0212726Y0095226D01*
X0211191Y0093691D01*
X0209657Y0095226D01*
X0209657Y0090622D01*
X0208122Y0090622D02*
X0208122Y0093691D01*
X0206587Y0095226D01*
X0205053Y0093691D01*
X0205053Y0090622D01*
X0203518Y0090622D02*
X0201984Y0090622D01*
X0202751Y0090622D02*
X0202751Y0095226D01*
X0203518Y0095226D02*
X0201984Y0095226D01*
X0200449Y0095226D02*
X0197380Y0090622D01*
X0197380Y0095226D01*
X0200449Y0095226D02*
X0200449Y0090622D01*
X0195845Y0089855D02*
X0192776Y0089855D01*
X0191241Y0091389D02*
X0190474Y0090622D01*
X0188939Y0090622D01*
X0188172Y0091389D01*
X0186637Y0090622D02*
X0186637Y0093691D01*
X0185102Y0095226D01*
X0183568Y0093691D01*
X0183568Y0090622D01*
X0182033Y0090622D02*
X0182033Y0095226D01*
X0180499Y0093691D01*
X0178964Y0095226D01*
X0178964Y0090622D01*
X0177429Y0089855D02*
X0174360Y0089855D01*
X0172825Y0090622D02*
X0170523Y0090622D01*
X0169756Y0091389D01*
X0169756Y0094459D01*
X0170523Y0095226D01*
X0172825Y0095226D01*
X0172825Y0090622D01*
X0168221Y0090622D02*
X0168221Y0093691D01*
X0166687Y0095226D01*
X0165152Y0093691D01*
X0165152Y0090622D01*
X0165152Y0092924D02*
X0168221Y0092924D01*
X0163617Y0095226D02*
X0160548Y0095226D01*
X0162083Y0095226D02*
X0162083Y0090622D01*
X0159014Y0090622D02*
X0159014Y0093691D01*
X0157479Y0095226D01*
X0155944Y0093691D01*
X0155944Y0090622D01*
X0155944Y0092924D02*
X0159014Y0092924D01*
X0137648Y0099067D02*
X0137106Y0098524D01*
X0136021Y0098524D01*
X0134936Y0099609D01*
X0133850Y0099609D01*
X0133308Y0099067D01*
X0133308Y0097982D01*
X0134393Y0096896D01*
X0135478Y0096896D01*
X0137648Y0099067D02*
X0137648Y0100152D01*
X0136563Y0101237D01*
X0135478Y0101237D01*
X0134393Y0102322D02*
X0132223Y0100152D01*
X0131138Y0100152D01*
X0130052Y0101237D01*
X0130052Y0102322D01*
X0132223Y0104493D01*
X0133308Y0104493D01*
X0134393Y0103407D01*
X0134393Y0102322D01*
X0131680Y0106120D02*
X0128425Y0102865D01*
X0126254Y0105035D01*
X0125169Y0106120D02*
X0122999Y0108291D01*
X0121914Y0109376D02*
X0125169Y0112631D01*
X0119743Y0111546D01*
X0122999Y0114802D01*
X0121371Y0115344D02*
X0119201Y0113174D01*
X0118116Y0113174D01*
X0117031Y0114259D01*
X0117030Y0115344D01*
X0119201Y0117514D01*
X0120286Y0117514D01*
X0121371Y0116429D01*
X0121371Y0115344D01*
X0118658Y0119142D02*
X0117573Y0120227D01*
X0118116Y0119685D02*
X0114860Y0116429D01*
X0115403Y0115887D02*
X0114318Y0116972D01*
X0113232Y0118057D02*
X0111605Y0119685D01*
X0111605Y0120770D01*
X0113775Y0122940D01*
X0114860Y0122940D01*
X0116488Y0121312D01*
X0113232Y0118057D01*
X0109434Y0120770D02*
X0107264Y0122940D01*
X0106722Y0124568D02*
X0105094Y0126196D01*
X0105094Y0127281D01*
X0107264Y0129451D01*
X0108349Y0129451D01*
X0109977Y0127823D01*
X0106722Y0124568D01*
X0103466Y0127823D02*
X0105636Y0129994D01*
X0105636Y0132164D01*
X0103466Y0132164D01*
X0101296Y0129994D01*
X0102924Y0131621D02*
X0105094Y0129451D01*
X0103466Y0134334D02*
X0101296Y0136505D01*
X0102381Y0135419D02*
X0099125Y0132164D01*
X0096955Y0134334D02*
X0099125Y0136505D01*
X0099125Y0138675D01*
X0096955Y0138675D01*
X0094785Y0136505D01*
X0096413Y0138132D02*
X0098583Y0135962D01*
X0126254Y0111546D02*
X0128425Y0109376D01*
X0125169Y0106120D01*
X0126797Y0107748D02*
X0125712Y0108833D01*
X0183568Y0092924D02*
X0186637Y0092924D01*
X0188172Y0094459D02*
X0188939Y0095226D01*
X0190474Y0095226D01*
X0191241Y0094459D01*
X0191241Y0091389D01*
X0205053Y0092924D02*
X0208122Y0092924D01*
M02*
