G75*
%MOIN*%
%OFA0B0*%
%FSLAX25Y25*%
%IPPOS*%
%LPD*%
%AMOC8*
5,1,8,0,0,1.08239X$1,22.5*
%
%ADD10C,0.13398*%
%ADD11R,0.02769X0.05524*%
%ADD12C,0.05800*%
%ADD13C,0.16800*%
%ADD14C,0.04762*%
D10*
X0051800Y0226800D03*
X0226800Y0051800D03*
X0401800Y0226800D03*
X0226800Y0401800D03*
D11*
X0232973Y0230493D03*
X0236123Y0230493D03*
X0239272Y0230493D03*
X0242422Y0230493D03*
X0245572Y0230493D03*
X0248721Y0230493D03*
X0251871Y0230493D03*
X0255020Y0230493D03*
X0258170Y0230493D03*
X0261320Y0230493D03*
X0264469Y0230493D03*
X0267619Y0230493D03*
X0270769Y0230493D03*
X0273918Y0230493D03*
X0277068Y0230493D03*
X0280217Y0230493D03*
X0283367Y0230493D03*
X0286517Y0230493D03*
X0286517Y0217107D03*
X0283367Y0217107D03*
X0280217Y0217107D03*
X0277068Y0217107D03*
X0273918Y0217107D03*
X0270769Y0217107D03*
X0267619Y0217107D03*
X0264469Y0217107D03*
X0261320Y0217107D03*
X0258170Y0217107D03*
X0255020Y0217107D03*
X0251871Y0217107D03*
X0248721Y0217107D03*
X0245572Y0217107D03*
X0242422Y0217107D03*
X0239272Y0217107D03*
X0236123Y0217107D03*
X0232973Y0217107D03*
X0217225Y0217107D03*
X0214076Y0217107D03*
X0210926Y0217107D03*
X0207776Y0217107D03*
X0204627Y0217107D03*
X0201477Y0217107D03*
X0198328Y0217107D03*
X0195178Y0217107D03*
X0192028Y0217107D03*
X0188879Y0217107D03*
X0185729Y0217107D03*
X0182580Y0217107D03*
X0179430Y0217107D03*
X0176280Y0217107D03*
X0173131Y0217107D03*
X0169981Y0217107D03*
X0166831Y0217107D03*
X0163682Y0217107D03*
X0160532Y0217107D03*
X0157383Y0217107D03*
X0154233Y0217107D03*
X0151083Y0217107D03*
X0151083Y0230493D03*
X0154233Y0230493D03*
X0157383Y0230493D03*
X0160532Y0230493D03*
X0163682Y0230493D03*
X0166831Y0230493D03*
X0169981Y0230493D03*
X0173131Y0230493D03*
X0176280Y0230493D03*
X0179430Y0230493D03*
X0182580Y0230493D03*
X0185729Y0230493D03*
X0188879Y0230493D03*
X0192028Y0230493D03*
X0195178Y0230493D03*
X0198328Y0230493D03*
X0201477Y0230493D03*
X0204627Y0230493D03*
X0207776Y0230493D03*
X0210926Y0230493D03*
X0214076Y0230493D03*
X0217225Y0230493D03*
X0218225Y0180493D03*
X0215076Y0180493D03*
X0211926Y0180493D03*
X0208776Y0180493D03*
X0205627Y0180493D03*
X0202477Y0180493D03*
X0199328Y0180493D03*
X0196178Y0180493D03*
X0193028Y0180493D03*
X0189879Y0180493D03*
X0186729Y0180493D03*
X0183580Y0180493D03*
X0180430Y0180493D03*
X0177280Y0180493D03*
X0174131Y0180493D03*
X0170981Y0180493D03*
X0167831Y0180493D03*
X0164682Y0180493D03*
X0161532Y0180493D03*
X0158383Y0180493D03*
X0155233Y0180493D03*
X0152083Y0180493D03*
X0148934Y0180493D03*
X0145784Y0180493D03*
X0142635Y0180493D03*
X0139485Y0180493D03*
X0136335Y0180493D03*
X0133186Y0180493D03*
X0130036Y0180493D03*
X0126887Y0180493D03*
X0123737Y0180493D03*
X0120587Y0180493D03*
X0120587Y0167107D03*
X0123737Y0167107D03*
X0126887Y0167107D03*
X0130036Y0167107D03*
X0133186Y0167107D03*
X0136335Y0167107D03*
X0139485Y0167107D03*
X0142635Y0167107D03*
X0145784Y0167107D03*
X0148934Y0167107D03*
X0152083Y0167107D03*
X0155233Y0167107D03*
X0158383Y0167107D03*
X0161532Y0167107D03*
X0164682Y0167107D03*
X0167831Y0167107D03*
X0170981Y0167107D03*
X0174131Y0167107D03*
X0177280Y0167107D03*
X0180430Y0167107D03*
X0183580Y0167107D03*
X0186729Y0167107D03*
X0189879Y0167107D03*
X0193028Y0167107D03*
X0196178Y0167107D03*
X0199328Y0167107D03*
X0202477Y0167107D03*
X0205627Y0167107D03*
X0208776Y0167107D03*
X0211926Y0167107D03*
X0215076Y0167107D03*
X0218225Y0167107D03*
X0233973Y0167107D03*
X0237123Y0167107D03*
X0240272Y0167107D03*
X0243422Y0167107D03*
X0246572Y0167107D03*
X0249721Y0167107D03*
X0252871Y0167107D03*
X0256020Y0167107D03*
X0259170Y0167107D03*
X0262320Y0167107D03*
X0265469Y0167107D03*
X0268619Y0167107D03*
X0271769Y0167107D03*
X0274918Y0167107D03*
X0278068Y0167107D03*
X0281217Y0167107D03*
X0284367Y0167107D03*
X0287517Y0167107D03*
X0290666Y0167107D03*
X0293816Y0167107D03*
X0296965Y0167107D03*
X0300115Y0167107D03*
X0303265Y0167107D03*
X0306414Y0167107D03*
X0309564Y0167107D03*
X0312713Y0167107D03*
X0315863Y0167107D03*
X0319013Y0167107D03*
X0319013Y0180493D03*
X0315863Y0180493D03*
X0312713Y0180493D03*
X0309564Y0180493D03*
X0306414Y0180493D03*
X0303265Y0180493D03*
X0300115Y0180493D03*
X0296965Y0180493D03*
X0293816Y0180493D03*
X0290666Y0180493D03*
X0287517Y0180493D03*
X0284367Y0180493D03*
X0281217Y0180493D03*
X0278068Y0180493D03*
X0274918Y0180493D03*
X0271769Y0180493D03*
X0268619Y0180493D03*
X0265469Y0180493D03*
X0262320Y0180493D03*
X0259170Y0180493D03*
X0256020Y0180493D03*
X0252871Y0180493D03*
X0249721Y0180493D03*
X0246572Y0180493D03*
X0243422Y0180493D03*
X0240272Y0180493D03*
X0237123Y0180493D03*
X0233973Y0180493D03*
X0234123Y0125493D03*
X0237272Y0125493D03*
X0240422Y0125493D03*
X0243572Y0125493D03*
X0246721Y0125493D03*
X0249871Y0125493D03*
X0253020Y0125493D03*
X0256170Y0125493D03*
X0259320Y0125493D03*
X0262469Y0125493D03*
X0265619Y0125493D03*
X0268769Y0125493D03*
X0271918Y0125493D03*
X0275068Y0125493D03*
X0278217Y0125493D03*
X0281367Y0125493D03*
X0284517Y0125493D03*
X0284517Y0112107D03*
X0281367Y0112107D03*
X0278217Y0112107D03*
X0275068Y0112107D03*
X0271918Y0112107D03*
X0268769Y0112107D03*
X0265619Y0112107D03*
X0262469Y0112107D03*
X0259320Y0112107D03*
X0256170Y0112107D03*
X0253020Y0112107D03*
X0249871Y0112107D03*
X0246721Y0112107D03*
X0243572Y0112107D03*
X0240422Y0112107D03*
X0237272Y0112107D03*
X0234123Y0112107D03*
X0230973Y0112107D03*
X0230973Y0125493D03*
X0215225Y0125493D03*
X0212076Y0125493D03*
X0208926Y0125493D03*
X0205776Y0125493D03*
X0202627Y0125493D03*
X0199477Y0125493D03*
X0196328Y0125493D03*
X0193178Y0125493D03*
X0190028Y0125493D03*
X0186879Y0125493D03*
X0183729Y0125493D03*
X0180580Y0125493D03*
X0177430Y0125493D03*
X0174280Y0125493D03*
X0171131Y0125493D03*
X0167981Y0125493D03*
X0164831Y0125493D03*
X0161682Y0125493D03*
X0158532Y0125493D03*
X0155383Y0125493D03*
X0152233Y0125493D03*
X0149083Y0125493D03*
X0149083Y0112107D03*
X0152233Y0112107D03*
X0155383Y0112107D03*
X0158532Y0112107D03*
X0161682Y0112107D03*
X0164831Y0112107D03*
X0167981Y0112107D03*
X0171131Y0112107D03*
X0174280Y0112107D03*
X0177430Y0112107D03*
X0180580Y0112107D03*
X0183729Y0112107D03*
X0186879Y0112107D03*
X0190028Y0112107D03*
X0193178Y0112107D03*
X0196328Y0112107D03*
X0199477Y0112107D03*
X0202627Y0112107D03*
X0205776Y0112107D03*
X0208926Y0112107D03*
X0212076Y0112107D03*
X0215225Y0112107D03*
D12*
X0143178Y0112894D03*
X0114682Y0167894D03*
X0145178Y0217894D03*
X0292422Y0223800D03*
X0324918Y0173800D03*
X0290422Y0118800D03*
D13*
X0355300Y0296800D03*
X0098800Y0296800D03*
D14*
X0090800Y0099800D03*
X0145800Y0151800D03*
X0141800Y0155800D03*
X0150800Y0147800D03*
X0169800Y0145800D03*
X0163800Y0173800D03*
X0145800Y0188800D03*
X0143800Y0173800D03*
X0125800Y0160800D03*
X0162800Y0203800D03*
X0179800Y0203800D03*
X0198800Y0204800D03*
X0207800Y0204800D03*
X0216800Y0204800D03*
X0226800Y0204800D03*
X0236800Y0204800D03*
X0253800Y0190800D03*
X0253800Y0159800D03*
X0248800Y0155800D03*
X0242800Y0159800D03*
X0231800Y0153800D03*
X0196800Y0185800D03*
X0186800Y0173800D03*
X0176800Y0223800D03*
X0159800Y0223800D03*
X0159800Y0241800D03*
X0159800Y0251800D03*
X0159800Y0261800D03*
X0176800Y0261800D03*
X0176800Y0252800D03*
X0176800Y0242800D03*
X0198800Y0242800D03*
X0198800Y0251800D03*
X0207800Y0251800D03*
X0207800Y0242800D03*
X0216800Y0242800D03*
X0216800Y0251800D03*
X0216800Y0261800D03*
X0226800Y0261800D03*
X0226800Y0251800D03*
X0226800Y0242800D03*
X0237800Y0242800D03*
X0237800Y0251800D03*
X0237800Y0261800D03*
X0225800Y0223800D03*
X0210800Y0223800D03*
X0199800Y0223800D03*
X0284800Y0143800D03*
X0285800Y0151800D03*
X0292800Y0153800D03*
X0293800Y0159800D03*
X0288800Y0205800D03*
X0289800Y0242800D03*
X0290800Y0256800D03*
X0296800Y0307800D03*
X0296800Y0338800D03*
X0335800Y0372800D03*
X0294800Y0392800D03*
X0344800Y0326800D03*
X0383800Y0320800D03*
X0381800Y0278800D03*
X0353800Y0255800D03*
X0387800Y0200800D03*
X0404800Y0144800D03*
X0367800Y0096800D03*
X0276800Y0049800D03*
X0177800Y0055800D03*
X0059800Y0184800D03*
X0101800Y0233800D03*
X0055800Y0274800D03*
X0115800Y0328800D03*
X0080800Y0338800D03*
X0135800Y0372800D03*
X0156800Y0389800D03*
X0153800Y0336800D03*
M02*
